<?xml version="1.0" encoding="UTF-8" standalone="no"?>
<!-- Created with Inkscape (http://www.inkscape.org/) -->

<svg
   xmlns:dc="http://purl.org/dc/elements/1.1/"
   xmlns:cc="http://creativecommons.org/ns#"
   xmlns:rdf="http://www.w3.org/1999/02/22-rdf-syntax-ns#"
   xmlns:svg="http://www.w3.org/2000/svg"
   xmlns="http://www.w3.org/2000/svg"
   xmlns:sodipodi="http://sodipodi.sourceforge.net/DTD/sodipodi-0.dtd"
   xmlns:inkscape="http://www.inkscape.org/namespaces/inkscape"
   width="54.707424mm"
   height="53.826786mm"
   viewBox="0 0 193.8452 190.72484"
   id="svg2"
   version="1.1"
   inkscape:version="0.91 r13725"
   sodipodi:docname="angry_bargainer.svg">
  <defs
     id="defs4" />
  <sodipodi:namedview
     id="base"
     pagecolor="#ffffff"
     bordercolor="#666666"
     borderopacity="1.0"
     inkscape:pageopacity="0.0"
     inkscape:pageshadow="2"
     inkscape:zoom="0.98994949"
     inkscape:cx="190.74335"
     inkscape:cy="111.27123"
     inkscape:document-units="px"
     inkscape:current-layer="layer1"
     showgrid="false"
     inkscape:window-width="1366"
     inkscape:window-height="744"
     inkscape:window-x="0"
     inkscape:window-y="24"
     inkscape:window-maximized="1"
     fit-margin-top="0"
     fit-margin-left="0"
     fit-margin-right="0"
     fit-margin-bottom="0" />
  <metadata
     id="metadata7">
    <rdf:RDF>
      <cc:Work
         rdf:about="">
        <dc:format>image/svg+xml</dc:format>
        <dc:type
           rdf:resource="http://purl.org/dc/dcmitype/StillImage" />
        <dc:title></dc:title>
      </cc:Work>
    </rdf:RDF>
  </metadata>
  <g
     inkscape:label="Layer 1"
     inkscape:groupmode="layer"
     id="layer1"
     transform="translate(-113.23395,-405.1445)">
    <path
       style="fill:#000000"
       d="m 208.93661,595.33012 c -52.24008,-0.4489 -95.08291,-0.91713 -95.20628,-1.0405 -0.12337,-0.12336 -0.28552,-42.73148 -0.36035,-94.68471 l -0.13604,-94.46041 96.28021,0 96.28021,0 0.22236,9.24646 c 0.12229,5.08555 -0.18726,9.4996 -0.68789,9.80901 -0.52141,0.32225 -0.91025,-3.30726 -0.91025,-8.49645 l 0,-9.05902 -27.57398,0 -27.574,0 0.35431,4.25 0.35431,4.25 5.46968,0.62614 c 9.22028,1.05548 20.79409,4.52906 26.77659,8.03629 6.36496,3.73146 17.27045,14.1527 19.67374,18.80016 0.86389,1.67058 2.12165,3.03931 2.79503,3.04163 0.85701,0.003 1.25913,2.47803 1.34036,8.25001 0.0638,4.53517 -0.08,7.23328 -0.31955,5.99578 -0.23957,-1.2375 -0.74179,-2.24013 -1.11604,-2.22806 -0.7446,0.024 -12.52765,24.00254 -12.0034,24.42692 0.73632,0.59605 10.27971,3.55114 11.46834,3.55114 0.95685,0 1.37133,-2.8996 1.6081,-11.25 0.17545,-6.1875 0.48617,14.625 0.69049,46.25 0.20432,31.62501 0.49103,61.39404 0.63713,66.15342 0.22771,7.41739 0.0266,8.70303 -1.40773,9.00089 -0.92036,0.19112 -44.41526,-0.0198 -96.65535,-0.4687 z m -65.27794,-16.30976 c 3.00248,-1.55265 3.05534,-1.68307 1.20034,-2.96192 -1.06725,-0.73577 -3.40066,-2.81739 -5.18537,-4.62584 -3.67967,-3.7286 -4.06148,-2.87625 -2.13636,4.7691 1.24657,4.95058 1.64443,5.13378 6.12139,2.81866 z m 24.27747,-1.03628 c 1.51325,-1.51325 1.51888,-1.73965 0.0635,-2.55412 -2.05878,-1.15215 -3.58108,-0.18566 -3.58108,2.27358 0,2.37942 1.31391,2.48421 3.51757,0.28054 z m -43.90517,-8.87077 c 2.02569,-3.09159 1.21427,-4.16648 -2.02954,-2.6885 -1.77186,0.80731 -2.28059,1.65963 -1.88759,3.16244 0.7161,2.73838 1.90672,2.59432 3.91713,-0.47394 z m 98.3876,0.113 c 0,-0.78002 -0.2806,-2.14945 -0.62356,-3.04317 -0.57101,-1.48805 -0.78165,-1.48189 -2.5,0.0732 -2.6376,2.387 -2.35324,4.38818 0.62356,4.38818 1.49148,0 2.5,-0.57212 2.5,-1.41821 z m -24.68351,-2.12491 c 8.68803,-4.11359 14.49583,-13.93609 15.41336,-26.06798 0.46873,-6.1976 0.22665,-7.86778 -1.67645,-11.56624 -3.21799,-6.25384 -8.69348,-11.57574 -15.5534,-15.11711 -5.45568,-2.81644 -6.875,-3.10235 -15.64502,-3.1515 -8.02661,-0.045 -9.98765,0.25602 -11.68698,1.7939 -1.15692,1.047 -2.56969,1.52182 -3.2595,1.09549 -0.77683,-0.4801 -0.95925,-0.33458 -0.504,0.40204 0.39244,0.63498 1.37609,1.15451 2.1859,1.15451 2.29977,0 2.59934,2.21076 0.93773,6.92025 -0.84047,2.38216 -1.52813,4.65955 -1.52813,5.06087 0,0.40132 2.89142,0.99968 6.42539,1.32968 3.53397,0.33001 8.0844,1.29319 10.11208,2.14041 3.40608,1.42315 3.64315,1.78808 3.11479,4.79459 -0.31455,1.78981 -0.87577,6.09026 -1.24717,9.55656 l -0.67527,6.30238 5.38509,-0.6128 c 2.9618,-0.33704 6.39759,-0.81917 7.63509,-1.07141 3.23377,-0.65915 2.89443,1.02613 -2.20066,10.92907 -2.44786,4.75773 -4.03516,8.65041 -3.52734,8.65041 0.50783,0 3.34035,-1.14441 6.29449,-2.54312 z m -33.46572,-6.55471 c 3.40199,-1.18593 4.47002,-3.45615 1.12675,-2.39504 -2.65535,0.84278 -7.61373,-0.28619 -9.48781,-2.16027 -0.81934,-0.81935 -1.48972,-3.25757 -1.48972,-5.41829 0,-2.16072 -0.26803,-3.92858 -0.59563,-3.92858 -0.32759,0 -1.90219,0.93036 -3.4991,2.06746 l -2.90347,2.06746 -1.0009,-2.63256 c -0.55049,-1.44791 -1.03252,-4.06576 -1.07118,-5.81746 -0.0387,-1.75169 -0.43149,-4.0849 -0.87296,-5.1849 -0.67425,-1.68001 -0.99401,-1.302 -1.99859,2.36262 -3.89366,14.20388 8.12264,25.80494 21.79261,21.03956 z m 70.51399,-6.93741 c -1.33167,-1.33167 -3.86028,1.42446 -2.83253,3.0874 0.49971,0.80854 1.16614,0.67804 2.29324,-0.44906 1.10919,-1.10919 1.27199,-1.90564 0.53929,-2.63834 z m 70.63525,-34.89381 0,-30.92904 -5.75,-1.62758 c -3.1625,-0.89516 -6.5375,-1.85742 -7.5,-2.13834 -0.9625,-0.28093 -2.65928,-0.22218 -3.77062,0.13054 -2.32534,0.73804 -6.56354,8.52924 -8.92417,16.40556 -1.64296,5.48177 -4.83109,8.91818 -5.79695,6.2484 -0.32885,-0.90901 -0.85802,-0.59048 -1.64654,0.99114 -1.61404,3.23744 -4.61172,3.69191 -4.61172,0.69918 l 0,-2.29583 -1.5567,2.2225 c -1.76043,2.51337 -4.4433,2.97086 -4.4433,0.75769 0,-0.80565 -0.9,-1.94648 -2.00001,-2.53518 -2.43157,-1.30134 -2.61796,-5.27676 -0.48658,-10.37788 1.6351,-3.91331 1.44986,-4.24064 -1.39452,-2.4643 -1.01968,0.6368 -2.61612,0.86536 -3.54764,0.5079 -1.58805,-0.60939 -1.58887,-0.82732 -0.0133,-3.49461 1.61953,-2.74164 5.63349,-5.38618 10.06014,-6.62798 1.16496,-0.3268 2.91185,-1.47126 3.88197,-2.54323 1.70342,-1.88226 1.6651,-1.98671 -1.11811,-3.04813 -5.32775,-2.0318 -19.16513,-5.82972 -25.55047,-7.01279 -3.48234,-0.6452 -10.20587,-2.22154 -14.94119,-3.50298 -4.73532,-1.28144 -11.03532,-2.62705 -14,-2.99025 -2.96465,-0.3632 -11.55491,-2.18707 -19.08943,-4.05306 -7.53452,-1.86598 -13.9048,-3.39269 -14.15617,-3.39269 -0.76825,0 -1.86717,9.86947 -2.00977,18.0498 -0.1067,6.12136 -0.53944,8.18804 -2.06809,9.87681 -1.62848,1.79905 -2.14718,1.92162 -3.2911,0.77771 -1.04636,-1.04636 -1.11175,-2.00546 -0.28499,-4.18001 0.94479,-2.48497 0.88997,-2.67021 -0.4589,-1.55075 -1.03128,0.85589 -1.53185,3.04385 -1.53185,6.6956 l 0,5.42427 -4.93151,-0.43206 c -3.95401,-0.34641 -5.63884,-1.119 -8.5,-3.89773 -4.82653,-4.68746 -5.00236,-10.06097 -0.49711,-15.19216 l 3.07138,-3.49812 -1.26884,-7.55131 c -1.36964,-8.15116 -1.13136,-7.91811 -9.92419,-9.70671 -0.85264,-0.17344 -3.4262,1.65575 -5.71902,4.06486 -4.05143,4.25692 -4.31129,4.36651 -9.23238,3.89366 -3.32692,-0.31968 -5.85915,-1.23393 -7.38316,-2.66566 -1.92559,-1.809 -3.02405,-2.06646 -6.46737,-1.51585 l -4.14781,0.66326 0,14.33701 c 0,12.66997 0.20495,14.4467 1.76263,15.28034 6.86399,3.67349 61.15474,21.59225 70.18344,23.16417 6.67867,1.16277 12.38618,3.60919 17.55394,7.52418 4.17898,3.16592 10.21362,5.337 40,14.39081 14.3,4.3466 32.97501,10.14493 41.50001,12.88516 8.525,2.74024 16.5125,5.02286 17.75,5.07249 l 2.25,0.0902 0,-30.92905 z m -79.89789,26.60251 c 3.68355,-2.52213 4.09688,-5.12357 1.42105,-8.94386 -1.41559,-2.02104 -1.5635,-1.88727 -3.99658,3.61436 -3.75748,8.49633 -3.33287,9.37499 2.57553,5.3295 z m -99.52133,-5.426 c -1.15374,-1.15374 -1.74564,0.65318 -0.95886,2.92717 l 0.80455,2.32536 0.36756,-2.33586 c 0.20216,-1.28473 0.1062,-2.59723 -0.21325,-2.91667 z m 57.12764,2.32771 c 0.11464,-0.0873 0.33964,-2.13952 0.5,-4.56052 0.28771,-4.34349 0.23858,-4.41809 -3.70843,-5.63138 -2.2,-0.67627 -6.37663,-1.26416 -9.28139,-1.30643 -3.29428,-0.0479 -5.46531,-0.55614 -5.77022,-1.35073 -0.26886,-0.70064 0.17434,-3.47746 0.9849,-6.17072 1.6809,-5.58521 1.39739,-6.5554 -1.91559,-6.5554 -3.97671,0 -11.51771,7.8047 -11.51771,11.92048 0,0.56089 1.79654,2.04574 3.9923,3.29966 3.37794,1.92902 3.99349,2.78482 4,5.56124 0.009,4.01795 1.88167,4.93236 7.19506,3.51413 3.33131,-0.88917 4.01393,-0.78792 4.8181,0.71468 0.75833,1.41696 1.84776,1.65276 5.71573,1.23717 2.62835,-0.28241 4.87261,-0.58489 4.98725,-0.67218 z m -42.70844,-26.56926 c 0,-0.34301 -0.62479,-1.47811 -1.38842,-2.52244 -1.31969,-1.80478 -1.49276,-1.72762 -3.49626,1.55887 -2.87839,4.72164 -2.67774,5.19349 1.38468,3.25626 1.925,-0.91797 3.5,-1.94968 3.5,-2.29269 z m 125.3407,-11.77835 c 0.80215,-3.76123 4.85085,-10.06396 5.41312,-8.42675 0.24571,0.71544 -0.0104,2.51544 -0.56918,4 -1.55654,4.13554 -2.23908,9.19918 -1.23999,9.19918 0.49205,0 1.66534,-2.3625 2.60732,-5.25 1.78323,-5.46623 3.11502,-7.75 4.51947,-7.75 0.45459,0 0.17449,1.56055 -0.62245,3.46788 -1.76606,4.22679 -1.86459,6.83733 -0.23758,6.29499 0.66627,-0.22209 1.94125,-2.84709 2.83329,-5.83333 0.89205,-2.98625 2.37192,-6.86969 3.28861,-8.62988 0.91669,-1.76019 1.66671,-3.61809 1.66671,-4.12868 0,-2.11834 -12.14676,-5.06244 -14.26096,-3.45652 -0.68147,0.51763 -3.30874,1.70496 -5.83837,2.63851 -4.4499,1.64221 -10.49989,6.64703 -8.03516,6.64703 0.66779,0 3.03984,-0.93139 5.27123,-2.06976 2.23139,-1.13837 4.21139,-1.91545 4.4,-1.72683 0.18861,0.18861 -0.97999,2.31272 -2.5969,4.72024 -1.97818,2.94544 -2.91328,5.55476 -2.85863,7.97683 l 0.0812,3.59952 1.37368,-3 c 0.75553,-1.65 1.40399,-3.45 1.44102,-4 0.1045,-1.55173 3.81557,-6.04064 4.46063,-5.39557 0.316,0.316 -0.55322,2.69559 -1.93161,5.28797 -2.78298,5.23408 -3.53407,11.70558 -1.12666,9.70762 0.75871,-0.62968 1.64125,-2.37228 1.96119,-3.87245 z m -100.454,-25.51427 c 1.8458,-1.84579 2.55441,0.17795 1.2883,3.6793 -0.81717,2.25985 -0.89982,4.11396 -0.25518,5.72486 0.83799,2.09411 0.96109,1.87479 1.0168,-1.8117 0.0757,-5.01013 4.07027,-10.64576 6.11806,-8.63153 0.88614,0.87162 0.91747,1.96691 0.12158,4.25 -0.58972,1.69167 -0.71685,3.07577 -0.28252,3.07577 1.14203,0 3.22614,-7.52404 2.56288,-9.25247 -0.39811,-1.03746 -2.15902,-1.46182 -6.06593,-1.46182 -3.02773,0 -6.01926,-0.51428 -6.64783,-1.14286 -3.62745,-3.62745 -8.81056,1.63043 -8.61769,8.74201 l 0.12517,4.61514 0.69689,-4.28634 c 0.65404,-4.02283 3.35958,-8.24019 4.5333,-7.06647 0.29048,0.29048 -0.17263,1.93289 -1.02913,3.64979 -1.05089,2.10655 -1.33845,4.28817 -0.8843,6.70896 0.83766,4.46514 1.60975,3.85572 1.86826,-1.47463 0.10839,-2.23506 0.72228,-4.58895 1.3642,-5.23086 1.74579,-1.7458 2.5296,-0.28401 1.18993,2.2192 -0.74276,1.38786 -0.89247,3.5269 -0.40844,5.83565 l 0.76411,3.6447 0.73079,-5.35336 c 0.40193,-2.94435 1.21677,-5.83935 1.81075,-6.43334 z m 122.91298,3.87683 c 3.46658,-1.80994 14.22749,-22.65135 14.93461,-28.92491 0.83959,-7.44886 -6.41939,-17.72117 -17.98248,-25.44732 -8.44907,-5.64544 -10.57339,-6.53124 -21.02275,-8.76603 -8.79073,-1.88006 -9.98713,-1.46792 -12.38395,4.266 -2.08482,4.98753 -1.76228,16.48205 0.5448,19.41502 3.55059,4.51384 10.82964,7.3671 18.79445,7.3671 6.58588,0 7.4397,-0.24465 10.25,-2.93709 1.68611,-1.6154 3.06566,-3.5279 3.06566,-4.25 0,-0.7221 0.45,-1.31291 1,-1.31291 0.55,0 1,0.43435 1,0.96521 0,1.56589 -5.95615,7.8861 -8.06159,8.55434 -1.06612,0.33838 -1.93841,1.03491 -1.93841,1.54784 0,1.23424 5.14708,1.19084 8.6849,-0.0732 2.62578,-0.93819 2.68456,-0.90456 0.87397,0.5 -1.06762,0.82821 -2.53012,1.50584 -3.25,1.50584 -0.71988,0 -1.30887,0.4296 -1.30887,0.95468 0,1.29677 6.27385,2.38717 9.16306,1.59255 2.03736,-0.56034 2.10622,-0.49848 0.53716,0.48257 -0.98988,0.61891 -3.85787,0.9779 -6.37331,0.79774 -5.1654,-0.36993 -4.45079,-1.17359 -9.78829,11.00802 -2.00877,4.58456 -3.51023,9.08456 -3.33658,10 0.19465,1.0261 2.03816,2.11297 4.80685,2.83396 6.11896,1.59343 8.61904,1.57659 11.79077,-0.0794 z m -17.79966,-6.03112 c 0,-1.05547 -1.91911,-1.49891 -2.48992,-0.57532 -0.34546,0.55897 0.0734,1.01631 0.9309,1.01631 0.85746,0 1.55902,-0.19844 1.55902,-0.44099 z m -3,-3.55901 c 0,-0.55 -0.675,-1 -1.5,-1 -0.825,0 -1.5,0.45 -1.5,1 0,0.55 0.675,1 1.5,1 0.825,0 1.5,-0.45 1.5,-1 z m -94.23023,-1.79146 c 1.64268,-1.26433 2.44094,-3.19217 2.88929,-6.97777 l 0.61951,-5.23077 -3.88929,-0.11832 c -3.74106,-0.1138 -3.77495,-0.14476 -0.88929,-0.81226 l 3,-0.69395 -3.5,-0.79903 c -3.81692,-0.87138 -6.60928,-2.93229 -8.2179,-6.06526 -0.62714,-1.22142 0.24119,-0.73496 2.21128,1.23881 3.60106,3.60781 7.29955,4.19986 10.1457,1.62414 2.40131,-2.17316 0.76929,-5.37414 -2.74001,-5.37414 -1.39181,0 -3.41509,-0.47339 -4.4962,-1.05197 -2.5232,-1.35038 -7.90866,-8.76067 -7.88388,-10.84806 0.0105,-0.87998 1.38089,0.56903 3.04541,3.22003 3.14977,5.01647 8.66713,8.38074 11.78326,7.18497 1.22129,-0.46865 0.50023,-1.31278 -2.96234,-3.46794 -5.43821,-3.38482 -11.18409,-12.03703 -7.99373,-12.03703 0.49037,0 1.16894,1.0125 1.50793,2.25 0.8554,3.1227 3.64878,6.2065 7.36071,8.12602 3.45255,1.78538 7.23977,2.14959 7.23977,0.69624 0,-0.52669 2.37765,-0.68236 5.5,-0.3601 6.1354,0.63323 6.29673,0.40986 3.85707,-5.34003 -1.07547,-2.53472 -1.66884,-6.89433 -1.71794,-12.62213 -0.0875,-10.21274 0.30316,-9.98127 -10.85104,-6.42889 -13.50953,4.30252 -17.64741,8.39113 -19.75859,19.52329 -1.49051,7.85947 1.30198,29.38395 4.28355,33.01747 2.69068,3.27902 8.11736,3.91689 11.45673,1.34668 z m 2.45918,-30.9358 c -1.62738,-0.58056 -4.25354,-5.62877 -4.14774,-7.97309 0.0592,-1.31247 0.40115,-1.07971 1.26304,0.85978 0.65001,1.46268 2.0357,3.60294 3.07932,4.75613 2.00036,2.21036 1.92578,3.11363 -0.19462,2.35718 z m 0.88706,-8.85238 c -2.24619,-2.85556 -2.77427,-5.42037 -1.11602,-5.42037 0.55,0 1,0.675 1,1.5 0,0.825 0.91031,2.41032 2.02291,3.52292 1.65586,1.65585 2.40267,1.81969 4.11571,0.9029 1.66314,-0.89009 2.00187,-0.84347 1.64996,0.22708 -0.84825,2.58045 -5.40909,2.14502 -7.67256,-0.73253 z m 84.88399,40.57964 c 0,-0.55 -0.675,-1 -1.50001,-1 -0.825,0 -1.5,0.45 -1.5,1 0,0.55 0.675,1 1.5,1 0.82501,0 1.50001,-0.45 1.50001,-1 z m -5.80001,-1.2 c -0.93333,-0.93334 -1.46667,-0.93334 -2.4,0 -0.93333,0.93333 -0.66667,1.2 1.2,1.2 1.86667,0 2.13333,-0.26667 1.2,-1.2 z m -5.2,-0.8 c 0,-0.55 -0.45,-1 -1,-1 -0.55,0 -1,0.45 -1,1 0,0.55 0.45,1 1,1 0.55,0 1,-0.45 1,-1 z m 19.00001,-0.5 c 0,-0.825 -0.675,-1.5 -1.5,-1.5 -1.56157,0 -1.98397,1.1827 -0.83333,2.33333 1.15063,1.15063 2.33333,0.72824 2.33333,-0.83333 z m 4,0.5 c 0,-0.55 -0.45,-1 -1,-1 -0.55,0 -1,0.45 -1,1 0,0.55 0.45,1 1,1 0.55,0 1,-0.45 1,-1 z m -27.00001,-1 c 0,-0.55 -0.675,-1 -1.5,-1 -0.825,0 -1.5,0.45 -1.5,1 0,0.55 0.675,1 1.5,1 0.825,0 1.5,-0.45 1.5,-1 z m 18.43525,0.10478 c 0.66414,-1.07461 -2.23325,-2.34765 -3.52548,-1.54901 -0.50037,0.30924 -0.90976,0.9857 -0.90976,1.50324 0,1.19837 3.6993,1.23654 4.43524,0.0458 z m -23.43525,-0.98815 c 0,-1.19084 -3.86638,-2.14186 -4.50523,-1.10816 -0.27898,0.45139 0.0581,1.04861 0.749,1.32717 2.04869,0.82595 3.75623,0.72639 3.75623,-0.21901 z m 18,-0.11663 c 0,-0.55 -0.9,-1 -2,-1 -1.1,0 -2,0.45 -2,1 0,0.55 0.9,1 2,1 1.1,0 2,-0.45 2,-1 z m -6,-1 c 0,-0.55 -0.42344,-1 -0.94098,-1 -0.51754,0 -1.2191,0.45 -1.55902,1 -0.33992,0.55 0.0835,1 0.94098,1 0.85746,0 1.55902,-0.45 1.55902,-1 z m -19,-1 c 0,-0.55 -0.42344,-1 -0.94098,-1 -0.51754,0 -1.2191,0.45 -1.55902,1 -0.33992,0.55 0.0835,1 0.94098,1 0.85746,0 1.55902,-0.45 1.55902,-1 z m 15,0 c 0,-0.55 -0.64844,-1 -1.44098,-1 -0.79254,0 -1.7191,0.45 -2.05902,1 -0.33992,0.55 0.30852,1 1.44098,1 1.13246,0 2.05902,-0.45 2.05902,-1 z m 17.00001,-2 c -0.92023,-0.56873 -1.86288,-0.53712 -2.48328,0.0833 -0.66667,0.66666 -0.50557,1.30557 0.48328,1.91672 0.92023,0.56873 1.86288,0.53711 2.48328,-0.0833 0.66667,-0.66667 0.50557,-1.30558 -0.48328,-1.91672 z m 6,1.5 c 0,-0.825 -0.62686,-1.5 -1.39301,-1.5 -0.76616,0 -1.65203,0.675 -1.96862,1.5 -0.39152,1.02029 0.054,1.5 1.39301,1.5 1.08322,0 1.96862,-0.67464 1.96862,-1.5 z m 3,0.5 c 0,-0.55 -0.19844,-1 -0.44098,-1 -0.24254,0 -0.7191,0.45 -1.05902,1 -0.33992,0.55 -0.14148,1 0.44098,1 0.58246,0 1.05902,-0.45 1.05902,-1 z m -45.50001,-1 c -0.33992,-0.55 -1.49148,-1 -2.55902,-1 -1.06754,0 -1.94098,0.45 -1.94098,1 0,0.55 1.15156,1 2.55902,1 1.45136,0 2.2915,-0.43285 1.94098,-1 z m 14.5,0 c 0,-0.55 -0.675,-1 -1.5,-1 -0.825,0 -1.82625,-0.0337 -2.225,-0.075 -0.39875,-0.0412 -0.88625,0.40875 -1.08333,1 -0.19709,0.59125 0.80416,1.075 2.225,1.075 1.42083,0 2.58333,-0.45 2.58333,-1 z m 17.75048,-0.75 c 0.24153,-0.72541 -0.43336,-1.25 -1.60812,-1.25 -2.18692,0 -3.50311,1.30592 -2.41394,2.39509 1.00617,1.00617 3.54659,0.2829 4.02206,-1.14509 z m -38.63587,-0.775 c -0.0467,-1.28554 -4.11461,-1.90631 -4.11461,-0.62789 0,1.05326 1.96074,2.1115 3.325,1.79455 0.45375,-0.10541 0.80907,-0.63041 0.78961,-1.16666 z m 13.96039,0.25 c -0.12369,-1.19571 -1.49529,-0.96414 -1.925,0.325 -0.22,0.66 0.14,1.02 0.8,0.8 0.66,-0.22 1.16625,-0.72625 1.125,-1.125 z m 18.7375,-0.6625 c 0.25,-0.75 -0.125,-1.125 -0.875,-0.875 -0.72188,0.24062 -1.50938,1.02812 -1.75,1.75 -0.25,0.75 0.125,1.125 0.875,0.875 0.72187,-0.24063 1.50937,-1.02813 1.75,-1.75 z m -23.78732,-2.04694 c -0.91586,-0.56603 -1.97149,-0.47509 -2.83859,0.24454 -1.15012,0.95452 -1.07228,1.25978 0.46646,1.82926 2.39884,0.88781 4.37241,-0.83756 2.37213,-2.0738 z m 19.02764,1.48444 c -0.0784,-1.48429 -2.31562,-1.21161 -2.83465,0.3455 -0.28038,0.84112 0.17677,1.21599 1.21948,1 0.9174,-0.19003 1.64422,-0.7955 1.61517,-1.3455 z m -42.05282,-0.5 c 0,-0.55 -0.70156,-1 -1.55902,-1 -0.85746,0 -1.2809,0.45 -0.94098,1 0.33992,0.55 1.04148,1 1.55902,1 0.51754,0 0.94098,-0.45 0.94098,-1 z m 8.45729,0.0691 c 0.73955,-1.19661 -1.14162,-2.38223 -2.4736,-1.55902 -1.11836,0.69118 -0.38417,2.48992 1.01631,2.48992 0.48508,0 1.14086,-0.41891 1.45729,-0.93091 z m 29,0 c 0.31644,-0.512 0.0964,-1.22688 -0.48887,-1.58862 -1.47996,-0.91467 -4.23206,0.28391 -3.47279,1.51245 0.7816,1.26465 3.19842,1.31112 3.96166,0.0762 z m 23.54272,-2.19155 c 0,-1.37852 -2.63207,-1.02581 -3.91929,0.5252 -0.89421,1.07745 -0.86463,1.51012 0.12755,1.86573 1.41305,0.50645 3.79174,-0.99346 3.79174,-2.39093 z m 4.55385,2.03531 c 0.36954,-0.59792 0.15236,-1.60666 -0.48262,-2.24164 -0.87268,-0.87268 -1.38472,-0.79038 -2.09756,0.33713 -0.51867,0.82041 -0.94994,1.82915 -0.95836,2.24165 -0.0236,1.15507 2.78148,0.88782 3.53854,-0.33714 z m -74.03701,-4.87962 c -1.38427,-2.73172 -2.51685,-5.47213 -2.51685,-6.08981 0,-0.61768 -1.23604,-2.43264 -2.74675,-4.03325 -2.44472,-2.59018 -3.40688,-2.9085 -8.75001,-2.89487 -8.0466,0.0205 -8.68302,0.55685 -8.31089,7.00387 l 0.30765,5.32989 12,2.70276 c 6.6,1.48651 12.12008,2.75797 12.26685,2.82546 0.14676,0.0675 -0.86574,-2.11233 -2.25,-4.84405 z m 26.48315,2.90774 c 0,-1.21486 -3.70413,-1.22872 -4.45323,-0.0167 -0.31419,0.50837 0.22175,1.1042 1.19099,1.32406 2.0799,0.47181 3.26224,-0.002 3.26224,-1.3074 z m 13.17426,-0.16672 c -0.55,-0.55 -1.53725,-0.66796 -2.19389,-0.26213 -0.90708,0.5606 -0.87942,0.93222 0.11512,1.54688 1.70594,1.05433 3.38199,0.0185 2.07877,-1.28475 z m 24.21382,0.65683 c 0.4505,-1.174 0.0567,-1.48863 -1.56469,-1.25 -1.1917,0.1754 -2.35197,0.88141 -2.57839,1.56891 -0.60867,1.84822 3.43079,1.53729 4.14308,-0.31891 z m -52.38808,-0.37208 c 0,-1.17986 -1.95035,-2.44199 -2.66667,-1.72568 -0.71631,0.71631 0.54583,2.66667 1.72569,2.66667 0.51754,0 0.94098,-0.42345 0.94098,-0.94099 z m 46.45729,0.0101 c 1.00194,-1.62117 -1.17528,-2.11382 -2.46643,-0.55809 -1.00476,1.21067 -0.94351,1.489 0.32768,1.489 0.85988,0 1.82232,-0.41891 2.13875,-0.93091 z m -37.45729,-1.01008 c 0,-1.17986 -1.95035,-2.44199 -2.66667,-1.72568 -0.71631,0.71631 0.54583,2.66667 1.72569,2.66667 0.51754,0 0.94098,-0.42345 0.94098,-0.94099 z m 15,-0.059 c 0,-0.55 -0.9,-1 -2,-1 -1.1,0 -2,0.45 -2,1 0,0.55 0.9,1 2,1 1.1,0 2,-0.45 2,-1 z m 14,-1.05902 c 0,-0.51754 -0.9,-0.94098 -2,-0.94098 -2.20605,0 -2.72337,1.57385 -0.75,2.28172 1.5126,0.54258 2.75,-0.0607 2.75,-1.34074 z m 4.5,1.05902 c 0.33992,-0.55 -0.057,-1 -0.88197,-1 -0.825,0 -1.77811,0.45 -2.11803,1 -0.33992,0.55 0.057,1 0.88197,1 0.825,0 1.77811,-0.45 2.11803,-1 z m -115.22692,-2.37729 c 3.86122,-3.57846 4.83157,-8.41374 3.14197,-15.65643 -0.77824,-3.336 -2.05977,-7.31234 -2.84785,-8.83632 -1.29593,-2.50605 -1.97308,-2.78182 -7.08513,-2.8854 l -5.65226,-0.11452 -2.45289,5.3578 c -3.67697,8.03157 -4.16542,14.50028 -1.4292,18.92758 2.7879,4.51091 4.5357,5.51623 9.65625,5.55417 2.96365,0.022 4.81672,-0.63014 6.66911,-2.34688 z m 67.72692,1.37729 c 0,-0.55 -0.47656,-1 -1.05902,-1 -0.58246,0 -0.7809,0.45 -0.44098,1 0.33992,0.55 0.81648,1 1.05902,1 0.24254,0 0.44098,-0.45 0.44098,-1 z m 37.07666,-1.80778 c -0.62845,-0.20949 -1.90268,-0.0892 -2.83162,0.26724 -1.42492,0.54679 -1.46409,0.78712 -0.25055,1.53713 0.89381,0.5524 1.96593,0.45122 2.83162,-0.26725 0.96097,-0.79753 1.0387,-1.27441 0.25055,-1.53712 z m -28.07666,0.80778 c 0,-0.55 -0.9,-1 -2,-1 -1.1,0 -2,0.45 -2,1 0,0.55 0.9,1 2,1 1.1,0 2,-0.45 2,-1 z m 13,0 c -1.93876,-1.25293 -3,-1.25293 -3,0 0,0.55 1.0125,0.9931 2.25,0.98468 1.81944,-0.0124 1.96296,-0.20081 0.75,-0.98468 z m 37.75502,-0.75 c 0.59252,-1.79918 -2.26862,-1.54099 -3.83472,0.34604 -1.15647,1.39346 -1.0233,1.55212 1.04923,1.25 1.3056,-0.19033 2.55907,-0.90854 2.78549,-1.59604 z m 5.70228,0.81909 c 0.31644,-0.51199 0.1586,-1.18845 -0.35074,-1.50324 -1.18225,-0.73068 -4.10655,0.36677 -4.10655,1.54113 0,1.18351 3.72198,1.15187 4.45729,-0.0379 z m 5.08383,-0.13563 c 0.36253,-0.58659 0.4535,-1.27218 0.20214,-1.52353 -0.69747,-0.69748 -3.74326,0.68337 -3.74326,1.69705 0,1.25179 2.74331,1.11737 3.54112,-0.17352 z m -53.04113,-0.93346 c 0.33992,-0.55 -0.30852,-1 -1.44098,-1 -1.13246,0 -2.05902,0.45 -2.05902,1 0,0.55 0.64844,1 1.44098,1 0.79254,0 1.7191,-0.45 2.05902,-1 z m 15,0 c 0.33992,-0.55 -0.0835,-1 -0.94098,-1 -0.85746,0 -1.88527,-0.0337 -2.28402,-0.075 -0.39875,-0.0412 -0.88625,0.40875 -1.08333,1 -0.45218,1.35654 3.47405,1.42489 4.30833,0.075 z m 17.3125,-0.9375 c 0.25,-0.75 -0.125,-1.125 -0.875,-0.875 -0.72188,0.24062 -1.50938,1.02812 -1.75,1.75 -0.25,0.75 0.125,1.125 0.875,0.875 0.72187,-0.24063 1.50937,-1.02813 1.75,-1.75 z m 4.18751,0.9375 c 0,-0.55 -0.42344,-1 -0.94098,-1 -0.51754,0 -1.21911,0.45 -1.55903,1 -0.33992,0.55 0.0835,1 0.94098,1 0.85747,0 1.55903,-0.45 1.55903,-1 z m -50.00001,-1 c 0,-0.55 -0.9,-1 -2,-1 -1.1,0 -2,0.45 -2,1 0,0.55 0.9,1 2,1 1.1,0 2,-0.45 2,-1 z m 22.45729,0.0691 c 0.82289,-1.33147 -1.25104,-2.36223 -3.22715,-1.60392 -1.4408,0.55289 -1.46897,0.77213 -0.20211,1.5733 1.87622,1.18654 2.71026,1.19399 3.42926,0.0306 z m 19,0 c 1.07622,-1.74136 -1.64179,-2.31317 -3.26754,-0.68743 -1.4911,1.4911 -1.44888,1.61833 0.53695,1.61833 1.1854,0 2.41416,-0.41891 2.73059,-0.93091 z m -133.87648,-0.65515 c 1.758,-0.47205 1.99071,-1.09721 1.5,-4.02968 -0.31945,-1.90903 -0.91832,-3.45145 -1.33082,-3.42761 -0.4125,0.0238 -1.65,0.0433 -2.75,0.0433 -1.6,0 -2,0.66667 -2,3.33334 0,4.5707 0.63826,5.13927 4.58082,4.08062 z m 128.91919,-0.41395 c 0.35052,-0.56716 -0.48962,-1 -1.94098,-1 -1.40746,0 -2.55902,0.45 -2.55902,1 0,0.55 0.87344,1 1.94098,1 1.06754,0 2.2191,-0.45 2.55902,-1 z m -42.9254,-0.8793 c -0.29889,-0.48361 -1.56295,-1.13623 -2.80902,-1.45026 -2.18576,-0.55086 -2.19719,-0.51988 -0.32445,0.87929 2.1498,1.60617 3.97929,1.93953 3.13347,0.57097 z m 22.9254,-0.1207 c 0.33992,-0.55001 -0.0835,-1.00001 -0.94098,-1.00001 -0.85746,0 -1.55902,0.45 -1.55902,1.00001 0,0.55 0.42344,1 0.94098,1 0.51754,0 1.2191,-0.45 1.55902,-1 z m 14.5,0.10698 c 0,-1.22681 -2.81728,-2.21164 -3.44079,-1.20279 -0.27766,0.44926 -0.21707,1.10461 0.13464,1.45633 0.95302,0.95301 3.30615,0.77256 3.30615,-0.25354 z m 21.00001,-0.60699 c 0,-0.825 -0.45,-1.5 -1,-1.5 -0.55,0 -1,0.675 -1,1.5 0,0.82501 0.45,1.50001 1,1.50001 0.55,0 1,-0.675 1,-1.50001 z m 5.2,0.30001 c -0.93333,-0.93334 -1.46667,-0.93334 -2.4,0 -0.93333,0.93333 -0.66667,1.2 1.2,1.2 1.86667,0 2.13333,-0.26667 1.2,-1.2 z m 4.8,0.75901 c 0,-1.05547 -1.91911,-1.49891 -2.48992,-0.57533 -0.34546,0.55898 0.0734,1.01632 0.9309,1.01632 0.85746,0 1.55902,-0.19845 1.55902,-0.44099 z m -118.00002,-9.0215 c 0,-10.5528 2.62515,-18.38708 7.37527,-22.01017 4.84925,-3.69871 13.80064,-7.35096 20.76588,-8.47268 3.41372,-0.54976 6.59356,-1.57447 7.0663,-2.27712 3.4191,-5.08193 4.60369,-4.76431 -18.42226,-4.93939 -22.5142,-0.17119 -45.06762,0.16051 -45.60892,0.6708 -0.17806,0.16785 0.38444,1.67465 1.25,3.34845 0.86555,1.6738 1.57373,3.96562 1.57373,5.09293 0,1.68127 0.638,2.04966 3.54966,2.04966 5.42306,0 9.45034,2.48263 9.45034,5.82568 0,1.52588 -0.46581,3.24013 -1.03513,3.80946 -0.71351,0.71351 -0.37781,2.56221 1.08044,5.95 1.16356,2.70317 2.41687,7.61486 2.78513,10.91486 0.64166,5.74998 0.81541,6.04974 4.16956,7.19356 6.01262,2.05041 6,2.06546 6,-7.15604 z m 72.06557,5.19086 c 5.59859,-2.48232 12.27055,-8.85202 13.97907,-13.34575 1.50151,-3.94928 1.02269,-11.15067 -1.35524,-20.38263 l -2.18939,-8.5 -21.21958,-0.2698 -21.21957,-0.2698 -2.03043,3.97996 c -1.11673,2.18898 -2.03042,4.16717 -2.03042,4.39597 0,0.22881 2.3625,0.67387 5.25,0.98902 2.8875,0.31516 6.45026,0.86623 7.91724,1.22459 2.25793,0.55159 2.72928,0.29083 3.07148,-1.69918 0.40366,-2.34741 0.40585,-2.34691 1.53863,0.34827 0.78057,1.8572 0.85065,4.44238 0.22468,8.2885 -0.96883,5.95271 -0.4681,8.9109 1.37118,8.10057 0.61973,-0.27304 3.03929,-1.06039 5.37679,-1.74967 2.3375,-0.68928 4.25,-1.82078 4.25,-2.51445 0,-0.71023 -0.6553,-1.00975 -1.5,-0.6856 -0.825,0.31658 -1.5,0.0775 -1.5,-0.53139 0,-1.68758 3.98126,-1.31941 4.65267,0.43027 0.32445,0.84549 2.10932,2.17211 3.96638,2.94804 4.34212,1.81425 5.82205,5.08759 4.94485,10.93714 -0.37754,2.51766 -0.91293,4.57756 -1.18973,4.57756 -0.27681,0 -1.63924,-1.35 -3.02762,-3 -2.53609,-3.01396 -5.67004,-3.90363 -6.8762,-1.95202 -0.39574,0.64032 -2.33607,0.79479 -4.98805,0.3971 l -4.34036,-0.65088 -1.22926,4.1029 c -0.67609,2.2566 -1.57738,4.1029 -2.00287,4.1029 -1.51086,0 -4.90981,-5.84987 -4.90981,-8.45017 0,-1.45279 1.125,-4.75475 2.5,-7.33768 1.375,-2.58293 2.5,-5.71231 2.5,-6.95419 0,-1.9773 -0.51032,-2.25796 -4.10564,-2.25796 -2.91883,0 -4.96327,-0.72164 -7.07246,-2.49641 -2.35807,-1.98418 -3.36231,-2.28474 -4.89436,-1.46481 -2.18298,1.16829 -2.36566,3.37808 -0.91264,11.03979 2.20118,11.60676 7.2861,17.65134 17.17513,20.4165 6.68553,1.8694 12.92578,1.31472 19.87553,-1.76669 z m -12.31556,0.18335 c -2.63696,-1.52357 -2.16575,-3.02029 0.61771,-1.96202 1.61724,0.61487 3.20204,0.46734 5,-0.46545 2.69181,-1.39653 3.63382,-0.53042 1.38229,1.27091 -2.13736,1.70998 -5.17384,2.21168 -7,1.15656 z m -1.08598,-31.12142 c -2.14921,-5.62762 -2.07751,-6.88594 0.22196,-3.89522 l 1.8415,2.39509 7.45453,-2.64509 c 8.12217,-2.88199 9.81799,-3.16614 9.81799,-1.64509 0,0.55 -0.66935,1 -1.48746,1 -0.8181,0 -2.62374,1.8 -4.01254,4 -1.93619,3.06712 -3.16352,4.00319 -5.26254,4.01366 -1.50561,0.007 -3.67615,0.26569 -4.82344,0.57374 -1.73397,0.46556 -2.36679,-0.17521 -3.75,-3.79709 z m 9.83598,-0.79031 c 1.31874,-0.56668 1.48906,-0.87815 0.5,-0.9144 -0.825,-0.0302 -2.175,0.38125 -3,0.9144 -1.82797,1.18132 -0.24909,1.18132 2.5,0 z m 12.95729,34.0691 c 0.82289,-1.33146 -1.25104,-2.36222 -3.22715,-1.60391 -1.4408,0.55288 -1.46897,0.77213 -0.20211,1.5733 1.87622,1.18654 2.71026,1.19399 3.42926,0.0306 z m 22.61771,-0.3441 c -0.12369,-1.1957 -1.49529,-0.96413 -1.925,0.325 -0.22,0.66001 0.14,1.02001 0.8,0.80001 0.66,-0.22 1.16625,-0.72626 1.125,-1.12501 z m -9.075,-1.225 c 0,-0.825 -0.64844,-1.5 -1.44098,-1.5 -1.67065,0 -2.79841,1.42728 -1.86517,2.36052 1.19516,1.19516 3.30615,0.64571 3.30615,-0.86052 z m 5,0.5 c 0,-0.55 -0.675,-1 -1.5,-1 -0.825,0 -1.5,0.45 -1.5,1 0,0.55 0.675,1 1.5,1 0.825,0 1.5,-0.45 1.5,-1 z M 245.1894,448.832 c 0.22111,-0.66333 -0.52375,-1.1875 -1.6875,-1.1875 -2.07732,0 -2.69993,1.05007 -1.39583,2.35417 0.92647,0.92647 2.59622,0.29468 3.08333,-1.16667 z m -5.33559,-1.08271 c 0.3043,-0.49237 -0.0751,-1.13636 -0.84322,-1.4311 -1.46629,-0.56267 -2.59202,0.0857 -2.59202,1.49298 0,1.11676 2.73727,1.06745 3.43524,-0.0619 z m 13.31476,-1.35479 c -0.22917,-0.6875 -1.01667,-1.25 -1.75,-1.25 -0.73333,0 -1.52083,0.5625 -1.75,1.25 -0.24786,0.74359 0.46111,1.25 1.75,1.25 1.28889,0 1.99786,-0.50641 1.75,-1.25 z m -4.9677,-1.5955 c 0.28658,-0.86063 -0.19425,-1.22099 -1.33427,-1 -0.98026,0.19003 -1.98391,0.95098 -2.23033,1.69101 -0.28658,0.86062 0.19425,1.22099 1.33427,1 0.98026,-0.19003 1.98391,-0.95098 2.23033,-1.69101 z m -5.01147,-0.967 c 0.22111,-0.66333 -0.52375,-1.1875 -1.6875,-1.1875 -2.07732,0 -2.69993,1.05007 -1.39583,2.35417 0.92647,0.92647 2.59622,0.29468 3.08333,-1.16667 z m -123.77084,-0.1875 c 1.16888,-0.75538 0.89294,-0.97275 -1.25,-0.98468 -1.5125,-0.008 -2.75,0.43468 -2.75,0.98468 0,1.26441 2.04347,1.26441 4,0 z m 130.00001,-2.55901 c 0,-0.85746 -0.45,-1.28091 -1,-0.94099 -0.55,0.33992 -1,1.04148 -1,1.55902 0,0.51754 0.45,0.94098 1,0.94098 0.55,0 1,-0.70155 1,-1.55901 z m -3.94718,-0.94099 c -0.0784,-1.48429 -2.31562,-1.2116 -2.83465,0.34551 -0.28038,0.84112 0.17677,1.21598 1.21948,1 0.9174,-0.19003 1.64422,-0.79551 1.61517,-1.34551 z m -122.40672,-6.47645 c 2.14086,-4.20032 2.95883,-6.81861 2.32744,-7.45 -1.46592,-1.46592 -1.16959,-5.16596 0.52645,-6.57355 0.825,-0.68469 1.5,-2.32634 1.5,-3.64812 0,-2.39196 -0.0153,-2.39529 -3.25,-0.71027 -1.7875,0.93114 -4.6,1.97286 -6.25,2.31495 l -3,0.62197 -0.2834,11.28038 -0.2834,11.28038 2.70596,-0.31964 c 2.20561,-0.26054 3.31634,-1.51719 6.00695,-6.7961 z m 125.3539,2.39312 c 0,-0.87083 -0.53438,-1.40521 -1.1875,-1.1875 -1.85422,0.61807 -2.16176,2.77083 -0.39583,2.77083 0.87083,0 1.58333,-0.7125 1.58333,-1.58333 z m -2,-4.91667 c 0,-0.825 -0.45,-1.5 -1,-1.5 -0.55,0 -1,0.675 -1,1.5 0,0.825 0.45,1.5 1,1.5 0.55,0 1,-0.675 1,-1.5 z m 2,-3.5 c 0,-0.55 -0.70156,-1 -1.55902,-1 -0.85746,0 -1.2809,0.45 -0.94098,1 0.33992,0.55 1.04148,1 1.55902,1 0.51754,0 0.94098,-0.45 0.94098,-1 z m -108.32265,-2.24879 c 1.08783,-1.08782 1.04668,-1.70019 -0.23745,-3.53354 -1.27854,-1.82537 -2.50999,-2.21767 -6.96143,-2.21767 -4.18867,0 -5.6258,0.40675 -6.37352,1.80388 -0.53097,0.99214 -0.6466,2.31972 -0.25695,2.95019 1.9743,3.19449 10.98249,3.84401 13.82935,0.99714 z m -11.35446,-1.35213 c -0.7413,-1.93179 1.258,-3.36293 4.7271,-3.38377 3.0112,-0.0181 5.00785,1.67037 4.26487,3.60655 -0.7743,2.01778 -8.20281,1.83374 -8.99197,-0.22278 z m 5.9271,-1.06136 c -0.6875,-0.27741 -1.8125,-0.27741 -2.5,0 -0.6875,0.27741 -0.125,0.50439 1.25,0.50439 1.375,0 1.9375,-0.22698 1.25,-0.50439 z m 115.75001,0.66228 c 0,-0.55 -0.45,-1 -1,-1 -0.55,0 -1,0.45 -1,1 0,0.55 0.45,1 1,1 0.55,0 1,-0.45 1,-1 z m -46,-3 c 0,-0.55 -1.4625,-0.95514 -3.25,-0.90032 -3.07927,0.0945 -3.11867,0.14174 -0.75,0.90032 3.5288,1.13012 4,1.13012 4,0 z m 42.10453,-1.19532 c 0.6462,-1.20743 1.25856,-4.58243 1.3608,-7.5 l 0.18591,-5.30468 -4.38464,0 c -2.41155,0 -4.14382,0.38965 -3.84948,0.86589 0.29433,0.47624 1.67089,0.64878 3.05901,0.38342 2.36789,-0.45265 2.52387,-0.22806 2.52387,3.63411 0,2.26412 -0.43875,4.11658 -0.975,4.11658 -0.55926,0 -0.70774,-1.33631 -0.34821,-3.13393 0.48494,-2.42474 0.30957,-3.02829 -0.775,-2.66713 -1.93754,0.6452 -2.21122,2.93823 -0.92207,7.72576 1.23272,4.57796 2.39692,5.10857 4.12481,1.87998 z m 3.39547,-0.80468 c 0.33992,-0.55 0.14148,-1 -0.44098,-1 -0.58246,0 -1.05902,0.45 -1.05902,1 0,0.55 0.19844,1 0.44098,1 0.24254,0 0.7191,-0.45 1.05902,-1 z m -127.57898,-4.26474 c 1.33157,-0.67939 2.63912,-1.89541 2.90567,-2.70227 0.39817,-1.20524 0.034,-1.17177 -2.04065,0.18762 -1.3889,0.91005 -4.04645,2.09212 -5.90567,2.62683 l -3.38038,0.97218 3,0.0755 c 1.65,0.0415 4.08946,-0.48042 5.42103,-1.15981 z m 0.5755,-4.79249 c 2.2875,-2.29337 1.05255,-3.78385 -2.78103,-3.35644 -1.21852,0.13585 -3.003,0.2845 -3.9655,0.33034 -1.27556,0.0607 -1.75,0.93055 -1.75,3.20833 0,2.99162 0.13857,3.09729 3.24653,2.4757 1.78559,-0.35712 4.14809,-1.55319 5.25,-2.65793 z m 181.50349,28.61625 c 0,-1.34254 0.45,-2.7191 1,-3.05902 0.58342,-0.36057 1,0.65629 1,2.44099 0,1.68246 -0.45,3.05901 -1,3.05901 -0.55,0 -1,-1.09844 -1,-2.44098 z m 0.66667,-7.22568 c -0.97579,-0.97579 -0.81437,-4.33334 0.20833,-4.33334 0.48125,0 0.875,1.125 0.875,2.5 0,2.70609 -0.0782,2.83846 -1.08333,1.83334 z"
       id="path4929"
       inkscape:connector-curvature="0" />
  </g>
</svg>
