<?xml version="1.0" encoding="UTF-8" standalone="no"?>
<!-- Created with Inkscape (http://www.inkscape.org/) -->

<svg
   xmlns:dc="http://purl.org/dc/elements/1.1/"
   xmlns:cc="http://creativecommons.org/ns#"
   xmlns:rdf="http://www.w3.org/1999/02/22-rdf-syntax-ns#"
   xmlns:svg="http://www.w3.org/2000/svg"
   xmlns="http://www.w3.org/2000/svg"
   xmlns:sodipodi="http://sodipodi.sourceforge.net/DTD/sodipodi-0.dtd"
   xmlns:inkscape="http://www.inkscape.org/namespaces/inkscape"
   width="54.839699mm"
   height="56.13773mm"
   viewBox="0 0 194.31389 198.91321"
   id="svg2"
   version="1.1"
   inkscape:version="0.91 r13725"
   sodipodi:docname="boar.svg">
  <defs
     id="defs4" />
  <sodipodi:namedview
     id="base"
     pagecolor="#ffffff"
     bordercolor="#666666"
     borderopacity="1.0"
     inkscape:pageopacity="0.0"
     inkscape:pageshadow="2"
     inkscape:zoom="1.4"
     inkscape:cx="-23.855007"
     inkscape:cy="86.561027"
     inkscape:document-units="px"
     inkscape:current-layer="layer1"
     showgrid="false"
     fit-margin-top="0"
     fit-margin-left="0"
     fit-margin-right="0"
     fit-margin-bottom="0"
     inkscape:window-width="1366"
     inkscape:window-height="744"
     inkscape:window-x="0"
     inkscape:window-y="24"
     inkscape:window-maximized="1" />
  <metadata
     id="metadata7">
    <rdf:RDF>
      <cc:Work
         rdf:about="">
        <dc:format>image/svg+xml</dc:format>
        <dc:type
           rdf:resource="http://purl.org/dc/dcmitype/StillImage" />
        <dc:title></dc:title>
      </cc:Work>
    </rdf:RDF>
  </metadata>
  <g
     inkscape:label="Layer 1"
     inkscape:groupmode="layer"
     id="layer1"
     transform="translate(-290.8129,-279.53708)">
    <path
       style="fill:#000000"
       d="m 482.02268,478.23902 c -0.45675,-0.41156 -122.52768,-1.62268 -166.15621,-1.64851 l -23.70496,-0.014 -0.15693,-52.75 c -0.0863,-29.0125 -0.26629,-55.45 -0.39995,-58.75 -0.13366,-3.3 -0.36647,-23.89637 -0.51737,-45.76972 l -0.27436,-39.76971 96.7904,0.0142 c 53.23473,0.008 96.92841,0.15219 97.09708,0.32086 0.16867,0.16867 0.35274,44.83366 0.40905,99.25553 0.0859,82.99953 -0.11828,98.99473 -1.26657,99.23343 -0.75292,0.15651 -1.572,0.1016 -1.82018,-0.12203 z m -108.32522,-8.16254 c 0.704,-2.75 1.54618,-7.48868 1.87151,-10.53039 l 0.59151,-5.53039 6.20548,-1.12679 c 3.41301,-0.61974 10.25548,-1.18451 15.20548,-1.25504 4.95,-0.0705 13.21529,-0.36147 18.36731,-0.64651 14.36617,-0.79483 14.52229,-0.71783 15.97141,7.87715 2.02971,12.03857 3.5591,16.16575 6.1316,16.54663 1.24319,0.18407 2.68585,-0.0908 3.2059,-0.61088 0.52005,-0.52005 1.77998,-6.74011 2.79984,-13.82237 1.61507,-11.21553 2.1502,-13.07193 4.1478,-14.38911 6.83415,-4.50633 14.6261,-14.22476 18.04972,-22.5123 7.3928,-17.89572 10.89515,-30.10988 11.53434,-40.22501 0.68362,-10.81813 -1.07234,-25.55906 -3.9018,-32.75483 -2.08458,-5.30144 -8.97105,-16.26172 -14.62091,-23.27016 -3.33351,-4.1351 -3.58609,-4.25 -9.34293,-4.25 l -5.9168,0 4.08544,6.01608 c 7.23448,10.65324 13.86083,25.60901 15.50008,34.98392 1.8854,10.78263 1.87545,16.09611 -0.0439,23.46504 -2.42683,9.31725 -6.0091,14.92795 -12.34661,19.3378 -3.09126,2.15101 -6.95687,4.34579 -8.59024,4.8773 -2.64101,0.85939 -3.10642,1.64156 -4.20426,7.06576 -2.43604,12.03586 -5.70434,17.2541 -10.80666,17.2541 -2.08911,0 -3.97187,0.8528 -5.51933,2.5 -2.98428,3.17662 -3.78912,3.14004 -11,-0.5 -8.02164,-4.04931 -14.72579,-3.78968 -25.5,0.98751 -3.98625,1.76748 -6.2854,2.04458 -8.85577,1.06732 -3.8238,-1.4538 -8.30366,-6.71364 -11.5448,-13.55483 -3.3285,-7.02559 -9.51129,-14.5 -11.99434,-14.5 -2.77732,0 -13.24729,-5.74618 -16.89242,-9.27098 -1.83659,-1.77596 -4.85226,-5.50478 -6.70148,-8.28627 -3.02758,-4.5539 -3.43304,-6.02198 -4.07371,-14.75 -0.4398,-5.99141 -1.13651,-9.70489 -1.82449,-9.72455 -0.61214,-0.0175 -0.32549,-0.6296 0.63701,-1.36025 2.14317,-1.62689 2.32933,-4.04424 0.25,-3.24632 -2.1279,0.81655 -1.8581,-0.72758 0.5,-2.86163 2.55147,-2.30905 2.5924,-3.88741 0.0657,-2.53518 -4.08566,2.18657 -4.35272,0.8287 -0.31574,-1.60538 2.3375,-1.40939 4.25,-3.00329 4.25,-3.542 0,-1.01746 5.06465,-11.36263 8.96761,-18.31744 1.23462,-2.2 3.70201,-5.8 5.48311,-8 1.78109,-2.2 3.79693,-5.05508 4.47964,-6.34463 1.16809,-2.20636 1.10355,-2.29728 -1.09453,-1.54181 -4.23972,1.45718 -17.11454,1.09357 -20.18242,-0.56999 -2.81472,-1.52629 -2.89177,-1.49321 -6.88433,2.95643 -10.29938,11.47849 -17.31073,27.18377 -18.38592,41.18407 -0.83334,10.85109 0.953,23.87906 4.64844,33.90163 2.69325,7.3045 11.34528,23.27784 16.40033,30.27822 3.09761,4.28966 22.78505,19.40371 28.64225,21.98865 5.11346,2.25671 5.12843,2.27701 7.89522,10.70421 4.81591,14.66854 4.43672,14.10183 9.20078,13.75086 4.10509,-0.30243 4.19755,-0.39237 5.45584,-5.30764 z m -44.19423,-24.6756 1.33524,-3.1756 1.76816,3.41924 1.76815,3.41925 1.0606,-2.37688 c 0.94373,-2.11499 0.6265,-2.74133 -2.87919,-5.68453 -4.51853,-3.79354 -5.44582,-3.22996 -5.46944,3.32412 -0.0183,5.07123 0.61715,5.35375 2.41648,1.0744 z m 130.65884,-2.56279 1.04114,-2.73838 2.013,2.48838 2.013,2.48839 -0.61543,-4.40462 c -0.33848,-2.42254 -0.86083,-4.80169 -1.16077,-5.287 -0.68562,-1.10937 -6.38157,6.64071 -6.38157,8.68296 0,2.48959 1.97538,1.70361 3.09063,-1.22973 z m -38.29485,-7.69299 c -0.24081,-1.68417 -1.04922,-2.08563 -4.34988,-2.16012 -2.90978,-0.0657 -5.5875,-1.12416 -9.48665,-3.75 -2.9879,-2.01218 -6.4939,-3.6585 -7.79109,-3.6585 -1.2972,0 -4.81842,1.35 -7.82495,3 -3.00652,1.65 -5.94177,3 -6.52279,3 -0.58101,0 -2.55104,1.31232 -4.37782,2.91626 -2.46453,2.16388 -2.95008,3.05876 -1.88202,3.46861 0.79168,0.3038 1.44631,0.004 1.45473,-0.66625 0.01,-0.76779 0.36831,-0.66369 0.96949,0.28138 0.77017,1.21073 1.32683,1.26913 2.88657,0.3028 2.899,-1.79605 13.39477,-4.30919 17.77297,-4.25562 2.19756,0.0269 6.208,1.2647 9.32565,2.87832 4.47547,2.31641 5.89286,2.63848 7.79579,1.77145 1.54032,-0.70182 2.22589,-1.75831 2.03,-3.12833 z m -37.79578,0.43138 c 0,-0.55 0.45,-1 1,-1 0.55,0 1,0.45 1,1 0,0.55 -0.45,1 -1,1 -0.55,0 -1,-0.45 -1,-1 z m -3.69641,-2.78297 c 1.50368,-1.66154 1.38721,-1.96358 -1.71026,-4.43511 -3.30221,-2.63489 -12.59333,-19.00682 -12.59333,-22.19077 0,-0.87513 -0.48271,-1.59115 -1.07268,-1.59115 -1.66219,0 -0.34693,11.80921 2.013,18.07387 3.34889,8.88995 5.61212,11.92613 8.88999,11.92613 1.57285,0 3.58582,-0.80234 4.47328,-1.78297 z m 51.16921,-0.46703 c 2.59755,-3.68456 5.5272,-14.56358 5.5272,-20.52481 l 0,-5.56415 -2.28394,4.41948 c -1.25616,2.43071 -2.77987,5.31948 -3.38601,6.41948 -0.60615,1.1 -2.11966,4.33979 -3.36337,7.19954 -1.2437,2.85974 -2.87,5.43312 -3.61398,5.71861 -1.69961,0.6522 -1.76761,3.24776 -0.1027,3.91957 2.86208,1.15487 5.73445,0.52346 7.2228,-1.58772 z m -7.01568,-6.10909 c 3.62249,-4.75569 5.10642,-11.81628 3.56505,-16.96268 -1.66406,-5.55604 -6.30477,-11.24824 -11.38616,-13.96606 -5.93845,-3.17622 -21.47846,-3.04009 -30.13601,0.26399 -3.3,1.25942 -6.59539,2.76239 -7.32309,3.33995 -2.20284,1.74833 -5.17813,8.41364 -5.80843,13.01217 -0.87069,6.35236 2.89195,13.20367 8.98033,16.35209 2.67112,1.3813 3.26541,1.27887 9.29726,-1.60237 3.54405,-1.6929 7.4625,-3.078 8.70766,-3.078 1.24516,0 4.80758,1.53171 7.91649,3.4038 3.10892,1.87209 6.23244,3.60325 6.94118,3.84702 2.34609,0.80694 6.818,-1.42274 9.24572,-4.60991 z m -11.64605,-5.89091 c -0.86415,-0.6875 -1.88486,-2.6 -2.26824,-4.25 -0.38338,-1.65 -1.33166,-4.35 -2.10729,-6 -0.87566,-1.8628 -1.13072,-3.97884 -0.67288,-5.58223 l 0.73734,-2.58224 5.2587,2.31656 c 3.89045,1.71381 5.68182,3.20383 6.88489,5.72671 3.36084,7.04774 -2.40821,14.68665 -7.83252,10.3712 z m 6.17679,-3.72068 c 1.05543,-2.54804 0.95847,-3.43644 -0.68152,-6.2445 -2.14731,-3.6767 -6.64533,-5.84583 -8.42722,-4.06394 -0.81411,0.81411 -0.67926,1.72638 0.50515,3.41736 0.88865,1.26872 1.61573,2.85235 1.61573,3.51917 0,0.66681 0.43886,2.36669 0.97525,3.77749 1.34705,3.54301 4.46414,3.33275 6.01261,-0.40558 z m -37.78786,2.77068 c -2.12032,-2.12032 -1.41929,-9.01302 1.32786,-13.0558 4.43599,-6.52816 11.0449,-6.14584 8.75487,0.50645 -0.61522,1.78714 -1.42062,4.73169 -1.78979,6.54344 -0.67431,3.30928 -3.90884,7.20591 -5.9815,7.20591 -0.61129,0 -1.65144,-0.54 -2.31144,-1.2 z m 6.43927,-7.65836 c 0.89768,-3.1029 1.84422,-6.20414 2.10343,-6.89164 0.7988,-2.11869 -2.27042,-1.38162 -4.60799,1.1066 -2.30175,2.4501 -3.81204,8.43594 -2.79632,11.08285 1.11355,2.90187 3.66698,0.34992 5.30088,-5.29781 z m -13.41727,-8.85656 c 1.32952,-2.91494 3.19866,-4.91968 6.06033,-6.5 3.15021,-1.73965 4.29875,-3.07294 4.81185,-5.58583 0.37069,-1.81541 1.01445,-3.61541 1.43058,-4 0.41612,-0.38459 0.46664,0.51067 0.11225,1.98946 -0.35439,1.4788 -0.1927,2.96786 0.35932,3.30902 0.55202,0.34117 1.00981,-0.19375 1.01733,-1.18871 0.007,-0.99496 0.30339,-2.89189 0.65752,-4.21539 0.43077,-1.60997 0.28365,-2.18374 -0.44456,-1.73369 -1.42914,0.88326 -2.39487,-0.75792 -1.62561,-2.76258 0.38782,-1.01062 1.38347,-1.40706 2.75325,-1.09626 2.47833,0.56235 5.52574,-1.43968 5.40993,-3.5541 -0.18413,-3.36168 0.30364,-5.02311 1.29486,-4.41051 0.58248,0.36 0.92546,1.67399 0.76217,2.92 -0.16328,1.246 0.32428,3.0139 1.08346,3.92865 1.64806,1.98579 1.06748,2.76696 -2.20483,2.9666 -2.11864,0.12926 -2.41783,0.61297 -2.33508,3.77507 0.0811,3.10092 0.27447,3.39092 1.33326,2 0.6811,-0.89475 1.25267,-2.18931 1.27017,-2.87681 0.0697,-2.7385 2.0318,-1.04851 2.0318,1.75 0,1.65 0.3375,2.9989 0.75,2.99755 0.96377,-0.003 0.84864,-8.37808 -0.18226,-13.25851 -0.56707,-2.68457 -0.40424,-4.23676 0.56891,-5.42342 1.21566,-1.48236 1.10685,-1.59631 -1.00441,-1.05186 -2.26254,0.58346 -2.33978,0.43562 -1.73818,-3.32658 0.49012,-3.0651 0.30778,-3.93718 -0.82323,-3.93718 -0.79904,0 -1.77817,0.52647 -2.17586,1.16994 -0.48725,0.78838 -0.17633,0.96014 0.95335,0.52664 1.39852,-0.53666 1.56816,-0.19186 1.02337,2.08006 -0.78559,3.27612 -1.49544,4.14221 -2.0732,2.52954 -0.23524,-0.65661 -1.07363,-0.94596 -1.8631,-0.64301 -1.88531,0.72346 -1.77015,-0.32965 0.56461,-5.16317 1.06268,-2.2 1.94741,-4.5625 1.96607,-5.25 0.0547,-2.01363 2.17287,-1.43471 2.74418,0.75 0.77693,2.971 2.28975,2.42042 2.28975,-0.83333 0,-3.67552 -0.67053,-4.24243 -3.6693,-3.1023 -2.27978,0.86677 -2.44003,0.73203 -2.14717,-1.8053 0.33926,-2.9394 3.81647,-4.6375 3.81647,-1.86378 0,0.95977 0.56633,1.32462 1.5,0.96634 0.98418,-0.37767 1.53989,0.063 1.616,1.28138 0.10467,1.67558 0.16068,1.68603 0.57333,0.10699 0.47936,-1.83435 2.31067,-2.45363 2.31067,-0.78139 0,0.53274 0.675,0.7096 1.5,0.39302 0.9221,-0.35385 1.5,0.002 1.5,0.92297 0,0.82422 -1.07028,1.76721 -2.3784,2.09552 -1.805,0.45303 -2.64879,1.6708 -3.5,5.05123 -1.36449,5.4189 -1.39428,6.53798 -0.1216,4.56865 0.78977,-1.22208 0.97221,-1.09828 0.98469,0.66821 0.02,2.8286 1.00462,5.33179 2.0973,5.33179 0.4774,0 0.60893,-1.29542 0.29227,-2.87872 -0.31666,-1.5833 -0.13082,-3.1537 0.41298,-3.48979 0.56511,-0.34925 1.27571,1.30261 1.65852,3.85541 0.618,4.12111 2.55424,7.37042 2.55424,4.2864 0,-0.7396 0.9,-1.34473 2,-1.34473 1.1,0 2,0.35357 2,0.78572 0,0.43214 -0.57499,0.78571 -1.27776,0.78571 -1.2364,0 -4.72224,3.40921 -4.72224,4.61842 0,0.32756 0.675,0.33654 1.5,0.0199 1.10245,-0.42305 1.50939,0.14492 1.53544,2.14301 0.0195,1.49524 0.67854,3.84362 1.46456,5.21862 1.98229,3.46766 1.84213,4.24336 -0.62523,3.46025 -1.43014,-0.4539 -1.90143,-0.31241 -1.44098,0.43262 0.37633,0.60892 1.3959,1.10713 2.2657,1.10713 3.42553,0 10.8224,4.76503 15.44108,9.94708 2.67269,2.99868 4.85943,6.03733 4.85943,6.75254 0,0.71521 0.45,1.30038 1,1.30038 0.55,0 1,-1.15156 1,-2.55902 0,-1.40746 0.41891,-2.30012 0.9309,-1.98369 1.34285,0.82993 2.37825,-1.28884 2.28212,-4.66996 -0.0679,-2.38873 0.1717,-2.71293 1.30811,-1.76979 0.76519,0.63505 1.86097,0.86434 2.43507,0.50953 0.57409,-0.35481 1.0438,-0.16855 1.0438,0.41391 0,0.58246 0.48032,1.05902 1.06739,1.05902 0.58706,0 0.84566,-0.7875 0.57465,-1.75 -1.52039,-5.3999 -1.73269,-8.25 -0.61451,-8.25 0.65255,0 0.98146,0.5625 0.73091,1.25 -0.25054,0.6875 0.16425,2.6 0.92175,4.25 l 1.37729,3 -0.48129,-3.5 c -0.2647,-1.925 -0.77871,-4.9625 -1.14223,-6.75 -0.43045,-2.11657 -0.27263,-3.25 0.45254,-3.25 0.61243,0 1.1135,0.70156 1.1135,1.55902 0,0.8626 0.4829,1.26057 1.08103,0.8909 0.59456,-0.36746 0.81099,-1.74402 0.48095,-3.05901 -0.33874,-1.3496 -0.15628,-2.39086 0.41897,-2.39086 0.56048,0 1.07229,1.4625 1.13736,3.25 l 0.11832,3.25 0.77326,-3 c 0.73497,-2.85144 0.80917,-2.88858 1.49832,-0.75 0.8422,2.61354 2.29388,2.92933 3.15463,0.68623 0.36199,-0.94332 -0.20925,-2.13065 -1.43972,-2.9925 -2.05768,-1.44126 -2.05731,-5.44373 5e-4,-5.44373 0.5447,0 0.76385,0.59026 0.48702,1.31168 -0.27684,0.72143 0.34001,2.40893 1.37077,3.75 2.05796,2.67751 2.4785,4.93832 0.91859,4.93832 -0.55,0 -1,0.46539 -1,1.03421 0,0.57113 1.23134,0.83183 2.75,0.58223 1.5125,-0.24859 3.4025,-0.48898 4.2,-0.53421 1.12778,-0.064 1.18333,-0.3489 0.25,-1.28223 -0.66,-0.66 -1.2,-2.48656 -1.2,-4.05902 0,-1.58682 -0.4304,-2.59301 -0.96725,-2.26122 -0.53198,0.32878 -0.70073,1.93034 -0.375,3.55901 0.37556,1.8778 0.18064,2.96123 -0.53275,2.96123 -0.61875,0 -1.125,-1.26 -1.125,-2.8 0,-1.54 -0.5625,-3.39625 -1.25,-4.125 -0.87374,-0.92616 -0.91749,-1.44838 -0.14534,-1.73489 0.60756,-0.22543 0.8926,-1.51918 0.63342,-2.875 -0.38082,-1.99213 -0.0651,-2.46511 1.64534,-2.46511 1.16412,0 2.11658,-0.47656 2.11658,-1.05902 0,-0.58246 0.45,-0.7809 1,-0.44098 0.55,0.33992 1,1.71648 1,3.05902 0,1.34254 -0.45,2.44098 -1,2.44098 -0.55,0 -1,-0.765 -1,-1.7 0,-1.36924 -0.24321,-1.45342 -1.25,-0.43268 -1.00151,1.01538 -0.90211,1.52435 0.5,2.56024 0.9625,0.71111 1.75,2.05737 1.75,2.9917 0,0.93433 0.45,1.42066 1,1.08074 1.39346,-0.86121 1.24516,-6.59464 -0.41386,-16 -2.07166,-11.74476 -5.89074,-20.52195 -15.6641,-36 -5.58611,-8.84672 -5.60361,-8.79206 2.74302,-8.56567 15.92253,0.43189 25.83328,-8.72434 27.53027,-25.43433 0.29464,-2.90119 0.13999,-3.02159 -4.69533,-3.65541 -7.11698,-0.93292 -23.44372,0.075 -26.45708,1.63322 -3.4285,1.77294 -5.30938,4.03712 -8.54027,10.28069 -2.60141,5.0271 -4.50265,7.34665 -4.50265,5.4933 0,-2.01821 -11.07323,-14.2518 -12.9,-14.2518 -0.605,0 -1.1,0.70156 -1.1,1.55902 0,0.85746 -0.47185,1.26739 -1.04856,0.91097 -0.72091,-0.44555 -0.72662,-1.03595 -0.0183,-1.88945 0.7474,-0.90055 0.28024,-1.91884 -1.70144,-3.7087 -3.90792,-3.52967 -7.09609,-4.86856 -12.23171,-5.1368 -4.32347,-0.22582 -4.51262,-0.11735 -4.8217,2.76496 -0.30101,2.80702 -0.22969,2.87669 1.10865,1.08307 1.33957,-1.79527 6.36995,-3.48685 5.47133,-1.83986 -0.2271,0.41623 -1.03928,2.21929 -1.80483,4.00679 -1.60633,3.7506 -2.8267,4.04683 -5.20909,1.2644 -1.1737,-1.37078 -1.51345,-2.91897 -1.09724,-5 0.38471,-1.92348 0.19575,-3.0144 -0.52211,-3.0144 -0.61875,0 -1.125,1.09844 -1.125,2.44098 0,1.34254 -0.45,2.7191 -1,3.05902 -0.55,0.33992 -0.92798,2.50398 -0.83996,4.80902 0.14077,3.68649 0.20858,3.79976 0.56336,0.94098 0.22182,-1.7875 0.71656,-3.25 1.09941,-3.25 1.61462,0 2.95021,3.86671 2.33414,6.75768 -0.65338,3.06604 -0.66926,3.07279 -2.92116,1.24076 -1.52702,-1.2423 -2.40867,-3.25122 -2.70792,-6.17024 -0.68472,-6.67912 -1.09077,-8.72444 -1.89089,-9.52455 -0.4054,-0.4054 -0.49011,2.39793 -0.18826,6.22963 l 0.54882,6.96672 -1.31433,-5.73223 c -0.72289,-3.15273 -1.68425,-6.07773 -2.13636,-6.5 -0.85815,-0.80151 -0.16856,5.4775 1.05856,9.6386 0.48974,1.6607 0.36295,2.19211 -0.40915,1.71492 -0.61534,-0.3803 -1.41893,-2.36316 -1.78576,-4.40637 -0.91167,-5.07796 -1.66744,-6.29219 -3.29164,-5.28838 -1.09739,0.67822 -1.12719,1.51818 -0.15807,4.45464 0.65687,1.99035 1.60942,3.61882 2.11676,3.61882 0.50735,0 0.92245,1.2 0.92245,2.66667 0,2.69568 -0.97017,2.74232 -1.36304,0.0655 -0.11714,-0.79809 -0.98337,-2.22147 -1.92497,-3.16306 -0.94159,-0.9416 -1.71199,-2.3283 -1.71199,-3.08155 0,-0.75326 -0.45345,-1.64981 -1.00767,-1.99233 -1.48574,-0.91824 -4.08435,2.10136 -3.38247,3.93044 0.33226,0.86586 0.10597,1.5743 -0.50287,1.5743 -0.60885,0 -1.10699,-0.45 -1.10699,-1 0,-0.55 -0.45,-1 -1,-1 -0.55,0 -1,0.675 -1,1.5 0,0.825 -0.70532,1.5 -1.56739,1.5 -1.08972,0 -1.38195,0.58424 -0.95891,1.91712 0.49295,1.55315 0.22096,1.81579 -1.43262,1.38337 -2.24497,-0.58707 -2.30721,-0.3767 -2.0558,6.94951 0.10253,2.9878 -0.2605,4.75 -0.97853,4.75 -0.69022,0 -0.88806,-0.79861 -0.50041,-2.01998 0.80688,-2.54224 -2.02639,-11.25864 -4.29764,-13.22148 -3.09154,-2.67174 -10.50251,-3.73374 -22.59185,-3.23743 -6.41584,0.26339 -13.67929,0.47889 -16.14101,0.47889 -4.18955,0 -4.47584,0.1717 -4.47584,2.6844 0,3.45208 2.78692,13.35738 4.31946,15.35232 4.55945,5.93508 17.3786,8.79158 25.05266,5.58249 6.23407,-2.60691 6.78432,-2.16546 3.90246,3.13079 -1.42154,2.6125 -3.59589,5.875 -4.8319,7.25 -6.45628,7.18232 -17.366,29.63901 -17.42159,35.86078 l -0.0211,2.36079 1.96673,-2.36079 c 2.23679,-2.68494 2.56134,-2.11387 0.88704,1.56081 -0.63042,1.38363 -1.49803,2.29827 -1.928,2.03253 -0.96962,-0.59925 -2.34847,3.45651 -1.47282,4.33216 0.34955,0.34956 1.69753,-0.69685 2.9955,-2.32536 1.29797,-1.62851 3.33682,-3.0136 4.53079,-3.07798 1.84972,-0.0998 2.07881,0.27006 1.54864,2.5 -0.34222,1.43938 -1.50098,3.83634 -2.57505,5.32657 -2.11217,2.93058 -2.67053,5.25253 -0.67103,2.79049 0.67001,-0.825 1.96169,-2.08107 2.87039,-2.79127 1.47018,-1.14902 1.64126,-0.90567 1.55298,2.20893 -0.0731,2.5797 -0.41117,3.2413 -1.28541,2.51575 -0.80621,-0.6691 -1.35181,-0.55287 -1.7032,0.36283 -0.58919,1.53542 2.86931,4.07774 4.32412,3.17862 0.52762,-0.32609 0.95932,0.15312 0.95932,1.06491 0,2.2882 -5.76983,7.48578 -7.55115,6.80223 -1.88196,-0.72218 -1.81953,1.58344 0.11209,4.13897 1.45559,1.92576 1.48955,1.91257 1.21819,-0.47325 -0.17134,-1.50649 0.2347,-2.46455 1.05148,-2.48097 0.73184,-0.0147 1.9394,-0.85931 2.68347,-1.87689 0.74407,-1.01757 1.83279,-1.55352 2.41938,-1.19098 0.61514,0.38018 1.06654,-0.16047 1.06654,-1.27742 0,-1.06511 0.675,-2.49677 1.5,-3.18146 1.74548,-1.44862 1.92732,-0.66698 0.4758,2.04522 -1.23221,2.3024 -0.21419,7.22014 1.30081,6.28382 0.67582,-0.41767 0.81914,-0.0209 0.39333,1.0887 -0.36847,0.96021 -0.66994,2.86059 -0.66994,4.22306 0,1.39685 -0.43613,2.20769 -1,1.8592 -0.55,-0.33992 -1,-0.14148 -1,0.44098 0,0.58246 0.675,1.05902 1.5,1.05902 0.825,0 1.5,0.45 1.5,1 0,0.55 0.9,1 2,1 2.41936,0 2.61723,-1.5552 0.35867,-2.81915 -1.25358,-0.70154 -1.4559,-1.59917 -0.85643,-3.79969 l 0.78489,-2.88116 0.66119,2.5 c 0.64899,2.4539 0.68331,2.43708 1.86094,-0.91216 1.53236,-4.35809 2.44372,-3.58794 1.17815,0.9956 -0.90952,3.294 -0.67386,7.56344 0.48123,8.71853 0.29225,0.29225 0.53136,-1.37019 0.53136,-3.69432 0,-2.32413 0.40775,-3.97368 0.90612,-3.66567 0.49837,0.30801 0.67088,1.45956 0.38337,2.55902 -0.29218,1.1173 -0.0302,1.999 0.59388,1.999 0.61415,0 1.11663,-0.45 1.11663,-1 0,-0.55 0.45,-1 1,-1 0.55,0 1,0.98601 1,2.19113 0,2.14132 0.0334,2.147 1.4682,0.25 1.32847,-1.7564 1.47122,-1.77459 1.5,-0.19113 0.0175,0.9625 0.7068,1.75 1.5318,1.75 1.13333,0 1.5,-1.22222 1.5,-5 0,-6.11539 1.54281,-6.50122 2.99898,-0.75 0.59184,2.3375 1.82708,5.99193 2.74497,8.12096 1.62385,3.7665 1.69434,3.80697 2.61224,1.5 0.51885,-1.30403 1.80846,-4.26767 2.86581,-6.58588 z m 58.11133,-2.4082 c 0,-1.65781 0.47089,-2.77765 1.08334,-2.57633 1.64544,0.54088 1.8786,4.37217 0.30287,4.97683 -0.9874,0.3789 -1.38621,-0.31172 -1.38621,-2.4005 z m -74.33333,-1.4359 c 0,-0.85746 0.45734,-1.27636 1.01631,-0.9309 0.55897,0.34546 0.75742,1.04702 0.44098,1.55902 -0.85724,1.38704 -1.45729,1.12841 -1.45729,-0.62812 z m 79.17126,-2.53836 c -0.72041,-1.15356 -1.07508,-2.33213 -0.78817,-2.61905 0.68604,-0.68604 3.61691,2.26759 3.61691,3.645 0,1.74267 -1.42174,1.22702 -2.82874,-1.02595 z m -83.17126,0.27884 c 0,-1.20855 1.8972,-2.61759 2.5907,-1.9241 0.2517,0.2517 -0.22824,1.02686 -1.06653,1.72258 -0.95039,0.78875 -1.52417,0.86462 -1.52417,0.20152 z m -7,-4.06343 c 0,-0.55 0.45,-1.27811 1,-1.61803 0.55,-0.33992 1,-0.16803 1,0.38197 0,0.55 -0.45,1.27811 -1,1.61803 -0.55,0.33992 -1,0.16803 -1,-0.38197 z m 34.70437,-0.78736 c -0.71633,-1.15904 0.95298,-4.00665 1.83292,-3.12671 0.35532,0.35532 0.21706,1.41257 -0.30724,2.34945 -0.52431,0.93688 -1.21087,1.28665 -1.52568,0.77726 z m -36.70437,-3.83067 c 0,-0.825 0.43588,-1.5 0.96861,-1.5 0.53274,0 0.7096,0.675 0.39302,1.5 -0.31659,0.825 -0.75246,1.5 -0.96862,1.5 -0.21616,0 -0.39301,-0.675 -0.39301,-1.5 z m 3.5,-0.5 c -0.33992,-0.55 -0.14148,-1 0.44098,-1 0.58246,0 1.05902,0.45 1.05902,1 0,0.55 -0.19844,1 -0.44098,1 -0.24254,0 -0.7191,-0.45 -1.05902,-1 z m 63.64912,-1.67075 c -1.82827,-1.97707 -0.94012,-2.62813 1.32537,-0.97156 1.00567,0.73536 1.42282,1.58348 0.927,1.88471 -0.49582,0.30122 -1.50939,-0.10969 -2.25237,-0.91315 z m 24.85088,-0.32925 c 0,-1.1 0.45,-2 1,-2 0.55,0 1,0.9 1,2 0,1.1 -0.45,2 -1,2 -0.55,0 -1,-0.9 -1,-2 z m 3,-4.5 c 0,-0.825 0.40186,-1.5 0.89301,-1.5 0.49116,0 1.15203,0.675 1.46862,1.5 0.35062,0.91371 0.002,1.5 -0.89301,1.5 -0.80774,0 -1.46862,-0.675 -1.46862,-1.5 z m -97.98469,-2.19098 c -0.008,-1.20504 0.43469,-2.4691 0.98469,-2.80902 1.27319,-0.78687 1.27319,1.52988 0,3.5 -0.78809,1.21948 -0.97224,1.09025 -0.98469,-0.69098 z m 68.56764,0.82519 c -0.43077,-0.697 -0.51316,-1.53733 -0.18309,-1.86741 0.89497,-0.89496 1.87077,0.4213 1.38739,1.87145 -0.33872,1.01617 -0.57427,1.01538 -1.2043,-0.004 z m 34.41705,-2.7412 c 0,-1.90648 0.40306,-2.45232 1.5,-2.03138 0.825,0.31658 1.5,0.11317 1.5,-0.45203 0,-0.5652 0.51817,-0.70739 1.15149,-0.31597 0.81152,0.50154 0.66389,1.0682 -0.5,1.91926 -0.90832,0.66418 -1.65149,1.72049 -1.65149,2.34735 0,0.62687 -0.45,1.13976 -1,1.13976 -0.55,0 -1,-1.17314 -1,-2.60699 z m -55.98469,-0.23663 c 0.0205,-2.2187 1.09518,-3.65818 3.35521,-4.49418 1.5672,-0.57973 1.77211,-0.32467 1.26365,1.57294 -0.33377,1.24567 -0.61301,2.54988 -0.62052,2.89823 -0.008,0.34835 -0.91365,0.86872 -2.01365,1.15638 -1.40866,0.36837 -1.99547,0.0333 -1.98469,-1.13337 z m -49.01531,-1.15638 c 0,-0.55 0.45,-1 1,-1 0.55,0 1,0.45 1,1 0,0.55 -0.45,1 -1,1 -0.55,0 -1,-0.45 -1,-1 z m 73,-1 c 0,-0.55 0.45,-1 1,-1 0.55,0 1,0.45 1,1 0,0.55 -0.45,1 -1,1 -0.55,0 -1,-0.45 -1,-1 z m 40.44966,-1 c 0.3915,-1.375 0.95294,-3.5125 1.24765,-4.75 0.29471,-1.2375 0.92213,-2.25 1.39427,-2.25 1.31098,0 -0.14593,6.30015 -1.85,8 -1.33756,1.33425 -1.42507,1.22376 -0.79192,-1 z m -3.44966,-1.91821 c 0,-3.09468 1.09761,-5.08179 2.80699,-5.08179 1.23901,0 1.32634,0.26667 0.39301,1.2 -0.66,0.66 -1.2,2.235 -1.2,3.5 0,1.265 -0.45,2.3 -1,2.3 -0.55,0 -1,-0.8632 -1,-1.91821 z m -43.29546,-1.75085 c -0.35226,-0.56996 0.006,-1.89009 0.79569,-2.93362 1.54521,-2.04138 1.82638,-1.0903 0.60199,2.0363 -0.43697,1.11585 -1.02808,1.49535 -1.39768,0.89732 z m 51.96213,-0.99761 c -1.03737,-1.03737 -0.78384,-4.33333 0.33333,-4.33333 0.55,0 1,1.125 1,2.5 0,2.61806 -0.23099,2.93567 -1.33333,1.83333 z M 447.7221,364.1085 c -0.30982,-0.80738 -0.13297,-1.73394 0.39301,-2.05901 0.52598,-0.32507 0.95633,0.33551 0.95633,1.46797 0,2.41457 -0.55611,2.65816 -1.34934,0.59104 z m -45.65066,-2.03202 c 0,-1.12782 0.70183,-1.53943 2.25,-1.31955 1.2375,0.17575 2.25,0.76955 2.25,1.31955 0,0.55 -1.0125,1.1438 -2.25,1.31955 -1.54817,0.21988 -2.25,-0.19173 -2.25,-1.31955 z m -64,-3.5 c 0,-0.55 0.45,-1 1,-1 0.55,0 1,0.45 1,1 0,0.55 -0.45,1 -1,1 -0.55,0 -1,-0.45 -1,-1 z m 111.5,-1 c 0.33992,-0.55 0.81648,-1 1.05902,-1 0.24254,0 0.44098,0.45 0.44098,1 0,0.55 -0.47656,1 -1.05902,1 -0.58246,0 -0.7809,-0.45 -0.44098,-1 z m -115.5,-1.94098 c 0,-0.51754 0.45,-1.2191 1,-1.55902 0.55,-0.33992 1,0.0835 1,0.94098 0,0.85746 -0.45,1.55902 -1,1.55902 -0.55,0 -1,-0.42344 -1,-0.94098 z m 59,-8.44401 c 0,-0.76174 1.125,-2.12212 2.5,-3.02305 2.47659,-1.62272 2.5,-1.60975 2.5,1.38499 0,3.04002 -1.39849,4.10071 -2.33772,1.77305 -0.40351,-1 -0.52017,-1 -0.58333,0 -0.10843,1.71674 -2.07895,1.58879 -2.07895,-0.13499 z m 6.58295,0.5192 c -0.43077,-0.697 -0.51316,-1.53733 -0.18309,-1.86741 0.89497,-0.89496 1.87077,0.4213 1.38739,1.87145 -0.33872,1.01617 -0.57427,1.01538 -1.2043,-0.004 z m 3.41705,-0.19323 c 0,-0.58246 0.45,-0.7809 1,-0.44098 0.55,0.33992 1,0.81648 1,1.05902 0,0.24254 -0.45,0.44098 -1,0.44098 -0.55,0 -1,-0.47656 -1,-1.05902 z m -17.55941,-2.0371 c -0.37259,-0.60286 -1.96408,-0.90728 -3.53665,-0.67647 -4.52936,0.66476 -11.90701,-3.88629 -14.79414,-9.12607 -2.36518,-4.29253 -2.37765,-4.43232 -0.51673,-5.79343 3.85621,-2.8205 6.50926,-2.7086 12.91361,0.54468 5.89701,2.99557 11.71067,3.97868 14.08666,2.3821 0.60134,-0.40408 1.58349,-3.65969 2.18258,-7.23469 l 1.08923,-6.5 -0.2672,8.25 -0.2672,8.25 3.33462,0 c 3.6825,0 3.97839,-0.56478 1.80283,-3.44113 -1.66081,-2.19578 -2.04714,-12.55887 -0.4682,-12.55887 0.55,0 1,2.20015 1,4.88922 0,6.19096 2.37277,9.46141 6.77365,9.33628 3.8989,-0.11086 6.49466,-1.4434 12.47635,-6.40477 4.8555,-4.02728 6.3771,-4.1816 2.70656,-0.27449 l -2.04343,2.17514 2.94821,1.22119 c 1.62152,0.67165 3.19349,2.15909 3.49326,3.30541 0.61543,2.35341 -2.08639,6.69686 -5.57873,8.96841 -2.92854,1.90483 -12.35417,4.15941 -14.28749,3.41752 -1.69173,-0.64917 -1.97252,-4.86076 -0.50669,-7.59969 0.74242,-1.38723 0.58966,-1.98473 -0.62675,-2.45151 -0.88464,-0.33947 -2.1139,-0.22277 -2.73169,0.25932 -2.16663,1.69075 -7.11468,2.00734 -9.62325,0.61571 -1.375,-0.76278 -4.23564,-1.40281 -6.35699,-1.42231 -3.11974,-0.0287 -3.74055,0.268 -3.24784,1.55199 0.33503,0.87308 0.89069,3.34808 1.2348,5.5 0.61562,3.84988 0.14219,4.97098 -1.18938,2.81646 z m 27.55941,-2.81974 c 0,-0.38603 -0.61798,-1.54701 -1.37328,-2.57995 -1.32635,-1.8139 -1.3969,-1.80365 -2.06455,0.29992 -0.38019,1.1979 -0.42281,2.61237 -0.0947,3.14327 0.63482,1.02715 3.53253,0.31905 3.53253,-0.86324 z m -28,-1.02512 c 0,-1.67643 -1.77354,-2.09154 -2.36383,-0.55328 -0.3483,0.90766 0.003,1.49426 0.89521,1.49426 0.80774,0 1.46862,-0.42344 1.46862,-0.94098 z m -6,-2.05902 c 0,-0.55 -0.45,-1 -1,-1 -0.55,0 -1,0.45 -1,1 0,0.55 0.45,1 1,1 0.55,0 1,-0.45 1,-1 z m 39,0 c 0,-0.55 -0.19844,-1 -0.44098,-1 -0.24254,0 -0.7191,0.45 -1.05902,1 -0.33992,0.55 -0.14148,1 0.44098,1 0.58246,0 1.05902,-0.45 1.05902,-1 z m 7.04091,-6.40353 c -1.09194,-1.09195 -2.30535,-1.66536 -2.69647,-1.27425 -0.39111,0.39111 -0.17861,1.24361 0.47223,1.89445 0.65083,0.65083 1.19764,2.10583 1.21513,3.23333 0.0314,2.02595 0.0492,2.02702 1.51314,0.0909 1.33194,-1.76152 1.28111,-2.15931 -0.50403,-3.94444 z m -52.78356,-2.84917 c -0.51111,-1.01582 -4.25735,1.05525 -4.25735,2.35363 0,0.5668 0.51195,1.98714 1.13766,3.1563 1.0879,2.03275 1.18931,1.97519 2.31804,-1.31574 0.6492,-1.89282 1.00995,-3.78021 0.80165,-4.19419 z m 61.74767,-13.41397 c 0.003,-0.45833 1.86526,-2.40833 4.13888,-4.33333 2.27362,-1.925 5.20201,-5.1875 6.50752,-7.25 2.17453,-3.4354 2.75509,-3.75 6.92014,-3.75 2.77634,0 4.30585,0.38934 3.92844,1 -0.33992,0.55 -2.13583,1 -3.99092,1 -2.64866,0 -3.85907,0.68277 -5.63709,3.17977 -2.25877,3.17215 -9.32641,10.02157 -10.99299,10.65356 -0.48345,0.18334 -0.87674,-0.0417 -0.87398,-0.5 z m -37.00502,-5.27431 c 0,-0.51754 0.45,-1.2191 1,-1.55902 0.55,-0.33992 1,0.0835 1,0.94098 0,0.85746 -0.45,1.55902 -1,1.55902 -0.55,0 -1,-0.42344 -1,-0.94098 z m -37.86382,-1.17416 c -0.22731,-2.69599 -4.11223,-6.84801 -7.88077,-8.42261 -4.32532,-1.80723 -7.7604,-2.05411 -16.25541,-1.16826 l -6.5,0.67782 3.5,-1.59569 c 4.04577,-1.84452 16.80528,-1.49334 21,0.57797 3.73836,1.84597 7.21284,6.65836 6.70662,9.28913 -0.23884,1.24123 -0.49554,1.52997 -0.57044,0.64164 z m 29.40217,-5.23316 c -1.01414,-0.74156 -1.53374,-1.85015 -1.15465,-2.46352 0.46495,-0.75232 1.32821,-0.47627 2.65277,0.84829 3.0992,3.0992 2.06146,4.21806 -1.49812,1.61523 z m 9.46165,-0.0866 c 0,-1.34343 2.13839,-5.76004 2.57665,-5.32179 0.78885,0.78886 -0.6653,5.75669 -1.68506,5.75669 -0.49037,0 -0.89159,-0.1957 -0.89159,-0.4349 z m 8,-3.50608 c 0,-0.51754 0.45,-1.2191 1,-1.55902 0.55,-0.33992 1,0.0835 1,0.94098 0,0.85746 -0.45,1.55902 -1,1.55902 -0.55,0 -1,-0.42344 -1,-0.94098 z m -2.96959,-2.68657 c -0.0167,-1.17016 0.60044,-2.65112 1.37148,-3.29102 0.77103,-0.63991 1.67961,-2.27001 2.01905,-3.62245 0.33944,-1.35244 1.05859,-2.45898 1.59811,-2.45898 0.53952,0 0.98095,0.20383 0.98095,0.45295 0,0.81411 -2.44396,6.0344 -3.06511,6.54705 -0.3332,0.275 -1.11617,1.4 -1.73994,2.5 -1.11725,1.97023 -1.13459,1.96834 -1.16454,-0.12755 z m -25.47067,-1.99045 c -0.59265,-2.3613 -0.10982,-4.3532 0.79958,-3.29867 0.94373,1.09433 1.56979,5.91667 0.76814,5.91667 -0.50085,0 -1.20633,-1.1781 -1.56772,-2.618 z m 31.09729,-1.12792 c -0.32613,-0.52769 0.0533,-1.81323 0.8432,-2.85676 1.10444,-1.45908 1.43997,-1.55086 1.45265,-0.39732 0.0235,2.13584 -1.58124,4.41034 -2.29585,3.25408 z m 3.34297,-0.69506 c 0,-0.85746 0.45,-1.55902 1,-1.55902 0.55,0 1,0.42344 1,0.94098 0,0.51754 -0.45,1.2191 -1,1.55902 -0.55,0.33992 -1,-0.0835 -1,-0.94098 z m 30.68311,112.25348 c -0.31922,-0.79773 -0.55618,-0.56078 -0.60416,0.60417 -0.0434,1.05416 0.19292,1.64479 0.52522,1.3125 0.33229,-0.3323 0.36781,-1.1948 0.0789,-1.91667 z m -2.48311,-2.0125 c -0.93333,-0.93333 -1.2,-0.66667 -1.2,1.2 0,1.86667 0.26667,2.13333 1.2,1.2 0.93333,-0.93333 0.93333,-1.46667 0,-2.4 z m -99.92062,-2.83966 c -0.29336,-1.12182 -0.75683,-1.81623 -1.02992,-1.54313 -0.541,0.54099 0.41459,3.58279 1.12554,3.58279 0.24077,0 0.19774,-0.91785 -0.0956,-2.03966 z m 105.52749,-1.4868 c -0.30789,-0.30789 -0.86705,0.24711 -1.24258,1.23333 -0.54268,1.4252 -0.42782,1.54006 0.5598,0.5598 0.68342,-0.67834 0.99067,-1.48524 0.68278,-1.79313 z m 2.70451,-2.40616 c -0.37794,-2.23706 -1.05023,-4.06738 -1.49397,-4.06738 -0.44373,0 -0.41491,1.6875 0.064,3.75 0.47896,2.0625 0.88157,4.1625 0.89469,4.66667 0.0131,0.50416 0.29354,0.64699 0.62314,0.31738 0.32961,-0.3296 0.29005,-2.4296 -0.0879,-4.66667 z m 6.85245,0.43836 c -0.31537,-0.82184 -1.02656,-1.21419 -1.58042,-0.87188 -0.55386,0.3423 -1.39981,0.002 -1.8799,-0.75574 -0.64788,-1.02289 -0.87683,-0.79814 -0.8882,0.87188 -0.0118,1.72984 0.55539,2.25 2.45331,2.25 1.77926,0 2.30849,-0.41726 1.89521,-1.49426 z m -113.94742,-2.98276 c -0.49995,-1.99197 -0.90748,-2.35555 -1.53335,-1.368 -1.17789,1.85854 -1.09963,4.0969 0.11694,3.34502 0.55,-0.33992 1,-0.0665 1,0.60765 0,0.67413 0.2469,0.97878 0.54867,0.67702 0.30176,-0.30177 0.24225,-1.76953 -0.13226,-3.26169 z m 115.58359,-2.64101 c 0,-0.55 -0.45,-0.72189 -1,-0.38197 -0.55,0.33992 -1,1.06803 -1,1.61803 0,0.55 0.45,0.72189 1,0.38197 0.55,-0.33992 1,-1.06803 1,-1.61803 z m -5.09459,-0.63197 c -0.73671,-0.9625 -1.46681,-1.9375 -1.62244,-2.16667 -0.15563,-0.22916 -0.28297,0.55834 -0.28297,1.75 0,1.33194 0.62507,2.16667 1.62244,2.16667 1.3888,0 1.42955,-0.25202 0.28297,-1.75 z m -60.1611,-5.52876 c -0.36512,-2.09422 -0.45506,-2.05919 -1.57294,0.61268 -0.65212,1.55865 -0.89519,3.30394 -0.54014,3.87841 0.96194,1.55646 2.57114,-1.8637 2.11308,-4.49109 z m -60.3261,2.67177 c 0.86999,-0.33384 1.58179,-1.46266 1.58179,-2.50847 0,-1.67813 -0.2643,-1.75366 -2.25,-0.64301 -1.2375,0.69216 -2.40756,1.34103 -2.60014,1.44194 -0.40862,0.21412 0.79605,2.31653 1.32737,2.31653 0.19756,0 1.071,-0.27314 1.94098,-0.60699 z m 71.64821,-4.39301 c 0.51347,0 0.93358,1.125 0.93358,2.5 0,2.85693 2.93075,3.56279 3.11402,0.75 0.0627,-0.9625 0.26075,-2.9875 0.44009,-4.5 0.17933,-1.5125 -0.14943,-2.75 -0.7306,-2.75 -0.59228,0 -0.8433,1.11612 -0.57118,2.53963 0.96793,5.06341 -1.76242,1.77603 -3.2077,-3.86211 -0.80046,-3.12264 -1.86544,-5.67752 -2.36664,-5.67752 -0.50738,0 -0.56865,0.99722 -0.13824,2.25 0.42515,1.2375 0.75798,4.95 0.73962,8.25 -0.0184,3.3 0.16615,4.7625 0.41004,3.25 0.24389,-1.5125 0.86354,-2.75 1.37701,-2.75 z m -103.62617,-15.75 c -0.10064,-14.15424 -0.22272,-14.99234 -3.02256,-20.75 l -2.91769,-6 -0.30465,5.90902 c -0.3194,6.19514 4.67406,35.59098 6.04583,35.59098 0.16717,0 0.25675,-6.6375 0.19907,-14.75 z m 29.11161,13.83392 c -0.80043,-1.29512 1.01304,-5.64883 3.30949,-7.94527 1.06766,-1.06766 2.23598,-2.99813 2.59625,-4.28993 l 0.65505,-2.34872 -2.34736,2.56282 c -1.29104,1.40955 -3.11639,2.85793 -4.05632,3.21862 -2.39192,0.91786 -2.37679,9.71856 0.0167,9.71856 0.2158,0 0.13758,-0.41224 -0.17382,-0.91608 z m 4.43283,-1.83392 c -0.009,-0.99868 -0.33573,-1.32068 -0.76164,-0.75 -0.41047,0.55 -1.15358,1.3375 -1.65135,1.75 -0.49777,0.4125 -0.15503,0.75 0.76163,0.75 0.92647,0 1.65987,-0.77721 1.65136,-1.75 z m 150.01531,-28.91667 c 0,-14.11666 -0.21286,-25.45381 -0.47302,-25.19365 -2.4097,2.4097 -4.5726,28.3589 -3.19738,38.36032 0.22688,1.65 0.47053,5.1375 0.54145,7.75 0.095,3.49825 0.52424,4.75 1.62895,4.75 1.29437,0 1.5,-3.51852 1.5,-25.66667 z m -5.66146,-20.83333 c 4.67692,-21.72498 5.66254,-28.60108 5.57024,-38.86047 l -0.0912,-10.13953 -1.8952,6 c -1.04236,3.3 -1.90131,7.05462 -1.90879,8.34359 -0.007,1.28897 -1.10288,8.03897 -2.43424,15 -4.28764,22.41798 -5.32211,35.4944 -2.56896,32.47363 0.40965,-0.44947 1.90732,-6.21722 3.32816,-12.81722 z m -173.43484,-0.0866 c -1.66824,-4.33235 -4.61988,-14.18519 -6.55921,-21.8952 -3.66353,-14.56478 -5.25826,-18.97065 -5.31408,-14.68156 -0.0383,2.94587 7.61456,33.14002 9.9262,39.16335 0.94986,2.475 2.05346,5.4 2.45245,6.5 0.63764,1.75794 0.83451,1.80577 1.62662,0.3952 0.61848,-1.10137 -0.0503,-4.0758 -2.13198,-9.48179 z m 161.52032,-7.66341 c 0.72159,-4.05932 0.004,-4.56082 -3.73976,-2.61455 -1.20134,0.6245 -2.34585,1.2736 -2.54335,1.44243 -0.1975,0.16883 0.64533,1.71755 1.87295,3.44159 2.5351,3.56021 3.45833,3.08511 4.41016,-2.26947 z m -149.86923,-2.19261 c -1.89137,-6.73547 -4.8054,-21.79413 -5.85273,-30.2448 l -1.21611,-9.81259 -3.24298,-0.31336 c -3.12516,-0.30197 -3.24297,-0.18003 -3.24297,3.35692 0,3.84042 1.41254,10.59147 6.05863,28.95644 3.92828,15.52763 3.83815,15.3457 6.17372,12.46139 1.15578,-1.42733 1.67385,-3.15259 1.32244,-4.404 z m 119.68905,-23.08615 c 1.63364,2.91916 6.56465,-4.99048 7.36699,-11.81709 l 0.66453,-5.65415 -3.96593,0 c -3.94652,0 -3.97167,0.0249 -5.13768,5.07629 -0.64446,2.79196 -1.18606,6.27946 -1.20355,7.75 -0.0175,1.47054 -0.6925,3.54722 -1.5,4.61484 -2.34052,3.09444 -1.69722,4.11974 0.68482,1.09147 1.90551,-2.42247 2.26083,-2.54448 3.09082,-1.06136 z m -69.24384,0.15121 c 0,-0.75766 -0.67005,-1.93365 -1.48899,-2.61331 -0.81894,-0.67967 -1.26572,-1.597 -0.99285,-2.03853 0.27288,-0.44153 0.0303,-2.02795 -0.53898,-3.52538 -1.39241,-3.66229 -0.47543,-4.26006 2.39635,-1.56216 l 2.36765,2.22429 -0.51658,-2.70231 c -0.3577,-1.87118 -0.16442,-2.48466 0.62841,-1.99466 0.62974,0.38921 1.14499,1.27008 1.14499,1.9575 0,0.68742 0.69982,2.12336 1.55517,3.19098 1.52854,1.9079 1.53872,1.90676 0.59453,-0.0665 -0.7253,-1.5158 -0.48186,-2.59889 0.9937,-4.42113 l 1.95433,-2.41351 0.56777,2.17113 c 0.31227,1.19413 0.96528,2.17114 1.45113,2.17114 1.30141,0 1.07781,-1.36067 -0.58483,-3.55887 -1.99346,-2.63559 -1.90935,-2.9193 0.91367,-3.0819 1.76166,-0.10147 2.52928,0.43507 2.74929,1.92167 0.16788,1.13434 0.79158,2.2223 1.386,2.41769 0.67547,0.22203 0.91416,-0.77987 0.6365,-2.67167 l -0.44426,-3.02692 -9.1365,-0.12895 c -5.02508,-0.0709 -10.38294,-0.20445 -11.90636,-0.29674 -4.4665,-0.27058 -4.90026,0.52236 -3.55515,6.49903 0.86535,3.84494 2.2566,6.4955 4.77317,9.09371 3.87187,3.99746 5.05184,4.57097 5.05184,2.4554 z m 63,-3.62245 c 1.1749,-1.65 1.75257,-3 1.2837,-3 -0.46887,0 -1.64995,1.35 -2.62463,3 -0.97468,1.65 -1.55234,3 -1.2837,3 0.26864,0 1.44973,-1.35 2.62463,-3 z m 1.75,-5.00901 c 0.6875,0.005 1.25,-0.60974 1.25,-1.36599 0,-0.75625 0.28125,-2.78125 0.625,-4.5 l 0.625,-3.125 -10.46448,0 c -10.1917,0 -10.49418,0.0652 -11.60357,2.5 -0.62649,1.375 -0.72904,2.5 -0.2279,2.5 0.50115,0 1.19682,-0.9 1.54595,-2 0.34913,-1.1 1.05445,-2 1.56739,-2 1.24003,0 1.19365,1.72064 -0.0674,2.5 -0.55,0.33992 -0.99776,1.37898 -0.99503,2.30902 0.004,1.2354 0.66748,0.88273 2.46403,-1.30902 1.73618,-2.11809 2.46965,-2.52155 2.49504,-1.37244 0.0198,0.89515 -0.64991,2.19678 -1.48821,2.8925 -0.83829,0.69572 -1.29954,1.48956 -1.025,1.7641 0.27454,0.27454 1.39544,-0.57708 2.4909,-1.8925 1.60585,-1.92829 1.99818,-2.06405 2.025,-0.70068 0.0183,0.93004 -0.41672,1.9691 -0.96672,2.30902 -0.55,0.33992 -1,1.10216 -1,1.69388 0,0.59171 0.9513,-0.13355 2.114,-1.61168 2.51855,-3.20182 3.78946,-2.71016 1.488,0.57564 -0.8811,1.25794 -1.60032,2.74954 -1.59826,3.31467 0.002,0.56512 0.89544,-0.43501 1.9853,-2.22251 1.08986,-1.7875 2.39003,-3.25 2.88927,-3.25 1.76584,0 2.14666,3.31294 0.64438,5.60572 -2.46832,3.76713 -1.69143,4.16062 1.25421,0.63527 1.49771,-1.79246 3.2856,-3.25496 3.9731,-3.25 z m -75.33123,1.25901 c -2.33254,-10.35708 -2.2703,-10.25 -5.95731,-10.25 -3.97831,0 -4.14446,0.63923 -1.88766,7.26256 1.26753,3.72001 2.09458,4.69852 4.25,5.02831 1.47191,0.2252 3.02227,0.47689 3.44525,0.5593 0.42298,0.0824 0.49035,-1.08767 0.14972,-2.60017 z m -29.4228,1 c -0.002,-0.4125 -0.8084,-3 -1.79151,-5.75 -1.46286,-4.09195 -2.26481,-5.05606 -4.41576,-5.30868 l -2.62829,-0.30869 1.42846,4.80869 c 0.78565,2.64477 1.63543,5.37118 1.88841,6.05868 0.48678,1.32291 5.52557,1.77943 5.51869,0.5 z m 15.26184,-2.91436 c -0.13321,-1.74041 -0.68457,-4.3279 -1.22525,-5.75 -0.83623,-2.19946 -1.59424,-2.58564 -5.0752,-2.58564 -4.5656,0 -4.61457,0.33189 -1.22485,8.30034 1.43023,3.36214 1.97125,3.76571 4.69206,3.5 2.78357,-0.27184 3.05245,-0.60064 2.83324,-3.4647 z m 52.72688,-2.58564 c 0.008,-0.4125 -0.43469,-0.75 -0.98469,-0.75 -0.55,0 -0.99311,1.0125 -0.98469,2.25 0.0124,1.81944 0.20082,1.96296 0.98469,0.75 0.53316,-0.825 0.97627,-1.8375 0.98469,-2.25 z m 60.77739,2 c 0.55384,-0.6875 1.31969,-2.7125 1.7019,-4.5 0.66149,-3.09361 0.5519,-3.25 -2.27754,-3.25 -3.23293,0 -4.18644,1.3852 -4.18644,6.08179 0,2.18811 0.46974,2.91821 1.87756,2.91821 1.03265,0 2.33069,-0.5625 2.88452,-1.25 z m -157.0998,-3 c -0.27741,-0.6875 -0.50439,-0.125 -0.50439,1.25 0,1.375 0.22698,1.9375 0.50439,1.25 0.27741,-0.6875 0.27741,-1.8125 0,-2.5 z m 174.70743,1 c 1.29231,-4.82221 0.82527,-5.75 -2.89446,-5.75 -2.86346,0 -3.70772,0.48125 -4.5,2.5651 -1.74113,4.57952 -1.28343,5.4349 2.90812,5.4349 3.18187,0 3.99229,-0.40644 4.48634,-2.25 z m -88.78891,-5.50253 c -1.08935,-1.08936 -1.50282,0.33508 -0.81164,2.7962 l 0.68983,2.45633 0.35131,-2.33586 c 0.19322,-1.28473 0.09,-2.59723 -0.2295,-2.91667 z m 3.76854,2.28455 c 0.30982,-0.80738 0.13296,-1.73394 -0.39301,-2.05901 -0.52598,-0.32508 -0.95633,0.33551 -0.95633,1.46797 0,2.41457 0.55611,2.65816 1.34934,0.59104 z m 22.06721,-0.17515 c 0.9187,-2.39409 0.20261,-2.57794 -1.21288,-0.31139 -0.67134,1.07499 -0.81495,1.95452 -0.31913,1.95452 0.49581,0 1.18522,-0.73941 1.53201,-1.64313 z m -18.41655,-0.85687 c 0,-0.825 -0.45,-1.5 -1,-1.5 -0.55,0 -1,0.675 -1,1.5 0,0.825 0.45,1.5 1,1.5 0.55,0 1,-0.675 1,-1.5 z m 3.45729,0.5691 c 0.31644,-0.512 0.11799,-1.21356 -0.44098,-1.55902 -0.55897,-0.34546 -1.01631,0.0734 -1.01631,0.9309 0,1.75653 0.60006,2.01516 1.45729,0.62812 z m 4.31354,-0.8816 c 0.21771,-0.65312 -0.31666,-1.1875 -1.1875,-1.1875 -0.87083,0 -1.58333,0.7125 -1.58333,1.58333 0,1.76593 2.15276,1.45839 2.77083,-0.39583 z m 4.22917,-0.24652 c 0,-0.51754 -0.45,-0.94098 -1,-0.94098 -0.55,0 -1,0.70156 -1,1.55902 0,0.85746 0.45,1.2809 1,0.94098 0.55,-0.33992 1,-1.04148 1,-1.55902 z m 3,0.55902 c 0,-1.92067 -0.6246,-1.92067 -1.36163,0 -0.31658,0.825 -0.13972,1.5 0.39301,1.5 0.53274,0 0.96862,-0.675 0.96862,-1.5 z"
       id="path4149"
       inkscape:connector-curvature="0" />
  </g>
</svg>
