<?xml version="1.0" encoding="UTF-8" standalone="no"?>
<!-- Created with Inkscape (http://www.inkscape.org/) -->

<svg
   xmlns:dc="http://purl.org/dc/elements/1.1/"
   xmlns:cc="http://creativecommons.org/ns#"
   xmlns:rdf="http://www.w3.org/1999/02/22-rdf-syntax-ns#"
   xmlns:svg="http://www.w3.org/2000/svg"
   xmlns="http://www.w3.org/2000/svg"
   xmlns:sodipodi="http://sodipodi.sourceforge.net/DTD/sodipodi-0.dtd"
   xmlns:inkscape="http://www.inkscape.org/namespaces/inkscape"
   width="55.033337mm"
   height="54.412914mm"
   viewBox="0 0 195.00001 192.80167"
   id="svg2"
   version="1.1"
   inkscape:version="0.91 r13725"
   sodipodi:docname="crocodile.svg">
  <defs
     id="defs4" />
  <sodipodi:namedview
     id="base"
     pagecolor="#ffffff"
     bordercolor="#666666"
     borderopacity="1.0"
     inkscape:pageopacity="0.0"
     inkscape:pageshadow="2"
     inkscape:zoom="1.4"
     inkscape:cx="-56.300074"
     inkscape:cy="49.641342"
     inkscape:document-units="px"
     inkscape:current-layer="layer1"
     showgrid="false"
     inkscape:window-width="1366"
     inkscape:window-height="744"
     inkscape:window-x="0"
     inkscape:window-y="24"
     inkscape:window-maximized="1"
     fit-margin-top="0"
     fit-margin-left="0"
     fit-margin-right="0"
     fit-margin-bottom="0" />
  <metadata
     id="metadata7">
    <rdf:RDF>
      <cc:Work
         rdf:about="">
        <dc:format>image/svg+xml</dc:format>
        <dc:type
           rdf:resource="http://purl.org/dc/dcmitype/StillImage" />
        <dc:title></dc:title>
      </cc:Work>
    </rdf:RDF>
  </metadata>
  <g
     inkscape:label="Layer 1"
     inkscape:groupmode="layer"
     id="layer1"
     transform="translate(-299.81956,-386.0064)">
    <path
       style="fill:#000000"
       d="m 300.85843,511.90725 c -0.38783,-36.79546 -0.78023,-80.11161 -0.87201,-96.2581 l -0.16687,-29.35726 96.50001,-0.14274 96.50001,-0.14275 0.12662,55.00001 c 0.0696,30.25 -0.0742,53.9875 -0.31955,52.75 -0.61615,-3.10716 -3.30707,-2.90374 -3.30707,0.25 0,1.92569 0.51688,2.50018 2.25,2.50079 2.23427,7.8e-4 2.24899,0.0999 2.1056,14.17586 -0.11272,11.06604 -0.44172,14.22498 -1.5,14.40259 -0.74558,0.12514 -2.071,0.51648 -2.94539,0.86965 -1.97533,0.79786 -4.34811,-1.86536 -3.53945,-3.9727 0.32699,-0.85211 1.94949,-2.32034 3.60556,-3.26274 2.60477,-1.48226 3.01189,-2.28689 3.01736,-5.96345 0.004,-3.02423 -0.40667,-4.25 -1.42559,-4.25 -0.78754,0 -2.35714,-1.29938 -3.48799,-2.88752 -1.79734,-2.52412 -1.8695,-3.04237 -0.57342,-4.11802 0.81546,-0.67678 2.38506,-0.99453 3.48799,-0.7061 2.55765,0.66884 2.5851,-0.63745 0.0508,-2.41639 -1.075,-0.75458 -2.24595,-2.59818 -2.60211,-4.09688 -0.54121,-2.27739 -0.2202,-2.91964 1.95455,-3.91052 3.55308,-1.61889 3.55334,-5.55242 4.5e-4,-6.90322 -1.77792,-0.67596 -2.41116,-1.48557 -2,-2.55704 0.3309,-0.86234 0.60164,-1.75608 0.60164,-1.9861 0,-0.23001 0.9,-0.41821 2,-0.41821 1.1,0 2,-0.45 2,-1 0,-0.55 -0.7875,-1.00168 -1.75,-1.00374 -0.9625,-0.002 -3.2125,-0.89544 -5,-1.9853 -2.6574,-1.62025 -3.25,-2.61167 -3.25,-5.43725 0,-3.92087 0.78666,-4.67298 5.01334,-4.79315 3.31026,-0.0941 3.74466,-0.90659 1.48666,-2.78056 -1.76459,-1.46448 -1.95316,-4.14685 -0.40066,-5.69934 1.5977,-1.59771 0.36532,-4.45797 -3.56007,-8.2626 -2.98153,-2.88981 -4.15972,-3.35326 -8.74259,-3.43899 l -5.29668,-0.0991 0.25381,-3.25 c 0.28455,-3.64375 -1.12926,-4.28551 -2.75381,-1.25 -1.27442,2.38127 -6.15957,2.71757 -7.96017,0.54798 -0.66279,-0.7986 -0.91256,-2.3736 -0.55506,-3.5 0.45119,-1.42157 0.20626,-2.04798 -0.80075,-2.04798 -0.79792,0 -1.68611,0.9 -1.97377,2 -0.39857,1.52413 -1.36401,2 -4.05761,2 -1.94403,0 -3.81636,-0.45589 -4.16073,-1.01309 -0.36687,-0.59361 -2.86678,0.54506 -6.03752,2.75 -4.04319,2.81164 -5.26951,4.21768 -4.85027,5.56107 0.30861,0.9889 0.0188,2.4514 -0.64396,3.25 -1.62927,1.96316 -6.96017,1.9264 -6.96017,-0.048 0,-2.50423 -4.58033,-1.78945 -6.40804,1 -1.50186,2.29213 -2.25051,2.5 -9.00372,2.5 l -7.36566,0 -0.6566,-3.5 c -0.74996,-3.99762 -2.65116,-4.51039 -4.78844,-1.29148 -1.23312,1.85717 -2.60476,2.27284 -8.62197,2.61284 l -7.15557,0.40433 0,-3.11285 c 0,-3.37602 -2.32713,-4.29541 -4.38976,-1.73427 -1.68212,2.08866 -8.30235,2.78646 -10.03145,1.05736 -1.81919,-1.81919 -3.57879,-1.84789 -3.57879,-0.0584 0,0.75766 -0.675,1.93776 -1.5,2.62245 -0.825,0.68469 -1.5,2.25342 -1.5,3.48608 0,2.86418 -4.62935,7.53338 -7.38637,7.44996 -1.73801,-0.0526 -1.54628,-0.34656 1.07893,-1.65422 1.75591,-0.87465 3.74799,-2.93121 4.42686,-4.57014 1.05818,-2.55466 0.99503,-3.15483 -0.44256,-4.20602 -0.92228,-0.67438 -1.67686,-1.73904 -1.67686,-2.36591 0,-0.6474 -1.61995,-1.14701 -3.75,-1.15656 -2.0625,-0.009 -7.70663,-0.82571 -12.5425,-1.81438 -7.5168,-1.53677 -9.07652,-1.59865 -10.75001,-0.42649 -3.23051,2.26273 -2.40742,3.8928 1.7925,3.54995 4.13865,-0.33785 3.94974,-0.20787 -5.13643,3.534 -4.34721,1.79028 -8.61357,4.86078 -8.61357,6.19919 0,0.48417 2.27559,0.6108 5.05686,0.2814 4.23839,-0.50198 5.54353,-0.23909 8.06381,1.62423 2.40103,1.77516 3.78186,2.09222 6.85246,1.57345 5.97615,-1.00967 13.02688,3.84004 13.02688,8.96028 0,2.00227 0.89434,1.93778 6.14079,-0.44286 5.58507,-2.53429 9.4311,-2.52101 17.14075,0.0592 5.9099,1.97784 11.27343,5.3182 35.88304,22.34762 10.91574,7.5535 16.30503,9.79177 28.18197,11.70449 8.55958,1.37848 11.37636,3.12399 12.64517,7.836 0.58586,2.17572 0.77467,5.11343 0.41958,6.52823 -0.71009,2.82922 -4.95431,5.50256 -8.7359,5.50256 -1.33318,0 -4.3371,0.675 -6.6754,1.5 -2.3383,0.825 -5.20738,1.50387 -6.37573,1.50861 -5.10009,0.0207 -43.01025,20.69275 -59.62427,32.51261 -12.46264,8.86641 -17.34283,11.42723 -21.83334,11.45682 -4.44602,0.0293 -3.69126,2.40408 0.91035,2.86432 5.2602,0.52612 13.27066,-1.60694 26.42299,-7.03604 32.98476,-13.61566 31.5,-12.89441 31.5,-15.3018 0,-2.59125 1.61618,-4.21536 4.5,-4.5221 3.47761,-0.36989 4.5,-0.0251 4.5,1.51758 0,0.825 0.31577,1.5 0.70171,1.5 1.21917,0 18.77499,-4.32492 19.29672,-4.7538 0.27413,-0.22535 -0.35514,-1.03386 -1.39839,-1.79671 -1.56879,-1.14712 -1.67704,-1.65179 -0.62598,-2.91823 0.69896,-0.84219 1.90485,-1.53126 2.67977,-1.53126 0.77492,0 1.66796,-0.675 1.98454,-1.5 0.72727,-1.89522 3.2507,-1.95266 3.96538,-0.0903 0.29753,0.77536 -0.1199,2.68786 -0.92763,4.25 l -1.46858,2.84026 15.1791,0 c 11.90698,0 16.03428,0.35897 19.14623,1.66522 2.18193,0.91587 4.86714,1.99801 5.96714,2.40476 1.96973,0.72834 1.97032,0.74649 0.0393,1.19869 -1.07841,0.25253 -3.4436,-0.33942 -5.25597,-1.31545 -1.81238,-0.97603 -3.58979,-1.48005 -3.94979,-1.12004 -2.01298,2.01298 10.53909,9.11055 14.9909,8.47662 2.10217,-0.29934 2.17638,-0.73816 2.19839,-12.99924 0.0125,-6.9792 0.32066,-12.98733 0.68474,-13.35141 0.36408,-0.36409 0.7397,9.17116 0.83471,21.18944 0.095,12.01828 0.23688,23.10534 0.31526,24.63791 l 0.14246,2.78654 -96.628,0.61434 -96.62799,0.61434 -0.70515,-66.90085 z m 145.22673,64.5534 c 24.34609,-0.0159 44.93359,-0.2853 45.75001,-0.59859 1.1566,-0.44383 1.4844,-2.50887 1.4844,-9.35134 l 0,-8.78172 -3.67512,-0.68945 c -6.41011,-1.20255 -11.0277,-3.55916 -14.65445,-7.47898 -3.28348,-3.54881 -4.01409,-3.85058 -10.84554,-4.47966 -10.08918,-0.92907 -23.10423,0.7578 -37.3249,4.83766 -11.14167,3.19651 -20.43343,6.74736 -46,17.57895 -5.5,2.33014 -12.25,4.85504 -15,5.61089 -6.47042,1.77842 -14.98042,1.77466 -18.34571,-0.008 -1.45986,-0.77336 -4.76581,-2.15065 -7.34654,-3.06065 -2.58074,-0.90999 -5.78415,-2.51342 -7.11868,-3.56316 -2.26918,-1.78494 -2.39417,-2.38047 -1.92855,-9.18935 0.55089,-8.05586 0.92633,-9.09166 2.36417,-6.52239 1.63699,2.92504 2.8753,1.95245 2.8753,-2.25844 0,-4.41386 0.48144,-4.77927 3.13402,-2.37872 2.73409,2.47432 4.64748,1.01862 5.41841,-4.12232 l 0.69244,-4.61754 2.19202,2.05929 c 3.44367,3.23516 6.40796,2.67489 8.17087,-1.54436 1.40561,-3.36408 1.6235,-3.49704 3.27771,-2 3.39868,3.07576 7.232,1.0155 8.64503,-4.64635 0.81763,-3.27615 1.46355,-3.40577 3.73748,-0.75 2.14409,2.50412 3.37913,2.5279 4.68376,0.0902 0.65942,-1.23215 1.7116,-1.72951 2.96528,-1.40166 1.24996,0.32687 2.39008,-0.20742 3.19585,-1.49767 0.96331,-1.54249 1.98183,-1.8875 4.4093,-1.49357 2.82136,0.45784 3.39664,0.10548 5.41621,-3.31743 2.0418,-3.46059 2.38112,-3.66344 3.52084,-2.10478 1.68426,2.30337 4.10865,2.17995 5.84393,-0.2975 0.91222,-1.30238 2.01758,-1.79176 3.10474,-1.37457 1.06065,0.407 2.19755,-0.0487 3.0584,-1.22603 0.75361,-1.03062 1.70309,-1.54097 2.10995,-1.1341 1.09298,1.09297 3.42377,-1.19804 3.42377,-3.36534 0,-2.2858 0.39678,-2.31891 3.49121,-0.29136 2.82966,1.85406 4.50879,1.16689 4.50879,-1.84522 0,-1.66521 0.26667,-1.87431 1.2,-0.94098 1.89194,1.89194 5.54398,1.40361 7.20159,-0.96297 2.27108,-3.24241 0.61266,-4.59266 -1.84901,-1.50543 l -2.12406,2.66383 -1.7708,-2.99772 c -1.99592,-3.37882 -4.06193,-3.83998 -5.58973,-1.24771 -0.89955,1.52629 -1.15961,1.55825 -2.03438,0.25 -0.55164,-0.825 -1.00988,-2.2324 -1.0183,-3.12756 -0.0204,-2.16507 -2.61075,-4.33605 -3.4853,-2.921 -1.07099,1.7329 -2.53001,1.18422 -2.53001,-0.95144 0,-2.20656 -1.03057,-2.56943 -2.6625,-0.9375 -0.75,0.75 -1.24265,0.16176 -1.675,-2 -0.44136,-2.20679 -1.17832,-3.0625 -2.6375,-3.0625 -1.11375,0 -2.025,-0.45 -2.025,-1 0,-1.82069 3.60447,-1.03716 5.75033,1.25 3.16758,3.37615 4.74753,4.50747 6.84762,4.90324 1.04613,0.19714 2.3511,1.37957 2.89995,2.62761 0.79851,1.81578 1.53756,2.15064 3.69891,1.67592 2.05152,-0.45059 3.01161,-0.0959 3.99265,1.475 1.53641,2.46018 2.44546,2.57617 4.4534,0.56823 2.01403,-2.01403 2.71823,-1.90849 6.06691,0.90924 2.13255,1.79443 3.2971,2.16642 4.56347,1.45772 1.08728,-0.60847 2.37143,-0.59231 3.56192,0.0448 1.09817,0.58772 3.05165,0.65827 4.76326,0.17201 l 2.90159,-0.8243 -2.5,-0.56676 c -1.37501,-0.31172 -4.30001,-0.8075 -6.50001,-1.10172 -11.38133,-1.52215 -19.67661,-5.84414 -40.5,-21.10122 -10.76672,-7.88867 -18.51137,-12.14852 -25.21813,-13.87091 -6.03169,-1.54904 -9.12187,-1.26428 -15.04158,1.38605 -4.73475,2.11981 -6.18496,1.52177 -7.07264,-2.91665 -0.36283,-1.81415 -1.8093,-3.63072 -3.93915,-4.94704 -2.85647,-1.76539 -3.92869,-1.92473 -7.08579,-1.05302 -3.16746,0.87458 -4.22878,0.71271 -7.14528,-1.08979 -2.42181,-1.49676 -4.68093,-2.02633 -7.71136,-1.80767 -4.12217,0.29743 -4.29475,0.4431 -4.51279,3.80926 -0.20779,3.2078 -0.13242,3.31216 0.90281,1.25 1.14494,-2.28069 6.10346,-3.22472 7.24408,-1.37916 0.79233,1.28201 6.54917,2.47226 10.6949,2.21122 2.5174,-0.15852 3.79834,0.24992 4.21862,1.34515 0.33194,0.86503 1.51766,1.57279 2.63492,1.57279 1.58042,0 2.03139,0.65155 2.03139,2.9349 0,1.6142 0.45883,4.14172 1.01963,5.61673 l 1.01963,2.68184 2.67645,-2.67646 c 1.92132,-1.92132 3.5381,-2.60649 5.73037,-2.42846 1.67966,0.1364 4.03683,-0.28672 5.23818,-0.94028 4.0493,-2.20289 6.28646,-1.47207 8.13538,2.65763 1.43691,3.20943 1.9993,3.67089 3.39834,2.7884 2.24472,-1.41593 6.92086,0.25975 8.26859,2.96303 0.56599,1.13527 1.60318,1.87275 2.30487,1.63886 0.70169,-0.2339 1.82317,0.005 2.49218,0.53138 0.66901,0.52616 2.44703,1.25056 3.95115,1.60977 1.89469,0.45249 2.9354,1.49319 3.38789,3.38789 0.35921,1.50412 1.04883,3.24023 1.53248,3.85802 0.99439,1.27018 0.0985,4.37675 -1.26213,4.37675 -0.49115,0 -0.89915,-1.2375 -0.90666,-2.75 -0.0264,-5.32343 -1.07857,-7.44367 -3.40416,-6.85998 -1.49609,0.37549 -2.55432,-0.11575 -3.49535,-1.62258 l -1.34964,-2.16112 -1.8686,2.30763 c -1.78596,2.20555 -1.8686,2.21788 -1.8686,0.27862 0,-3.03163 -1.05025,-5.19257 -2.52366,-5.19257 -0.72032,0 -1.54326,-0.5625 -1.82875,-1.25 -0.52481,-1.26379 -2.67395,0.70125 -5.33879,4.88144 -1.04645,1.64151 -1.19833,1.41862 -1.25,-1.83439 -0.0323,-2.03662 -0.59122,-4.87148 -1.24196,-6.2997 -0.95674,-2.09981 -1.77006,-2.53939 -4.25,-2.29705 -2.30553,0.2253 -3.14617,0.85824 -3.38639,2.5497 -0.39603,2.78847 -1.83226,2.92243 -2.68045,0.25 -1.35109,-4.25689 -6.80459,-1.6314 -8.30855,4 l -0.93473,3.5 -2.1064,-4.5 c -1.15852,-2.475 -2.11628,-5.76782 -2.12836,-7.31739 -0.0184,-2.35845 -0.34775,-2.71399 -2.02196,-2.18261 -1.37012,0.43486 -2.00001,0.1797 -2.00001,-0.81017 0,-0.79472 -0.68344,-2.01215 -1.51875,-2.7054 -1.24329,-1.03184 -1.881,-0.93264 -3.51591,0.54694 -1.92642,1.74338 -2.04419,1.74305 -3.32565,-0.009 -0.96216,-1.31583 -2.04205,-1.63775 -3.91608,-1.1674 -2.03885,0.51172 -2.72232,0.2249 -3.22298,-1.35254 -1.42453,-4.48835 -5.50063,-1.37752 -5.50063,4.19797 0,5.21839 -1.72573,4.77486 -3.13066,-0.80461 -1.15431,-4.5842 -1.17543,-4.60194 -4.7644,-4.00054 -1.98271,0.33224 -4.56403,0.86784 -5.73624,1.19021 -1.44625,0.39773 -2.79431,-0.12553 -4.19402,-1.62794 -1.21077,-1.29961 -2.70537,-1.96745 -3.6187,-1.61698 -1.33953,0.51403 -1.55408,3.48799 -1.54232,21.37848 0.008,11.42976 0.27803,21.76729 0.60117,22.97228 0.53047,1.97814 1.05437,2.13561 5.39486,1.62155 7.41995,-0.87879 11.15794,0.21082 13.74031,4.00525 2.62021,3.85003 2.96855,9.8209 0.705,12.08445 -1.84354,1.84353 -8.92036,3.89668 -11.2803,3.27267 -1.18049,-0.31214 -1.01669,-0.47705 0.55507,-0.55882 3.9095,-0.20339 10.17353,-3.23596 10.80704,-5.23196 0.83104,-2.61839 -0.22929,-6.88213 -2.42888,-9.76685 -2.11991,-2.78022 -9.83456,-3.97828 -14.35793,-2.22973 -2.70181,1.04441 -2.75,1.21243 -2.75,9.58779 l 0,8.52475 2.75,0.14983 2.75,0.14983 -2.831,0.42441 -2.83099,0.42441 0.33099,22.67577 c 0.18205,12.47167 0.73863,23.30876 1.23684,24.08243 0.76781,1.19231 8.31091,1.30532 49.50001,0.7416 26.72679,-0.36578 68.51368,-0.6781 92.85976,-0.69404 z M 330.51054,501.66757 c -2.96476,-0.84892 -3.06187,-2.35731 -0.24437,-3.79546 3.19331,-1.62998 6.22804,-0.59121 5.85585,2.00444 -0.3283,2.28961 -2.00323,2.82419 -5.61148,1.79102 z m 4.80901,-2.16116 c 0,-0.55 -1.09844,-1 -2.44098,-1 -1.34254,0 -2.7191,0.45 -3.05902,1 -0.36057,0.58342 0.65629,1 2.44099,1 1.68246,0 3.05901,-0.45 3.05901,-1 z m -27.60839,-5.42186 c -1.38166,-3.60055 6.37574,-9.84604 9.25822,-7.45379 2.51809,2.08982 1.50253,4.75728 -2.60999,6.85533 -4.69193,2.39364 -5.91703,2.50392 -6.64823,0.59846 z m 8.56553,-3.25555 c 2.11121,-1.89555 0.006,-3.6023 -3.39222,-2.74953 -2.53135,0.63533 -4.87027,4.00711 -3.91179,5.63923 0.49608,0.84475 5.23119,-1.0286 7.30401,-2.8897 z m 43.79287,76.3276 c 1.7875,-0.93585 3.25,-2.19508 3.25,-2.7983 0,-0.71332 -0.43703,-0.76732 -1.25,-0.15445 -5.40893,4.07754 -20.52637,4.32269 -25.80708,0.41849 -1.70508,-1.26062 -3.37549,-2.01669 -3.71201,-1.68017 -0.80574,0.80574 1.53561,3.0559 5.26908,5.06387 3.94636,2.12246 17.56675,1.60247 22.25001,-0.84944 z m 16.2898,-12.56766 c 11.25311,-6.24221 23.8352,-13.29104 27.9602,-15.66407 13.24387,-7.61894 25.22343,-12.72044 36.5,-15.54351 10.63574,-2.66265 11.39115,-3.39321 3,-2.90133 -2.2,0.12896 -5.65311,0.31179 -7.67359,0.40628 -2.02047,0.0945 -4.5309,0.94768 -5.57874,1.89596 -1.04783,0.94828 -2.89634,1.72414 -4.1078,1.72414 -1.21145,0 -2.46166,0.675 -2.77824,1.5 -0.31659,0.825 -1.66659,1.5 -3,1.5 -1.33342,0 -2.70004,0.7183 -3.03693,1.59622 -0.4371,1.13908 -1.40551,1.43763 -3.38141,1.04245 -2.19548,-0.43911 -3.1091,-0.0345 -4.41172,1.95351 -1.18827,1.81352 -2.19261,2.3328 -3.62968,1.87669 -1.42418,-0.45202 -2.57978,0.12321 -4.08065,2.03126 -1.47938,1.88073 -2.7062,2.50172 -4.18063,2.11615 -1.32518,-0.34654 -2.90712,0.22493 -4.3344,1.56578 -1.92971,1.81287 -2.47917,1.91929 -3.88511,0.75247 -1.40278,-1.16421 -1.83187,-1.09324 -2.99325,0.49504 -0.74565,1.01973 -1.51931,2.34482 -1.71925,2.94464 -0.19994,0.59982 -1.52021,0.99485 -2.93393,0.87784 -1.80001,-0.14897 -3.07481,0.55708 -4.25334,2.35574 -1.3037,1.9897 -2.22807,2.43166 -4.10213,1.9613 -1.67334,-0.41998 -2.4192,-0.18663 -2.4192,0.75688 0,1.94934 -3.6614,5.00134 -5.0043,4.17139 -0.66974,-0.41393 -1.36324,0.19209 -1.70193,1.48726 -0.48565,1.85712 -1.05867,2.09448 -3.81022,1.57828 -2.6897,-0.50459 -3.32824,-0.2648 -3.76746,1.41477 -0.71483,2.73349 -2.3288,2.54328 -5.26039,-0.61995 l -2.44879,-2.64229 -0.64441,3.22206 c -0.54032,2.70161 -0.98508,3.12031 -2.75346,2.59211 -1.15997,-0.34648 -2.65852,-0.74435 -3.3301,-0.88416 -0.67158,-0.13982 -1.50308,-0.53623 -1.84777,-0.88092 -0.34469,-0.34469 -1.19115,-0.41011 -1.88102,-0.14538 -0.68987,0.26473 -2.00625,-0.66628 -2.92529,-2.0689 -2.2496,-3.43332 -4.03572,-3.32332 -3.15288,0.19418 0.94385,3.76059 2.35729,5.25827 7.02801,7.44683 2.87641,1.34779 5.69657,1.7853 10.03981,1.55751 5.5771,-0.2925 7.60727,-1.18625 26.5,-11.66623 z m 40.73769,-3.63922 c 2.86576,-2.00726 2.83344,-3.4433 -0.0775,-3.4433 -2.79464,0 -4.73352,1.74908 -4.01487,3.62186 0.67691,1.76399 1.36164,1.73411 4.09236,-0.17856 z m 27.22251,-9.9433 c 1.60778,-1.71141 1.89935,-2.48997 0.92431,-2.4682 -2.17481,0.0486 -5.20854,2.69928 -4.46543,3.90167 0.87814,1.42085 0.84826,1.43295 3.54112,-1.43347 z m 47.00001,-19.607 c 0,-1.04115 -0.3949,-1.89301 -0.87756,-1.89301 -1.41748,0 -3.3493,2.82392 -2.6765,3.91252 0.96427,1.56024 3.55406,0.0887 3.55406,-2.01951 z m 0.5,-16.97634 c 0,-0.77917 -1.04754,-1.56506 -2.32787,-1.74642 -2.09516,-0.2968 -2.21335,-0.11578 -1.18229,1.81076 1.23178,2.30161 3.51016,2.25985 3.51016,-0.0643 z m 0.3075,-34.16667 c -0.29896,-4.13191 -0.40475,-4.25 -3.8075,-4.25 -2.9052,0 -3.55614,0.39638 -3.83036,2.33246 -0.4222,2.98096 2.44161,6.16754 5.54285,6.16754 2.20805,0 2.37762,-0.344 2.09501,-4.25 z m -173.61497,-7.369 c 0.4441,-0.27447 0.80745,-1.57092 0.80745,-2.881 0,-1.31008 0.47376,-2.67476 1.05279,-3.03263 2.1343,-1.31906 0.17895,-2.8766 -5.10544,-4.06675 -2.98482,-0.67224 -5.79679,-0.99367 -6.24883,-0.7143 -1.65714,1.02417 -2.72552,5.65285 -2.08851,9.04837 l 0.65433,3.4879 5.06038,-0.67128 c 2.78321,-0.3692 5.42373,-0.89585 5.86783,-1.17031 z m -13.08782,-5.81008 c 0.34933,-2.14915 1.36868,-4.44392 2.26521,-5.09948 1.17317,-0.85784 1.63006,-2.77272 1.63006,-6.83169 l 0,-5.63975 -4,0 -4,0 0,11.07332 c 0,9.97075 0.17273,11.04006 1.73479,10.73924 1.14859,-0.2212 1.9494,-1.65447 2.36994,-4.24164 z m 186.89529,1.42908 c 0,-1.11111 -0.66667,-2 -1.5,-2 -0.83333,0 -1.5,0.88889 -1.5,2 0,1.11111 0.66667,2 1.5,2 0.83333,0 1.5,-0.88889 1.5,-2 z m -165.94669,-6.69057 c 1.57405,-0.92982 3.3721,-2.92229 3.99567,-4.42771 1.92784,-4.65422 4.33479,-6.16163 8.66926,-5.42933 3.70366,0.62573 3.88981,0.52039 5.1272,-2.90154 0.7062,-1.95297 1.59237,-3.55775 1.96927,-3.56617 0.3769,-0.008 1.32862,-0.42244 2.11494,-0.92005 1.17803,-0.7455 0.93763,-1.54983 -1.36583,-4.56983 -1.53752,-2.0158 -4.20587,-4.52509 -5.92967,-5.57621 -6.18213,-3.76967 -16.75135,-1.76375 -22.30936,4.23409 -4.9223,5.31182 -9.51337,17.70634 -7.60046,20.51899 0.64715,0.95153 3.76057,2.03994 12.12136,4.23746 0.19014,0.05 1.63357,-0.66989 3.20762,-1.5997 z m 165.53681,-35.05265 c -1.06292,-1.06292 -7.59205,1.9953 -7.62339,3.57077 -0.0891,4.48051 -7.48963,8.79613 -12.88196,7.51214 -3.9221,-0.93391 -5.08477,-2.2692 -5.08477,-5.8397 0,-4.81797 -2.11475,-6.0712 -5.02229,-2.97627 -2.89053,3.07683 -9.16161,4.91497 -12.72069,3.72861 -1.87932,-0.62644 -3.57074,-0.36697 -6.13712,0.94145 -1.95542,0.99693 -5.68834,1.80621 -8.33135,1.80621 -2.63371,0 -4.78856,0.45 -4.78856,1 0,0.55 -0.675,1 -1.5,1 -0.825,0 -1.5,0.86 -1.5,1.91111 0,1.05111 -1.38453,3.07611 -3.07673,4.5 -3.75493,3.15957 -8.39996,3.43523 -9.92327,0.5889 -1.75131,-3.27237 -8.49053,-2.75691 -11.91735,0.91151 -3.92337,4.19999 -10.477,5.04418 -16.50502,2.12606 -2.47453,-1.19789 -5.7543,-2.0339 -7.28839,-1.85778 -2.46698,0.28321 -2.80135,0.74614 -2.89402,4.00671 l -0.10478,3.68652 8.13627,-0.0227 c 4.47494,-0.0125 15.92778,0.73749 25.45074,1.66658 20.38922,1.98924 22.93786,1.57685 33.05297,-5.34823 9.74534,-6.67191 11.83837,-7.33493 19.65895,-6.2274 9.42651,1.33496 16.76799,5.2377 24.41064,12.97673 l 6.5,6.58197 0.27311,-17.89355 c 0.15022,-9.84146 0.0679,-18.09881 -0.18299,-18.34967 z m -70.34013,33.80292 c 0.4125,-0.0328 0.75,-0.67202 0.75,-1.42041 0,-1.22803 -6.396,-2.60153 -12.25,-2.6306 -1.61872,-0.008 -2.48871,2.91926 -1.23901,4.16897 0.40161,0.4016 6.97676,0.34072 12.73901,-0.11796 z m -22.5,-2.61326 c 2.91071,-0.89341 0.85939,-2.2648 -4.36382,-2.9174 -5.92501,-0.74028 -8.10594,0.15291 -7.05575,2.88965 0.46937,1.22316 1.61297,1.43185 5.38278,0.98228 2.63273,-0.31397 5.34929,-0.74351 6.03679,-0.95453 z m 37.06184,-0.70793 c 0.2311,-1.2 -0.30742,-1.73851 -1.73852,-1.73851 -1.43109,0 -2.07332,0.64222 -2.07332,2.07332 0,2.56264 3.30983,2.27193 3.81184,-0.33481 z m -69.35455,0.33058 c 0.31643,-0.51199 0.0964,-1.22687 -0.48887,-1.58861 -1.47997,-0.91467 -4.23207,0.28391 -3.47279,1.51245 0.7816,1.26465 3.19842,1.31111 3.96166,0.0762 z m 13.54271,-2.06909 c 0,-0.55 -1.54844,-1 -3.44099,-1 -1.89254,0 -3.71909,0.45 -4.05901,1 -0.37325,0.60393 0.98961,1 3.44098,1 2.23246,0 4.05902,-0.45 4.05902,-1 z m -25.87112,-4.50061 c 0.16358,-1.65033 -0.0501,-3.56283 -0.47475,-4.25 -1.21881,-1.97207 -5.3812,-1.45873 -7.61518,0.93917 -2.70583,2.90437 -2.61315,5.65081 0.21104,6.25345 7.25268,1.54762 7.44078,1.47737 7.87889,-2.94262 z m 14.72492,2.79786 4.35379,-0.59756 -0.59425,-3.59985 c -1.50981,-9.14615 -2.06985,-10.06864 -6.11334,-10.06979 -5.38588,-0.002 -10.5,6.24848 -10.5,12.83215 l 0,3.39341 4.25,-0.6804 c 2.3375,-0.37423 6.20921,-0.94931 8.6038,-1.27796 z m 107.64621,-1.24567 c 1.87495,-0.75733 1.82779,-0.88814 -0.75423,-2.09215 -3.04302,-1.41898 -4.30636,-0.86269 -3.40069,1.49744 0.654,1.70431 1.21061,1.78398 4.15492,0.59471 z m -9.83583,-3.6188 c 0.83522,-2.17656 -0.77069,-3.4792 -3.43142,-2.7834 -2.41333,0.6311 -3.00997,2.87033 -0.98275,3.68833 2.36703,0.95512 3.81425,0.65843 4.41417,-0.90493 z m -67.76715,-3.55148 c 1.54274,-1.43728 2.09021,-2.80417 1.70222,-4.25 -0.31457,-1.17222 -0.57809,-2.90074 -0.5856,-3.84116 -0.009,-1.11672 -1.36981,-2.11618 -3.92306,-2.88115 -5.94319,-1.78063 -8.77825,-0.60538 -11.36033,4.70931 l -2.21905,4.56748 2.35518,1.90711 c 3.35674,2.71812 11.00984,2.60271 14.03064,-0.21159 z m 55.6441,1.05216 c 0.36253,-0.58659 0.423,-1.30268 0.13438,-1.5913 -0.78526,-0.78526 -4.6755,0.65021 -4.6755,1.72522 0,1.28769 3.73051,1.17768 4.54112,-0.13392 z m -30.57436,-5.87137 c 2.28418,-4.26803 -1.47125,-6.34159 -7.40167,-4.08685 -2.06962,0.78687 -2.5651,1.64193 -2.5651,4.42668 0,2.46927 0.49799,3.56433 1.75,3.84817 2.3453,0.5317 6.94577,-1.81312 8.21677,-4.188 z m -44.86023,2.93791 c 1.19431,0 2.34147,-1.04816 2.97721,-2.72028 0.8507,-2.23753 0.71337,-2.9549 -0.77385,-4.04239 -2.83826,-2.07538 -6.63215,-1.14057 -7.69339,1.89565 -1.17499,3.36168 -0.12372,6.27563 1.9737,5.47077 0.86535,-0.33207 2.4477,-0.60375 3.51633,-0.60375 z m 33.0433,-5.00001 c 0.5752,-1.65 1.67679,-3 2.44799,-3 2.20436,0 1.64016,-3.42779 -0.96741,-5.87747 -2.95782,-2.77874 -6.82818,-2.07116 -9.5103,1.73866 -4.38019,6.22186 -3.02674,10.13881 3.50333,10.13881 2.96825,0 3.63453,-0.44159 4.52639,-3 z m 67.89075,-4.53672 c 3.75622,-3.39933 1.38679,-9.68734 -4.14187,-10.99172 -2.09293,-0.49379 -3.11898,0.002 -5.25029,2.53443 -3.33105,3.95873 -4.27821,7.53024 -2.54942,9.61331 1.71533,2.06684 9.17871,1.34434 11.94158,-1.15602 z m -51.2157,-1.80957 c 0.26238,-2.28482 -0.0262,-2.76257 -1.5,-2.4829 -1.1504,0.2183 -1.94497,1.39199 -2.14978,3.17549 -0.26238,2.28482 0.0262,2.76257 1.5,2.4829 1.1504,-0.2183 1.94497,-1.39199 2.14978,-3.17549 z m 13.88815,-1.21219 c 4.27791,-4.76903 -0.23002,-9.12687 -6.67827,-6.45592 -4.03319,1.6706 -6.64863,8.15535 -3.78477,9.38402 2.54597,1.09229 8.30152,-0.51841 10.46304,-2.9281 z m 14.30699,-0.95187 c 3.49563,-1.80766 5.23132,-4.72506 5.70364,-9.58686 0.40407,-4.15928 -0.75525,-5.45055 -5.72366,-6.37514 -2.76323,-0.51422 -3.97462,-0.20818 -5.75468,1.45382 -4.29828,4.01323 -6.56122,12.30264 -4.04532,14.81853 1.65136,1.65136 6.31129,1.50409 9.82002,-0.31035 z m -76.52003,-1.7393 c 2.2,-0.59956 8.725,-1.17766 14.5,-1.28467 8.76037,-0.16232 11.41124,-0.60506 16,-2.67224 3.025,-1.36272 6.79565,-3.01557 8.37923,-3.673 1.58357,-0.65742 2.60181,-1.47273 2.26275,-1.81179 -0.33906,-0.33907 -3.87692,0.88635 -7.8619,2.72315 -6.51297,3.00203 -8.51079,3.41275 -19.76275,4.0629 -6.88453,0.3978 -14.31733,1.27012 -16.51733,1.93849 -2.52716,0.76776 -7.31389,1.02394 -13,0.69574 -9.38865,-0.54191 -9.88189,-0.29755 -2.44179,1.20975 4.86049,0.98468 12.20471,0.51145 18.44179,-1.18833 z m 90.19993,-4.79173 c 3.93895,-3.45845 6.42874,-3.30357 10.00211,0.6222 1.21112,1.33055 2.92821,2.41918 3.81575,2.41918 1.95672,0 5.70077,-1.88928 6.73731,-3.3997 1.20435,-1.75497 -0.2731,-10.91812 -2.09422,-12.98831 -2.35319,-2.67502 -7.4269,-4.61199 -12.08071,-4.61199 -3.59797,0 -4.28486,0.43718 -7.08776,4.51105 -4.76132,6.92034 -6.36532,11.37506 -5.09762,14.15736 1.35701,2.97833 1.64466,2.94316 5.80514,-0.70979 z m -77.4309,-3.61455 c -0.67703,-0.27393 -2.02703,-0.2906 -3,-0.0371 -0.97297,0.25354 -0.41903,0.47765 1.23097,0.49803 1.65,0.0204 2.44606,-0.18706 1.76903,-0.46098 z m 10.679,-0.29078 c 0.93678,-0.59266 -0.12241,-0.71521 -3,-0.34711 -2.44642,0.31295 -4.63553,0.73208 -4.8647,0.93141 -0.93802,0.81588 6.52828,0.26118 7.8647,-0.5843 z m 25.80197,-1.74261 c -0.9625,-0.25153 -2.5375,-0.25153 -3.5,0 -0.9625,0.25152 -0.175,0.45732 1.75,0.45732 1.925,0 2.7125,-0.2058 1.75,-0.45732 z m -12.96987,-2.68919 c 3.14593,-1.30819 8.38035,-2.69968 11.63205,-3.09222 9.30336,-1.12308 11.26867,-2.58199 2.58782,-1.92101 -5.61505,0.42753 -9.25929,1.40815 -14.5,3.90176 -8.16541,3.88523 -7.997,4.55338 0.28013,1.11147 z m 39.21988,-13.62149 c 4.33419,-2.66644 5.80029,-3.99906 4.40004,-3.99944 -1.76958,-4.7e-4 -8.48555,4.03895 -11.85004,7.12739 -2.34879,2.15606 1.46132,0.55636 7.45,-3.12795 z m -30.68749,151.37206 c -0.7035,-1.8333 3.11504,-5.3134 5.87009,-5.3498 2.55671,-0.0338 3.45631,4.0374 1.24881,5.65156 -2.49933,1.82756 -6.36467,1.66371 -7.1189,-0.30176 z m 5.10569,0.021 c 1.90041,-0.72928 2.12164,-3.39304 0.28179,-3.39304 -1.44095,0 -3.7,1.95378 -3.7,3.2 0,0.95395 1.25115,1.02459 3.41821,0.19301 z m -13.26459,-0.70791 c -0.88487,-1.0662 -0.74273,-1.74698 0.62275,-2.98272 2.36361,-2.13903 5.2437,-0.59368 3.65219,1.95963 -1.45355,2.33198 -2.90114,2.67842 -4.27494,1.02309 z m 2.84638,-1.68513 c 0,-0.55 -0.19844,-1 -0.44098,-1 -0.24254,0 -0.7191,0.45 -1.05902,1 -0.33992,0.55 -0.14148,1 0.44098,1 0.58246,0 1.05902,-0.45 1.05902,-1 z m 31.53372,-1.96275 c -0.97695,-1.07952 -1.5069,-2.66473 -1.17767,-3.52269 1.71485,-4.46883 7.43802,-1.81449 6.25456,2.9008 -0.77362,3.08234 -2.64298,3.31132 -5.07689,0.62189 z m 3.46629,-2.03725 c 0,-1.11111 -0.66667,-2 -1.5,-2 -1.68305,0 -1.75069,0.18315 -0.89301,2.41821 0.85742,2.2344 2.39301,1.96604 2.39301,-0.41821 z m 18.19883,2.14405 c -1.03978,-0.65954 -1.05776,-1.35956 -0.0895,-3.48469 0.66642,-1.46265 1.58945,-2.65936 2.05117,-2.65936 1.70015,0 4.77598,4.00191 4.20981,5.47732 -0.62905,1.63926 -4.05478,2.00936 -6.1715,0.66673 z m 4.80117,-2.20307 c 0,-0.51754 -0.9,-0.94098 -2,-0.94098 -2.20605,0 -2.72337,1.57385 -0.75,2.28172 1.5126,0.54259 2.75,-0.0607 2.75,-1.34074 z m -13.91801,-0.78778 c -0.68002,-1.27064 -0.6286,-2.20659 0.16481,-3 2.74332,-2.74333 6.21857,0.37622 3.74263,3.35953 -1.63845,1.97422 -2.71129,1.8755 -3.90744,-0.35953 z m 2.91801,-1.1532 c 0,-0.55 -0.45,-1 -1,-1 -0.55,0 -1,0.45 -1,1 0,0.55 0.45,1 1,1 0.55,0 1,-0.45 1,-1 z m 16.06148,1.06148 c -2.47377,-2.47377 -2.55839,-3.42172 -0.49005,-5.49005 1.94048,-1.94049 3.48199,-1.98408 5.96468,-0.16869 1.59336,1.1651 1.74931,1.8835 0.92047,4.24029 -1.2487,3.55066 -3.7157,4.09785 -6.3951,1.41845 z m 4.93852,-2.45449 c 0,-2.86244 -2.37596,-4.06385 -4.04933,-2.04755 -0.92966,1.12017 -0.91869,1.77417 0.0493,2.94056 1.89533,2.28374 4,1.81387 4,-0.89301 z m -53.29816,2.76153 c -0.95435,-0.95435 1.1764,-4.36852 2.72634,-4.36852 1.55029,0 2.4851,1.90398 1.84117,3.75 -0.45481,1.30385 -3.47341,1.71262 -4.56751,0.61852 z m 39.95315,-7.19727 c -0.91025,-1.00581 -1.65499,-2.59195 -1.65499,-3.52475 0,-1.77797 4.50588,-4.06993 6.08392,-3.09465 1.22352,0.75619 1.16202,4.12008 -0.1191,6.51388 -1.28954,2.40952 -2.20447,2.43192 -4.30983,0.10552 z m 3.59071,-1.42126 c 0.67884,-1.84595 -0.21988,-3.75 -1.77002,-3.75 -2.03673,0 -2.80683,1.89607 -1.43933,3.5438 1.48254,1.78635 2.60182,1.85826 3.20935,0.2062 z m -12.83379,-6.11895 c -0.75056,-1.95593 0.27206,-3.63105 2.21666,-3.63105 0.98176,0 1.39867,0.7602 1.19098,2.17167 -0.38802,2.63702 -2.59331,3.58147 -3.40764,1.45938 z m 12.08997,-3.70473 c -6.3637,-3.17378 -6.86381,-3.98626 -5.42001,-8.80526 1.15142,-3.84308 1.07507,-4.3251 -1.04201,-6.57863 -1.64973,-1.75606 -2.11181,-3.11962 -1.66306,-4.90759 0.38558,-1.53628 -0.0424,-3.63729 -1.1277,-5.53621 -2.03053,-3.55272 -0.96392,-6.38751 2.60303,-6.91818 1.48445,-0.22085 2.14787,-1.03244 2.14787,-2.62756 0,-1.2694 0.59239,-2.79964 1.31642,-3.40053 1.97637,-1.64024 8.19987,0.41724 10.63809,3.51694 2.17167,2.76083 2.74145,7.78254 1.00481,8.85584 -0.57237,0.35375 -0.7682,1.50166 -0.43518,2.55092 0.43608,1.37396 -0.0538,2.20815 -1.75087,2.98138 -3.35006,1.52639 -2.63423,7.46877 1.31816,10.94256 4.22148,3.7103 4.70267,7.2302 1.34903,9.86817 -3.28594,2.58473 -3.86502,2.58849 -8.93858,0.0582 z m 7.92669,-1.49775 c 3.04175,-3.04175 1.75967,-5.86712 -4.165,-9.17857 -3.22828,-1.80437 -6.0389,-1.53831 -7.22839,0.68426 -2.0192,3.77292 -1.21186,5.75807 3.21482,7.90491 5.19711,2.52047 6.1769,2.59108 8.17857,0.5894 z m -4.42857,-13.38152 c 0,-2.54458 -2.52356,-5.92629 -5.47145,-7.33204 -3.19214,-1.52223 -3.30607,-1.49872 -4.40296,0.9087 -0.9813,2.15372 -0.7859,2.7866 1.52021,4.92383 2.59476,2.40475 8.3542,3.43852 8.3542,1.49951 z m 2.77381,-8.22561 c -0.70622,-2.11866 -3.60311,-3.39214 -4.85915,-2.1361 -0.62722,0.62722 -0.83805,1.6296 -0.46851,2.22753 0.92183,1.49154 5.82726,1.40737 5.32766,-0.0914 z m -6.77381,-3.39516 c 0,-1.63679 -5.9093,-5.60037 -7.17935,-4.81544 -0.45136,0.27896 -0.82065,1.59277 -0.82065,2.91959 0,1.87412 0.72516,2.60913 3.25,3.29417 3.68834,1.00071 4.75,0.68818 4.75,-1.39832 z m 9,-2.46817 c 0,-2.90762 -2.42199,-6.23648 -5.46152,-7.50648 -4.69535,-1.96184 -5.21877,-1.86161 -5.97308,1.14384 -0.50211,2.00053 -0.0748,3.12986 1.86419,4.92686 3.32864,3.08488 9.57041,4.02129 9.57041,1.43578 z m -39.40422,-13.80313 c -0.28724,-0.46476 1.3933,-0.80226 3.73452,-0.75 5.35054,0.11944 9.53781,-2.49553 10.32878,-6.45036 0.325,-1.62504 0.98467,-2.95462 1.46592,-2.95462 2.31734,0 -0.923,7.04468 -4.34179,9.4393 -2.34969,1.64578 -10.29833,2.15427 -11.18743,0.71568 z m 27.90422,-0.34993 c -2.82055,-1.59943 -3.55603,-3.03261 -2.32035,-4.52151 1.37337,-1.65481 3.95611,-1.63598 6.25583,0.0456 1.50634,1.10146 1.61871,1.70106 0.65595,3.5 -1.31746,2.4617 -1.79301,2.56277 -4.59143,0.97589 z m 3.5,-2.74744 c 0,-1.16417 -3.88899,-2.04624 -4.52004,-1.02519 -0.28711,0.46456 0.26533,1.28528 1.22765,1.82383 1.804,1.00957 3.29239,0.64853 3.29239,-0.79864 z m -31.29236,-1.82817 c -5.8936,-6.51235 -1.87044,-18.22944 6.25923,-18.22944 3.47071,0 8.03313,4.92731 8.03313,8.67559 0,8.34341 -9.58773,14.7524 -14.29236,9.55385 z m 9.66766,-2.09165 c 5.05055,-5.5808 2.8077,-14.13779 -3.70561,-14.13779 -4.62416,0 -6.95331,2.82481 -7.07379,8.57916 -0.0723,3.45413 0.38163,4.93046 1.84523,6.001 2.70671,1.97983 6.93142,1.77064 8.93417,-0.44237 z m -5.35055,-2.59155 c -1.06829,-1.99612 -1.10513,-3.0744 -0.17481,-5.11625 1.60017,-3.51199 3.71845,-2.53722 3.37914,1.55499 -0.43479,5.24382 -1.60677,6.54634 -3.20433,3.56126 z m 25.20351,-2.77644 c -2.57104,-1.23908 -4.01602,-5.38205 -2.43023,-6.96784 1.36706,-1.36705 9.66854,-0.14963 11.14976,1.63513 0.81776,0.98534 0.79696,2.02902 -0.0787,3.95098 -1.29976,2.85267 -4.52012,3.36763 -8.64078,1.38173 z m 7.77174,-3.94188 c 0,-1.05522 -4.26534,-2.07627 -6.9379,-1.6608 -3.29775,0.51265 -2.92122,2.153 0.9379,4.08599 3.28502,1.64542 3.57678,1.64904 4.75,0.0589 0.6875,-0.93184 1.25,-2.04966 1.25,-2.48406 z m -86.08982,-2.43614 c -1.13532,-1.36797 -1.04266,-1.82175 0.6203,-3.03774 2.69353,-1.96956 5.90274,-1.32198 6.27198,1.26561 0.2148,1.5053 -0.36487,2.29838 -2,2.73634 -3.23464,0.86637 -3.4001,0.83376 -4.89228,-0.96421 z m 5.53702,-1.30637 c 0.67738,-1.09603 -1.43968,-1.97744 -3.19721,-1.33112 -0.6875,0.25283 -1.25,0.86154 -1.25,1.3527 0,1.17432 3.71926,1.15628 4.44721,-0.0216 z m 18.22813,2.2566 c -1.11545,-1.11546 1.44295,-3.34201 3.84012,-3.34201 2.19846,0 3.96494,2.18626 2.74897,3.40223 -0.80705,0.80705 -5.76715,0.76171 -6.58909,-0.0602 z m 4.32466,-1.34201 c 0,-0.55 -0.19844,-1 -0.44098,-1 -0.24254,0 -0.7191,0.45 -1.05902,1 -0.33992,0.55 -0.14148,1 0.44098,1 0.58246,0 1.05902,-0.45 1.05902,-1 z m 10,0.53518 c 0,-1.59889 3.37129,-3.83056 4.33333,-2.86852 0.96205,0.96205 -1.26963,4.33334 -2.86851,4.33334 -0.80565,0 -1.46482,-0.65917 -1.46482,-1.46482 z m 31.17289,-0.19437 c 0.42145,-2.18841 3.32712,-2.49801 3.32712,-0.35451 0,0.81747 -0.82837,1.64584 -1.84081,1.84082 -1.3364,0.25736 -1.74367,-0.14991 -1.48631,-1.48631 z m -114.55289,-0.14665 c -0.27392,-0.44321 0.0474,-1.90571 0.71415,-3.25 1.49631,-3.01705 6.34913,-3.93308 7.32762,-1.38318 1.11561,2.90723 -6.42387,7.25101 -8.04177,4.63318 z m 5.38,-2.19416 c 0.90739,-1.69548 0.76049,-2 -0.96482,-2 -1.11935,0 -2.03518,0.18819 -2.03518,0.41821 0,0.23002 -0.27315,1.13002 -0.60699,2 -0.90767,2.36534 2.3174,1.99141 3.60699,-0.41821 z m 21.25,-1.08294 c -2.6494,-1.00396 -2.91342,-2.44851 -0.60912,-3.33275 1.88486,-0.72329 5.35912,0.15879 5.35912,1.36063 0,1.74347 -2.55453,2.80407 -4.75,1.97212 z m 2.75,-1.35805 c 0,-1.05547 -1.91911,-1.49891 -2.48992,-0.57533 -0.34546,0.55898 0.0734,1.01632 0.9309,1.01632 0.85746,0 1.55902,-0.19845 1.55902,-0.44099 z m 91.77544,0.88308 c -0.30685,-0.30685 -0.32318,-1.45551 -0.0363,-2.55259 0.42054,-1.60818 1.22299,-1.93605 4.14123,-1.6921 2.87956,0.24073 3.68495,0.76263 3.93917,2.5526 0.28456,2.00358 -0.10788,2.25 -3.58333,2.25 -2.14659,0 -4.15394,-0.25106 -4.46079,-0.55791 z m 6.22457,-1.94209 c 0,-0.825 -0.87344,-1.5 -1.94098,-1.5 -2.326,0 -3.58631,1.62162 -1.81525,2.33564 2.38833,0.96288 3.75623,0.65857 3.75623,-0.83564 z m -15.75,-0.16228 c -1.56497,-0.63148 -1.611,-2.57673 -0.0968,-4.09092 1.40704,-1.40705 4.8468,0.14108 4.8468,2.18139 0,1.05823 -2.46263,2.90078 -3.33179,2.49286 -0.0925,-0.0434 -0.73071,-0.30592 -1.41821,-0.58333 z m 2.75,-2.33772 c 0,-0.55 -0.45,-1 -1,-1 -0.55,0 -1,0.45 -1,1 0,0.55 0.45,1 1,1 0.55,0 1,-0.45 1,-1 z m -23.33334,-0.66667 c -1.31541,-1.31541 -0.62924,-3.87561 1.37401,-5.12666 3.62228,-2.26215 5.51881,1.09099 2.3879,4.2219 -1.70194,1.70193 -2.71991,1.94676 -3.76191,0.90476 z m 3.79063,-2.26424 c 1.00194,-1.62117 -1.17528,-2.11382 -2.46644,-0.55808 -1.00476,1.21067 -0.94351,1.48899 0.32768,1.48899 0.85988,0 1.82233,-0.41891 2.13876,-0.93091 z m 7.79271,0.26863 c -1.63426,-0.65944 -1.59648,-2.80528 0.0738,-4.19149 1.62618,-1.34961 3.6762,0.35331 3.6762,3.05377 0,1.7633 -1.25559,2.14423 -3.75,1.13772 z"
       id="path4829"
       inkscape:connector-curvature="0" />
  </g>
</svg>
