<?xml version="1.0" encoding="UTF-8" standalone="no"?>
<!-- Created with Inkscape (http://www.inkscape.org/) -->

<svg
   xmlns:dc="http://purl.org/dc/elements/1.1/"
   xmlns:cc="http://creativecommons.org/ns#"
   xmlns:rdf="http://www.w3.org/1999/02/22-rdf-syntax-ns#"
   xmlns:svg="http://www.w3.org/2000/svg"
   xmlns="http://www.w3.org/2000/svg"
   xmlns:sodipodi="http://sodipodi.sourceforge.net/DTD/sodipodi-0.dtd"
   xmlns:inkscape="http://www.inkscape.org/namespaces/inkscape"
   width="54.485405mm"
   height="52.958317mm"
   viewBox="0 0 193.05852 187.64758"
   id="svg2"
   version="1.1"
   inkscape:version="0.91 r13725"
   sodipodi:docname="elephant.svg">
  <defs
     id="defs4" />
  <sodipodi:namedview
     id="base"
     pagecolor="#ffffff"
     bordercolor="#666666"
     borderopacity="1.0"
     inkscape:pageopacity="0.0"
     inkscape:pageshadow="2"
     inkscape:zoom="1.4"
     inkscape:cx="-66.514364"
     inkscape:cy="81.462626"
     inkscape:document-units="px"
     inkscape:current-layer="layer1"
     showgrid="false"
     inkscape:window-width="1366"
     inkscape:window-height="744"
     inkscape:window-x="0"
     inkscape:window-y="24"
     inkscape:window-maximized="1"
     fit-margin-top="0"
     fit-margin-left="0"
     fit-margin-right="0"
     fit-margin-bottom="0" />
  <metadata
     id="metadata7">
    <rdf:RDF>
      <cc:Work
         rdf:about="">
        <dc:format>image/svg+xml</dc:format>
        <dc:type
           rdf:resource="http://purl.org/dc/dcmitype/StillImage" />
        <dc:title></dc:title>
      </cc:Work>
    </rdf:RDF>
  </metadata>
  <g
     inkscape:label="Layer 1"
     inkscape:groupmode="layer"
     id="layer1"
     transform="translate(-310.03384,-422.98178)">
    <path
       style="fill:#000000"
       d="m 422.52273,609.8619 c -0.51173,-0.13208 -25.79621,-0.42495 -56.18775,-0.65081 -30.39154,-0.22587 -55.47653,-0.62985 -55.74442,-0.89774 -0.26789,-0.26789 -0.50275,-42.07708 -0.52192,-92.90932 l -0.0348,-92.42225 4.27926,0.0423 c 2.35359,0.0233 45.44879,0.40035 95.76711,0.83798 50.31833,0.43764 91.83083,1.00767 92.25,1.26673 0.41918,0.25907 0.76215,42.10268 0.76215,92.9858 l 0,92.51477 -39.81959,-0.26365 c -21.90078,-0.14501 -40.23828,-0.37172 -40.75,-0.5038 z m 35.00355,-14.63012 c 2.46118,-11.54136 9.45087,-34.11819 15.16248,-48.97514 1.72803,-4.49492 1.73315,-4.95777 0.1051,-9.5 -0.94129,-2.62617 -1.69805,-5.67486 -1.68169,-6.77486 0.0387,-2.60607 6.57339,-11.5 8.4494,-11.5 0.7974,0 2.55234,1.18903 3.89988,2.64229 l 2.45007,2.64229 3.07193,-4.89229 c 1.68955,-2.69076 3.33388,-6.46729 3.65406,-8.39229 0.7741,-4.65414 2.18871,-8 3.38234,-8 0.5557,0 0.4067,1.38892 -0.34865,3.25 -0.72549,1.7875 -1.12365,3.78666 -0.88479,4.44258 0.40219,1.10441 -3.09343,8.18062 -6.31322,12.77993 -1.59083,2.27242 -1.82521,6.13484 -0.4248,7.00034 1.25229,0.77396 3.66606,-3.1031 4.54072,-7.2934 0.51338,-2.4595 1.09777,-3.16528 2.25362,-2.72173 0.89685,0.34415 2.5576,-0.3379 3.90505,-1.60376 l 2.34454,-2.20259 0,-44.35707 c 0,-34.61338 -0.27458,-44.44175 -1.25,-44.74259 -0.6875,-0.21203 -17.52795,-0.63833 -37.42322,-0.94733 l -36.17323,-0.56182 -1.49674,6.22872 c -0.8232,3.42579 -1.95134,7.69122 -2.50697,9.47872 -1.00207,3.22374 -0.98299,3.25 2.36095,3.25 1.85415,0 3.64929,0.45 3.98921,1 0.36387,0.58876 -0.74278,1.0063 -2.69098,1.01531 -4.72021,0.0218 -5.71095,0.99006 -6.43755,6.2912 l -0.64393,4.69798 3.16337,-0.63267 c 7.94982,-1.58997 9.87398,8.77148 2.1302,11.47098 -3.52658,1.22937 -3.77408,2.96375 -1.3245,9.28147 1.35079,3.48383 1.69857,7.77215 1.70622,21.03886 l 0.01,16.66313 3.13424,1.49461 c 5.02256,2.3951 6.11685,6.40395 4.10102,15.02379 -2.40724,10.29353 -2.33546,10.72115 1.60229,9.54499 4.57936,-1.36781 15.69402,-1.34563 17.07371,0.0341 0.86581,0.86581 -0.26105,0.98359 -4.56775,0.47743 -5.6346,-0.66224 -13.76361,0.7544 -16.50596,2.87648 -0.6875,0.532 -1.25,2.02592 -1.25,3.31982 0,2.13622 0.29887,2.28589 3.25,1.62756 1.7875,-0.39875 8.07999,-0.71644 13.98331,-0.70598 9.15357,0.0162 10.99333,0.29308 12.5,1.88107 1.70324,1.79518 1.67691,1.83358 -0.73331,1.06932 -1.375,-0.436 -6.31362,-0.98091 -10.97472,-1.21091 -14.20212,-0.70083 -20.02566,1.0028 -20.02566,5.8582 0,1.69975 0.46801,1.88609 3.36984,1.3417 4.69993,-0.88171 15.39912,-1.24686 19.88016,-0.67848 7.43705,0.94333 3.50116,1.72004 -8.71605,1.72004 -10.31644,0 -12.75127,0.28808 -14.13534,1.67246 -0.91966,0.91985 -1.40162,2.37732 -1.07103,3.23881 0.47621,1.241 1.13903,1.36183 3.19097,0.58168 3.17809,-1.20831 16.48145,-1.11394 16.48145,0.11691 0,0.48958 -3.4875,0.89703 -7.75,0.90545 -4.2625,0.008 -8.425,0.45153 -9.25,0.98469 -1,0.64625 -1.08333,0.97448 -0.25,0.98469 2.18188,0.0267 1.34578,1.8626 -1,2.19576 -3.19893,0.45432 -2.20069,2.37904 1.0543,2.0328 4.3973,-0.46775 21.1957,0.90891 21.1957,1.73702 0,0.42 -5.44658,0.53931 -12.10351,0.26515 -9.65834,-0.39778 -12.28153,-0.21736 -12.98469,0.89305 -1.39575,2.20414 -1.13957,31.26376 0.2882,32.69153 0.82378,0.82378 5.77871,1.2 15.8042,1.2 l 14.60421,0 2.82555,-13.25 z m -2.93396,-61.00353 c -1.12948,-0.67356 -5.80826,-1.2044 -10.74935,-1.21959 -4.81215,-0.0148 -8.74965,-0.32215 -8.75,-0.68304 -0.002,-2.16027 18.22402,-1.90737 19.57066,0.27155 0.3007,0.48653 1.64517,0.88461 2.98771,0.88461 1.34254,0 2.44098,0.45 2.44098,1 0,1.35191 -3.04314,1.21163 -5.5,-0.25353 z m -16.0495,-10.82656 c -0.66743,-1.07992 8.72633,-2.92033 10.32873,-2.02358 0.8143,0.4557 -0.85214,1.14499 -4.26271,1.76317 -3.07982,0.55824 -5.80952,0.67543 -6.06602,0.26041 z m -1.4505,-7.28724 c 0,-0.31972 1.37401,-1.29184 3.05336,-2.16026 2.18051,-1.12759 4.32448,-1.38834 7.5,-0.91214 6.26419,0.93937 5.52736,2.07537 -1.30336,2.00946 -3.1625,-0.0305 -6.5375,0.32695 -7.5,0.79438 -0.9625,0.46743 -1.75,0.58828 -1.75,0.26856 z m 1,-9.52568 c 0,-2.07834 8.33625,-2.98998 9.53942,-1.04321 0.44362,0.71779 -0.47567,0.8512 -2.82646,0.41019 -2.1271,-0.39904 -3.74623,-0.22916 -4.15746,0.43622 -0.81122,1.31259 -2.5555,1.44692 -2.5555,0.1968 z m 0.47523,-9.06691 c 0.35354,-0.57204 1.81625,-1.04008 3.25045,-1.04008 3.13458,0 2.77194,0.47899 -1.05947,1.3994 -1.85868,0.44651 -2.6126,0.32287 -2.19098,-0.35932 z m 2.52477,-6.04008 c 0,-0.55 0.42344,-1 0.94098,-1 0.51754,0 1.2191,0.45 1.55902,1 0.33992,0.55 -0.0835,1 -0.94098,1 -0.85746,0 -1.55902,-0.45 -1.55902,-1 z m 38.5,-19.76743 c -4.46892,-0.89667 -5.82561,-5.90696 -2.5,-9.23257 2.93454,-2.93454 7.74581,-2.652 9.20031,0.54029 2.25121,4.94087 -1.45221,9.7453 -6.70031,8.69228 z m 5.30056,-6.14697 c -0.20968,-1.80383 -0.98086,-2.68222 -2.55056,-2.90515 -2.5912,-0.36801 -2.67755,-0.005 -1.06143,4.4645 0.94393,2.61037 1.46892,3.05427 2.55056,2.15659 0.74909,-0.62169 1.22673,-2.29387 1.06143,-3.71594 z m 1.80018,-13.23893 c -1.24811,-1.45769 -2.60127,-1.92682 -4.67838,-1.62197 -2.07391,0.30439 -2.92236,0.0114 -2.92236,-1.00918 0,-1.1163 0.83913,-1.2856 3.75,-0.75657 3.89478,0.70784 8.13979,3.87309 6.52925,4.86847 -0.50737,0.31357 -1.7127,-0.35277 -2.67851,-1.48075 z m -83.61131,138.66606 c 2.04963,-2.46964 0.55856,-4.48561 -2.68087,-3.62459 -3.79557,1.00884 -4.59866,5.11186 -1.00056,5.11186 1.34591,0 3.00255,-0.66927 3.68143,-1.48727 z m -58.98943,-4.3874 c 0,-0.84491 -4.41228,-3.12533 -6.04705,-3.12533 -1.76581,0 -1.03196,4.83536 0.79705,5.25183 1.95669,0.44554 5.25,-0.8884 5.25,-2.1265 z m 34,-11.12533 c 2.39739,-2.39739 2.54206,-4.30524 0.45762,-6.03517 -1.16826,-0.96957 -1.82318,-0.99927 -2.7,-0.12245 -0.63669,0.63669 -1.96762,1.15762 -2.95762,1.15762 -2.09921,0 -2.50241,3.89759 -0.6,5.8 1.72939,1.72939 3.5172,1.4828 5.8,-0.8 z m -46.41261,-16.8586 c -0.24488,-0.39623 -0.66878,-3.93779 -0.94199,-7.87014 -0.61328,-8.82675 -0.0503,-9.41257 9.29105,-9.66751 3.84106,-0.10483 7.31554,-0.52241 7.72108,-0.92794 0.40553,-0.40554 -0.0265,-2.03043 -0.9601,-3.61087 -0.93359,-1.58044 -1.69743,-4.04159 -1.69743,-5.46923 0,-1.42764 -0.14723,-2.59571 -0.32718,-2.59571 -0.80313,0 -18.88295,6.23344 -25.60161,8.82675 -8.11567,3.13254 -7.59683,2.27132 -7.20432,11.95843 0.11847,2.9238 0.34589,3.17131 2.06737,2.25 3.4725,-1.85842 5.57444,-1.11004 11.0218,3.92421 2.95149,2.72766 5.75114,4.72157 6.22145,4.4309 0.47031,-0.29067 0.65476,-0.85267 0.40988,-1.24889 z m 143.83233,-9.80845 c 2.34195,-3.44649 2.55959,-5.33295 0.61527,-5.33295 -0.46584,0 -1.53697,2.025 -2.38029,4.5 -0.84332,2.475 -1.35184,4.5 -1.13005,4.5 0.22179,0 1.52457,-1.65017 2.89507,-3.66705 z m 25.58028,-1.22454 c 0,-3.27938 -0.37952,-3.98685 -2.41244,-4.49708 -3.26605,-0.81972 -10.33092,-8.95412 -13.25531,-15.26197 -3.73052,-8.04667 -4.93555,-8.57286 -8.96304,-3.91374 -4.11158,4.7564 -4.30243,8.09332 -0.82523,14.42905 4.21342,7.67721 12.70588,12.90709 21.20602,13.05925 l 4.25,0.0761 0,-3.89159 z m -82.70575,-8.03931 c 2.08683,-0.65315 5.79933,-3.10876 8.25,-5.4569 3.66557,-3.51224 4.45575,-4.91057 4.45575,-7.88502 0,-2.30962 -0.81408,-4.56208 -2.25372,-6.23576 l -2.25373,-2.62011 -4.82287,5.58631 c -6.06585,7.02605 -12.17764,10.17696 -22.13898,11.41366 -10.81917,1.34321 -18.93417,0.1363 -28.99231,-4.31188 -5.86179,-2.59237 -6.99922,-2.21184 -3.28839,1.10012 4.9859,4.44998 11.1739,7.15928 22.25,9.74175 3.67105,0.85593 24.94837,-0.12847 28.79425,-1.33217 z m -93.83664,-6.16206 c 6.07331,-2.25112 12.94246,-4.78251 15.26478,-5.62531 4.25354,-1.54366 5.54708,-3.3967 5.70077,-8.1666 0.0628,-1.94846 1.39265,-3.39109 4.38322,-4.75485 0.16852,-0.0768 -0.42901,-2.38805 -1.32782,-5.13603 -1.34326,-4.10678 -1.9792,-4.90609 -3.57197,-4.48957 -1.06577,0.2787 -2.1823,0.90241 -2.48119,1.38603 -1.14521,1.85298 -2.48385,0.69746 -5.0433,-4.35337 -2.53696,-5.00645 -2.58092,-5.3558 -1.01684,-8.08104 0.8991,-1.56661 1.63474,-3.21704 1.63474,-3.66762 0,-0.98062 -10.94959,1.82503 -19.98688,5.12131 -7.9779,2.90986 -8.70021,4.79962 -3.61516,9.45814 1.98112,1.81495 3.60204,3.78232 3.60204,4.37193 0,0.58961 1.4276,3.99995 3.17245,7.57853 3.42002,7.01427 3.22791,8.02134 -1.71889,9.0107 -2.73445,0.54689 -3.16561,0.23492 -5.15672,-3.73125 l -2.17277,-4.32804 -0.11881,4 c -0.0653,2.2 -0.20576,6.5878 -0.31203,9.75067 -0.10628,3.16288 0.2377,5.75038 0.76438,5.75 0.52669,-3.7e-4 5.92669,-1.8425 12,-4.09363 z m 4.72315,-12.23292 c -0.516,-0.64576 -2.16442,-3.79118 -3.66316,-6.9898 -2.22616,-4.75109 -2.6039,-6.62315 -2.06352,-10.22669 0.7964,-5.31074 1.98584,-6.26369 4.74999,-3.80559 1.84034,1.63657 10.25704,18.2538 9.56706,18.8884 -0.14912,0.13715 -1.93187,0.93752 -3.96166,1.77859 -2.79478,1.15806 -3.91823,1.24424 -4.62871,0.35509 z m 0.2754,-4.92412 c -0.37325,-1.2375 -1.273,-3.6 -1.99946,-5.25 -0.72645,-1.65 -1.5242,-3.9 -1.77276,-5 -0.37651,-1.66622 -0.4713,-1.59442 -0.56794,0.43025 -0.0638,1.33663 0.86422,4.59913 2.06226,7.25 2.2985,5.08581 3.41751,6.34819 2.2779,2.56975 z m 3.24305,-5.37842 c -0.61248,-1.99563 -1.26014,-3.18879 -1.43925,-2.65148 -0.35192,1.05577 1.41308,6.2799 2.12169,6.2799 0.23713,0 -0.07,-1.63279 -0.68244,-3.62842 z m -4.69921,-7.81256 c 0,-0.24254 -0.45,-0.7191 -1,-1.05902 -0.55,-0.33992 -1,-0.14148 -1,0.44098 0,0.58246 0.45,1.05902 1,1.05902 0.55,0 1,-0.19844 1,-0.44098 z m -8.8835,13.78534 c -2.40098,-4.55116 -2.74545,-3.78541 -0.60337,1.3413 0.83222,1.99178 1.76475,3.36979 2.0723,3.06225 0.30754,-0.30755 -0.35347,-2.28914 -1.46893,-4.40355 z m -5.99443,-3.01936 c -1.17884,-2.02721 -1.46351,-1.37835 -0.49853,1.13634 0.34294,0.8937 0.83419,1.41426 1.09166,1.15679 0.25747,-0.25747 -0.009,-1.28938 -0.59313,-2.29313 z m 41.87793,-1.74916 c 0,-2.26833 4.05973,-6.57584 6.19758,-6.57584 1.77255,0 1.96577,-0.43322 1.417,-3.17708 -0.34948,-1.7474 -0.84569,-3.38737 -1.1027,-3.64438 -0.612,-0.61199 -8.64825,2.46947 -11.08277,4.24964 -1.73543,1.26897 -1.78124,1.71575 -0.5363,5.22966 0.74867,2.11319 1.80506,4.39971 2.34752,5.08115 1.13958,1.43156 2.75967,0.74873 2.75967,-1.16315 z m -39.97994,-4.05167 c -1.6305,-1.96463 -3.02006,-1.9486 -3.02006,0.0349 0,0.85746 0.41891,1.30012 0.9309,0.98369 0.512,-0.31644 1.23206,-0.0881 1.60014,0.50751 0.36808,0.59556 0.9133,0.83878 1.2116,0.54048 0.2983,-0.2983 -0.0269,-1.22824 -0.72258,-2.06653 z m 91.75743,-3.08087 c 3.08003,-2.15734 2.95564,-5.4433 -0.20606,-5.4433 -2.29252,0 -5.57143,2.27842 -5.57143,3.87143 0,0.86603 2.15328,3.12857 2.97749,3.12857 0.31762,0 1.57762,-0.70052 2.8,-1.5567 z m -53.52749,-5.51342 c 7.21776,-3.16434 9.75,-4.74919 9.75,-6.10219 0,-1.00523 -0.675,-1.82769 -1.5,-1.82769 -0.83333,0 -1.5,0.88889 -1.5,2 0,2.4173 -0.77119,2.51705 -3.10825,0.40204 -2.23499,-2.02265 -3.89175,-1.03842 -3.89175,2.31196 0,2.51621 -0.0603,2.5414 -1.96276,0.81971 -2.51935,-2.27999 -5.03724,-1.31282 -5.03724,1.9349 0,3.05876 -1.07151,3.24779 -2.79216,0.49259 -1.53279,-2.45439 -3.20784,-1.70708 -3.20784,1.43115 0,2.61934 0.93514,3.85751 2.44777,3.24095 0.57872,-0.2359 5.43973,-2.35243 10.80223,-4.70342 z m 15.21254,-0.33112 c -0.87253,-5.81845 0.0474,-8.32576 3.33279,-9.08384 1.87761,-0.43324 3.92782,-2.49036 6.70467,-6.72728 4.33609,-6.61601 8.73997,-9.60776 15.47186,-10.51069 6.59097,-0.88404 3.42094,-2.33199 -4.28999,-1.95951 -3.95003,0.19081 -7.92866,-0.0216 -8.84141,-0.47203 -1.0027,-0.49481 -3.06792,-0.23049 -5.21788,0.66782 -6.03519,2.52166 -12.30618,1.97839 -19.83027,-1.71796 -3.68923,-1.8124 -6.72673,-3.78982 -6.75,-4.39426 -0.0565,-1.46898 10.73898,-15.82245 15.90606,-21.1483 2.26636,-2.336 5.8239,-5.11621 7.90563,-6.17823 2.08174,-1.06202 5.64739,-3.42574 7.92368,-5.25271 2.27629,-1.82697 5.17002,-4.08923 6.43051,-5.02723 2.18517,-1.62611 1.29143,-1.70863 -19.20819,-1.7734 -11.825,-0.0374 -29.08493,-0.34472 -38.35539,-0.68302 -13.79073,-0.50326 -17.01336,-0.36264 -17.72417,0.77339 -0.47783,0.76367 -0.85457,12.14828 -0.83721,25.29915 0.0251,19.02133 0.3318,24.49125 1.49985,26.75 1.76032,3.40407 3.852,3.83331 2.87191,0.58934 -0.37388,-1.2375 -1.0792,-2.6775 -1.56738,-3.2 -1.74146,-1.86387 -0.9546,-5.58954 1.36239,-6.45082 3.46781,-1.28906 4.75,-0.24026 4.75,3.88536 0,3.83335 2.05757,6.71595 3.95619,5.54253 1.45503,-0.89926 1.30199,-3.79173 -0.31784,-6.00698 -2.81712,-3.85264 1.27689,-8.70619 5.45679,-6.46917 1.68002,0.89912 1.98049,1.74816 1.51653,4.28518 -0.74768,4.08835 0.50151,6.08014 3.26348,5.20352 2.65663,-0.84318 2.69323,-2.54732 0.12485,-5.81249 -1.1,-1.39842 -2,-3.20401 -2,-4.01241 0,-2.16729 2.56308,-3.91458 5.19496,-3.54148 1.83664,0.26036 2.36314,1.03798 2.59096,3.82676 0.48082,5.88572 2.16488,9 4.86679,9 1.32553,0 2.66908,0.675 2.98566,1.5 0.31659,0.825 1.66371,1.5 2.99362,1.5 1.87676,0 2.54988,0.65935 3.00713,2.94561 0.45447,2.27236 1.30586,3.11586 3.725,3.6905 1.72473,0.40969 3.48737,0.6545 3.91697,0.54402 0.89035,-0.22895 4.71891,8.23653 4.71891,10.43416 0,0.79666 -0.64659,1.6966 -1.43686,1.99985 -1.66868,0.64034 -1.01252,3.29861 1.26773,5.13586 2.67569,2.15588 3.31307,1.39266 2.63167,-3.15124 z m -28.96962,-2.58731 c 0.35034,-0.56686 -0.0511,-0.7345 -0.94098,-0.39301 -1.73242,0.66479 -2.04939,1.38156 -0.61096,1.38156 0.51754,0 1.21592,-0.44485 1.55194,-0.98855 z m 5.57382,-1.59186 c 0.77398,-0.93259 2.27336,-1.39657 3.65785,-1.13191 1.56312,0.29881 2.66822,-0.15314 3.31093,-1.35405 0.90449,-1.69005 0.59008,-1.67605 -5.0373,0.22435 -3.30109,1.1148 -5.74959,2.4353 -5.44109,2.93446 0.82777,1.33936 2.03108,1.10866 3.50961,-0.67285 z m -23.22935,-2.41959 c 4.52111,-1.65 9.02123,-3 10.00027,-3 3.1781,0 5.48223,-2.41674 4.68849,-4.91762 -0.48035,-1.51344 -1.26775,-2.09127 -2.37255,-1.74107 -5.16559,1.63738 -13.21534,3.97453 -17.00087,4.93601 -3.08363,0.7832 -4.60967,1.79431 -5.25,3.47851 -1.99018,5.23457 -1.25245,5.32696 9.93466,1.24417 z m 66.16261,0 c 0,-2.10908 -1.45488,-2.69104 -2.5,-1 -0.7292,1.17987 0.21667,3 1.55902,3 0.51754,0 0.94098,-0.9 0.94098,-2 z m -42.5,-1.53892 c 2.75,-0.8345 6.6875,-1.97198 8.75,-2.52772 4.18765,-1.12838 4.83016,-2.41763 1.62282,-3.25637 -2.52543,-0.66041 -14.55121,4.04252 -15.29528,5.98154 -0.28312,0.73781 -0.41639,1.3366 -0.29616,1.33065 0.12024,-0.006 2.46862,-0.6936 5.21862,-1.5281 z m 14.5,-1.46108 c 1.1,-1.1 1.79617,-2 1.54705,-2 -1.27583,0 -5.54705,2.43359 -5.54705,3.16051 0,1.46777 1.93235,0.90714 4,-1.16051 z m -33.25,-6.51607 c 7.73535,-2.4443 11.25,-4.02223 11.25,-5.0508 0,-0.82274 0.6213,-1.73432 1.38067,-2.02571 1.13696,-0.4363 1.04518,-1.41276 -0.51994,-5.53184 -1.04534,-2.75111 -1.64009,-5.42357 -1.32166,-5.9388 0.31843,-0.51523 -0.34759,-0.93678 -1.48005,-0.93678 -2.34061,0 -2.77674,2.49413 -0.64704,3.70031 0.77659,0.43983 1.71673,2.43421 2.0892,4.43195 0.62,3.32535 0.42486,3.75815 -2.30961,5.12228 -1.64275,0.81952 -3.41553,1.21 -3.9395,0.86775 -1.90916,-1.24708 -3.40718,-5.36817 -2.81254,-7.73739 0.42717,-1.70199 0.13325,-2.61161 -0.98218,-3.03964 -2.90696,-1.1155 -3.8896,1.22408 -2.09899,4.99751 2.42087,5.10158 2.12412,7.31932 -1.08721,8.12531 -3.56058,0.89365 -6.52013,-2.46569 -6.07759,-6.89856 0.19856,-1.98891 -0.13362,-3.03432 -0.94356,-2.96952 -3.33119,0.26649 -3.45858,0.43316 -2.02559,2.65 0.79994,1.2375 1.74304,3.72548 2.09578,5.52885 0.59427,3.03816 0.42102,3.32291 -2.36023,3.87916 -3.47424,0.69485 -4.21004,1.52672 -3.34478,3.78155 0.35812,0.93323 1.31337,1.40367 2.25324,1.10966 0.89737,-0.28071 6.69408,-2.11009 12.88158,-4.06529 z m 19.87288,2.38639 c 5.95719,-2.6013 5.55568,-2.24143 4.77387,-4.2788 -0.71629,-1.86661 -4.02218,-1.54479 -10.19782,0.99272 -2.8934,1.18887 -3.16692,1.60705 -2.21482,3.38607 1.34937,2.52132 1.64463,2.51746 7.63877,-0.1 z m 74.58818,-4.41472 c 0.29942,-0.29941 -0.55475,-4.01191 -1.89815,-8.25 -3.09622,-9.76778 -2.7336,-20.81445 1.0651,-32.4465 1.39037,-4.2575 2.82419,-9.32 3.18626,-11.25 l 0.65831,-3.5091 -15.27343,0 c -14.66402,0 -15.45649,0.10495 -19.86129,2.63034 -2.52332,1.44669 -5.93786,3.84898 -7.58786,5.33843 -1.65,1.48944 -5.0776,3.88966 -7.61689,5.3338 -6.75832,3.8436 -21.88311,21.31284 -21.88311,25.27515 0,0.60743 2.1984,2.30094 4.88533,3.76335 5.70122,3.10299 13.44962,3.57132 18.22556,1.10159 2.43886,-1.26119 3.66319,-1.34229 6.43804,-0.42651 2.07182,0.68376 5.60009,0.85926 8.92445,0.44391 5.04075,-0.6298 5.90148,-0.428 10.34985,2.42651 2.66852,1.71238 5.39542,3.11343 6.05977,3.11343 0.66435,0 2.36793,1.16002 3.78574,2.57783 3.53431,3.53431 8.90887,5.51123 10.54232,3.87777 z m -76.24002,-2.41654 c 0.80907,-0.51167 1.18048,-1.22087 0.82536,-1.57599 -0.87435,-0.87435 -4.7964,0.43751 -4.7964,1.60432 0,1.18988 2.0681,1.17513 3.97104,-0.0283 z m 81.94903,-18.18841 c -1.4027,-2.62097 -3.60675,-3.35557 -5.45803,-1.81914 -1.28813,1.06905 -1.30879,1.49358 -0.13927,2.86187 0.75528,0.88364 1.70006,2.50662 2.09952,3.60662 0.70716,1.9473 0.77666,1.93826 2.63749,-0.34286 1.48902,-1.82534 1.67905,-2.77662 0.86029,-4.30649 z"
       id="path4763"
       inkscape:connector-curvature="0" />
  </g>
</svg>
