<?xml version="1.0" encoding="UTF-8" standalone="no"?>
<!-- Created with Inkscape (http://www.inkscape.org/) -->

<svg
   xmlns:dc="http://purl.org/dc/elements/1.1/"
   xmlns:cc="http://creativecommons.org/ns#"
   xmlns:rdf="http://www.w3.org/1999/02/22-rdf-syntax-ns#"
   xmlns:svg="http://www.w3.org/2000/svg"
   xmlns="http://www.w3.org/2000/svg"
   xmlns:sodipodi="http://sodipodi.sourceforge.net/DTD/sodipodi-0.dtd"
   xmlns:inkscape="http://www.inkscape.org/namespaces/inkscape"
   width="54.817017mm"
   height="54.771702mm"
   viewBox="0 0 194.23352 194.07296"
   id="svg2"
   version="1.1"
   inkscape:version="0.91 r13725"
   sodipodi:docname="fishnet.svg">
  <defs
     id="defs4" />
  <sodipodi:namedview
     id="base"
     pagecolor="#ffffff"
     bordercolor="#666666"
     borderopacity="1.0"
     inkscape:pageopacity="0.0"
     inkscape:pageshadow="2"
     inkscape:zoom="1.4"
     inkscape:cx="75.818068"
     inkscape:cy="50.770637"
     inkscape:document-units="px"
     inkscape:current-layer="layer1"
     showgrid="false"
     fit-margin-top="0"
     fit-margin-left="0"
     fit-margin-right="0"
     fit-margin-bottom="0"
     inkscape:window-width="1366"
     inkscape:window-height="744"
     inkscape:window-x="0"
     inkscape:window-y="24"
     inkscape:window-maximized="1" />
  <metadata
     id="metadata7">
    <rdf:RDF>
      <cc:Work
         rdf:about="">
        <dc:format>image/svg+xml</dc:format>
        <dc:type
           rdf:resource="http://purl.org/dc/dcmitype/StillImage" />
        <dc:title></dc:title>
      </cc:Work>
    </rdf:RDF>
  </metadata>
  <g
     inkscape:label="Layer 1"
     inkscape:groupmode="layer"
     id="layer1"
     transform="translate(-513.77752,-248.58695)">
    <path
       style="fill:#000000"
       d="m 567.95574,441.54429 c -31.42732,-0.40605 -19.59598,-0.57886 47,-0.68649 48.95,-0.0791 89.5625,-0.17241 90.25,-0.20734 0.97955,-0.0498 1.24952,-9.31279 1.24777,-42.81351 l -0.002,-42.75 -5.97648,-0.10989 c -3.28706,-0.0604 -6.67193,-0.68706 -7.52193,-1.3925 -2.4779,-2.05647 -2.92608,-0.40601 -1.69189,6.2305 1.49405,8.03388 0.71629,8.81165 -5.9818,5.98179 -2.84829,-1.20337 -5.35517,-2.01149 -5.57083,-1.79583 -0.21567,0.21567 0.53927,2.2178 1.67764,4.44919 2.33212,4.57133 2.64626,8.16024 0.86976,9.93674 -1.4498,1.4498 -9.43179,1.60479 -10.3,0.2 -0.33992,-0.55 -1.24351,-1 -2.00799,-1 -1.16427,0 -1.14458,0.58726 0.12121,3.61673 0.83114,1.98921 1.2723,4.23921 0.98036,5 -0.88276,2.30043 -5.04615,1.56245 -9.53656,-1.69038 -2.33368,-1.69051 -4.39441,-2.92229 -4.57941,-2.73729 -0.18501,0.185 0.11247,2.44086 0.66106,5.01302 1.15284,5.40528 2.64655,6.04364 9.89449,4.22857 5.71539,-1.43128 8.96684,-0.36879 8.96684,2.93014 0,1.33388 0.675,2.68425 1.5,3.00084 1.82256,0.69938 1.96254,3.77449 0.25,5.492 -0.6875,0.6895 -1.25,2.692 -1.25,4.45 0,3.01523 -0.19068,3.1811 -3.36479,2.927 -1.85064,-0.14816 -6.04693,-1.84133 -9.32509,-3.76261 -3.27817,-1.92128 -6.40286,-3.21972 -6.94376,-2.88543 -1.71488,1.05986 0.22044,6.79129 3.43322,10.16741 1.70101,1.7875 2.63563,3.25 2.07692,3.25 -0.5587,0 -2.09905,-1.2375 -3.42298,-2.75 -2.04337,-2.3344 -2.45953,-2.48553 -2.75366,-1 -0.19058,0.9625 -1.06558,1.75 -1.94444,1.75 -0.87887,0 -2.5141,0.7875 -3.63385,1.75 -1.11975,0.9625 -0.59268,-0.11476 1.17126,-2.3939 1.7637,-2.27915 3.20693,-5.26906 3.20693,-6.64425 0,-3.75341 -5.10457,-8.71185 -8.9686,-8.71185 -2.82509,0 -3.08951,0.24155 -2.45454,2.24216 0.61579,1.94018 0.50328,2.06924 -0.83537,0.95826 -1.25999,-1.0457 -1.65241,-1.04424 -2.11515,0.008 -0.31248,0.71046 -0.46874,0.39174 -0.34724,-0.70826 0.1554,-1.40697 -0.37213,-2 -1.7791,-2 -1.60913,0 -1.95288,0.5863 -1.7589,3 0.23641,2.94159 0.2209,2.95204 -0.79671,0.53662 -1.33884,-3.17791 -1.36396,-3.19658 -3.30126,-2.45317 -0.90372,0.34679 -1.65744,1.36988 -1.67493,2.27354 -0.0175,0.90365 -0.73628,2.54301 -1.59731,3.64301 -1.4896,1.90304 -1.53269,1.84244 -0.88874,-1.25 0.37222,-1.7875 0.35311,-3.25 -0.0425,-3.25 -1.16982,0 -3.37353,3.36278 -3.4079,5.20031 -0.0175,0.93517 -0.75303,2.10393 -1.63454,2.59725 -2.41153,1.34956 -1.30465,4.34037 2.60966,7.05134 3.24394,2.24668 2.26556,2.5172 -2.30772,0.63807 -1.55738,-0.63991 -1.71713,-0.35111 -1.18187,2.13655 0.5484,2.54869 0.46235,2.68553 -0.75508,1.20082 -1.27366,-1.55327 -1.46628,-1.5279 -2.63742,0.34738 -1.92226,3.07803 -2.48871,1.43263 -0.69857,-2.02913 1.92641,-3.72526 2.04802,-9.50408 0.23173,-11.01147 -1.95142,-1.61953 -2.38818,-0.67198 -2.1374,4.63701 0.12294,2.60253 0.0388,3.38187 -0.18707,1.73187 -0.77616,-5.67102 -1.2872,-6.1184 -3.37357,-2.95332 -2.58402,3.92005 -2.4781,2.57333 0.23718,-3.01554 2.16984,-4.46618 2.17295,-4.54066 0.25,-5.99495 -2.9,-2.19323 -4.33219,-1.85104 -5.08017,1.21381 -0.36913,1.5125 -1.74405,4.04145 -3.05537,5.61988 -1.31132,1.57843 -3.05443,4.16593 -3.87358,5.75 -0.81911,1.58391 -1.98286,2.87996 -2.58609,2.87996 -0.76273,0 -0.74158,-0.42797 0.0694,-1.4052 0.73149,-0.88139 1.05671,-4.3221 0.87245,-9.23015 l -0.29377,-7.82495 -3.25,4.42715 c -3.01093,4.1015 -3.26462,5.05631 -3.4487,12.98015 l -0.19869,8.553 -0.34512,-7.25 c -0.18981,-3.9875 -0.57198,-7.25 -0.84927,-7.25 -0.86417,0 -5.38099,5.36421 -6.97426,8.2827 -0.83552,1.53048 -1.91888,2.53564 -2.40745,2.23368 -0.48857,-0.30195 -1.17097,-0.0917 -1.51643,0.46731 -0.34546,0.55897 -1.09156,1.01631 -1.65799,1.01631 -0.56643,0 0.0625,-1.29825 1.3977,-2.88501 1.96414,-2.33425 2.46845,-4.14782 2.64172,-9.5 0.11778,-3.63824 -0.17135,-6.61499 -0.64251,-6.61499 -0.47117,0 -2.29494,1.48392 -4.05283,3.29761 -2.45205,2.52986 -3.21343,4.21779 -3.27029,7.25 -0.0408,2.17381 -0.4547,5.97739 -0.91985,8.45239 -0.60896,3.2402 -0.68715,2.13435 -0.27929,-3.95012 l 0.56642,-8.45013 -4.14658,3.28415 c -2.28062,1.80629 -4.14658,3.64386 -4.14658,4.0835 0,0.43963 -0.9,1.03469 -2,1.32235 -1.1,0.28766 -2,0.34014 -2,0.11663 0,-0.71825 3.97353,-4.4063 4.75,-4.40873 0.4125,-0.001 2.29848,-1.32577 4.19106,-2.94329 2.95098,-2.5221 3.53624,-3.76797 4.10927,-8.74766 0.3675,-3.19368 0.49978,-6.00094 0.29395,-6.23835 -0.94389,-1.08867 -7.35331,6.55533 -7.44396,8.87782 l -0.0997,2.55383 -0.66497,-2.37106 -0.66496,-2.37106 -3.23536,3.02227 c -2.06792,1.93173 -3.27804,4.05021 -3.35367,5.87106 l -0.11831,2.84879 -0.70028,-3 c -0.38516,-1.65 -0.39234,-3.45 -0.016,-4 0.37638,-0.55 1.15922,-2.35 1.73965,-4 0.93772,-2.6657 1.06412,-2.73998 1.13427,-0.66659 l 0.079,2.3334 2.72912,-1.98802 c 1.81866,-1.3248 3.13837,-3.60448 3.95586,-6.83341 0.84214,-3.32631 1.13812,-3.82647 0.94407,-1.59538 -0.32213,3.70375 0.0406,3.87758 2.97413,1.42533 3.46667,-2.89794 4.60879,-5.75452 2.87581,-7.19277 -0.81345,-0.6751 -1.47899,-1.90245 -1.47899,-2.72745 0,-2.44696 -2.9846,0.57485 -3.07895,3.11733 -0.0434,1.17016 -0.30685,1.56226 -0.58541,0.87133 -0.27855,-0.69093 -0.96834,-0.97078 -1.53285,-0.62189 -0.56452,0.34889 -1.46034,0.0142 -1.99072,-0.74376 -0.79101,-1.13043 -0.88424,-1.10852 -0.51869,0.12188 0.2451,0.825 -0.1323,2.175 -0.83867,3 -0.70637,0.825 -1.73207,3.075 -2.27933,5 -0.54725,1.925 -1.03559,2.7125 -1.08519,1.75 -0.0496,-0.9625 -0.456,-1.75 -0.9031,-1.75 -1.22061,0 -6.18709,5.43706 -6.18709,6.77333 0,0.64015 -0.56726,0.94622 -1.26059,0.68017 -1.90439,-0.73079 -7.73651,5.08738 -7.7587,7.74013 -0.0106,1.2685 -0.6844,4.55637 -1.49732,7.30637 -1.46916,4.97002 -1.4494,4.35755 0.18912,-5.86328 0.58956,-3.67752 0.51908,-3.80962 -1.46571,-2.7474 -1.43203,0.7664 -2.29683,2.52825 -2.76131,5.62558 -0.37194,2.48033 -1.12255,4.78551 -1.66801,5.12263 -0.61582,0.38059 -0.73153,-0.28742 -0.30527,-1.7623 0.37757,-1.30638 0.9061,-3.16273 1.17452,-4.12523 0.71161,-2.55164 -1.88282,-2.18731 -5.00071,0.70225 -2.19288,2.0323 -2.6434,2.16074 -2.63071,0.75 0.0191,-2.12398 1.94607,-5.4058 1.96938,-3.35405 0.0113,0.99537 0.84359,0.82377 3.18022,-0.65568 2.60929,-1.65209 3.47646,-3.20139 4.93963,-8.82523 0.97609,-3.75175 1.6187,-6.97738 1.42802,-7.16806 -0.19069,-0.19069 -1.72712,0.36714 -3.4143,1.23961 -1.95336,1.01013 -3.40727,2.76224 -4.00274,4.82374 -0.72316,2.50354 -0.95559,2.72738 -1.02533,0.98742 -0.11002,-2.7446 -0.13575,-2.74568 -4.47028,-0.18825 -1.92193,1.13397 -3.93712,3.27147 -4.47821,4.75 -0.70342,1.92211 -1.00631,2.15861 -1.06275,0.82984 -0.0644,-1.51502 -0.58708,-1.73383 -2.82895,-1.18419 -5.39083,1.32166 -5.76704,2.45443 -5.55884,16.73771 0.19232,13.19329 0.79181,15.32426 3.96816,14.10538 0.73737,-0.28296 1.34068,-0.0163 1.34068,0.59252 0,1.26687 -5.62304,1.52594 -6.38433,0.29415 -0.2763,-0.44706 -0.63344,-17.81076 -0.79364,-38.58599 -0.16021,-20.77524 -0.64305,-37.99055 -1.07297,-38.25626 -0.42993,-0.26571 -0.55682,-0.84694 -0.28199,-1.29162 0.27483,-0.44469 0.75319,-18.50961 1.06302,-40.14428 0.30983,-21.63467 0.76731,-39.53974 1.01662,-39.78905 0.24931,-0.24931 0.45329,10.16433 0.45329,23.14142 l 0,23.59471 5.5,0.68718 c 3.025,0.37795 7.8625,0.39755 10.75,0.0436 8.34089,-1.02253 21.78767,-0.81008 27.49843,0.43444 4.68306,1.02056 5.5987,0.93045 8.5,-0.83649 1.78837,-1.08915 6.17657,-3.50388 9.75157,-5.36608 11.30321,-5.88779 27.62579,-15.74773 29.50259,-17.82157 0.99406,-1.09843 2.35754,-1.99714 3.02995,-1.99714 0.67241,0 1.75494,-0.64146 2.40561,-1.42548 1.12863,-1.35991 3.64162,-2.79664 14.30695,-8.1796 5.92302,-2.98944 6.11875,-2.98077 5.31159,0.23524 -0.55747,2.22112 -0.37993,2.54066 1.14159,2.05469 9.81312,-3.1343 18.30172,-5.29756 18.30172,-4.66408 0,0.42804 -1.57377,3.11686 -3.49727,5.97517 -3.5205,5.23144 -8.50273,19.40027 -8.50273,24.18066 0,2.04893 0.60049,2.6935 2.94642,3.16269 2.1868,0.43735 3.85939,2.01647 6.48758,6.125 1.94764,3.04464 4.20609,5.53571 5.01878,5.53571 2.11352,0 6.9493,-4.49387 15.93638,-14.8096 9.72918,-11.16754 14.5157,-13.98179 26.45003,-15.55136 l 8.66081,-1.13904 0.26607,-27.25 0.26607,-27.25 -5.89292,0 -5.89293,0 -2.00021,4.75 c -3.86737,9.18406 -5.48665,15.25521 -4.41365,16.54809 1.06332,1.28122 1.58736,4.62878 1.32309,8.45191 -0.121,1.75057 -0.76635,2.25 -2.90738,2.25 -2.12181,0 -3.55482,1.08479 -6.25896,4.73803 -1.92891,2.60592 -4.40307,4.89171 -5.49814,5.07953 -1.83606,0.31492 -1.81725,0.21509 0.24154,-1.28253 2.85235,-2.07487 8.26742,-9.91195 8.26742,-11.96521 0,-0.8634 0.45,-1.56982 1,-1.56982 0.55,0 1,0.9 1,2 0,1.11111 0.66667,2 1.5,2 1.04272,0 1.5,-1.049 1.5,-3.44098 0,-3.3742 -1.99954,-6.0604 -2.77639,-3.72984 -0.21694,0.6508 -0.79278,0.93709 -1.27965,0.63618 -0.48687,-0.3009 -2.31476,0.19215 -4.06197,1.09566 l -3.17674,1.64276 0.56536,-3.48391 c 0.82952,-5.11177 -0.99617,-6.35698 -4.45787,-3.04046 -3.30422,3.16564 -4.44499,2.57303 -3.00403,-1.56051 0.95192,-2.7307 0.85591,-2.97084 -1.13438,-2.83717 -2.46797,0.16575 -3.82891,1.27006 -5.56657,4.51691 -1.84345,3.44452 -2.62383,1.9974 -2.45006,-4.54334 0.0867,-3.26478 -0.20247,-6.51872 -0.64267,-7.23098 -1.96706,-3.18277 -9.64798,2.58677 -8.82693,6.63038 0.25816,1.27145 0.79477,1.15545 3.11456,-0.6733 1.54147,-1.21517 3.11272,-1.89936 3.49167,-1.5204 0.37896,0.37895 -0.0947,1.12761 -1.05266,1.66369 -1.20174,0.67253 -1.74167,2.21173 -1.74167,4.96505 0,3.35458 0.63733,4.59664 4,7.79548 2.2,2.09281 4,4.61633 4,5.60783 0,1.2748 -0.66769,0.81193 -2.28002,-1.5806 -2.76657,-4.10532 -6.34789,-6.12179 -9.773,-5.5027 -2.2449,0.40576 -2.72765,-0.0424 -4,-3.71322 -1.89342,-5.46272 -4.94698,-6.33866 -4.94698,-1.41908 0,5.46862 1.75675,9.0395 5.7653,11.71891 2.05409,1.373 5.00682,3.7355 6.56162,5.25 3.08142,3.00154 5.21581,3.37474 9.12196,1.59498 2.05394,-0.93584 2.88032,-0.86478 4.29706,0.36951 0.96473,0.8405 2.42906,1.77637 3.25406,2.07972 1.33333,0.49025 1.33333,0.55677 0,0.59868 -0.825,0.0259 -2.34966,-0.59611 -3.38814,-1.38231 -1.32482,-1.00297 -2.42401,-1.14266 -3.68426,-0.46819 -3.25155,1.74017 -6.68012,1.00871 -10.72791,-2.28875 -2.19424,-1.7875 -5.52576,-4.43802 -7.40338,-5.89004 -3.46479,-2.67945 -5.79631,-8.01211 -5.79631,-13.25736 0,-5.39919 6.10227,-3.99543 8.59808,1.97789 2.02342,4.84273 5.40192,4.79239 5.40192,-0.0805 0,-2.79786 -0.38938,-3.5 -1.94098,-3.5 -1.06754,0 -2.20686,-0.43019 -2.53182,-0.95598 -0.89293,-1.44481 1.98434,-7.58848 4.32014,-9.22454 2.26982,-1.58984 4.49045,-6.46391 3.6008,-7.9034 -0.32106,-0.51948 -12.68717,-0.91608 -28.56376,-0.91608 l -27.99759,0 -6.06457,12.75 c -6.90903,14.52537 -9.82222,22.33616 -9.82222,26.33512 0,3.51601 -2.37223,5.91488 -5.84919,5.91488 -1.48848,0 -3.47693,0.9 -4.41878,2 -2.29512,2.6805 -9.93748,2.70971 -14.88706,0.0569 -3.98963,-2.13831 -4.84497,-1.86033 -4.84497,1.57459 0,2.93551 -3.50509,5.02415 -5.56392,3.31547 -0.78985,-0.65551 -1.43608,-1.80643 -1.43608,-2.55761 0,-0.79784 -0.87677,-1.26671 -2.1085,-1.12755 -2.08541,0.2356 -2.4515,-0.17156 -4.92808,-5.48094 -1.13477,-2.43275 -0.93605,-3.38066 1.88679,-9 3.76478,-7.49443 4.6537,-8.65498 8.92737,-11.6553 2.55188,-1.79154 4.3232,-2.22624 8,-1.96328 l 4.72242,0.33773 2.22625,-6.86496 c 3.48069,-10.73318 3.8464,-13.63504 1.71837,-13.63504 -2.58462,0 -1.07317,-1.10712 1.96708,-1.44085 2.90612,-0.31901 2.97562,-0.22425 1.61672,2.20442 -1.01504,1.8141 -4.3774,13.37393 -5.52726,19.00276 -0.62056,3.03782 -0.41705,3.37087 2.90902,4.76059 6.94464,2.90165 7.71015,2.59833 7.9262,-3.14064 0.2072,-5.50364 1.82916,-8.38628 4.71868,-8.38628 2.52845,0 3.26652,3.1728 2.46945,10.61569 -0.37603,3.51137 -0.31038,6.38011 0.1459,6.37497 0.61526,-0.007 11.39893,-22.19263 14.15278,-29.11715 0.17776,-0.44697 -5.44724,-0.95355 -12.5,-1.12575 -7.05275,-0.1722 17.21431,-0.4109 53.92681,-0.53043 l 66.75,-0.21733 -0.029,28.75 c -0.016,15.8125 0.109,59.25391 0.27768,96.53647 l 0.30667,67.78646 -49.02767,-0.28646 c -26.96523,-0.15756 -67.92768,-0.53067 -91.02768,-0.82913 z m 21.25,-30.4543 c 2.82049,-3.83496 3.25,-5.21746 3.25,-10.461 0,-3.32312 -0.31608,-6.04204 -0.70239,-6.04204 -0.38632,0 -2.18632,1.43828 -4,3.19617 -3.13742,3.0409 -3.29761,3.55097 -3.29761,10.5 0,4.01711 0.3375,7.28628 0.75,7.26483 0.4125,-0.0215 2.2125,-2.02753 4,-4.45796 z m 16,-3.45886 c 1.2375,-2.16723 2.25,-5.01902 2.25,-6.33731 0,-2.71214 -3.32318,-6.2432 -4.93699,-5.24581 -1.19468,0.73835 -1.49306,15.54336 -0.31301,15.53124 0.4125,-0.004 1.7625,-1.78089 3,-3.94812 z m -85.60423,0.54591 c 1.78001,1.10011 6.73982,-1.7509 7.72552,-4.4408 0.67517,-1.84251 0.99486,-2.09688 1.04976,-0.83531 0.0734,1.68718 0.35586,1.65835 4.04029,-0.41241 3.04421,-1.71094 4.31689,-3.26988 5.49708,-6.73356 0.84466,-2.47895 1.36777,-4.67515 1.16247,-4.88045 -0.2053,-0.20531 -1.96814,0.38726 -3.91742,1.3168 -2.32527,1.10885 -4.06749,2.92913 -5.06587,5.29286 -1.18843,2.8137 -1.40116,3.00047 -0.97125,0.85278 0.95989,-4.79536 -4.83078,-2.74901 -7.29722,2.57874 -1.4315,3.09218 -1.45346,3.10083 -0.88087,0.34676 0.52076,-2.50474 0.32825,-2.78776 -1.70051,-2.5 -1.86335,0.2643 -2.34649,1.03967 -2.60438,4.17966 -0.33932,4.13126 0.68768,8.11395 1.51847,5.88861 0.25794,-0.69093 0.90771,-0.98508 1.44393,-0.65368 z m 26.2828,-0.16152 c 0.86429,-0.86428 1.57832,-2.32678 1.58674,-3.25 0.0123,-1.34497 0.18904,-1.40429 0.88942,-0.29847 0.72264,1.14094 1.31912,1.0543 3.44219,-0.5 1.41244,-1.03406 2.85706,-2.5551 3.21025,-3.3801 1.1698,-2.73243 4.18211,-14 3.74281,-14 -1.57899,0 -4.70456,2.61565 -6.34975,5.31382 -1.06852,1.7524 -1.94444,2.61987 -1.94649,1.92771 -0.003,-1.0113 -0.40399,-1.0113 -2.04158,0 -1.20213,0.74238 -2.66956,3.51398 -3.57828,6.75847 -0.84725,3.025 -1.76055,6.2875 -2.02955,7.25 -0.60794,2.1752 0.98508,2.26773 3.07424,0.17857 z m 2.65038,-7.0119 c 0.048,-1.16495 0.28494,-1.4019 0.60416,-0.60417 0.28887,0.72187 0.25335,1.58437 -0.0789,1.91667 -0.33229,0.33229 -0.56864,-0.25834 -0.52522,-1.3125 z m 1,-4 c 0.048,-1.16495 0.28494,-1.4019 0.60416,-0.60417 0.28887,0.72187 0.25335,1.58437 -0.0789,1.91667 -0.33229,0.33229 -0.56864,-0.25834 -0.52522,-1.3125 z m 126.20214,10.08333 c 0.1204,-0.55 -1.27919,-1.7481 -3.11021,-2.66245 -4.91835,-2.45607 -5.05824,-3.00308 -0.58508,-2.28779 3.05988,0.48929 4.33298,0.25303 5.37008,-0.99659 1.82164,-2.19494 0.44647,-3.34805 -4.45588,-3.73634 l -4,-0.31683 2.88889,-1.5 c 1.58889,-0.825 2.71389,-1.95 2.5,-2.5 -0.43259,-1.11237 -2.84284,-1.10658 -10.68929,0.0257 l -5.3004,0.76485 0.3004,3.93075 c 0.27955,3.65788 0.71692,4.16677 6.3004,7.33066 5.74208,3.25376 10.3144,4.07995 10.78109,1.94807 z m -52.3994,-3.25 c -0.0651,-2.0625 -0.42568,-5.1 -0.80134,-6.75 l -0.68302,-3 -2.16926,4.15252 -2.16926,4.15253 2.04318,2.59747 c 2.82151,3.58697 3.91867,3.25242 3.7797,-1.15252 z m -42.66919,-0.27897 c 1.84899,-2.10714 2.93292,-4.84616 3.56161,-9 0.49706,-3.28407 0.56084,-5.97103 0.14174,-5.97103 -0.4191,0 -2.08304,1.32104 -3.69764,2.93564 -2.75958,2.75958 -4.17917,7.08339 -4.2072,12.81436 -0.0148,3.02717 1.03196,2.8331 4.20149,-0.77897 z m 17.1688,-3.97103 2.64708,-4 -3.51419,0 c -3.43322,0 -3.51419,0.0922 -3.51419,4 0,2.2 0.3902,4 0.86711,4 0.47692,0 2.0583,-1.8 3.51419,-4 z m 29.57361,1.04509 c 1.74104,-1.74104 1.85108,-2.58892 1.00579,-7.75 -0.52201,-3.1873 -0.95172,-6.13259 -0.95491,-6.54509 -0.0137,-1.77817 -1.62193,-0.51423 -2.83625,2.2291 -0.89855,2.02997 -1.09891,4.73804 -0.62888,8.5 0.37938,3.0365 0.86294,5.5209 1.07456,5.5209 0.21163,0 1.26449,-0.87971 2.33969,-1.95491 z m 29.63105,-1.53156 c 0.34323,-1.36755 0.12681,-5.34192 -0.48095,-8.83191 -1.17836,-6.76667 -1.4463,-12.68162 -0.57446,-12.68162 0.2918,0 1.86473,1.51955 3.4954,3.37677 2.926,3.33254 8.50412,6.42649 9.60378,5.32683 0.31108,-0.31108 -0.34201,-2.99139 -1.4513,-5.95626 -2.61806,-6.99738 -1.53388,-9.39625 2.52424,-5.58518 3.48818,3.27581 8.16923,4.38321 10.70141,2.53163 1.80403,-1.31913 1.77881,-1.57972 -0.76945,-7.94937 -1.44905,-3.62204 -2.63463,-7.36603 -2.63463,-8.31996 0,-1.56971 0.1662,-1.58871 1.75,-0.20004 2.40461,2.10836 7.82236,4.77558 9.70034,4.77558 1.88236,0 1.99398,-2.92252 0.37886,-9.91958 -1.10303,-4.7786 -0.55981,-7.81519 0.97517,-5.45116 1.88012,2.89557 11.01674,5.07203 14.18162,3.37824 1.92529,-1.03039 2.01401,-2.05013 2.01401,-23.14857 l 0,-22.0707 -7.75,0.35833 c -11.77793,0.54456 -17.03793,3.5394 -27.56152,15.69248 -8.85532,10.22649 -14.19201,19.12746 -13.36476,22.29085 0.29305,1.12065 -0.0335,1.87011 -0.81479,1.87011 -0.83456,0 -1.25076,-1.16971 -1.15638,-3.25 0.0941,-2.07352 -0.29202,-3.16384 -1.06656,-3.012 -0.70157,0.13754 -0.97299,-0.39009 -0.64301,-1.25 0.31405,-0.8184 0.15341,-1.488 -0.35698,-1.488 -0.5104,0 -1.0024,2.7 -1.09335,6 -0.1537,5.577 0.8388,7.68626 2.2351,4.75 0.32694,-0.6875 0.28449,-0.125 -0.0943,1.25 -0.37881,1.375 -0.67307,4.75 -0.65391,7.5 0.0229,3.29091 -0.22053,4.31636 -0.71222,3 -0.68073,-1.82246 -0.8564,-1.73369 -1.97891,1 -0.67752,1.65 -1.25208,4.8875 -1.2768,7.19444 -0.0247,2.30695 -0.46557,4.10695 -0.97968,4 -1.20117,-0.24986 -3.75678,8.07721 -3.04677,9.92745 0.29623,0.77197 0.0785,1.96035 -0.48379,2.64084 -0.56231,0.6805 -1.31663,2.81227 -1.67626,4.73727 -0.35964,1.925 -0.73741,3.89072 -0.83949,4.36827 -0.10209,0.47754 1.53455,0.9727 3.63696,1.10034 2.3385,0.14198 4.65714,1.06665 5.97222,2.38173 2.76727,2.76728 3.52706,2.70764 4.29117,-0.33681 z m -42.47418,-3.0375 -0.83615,-2.97603 -1.33096,2.82161 c -1.12768,2.39067 -1.11182,2.95705 0.10383,3.70836 2.13196,1.31763 3.00803,-0.19138 2.06328,-3.55394 z m 4.8679,0.56381 c 2.01033,-3.94059 2.87674,-14.03984 1.20446,-14.03984 -0.44872,0 -1.81676,1.78086 -3.04008,3.95747 -1.83661,3.26781 -2.10766,4.83624 -1.55531,9 0.3679,2.77339 0.82679,5.04253 1.01976,5.04253 0.19296,0 1.25999,-1.78207 2.37117,-3.96016 z m -55.84517,-4.30385 c 1.03588,-1.92175 0.13574,-8.73599 -1.154,-8.73599 -0.86591,0 -4.98051,11.45732 -4.98051,13.86849 0,1.67679 4.48819,-2.0783 6.13451,-5.1325 z m 70.86549,4.43068 c 0,-1.00834 -0.30912,-2.14246 -0.68693,-2.52027 -0.37782,-0.37781 -0.76942,-4.16531 -0.87023,-8.41667 -0.11561,-4.87551 0.0816,-6.62197 0.53401,-4.72973 l 0.71729,3 1.53054,-3.5 c 1.03841,-2.37462 1.32874,-4.93389 0.90293,-7.95947 l -0.62761,-4.45946 -1.75,2.67428 c -0.9625,1.47086 -1.75,3.36512 -1.75,4.20947 0,0.84435 -0.9351,2.47028 -2.07801,3.61319 -1.88418,1.88418 -2.0129,2.79361 -1.37998,9.75 0.38391,4.21959 1.14912,8.23449 1.70045,8.92199 1.49321,1.86199 3.75754,1.51047 3.75754,-0.58333 z m -112.93163,-0.16667 c 1.11595,0 4.10622,-6.94812 3.71572,-8.63378 -0.33645,-1.45236 -8.78409,2.07018 -8.78409,3.66284 0,1.39716 1.72966,1.19666 2.40744,-0.27906 0.64306,-1.40016 -0.38269,2.95587 -1.21828,5.17361 -0.3858,1.02396 -0.0436,1.2345 1.21902,0.75 0.96547,-0.37049 2.16255,-0.67361 2.66019,-0.67361 z m 21.56584,-0.77224 c 2.16544,-1.75304 5.03759,-8.88929 3.99666,-9.93022 -0.94857,-0.94858 -5.66499,2.65959 -6.54197,5.00476 -2.05325,5.49066 -2.21711,6.69759 -0.90629,6.67546 0.72457,-0.0122 2.27778,-0.79973 3.4516,-1.75 z m 44.98508,-4.68563 c -1.2986,-4.14894 -2.58202,-2.73793 -2.60398,2.86286 -0.0146,3.7333 0.0658,3.83154 1.83061,2.23445 1.57122,-1.42193 1.68631,-2.18051 0.77337,-5.09731 z m 24.36039,2.49771 c 1.4114,-2.76658 2.00948,-5.8559 1.98436,-10.25 l -0.036,-6.28984 -2.45993,3 c -1.35296,1.65 -2.7408,4.48348 -3.08408,6.29663 -0.34327,1.81314 -0.86313,3.05764 -1.15522,2.76554 -0.2921,-0.29209 -1.09713,0.24303 -1.78896,1.18916 -1.33985,1.83235 -0.099,5.77406 1.50551,4.78242 0.46477,-0.28724 1.10307,0.15015 1.41844,0.97199 0.86012,2.24145 1.40332,1.871 3.61585,-2.4659 z m 28.02032,1.96016 c 0,-1.1 0.37839,-2 0.84087,-2 0.46248,0 1.38714,-2.441 2.05481,-5.42445 0.96002,-4.28983 0.95146,-6.69525 -0.041,-11.5 -0.69013,-3.34155 -1.57078,-6.07555 -1.95693,-6.07555 -1.03875,0 -2.89775,5.86953 -2.89775,9.14922 0,1.56793 -0.39541,2.85078 -0.87868,2.85078 -1.83019,0 -3.27343,5.80284 -2.58501,10.39357 0.59915,3.99544 1.00731,4.60643 3.07723,4.60643 1.71979,0 2.38646,-0.55871 2.38646,-2 z m -112.41739,-1.2196 c 1.64556,-0.74976 3.39724,-2.90048 4.54706,-5.5829 2.55181,-5.95314 2.39397,-6.41485 -1.55004,-4.53408 -2.43862,1.16289 -3.87378,2.81829 -5,5.76725 -2.35105,6.15614 -2.28352,6.3028 2.00298,4.34973 z m 73.05356,-2.27466 c 0.31537,-0.82184 0.96013,-1.25524 1.43279,-0.96312 0.47267,0.29212 2.00051,-1.27652 3.39522,-3.48587 1.94462,-3.08048 2.53582,-5.34004 2.53582,-9.69187 0,-5.59283 -0.0286,-5.64895 -1.98044,-3.88258 -1.08925,0.98575 -2.27268,3.35001 -2.62985,5.25391 -0.38303,2.0417 -0.94783,2.97876 -1.37694,2.28445 -0.99619,-1.61186 -8.39253,8.54731 -7.64365,10.49886 0.74023,1.92901 5.52557,1.91849 6.26705,-0.0138 z m -49.7227,-2.34407 c 1.03477,-1.93347 0.40229,-6.16167 -0.92169,-6.16167 -0.42623,0 -1.04683,1.08319 -1.37911,2.4071 -0.33228,1.3239 -0.87921,3.1239 -1.21539,4 -0.87494,2.28004 2.28255,2.05966 3.51619,-0.24543 z m 41.88951,-5.12465 c 0.30294,-6.44193 0.30268,-6.44262 -1.75,-4.58497 -2.7937,2.52827 -3.04318,11.88323 -0.30298,11.36123 1.41148,-0.26888 1.80861,-1.57966 2.05298,-6.77626 z m -54.42967,3.65382 2.87332,-2.29922 -2.59523,-1.70046 c -2.55408,-1.6735 -2.61946,-1.65361 -4.12332,1.25453 -2.85913,5.52897 -1.15449,6.74593 3.84523,2.74515 z m -17.5793,-4.94084 c 1.31161,-3.10109 1.29481,-3.11447 -2.22891,-1.77475 -1.75256,0.66632 -2.5651,1.72222 -2.5651,3.33333 0,4.85186 2.41475,4.0668 4.79401,-1.55858 z m 61.51605,3.32221 c 1.78857,-0.68001 2.61626,-1.94853 3.0993,-4.75 0.36247,-2.10221 0.91717,-5.17221 1.23266,-6.82221 l 0.57362,-3 -3.60782,3.44617 c -1.9843,1.89539 -3.60782,3.9804 -3.60782,4.63337 0,0.65296 -0.9,1.42255 -2,1.71021 -1.1966,0.31292 -2,1.36401 -2,2.61663 0,2.7999 1.74781,2.68077 2.29427,-0.15638 0.37157,-1.92915 0.45279,-1.85784 0.56955,0.5 0.15375,3.1048 0.11989,3.08689 3.44624,1.82221 z m 43.62124,-9.07221 0.002,-5.5 -1.96673,2.36078 c -1.95949,2.35209 -2.83102,10.9416 -1.2687,12.50392 1.3815,1.38149 3.23114,-3.97574 3.23327,-9.3647 z m -101.61719,7.90274 c 1.32452,-0.60349 3.13842,-2.62849 4.03088,-4.5 1.61591,-3.3886 1.61241,-3.40274 -0.84084,-3.40274 -1.86318,0 -2.95583,0.96504 -4.48383,3.96016 -2.83923,5.56535 -2.7649,5.79185 1.29379,3.94258 z m 45.85838,-0.65274 c 1.27119,-1.5006 3.82751,-8.61432 3.82751,-10.6512 0,-1.6554 -4.20164,1.80068 -5.12063,4.212 -2.69421,7.06929 -2.0324,10.36486 1.29312,6.4392 z m 29.17062,-3.85933 c 2.33031,-3.35527 4.1538,-7.37513 4.63238,-10.21206 0.72777,-4.31405 0.80017,-4.40589 0.92913,-1.17861 l 0.13985,3.5 1.95553,-2.5 c 1.07554,-1.375 1.97242,-3.85 1.99308,-5.5 0.0251,-2.00456 0.31525,-2.56202 0.87448,-1.68005 1.25236,1.97512 6.13244,-4.24382 6.13244,-7.81489 0,-1.56282 0.27314,-3.55329 0.60699,-4.42327 0.33384,-0.86999 0.14554,-1.58179 -0.41844,-1.58179 -1.50568,0 -5.17586,6.35308 -5.2675,9.11803 -0.0434,1.31009 -0.31509,1.79196 -0.60371,1.07084 -0.74043,-1.84998 -4.31734,1.48484 -4.31734,4.02513 0,1.04722 -0.37253,1.6738 -0.82784,1.3924 -0.93814,-0.5798 -7.58977,7.05021 -9.7409,11.17366 -1.48345,2.8436 -1.97884,10.24764 -0.68126,10.182 0.4125,-0.0209 2.4794,-2.528 4.59311,-5.57139 z m 21.51797,-9.14067 c 0.0349,-2.8875 -0.25706,-5.24653 -0.64881,-5.2423 -0.39175,0.004 -1.72477,1.78089 -2.96227,3.94812 -2.20742,3.86585 -3.16243,12.79841 -1.54161,14.41924 1.4451,1.4451 5.08876,-7.83612 5.15269,-13.12506 z m -58.24794,5.13346 c 1.63796,-3.92018 1.68637,-4.38346 0.45806,-4.38346 -2.22814,0 -8.0712,6.83121 -8.0712,9.43617 l 0,2.70002 3.11314,-2.21675 c 1.71223,-1.21922 3.73723,-3.7104 4.5,-5.53598 z m 4.35623,2.61654 c 0,-1.33333 -0.1077,-1.33333 -0.96937,0 -0.53316,0.825 -0.96937,2.175 -0.96937,3 0,1.33333 0.1077,1.33333 0.96937,0 0.53316,-0.825 0.96937,-2.175 0.96937,-3 z m -32.80555,0.74503 c 2.61247,-2.20176 4.76401,-6.77941 3.15357,-6.70959 -2.25723,0.0979 -5.7213,3.0199 -6.89815,5.8188 -1.62724,3.87006 -0.19477,4.21083 3.74458,0.89079 z m 8.3758,0.13012 c 0.40642,-1.28051 0.18083,-2.42988 -0.56771,-2.89251 -0.89964,-0.55601 -0.66471,-1.07668 0.85207,-1.88844 2.02275,-1.08254 6.50926,-9.59448 5.94668,-11.28221 -0.15183,-0.45549 -1.66327,0.15735 -3.35876,1.36187 -2.98154,2.11816 -6.47314,10.09823 -5.04378,11.52759 0.33799,0.33799 0.12969,1.19872 -0.46289,1.91274 -1.11179,1.33962 -0.45523,3.38581 1.0864,3.38581 0.48048,0 1.17707,-0.95618 1.54799,-2.12485 z m 51.97868,-10.00821 c 1.02104,-7.42387 0.0209,-7.49738 -4.99252,-0.36694 -0.77342,1.1 -1.68524,4.475 -2.02628,7.5 l -0.62007,5.5 3.47595,-3.81904 c 2.59427,-2.85035 3.65019,-5.08601 4.16292,-8.81402 z m -47.46291,10.10342 c 2.24264,-1.20023 5.20548,-6.48401 4.75501,-8.47986 -0.4804,-2.12844 -6.58579,3.47059 -7.37082,6.7595 -0.71635,3.00118 -0.2951,3.27823 2.61581,1.72036 z m -26.00573,-1.49604 c 1.78217,-0.9216 2.95034,-2.32133 2.95034,-3.53518 0,-1.10523 0.72675,-3.11867 1.61501,-4.47432 1.95118,-2.97788 1.44984,-3.04871 -3.54448,-0.5008 -2.55945,1.30573 -4.22196,3.0316 -4.96016,5.14922 -1.90797,5.4732 -1.24273,6.0408 3.93929,3.36108 z m 55.29737,0.58384 c 1.86642,-0.70961 2.86876,-2.28864 4.0651,-6.40391 2.22618,-7.65777 2.00305,-8.54578 -1.29024,-5.13502 -2.37866,2.46351 -6.89441,12.48077 -5.62629,12.48077 0.20581,0 1.48896,-0.42383 2.85143,-0.94184 z m 38.13828,-10.78692 c 0.3738,-2.99179 0.48338,-5.63588 0.2435,-5.87576 -0.23987,-0.23987 -1.62699,1.36336 -3.08247,3.56275 -1.95625,2.95609 -2.63696,5.24315 -2.61038,8.77033 l 0.036,4.77144 2.36688,-2.89457 c 1.50949,-1.84602 2.61307,-4.86504 3.04651,-8.33419 z m 15.35417,7.18171 c 0.63829,-1.40088 1.14555,-4.88838 1.12725,-7.75 l -0.0333,-5.20295 -1.96673,2.36078 c -1.42031,1.70489 -1.96673,3.85808 -1.96673,7.75 0,5.84511 1.01043,6.8565 2.83948,2.84217 z m 17.00494,-2.74935 c 0.59972,-2.38172 0.87183,-6.10187 0.60468,-8.267 -0.32752,-2.65442 -0.21023,-3.3068 0.36009,-2.00298 0.46519,1.0635 1.08934,1.5135 1.38699,1 3.08846,-5.32801 3.2504,-15.87906 0.20492,-13.35154 -0.78045,0.64772 -1.69749,2.91922 -2.03786,5.04779 -0.34037,2.12857 -0.96248,3.87013 -1.38247,3.87013 -0.41999,0 -1.4348,1.6875 -2.25515,3.75 -1.19591,3.00676 -1.28482,4.88174 -0.44859,9.46014 0.57361,3.14058 1.36559,5.51073 1.75996,5.267 0.39436,-0.24373 1.2077,-2.39182 1.80743,-4.77354 z m -77.35221,-0.0995 c 0.69751,-1.70724 1.58956,-4.15476 1.98232,-5.43893 0.71288,-2.33084 0.70941,-2.33178 -2.01664,-0.5456 -2.43218,1.5936 -5.45789,6.72418 -5.45789,9.25469 0,2.16154 4.32518,-0.41376 5.49221,-3.27018 z m -12.47544,-0.1482 c 0.53199,-1.39926 1.2568,-3.69771 1.61068,-5.10767 0.58523,-2.33177 0.45984,-2.46532 -1.38684,-1.477 -1.768,0.9462 -4.24061,5.77293 -4.24061,8.27799 0,1.96473 3.1272,0.64642 4.01677,-1.69332 z m -26.4011,0.77879 c 1.54291,-1.01604 5.57793,-9.15389 5.16019,-10.4071 -0.46508,-1.39526 -8.77586,7.7434 -8.77586,9.65007 0,1.61293 1.75722,1.98085 3.61567,0.75703 z m 54.75105,-2.09558 c 2.67481,-2.7919 6.29621,-13.13911 4.59853,-13.13911 -2.01271,0 -5.77736,4.83345 -6.89624,8.85409 -0.66641,2.39475 -1.45271,4.98225 -1.74733,5.75 -0.88596,2.30879 1.12853,1.57921 4.04504,-1.46498 z m -22.60955,-0.88911 c 2.89857,-2.50534 7.97002,-12.85614 6.84847,-13.97769 -0.25721,-0.25722 -2.06918,0.81021 -4.02659,2.37207 -2.51037,2.00307 -4.13183,4.53618 -5.50342,8.59768 -1.06947,3.16687 -1.61949,5.75794 -1.22228,5.75794 0.39721,0 2.15393,-1.2375 3.90382,-2.75 z m 13.89427,-4 c 1.3469,-3.18267 3.13287,-4.73627 1.97451,-1.71761 -1.10225,2.8724 4.18415,-1.80986 5.47565,-4.84988 0.73134,-1.7215 1.46763,-2.37952 1.89279,-1.69158 1.01556,1.6432 7.09973,-5.58208 6.34865,-7.53936 -0.97565,-2.5425 -3.5774,-1.19716 -4.92844,2.54843 -0.69434,1.925 -1.29668,2.70213 -1.33852,1.72695 -0.0714,-1.66313 -0.2318,-1.67103 -2.58782,-0.1273 -1.38147,0.90517 -2.77947,2.71243 -3.10668,4.01614 -0.32721,1.30372 -1.01664,2.10976 -1.53206,1.79121 -2.03489,-1.25763 -5.81715,3.969 -7.28416,10.06585 l -0.71533,2.97284 2.213,-1.97284 c 1.21715,-1.08507 2.83193,-3.43535 3.58841,-5.22285 z m 47.82288,3.79966 c 1.72941,-3.34431 2.06542,-11.04966 0.48184,-11.04966 -0.57411,0 -0.91161,-0.74082 -0.75,-1.64626 0.16161,-0.90544 -0.26866,-1.84294 -0.95616,-2.08333 -1.48147,-0.51801 -1.69971,2.33362 -0.2473,3.23126 0.67028,0.41425 0.67028,1.24086 0,2.49328 -0.99371,1.85676 -1.44037,12.00505 -0.52838,12.00505 0.26088,0 1.16088,-1.32765 2,-2.95034 z m -18.45901,-12.92712 c 0.0119,-2.03755 0.22615,-2.28903 0.96052,-1.12741 0.81042,1.28192 1.15461,1.21063 2.41376,-0.5 1.68699,-2.29188 3.05205,-8.38682 2.09313,-9.34574 -0.78862,-0.78862 -3.48272,2.72469 -3.48272,4.54174 0,0.71988 -0.58367,1.30887 -1.29705,1.30887 -0.71338,0 -3.01238,1.75665 -5.10889,3.90368 -2.7843,2.85138 -4.15864,5.39553 -5.09833,9.43795 -0.70757,3.04386 -1.04977,5.771 -0.76044,6.06033 1.08293,1.08292 10.26479,-11.6711 10.28002,-14.27942 z m 33.88686,11.72824 c 1.33109,-3.81835 1.42892,-8.52812 0.19301,-9.29195 -0.49765,-0.30757 -0.65729,-2.40467 -0.35475,-4.66024 0.38839,-2.89566 0.14243,-4.35295 -0.83683,-4.95817 -1.10452,-0.68263 -1.1341,-1.10992 -0.14524,-2.09878 1.46364,-1.46364 1.67111,-5.84164 0.27682,-5.84164 -2.08404,0 -3.25189,5.27105 -1.71251,7.72933 0.4234,0.67614 0.34082,2.03093 -0.18351,3.01065 -1.20081,2.24373 -0.29149,7.4722 1.14513,6.58432 0.70264,-0.43426 0.77228,-0.0124 0.20828,1.26166 -1.31524,2.97106 -1.82334,11.41404 -0.68691,11.41404 0.54928,0 1.49271,-1.41715 2.09651,-3.14922 z m -121.01152,-0.51014 c 0.95835,-2.10333 0.94962,-2.82132 -0.0417,-3.43402 -1.89322,-1.17007 -2.84892,-0.11257 -2.84892,3.1524 0,3.65947 1.29416,3.78555 2.89065,0.28162 z m 34.21541,-0.99802 c 1.67454,-1.94832 5.22372,-10.34617 4.62545,-10.94444 -0.19369,-0.1937 -1.34355,0.34221 -2.55523,1.1909 -2.1761,1.5242 -5.23794,6.70829 -6.6426,11.24675 -0.63404,2.04862 -0.49475,2.2137 1.13288,1.34262 1.0207,-0.54626 2.56848,-1.82238 3.4395,-2.83583 z m -14.31014,1.08777 c 2.07637,-1.45435 7.76934,-11.19846 6.99505,-11.97275 -1.1643,-1.1643 -7.07462,4.39516 -8.78631,8.26473 -1.10256,2.49253 -2.00466,4.69966 -2.00466,4.90475 0,0.81821 1.67157,0.29122 3.79592,-1.19673 z m -13.34592,-1.54278 c 0.57031,-0.53285 -0.0864,-0.88761 -1.64301,-0.88761 -1.43055,0 -2.86231,0.70177 -3.19371,1.56539 -0.47456,1.23668 -0.12955,1.42307 1.64301,0.88761 1.23404,-0.37279 2.67121,-1.07721 3.19371,-1.56539 z m 95.54488,-9.35983 0.005,-3.97222 -2.1628,2.1628 c -1.58935,1.58935 -2.26595,3.70312 -2.55184,7.97222 l -0.38904,5.80942 2.54671,-4 c 1.62577,-2.5535 2.54858,-5.43645 2.55185,-7.97222 z m 13.36856,8.72222 c 0.95086,-1.84823 1.19033,-4.06166 0.73029,-6.75 -0.6449,-3.76851 -0.75423,-3.87359 -1.88912,-1.81574 -1.14193,2.0706 -1.73859,11.31574 -0.73029,11.31574 0.26088,0 1.11098,-1.2375 1.88912,-2.75 z m -37.377,-9.16305 c 1.21999,-4.41846 -0.12724,-6.17449 -2.84803,-3.71221 -1.04987,0.95012 -2.16376,3.00199 -2.4753,4.55971 -0.31155,1.55772 -0.87421,4.12222 -1.25036,5.69889 l -0.68392,2.86666 3.14192,-2.94315 c 1.72805,-1.61874 3.58011,-4.53019 4.11569,-6.4699 z m -25.57967,6.40637 c 1.04872,-0.79368 2.73225,-3.14187 3.74117,-5.21819 1.01306,-2.08481 1.5543,-2.67311 1.20881,-1.3139 -0.60756,2.39022 -0.55731,2.41588 1.74162,0.88945 2.36087,-1.56756 7.33801,-12.46295 6.05535,-13.25567 -1.33501,-0.82509 -4.19278,2.20644 -5.67409,6.01911 -1.07378,2.76374 -1.34832,3.06304 -0.95069,1.03645 l 0.55907,-2.84943 -2.95341,2.10302 c -2.0236,1.44092 -3.59095,3.99085 -4.97843,8.09943 -2.10968,6.2471 -1.92892,6.89604 1.2506,4.48973 z m -40.39581,-2.74332 c 2.92799,-4.80226 2.64299,-6.13953 -0.91622,-4.29899 -6.13464,3.17234 -8.21022,7.54899 -3.58004,7.54899 1.76395,0 3.10628,-0.97026 4.49626,-3.25 z m 22.60771,-6 c 1.73264,-3.40785 2.03929,-4.75 1.08527,-4.75 -2.58046,0 -9.70394,9.52859 -9.70394,12.98028 0,2.31374 6.33218,-3.73308 8.61867,-8.23028 z m 10.23325,0.5961 c 1.72118,-3.49036 2.76205,-6.3461 2.31306,-6.3461 -2.05173,0 -6.88783,7.1838 -8.6257,12.81306 -1.46349,4.74052 3.08253,0.0834 6.31264,-6.46696 z m 67.14808,1.04312 c 0,-1.86407 -0.36,-3.38922 -0.8,-3.38922 -1.94627,0 -3.19747,2.74601 -3.16673,6.95 l 0.0333,4.55 1.96673,-2.36078 c 1.10441,-1.32569 1.96673,-3.8468 1.96673,-5.75 z m -108.45888,5.54425 c 0.36253,-0.58659 0.4535,-1.27219 0.20214,-1.52354 -0.69747,-0.69748 -3.74326,0.68337 -3.74326,1.69706 0,1.25179 2.74331,1.11736 3.54112,-0.17352 z m 18.22081,-6.8574 c 1.7355,-2.79184 2.83655,-5.07439 2.44676,-5.07233 -2.24188,0.0118 -7.41378,4.47794 -9.16835,7.91719 -2.63575,5.1665 -2.58487,5.41202 0.7629,3.68082 1.54178,-0.79729 4.22319,-3.73384 5.95869,-6.52568 z m 105.19615,-1.26705 c 0.0729,-2.94094 -1.8168,-2.9829 -3.32118,-0.0738 -0.82028,1.58626 -1.2092,4.05126 -0.89693,5.68482 l 0.55134,2.88416 1.81243,-3.40212 c 0.99684,-1.87117 1.83129,-4.16306 1.85434,-5.0931 z m -123.88597,5.06161 c 2.37054,-0.89021 10.58222,-10.54964 9.70997,-11.42189 -0.21044,-0.21043 -1.70999,-0.0399 -3.33235,0.37888 -2.01903,0.52122 -4.03464,2.39702 -6.38822,5.94511 -3.81098,5.74516 -5.5669,6.39911 -2.09402,0.77987 2.23613,-3.61813 1.56835,-4.44492 -2.03323,-2.51742 -1.31212,0.70223 -1.93426,2.09601 -1.93426,4.33334 0,3.62965 1.46358,4.23274 6.07211,2.50211 z m 51.25632,-11.26761 c 3.19819,-6.53505 2.88004,-8.07829 -0.93261,-4.52363 -2.26865,2.11514 -8.39582,12.71185 -8.39582,14.52025 0,0.36117 1.4625,-0.43993 3.25,-1.78022 1.7875,-1.3403 4.52279,-5.03767 6.07843,-8.2164 z m -23.23321,2.00842 c 2.50823,-4.11332 2.39832,-4.79343 -0.55705,-3.44688 -2.44321,1.1132 -7.53817,7.79239 -7.53817,9.88209 0,1.75166 6.02223,-3.03565 8.09522,-6.43521 z m -17.81293,4.79099 c 3.06343,-1.46085 9.47766,-9.97581 8.35805,-11.09542 -1.24543,-1.24544 -6.79014,3.21524 -9.52847,7.6656 -1.70136,2.76506 -2.88781,5.02739 -2.63655,5.02739 0.25125,0 1.96439,-0.71891 3.80697,-1.59757 z m 30.47801,-6.45652 c 2.40303,-4.02971 1.53508,-5.24909 -1.88372,-2.64642 -2.03822,1.55166 -5.86786,7.7616 -5.87284,9.52309 -0.006,2.11692 5.08488,-2.39645 7.75656,-6.87667 z m 38.2397,5.99507 c 0,-0.51754 -0.45,-0.94098 -1,-0.94098 -0.55,0 -1,0.70156 -1,1.55902 0,0.85746 0.45,1.2809 1,0.94098 0.55,-0.33992 1,-1.04148 1,-1.55902 z m 34,-3.68587 c 0,-2.99773 -0.21526,-3.32135 -1.5,-2.25511 -0.825,0.68469 -1.5,2.81989 -1.5,4.74489 0,2.99773 0.21526,3.32135 1.5,2.25511 0.825,-0.68469 1.5,-2.81989 1.5,-4.74489 z m -15.1875,1.80739 c 0.25,-0.75 -0.125,-1.125 -0.875,-0.875 -0.72187,0.24062 -1.50938,1.02813 -1.75,1.75 -0.25,0.75 0.125,1.125 0.875,0.875 0.72187,-0.24062 1.50938,-1.02813 1.75,-1.75 z m -32.01706,-3.87442 c -0.5452,-2.80933 -2.55771,-2.3088 -3.68177,0.9157 -1.4737,4.22745 -1.49564,4.1926 1.43177,2.27449 1.39999,-0.91731 2.41249,-2.3529 2.25,-3.19019 z m 37.20456,3.31192 c 0,-0.825 -0.45,-1.5 -1,-1.5 -0.55,0 -1,0.675 -1,1.5 0,0.825 0.45,1.5 1,1.5 0.55,0 1,-0.675 1,-1.5 z m -20.45225,-3.14602 c 1.34874,-1.45532 2.45225,-3.31299 2.45225,-4.12816 0,-1.96364 -6.36356,2.83866 -6.82332,5.14926 -0.48665,2.44572 1.61261,1.95532 4.37107,-1.0211 z m 39.41707,0.71176 c 0.56935,-1.06384 1.03518,-2.93358 1.03518,-4.15499 0,-2.15738 -0.0571,-2.1691 -2,-0.41075 -2.04086,1.84695 -2.7819,6.5 -1.03518,6.5 0.53065,0 1.43065,-0.87042 2,-1.93426 z m 5.64479,-1.67383 c 0.82915,-1.98444 1.21745,-3.89694 0.86289,-4.25 -0.94621,-0.94218 -4.4725,3.7639 -4.4725,5.96887 0,3.09732 1.99402,2.14778 3.60961,-1.71887 z m -129.5771,-0.94451 c 2.55894,-4.14045 2.3308,-4.80911 -1.066,-3.12439 -1.54202,0.76481 -2.58511,2.24539 -2.78293,3.95016 -0.43729,3.76844 1.23073,3.41057 3.84893,-0.82577 z m 22.92061,2.07684 c 2.58522,-1.33687 7.79302,-8.11311 6.91095,-8.99233 -0.20024,-0.19959 -1.80082,0.24153 -3.55684,0.98027 -2.02967,0.85384 -3.94962,2.82668 -5.27033,5.41548 -2.30979,4.52757 -2.17393,4.71168 1.91622,2.59658 z m 16.52891,-4.80204 c 0.83488,-1.19197 1.51797,-2.89734 1.51797,-3.78972 0,-0.89238 0.9,-2.43699 2,-3.43248 2.34883,-2.12567 2.57367,-3.5 0.57258,-3.5 -1.97928,0 -5.92727,5.16276 -4.58321,5.99343 0.60827,0.37593 0.0497,1.18288 -1.32981,1.92117 -1.96939,1.05399 -5.65956,6.71839 -5.65956,8.68742 0,0.98546 5.94666,-3.68778 7.48203,-5.87982 z m 38.7325,4.5278 c 0.83847,-0.9625 1.99769,-3.1 2.57603,-4.75 0.97802,-2.79023 1.05707,-2.82959 1.13049,-0.56291 l 0.079,2.43709 3,-2.87418 c 2.18026,-2.08882 3,-3.8022 3,-6.27042 0,-4.17997 -1.82617,-3.93426 -4.11028,0.55303 -0.88565,1.73992 -1.89993,2.87385 -2.25394,2.51984 -0.98559,-0.98559 -5.40368,3.59298 -6.49902,6.73508 -1.42917,4.09973 0.33126,5.36523 3.07777,2.21247 z m 18.3875,-2.83996 c 2.06608,-4.94482 1.70872,-6.05061 -1.10203,-3.41004 -1.54613,1.45251 -2.5,3.44928 -2.5,5.23333 0,3.61712 1.68533,2.76403 3.60203,-1.82329 z m 5.39797,0.4085 c 0,-2.60967 -0.22218,-2.87903 -1.5,-1.81854 -1.53598,1.27475 -2.00428,4.16238 -0.86052,5.30615 1.22723,1.22722 2.36052,-0.44719 2.36052,-3.48761 z m 7.44026,1.56346 c 0.60718,-2.41919 0.12275,-4.27835 -0.85898,-3.29662 -1.05361,1.05361 -1.70954,5.91462 -0.7981,5.91462 0.55,0 1.29569,-1.1781 1.65708,-2.618 z m -102.89405,-2.132 c 4.00961,-4.36556 4.34064,-5.65666 1.20379,-4.695 -3.00639,0.92166 -3.92275,1.73387 -6.05654,5.36812 -1.61105,2.74393 -1.63258,3.07688 -0.19901,3.07688 0.88413,0 3.15742,-1.6875 5.05176,-3.75 z m 51.88359,1.22748 c 2.82611,-2.61915 2.99124,-4.76655 0.40513,-5.26849 -0.95113,-0.18461 -2.07972,1.18652 -3.08669,3.75 -1.83422,4.66949 -1.14162,5.06169 2.68156,1.51849 z m -7.51089,-5.6747 c 0.78356,-2.24774 0.73706,-2.85626 -0.1949,-2.55036 -1.63902,0.53799 -5.72401,6.65388 -5.72401,8.56978 0,2.33065 4.6602,-2.40868 5.91891,-6.01942 z m 22.14052,5.23395 c -0.82272,-0.50847 -0.69321,-1.09577 0.45101,-2.0454 1.53053,-1.27022 3.41741,-5.03793 4.9651,-9.91426 0.65053,-2.04964 0.52404,-2.14721 -1.42878,-1.1021 -1.17837,0.63065 -2.55655,2.23568 -3.06262,3.56673 -0.52956,1.39286 -1.47918,2.20556 -2.23724,1.91467 -1.55746,-0.59765 -5.7469,3.02951 -5.7469,4.9756 0,2.98275 3.01905,2.50785 4.51388,-0.71006 1.3462,-2.89794 1.44598,-2.95338 0.9923,-0.55137 -0.60805,3.21932 0.32177,6.05383 1.70537,5.19872 0.64215,-0.39687 0.58752,-0.87541 -0.15212,-1.33253 z m 32.94057,-4.22786 c 0,-1.54488 -0.39752,-2.80887 -0.88337,-2.80887 -1.05445,0 -2.09642,3.52158 -2.07117,7 0.0175,2.41349 0.069,2.43283 1.48634,0.55887 0.80751,-1.06762 1.4682,-3.20512 1.4682,-4.75 z m -94.87212,3.78004 c 1.85466,-0.7761 4.44545,-2.86515 5.75729,-4.64234 l 2.38517,-3.23124 -2.87958,0.72273 c -3.40615,0.85489 -4.79092,1.91081 -7.50553,5.72313 -2.33104,3.27363 -2.26661,3.31465 2.24265,1.42772 z m 103.83694,-1.52317 c 0.56935,-1.06384 1.02021,-3.20134 1.00191,-4.75 l -0.0333,-2.81574 -1.96673,2.36078 c -2.03701,2.44515 -2.69578,7.13922 -1.00191,7.13922 0.53065,0 1.43065,-0.87042 2,-1.93426 z m -22.29669,-3.4882 c -1.04313,-2.71835 -2.66813,-1.72151 -2.66813,1.63675 0,2.97649 0.12109,3.0932 1.63674,1.57754 0.90021,-0.90021 1.36434,-2.34664 1.03139,-3.21429 z m -57.77172,-0.11234 c 1.70697,-1.94413 3.10359,-4.02402 3.10359,-4.62197 0,-1.61643 -3.94691,1.27194 -6.80828,4.98235 -3.52155,4.56647 -0.35029,4.25799 3.70469,-0.36038 z m 95.10359,-1.77518 c 0,-1.93665 -0.0633,-1.94267 -2,-0.19002 -1.1,0.99549 -2,2.70997 -2,3.80998 0,1.93665 0.0633,1.94267 2,0.19002 1.1,-0.99549 2,-2.70997 2,-3.80998 z m -104.75,-0.4993 c 1.5125,-1.41069 2.75,-2.91957 2.75,-3.35306 0,-1.23828 -5.26161,1.07226 -7.75,3.40327 -1.2375,1.15923 -2.25,2.72009 -2.25,3.46857 0,1.757 3.32237,0.1445 7.25,-3.51878 z m 22.38546,0.24289 c 1.83427,-2.79945 1.47256,-3.79603 -1.02932,-2.83597 -1.46857,0.56355 -4.60614,5.25537 -4.60614,6.88788 0,1.25108 4.08554,-1.68644 5.63546,-4.05191 z m 76.40636,2.48825 c 0.6117,-1.14298 0.8204,-2.83048 0.46376,-3.75 -0.58646,-1.5121 -0.78493,-1.48638 -2.077,0.26927 -1.62712,2.2109 -1.90643,5.55887 -0.46376,5.55887 0.53065,0 1.4653,-0.93516 2.077,-2.07814 z m -123.98538,-1.17186 c 2.37442,-2.84624 2.40902,-3.75 0.14356,-3.75 -2.30387,0 -4.2,1.89613 -4.2,4.2 0,2.45961 1.7953,2.26045 4.05644,-0.45 z m 67.66282,-2.80123 c 1.22059,-2.44682 2.1269,-5.13008 2.01401,-5.96278 -0.11288,-0.83271 0.80095,-2.52021 2.03074,-3.75 2.32151,-2.32151 2.91292,-4.23599 1.30857,-4.23599 -1.51483,0 -5.18819,5.25633 -4.65124,6.65561 0.27258,0.71032 -0.11229,1.6409 -0.85525,2.06794 -1.30519,0.75021 -4.56609,7.52177 -4.56609,9.48191 0,2.2593 2.67025,-0.14922 4.71926,-4.25669 z m -61.52398,1.36414 c 2.85483,-2.7351 3.54313,-4.31291 1.88144,-4.31291 -1.28924,0 -7.07672,4.97961 -7.07672,6.08889 0,1.72477 2.39631,0.90561 5.19528,-1.77598 z m 48.57555,0.87459 c 0.59996,-1.79986 -1.467,-1.42165 -2.16452,0.39606 -0.37373,0.97391 -0.15024,1.43108 0.58051,1.1875 0.6535,-0.21783 1.3663,-0.93044 1.58401,-1.58356 z m 8.1061,-0.81673 c 0.65887,-1.44607 0.9436,-2.88357 0.63273,-3.19444 -0.94101,-0.94101 -4.80365,3.53897 -4.072,4.7228 1.0899,1.76349 2.15507,1.29015 3.43927,-1.52836 z m 75.75917,-1.068 c -0.40966,-0.40967 -1.16349,-0.0829 -1.67516,0.72619 -1.53967,2.43457 -1.07785,3.51652 0.72954,1.70913 0.92976,-0.92976 1.35529,-2.02565 0.94562,-2.43532 z m -18.80883,-1.31636 c 0.28852,-2.96167 0.14047,-3.20453 -1.25,-2.05054 -1.89367,1.57161 -2.16652,6.42423 -0.32727,5.82045 0.6875,-0.22569 1.39727,-1.92215 1.57727,-3.76991 z m -104.82727,-0.48641 c 3.06799,-3.16536 3.18969,-3.5 1.27289,-3.5 -2.18966,0 -8.27289,4.47729 -8.27289,6.08889 0,2.09015 3.84218,0.66915 7,-2.58889 z m 66.00518,1.7098 c 2.15771,-2.01021 5.41006,-9.1279 4.55953,-9.97842 -0.78518,-0.78518 -4.65089,2.88722 -5.54594,5.26862 -2.56527,6.82519 -2.35612,7.82384 0.98641,4.7098 z m 21.99482,0.2902 c 0,-0.825 -0.40186,-1.5 -0.89301,-1.5 -0.49116,0 -1.15203,0.675 -1.46862,1.5 -0.35062,0.91371 -0.002,1.5 0.89301,1.5 0.80774,0 1.46862,-0.675 1.46862,-1.5 z m 9.21331,-1.5 c 0.24217,-1.65 0.10038,-3 -0.31507,-3 -1.55834,0 -3.79186,3.11365 -3.24876,4.52894 0.96927,2.52589 3.10306,1.61047 3.56383,-1.52894 z m -78.84817,-0.0726 c 1.44917,-1.13992 2.63486,-2.48992 2.63486,-3 0,-1.86758 -2.69978,-0.85022 -5.5,2.07258 -3.41126,3.56059 -1.33627,4.23225 2.86514,0.92742 z m 26.38493,-2.90808 c -0.16926,-0.83564 0.71773,-2.3395 1.97109,-3.34192 2.2676,-1.81359 3.10501,-4.67742 1.36773,-4.67742 -1.69593,0 -6.41448,6.39147 -5.05347,6.84514 0.82765,0.27588 0.43594,1.06217 -1.13614,2.2806 -2.0377,1.5793 -2.17323,2.00854 -0.89928,2.84824 1.75608,1.1575 4.25233,-1.47492 3.75007,-3.95464 z m -37.03149,1.08592 c 2.60753,-1.8867 2.89829,-3.10526 0.74093,-3.10526 -1.81099,0 -7.45951,3.97955 -7.45951,5.25545 0,1.14305 3.88588,-0.10057 6.71858,-2.15019 z m 49.85711,0.64474 c 2.72545,-3.18673 4.42431,-6.43665 4.42431,-8.4637 0,-2.61928 -4.50895,2.23272 -6.47135,6.9637 -1.74796,4.21402 -0.84194,4.87793 2.04704,1.5 z m 18.33871,-1.75 c -0.0362,-0.98906 -0.34772,-0.81874 -0.9144,0.5 -1.18132,2.74908 -1.18132,4.32797 0,2.5 0.53316,-0.825 0.94464,-2.175 0.9144,-3 z m 16.08584,4.6e-4 c -1.07548,-0.66491 -1.67661,-0.4425 -2.12487,0.78616 -0.95254,2.61084 0.16315,3.60349 1.99295,1.77318 1.43644,-1.43683 1.45222,-1.74308 0.13192,-2.55934 z m 21.61976,2.54743 c 0.8161,-2.12673 -0.63103,-4.13856 -1.72969,-2.40465 -1.17921,1.86103 -1.10621,3.85676 0.14107,3.85676 0.56727,0 1.28214,-0.65345 1.58862,-1.45211 z m -30.62,-1.10691 c 0,-0.85746 -0.45,-1.2809 -1,-0.94098 -0.55,0.33992 -1,1.04148 -1,1.55902 0,0.51754 0.45,0.94098 1,0.94098 0.55,0 1,-0.70156 1,-1.55902 z m 19,-3.71544 c 0,-3.3321 -2.48857,-1.21773 -2.76763,2.35147 -0.25259,3.23059 -0.18233,3.31388 1.25,1.48186 0.8347,-1.06762 1.51763,-2.79262 1.51763,-3.83333 z m -118.22917,2.46196 c 0.21771,-0.65312 -0.31666,-1.1875 -1.1875,-1.1875 -0.87083,0 -1.58333,0.7125 -1.58333,1.58333 0,1.76593 2.15276,1.45839 2.77083,-0.39583 z m 5.08593,0.92219 c 1.03091,-0.65322 1.06791,-1.03821 0.15404,-1.60301 -0.66262,-0.40953 -1.92945,-0.0166 -2.82105,0.875 -1.34935,1.34935 -1.37495,1.61577 -0.15404,1.60301 0.80536,-0.008 2.07483,-0.40218 2.82105,-0.875 z m 51.10806,-1.04395 c 1.50272,-2.80786 1.28657,-3.27065 -0.96482,-2.06574 -1.1,0.5887 -2,1.72953 -2,2.53518 0,2.08759 1.74413,1.81143 2.96482,-0.46944 z m 69.46375,0.36283 c 1.69489,-1.69489 2.12321,-4.42857 0.69387,-4.42857 -1.06796,0 -2.59343,1.88695 -3.43582,4.25 -0.77544,2.17525 0.65229,2.26823 2.74195,0.17857 z m -93.80199,-1.63337 c 0.33415,-0.54067 -0.4062,-0.81679 -1.68726,-0.6293 -1.25547,0.18376 -2.45611,0.86119 -2.6681,1.50541 -0.45691,1.38856 3.44021,0.60462 4.35536,-0.87611 z m 34.37342,0.2048 c 1.1,-1.1 2,-2.74474 2,-3.65499 0,-1.4639 -0.24161,-1.43633 -2.09262,0.23881 -1.15095,1.04159 -2.51678,2.68634 -3.03519,3.65499 -1.30334,2.43532 0.59892,2.29008 3.12781,-0.23881 z m 30.38606,-1.40113 c 2.21898,-4.67616 2.09712,-6.55058 -0.26466,-4.07109 -2.08069,2.18438 -3.67605,7.47222 -2.25439,7.47222 0.49781,0 1.63138,-1.53051 2.51905,-3.40113 z m 8.57876,1.46687 c 0.56935,-1.06384 1.03518,-2.96027 1.03518,-4.21428 0,-1.99419 -0.1798,-2.09646 -1.4342,-0.81575 -1.89118,1.93087 -3.12664,6.96429 -1.70939,6.96429 0.59027,0 1.53906,-0.87042 2.10841,-1.93426 z m -50.96482,-3.37572 c 0,-0.54999 -0.9,-0.18551 -2,0.80998 -1.1,0.99549 -2,2.25997 -2,2.80998 0,0.54999 0.9,0.18551 2,-0.80998 1.1,-0.99549 2,-2.25998 2,-2.80998 z m 68,-0.31246 c 0,-1.88219 -1.6463,-1.74168 -2.39301,0.20423 -1.05872,2.75898 -0.6972,3.73796 0.89301,2.41821 0.825,-0.68469 1.5,-1.86479 1.5,-2.62244 z m -41.14383,1.29574 c 0.60558,-0.72968 1.78585,-2.96562 2.62281,-4.96875 1.29873,-3.10831 1.31066,-3.56106 0.0814,-3.08934 -1.67831,0.64403 -3.96736,3.92115 -4.98361,7.13479 -0.7834,2.4773 0.54362,3.01482 2.27942,0.9233 z m 9.57038,-1.20155 c 1.58455,-2.41833 1.4065,-4.47175 -0.38774,-4.47175 -0.6722,0 -3.03881,5.17839 -3.03881,6.64922 0,1.23956 2.03492,-0.0536 3.42655,-2.17747 z m 22.07345,1.52825 c 0.33992,-0.55 0.14148,-1 -0.44098,-1 -0.58246,0 -1.05902,0.45 -1.05902,1 0,0.55 0.19844,1 0.44098,1 0.24254,0 0.7191,-0.45 1.05902,-1 z m -9.24381,-5.55984 c 0.30484,-1.59468 0.007,-2.44016 -0.85968,-2.44016 -1.64735,0 -3.39651,3.13588 -3.39651,6.08925 0,2.11631 0.0891,2.1401 1.89486,0.5059 1.04218,-0.94316 2.10477,-2.8129 2.36133,-4.15499 z m 6.62074,1.93061 c 1.23719,-2.71534 0.7541,-4.44939 -0.7812,-2.8041 -1.3636,1.46129 -2.33124,5.43333 -1.32363,5.43333 0.49878,0 1.44595,-1.18315 2.10483,-2.62923 z m -49.87693,-0.47776 c 0,-1.43762 -1.73512,-1.02567 -2.34208,0.55606 -0.37166,0.96852 -0.0755,1.26467 0.89301,0.89301 0.79699,-0.30583 1.44907,-0.95791 1.44907,-1.44907 z m 58.8455,-1.34104 c 0.221,-1.14002 -0.13937,-1.62085 -1,-1.33427 -0.74002,0.24642 -1.50098,1.25007 -1.691,2.23033 -0.221,1.14002 0.13937,1.62085 1,1.33427 0.74002,-0.24642 1.50098,-1.25007 1.691,-2.23033 z m -47.7367,-1.75527 c 0.57928,-1.08239 0.83703,-2.1842 0.57277,-2.44846 -0.56401,-0.56401 -4.68157,3.66558 -4.68157,4.80894 0,1.39827 3.02824,-0.34144 4.1088,-2.36048 z m 18.78602,-1.92481 c 1.39233,-3.99406 1.40187,-3.92297 -0.43181,-3.21932 -1.56462,0.6004 -4.46301,5.3626 -4.46301,7.33295 0,2.22569 3.79744,-0.96571 4.89482,-4.11363 z m 5.10518,3.56909 c 0,-0.85746 0.46971,-1.26872 1.0438,-0.91391 1.54156,0.95274 3.9612,-1.45246 3.92293,-3.89951 l -0.0333,-2.12756 -1.80387,2.15967 c -0.99214,1.18781 -2.31762,1.84215 -2.94553,1.45408 -0.78247,-0.48358 -0.51908,-1.23864 0.83714,-2.39988 2.09455,-1.7934 2.59176,-4.21701 1.05942,-5.16404 -0.50566,-0.31252 -1.60484,0.11725 -2.44263,0.95504 -1.65934,1.65934 -2.1231,11.49513 -0.542,11.49513 0.49721,0 0.90401,-0.70156 0.90401,-1.55902 z m -14.3876,-2.97219 c 0.91219,-1.39216 1.38343,-2.80629 1.04722,-3.1425 -0.7634,-0.76341 -3.4463,1.4066 -4.7494,3.84147 -1.56883,2.93138 1.73179,2.30823 3.70218,-0.69897 z m 27.4966,-0.78395 c 0.39492,-1.47666 0.39695,-2.68484 0.005,-2.68484 -1.36172,0 -3.11352,2.41 -3.11352,4.28333 0,2.72424 2.26427,1.56007 3.109,-1.59849 z m 7.76793,0.68593 c 0.65887,-1.44607 0.95886,-2.86831 0.66664,-3.16053 -0.78844,-0.78845 -4.54357,2.88501 -4.54357,4.44475 0,2.32978 2.62672,1.45969 3.87693,-1.28422 z m -37.31427,-4.49195 c 1.93478,-3.74144 0.17493,-3.72341 -2.49457,0.0255 -2.46861,3.46685 -2.58662,4.23184 -0.53111,3.44306 0.84535,-0.32438 2.2069,-1.88526 3.02568,-3.46861 z m 41.27144,1.18186 c 0.40491,-2.76655 -1.36774,-1.95206 -2.13471,0.98084 -0.34543,1.32095 -0.1172,1.9329 0.6293,1.68726 0.64422,-0.21199 1.32165,-1.41263 1.50541,-2.6681 z m -33.2217,-0.59189 c 0.91219,-1.39216 1.41006,-2.77966 1.10639,-3.08333 -0.68865,-0.68865 -4.71879,3.25245 -4.71879,4.61454 0,1.8452 1.93848,1.02353 3.6124,-1.53121 z m 18.22175,-0.34039 c 0.42487,-2.98956 -1.80789,-2.43168 -2.98316,0.74537 -0.68765,1.85891 -0.5236,2.21046 0.9045,1.93828 0.95948,-0.18286 1.89488,-1.39051 2.07866,-2.68365 z m 7.16585,1.95339 c 0,-0.50502 0.2751,-1.63512 0.61134,-2.51134 0.44745,-1.16604 0.17937,-1.42737 -1,-0.9748 -1.73981,0.66763 -2.25848,4.40435 -0.61134,4.40435 0.55,0 1,-0.4132 1,-0.91821 z m -3.2,-3.28179 c 1.53171,-1.53171 1.56419,-4.08806 0.0455,-3.58183 -1.33584,0.44528 -3.16164,4.78183 -2.01328,4.78183 0.42228,0 1.30778,-0.54 1.96778,-1.2 z m 8.1721,-0.26638 c 1.89196,-2.27967 0.77126,-4.13413 -1.26674,-2.09612 -1.84071,1.84071 -2.2408,3.5625 -0.8278,3.5625 0.48265,0 1.42519,-0.65987 2.09454,-1.46638 z m -32.5288,-1.75613 c 2.38329,-3.40263 1.85208,-4.40362 -0.9433,-1.77749 -1.375,1.29174 -2.5,2.72019 -2.5,3.17431 0,1.58056 1.89682,0.81108 3.4433,-1.39682 z m 6.5567,0.66349 c 0,-0.85746 -0.45,-1.2809 -1,-0.94098 -0.55,0.33992 -1,1.04148 -1,1.55902 0,0.51754 0.45,0.94098 1,0.94098 0.55,0 1,-0.70156 1,-1.55902 z m 12.96456,-4.81342 c 0.0195,-0.47985 -0.63956,-0.31225 -1.46456,0.37244 -0.825,0.68469 -1.48405,2.20229 -1.46456,3.37244 0.0334,2.00407 0.11838,1.98245 1.46456,-0.37244 0.78602,-1.375 1.44508,-2.8926 1.46456,-3.37244 z m 11.03544,0.098 c 0,-2.01636 -2.52158,0.11819 -2.7794,2.35279 -0.27057,2.34514 -0.23106,2.36032 1.25,0.48054 0.84117,-1.06762 1.5294,-2.34262 1.5294,-2.83333 z m 6.41655,2.63133 c 0.83718,-2.18165 -0.27438,-3.1957 -1.45561,-1.32791 -1.18254,1.86986 -1.20771,2.97104 -0.0679,2.97104 0.49116,0 1.17675,-0.73941 1.52354,-1.64313 z m -14.3918,-1.92197 c 1.19935,-3.15452 1.20531,-3.4349 0.0731,-3.4349 -0.4962,0 -1.37279,1.35 -1.94799,3 -1.30013,3.72955 0.46649,4.13934 1.87491,0.4349 z m -15.02475,-3.54568 c 0,-0.48907 -0.37777,-0.88922 -0.83949,-0.88922 -0.81969,0 -3.19336,4.40013 -3.12724,5.79705 0.0477,1.00858 3.96673,-3.8402 3.96673,-4.90783 z m 27.04584,2.02513 c 0.61391,-1.1471 0.81795,-2.38389 0.45342,-2.74842 -0.6784,-0.67841 -3.49926,2.56643 -3.49926,4.0252 0,1.58904 1.94944,0.77185 3.04584,-1.27678 z m -18.47084,-2.67269 c -1.01571,-1.01571 -2.85483,1.49655 -2.04949,2.79962 0.55137,0.89214 1.00489,0.76233 1.70454,-0.48787 0.5243,-0.93688 0.67953,-1.97716 0.34495,-2.31175 z m 10.40969,0.44932 c -0.0125,-1.78123 -0.1966,-1.91046 -0.98469,-0.69098 -1.27319,1.97012 -1.27319,4.28687 0,3.5 0.55,-0.33992 0.99311,-1.60398 0.98469,-2.80902 z m 12.88065,-1.24201 c 0.31608,-1.6311 0.14754,-1.70455 -1.25,-0.54469 -1.91126,1.5862 -2.14923,3.44015 -0.36534,2.84619 0.6875,-0.22891 1.4144,-1.26459 1.61534,-2.3015 z m -18.87114,-5.16873 c 1.30789,-1.66272 1.71658,-2.87665 1.04393,-3.10086 -1.47783,-0.49261 -3.14966,1.00533 -5.40119,4.83943 -1.85142,3.15274 -1.85034,3.16577 0.17244,2.0832 1.11954,-0.59915 3.0027,-2.31895 4.18482,-3.82177 z m 16.39899,2.45821 c 1.5115,-2.39624 -0.30081,-3.58528 -1.97495,-1.29575 -0.78003,1.06676 -1.41824,2.34105 -1.41824,2.83176 0,1.33788 2.212,0.33656 3.39319,-1.53601 z m -22.39319,-0.85648 c 0,-0.55 -0.45,-0.72189 -1,-0.38197 -0.55,0.33992 -1,1.06803 -1,1.61803 0,0.55 0.45,0.72189 1,0.38197 0.55,-0.33992 1,-1.06803 1,-1.61803 z m -65.01078,-1.36898 c 0.70782,-0.85287 0.96514,-2.55869 0.60339,-4 -0.53069,-2.11446 -0.2813,-2.51299 1.57261,-2.51299 1.21183,0 4.1602,0.94731 6.55193,2.10512 4.96441,2.40323 9.95778,2.01655 12.6707,-0.9812 1.02374,-1.13122 2.55261,-1.6668 3.97946,-1.39404 4.62086,0.88334 5.35702,-1.39857 5.07397,-15.72782 -0.14292,-7.23468 -0.53638,-13.4305 -0.87437,-13.76849 -0.33799,-0.33799 -1.35132,0.12227 -2.25184,1.02279 -1.11365,1.11364 -1.66574,3.49338 -1.72619,7.44048 -0.0854,5.57396 -0.18762,5.79268 -2.58888,5.53778 -1.375,-0.14595 -5.73475,-1.83345 -9.68833,-3.75 -3.95359,-1.91654 -8.0811,-3.48462 -9.17226,-3.48462 -2.53104,0 -10.52608,6.05375 -10.95817,8.29739 -0.47839,2.48412 1.19512,2.10098 6.18458,-1.41592 l 4.42429,-3.11853 3.10494,1.83414 c 1.70772,1.00877 3.10495,2.18711 3.10495,2.61853 0,0.43141 -2.37985,0.78439 -5.28856,0.78439 -6.43535,0 -12.32467,2.76137 -15.04179,7.05277 -2.98461,4.71387 -0.77487,5.85652 3.71022,1.91856 3.86081,-3.38983 10.45778,-5.53368 12.06925,-3.92221 0.60117,0.60117 -0.37509,0.95088 -2.65451,0.95088 -6.31135,0 -15.89301,9.77962 -10.58348,10.80214 1.16184,0.22375 2.28583,-0.89538 3.50143,-3.4863 1.46249,-3.11714 2.38513,-3.87322 5.03887,-4.1292 1.92131,-0.18533 3.24857,0.14521 3.24857,0.80902 0,0.61731 -0.45403,0.84177 -1.00895,0.49881 -3.29914,-2.03898 -7.80813,4.11388 -6.58528,8.98612 0.72011,2.86912 1.80073,3.18045 3.58345,1.0324 z m 20.01078,-13.76284 c 0,-0.89767 0.47994,-1.92874 1.06653,-2.29127 1.71501,-1.05993 1.88329,-0.11074 0.35171,1.98382 -1.1861,1.62209 -1.41824,1.67241 -1.41824,0.30745 z m 60.36163,13.74985 c 0.31658,-0.825 0.13972,-1.5 -0.39301,-1.5 -0.53274,0 -0.96862,0.675 -0.96862,1.5 0,0.825 0.17686,1.5 0.39301,1.5 0.21616,0 0.65203,-0.675 0.96862,-1.5 z m 12.03206,-0.0836 c 0.37373,-0.97391 0.15024,-1.43108 -0.58051,-1.1875 -1.49484,0.49828 -2.31789,2.77106 -1.0035,2.77106 0.53699,0 1.24979,-0.7126 1.58401,-1.58356 z m -7.39369,-2.47546 c 0,-0.51754 -0.45,-0.94098 -1,-0.94098 -0.55,0 -1,0.70156 -1,1.55902 0,0.85746 0.45,1.2809 1,0.94098 0.55,-0.33992 1,-1.04148 1,-1.55902 z m 9.5,-1.94098 c 0.33992,-0.55 0.14148,-1 -0.44098,-1 -0.58246,0 -1.05902,0.45 -1.05902,1 0,0.55 0.19844,1 0.44098,1 0.24254,0 0.7191,-0.45 1.05902,-1 z m -89.5,-18 c 0,-0.55 -0.675,-1 -1.5,-1 -0.825,0 -1.5,0.45 -1.5,1 0,0.55 0.675,1 1.5,1 0.825,0 1.5,-0.45 1.5,-1 z m 125.39273,-5.25 c 2.51196,-2.25692 9.34145,-20.34915 8.13634,-21.55426 -0.32166,-0.32166 -7.61844,-0.6098 -16.21507,-0.64029 l -15.63022,-0.0555 -0.95157,2.82903 c -0.79865,2.37441 -0.61254,3.06649 1.15811,4.3067 1.67715,1.17472 2.10968,2.52295 2.10968,6.57596 0,4.93148 0.0617,5.04246 1.88522,3.39218 1.03688,-0.93835 2.16455,-3.10271 2.50594,-4.80968 0.82442,-4.12207 2.34314,-5.79419 5.26267,-5.79419 3.27111,0 3.83724,2.11054 2.00698,7.48207 -0.84668,2.48486 -1.38673,4.51793 -1.20011,4.51793 0.18661,0 1.95367,-1.61438 3.9268,-3.5875 1.97312,-1.97313 4.15562,-3.40038 4.85,-3.17167 2.13006,0.70157 2.05023,4.87871 -0.15011,7.85483 -3.6674,4.96043 -2.1745,6.67934 2.30534,2.65434 z m -2.33527,-4.85736 c 0.8201,-1.53237 0.82775,-2.40743 0.028,-3.20714 -1.48933,-1.48933 -4.57885,1.58648 -3.75363,3.73696 0.84033,2.18985 2.38784,1.96978 3.72559,-0.52982 z m -8.08888,-6.97597 c 0.0458,-2.30954 -0.99248,-2.97424 -2.98241,-1.90927 -2.11858,1.13383 -3.12506,3.46709 -2.35792,5.46622 0.48516,1.26429 0.90238,1.22878 2.93719,-0.25 1.30444,-0.94799 2.38585,-2.43612 2.40314,-3.30695 z m -90.7164,164.58333 c 0.0111,-2.2 0.21589,-2.98225 0.45508,-1.73834 0.23919,1.24391 0.23011,3.04391 -0.0202,4 -0.25029,0.95609 -0.446,-0.0617 -0.4349,-2.26166 z m -32.17323,-5.08333 c 0.048,-1.16495 0.28494,-1.4019 0.60416,-0.60417 0.28887,0.72187 0.25335,1.58437 -0.0789,1.91667 -0.33229,0.33229 -0.56864,-0.25834 -0.52522,-1.3125 z m 14,0 c 0.048,-1.16495 0.28494,-1.4019 0.60416,-0.60417 0.28887,0.72187 0.25335,1.58437 -0.0789,1.91667 -0.33229,0.33229 -0.56864,-0.25834 -0.52522,-1.3125 z m -5.884,-2.91667 c 0.0204,-1.65 0.2445,-2.20394 0.49804,-1.23097 0.25354,0.97297 0.23687,2.32297 -0.0371,3 -0.27393,0.67703 -0.48137,-0.11903 -0.46099,-1.76903 z m -35.116,-0.0833 c 0.048,-1.16495 0.28494,-1.4019 0.60416,-0.60417 0.28887,0.72187 0.25335,1.58437 -0.0789,1.91667 -0.33229,0.33229 -0.56864,-0.25834 -0.52522,-1.3125 z m 28.007,-0.6667 c -0.0473,-0.9625 -0.64845,-1.76431 -1.33595,-1.7818 -0.79207,-0.0202 -0.63819,-0.49706 0.42004,-1.30178 0.91853,-0.69849 2.11544,-2.82167 2.65981,-4.7182 0.77782,-2.7098 1.00909,-2.94348 1.07996,-1.09123 0.0686,1.79367 0.50844,2.21145 1.84019,1.74803 1.21989,-0.42449 1.04427,-0.0101 -0.57977,1.3679 -1.28137,1.08726 -2.70519,3.22565 -3.16404,4.75196 -0.47537,1.58123 -0.87126,2.02225 -0.92024,1.02512 z m 57.993,-2.33333 c 0.048,-1.16495 0.28494,-1.4019 0.60416,-0.60417 0.28887,0.72187 0.25335,1.58437 -0.0789,1.91667 -0.33229,0.33229 -0.56864,-0.25834 -0.52522,-1.3125 z m -85,-1 c 0.048,-1.16495 0.28494,-1.4019 0.60416,-0.60417 0.28887,0.72187 0.25335,1.58437 -0.0789,1.91667 -0.33229,0.33229 -0.56864,-0.25834 -0.52522,-1.3125 z m 42,-3 c 0.048,-1.16495 0.28494,-1.4019 0.60416,-0.60417 0.28887,0.72187 0.25335,1.58437 -0.0789,1.91667 -0.33229,0.33229 -0.56864,-0.25834 -0.52522,-1.3125 z m -32,-2 c 0.048,-1.16495 0.28494,-1.4019 0.60416,-0.60417 0.28887,0.72187 0.25335,1.58437 -0.0789,1.91667 -0.33229,0.33229 -0.56864,-0.25834 -0.52522,-1.3125 z m 103.65022,-0.0208 c -0.40104,-0.40108 -0.72917,-1.4192 -0.72917,-2.26254 0,-1.12559 0.29583,-1.2375 1.1125,-0.42083 0.61187,0.61187 0.94,1.63 0.72917,2.2625 -0.21084,0.6325 -0.71146,0.82187 -1.1125,0.42083 z M 514.99845,280.65605 c -0.31644,-0.512 -0.11799,-1.21355 0.44098,-1.55902 0.55897,-0.34546 1.01631,0.0734 1.01631,0.9309 0,1.75653 -0.60006,2.01516 -1.45729,0.62812 z m 0.0573,-12.3191 c 0.16191,-5.0875 0.31815,-11.6125 0.3472,-14.5 0.0519,-5.15493 0.10716,-5.25 3.05283,-5.25 1.65,0 3,0.45 3,1 0,0.55 -1.125,1 -2.5,1 l -2.5,0 0,13.5 c 0,7.425 -0.38124,13.5 -0.84721,13.5 -0.46596,0 -0.71473,-4.1625 -0.55282,-9.25 z m 9.40003,-18.80902 c 0,-0.58246 0.45,-0.7809 1,-0.44098 0.55,0.33992 1,0.81648 1,1.05902 0,0.24254 -0.45,0.44098 -1,0.44098 -0.55,0 -1,-0.47656 -1,-1.05902 z m 10.77643,0.32552 c 2.35204,-0.21124 5.95204,-0.20827 8,0.007 2.04797,0.21488 0.12357,0.38772 -4.27643,0.38409 -4.4,-0.004 -6.07561,-0.17944 -3.72357,-0.39069 z"
       id="path4213"
       inkscape:connector-curvature="0" />
  </g>
</svg>
