<?xml version="1.0" encoding="UTF-8" standalone="no"?>
<!-- Created with Inkscape (http://www.inkscape.org/) -->

<svg
   xmlns:dc="http://purl.org/dc/elements/1.1/"
   xmlns:cc="http://creativecommons.org/ns#"
   xmlns:rdf="http://www.w3.org/1999/02/22-rdf-syntax-ns#"
   xmlns:svg="http://www.w3.org/2000/svg"
   xmlns="http://www.w3.org/2000/svg"
   xmlns:sodipodi="http://sodipodi.sourceforge.net/DTD/sodipodi-0.dtd"
   xmlns:inkscape="http://www.inkscape.org/namespaces/inkscape"
   width="54.667274mm"
   height="55.009281mm"
   viewBox="0 0 193.70294 194.91477"
   id="svg2"
   version="1.1"
   inkscape:version="0.91 r13725"
   sodipodi:docname="frosty_boy.svg">
  <defs
     id="defs4" />
  <sodipodi:namedview
     id="base"
     pagecolor="#ffffff"
     bordercolor="#666666"
     borderopacity="1.0"
     inkscape:pageopacity="0.0"
     inkscape:pageshadow="2"
     inkscape:zoom="1.979899"
     inkscape:cx="-11.44808"
     inkscape:cy="111.94592"
     inkscape:document-units="px"
     inkscape:current-layer="layer1"
     showgrid="false"
     fit-margin-top="0"
     fit-margin-left="0"
     fit-margin-right="0"
     fit-margin-bottom="0"
     inkscape:window-width="1366"
     inkscape:window-height="744"
     inkscape:window-x="0"
     inkscape:window-y="24"
     inkscape:window-maximized="1" />
  <metadata
     id="metadata7">
    <rdf:RDF>
      <cc:Work
         rdf:about="">
        <dc:format>image/svg+xml</dc:format>
        <dc:type
           rdf:resource="http://purl.org/dc/dcmitype/StillImage" />
        <dc:title />
      </cc:Work>
    </rdf:RDF>
  </metadata>
  <g
     inkscape:label="Layer 1"
     inkscape:groupmode="layer"
     id="layer1"
     transform="translate(-87.926688,-328.94748)">
    <rect
       style="opacity:0.7;fill:#ffffff"
       id="rect4134"
       width="193.44421"
       height="192.93913"
       x="87.926689"
       y="328.9028"
       ry="5.5558405" />
    <path
       style="fill:#000000"
       d="m 261.25165,523.34344 c -0.17873,-0.17287 -38.96975,-0.4691 -86.20228,-0.65829 -56.04704,-0.2245 -85.996282,-0.69135 -86.219802,-1.34399 -0.18836,-0.55 -0.46857,-44.06358 -0.62268,-96.69684 l -0.2802,-95.69684 4,0.4146 c 2.2,0.22804 45.368072,0.65968 95.929042,0.95922 50.56097,0.29953 92.10661,0.72217 92.32363,0.9392 0.21703,0.21703 0.63212,43.6412 0.92243,96.49817 l 0.52784,96.10358 -10.02652,-0.10226 c -5.51458,-0.0562 -10.17274,-0.24369 -10.35146,-0.41655 z m 18.31355,-4.7344 c 0.19882,-1.79733 0.22448,-13.0199 0.057,-24.93905 l -0.30447,-21.67116 -3.01485,-1.05098 c -3.15135,-1.09857 -11.28455,-2.20323 -31.30255,-4.25156 -12.70942,-1.30048 -10.90826,-1.52037 -28.57365,3.48825 -4.17796,1.18457 -4.52203,1.53695 -4.80784,4.92391 -0.16931,2.00642 0.19163,4.58131 0.80209,5.72198 l 1.10994,2.07393 2.69791,-2.11368 c 1.48384,-1.16253 3.37533,-3.53925 4.20329,-5.28161 2.49467,-5.24974 7.93714,-4.67982 7.9793,0.83557 0.008,1.10191 1.59031,5.25011 3.51531,9.21822 5.82661,12.01071 4.5795,15.42375 -5.87911,16.0897 -7.34942,0.46798 -8.25731,-0.44061 -4.46929,-4.47277 1.75751,-1.87079 1.98646,-2.82319 1.25,-5.19995 l -0.90159,-2.90969 -12.5,10.4569 c -6.875,5.7513 -14.89602,11.59811 -17.82449,12.99292 -5.20012,2.47677 -5.425,2.49762 -9.62754,0.89266 -2.36667,-0.90384 -5.05872,-2.47836 -5.98232,-3.49893 -0.9458,-1.04509 -2.48667,-1.64445 -3.52775,-1.3722 -2.62039,0.68525 -8.51434,-2.35354 -10.0194,-5.16577 -1.83609,-3.43077 -0.70257,-7.79715 5.06395,-19.50646 2.77289,-5.63056 4.79302,-10.48598 4.48917,-10.78982 -1.04986,-1.04986 -10.10009,-2.11913 -18.07162,-2.13513 -7.26008,-0.0146 -9.74935,0.31387 -18.8397,2.48581 -1.96761,0.47011 -3.96381,0.0679 -6.5,-1.30981 -7.00844,-3.80702 -15.95233,-5.58301 -24.52039,-4.869 -4.323052,0.36025 -9.415812,1.30502 -11.317242,2.09948 l -3.45713,1.44449 0.22427,18.27293 c 0.12335,10.05012 0.43858,21.30353 0.7005,25.00759 l 0.47623,6.73466 28.116732,0.26534 c 15.4642,0.14594 57.87906,0.3859 94.25524,0.53323 l 66.1385,0.26789 0.3615,-3.26789 z m -89.08366,-7.1489 c 3.62041,-1.52226 29.98328,-23.00067 31.91641,-26.003 0.94152,-1.46227 0.94469,-2.04989 0.0142,-2.625 -0.65942,-0.40754 -0.79191,-0.99254 -0.29443,-1.3 1.98713,-1.22811 2.93449,1.11085 2.8733,7.0939 -0.0692,6.7709 1.29034,8.89848 4.5661,7.14534 2.36954,-1.26813 2.65381,-1.19486 3.18029,0.81978 0.25153,0.9625 0.50953,0.35085 0.57333,-1.35923 0.0638,-1.71008 -1.16982,-5.53508 -2.74137,-8.5 -1.57155,-2.96492 -3.16694,-7.07827 -3.54531,-9.14077 -0.88312,-4.81388 -2.66423,-4.75839 -5.93554,0.1849 -1.73736,2.62533 -4.86008,5.16707 -9.38289,7.63722 -13.22477,7.22275 -14.54227,8.54418 -17.6254,17.67788 -0.3249,0.9625 -1.06088,1.75 -1.63553,1.75 -1.34878,0 0.99958,-5.62501 5.78455,-13.85568 5.88578,-10.1242 12.08879,-21.57581 12.14543,-22.42217 0.0935,-1.39657 -13.37495,0.47557 -15.26193,2.12144 -4.53357,3.95429 -19.37236,33.92542 -18.24767,36.85632 0.64141,1.67149 6.58567,5.29153 8.69685,5.29635 0.89935,0.002 3.1132,-0.61772 4.91966,-1.37728 z m -12.2399,-14.36898 c 2.61674,-5.3625 6.84427,-13.45471 9.39449,-17.98269 l 4.63678,-8.2327 -4.5639,-4.0173 c -2.51014,-2.20952 -5.08047,-4.01731 -5.71182,-4.01731 -2.44725,0 -17.42802,28.51888 -18.26717,34.77519 -0.60545,4.51396 0.54899,6.80881 4.16195,8.27329 4.67081,1.89326 5.45965,1.22265 10.34967,-8.79848 z m 45.72617,1.68347 c 1.07627,-1.74144 -0.14952,-2.11024 -1.52106,-0.45764 -0.78875,0.95039 -0.86462,1.52417 -0.20152,1.52417 0.58488,0 1.36004,-0.47994 1.72258,-1.06653 z m -16.48891,-12.9601 c 3.53371,-1.80277 3.90102,-2.32747 3.32521,-4.75 -1.29429,-5.4453 -1.93521,-5.4492 -4.94319,-0.0301 -4.49005,8.08917 -4.54575,7.92461 1.61798,4.78011 z m -70.05647,-14.58834 c 4.48507,-1.79457 22.77719,-2.44386 31.59639,-1.12153 l 5.09213,0.7635 3.15787,-5.07994 c 1.73683,-2.79398 3.15787,-5.2847 3.15787,-5.53495 0,-0.25024 1.18812,-2.25036 2.64026,-4.4447 2.46272,-3.72141 2.60467,-4.54372 2.11092,-12.22856 -0.50797,-7.90631 -2.16001,-13.73885 -3.89146,-13.73885 -0.45058,0 -2.65044,0.7327 -4.88855,1.62821 -3.98046,1.59267 -4.12457,1.57631 -6.59985,-0.7491 -2.41273,-2.26664 -2.5209,-2.84292 -2.32347,-12.37821 0.1139,-5.5005 -0.14104,-13.70128 -0.56653,-18.22397 -0.63883,-6.79053 -0.46343,-9.03525 1.00684,-12.88509 1.56724,-4.10376 1.60044,-4.76275 0.27727,-5.50323 -0.82673,-0.46267 -2.06676,-2.20188 -2.75561,-3.86491 -0.68885,-1.66304 -1.87287,-3.0237 -2.63114,-3.0237 -0.80848,0 -1.37868,-1.04693 -1.37868,-2.53138 0,-1.39227 -0.675,-2.79041 -1.5,-3.10699 -2.09913,-0.80552 -1.86781,-2.03218 0.5,-2.65138 1.72397,-0.45083 2,-1.36402 2,-6.61663 0,-4.74988 0.33077,-6.09362 1.5,-6.09362 0.825,0 1.5,-0.69735 1.5,-1.54966 0,-1.69593 2.83379,-7.65048 4.02154,-8.45034 0.40837,-0.275 1.58393,-2.3 2.61236,-4.5 1.42233,-3.04263 2.52761,-4.07573 4.61798,-4.31642 1.51147,-0.17403 2.74812,-0.88886 2.74812,-1.5885 0,-0.98871 -7.05296,-1.41942 -31.66308,-1.93357 -17.41469,-0.36383 -37.66469,-0.66151 -45,-0.66151 l -13.336922,0 0,68.5 c 0,54.14259 0.262,68.49636 1.25,68.48264 0.6875,-0.01 4.22712,-0.64842 7.86582,-1.4197 9.581202,-2.0309 23.884782,0.0276 31.204552,4.49081 3.8035,2.31917 2.81388,2.27646 7.67537,0.33128 z m -31.94857,-14.5495 c 1.13255,-3.94896 0.67065,-4.48362 -2.59,-2.99797 -3.076962,1.40196 -3.457172,1.42899 -3.457172,0.24577 0,-0.50416 1.237502,-1.36864 2.750002,-1.92105 1.5125,-0.55241 2.1875,-1.03991 1.5,-1.08333 -0.6875,-0.0434 -1.25,-0.55927 -1.25,-1.14634 0,-0.61011 0.85155,-0.79712 1.9877,-0.43651 1.7732,0.56279 1.93005,0.27331 1.45352,-2.68262 l -0.53418,-3.31348 1.37301,3 1.37301,3 0.70279,-2.7909 c 0.38653,-1.53499 1.14081,-2.52018 1.67617,-2.18931 0.62482,0.38616 0.60172,1.29605 -0.0645,2.5409 -1.26702,2.36745 -0.65906,2.43853 2.59887,0.30385 1.37281,-0.8995 2.7262,-1.40529 3.00752,-1.12397 0.28132,0.28132 -1.12817,1.47891 -3.1322,2.66132 -3.02331,1.7838 -3.43538,2.40081 -2.42025,3.62397 0.73382,0.88419 0.8117,1.47414 0.1946,1.47414 -0.56585,0 -0.81499,1.0125 -0.55364,2.25 0.41864,1.98224 0.34208,2.04174 -0.64331,0.5 -1.48369,-2.32139 -3.01911,-2.22427 -3.01911,0.19098 0,1.06754 -0.42108,2.20123 -0.93573,2.5193 -0.57932,0.35804 -0.58583,-0.64171 -0.0171,-2.62475 z M 146.67669,452.81 c -4.96132,-1.99421 -0.80947,-9.35506 4.95107,-8.7778 4.20625,0.42151 5.42885,3.73843 2.6705,7.2451 -2.11206,2.68505 -3.87343,3.03927 -7.62157,1.5327 z m 6.71013,-2.4208 c 3.06155,-3.68894 -1.91651,-7.4488 -5.33548,-4.02983 -2.71492,2.71492 -2.08253,5.48179 1.2529,5.48179 1.58266,0 3.41982,-0.65338 4.08258,-1.45196 z m -33.83656,-33.89915 c -1.81884,-2.19156 -1.65579,-5.93933 0.41057,-9.4374 1.69691,-2.87264 2.29597,-3.1902 4.94825,-2.62309 1.65969,0.35488 3.04131,0.70516 3.07027,0.77842 0.029,0.0733 0.81139,1.3471 1.73872,2.83078 1.76166,2.81855 1.45294,5.08179 -1.09837,8.0524 -1.78791,2.08175 -7.46555,2.33146 -9.06944,0.39889 z m 7.9164,-1.48017 c 3.28868,-2.66302 1.70756,-8.19804 -2.73798,-9.58482 -3.99334,-1.24573 -7.23603,8.19024 -3.55199,10.336 2.51264,1.46348 3.7353,1.31746 6.28997,-0.75118 z m 19.33323,-2.49851 c 0.62337,-2.50229 0.47573,-2.75704 -1.27565,-2.20117 -1.55857,0.49467 -1.94772,0.19204 -1.82628,-1.42021 0.0902,-1.19784 0.85777,-2.04883 1.84791,-2.04883 1.26143,0 1.54563,-0.57413 1.11379,-2.25 -0.49368,-1.91581 -0.35472,-2.06563 0.93562,-1.00868 0.83349,0.68273 1.81152,0.94523 2.17342,0.58334 0.36189,-0.3619 0.65799,-0.13299 0.65799,0.50867 0,0.64167 0.7875,1.17356 1.75,1.18198 1.48463,0.013 1.52386,0.15828 0.25874,0.95812 -0.82019,0.51855 -1.53915,1.52416 -1.59768,2.23469 -0.0585,0.71054 -0.17497,2.15438 -0.25875,3.20855 -0.0838,1.05416 -0.44841,1.62057 -0.8103,1.25867 -0.3619,-0.36189 -1.33654,-0.0994 -2.16587,0.58334 -1.30178,1.07165 -1.41153,0.85453 -0.80294,-1.58847 z m -15.1621,-32.92021 c -1.59754,-1.93167 -0.29574,-6.75 1.82369,-6.75 3.24916,0 4.96521,1.17751 4.96521,3.40699 0,3.99193 -4.44287,6.1797 -6.7889,3.34301 z m 5.21746,-2.08799 c 0.81327,-1.30475 0.71,-1.94935 -0.42856,-2.67516 -2.51677,-1.6044 -4,-1.10511 -4,1.34648 0,4.02544 2.31475,4.71992 4.42856,1.32868 z M 107.43726,360.3539 c -0.73708,-0.88813 -0.91695,-2.19738 -0.44651,-3.25 0.69509,-1.55525 0.83415,-1.49789 1.18143,0.48726 0.48425,2.76813 3.76978,3.02424 5.17252,0.4032 1.18824,-2.22025 -0.31943,-4.11474 -3.36801,-4.23215 -1.14463,-0.0441 -1.47899,-0.30802 -0.75709,-0.59763 0.71111,-0.28528 2.39861,-0.24118 3.75,0.098 3.1978,0.80259 3.33306,4.85162 0.23458,7.02188 -2.77988,1.9471 -4.19446,1.96414 -5.76692,0.0694 z m 115.18916,106.40853 c 3.91793,-1.5443 7.41541,-2.063 13.60407,-2.01757 4.58167,0.0336 8.69773,0.28823 9.14681,0.56578 0.44908,0.27754 4.35641,0.75843 8.68295,1.06865 4.32654,0.31021 10.79144,0.98212 14.36644,1.49314 3.575,0.51101 7.5125,0.93803 8.75,0.94892 l 2.25,0.0198 0,-67.92804 0,-67.92805 -5.25,-0.61966 c -2.8875,-0.34081 -22.8,-0.48569 -44.25,-0.32195 -25.78422,0.19682 -36.62794,0.5647 -32,1.08563 3.85,0.43337 8.575,1.2473 10.5,1.80873 1.925,0.56144 4.69025,1.13998 6.145,1.28564 2.92398,0.29277 6.29745,3.09278 5.42567,4.50336 -0.30627,0.49554 0.54916,1.17858 1.90094,1.51786 1.7718,0.44469 2.28066,1.07847 1.82315,2.27072 -0.42884,1.11755 -0.25145,1.41703 0.54705,0.92353 0.77624,-0.47975 1.39209,0.32172 1.79493,2.33595 0.3373,1.68646 0.99576,3.06628 1.46326,3.06628 0.4675,0 0.56601,1.41997 0.2189,3.15549 -0.45115,2.25575 -0.30145,2.95176 0.525,2.44098 1.46583,-0.90593 1.4858,1.15932 0.051,5.2752 -0.82326,2.3616 -0.80723,3.52902 0.0628,4.57738 0.90158,1.08634 0.81152,2.09651 -0.39489,4.42946 -1.81151,3.50309 -1.96454,4.48781 -0.56281,3.62149 2.22414,-1.37459 0.78728,2.62549 -2.48121,6.90744 l -3.48121,4.56063 2.84036,1.46881 c 2.74069,1.41727 4.43839,4.31046 5.61156,9.56312 1.27617,5.71381 2.17664,24.62527 1.32022,27.72696 -1.25501,4.54526 -4.79573,6.67238 -9.95476,5.98041 l -4.10284,-0.5503 0.64518,7.67146 c 0.35484,4.21931 0.90052,9.74097 1.21261,12.27035 0.48536,3.93363 0.0465,5.63332 -3.03381,11.75 l -3.60124,7.15112 2.47555,0 c 1.36155,0 4.84875,-0.93543 7.74932,-2.07873 z m 31.00027,-18.12127 c -1.85405,-1.85405 -1.43528,-3.59973 1.29228,-5.3869 4.38869,-2.87558 8.39258,0.84667 4.97401,4.62415 -2.01509,2.22665 -4.49993,2.52911 -6.26629,0.76275 z m 5.61184,-3.06148 c 0.19381,-1.00637 -0.27621,-1.73852 -1.11607,-1.73852 -1.78612,0 -3.93376,2.42868 -2.98586,3.37658 1.19682,1.19681 3.75253,0.17621 4.10193,-1.63806 z m 6.30416,-18.48852 c -0.12869,-2.49606 -1.10921,-2.85679 -2.89933,-1.06667 -0.65084,0.65084 -1.52763,0.83904 -1.94843,0.41824 -0.4208,-0.4208 0.0217,-1.34041 0.98333,-2.04357 2.29831,-1.68057 2.21202,-2.558 -0.25157,-2.558 -1.1,0 -2,-0.50248 -2,-1.11663 0,-0.6243 0.88181,-0.88603 2,-0.59362 2.28719,0.59811 2.3992,0.32467 0.96482,-2.35549 -0.7227,-1.35037 -0.71323,-1.93426 0.0314,-1.93426 0.58661,0 1.3533,0.74721 1.70375,1.66047 0.53294,1.38881 0.80394,1.2661 1.65643,-0.75 l 1.01925,-2.41047 0.37861,2.75 c 0.3837,2.78702 1.61847,3.57399 2.74576,1.75 0.33992,-0.55 1.11122,-1 1.714,-1 0.60279,0 0.29498,0.88509 -0.68401,1.96686 -0.979,1.08178 -1.77999,3.07107 -1.77999,4.42065 0,1.59034 -0.45306,2.27993 -1.28754,1.95971 -0.70814,-0.27174 -1.49969,0.32647 -1.75899,1.32936 -0.37812,1.46238 -0.49444,1.37791 -0.58747,-0.42658 z M 243.59665,406.6712 c 0.42644,-3.01064 4.33004,-3.30818 4.33004,-0.33004 0,1.33333 -0.77668,2.11001 -2.33004,2.33004 -1.93881,0.27462 -2.27462,-0.0612 -2,-2 z m 13.49671,-13.49671 c -0.36667,-0.36666 -0.66667,-1.95131 -0.66667,-3.52144 0,-3.11541 3.54885,-5.58272 6.43623,-4.47473 2.02041,0.7753 2.01577,5.06798 -0.008,7.09141 -1.61733,1.61734 -4.58356,2.08311 -5.7619,0.90476 z m 5.16454,-4.18251 c 0.25642,-1.80292 -0.0823,-2.2499 -1.5,-1.97957 -1.01731,0.19398 -1.97842,1.38422 -2.16242,2.67793 -0.25642,1.80292 0.0823,2.2499 1.5,1.97957 1.01731,-0.19398 1.97842,-1.38422 2.16242,-2.67793 z m -22.6087,-10.70752 c -4.61321,-3.23122 -1.26799,-11.4433 4.66146,-11.4433 3.70211,0 6.52018,3.10798 5.60204,6.17834 -1.96054,6.55621 -5.68919,8.46893 -10.2635,5.26496 z m 7.64789,-3.05821 c 1.74476,-3.82932 0.58293,-6.38509 -2.9026,-6.38509 -3.05734,0 -4.9678,2.25008 -4.9678,5.85093 0,3.89882 6.14727,4.31604 7.8704,0.53416 z m -0.63997,-25.18524 c -2.65064,-2.29889 -1.27647,-4.19985 3.03599,-4.19985 2.53512,0 2.82985,0.31686 2.55,2.74145 -0.38733,3.35582 -2.70159,3.96003 -5.58599,1.4584 z m 3.91957,-1.69985 c 0,-0.5225 -0.48375,-1.11125 -1.075,-1.30833 -0.59125,-0.19709 -1.075,0.39166 -1.075,1.30833 0,0.91667 0.48375,1.50542 1.075,1.30833 0.59125,-0.19708 1.075,-0.78583 1.075,-1.30833 z m -55.6454,115.4898 c 2.40836,-5.3408 1.19937,-6.29003 -1.43484,-1.12654 -2.30275,4.51376 -2.45091,5.13674 -1.22163,5.13674 0.46646,0 1.66188,-1.80459 2.65647,-4.0102 z m 8.41384,-0.35783 c 2.32322,-3.75905 2.53189,-4.63197 1.10724,-4.63197 -1.03077,0 -4.02568,5.17072 -4.02568,6.95034 0,1.78272 0.75401,1.18375 2.91844,-2.31837 z m 13.50143,-7.45316 c 1.0177,-2.91768 1.13629,-4.19753 0.36513,-3.94048 -0.62816,0.20939 -1.4957,1.02892 -1.92786,1.82119 -1.91314,3.5073 -4.8567,10.40992 -4.85217,11.37831 0.01,2.09009 4.9368,-5.02139 6.4149,-9.25902 z m -27.41987,2.50762 c 0,-0.51223 -0.675,-0.37112 -1.5,0.31357 -0.825,0.68469 -1.48569,1.97729 -1.4682,2.87244 0.0267,1.36732 0.26656,1.31719 1.5,-0.31357 0.80751,-1.06762 1.4682,-2.36022 1.4682,-2.87244 z m 15.43812,-2.11777 c 2.61579,-0.78724 6.54692,-2.61652 8.73584,-4.06508 3.69958,-2.44827 3.9414,-2.89323 3.43393,-6.31866 -0.30025,-2.02671 -0.83778,-6.72713 -1.19452,-10.44539 -0.59871,-6.24042 -0.8511,-6.8105 -3.28099,-7.41091 -1.44781,-0.35774 -5.8906,-2.15017 -9.87288,-3.98318 l -7.24049,-3.33276 -5.44331,3.48205 c -2.99382,1.91512 -5.71649,3.92405 -6.05037,4.46429 -0.33388,0.54023 0.0921,2.33417 0.94651,3.98653 0.85447,1.65236 1.79693,5.82808 2.09435,9.27937 1.04573,12.13465 1.16098,12.4471 5.2111,14.12748 4.71422,1.95592 6.76404,1.99093 12.66083,0.21626 z m -9.43812,-10.56866 c 0,-1.1 0.45,-2 1,-2 0.55,0 1,0.9 1,2 0,1.1 -0.45,2 -1,2 -0.55,0 -1,-0.9 -1,-2 z m 5.49843,-10.65793 c -1.29241,-0.96645 -3.32327,-1.32447 -5.74843,-1.01339 -3.99595,0.51255 -5.28789,-0.80154 -1.49993,-1.52565 2.77031,-0.52958 8.42063,0.85513 9.30084,2.27934 1.06817,1.72834 0.0789,1.85351 -2.05248,0.2597 z m -19.11687,-7.88515 c 2.26514,-1.27951 5.46844,-3.09241 7.11844,-4.02867 1.65,-0.93625 4.575,-2.93047 6.5,-4.43159 1.925,-1.50112 6.13431,-4.20883 9.35402,-6.01715 5.6799,-3.19004 5.93731,-3.23864 8.65429,-1.63367 4.23165,2.4997 5.89631,1.9139 2.49169,-0.87684 -3.14094,-2.57459 -2.4041,-3.14344 1.9349,-1.49375 3.16606,1.20373 3.34453,-0.15414 0.3151,-2.39742 l -2.25,-1.66611 2.75,0.56319 c 1.60364,0.32842 2.75,0.12797 2.75,-0.48086 0,-0.57423 -1.35,-1.31405 -3,-1.64405 -1.65,-0.33 -3,-0.9825 -3,-1.45 0,-0.4675 1.35,-0.58 3,-0.25 1.80303,0.36061 3,0.18284 3,-0.44555 0,-0.57504 -1.4625,-1.35921 -3.25,-1.74259 -4.47306,-0.95937 -5.029,-1.42076 -3.67611,-3.05089 0.64405,-0.77603 0.91252,-1.41097 0.5966,-1.41097 -0.31593,0 -1.89033,1.9125 -3.49868,4.25 -2.31794,3.36878 -4.86788,5.2193 -12.29804,8.92479 -14.80167,7.38175 -18.76986,8.70396 -24.26362,8.08474 -3.49534,-0.39398 -5.05875,-0.16111 -5.69824,0.84876 -1.44112,2.27579 -1.032,9.27525 0.68547,11.72727 1.90014,2.71283 5.23076,2.32318 11.78418,-1.37864 z m 47.24129,-2.09669 c 1.30363,-3.12003 1.35892,-5.43044 0.38719,-16.17998 -1.26405,-13.98325 -2.58822,-18.20253 -6.52148,-20.7797 -2.5964,-1.70123 -2.81278,-1.68167 -7.0594,0.63815 -2.4095,1.31624 -4.60264,2.971 -4.87365,3.67723 -0.27101,0.70624 -1.18895,1.28407 -2.03987,1.28407 -3.10996,0 -9.52818,2.52495 -9.12027,3.58794 0.23078,0.60139 0.024,1.72762 -0.45942,2.50274 -0.67296,1.07895 -1.29468,1.15014 -2.65219,0.30367 -1.27495,-0.79498 -2.25937,-0.80202 -3.50351,-0.025 -2.39759,1.49732 -4.65326,-0.61247 -2.90587,-2.71795 0.97455,-1.17425 0.61448,-1.63389 -1.9916,-2.54238 -1.74968,-0.60994 -3.872,-1.10898 -4.71628,-1.10898 -2.54224,0 -10.13178,-4.06918 -9.8909,-5.30307 0.12342,-0.6322 -0.77219,-1.30185 -1.99025,-1.48811 -2.609,-0.39896 -3.60403,2.28864 -3.10494,8.3865 0.29433,3.59607 0.57646,3.92945 3.56959,4.21804 2.71784,0.26205 3.25,-0.0245 3.25,-1.75 0,-3.25293 2.0943,-2.45829 8.00962,3.03911 8.48198,7.8827 9.3404,8.12774 16.69679,4.76619 4.89305,-2.2359 7.07797,-4.01584 10.32504,-8.41123 4.42331,-5.98761 7.69047,-7.06566 7.21335,-2.38015 -0.20938,2.05621 0.32928,2.67826 3,3.46446 3.15567,0.92896 3.25242,1.11863 3.16435,6.20366 -0.0585,3.37715 -0.68178,5.89837 -1.75,7.07874 -0.91253,1.00834 -1.65915,2.58541 -1.65915,3.5046 0,1.67484 -1.5406,2.3299 -2.16667,0.92126 -0.18333,-0.4125 -2.03594,-1.53742 -4.1169,-2.49983 -3.71613,-1.71864 -3.86765,-1.70669 -8.5,0.67023 -2.59404,1.33104 -5.61643,3.10103 -6.71643,3.93332 -1.90911,1.44448 -1.72732,1.63143 4,4.11359 13.12033,5.6862 15.0479,6.29638 20.30103,6.42631 4.03871,0.0999 4.39377,-0.11561 5.82182,-3.53339 z m -42.15542,-12.72505 4.96743,-2.24207 -5.63171,-4.25198 c -3.09744,-2.33859 -5.88116,-4.90204 -6.18604,-5.69656 -0.30489,-0.79451 -1.02228,-1.44457 -1.5942,-1.44457 -0.65816,0 -0.5918,0.71745 0.18076,1.95452 1.77847,2.84778 0.53269,3.36427 -3.48897,1.44647 -3.5119,-1.67471 -6.7147,-1.40396 -6.7147,0.56763 0,0.56726 1.2375,1.03827 2.75,1.04669 1.5125,0.008 3.425,0.45153 4.25,0.98469 1.11575,0.72105 0.53938,0.9733 -2.25,0.98469 -2.0625,0.008 -3.75,0.46531 -3.75,1.01531 0,0.55 1.575,1 3.5,1 1.925,0 3.5,0.48575 3.5,1.07945 0,0.67916 -1.11251,0.83511 -3,0.42055 -1.88749,-0.41456 -3,-0.25861 -3,0.42055 0,1.0178 2.80543,1.55303 5.88577,1.12292 0.84508,-0.118 1.1646,0.38289 0.81891,1.28375 -1.29607,3.37748 2.68392,3.50303 9.76275,0.30796 z m -13.21743,0.70254 c -0.6875,-0.27741 -1.8125,-0.27741 -2.5,0 -0.6875,0.27741 -0.125,0.50439 1.25,0.50439 1.375,0 1.9375,-0.22698 1.25,-0.50439 z m 26.87788,-20.7504 c 6.67133,-2.79482 11.37344,-10.58482 12.72847,-21.08732 0.8841,-6.85243 0.29105,-10.05737 -2.15609,-11.65175 -0.55019,-0.35846 -7.92382,-0.97622 -16.38585,-1.37281 -18.61511,-0.87242 -19.32612,-0.5618 -19.29512,8.42955 0.0331,9.59501 1.85657,14.30671 7.48071,19.32937 5.40163,4.82395 10.0405,7.66197 12.62788,7.7256 0.89533,0.022 3.14533,-0.59567 5,-1.37264 z m -7.62788,-7.58732 c 0.33992,-0.55 1.26648,-1 2.05902,-1 0.79254,0 1.44098,0.45 1.44098,1 0,0.55 -0.92656,1 -2.05902,1 -1.13246,0 -1.7809,-0.45 -1.44098,-1 z m 0.5,-8 c 0,-0.55 0.675,-1 1.5,-1 0.825,0 1.5,0.45 1.5,1 0,0.55 -0.675,1 -1.5,1 -0.825,0 -1.5,-0.45 -1.5,-1 z m 5.56733,-5.9256 c -2.26679,-2.50478 -1.69263,-5.14674 1.50904,-6.94379 3.30039,-1.85246 7.57201,-0.81383 8.48512,2.06312 0.52465,1.65304 0.0376,2.75438 -1.98912,4.49768 -3.27106,2.81364 -5.70015,2.92986 -8.00504,0.38299 z m 3.07104,-2.5744 c 0.31659,-0.825 0.97746,-1.5 1.46862,-1.5 0.49115,0 0.89301,0.675 0.89301,1.5 0,2.00903 1.62768,1.91262 2.41655,-0.14313 0.83031,-2.16375 0.36066,-2.51672 -3.59461,-2.7016 -2.74084,-0.12811 -3.37784,0.23832 -3.64149,2.09473 -0.35632,2.50892 1.55873,3.09326 2.45792,0.75 z m -19.84259,1.35298 c -3.07722,-1.12556 -4.50392,-4.29479 -2.83738,-6.30286 3.14582,-3.79048 12.0416,-2.30227 12.0416,2.0145 0,2.23722 -3.35317,5.51927 -5.47251,5.35643 -0.56512,-0.0434 -2.24439,-0.52405 -3.73171,-1.06807 z m 7.20422,-4.36844 c 0,-2.37932 -5.69943,-3.38511 -7.72185,-1.36269 -1.15899,1.15899 -0.65963,3.87815 0.71221,3.87815 0.42701,0 1.01173,-0.9 1.29939,-2 0.28766,-1.1 1.28892,-2 2.22504,-2 1.34578,0 1.56152,0.55981 1.03074,2.67463 -0.58821,2.34358 -0.47785,2.51409 0.89159,1.37756 0.85958,-0.71339 1.56288,-1.86883 1.56288,-2.56765 z m -3,-23.92552 c 0,-0.24254 -0.45,-0.7191 -1,-1.05902 -0.55,-0.33992 -1,-0.14148 -1,0.44098 0,0.58246 0.45,1.05902 1,1.05902 0.55,0 1,-0.19844 1,-0.44098 z m -3,-8.55902 c 0,-0.55 -0.45,-1 -1,-1 -0.55,0 -1,0.45 -1,1 0,0.55 0.45,1 1,1 0.55,0 1,-0.45 1,-1 z m 5,0 c 0,-0.55 -0.45,-1 -1,-1 -0.55,0 -1,0.45 -1,1 0,0.55 0.45,1 1,1 0.55,0 1,-0.45 1,-1 z"
       id="path4147"
       inkscape:connector-curvature="0" />
  </g>
</svg>
