<?xml version="1.0" encoding="UTF-8" standalone="no"?>
<!-- Created with Inkscape (http://www.inkscape.org/) -->

<svg
   xmlns:dc="http://purl.org/dc/elements/1.1/"
   xmlns:cc="http://creativecommons.org/ns#"
   xmlns:rdf="http://www.w3.org/1999/02/22-rdf-syntax-ns#"
   xmlns:svg="http://www.w3.org/2000/svg"
   xmlns="http://www.w3.org/2000/svg"
   xmlns:sodipodi="http://sodipodi.sourceforge.net/DTD/sodipodi-0.dtd"
   xmlns:inkscape="http://www.inkscape.org/namespaces/inkscape"
   width="128.18329mm"
   height="20.049158mm"
   viewBox="0 0 454.19276 71.040324"
   id="svg2"
   version="1.1"
   inkscape:version="0.91 r13725"
   sodipodi:docname="komoch.svg">
  <defs
     id="defs4" />
  <sodipodi:namedview
     id="base"
     pagecolor="#ffffff"
     bordercolor="#666666"
     borderopacity="1.0"
     inkscape:pageopacity="0.0"
     inkscape:pageshadow="2"
     inkscape:zoom="0.35"
     inkscape:cx="1426.6393"
     inkscape:cy="29.124322"
     inkscape:document-units="px"
     inkscape:current-layer="layer1"
     showgrid="false"
     fit-margin-top="0"
     fit-margin-left="0"
     fit-margin-right="0"
     fit-margin-bottom="0"
     inkscape:window-width="1366"
     inkscape:window-height="744"
     inkscape:window-x="0"
     inkscape:window-y="24"
     inkscape:window-maximized="1" />
  <metadata
     id="metadata7">
    <rdf:RDF>
      <cc:Work
         rdf:about="">
        <dc:format>image/svg+xml</dc:format>
        <dc:type
           rdf:resource="http://purl.org/dc/dcmitype/StillImage" />
        <dc:title />
      </cc:Work>
    </rdf:RDF>
  </metadata>
  <g
     inkscape:label="Layer 1"
     inkscape:groupmode="layer"
     id="layer1"
     transform="translate(-113.40751,-602.15735)">
    <path
       style="fill:#000000;opacity:0.7"
       d="m 196.1942,671.68878 c -9.26077,-3.30244 -19.10926,-13.66848 -21.62207,-22.75836 -1.7377,-6.28594 -1.52065,-17.42747 0.45112,-23.15733 3.60214,-10.46762 13.73065,-19.97542 24.04673,-22.57304 6.53302,-1.64503 18.17111,-0.73291 23.12422,1.81234 7.01754,3.60609 13.20581,9.91745 16.71325,17.04569 2.9831,6.0626 3.28675,7.51766 3.28675,15.74958 0,8.49508 -0.24213,9.55975 -3.82079,16.80034 -6.40565,12.96038 -16.10301,18.75376 -31.11071,18.58614 -3.88768,-0.0434 -8.8685,-0.72083 -11.0685,-1.50536 z m 19.65534,-3.52903 c 4.03007,-1.00634 9.40707,-4.80722 6.84466,-4.83833 -0.825,-0.01 -3.3,0.63026 -5.5,1.42283 -10.26648,3.69863 -21.74526,0.60135 -29.213,-7.88245 -7.21912,-8.20136 -9.0245,-17.96371 -5.287,-28.58871 1.06409,-3.025 1.9494,-6.3426 1.96735,-7.37245 0.066,-3.78674 -2.92179,0.48512 -4.96417,7.09759 -2.41708,7.82558 -2.51223,12.19769 -0.41888,19.24677 2.91296,9.809 8.15201,15.87801 16.96953,19.65781 7.55093,3.23686 10.83047,3.44716 19.60151,1.25694 z m 0.99665,-20.57711 c 3.77309,-3.7731 4.63827,-8.95177 2.45194,-14.6766 -2.15192,-5.63472 -6.51164,-8.17692 -12.61823,-7.35786 -6.41446,0.86036 -10.18205,5.04754 -10.75466,11.95236 -0.39385,4.74938 -0.12646,5.74339 2.33047,8.66328 3.5393,4.20622 5.88194,5.18147 11.31013,4.70846 3.17499,-0.27666 5.16785,-1.17714 7.28035,-3.28964 z m 9.81283,-2.24381 c 0.56935,-1.06384 1.03518,-4.15889 1.03518,-6.87788 0,-11.44985 -8.00326,-20.18786 -18.49032,-20.18786 -6.05425,0 -11.78657,1.72463 -11.18012,3.36367 0.44973,1.21549 0.48794,1.21238 7.2179,-0.58761 3.95892,-1.05885 4.91357,-0.95061 8.96165,1.01611 3.07107,1.49203 5.5173,3.73256 7.59301,6.95451 2.81919,4.37598 3.02667,5.28917 2.6136,11.50332 -0.45023,6.77329 0.31945,8.42132 2.2491,4.81574 z M 188.6942,616.77309 c 0,-0.825 -0.675,-1.5 -1.5,-1.5 -0.825,0 -1.5,0.675 -1.5,1.5 0,0.825 0.675,1.5 1.5,1.5 0.825,0 1.5,-0.675 1.5,-1.5 z m 163,54.72811 c -6.74975,-2.59596 -10.16768,-4.70218 -13.61966,-8.39279 -17.09241,-18.274 -10.84791,-48.22039 12.1785,-58.40376 17.28981,-7.64637 39.85217,2.65869 46.12818,21.06844 5.59467,16.41109 -2.1916,36.57877 -17.07942,44.23845 -6.68462,3.43919 -20.58803,4.1894 -27.6076,1.48966 z m 22.75,-4.20118 c 2.3375,-1.06103 4.25,-2.40115 4.25,-2.97804 0,-1.41532 -1.10117,-1.32239 -5.34576,0.45111 -13.12594,5.48437 -30.83684,-2.95345 -35.9108,-17.10861 -2.26318,-6.31375 -2.16723,-11.55625 0.3366,-18.39139 3.26061,-8.90103 3.27878,-9 1.65273,-9 -1.73792,0 -5.37781,8.44297 -6.32868,14.6798 -0.71943,4.71876 0.89829,12.7236 3.86159,19.10808 5.54929,11.95603 25.09923,18.86085 37.48432,13.23905 z m -2.20613,-19.06814 c 8.3607,-7.85447 2.67751,-22.9433 -8.64599,-22.95505 -5.15618,-0.005 -10.07445,3.63303 -11.86705,8.77886 -1.99549,5.72829 -0.0447,11.62634 4.96917,15.02392 4.52836,3.06856 11.79714,2.67214 15.54387,-0.84773 z m 10.51372,-5.17267 c 1.48169,-5.50255 0.66119,-10.08909 -2.80894,-15.7019 -4.16954,-6.74407 -9.10695,-9.24157 -17.4803,-8.84208 -3.70241,0.17664 -7.27241,0.86192 -7.93334,1.52284 -2.02326,2.02327 -0.1159,2.57359 4.46988,1.28965 6.50525,-1.82136 11.57834,-0.13025 16.54885,5.51655 4.38897,4.98613 5.76028,9.83499 4.64626,16.42882 -0.91714,5.4285 1.0833,5.26121 2.55759,-0.21388 z M 343.6942,616.77309 c 0,-0.825 -0.42344,-1.5 -0.94098,-1.5 -1.26098,0 -2.1641,1.56159 -1.36517,2.36052 1.12619,1.12618 2.30615,0.68589 2.30615,-0.86052 z M 119.45677,670.7077 c -5.22255,-2.83373 -5.55885,-4.74672 -5.91101,-33.6243 -0.30978,-25.40283 -0.2332,-26.73264 1.66185,-28.85815 5.36205,-6.01416 14.91774,-5.83812 18.16213,0.33459 0.92889,1.76729 1.9444,6.36325 2.25668,10.21325 l 0.56778,7 5.73044,-9.07731 c 3.15175,-4.99253 6.52675,-9.79497 7.5,-10.67209 4.58823,-4.13505 13.05724,-2.78644 16.34322,2.60249 3.23421,5.30406 2.52427,8.45245 -4.21739,18.70283 -7.03929,10.70292 -7.26976,8.69715 2.44954,21.318 3.43907,4.46575 6.00637,8.88165 6.29781,10.83256 0.62016,4.15141 -2.28617,9.06088 -6.72176,11.35461 -5.70841,2.95194 -9.1186,0.9616 -18.88186,-11.02024 l -8.5,-10.43153 -0.54347,8.06202 c -0.52117,7.73132 -0.6949,8.20079 -4.23531,11.44533 -4.07367,3.73324 -7.47563,4.2504 -11.95865,1.81794 z m 6.23743,-3.966 c 0,-0.84226 -0.7875,-1.82193 -1.75,-2.17705 -0.9625,-0.35512 -2.08061,-1.1285 -2.48469,-1.71862 -0.40408,-0.59012 -0.74158,-11.53544 -0.75,-24.32294 -0.013,-19.80154 -0.23374,-23.25 -1.48801,-23.25 -1.25431,0 -1.47486,3.44887 -1.48722,23.25645 -0.0134,21.40031 0.14291,23.51532 1.958,26.5 2.058,3.3841 6.00192,4.50918 6.00192,1.71216 z m 35.99368,-0.3256 c -0.003,-0.35366 -1.28654,-1.37116 -2.85125,-2.26113 -1.56471,-0.88996 -6.17436,-5.9516 -10.24368,-11.24807 -6.51417,-8.47863 -9.89875,-11.48759 -9.89875,-8.80019 0,1.49317 17.11409,22.64886 18.83095,23.27799 1.78055,0.65248 4.17319,0.0957 4.16273,-0.9686 z m -17.47793,-40.16735 c 6.33089,-9.78726 7.36139,-11.97566 5.63924,-11.97566 -1.20355,0 -3.0443,2.37851 -9.05272,11.69739 -4.4806,6.94926 -5.62875,10.30261 -3.52751,10.30261 0.2512,0 3.37464,-4.51095 6.94099,-10.02434 z M 122.0692,612.47534 c 0.27117,-0.43876 0.0915,-1.44749 -0.39934,-2.24164 -0.67454,-1.09142 -1.17421,-1.16206 -2.04689,-0.28938 -0.63498,0.63498 -0.85216,1.64371 -0.48262,2.24164 0.78966,1.27769 2.23008,1.42001 2.92885,0.28938 z m 33.39583,-1.01475 c 0.22111,-0.66333 -0.52375,-1.1875 -1.6875,-1.1875 -2.07732,0 -2.69993,1.05007 -1.39583,2.35417 0.92647,0.92647 2.59622,0.29467 3.08333,-1.16667 z m 98.68157,59.40674 c -3.48743,-1.51907 -5.88297,-4.75709 -6.72807,-9.09424 -0.57635,-2.95789 3.84977,-31.91363 7.10453,-46.47799 1.46429,-6.55236 2.09173,-7.75921 5.06902,-9.75 4.30328,-2.87741 7.90541,-2.87916 12.16903,-0.006 2.67233,1.80088 4.49069,4.79912 8.85712,14.60422 l 5.49443,12.3381 1.96116,-4.35421 c 8.13457,-18.06058 10.60655,-22.52689 13.09576,-23.66104 3.55709,-1.62073 7.03263,-1.49896 10.65306,0.37324 4.75509,2.45896 5.07532,3.57782 11.42918,39.93358 1.44184,8.25 2.60981,16.29057 2.59548,17.86793 -0.0541,5.96285 -9.15306,11.11737 -15.20191,8.61185 -4.3521,-1.80269 -5.80071,-4.0411 -7.80303,-12.05732 l -1.85401,-7.42246 -2.16826,7.17893 c -3.02289,10.0086 -6.68476,12.99856 -15.12589,12.35052 -4.53847,-0.34842 -6.6771,-2.70045 -9.50461,-10.453 -2.94748,-8.08147 -4.49539,-8.91426 -4.49539,-2.41856 0,5.69212 -2.43275,10.20118 -6.5676,12.17295 -4.15151,1.97972 -4.98366,2.00413 -8.98,0.2634 z m 5.5476,-4.48583 c 0,-0.49038 -1.07123,-1.16046 -2.38051,-1.48906 -2.94875,-0.74009 -3.82842,-3.79844 -2.6116,-9.07978 2.02198,-8.77599 5.9308,-31.29927 6.20349,-35.7456 0.16048,-2.61674 -0.15534,-4.75255 -0.71138,-4.81083 -1.09857,-0.11514 -1.60393,1.918 -3.98112,16.01686 -0.88098,5.225 -2.43916,13.97383 -3.46263,19.44185 -1.87651,10.02545 -1.56146,13.98079 1.25631,15.77248 1.65222,1.05058 5.68744,0.97542 5.68744,-0.10592 z m 28,-0.0538 c 0,-0.51999 -1.2375,-1.53506 -2.75,-2.25571 -2.24923,-1.07167 -3.34863,-3.03688 -6.03739,-10.79196 -3.17821,-9.16677 -4.6235,-11.92934 -5.68547,-10.86738 -0.55752,0.55753 4.83167,17.77249 6.63874,21.20645 0.62344,1.18472 1.62866,2.48464 2.23382,2.88872 1.58959,1.0614 5.6003,0.9324 5.6003,-0.18012 z m 27,-0.0194 c 0,-0.53065 -0.8219,-1.40469 -1.82644,-1.9423 -1.74807,-0.93554 -3.02962,-5.09473 -4.93459,-16.01496 -0.76128,-4.36402 -3.23706,-6.96986 -3.241,-3.41126 -0.005,4.5289 3.36759,19.55603 4.68466,20.8731 1.63798,1.63798 5.31737,1.98079 5.31737,0.49541 z m -18.09429,-39.60326 c 4.56505,-11.22568 4.61567,-11.43195 2.80534,-11.43195 -1.51879,0 -10.97539,21.76327 -10.08359,23.20623 1.092,1.7669 3.0783,-1.44642 7.27825,-11.77428 z m 7.09429,-14.93195 c 0,-0.825 -0.675,-1.5 -1.5,-1.5 -0.825,0 -1.5,0.675 -1.5,1.5 0,0.825 0.675,1.5 1.5,1.5 0.825,0 1.5,-0.675 1.5,-1.5 z m -40,-0.83333 c 0,-0.73334 -0.2961,-1.62943 -0.65799,-1.99133 -0.90433,-0.90433 -3.45253,1.33682 -2.77198,2.43797 0.85211,1.37874 3.42997,1.04306 3.42997,-0.44664 z m 175.38775,60.6545 c -1.16174,-0.23329 -3.36604,-1.73285 -4.89846,-3.33235 -2.23312,-2.33087 -2.90563,-4.15689 -3.38775,-9.1985 l -0.60154,-6.29032 -6.5,-0.52525 c -7.6359,-0.61704 -11.34349,-2.39879 -16.2173,-7.79352 -4.26324,-4.71889 -5.7827,-10.63308 -5.7827,-22.50795 0,-9.07776 1.08204,-11.6301 6.01104,-14.17899 3.46261,-1.79059 6.99188,-1.90571 10.42788,-0.34016 4.35265,1.9832 5.90218,5.58864 6.38037,14.84587 0.43443,8.41007 1.10584,9.95484 4.33969,9.98469 1.42052,0.0131 1.70799,-1.50597 2,-10.56862 0.33884,-10.51632 0.36188,-10.60255 3.6068,-13.5 4.45976,-3.98221 11.19638,-4.13897 14.7149,-0.34241 3.63024,3.91709 4.30644,9.95312 3.79846,33.9068 -0.46657,22.001 -1.01055,25.44131 -4.4632,28.2269 -1.64022,1.32332 -6.62546,2.17664 -9.42819,1.61381 z m 7.95637,-7.57117 c 0.84325,-2.20644 1.22823,-9.56384 1.19897,-22.91349 -0.0385,-17.57941 -0.49,-22.22293 -2.01263,-20.7003 -0.3409,0.34089 -1.49567,32.18534 -1.52796,42.13523 -0.001,0.42429 -1.1275,1.28402 -2.5025,1.91051 -3.39513,1.54693 -3.14658,2.81805 0.55103,2.81805 2.52073,0 3.2669,-0.56488 4.29309,-3.25 z M 431.1942,647.27815 c 0,-1.09656 -1.25247,-1.52872 -4.69993,-1.62169 -2.73531,-0.0738 -6.14896,-0.98168 -8.16639,-2.172 -3.20858,-1.8931 -4.63368,-1.94222 -4.63368,-0.15971 0,1.28273 5.40979,4.31673 9,5.0475 5.18182,1.05474 8.5,0.62763 8.5,-1.0941 z m -11.51474,-23.31408 c -0.0176,-8.598 -1.47674,-12.06857 -5.25843,-12.5074 -3.01871,-0.3503 -3.73706,1.50646 -0.97683,2.52486 2.78446,1.02735 3.21842,2.35217 3.23469,9.87489 0.008,3.89584 0.30308,7.3711 0.65479,7.72282 1.57696,1.57696 2.35942,-0.96314 2.34578,-7.61517 z m 28.01474,-8.63196 c 0,-0.51754 -0.45,-1.2191 -1,-1.55902 -0.55,-0.33992 -1,0.0835 -1,0.94098 0,0.85746 0.45,1.55902 1,1.55902 0.55,0 1,-0.42344 1,-0.94098 z m 20.09366,55.63454 c -1.87348,-0.65646 -4.31067,-2.41342 -5.41598,-3.90436 -1.87715,-2.53207 -2.0204,-4.37817 -2.17271,-28 -0.18641,-28.90934 0.18422,-30.92574 6.14201,-33.41506 2.93101,-1.22465 6.77,-1.48187 18.11929,-1.21401 l 14.40034,0.33987 3.0302,3.39281 c 2.71369,3.03843 2.98062,3.90888 2.55547,8.33345 -0.73179,7.61589 -2.90989,9.19478 -13.27968,9.62636 -7.5293,0.31335 -8.4726,0.56386 -8.4726,2.25 0,1.64751 0.7724,1.89738 5.86514,1.89738 7.43614,0 11.13486,2.47862 11.13486,7.4618 0,5.68364 -2.71739,7.86174 -10.42022,8.35222 -6.14111,0.39104 -6.66263,0.59961 -6.38362,2.55304 0.27587,1.93141 0.94817,2.13262 7.30384,2.18596 8.06664,0.0677 11.57183,1.79196 13.60086,6.69048 2.653,6.40491 -0.12097,11.83411 -7.0266,13.75244 -4.91473,1.36528 -24.81376,1.15765 -28.9806,-0.30238 z m 29.42252,-3.69971 c 2.94601,-1.12007 2.8455,-3.68442 -0.12381,-3.15899 -1.0408,0.18417 -5.79203,0.40917 -10.55829,0.5 -8.76869,0.1671 -10.56947,0.66624 -9.3752,2.59861 0.84248,1.36316 16.50669,1.41032 20.0573,0.0604 z m -29.7484,-27.16105 c -0.20222,-18.25081 -0.57379,-24.26908 -1.51778,-24.58334 -0.97583,-0.32486 -1.25,4.62891 -1.25,22.58542 0,12.65085 0.27314,23.71335 0.60699,24.58333 1.88219,4.90492 2.40486,-0.55818 2.16079,-22.58541 z m 26.20326,1.20626 c 0.80907,-0.51167 1.25907,-1.13876 1,-1.39354 -0.86012,-0.84584 -13.9321,0.60847 -13.38763,1.48943 0.71457,1.15622 10.52788,1.08025 12.38763,-0.0959 z m 2.73,-20.50016 c 1.43074,-0.3591 2.29896,-1.32513 2.29896,-2.55795 0,-2.09333 -1.45876,-2.66571 -2.5,-0.98095 -0.33992,0.55 -3.71492,1 -7.5,1 -6.37037,0 -8.8098,0.88069 -7.6477,2.76101 0.52213,0.84484 11.74475,0.68243 15.34874,-0.22211 z m -27.70104,-9.5389 c 0,-0.55 -0.675,-1 -1.5,-1 -0.825,0 -1.5,0.45 -1.5,1 0,0.55 0.675,1 1.5,1 0.825,0 1.5,-0.45 1.5,-1 z m 48.3083,59.9904 c -1.20544,-0.48555 -3.00544,-2.12434 -4,-3.64176 -1.63275,-2.4911 -1.8083,-5.40646 -1.8083,-30.03041 l 0,-27.27147 2.59742,-2.59807 c 5.14889,-5.15019 15.01024,-3.89734 17.81737,2.26363 0.59686,1.30998 1.08521,5.21061 1.08521,8.66807 0,3.45745 0.28141,6.56769 0.62536,6.91164 0.34395,0.34395 2.8395,-3.06855 5.54567,-7.58333 2.70617,-4.51479 6.31422,-9.49746 8.01789,-11.07261 2.72224,-2.51686 3.6519,-2.80142 7.6719,-2.34831 3.48369,0.39266 5.23769,1.25805 7.35674,3.62968 4.90291,5.48731 3.50153,11.27449 -5.86413,24.21652 -1.84439,2.54868 -3.35343,4.97392 -3.35343,5.38941 0,0.41549 2.44272,3.77873 5.42826,7.47388 10.13787,12.54744 11.21407,15.60932 7.5629,21.51704 -2.63748,4.26753 -7.01481,6.08199 -11.80089,4.89164 -3.00307,-0.7469 -5.05122,-2.69272 -11.66641,-11.08354 -4.41312,-5.59767 -8.40189,-10.21017 -8.86393,-10.25 -0.46204,-0.0398 -0.7391,1.84009 -0.6157,4.17759 0.48124,9.11581 0.0679,10.83785 -3.44423,14.35 -3.54692,3.54692 -7.50808,4.31726 -12.2917,2.3904 z m 6.6917,-3.69618 c 0,-0.27049 -1.41677,-1.81526 -3.14837,-3.43282 l -3.14837,-2.94102 0.55945,-18.21019 c 0.5802,-18.88607 0.1101,-28.05863 -1.39051,-27.1312 -1.25544,0.7759 -1.0977,44.68337 0.17283,48.10591 1.25742,3.38725 3.63594,5.37475 5.55217,4.63943 0.77154,-0.29607 1.4028,-0.75962 1.4028,-1.03011 z m 34.5416,-0.36153 c 0.3628,-0.58702 -0.22598,-1.2989 -1.3084,-1.58196 -1.08242,-0.28306 -5.87235,-5.44218 -10.64428,-11.46472 -4.77194,-6.02254 -9.11395,-10.67956 -9.6489,-10.34894 -1.24623,0.77021 -1.12971,0.94953 8.91053,13.71293 8.0175,10.19203 10.97956,12.45194 12.69105,9.68269 z m -16.64442,-40.35346 c 5.58116,-8.61549 7.31305,-12.66774 5.35282,-12.52438 -0.6473,0.0473 -13.16262,18.80817 -14.08333,21.11132 -0.18334,0.45861 0.33289,0.83383 1.14718,0.83383 0.81428,0 4.22678,-4.23935 7.58333,-9.42077 z M 519.6942,611.71407 c 0,-1.65007 -1.58044,-1.92885 -2.5,-0.44098 -0.81551,1.31951 0.38021,3.19207 1.5691,2.45729 0.51199,-0.31643 0.9309,-1.22377 0.9309,-2.01631 z m 32.55385,1.47189 c 1.03052,-1.66742 -1.28721,-3.57951 -2.66672,-2.2 -1.15392,1.15392 -0.43172,3.28713 1.11287,3.28713 0.48508,0 1.18431,-0.48921 1.55385,-1.08713 z"
       id="path4242"
       inkscape:connector-curvature="0" />
  </g>
</svg>
