<?xml version="1.0" encoding="UTF-8" standalone="no"?>
<!-- Created with Inkscape (http://www.inkscape.org/) -->

<svg
   xmlns:dc="http://purl.org/dc/elements/1.1/"
   xmlns:cc="http://creativecommons.org/ns#"
   xmlns:rdf="http://www.w3.org/1999/02/22-rdf-syntax-ns#"
   xmlns:svg="http://www.w3.org/2000/svg"
   xmlns="http://www.w3.org/2000/svg"
   xmlns:sodipodi="http://sodipodi.sourceforge.net/DTD/sodipodi-0.dtd"
   xmlns:inkscape="http://www.inkscape.org/namespaces/inkscape"
   width="54.75111mm"
   height="54.791409mm"
   viewBox="0 0 193.99999 194.14278"
   id="svg2"
   version="1.1"
   inkscape:version="0.91 r13725"
   sodipodi:docname="lady_with_dog.svg">
  <defs
     id="defs4" />
  <sodipodi:namedview
     id="base"
     pagecolor="#ffffff"
     bordercolor="#666666"
     borderopacity="1.0"
     inkscape:pageopacity="0.0"
     inkscape:pageshadow="2"
     inkscape:zoom="1.979899"
     inkscape:cx="49.446419"
     inkscape:cy="109.99443"
     inkscape:document-units="px"
     inkscape:current-layer="layer1"
     showgrid="false"
     fit-margin-top="0"
     fit-margin-left="0"
     fit-margin-right="0"
     fit-margin-bottom="0"
     inkscape:window-width="1366"
     inkscape:window-height="744"
     inkscape:window-x="0"
     inkscape:window-y="24"
     inkscape:window-maximized="1" />
  <metadata
     id="metadata7">
    <rdf:RDF>
      <cc:Work
         rdf:about="">
        <dc:format>image/svg+xml</dc:format>
        <dc:type
           rdf:resource="http://purl.org/dc/dcmitype/StillImage" />
        <dc:title></dc:title>
      </cc:Work>
    </rdf:RDF>
  </metadata>
  <g
     inkscape:label="Layer 1"
     inkscape:groupmode="layer"
     id="layer1"
     transform="translate(-46.849768,-338.32047)">
    <path
       style="fill:#000000"
       d="m 97.099763,531.56122 -50.249995,-0.25925 0,-96.49075 0,-96.49075 96.999992,0 97,0 -0.0153,42.25 c -0.01,27.41065 -0.37818,42.77684 -1.04846,43.75 -0.7149,1.03795 -0.88366,-11.29668 -0.54785,-40.04318 0.26691,-22.84875 0.15511,-42.07744 -0.24845,-42.73041 -0.54683,-0.88479 -11.89139,-1.21044 -44.53199,-1.27834 -24.08903,-0.0501 -44.0642,0.17486 -44.38927,0.49992 -0.32506,0.32507 -0.15928,1.81975 0.36841,3.32152 0.77032,2.1923 1.74326,2.83924 4.93618,3.28223 5.34861,0.74207 21.84925,9.41382 24.97018,13.12284 4.4529,5.29196 2.81749,11.56374 -4.65925,17.86822 -2.77381,2.33891 -6.45874,4.54564 -8.18874,4.90384 -2.48768,0.51508 -3.14892,1.16382 -3.16204,3.10231 -0.009,1.34808 -0.57162,3.43397 -1.25,4.63531 -0.67838,1.20134 -1.23342,3.0378 -1.23342,4.08102 0,1.77252 -2.01771,3.25447 -6.31338,4.63698 -0.99736,0.32099 -1.55581,1.00037 -1.24101,1.50974 0.79568,1.28743 9.702,3.0856 15.35361,3.09987 5.779,0.0146 13.38616,1.98622 18.70078,4.84689 5.12587,2.75907 21.14292,16.87468 27.96053,24.64124 8.35201,9.51452 9.53143,11.97167 9.53573,19.86616 l 0.004,6.86616 6.13291,6.9176 c 3.3731,3.80467 6.37177,6.67873 6.66371,6.38679 0.29194,-0.29194 0.47086,-10.88213 0.39761,-23.53375 -0.0829,-14.2775 0.23429,-23.00296 0.83603,-23.00296 0.61368,0 0.96948,19.2937 0.96948,52.57139 l 0,52.57139 -46.75,-0.32139 c -25.7125,-0.17676 -69.3625,-0.43805 -96.999997,-0.58064 z m 23.587497,-2.11915 c 0.73562,-0.46628 1.18562,-1.9073 1,-3.20226 -0.26606,-1.85614 -0.9631,-2.36135 -3.29326,-2.38691 -3.9242,-0.0431 -6.71171,-4.43336 -4.7794,-7.52748 1.07221,-1.71688 0.87618,-2.77987 -1.30728,-7.0887 -2.87267,-5.66895 -2.33878,-5.73615 -9.95756,1.25339 -2.2,2.0183 -6.989287,6.15141 -10.642877,9.18467 l -6.64288,5.51504 -11.75276,-1.91717 c -11.665671,-1.90297 -13.494068,-1.88025 -20.711475,0.25731 -2.940792,0.87097 -3.75,1.61277 -3.75,3.43761 l 0,2.32698 34.749995,0.27635 c 19.112497,0.15199 34.974997,0.37593 35.249997,0.49764 0.275,0.12172 1.10188,-0.1602 1.8375,-0.62647 z m -20.837497,-2.67802 c 0,-0.90303 2.650957,-3.01936 6.249997,-4.98954 4.06183,-2.22352 3.31671,-0.34965 -1.01237,2.54596 -4.56587,3.05399 -5.237627,3.3674 -5.237627,2.44358 z m -5.99805,-1.19358 c 0.002,-0.9261 14.517517,-10.25 15.956837,-10.25 1.97388,0 1.03477,1.68191 -1.61261,2.88813 -1.4596,0.66504 -4.99368,2.76227 -7.8535,4.66052 -5.317687,3.52968 -6.494147,4.0193 -6.490727,2.70135 z m -3.06255,-1.67697 c 2.13356,-2.57079 18.303067,-13.66471 18.939507,-12.99443 0.3416,0.35977 -0.67597,1.61426 -2.26128,2.78776 -1.5853,1.1735 -5.76837,4.27114 -9.295707,6.88364 -6.31434,4.67667 -9.8129,6.25145 -7.38252,3.32303 z m 65.255977,5.89826 c 0.29079,-0.29079 -0.0859,-3.10329 -0.83705,-6.25 -0.75117,-3.14671 -1.44332,-10.89629 -1.53811,-17.22129 -0.0948,-6.325 -0.34942,-10.4875 -0.56584,-9.25 -0.21641,1.2375 -0.79103,2.25 -1.27693,2.25 -0.9198,0 -2.96217,-6.28338 -2.97187,-9.14301 -0.003,-0.90366 -0.73873,-1.92435 -1.63481,-2.26821 -1.2558,-0.48189 -1.50965,-1.51665 -1.10755,-4.51454 0.55197,-4.11527 -0.59951,-6.26616 -2.88507,-5.38911 -2.26518,0.86923 -1.58373,-2.28735 1.21075,-5.6084 2.50509,-2.97714 2.52066,-3.07673 0.48094,-3.07673 -1.79284,0 -2.00932,-0.41108 -1.44821,-2.75 0.36285,-1.5125 0.70892,-2.77877 0.76905,-2.81393 0.0601,-0.0352 1.40751,-1.04765 2.99418,-2.25 l 2.88486,-2.18607 -3.13486,0 c -3.99225,0 -4.08689,-1.85959 -0.13486,-2.65 1.65,-0.33 3,-1.21875 3,-1.975 0,-0.75625 0.90857,-1.375 2.01905,-1.375 1.68578,0 1.90905,-0.43828 1.35265,-2.65516 -0.6093,-2.42766 -0.46098,-2.59836 1.73095,-1.99219 6.9889,1.93276 6.6812,1.96745 6.17208,-0.6958 -0.35257,-1.84439 -1.742,-3.04176 -5.31148,-4.57732 -2.65871,-1.14374 -5.31309,-2.07953 -5.89863,-2.07953 -0.58554,0 -1.06462,-0.48214 -1.06462,-1.07143 0,-1.73829 2.70135,-3.92857 4.84524,-3.92857 1.09345,0 2.16295,-0.52457 2.37667,-1.16572 0.29086,-0.8726 1.18624,-0.88765 3.5609,-0.0598 3.11739,1.08673 3.18892,1.04197 4.13016,-2.58428 0.5268,-2.02959 1.24832,-5.94016 1.60338,-8.69016 0.35506,-2.75 1.01742,-6.35 1.4719,-8 0.45449,-1.65 1.07221,-4.41449 1.37271,-6.1433 0.50304,-2.8941 0.30366,-3.17893 -2.51491,-3.5926 -1.68369,-0.24712 -3.46689,0.0424 -3.96266,0.6433 -0.49577,0.60093 -2.77285,3.5676 -5.06019,6.5926 -7.92057,10.47496 -15.87395,17.85612 -21.1168,19.59752 l -4.87184,1.61816 -2.85011,-2.73059 c -1.69788,-1.62666 -3.10872,-4.26117 -3.48976,-6.51654 -0.48458,-2.86824 -1.29917,-4.05914 -3.36051,-4.91297 -1.49649,-0.61987 -4.56382,-2.86294 -6.81629,-4.98461 -2.81088,-2.64766 -5.40602,-4.07901 -8.27402,-4.56356 -2.29825,-0.38829 -4.29478,-0.5488 -4.43673,-0.35669 -0.56178,0.76027 -5.672637,27.11711 -5.325577,27.46417 0.20404,0.20404 2.77734,0.82734 5.718437,1.38511 2.94111,0.55777 5.55856,1.22522 5.81657,1.48323 0.25801,0.25801 -0.15315,3.06734 -0.91369,6.24294 -0.76054,3.17561 -1.38732,10.27383 -1.39284,15.77383 -0.009,9.03241 0.26688,10.5465 2.85187,15.648 1.80724,3.56658 4.47902,6.85964 7.25,8.93585 4.33907,3.25113 4.38814,3.35561 4.39212,9.352 0.004,5.27954 3.28015,28.82219 4.49745,32.31415 0.32311,0.92686 4.40777,1.25 15.80047,1.25 8.45059,0 15.60264,-0.23792 15.89343,-0.52871 z m 42.08901,-2.37558 c 0.94359,-1.59736 1.71561,-3.69211 1.71561,-4.65499 0,-1.6327 -0.12325,-1.63915 -1.82874,-0.0957 -1.00581,0.91025 -2.35581,1.65499 -3,1.65499 -2.10864,0 -1.23769,-2.99941 2.82874,-9.74164 3.52156,-5.83882 4.02326,-7.44701 4.19444,-13.44522 0.35606,-12.47586 0.31155,-13.31451 -0.69444,-13.0843 -0.55,0.12586 -5.275,1.71284 -10.5,3.52662 -10.09589,3.50465 -14,6.02841 -14,9.05011 0,1.0468 -0.54692,1.67685 -1.25,1.43999 -0.6875,-0.2316 -1.78149,0.2934 -2.43108,1.16667 -1.03843,1.39599 -1.30253,1.28581 -2.18662,-0.91223 -0.98877,-2.45834 -1.00658,-2.46199 -1.06891,-0.21862 -0.0349,1.25477 -0.73839,2.54041 -1.56339,2.85699 -0.825,0.31659 -1.51368,1.53996 -1.53041,2.71862 -0.027,1.90271 -0.14209,1.95144 -1.02645,0.43454 -0.54782,-0.93965 -1.60106,-1.47629 -2.34054,-1.19253 -0.73949,0.28377 -1.65179,-0.28481 -2.02735,-1.2635 -0.58605,-1.52723 -0.82775,-1.57081 -1.70518,-0.30747 -0.57372,0.82605 -1.21546,1.03316 -1.46246,0.47197 -1.14083,-2.59208 -2.36643,-3.87452 -3.04974,-3.19121 -0.89031,0.89032 1.05442,18.56619 2.63407,23.94121 l 1.10207,3.75 18.73739,0 18.73738,0 1.71561,-2.90429 z m 5.29497,-4.66707 c 0.35377,-1.88575 1.09563,-3.42864 1.64856,-3.42864 0.56093,0 0.72931,0.99461 0.38089,2.25 -0.34344,1.2375 -0.87658,3.375 -1.18476,4.75 -0.54048,2.41154 -0.50482,2.43132 1.00782,0.55887 0.86247,-1.06762 1.56813,-2.72856 1.56813,-3.69098 0,-0.96242 0.52023,-2.07138 1.15607,-2.46435 0.83538,-0.51629 0.98675,0.36888 0.54567,3.19098 -0.55963,3.58066 -0.48944,3.74403 0.84393,1.96435 0.79988,-1.06762 1.45433,-2.98012 1.45433,-4.25 0,-1.26988 0.50625,-2.30887 1.125,-2.30887 0.72715,0 0.91022,1.14935 0.51766,3.25 -0.56678,3.03294 -0.50834,3.12036 0.875,1.30887 0.81529,-1.06762 1.49815,-3.31762 1.51747,-5 0.0193,-1.68238 0.6608,-5.97803 1.4255,-9.54589 1.50159,-7.00591 0.80176,-8.75896 -2.73994,-6.8635 -1.39593,0.74708 -2.33047,0.60865 -3.59075,-0.53189 -2.90838,-2.63205 -5.81326,-1.01531 -6.4294,3.57835 -0.29696,2.21406 -2.1146,6.56219 -4.0392,9.66252 -3.37456,5.43608 -4.21626,8.80651 -1.08164,4.33121 0.84354,-1.20432 1.95819,-2.18967 2.477,-2.18967 1.44035,0 1.1239,5.61498 -0.55129,9.78212 l -1.49459,3.71788 1.96266,-2.32136 c 1.07947,-1.27674 2.25211,-3.86424 2.60588,-5.75 z m 36.00516,-17.92864 c 0.0948,-28.03937 0.6689,-25.55287 -8.16935,-35.38313 -2.56882,-2.85714 -4.81725,-5.04812 -4.99653,-4.86884 -0.17928,0.17927 -0.82906,4.58431 -1.44396,9.78896 -0.61491,5.20466 -1.78555,12.09862 -2.60143,15.31991 -1.34764,5.32085 -4.50372,20.97481 -6.28629,31.17967 -0.87682,5.01956 -1.73761,6.45464 -3.89598,6.49523 -0.93004,0.0175 -2.5804,0.70413 -3.66747,1.52586 -1.77492,1.34168 -0.29613,1.46592 14.5,1.2182 l 16.47649,-0.27586 0.0845,-25 z M 91.849763,516.2138 c 0,-0.62842 -8.67366,1.72362 -9.83102,2.66588 -0.18206,0.14822 0.17445,1.21397 0.79224,2.36832 1.10919,2.07255 1.17282,2.059 5.08102,-1.08171 2.17677,-1.7493 3.95776,-3.52792 3.95776,-3.95249 z m -34.313565,4.07334 c 2.568751,-0.5415 6.432853,-0.48965 9.999995,0.13418 12.01803,2.10173 13.31357,2.19728 13.31357,0.98193 0,-1.7442 -7.93621,-5.03551 -12.20294,-5.06082 -8.945995,-0.0531 -12.939342,-5.96532 -13.618092,-20.16197 -0.359795,-7.52541 -0.126811,-9.18047 1.766561,-12.54927 1.199558,-2.13433 4.142946,-5.12181 6.540862,-6.63884 4.430389,-2.80288 15.152719,-5.23859 18.451689,-4.19153 3.67506,1.16641 12.56704,8.73096 16.75718,14.25559 4.118227,5.4298 4.339357,6.04871 3.813207,10.67259 -0.38736,3.40416 -1.2911,5.58745 -2.948747,7.12371 -2.69198,2.49484 -7.06353,10.46776 -5.73947,10.46776 0.47349,0 4.31647,-3.15 8.539947,-7 4.22349,-3.85 7.88205,-7 8.13014,-7 0.24809,0 1.63351,2.49947 3.07872,5.55438 1.86587,3.94414 3.10647,5.44893 4.27929,5.19061 0.90841,-0.20007 1.50288,-1.00836 1.32105,-1.79619 -0.18183,-0.78783 -0.58445,-5.35062 -0.89471,-10.13954 -0.55961,-8.63763 -0.59466,-8.73167 -4.39192,-11.78323 -9.49036,-7.62666 -12.8778,-21.4112 -9.36516,-38.10972 0.83468,-3.96794 1.36072,-7.37132 1.16897,-7.56307 -0.19175,-0.19175 -3.79903,-1.2311 -8.016187,-2.30966 -8.88426,-2.27222 -31.1014,-13.21591 -34.466048,-16.97726 -3.279357,-3.66599 -10.570624,-14.98365 -12.136016,-18.83778 -0.730805,-1.7993 -1.789083,-3.55596 -2.351729,-3.9037 -0.695656,-0.42994 -0.818182,18.21569 -0.382919,58.27146 0.352041,32.39704 0.645981,59.96868 0.6532,61.27033 0.01104,1.99077 0.370471,2.25672 2.263127,1.67459 1.2375,-0.38062 4.133894,-1.08917 6.43643,-1.57455 z m 62.085062,-3.52851 c -0.3352,-0.3352 -1.14848,0.44159 -1.80729,1.72619 -1.14512,2.23286 -1.1183,2.25968 0.60946,0.60946 0.99401,-0.94941 1.53303,-2.00045 1.19783,-2.33565 z m -32.407277,-1.81698 c 4.64915,-1.94254 7.63578,-6.10851 7.63578,-10.65095 0,-2.96368 -1.18581,-5.42373 -5.5988,-11.61514 -7.03242,-9.86644 -7.29636,-10.14274 -8.23625,-8.62198 -0.41347,0.66901 -1.63223,1.38514 -2.70836,1.5914 -1.07612,0.20627 -2.72254,0.70751 -3.6587,1.11387 -0.93616,0.40637 -2.17366,0.44741 -2.75,0.0912 -0.60092,-0.37137 -1.04789,0.23064 -1.04789,1.4114 0,1.13246 -0.18819,2.05902 -0.41821,2.05902 -0.23001,0 -1.13001,0.27314 -2,0.60699 -1.07598,0.41289 -1.58179,0.0398 -1.58179,-1.16667 0,-2.82647 -1.09478,-0.96464 -2.122573,3.60972 -1.709313,7.60759 3.462183,19.52196 9.541013,21.98111 3.22414,1.3043 9.30375,1.11177 12.94578,-0.40997 z m -6.8288,-4.56387 c -0.39293,-0.63579 0.34696,-1.05731 1.85588,-1.05731 1.38013,0 2.94793,-0.78375 3.48401,-1.74167 0.53608,-0.95792 1.33002,-1.38633 1.76432,-0.95204 0.4343,0.4343 0.31016,1.55555 -0.27586,2.49167 -1.23053,1.96569 -5.8637,2.82018 -6.82835,1.25935 z m -2.22502,-4.89898 c -0.55604,-0.36208 -1.54725,-1.67655 -2.20268,-2.92104 -0.97837,-1.85767 -1.54219,-2.07513 -3.1497,-1.21482 -2.39766,1.28319 -5.95802,-0.31837 -5.95802,-2.6801 0,-1.29147 0.27716,-1.35724 1.48727,-0.35294 1.86165,1.54503 4.51273,0.61655 4.51273,-1.58049 0,-2.37891 2.43961,-0.17606 4.01374,3.62422 1.15906,2.79822 4.98626,4.30787 4.98626,1.96684 0,-0.55 0.483,-1 1.07333,-1 0.59033,0 0.92783,0.73671 0.75,1.63714 -0.3671,1.8588 -3.98752,3.5145 -5.51293,2.52119 z m 1.39845,-9.78281 c -1.34511,-1.34511 -0.73469,-3.32267 0.8392,-2.71871 0.88871,0.34103 2.17609,-0.20473 3.02264,-1.28138 1.38155,-1.7571 1.45739,-1.68614 1.20196,1.12457 -0.19493,2.14488 -0.85445,3.08328 -2.3138,3.29218 -1.12263,0.1607 -2.36013,-0.0268 -2.75,-0.41666 z m 86.160697,3.62448 c 0.40175,0 1.27045,0.54 1.93045,1.2 0.93333,0.93333 1.2,0.6 1.2,-1.5 0,-2.77788 1.4398,-3.66986 2.34054,-1.45 0.39224,0.96669 0.72576,0.93765 1.47153,-0.12812 0.53038,-0.75796 1.45144,-1.07705 2.04681,-0.7091 0.62956,0.38909 1.35558,-0.41909 1.73518,-1.93153 0.41552,-1.65557 1.15292,-2.40858 2.02932,-2.07228 1.03006,0.39527 1.37662,-0.49777 1.37662,-3.54734 0,-3.28759 0.30267,-3.95946 1.56539,-3.47491 1.24549,0.47794 1.41649,0.14218 0.83676,-1.64301 -1.07072,-3.2971 -1.1715,-9.15347 -0.16923,-9.83435 0.47818,-0.32485 0.30948,-1.81958 -0.37489,-3.32161 -1.02005,-2.23876 -0.9958,-2.88457 0.13452,-3.58315 1.15614,-0.71453 1.16188,-1.11359 0.0355,-2.47077 -1.01402,-1.22182 -1.06081,-1.9011 -0.19085,-2.77106 2.02951,-2.02951 6.34147,0.32809 7.74974,4.23723 0.69348,1.925 1.29511,2.7125 1.33695,1.75 0.0909,-2.09023 2.07608,-2.38573 2.07608,-0.30902 0,0.79254 0.45,1.7191 1,2.05902 0.60272,0.3725 1,-0.96404 1,-3.36426 0,-9.61338 -13.54182,-17.00975 -23.25,-12.69885 -1.51754,0.67386 -1.7505,0.19833 -1.75374,-3.5799 -0.004,-5.12461 -3.28953,-11.34217 -5.5371,-10.47969 -0.87065,0.33411 -1.45913,-0.0324 -1.45913,-0.90868 0,-0.80774 -0.45,-1.46862 -1,-1.46862 -0.55,0 -1,0.49814 -1,1.10699 0,0.60884 -0.71156,0.83394 -1.58125,0.5002 -0.86969,-0.33373 -2.47888,0.022 -3.57598,0.79039 -1.90443,1.33391 -1.82846,1.45204 1.67802,2.60928 4.03626,1.33209 7.08743,6.50144 5.95094,10.08221 -0.60703,1.91258 -0.6556,1.91146 -3.17895,-0.0734 -1.40937,-1.10862 -3.24656,-2.01567 -4.08263,-2.01567 -1.31101,0 -1.29245,0.25157 0.13486,1.82874 2.25653,2.49344 2.07743,3.44011 -0.49628,2.62325 -1.71046,-0.54288 -2.02425,-0.35178 -1.53139,0.93261 0.34094,0.88847 0.18401,1.6154 -0.34872,1.6154 -0.53274,0 -0.96862,0.89143 -0.96862,1.98095 0,1.29133 -0.89108,2.20459 -2.55964,2.62338 -1.48629,0.37303 -2.35774,1.1686 -2.07815,1.89719 0.26483,0.69012 -0.0233,1.7596 -0.64035,2.37662 -0.82915,0.82915 -0.54783,1.12186 1.07814,1.12186 2.91216,0 2.79195,0.46911 -1.05,4.0977 -2.83417,2.67677 -2.96657,3.00798 -1.03479,2.58862 2.67137,-0.57991 3.93422,2.23169 2.34019,5.21017 -1.52272,2.84522 -1.29768,5.10351 0.50857,5.10351 1.09155,0 1.4991,0.83068 1.3492,2.75 -0.11812,1.5125 -0.11839,3.875 -5.8e-4,5.25 l 0.21418,2.5 0.92816,-2.31424 c 1.22826,-3.06253 2.55561,-2.07528 3.42249,2.54558 0.96506,5.14421 1.81521,6.21399 2.58955,3.25858 l 0.65238,-2.48992 1.11557,2.75 c 0.61357,1.5125 1.37827,2.75 1.69935,2.75 0.32107,0 0.32487,-0.41891 0.008,-0.9309 -0.31644,-0.512 -0.13119,-1.2054 0.41166,-1.5409 0.54285,-0.3355 1.32602,0.64591 1.74038,2.1809 0.69482,2.57394 0.78025,2.61598 1.09887,0.5409 0.19001,-1.2375 0.67418,-2.25 1.07593,-2.25 z m -4.3981,-5.26166 c -3.93531,-2.40234 -6.47145,-5.20507 -6.47145,-7.15171 0,-1.82638 0.091,-1.84442 1.25744,-0.24923 1.73681,2.37522 7.05283,2.69915 7.51793,0.45809 0.19457,-0.93748 -0.5753,-2.49998 -1.71081,-3.47224 -2.52488,-2.16187 -2.66164,-4.8761 -0.31456,-6.24315 0.97121,-0.56568 1.19372,-1.03282 0.5,-1.04969 -2.25722,-0.0549 -1.30582,-1.78658 1.25,-2.27516 1.375,-0.26285 2.5,-0.0903 2.5,0.38342 0,0.47373 -0.45,0.86133 -1,0.86133 -0.55,0 -1,0.46973 -1,1.04384 0,0.57411 0.5625,0.97079 1.25,0.88151 4.60037,-0.59738 5.66629,2.32096 2.06633,5.65729 -1.8873,1.74909 -2.3533,2.78039 -1.59773,3.53596 1.4342,1.4342 4.93571,-0.45405 5.78106,-3.11754 1.17739,-3.70962 2.53775,-2.09394 1.89354,2.24894 -1.02919,6.93817 -7.22946,11.35279 -11.92175,8.48834 z m 8.27855,-2.98317 c 3.47157,-2.77741 -0.14536,-3.04459 -6.75,-0.49861 -2.37454,0.91534 -2.39963,1.00435 -0.5,1.77367 2.15611,0.87319 5.24353,0.3302 7.25,-1.27506 z m -3.71601,-20.21421 c -1.86094,-2.24231 -0.29974,-7.46276 2.63115,-8.79816 1.97549,-0.90009 2.66327,-0.83639 3.39116,0.31406 1.5169,2.3975 1.06099,5.82585 -1.0563,7.94314 -2.38206,2.38206 -3.35048,2.48756 -4.96601,0.54096 z m 5.96601,-5.98194 c 0,-0.24254 -0.45,-0.7191 -1,-1.05902 -0.55,-0.33992 -1,-0.14148 -1,0.44098 0,0.58246 0.45,1.05902 1,1.05902 0.55,0 1,-0.19844 1,-0.44098 z m -16.00002,3.94092 c -1.3247,-3.48421 -0.29099,-7.2728 2.2001,-8.06344 2.91984,-0.92672 3.96904,0.72155 3.61406,5.67764 -0.26292,3.67072 -0.68075,4.43793 -2.56253,4.7052 -1.66246,0.23612 -2.50983,-0.36831 -3.25163,-2.3194 z m 57.80002,31.30006 c 1.82165,-1.82165 1.43588,-3.8 -0.74098,-3.8 -2.30122,0 -3.45442,1.52721 -2.67902,3.54789 0.67773,1.76612 1.82167,1.85044 3.42,0.25211 z m 4.2,-0.8 c 0,-0.55 -0.47656,-1 -1.05902,-1 -0.58246,0 -0.7809,0.45 -0.44098,1 0.33992,0.55 0.81648,1 1.05902,1 0.24254,0 0.44098,-0.45 0.44098,-1 z m -10,-2.05902 c 0,-0.51754 -0.9,-0.94098 -2,-0.94098 -2.20605,0 -2.72337,1.57385 -0.75,2.28172 1.5126,0.54259 2.75,-0.0607 2.75,-1.34074 z m 11.91677,-4.69098 c 2.26325,-8.53959 3.00521,-13.41461 3.99518,-26.25 0.97675,-12.66396 0.57353,-18.73227 -1.47061,-22.13205 -1.29123,-2.14755 -10.62783,-12.91368 -13.89486,-16.02231 l -2.95352,-2.81031 -3.28086,7.08315 c -1.8057,3.89841 -4.90259,8.56861 -6.88774,10.38694 l -3.6069,3.30379 5.21064,4.11877 c 4.03211,3.1872 5.51574,3.86556 6.55959,2.99924 1.12777,-0.93597 1.24951,2.27486 0.74244,19.5822 -0.67623,23.08106 -0.70585,22.9704 5.86743,21.92216 2.03366,-0.32431 4.50866,-0.11777 5.5,0.45897 2.77903,1.61679 3.1529,1.38281 4.21921,-2.64055 z m -33.06599,-1.34783 c 1.73207,-0.6038 3.14922,-1.25834 3.14922,-1.45454 0,-0.52393 -5.01211,-5.44763 -5.54545,-5.44763 -0.25,0 -0.45455,1.35 -0.45455,3 0,2 -0.5,3 -1.5,3 -0.825,0 -1.5,0.45 -1.5,1 0,1.29924 1.93602,1.26687 5.85078,-0.0978 z m 13.75338,-5.56237 c 1.6114,-1.05583 2.39584,-2.51442 2.39584,-4.45481 0,-3.23015 -0.65918,-3.51148 -3.52749,-1.5055 -1.08488,0.75873 -3.98045,2.05754 -6.4346,2.88626 -5.38429,1.81817 -6.08163,3.1831 -2.33791,4.5761 3.25098,1.20965 6.5229,0.71343 9.90416,-1.50205 z m -6.60416,-5.42383 c 8.20009,-3.71757 9,-5.05013 9,-14.99305 l 0,-8.72844 -5.25,-3.48771 c -2.8875,-1.91823 -6.02811,-4.34955 -6.97913,-5.40292 -1.66072,-1.83944 -1.56116,-2.05562 2.51656,-5.46417 3.78709,-3.16562 8.2974,-10.489 10.09743,-16.39519 1.16378,-3.81856 -18.2279,-18.39715 -24.52092,-18.43472 -3.17046,-0.0189 -5.75442,8.57297 -7.85725,26.12603 -0.72178,6.02497 -0.71409,10.13011 0.0254,13.57846 l 1.06001,4.94264 5.2794,-0.43781 c 3.97111,-0.32931 6.25195,0.0622 9.20393,1.57997 8.11516,4.17237 11.23997,10.24918 9.82394,19.10455 -0.7395,4.62462 -1.59843,5.1235 -3.17893,1.84639 -0.59682,-1.2375 -1.11559,-1.6875 -1.15281,-1 -0.15047,2.77901 -2.06226,0.98817 -3.20262,-3 -1.44818,-5.0647 -2.5953,-6.75 -4.59449,-6.75 -1.03402,0 -1.25605,0.53109 -0.73163,1.75 0.41411,0.9625 0.84096,4.675 0.94856,8.25 0.1076,3.575 0.26693,7.0625 0.35407,7.75 0.23255,1.83478 4.03559,1.48844 9.15843,-0.83403 z m -24.09968,-48.46663 c 0.0886,-3.59959 2.76769,-16.9405 4.67913,-23.30021 0.58512,-1.9468 0.3812,-2.28986 -1.18644,-1.99596 -2.00926,0.37669 -4.66848,6.92656 -5.82475,14.34683 -0.34281,2.2 -1.07764,6.86316 -1.63295,10.36257 -0.898,5.65896 -0.81202,6.50825 0.77752,7.67986 1.55556,1.14656 1.87145,1.03477 2.43749,-0.86258 0.35768,-1.19892 0.69518,-4.00265 0.75,-6.23051 z m -74.920057,1.80066 c 1.61654,-5.64297 4.01938,-18.40314 4.01957,-21.34575 1.6e-4,-2.41802 -0.51531,-2.70903 -7.52825,-4.25 -4.14063,-0.90984 -8.75313,-1.65982 -10.25,-1.66663 -1.93674,-0.009 -3.36176,-0.94602 -4.94157,-3.25 -1.221,-1.78069 -5.046,-7.35969 -8.5,-12.39778 -11.518408,-16.80101 -17.907674,-25.33984 -18.960806,-25.33984 -0.701717,0 -0.864831,4.86617 -0.498449,14.87017 0.478928,13.07703 0.861375,15.6228 3.17156,21.11156 4.440335,10.54977 14.198026,24.01827 17.400805,24.01827 0.93879,0 2.13922,0.43234 2.66763,0.96075 1.44253,1.44252 19.75687,10.98226 21.14225,11.01276 0.66165,0.0146 1.68641,-1.66101 2.27726,-3.72351 z m 43.797717,-3.98845 c 5.75161,-2.65998 22.41855,-22.49703 20.4834,-24.37941 -0.41876,-0.40734 -1.99888,-1.04624 -3.51138,-1.41979 -2.35712,-0.58214 -2.75,-0.37237 -2.75,1.46827 0,5.14918 -13.72313,14.55192 -23.0675,15.80526 -3.55623,0.47699 -3.9325,0.80625 -3.9325,3.44124 0,1.77985 0.97939,3.89318 2.51665,5.43044 2.67516,2.67516 3.8116,2.63684 10.26133,-0.34601 z m -5.08812,-11.32687 c 7.12329,-2.45077 13.76141,-6.31317 15.76404,-9.17232 1.73005,-2.47001 2.0174,-8.63224 0.62836,-13.47553 -1.30601,-4.55379 -0.35545,-7.28683 2.53437,-7.28683 2.68587,0 3.18256,-2.76776 1.35794,-7.56688 -0.99554,-2.61848 -1.08325,-2.64474 -3.00971,-0.90132 -1.76837,1.60035 -2.27241,1.64192 -4.63211,0.38198 -1.4563,-0.77758 -2.84074,-2.149 -3.07653,-3.04761 -0.26762,-1.01987 -1.1216,-1.45263 -2.27258,-1.15164 -1.01413,0.2652 -3.68303,-0.61457 -5.9309,-1.95504 -3.43514,-2.04846 -4.82404,-2.32537 -8.70753,-1.736 -3.7849,0.57441 -4.9573,0.36442 -6.48285,-1.16114 -1.0243,-1.02429 -2.50469,-1.86235 -3.28978,-1.86235 -2.20573,0 -5.45407,4.73715 -4.84512,7.06577 0.34199,1.30778 -0.23213,2.75575 -1.59673,4.02707 -1.1719,1.09179 -2.15698,2.53004 -2.18907,3.19611 -0.0321,0.66608 -0.28759,4.2583 -0.56778,7.98272 -0.46656,6.20189 -0.21901,7.37989 2.94208,14 3.52189,7.37572 6.16901,10.55313 10.77818,12.93735 3.78134,1.956 6.27071,1.90178 12.59572,-0.27434 z m -2.93986,-1.69764 c -0.9625,-0.21103 -1.75,-0.80927 -1.75,-1.32942 0,-0.52015 1.10236,-0.66905 2.44968,-0.33089 1.83231,0.45988 3.11914,-0.0546 5.10606,-2.04156 2.93333,-2.93333 4.19051,-2.79806 2.54639,0.274 -1.17283,2.19146 -5.63624,4.02333 -8.35213,3.42787 z m -5.00577,-10.32037 c -1.29912,-0.75657 -1.58418,-1.72397 -1.09602,-3.71959 0.36285,-1.48339 1.15295,-3.02769 1.75577,-3.43177 1.63222,-1.09411 6.59602,-0.9175 6.59602,0.23469 0,0.55 0.675,1 1.5,1 2.65408,0 1.60013,2.775 -1.86803,4.91844 -3.79765,2.34708 -4.41739,2.43689 -6.88774,0.99823 z m 5.25577,-3.91667 c 0,-1.25292 -1.06124,-1.25292 -3,0 -1.21295,0.78387 -1.06943,0.9723 0.75,0.98469 1.2375,0.008 2.25,-0.43469 2.25,-0.98469 z m -8.5,-8 c -0.33991,-0.55 -0.14147,-1 0.44099,-1 0.58246,0 1.05901,0.45 1.05901,1 0,0.55 -0.19844,1 -0.44098,1 -0.24254,0 -0.7191,-0.45 -1.05902,-1 z m -10.62117,-1.89704 c -2.03401,-1.64704 -2.16582,-2.17765 -1.1143,-4.48549 1.97794,-4.34111 7.23547,-2.85344 7.23547,2.04735 0,3.43557 -3.27731,4.74096 -6.12117,2.43814 z m 2.90451,-3.10296 c 1.18708,0 1.32095,-0.29571 0.5038,-1.11287 -1.41782,-1.41781 -3.31116,-0.2836 -3.20819,1.92189 0.0486,1.04116 0.27278,1.21063 0.58334,0.44098 0.27741,-0.6875 1.23188,-1.25 2.12105,-1.25 z m 10.71666,3 c 0.33992,-0.55 0.81648,-1 1.05902,-1 0.24254,0 0.44098,0.45 0.44098,1 0,0.55 -0.47655,1 -1.05901,1 -0.58246,0 -0.7809,-0.45 -0.44099,-1 z m 1.16746,-6.4754 c -3.37217,-3.37218 2.09747,-8.62444 5.79001,-5.5599 1.96367,1.6297 0.4462,6.45599 -2.15014,6.83852 -1.13192,0.16677 -2.76986,-0.40861 -3.63987,-1.27862 z m 3.46925,-4.31236 c -0.72144,-0.24048 -1.78715,0.0382 -2.36826,0.61931 -0.74206,0.74207 -0.35163,0.87221 1.31171,0.43724 1.35221,-0.35361 1.8055,-0.80691 1.05655,-1.05655 z m -19.24504,1.72949 c 1.31541,-1.09546 2.6647,-1.71869 2.99842,-1.38497 0.7102,0.71019 -2.78084,3.45868 -4.33122,3.40997 -0.58237,-0.0183 0.0174,-0.92955 1.3328,-2.025 z m 14.10833,-6.83474 c 0,-1.10907 3.07642,-2.36391 3.86417,-1.57616 0.31785,0.31786 -0.0841,0.99656 -0.89313,1.50823 -1.86986,1.18254 -2.97104,1.20771 -2.97104,0.0679 z m -15.01645,32.14301 c -0.009,-0.4125 -1.03877,-2.55 -2.28829,-4.75 -2.17783,-3.83448 -2.45646,-3.98724 -6.73355,-3.69151 -4.749027,0.32835 -16.279287,-3.76226 -21.913837,-7.77441 -3.32681,-2.36889 -7.04787,-9.43415 -7.04787,-13.38192 0,-3.38404 2.29295,-8.99431 5.68129,-13.90074 2.83647,-4.10729 14.74714,-12.45629 20.12455,-14.10667 3.418937,-1.0493 4.349547,-2.43293 5.646217,-8.39475 l 0.70686,-3.25 -27.579457,0 -27.579455,0 -0.118483,9.75 c -0.06517,5.3625 -0.02145,10.425 0.09715,11.25 0.118596,0.825 2.759413,5.00258 5.868483,9.2835 3.10907,4.28093 7.684795,10.58093 10.168276,14 2.483479,3.41908 5.529999,7.94501 6.770039,10.05763 4.71668,8.03567 8.45638,11.61726 12.21454,11.69816 1.925,0.0414 7.1,0.91041 11.5,1.93106 8.529217,1.97847 14.510467,2.50692 14.483547,1.27965 z m 49.34545,-13.88067 c -0.0941,-0.9651 0.6683,-2.82173 1.69412,-4.12585 1.02582,-1.30412 1.61493,-3.02314 1.30913,-3.82004 -0.77802,-2.02749 1.47944,-4.42344 4.16775,-4.42344 1.24031,0 2.81531,-0.675 3.5,-1.5 1.03599,-1.2483 0.90928,-1.5 -0.75511,-1.5 -1.1,0 -2.5602,-0.675 -3.24489,-1.5 -0.68469,-0.825 -2.14917,-1.5 -3.25441,-1.5 -3.03551,0 -8.74559,-3.91671 -8.74559,-5.99885 0,-1.27703 -1.44566,-2.36984 -4.75,-3.59064 -2.6125,-0.9652 -5.38403,-2.23991 -6.15896,-2.83271 -0.81032,-0.61986 -5.72119,-1.04597 -11.55824,-1.00289 -8.23584,0.0608 -11.26948,0.52323 -16.09104,2.45286 -6.95933,2.78519 -9.44176,4.62718 -9.44176,7.0059 0,0.97722 -1.31574,2.26869 -3.03821,2.98216 -4.041647,1.6741 -5.275737,4.09093 -3.432597,6.72237 1.249467,1.78387 1.243347,2.20569 -0.0476,3.27705 -2.72654,2.26282 -1.70391,3.73421 2.518367,3.6235 3.94208,-0.10337 4,-0.15958 4,-3.88161 0,-2.45604 0.65603,-4.33842 1.87603,-5.38302 1.03181,-0.88346 1.66952,-2.39593 1.41714,-3.36105 -0.52589,-2.01102 5.15341,-9.01307 7.31043,-9.01307 0.76802,0 2.32038,0.92398 3.44969,2.05328 1.71733,1.71733 2.79159,1.94257 6.56574,1.3766 3.64281,-0.54627 5.38115,-0.2299 9.01989,1.64157 3.7405,1.92381 4.83913,2.1111 6.45695,1.10075 1.54649,-0.9658 2.02836,-0.9544 2.33089,0.0551 1.22679,4.09382 1.68396,4.87791 3.17852,5.45142 1.06658,0.40929 2.26826,-0.18539 3.39613,-1.68064 l 1.74549,-2.31404 1.67226,2.55218 c 0.91974,1.40371 1.91995,4.07854 2.22268,5.94408 0.71824,4.42597 -1.27122,11.81965 -3.18038,11.81965 -1.44146,0 -2.01295,2.11518 -0.87811,3.25001 1.18458,1.18459 6.91785,-2.11369 6.74565,-3.88068 z m -54.329,-0.83795 c 0,-1.78348 -0.4163,-2.30886 -1.5,-1.89301 -0.825,0.31659 -1.5,1.42746 -1.5,2.46862 0,1.04115 0.675,1.89301 1.5,1.89301 0.92825,0 1.5,-0.94096 1.5,-2.46862 z"
       id="path4255"
       inkscape:connector-curvature="0" />
  </g>
</svg>
