<?xml version="1.0" encoding="UTF-8" standalone="no"?>
<!-- Created with Inkscape (http://www.inkscape.org/) -->

<svg
   xmlns:dc="http://purl.org/dc/elements/1.1/"
   xmlns:cc="http://creativecommons.org/ns#"
   xmlns:rdf="http://www.w3.org/1999/02/22-rdf-syntax-ns#"
   xmlns:svg="http://www.w3.org/2000/svg"
   xmlns="http://www.w3.org/2000/svg"
   xmlns:sodipodi="http://sodipodi.sourceforge.net/DTD/sodipodi-0.dtd"
   xmlns:inkscape="http://www.inkscape.org/namespaces/inkscape"
   width="54.56142mm"
   height="54.622597mm"
   viewBox="0 0 193.32786 193.54464"
   id="svg2"
   version="1.1"
   inkscape:version="0.91 r13725"
   sodipodi:docname="monkey.svg">
  <defs
     id="defs4" />
  <sodipodi:namedview
     id="base"
     pagecolor="#ffffff"
     bordercolor="#666666"
     borderopacity="1.0"
     inkscape:pageopacity="0.0"
     inkscape:pageshadow="2"
     inkscape:zoom="1.4"
     inkscape:cx="143.8152"
     inkscape:cy="72.90635"
     inkscape:document-units="px"
     inkscape:current-layer="layer1"
     showgrid="false"
     inkscape:window-width="1366"
     inkscape:window-height="744"
     inkscape:window-x="0"
     inkscape:window-y="24"
     inkscape:window-maximized="1"
     fit-margin-top="0"
     fit-margin-left="0"
     fit-margin-right="0"
     fit-margin-bottom="0" />
  <metadata
     id="metadata7">
    <rdf:RDF>
      <cc:Work
         rdf:about="">
        <dc:format>image/svg+xml</dc:format>
        <dc:type
           rdf:resource="http://purl.org/dc/dcmitype/StillImage" />
        <dc:title></dc:title>
      </cc:Work>
    </rdf:RDF>
  </metadata>
  <g
     inkscape:label="Layer 1"
     inkscape:groupmode="layer"
     id="layer1"
     transform="translate(-99.704288,-379.95701)">
    <path
       style="fill:#000000"
       d="m 212.52354,572.94279 c -0.22073,-0.22073 -25.69533,-0.48966 -56.61022,-0.59762 l -56.208892,-0.19629 -7e-5,-96.09594 -7e-5,-96.09593 96.000072,0.25992 96.00007,0.25992 0.003,6.24008 c 0.002,3.43204 0.30067,46.86262 0.66404,96.51239 l 0.66069,90.27232 -40.05383,-0.0788 c -22.0296,-0.0433 -40.23442,-0.25935 -40.45515,-0.48008 z m 58.84051,-5.23844 c -1.27571,-11.1042 -8.74006,-26.00152 -15.03108,-29.99894 -6.61281,-4.2019 -15.52292,-3.14641 -25.12854,2.9767 -2.74154,1.7476 -3.33462,2.67515 -4.57306,7.1521 -0.76347,2.75995 -0.76339,4.18635 2.6e-4,4.95 1.74359,1.74359 1.23287,4.32124 -1.1772,5.94152 -1.2375,0.83196 -1.89092,1.88343 -1.45204,2.3366 1.47313,1.52108 4.19015,-1.25344 5.58029,-5.69838 2.25208,-7.20096 4.01935,-10.90694 5.2012,-10.90694 0.6115,0 2.30628,-0.84096 3.76618,-1.8688 3.38586,-2.38381 7.15437,-3.57739 7.15437,-2.26598 0,0.55 -1.00659,1.31949 -2.23688,1.70996 -5.70012,1.80915 -9.74983,5.64097 -11.23022,10.62599 -1.1303,3.80615 -1.20101,5.35741 -0.30927,6.78532 1.33042,2.13032 -0.37673,5.01351 -2.96852,5.01351 -1.23098,0 -1.27298,0.27355 -0.23417,1.52523 2.05377,2.47465 4.43418,-0.58149 6.46683,-8.3026 0.97338,-3.69745 2.29601,-7.29073 2.93916,-7.98507 1.67303,-1.80618 11.46343,-5.22397 12.08471,-4.21873 0.63809,1.03246 -0.13867,1.49922 -4.01164,2.41063 -1.65,0.38829 -3.99147,1.3471 -5.20327,2.1307 -2.61569,1.69139 -4.07771,7.79389 -2.3624,9.86071 0.91585,1.10353 0.68857,1.72985 -1.07633,2.96603 -1.23053,0.86191 -1.88825,1.91495 -1.46159,2.3401 0.93592,0.93261 4.60359,-3.35956 4.60359,-5.38744 0,-3.32248 3.31459,-7.57934 7.31632,-9.39618 4.54808,-2.0649 6.68368,-2.41691 6.68368,-1.10167 0,0.46294 -1.7799,1.37499 -3.95533,2.02676 -5.12107,1.53431 -7.20467,3.64586 -6.47324,6.5601 0.36151,1.4404 -0.0514,2.9086 -1.11815,3.97529 -0.93026,0.93026 -1.37407,2.00745 -0.98625,2.39376 0.83979,0.83651 4.53297,-3.47016 4.53297,-5.28596 0,-0.69672 0.64117,-1.79889 1.42482,-2.44927 1.76238,-1.46264 9.57518,-2.27488 9.57518,-0.99546 0,0.51319 -0.9,0.93307 -2,0.93307 -1.1,0 -2,0.635 -2,1.41111 0,2.12154 5.81513,6.58889 8.57673,6.58889 1.3328,0 2.42327,0.45 2.42327,1 0,0.55 -0.9,1 -2,1 -1.46667,0 -2,0.66667 -2,2.5 0,2.36612 0.29698,2.5 5.54537,2.5 l 5.54537,0 -0.43112,-3.75266 z m 19.16889,-98.91437 c -0.18068,-46.84187 -0.70328,-85.54187 -1.16132,-86 -0.45805,-0.45814 -14.40053,-0.83297 -30.98328,-0.83297 -27.91851,0 -30.17563,0.12955 -30.49051,1.75 -0.23576,1.21331 0.2958,1.75 1.73328,1.75 2.26352,0 2.82825,1.56372 0.82332,2.27976 -2.78191,0.99354 0.0706,1.55008 3.72288,0.72636 4.47205,-1.00862 6.60226,-0.26545 4.22395,1.47361 -1.29011,0.94335 -0.38526,1.15928 4.59851,1.09736 7.16019,-0.089 8.43221,1.1943 3.59313,3.62488 l -3.38847,1.70197 4.05887,0.048 c 3.89673,0.0461 8.57037,2.25212 7.35218,3.47031 -0.32219,0.32219 -2.51126,0.77126 -4.8646,0.99794 -7.06316,0.68032 -7.41209,2.5636 -0.49645,2.67946 10.57364,0.17714 14.57361,2.68349 8.41521,5.2729 l -3.2092,1.34937 2.68844,0.67475 c 3.56329,0.89433 3.07184,3.98402 -0.703,4.41972 -3.02685,0.34937 -3.81022,2.18358 -0.93258,2.18358 0.99488,0 2.68238,0.66645 3.75,1.481 1.68015,1.28188 1.73946,1.61594 0.44113,2.48468 -0.825,0.55203 -2.7375,1.01058 -4.25,1.01901 -1.5125,0.008 -2.75,0.46531 -2.75,1.01531 0,0.55 0.92235,1 2.04966,1 2.91512,0 7.95034,2.79851 7.95034,4.41869 0,1.81289 -2.5801,2.7248 -5.57946,1.97201 -1.47025,-0.36901 -2.42054,-0.17236 -2.42054,0.50089 0,0.60963 0.71177,1.10841 1.5817,1.10841 2.8423,0 10.4183,7.02 10.4183,9.65371 0,3.19506 -4.37558,11.78579 -8.74502,17.16942 -2.60251,3.20657 -3.21768,4.61417 -2.38185,5.45 1.86384,1.86384 1.28968,2.72687 -1.81411,2.72687 -3.86703,0 -4.6449,1.47405 -1.82575,3.45977 1.92287,1.35441 2.03918,1.74171 0.76673,2.55311 -0.825,0.52607 -2.0625,0.96338 -2.75,0.97181 -2.37844,0.0291 -1.23804,2.19355 1.75,3.32141 3.67686,1.38786 3.79766,2.44013 0.42724,3.72156 -3.02251,1.14916 -2.96723,4.2783 0.0842,4.76941 4.50973,0.72579 4.86644,1.12785 2.9144,3.28483 -1.54546,1.70771 -1.61606,2.18253 -0.43321,2.91357 0.77723,0.48035 2.74273,0.60745 4.36779,0.28244 2.67026,-0.53405 2.89884,-0.37747 2.37472,1.62675 -0.75881,2.9017 1.37857,3.7029 6.05199,2.26859 4.51749,-1.38646 5.15889,-0.80918 2.38344,2.14514 -2.7547,2.93225 -2.72299,3.32615 0.32939,4.09225 2.92497,0.73412 3.21259,2.07751 0.75,3.50293 -1.53242,0.88701 -1.34591,1.16912 1.5,2.26893 3.64964,1.41042 4.2739,2.8175 1.25,2.8175 -1.1,0 -2,0.41968 -2,0.93261 0,0.51294 0.9,1.21826 2,1.56739 1.1,0.34913 2,1.00197 2,1.45076 0,0.44879 -0.9,1.05133 -2,1.33899 -3.06384,0.80121 -2.40065,2.30302 1.97243,4.46665 3.97247,1.96542 4.31172,3.2436 0.8609,3.2436 -2.96713,0 -2.09844,2.71193 1.24168,3.8763 2.99934,1.04558 3.24281,3.1237 0.36597,3.1237 -1.93375,0 -1.81684,0.99144 0.30902,2.62075 1.52111,1.16582 1.55532,1.46882 0.26156,2.31663 -1.24432,0.81541 -0.95729,1.52339 1.75,4.31661 1.78114,1.83767 3.23844,3.57936 3.23844,3.87042 0,0.29106 -1.35,0.33107 -3,0.0889 -4.10161,-0.60199 -3.98298,1.86703 0.25,5.20312 3.04543,2.40016 3.10524,2.56209 0.95031,2.57248 -3.08765,0.0149 -1.97039,1.86848 3.79969,6.30388 l 4.5,3.4591 0.32851,-4.12595 c 0.18068,-2.26927 0.18068,-42.45111 0,-89.29297 z m -85.39302,71.12514 c 0.87084,-1.32907 2.81661,-3.0097 4.32393,-3.73473 3.31814,-1.59606 13.82421,-1.53975 15.44674,0.0828 0.88871,0.88871 1.53894,0.84544 2.73019,-0.18167 2.066,-1.78133 10.7246,-4.62449 14.0835,-4.62449 2.2406,0 2.85367,-0.63449 3.86066,-3.9955 1.37324,-4.58347 5.16963,-8.51659 9.86949,-10.22494 1.7875,-0.64973 3.25,-1.75556 3.25,-2.4574 0,-2.11296 -4.63606,-4.48125 -8.10585,-4.1408 -2.68994,0.26394 -3.64805,1.07864 -5.58131,4.74584 -1.28364,2.43496 -2.44166,4.53474 -2.57337,4.66618 -0.13171,0.13144 -0.25672,-5.28192 -0.2778,-12.02968 -0.031,-9.91369 -0.37131,-12.77685 -1.77305,-14.91618 -2.06162,-3.14643 -4.5122,-3.36073 -7.90575,-0.69136 -2.09935,1.65134 -2.67919,3.36363 -3.72123,10.98884 -1.25745,9.20153 -0.64027,23.57936 1.0572,24.62845 0.48464,0.29952 0.88116,1.45429 0.88116,2.56615 0,1.56908 -1.11827,0.79801 -4.99603,-3.44487 -4.21645,-4.61347 -5.7019,-5.5723 -9.5198,-6.14483 -5.98713,-0.89783 -14.47543,2.79934 -17.52399,7.63276 -2.75629,4.37002 -2.13356,14.18342 1.24699,19.65108 l 2.26678,3.66626 0.6891,-4.8127 c 0.379,-2.64698 1.4016,-5.90011 2.27244,-7.22919 z m 32.56451,-11.45811 c 0,-0.55 0.47656,-1 1.05902,-1 0.58246,0 0.7809,0.45 0.44098,1 -0.33992,0.55 -0.81648,1 -1.05902,1 -0.24254,0 -0.44098,-0.45 -0.44098,-1 z m -7,-9 c 0,-0.55 0.45,-1 1,-1 0.55,0 1,0.45 1,1 0,0.55 -0.45,1 -1,1 -0.55,0 -1,-0.45 -1,-1 z m 0,-6.5 c 0,-0.825 0.45,-1.5 1,-1.5 0.55,0 1,0.675 1,1.5 0,0.825 -0.45,1.5 -1,1.5 -0.55,0 -1,-0.675 -1,-1.5 z m 5,-8.5 c 0,-0.55 0.45,-1 1,-1 0.55,0 1,0.45 1,1 0,0.55 -0.45,1 -1,1 -0.55,0 -1,-0.45 -1,-1 z m -84.68816,35.20791 c 0.892,-0.98564 1.90433,-4.24814 2.24962,-7.25 0.55325,-4.80965 0.31964,-5.90859 -1.96682,-9.25232 -1.42705,-2.08692 -2.59464,-4.87287 -2.59464,-6.19098 0,-1.31812 -0.45,-2.67469 -1,-3.01461 -0.55,-0.33992 -1,-1.32158 -1,-2.18146 0,-1.25543 0.28687,-1.32535 1.45619,-0.35489 0.80091,0.66469 1.92591,0.91823 2.5,0.56342 1.26875,-0.78413 1.26831,-0.79665 0.11398,3.22827 -0.71376,2.48871 -0.58096,3.59101 0.57143,4.7434 1.9686,1.96861 4.02324,2.00727 2.39475,0.0451 -1.39021,-1.67514 -0.58729,-3.54384 1.52267,-3.54384 3.29757,0 0.3871,-6.03567 -4.06719,-8.43447 -2.76711,-1.49018 -3.9168,-1.61303 -6.53947,-0.69877 -1.75015,0.61011 -3.63651,0.82845 -4.19189,0.4852 -0.99662,-0.61594 5.50206,-3.3077 8.05625,-3.3369 0.7242,-0.008 2.79167,1.10994 4.59439,2.48494 1.80272,1.375 3.5727,2.5 3.93328,2.5 0.36059,0 0.65561,-1.59099 0.65561,-3.53554 0,-3.22785 -0.3843,-3.70026 -4.41584,-5.42839 -4.53629,-1.94448 -7.54243,-1.77608 -11.05667,0.61938 -2.27814,1.55288 -3.52749,1.71853 -3.52749,0.46769 0,-0.48227 2.33423,-1.88101 5.18719,-3.10832 l 5.18718,-2.23147 4.31282,2.09533 4.31281,2.09533 -0.0153,-2.23701 c -0.0211,-3.07896 -1.05076,-4.43142 -4.32014,-5.67444 -4.16426,-1.58325 -6.00551,-1.3204 -10.06941,1.43744 -5.22034,3.54262 -6.50955,3.09855 -2.36161,-0.81345 1.9323,-1.8224 3.83375,-4.32318 4.22544,-5.55729 1.02492,-3.22923 5.19128,-4.58845 8.14083,-2.65583 3.00516,1.96906 7.29655,1.96024 8.05512,-0.0166 0.85174,-2.21959 -0.6248,-3.26208 -1.75637,-1.24007 -1.1563,2.06624 -3.89855,1.24642 -3.89855,-1.16546 0,-1.67933 -5.47176,-4.0513 -9.3457,-4.0513 -1.73456,0 -4.01021,3.98161 -9.18302,16.06709 l -3.2694,7.63846 2.38686,9.89723 c 1.31277,5.44347 2.87368,12.14722 3.4687,14.89722 0.59502,2.75 1.44448,5.9 1.88769,7 0.44322,1.1 1.30223,3.2375 1.90892,4.75 1.30489,3.25315 4.9562,3.72214 7.45779,0.95791 z m -4.64041,-2.20791 c -1.6847,-3.96034 -3.66896,-10.42047 -3.6477,-11.87573 0.0131,-0.89335 1.14193,1.07573 2.50861,4.37573 1.36667,3.3 2.32563,6.675 2.13102,7.5 -0.31453,1.33333 -0.42474,1.33333 -0.99193,0 z m 1.32857,-6.55902 c 0,-0.85746 0.45,-1.2809 1,-0.94098 0.55,0.33992 1,1.04148 1,1.55902 0,0.51754 -0.45,0.94098 -1,0.94098 -0.55,0 -1,-0.70156 -1,-1.55902 z m 92,2.97479 c 0,-0.62873 -2.98849,0.20534 -7.82197,2.18306 -1.82708,0.74759 -3.04079,1.81421 -2.69713,2.37027 0.59927,0.96963 10.5191,-3.3243 10.5191,-4.55333 z m -79.96826,-12.93955 c 0.58059,-3.28692 1.7307,-9.04738 2.5558,-12.80102 1.42921,-6.50193 1.39995,-7.09269 -0.61837,-12.48715 -1.16521,-3.11429 -2.64744,-5.99873 -3.29386,-6.40988 -1.92554,-1.22472 -3.67531,-0.88106 -3.67531,0.72183 0,0.825 0.65917,1.5 1.46482,1.5 3.61579,0 4.59826,8.21987 2.56975,21.5 -0.67209,4.4 -1.87667,8.73458 -2.67684,9.63241 -0.9559,1.07254 -1.22226,2.55917 -0.77665,4.33463 1.03576,4.1268 3.17126,1.25231 4.45066,-5.99082 z m 42.96826,-13.52 c 4.11381,-2.0933 8.26959,-6.3496 13.62659,-13.95622 3.67712,-5.22129 3.87214,-5.88151 3.84825,-13.02848 -0.0213,-6.37274 -0.44528,-8.24536 -2.76186,-12.19831 -3.40251,-5.80594 -4.1561,-6.27667 -6.93373,-4.33114 -2.59537,1.81786 -6.07662,2.00433 -8.92818,0.47823 -1.55941,-0.83458 -2.41375,-0.72106 -3.763,0.5 -2.56057,2.31728 -4.08807,1.93183 -4.08807,-1.03159 0,-2.46006 -0.21002,-2.57189 -3.6263,-1.93099 -4.67237,0.87654 -9.02104,-0.91646 -9.80575,-4.043 -0.81297,-3.23915 -1.85472,-3.04998 -5.8482,1.06198 -4.23932,4.36508 -8.33128,11.83445 -9.27733,16.93461 -0.66776,3.59987 -0.57491,3.8398 1.16603,3.01324 1.04035,-0.49394 4.3763,-0.90402 7.41321,-0.91131 4.76471,-0.0114 6.33158,0.52452 11.4297,3.90949 l 5.90804,3.92274 6.83886,-1.17274 c 10.08427,-1.72926 14.17742,-1.52007 16.30729,0.8334 0.99854,1.10337 1.58241,2.23925 1.29749,2.52417 -0.28492,0.28492 -1.08726,-0.16784 -1.78298,-1.00613 -1.83295,-2.20857 -4.00619,-1.901 -10.6296,1.50435 -3.24907,1.67047 -7.65305,3.09143 -9.82115,3.16882 -3.59009,0.12815 -4.36994,-0.35343 -9,-5.55772 -5.69676,-6.40329 -9.59749,-7.77551 -16.04976,-5.64607 -3.12542,1.03148 -3.59394,1.55142 -3.03064,3.36327 0.36646,1.17875 1.0238,3.71818 1.46075,5.64318 1.26965,5.5935 2.70636,8.53864 5.98944,12.27786 7.06941,8.05161 20.43523,10.57635 30.0609,5.67836 z m -7.92105,-3.53955 c 0.048,-1.16495 0.28494,-1.4019 0.60416,-0.60417 0.28887,0.72187 0.25335,1.58437 -0.0789,1.91667 -0.33229,0.33229 -0.56864,-0.25834 -0.52522,-1.3125 z m -13.07895,-0.85765 c 0,-0.85746 0.45,-1.55902 1,-1.55902 0.55,0 1,0.42344 1,0.94098 0,0.51754 -0.45,1.2191 -1,1.55902 -0.55,0.33992 -1,-0.0835 -1,-0.94098 z m -2.92972,-3.30902 c 0.0387,-1.5125 0.45703,-3.65 0.92972,-4.75 0.64665,-1.50483 0.87683,-0.82396 0.92971,2.75 0.0387,2.6125 -0.37971,4.75 -0.92971,4.75 -0.55,0 -0.96837,-1.2375 -0.92972,-2.75 z m 8.634,-1 c 0.40981,-2.63968 0.36413,-2.67213 -1.13867,-0.80887 -1.53661,1.90518 -1.56561,1.90109 -1.56561,-0.22076 0,-2.19234 -5.25356,-10.68328 -8,-12.9298 -1.32471,-1.08358 -1.3136,-1.23068 0.095,-1.25877 1.80751,-0.036 3.81682,2.11962 5.94812,6.38135 3.28231,6.56328 11.73099,8.46341 18.17168,4.08685 4.49152,-3.05206 5.73492,-3.20693 3.19254,-0.39762 -2.87817,3.18034 -6.86058,4.89762 -11.35769,4.89762 -2.93303,0 -4.04966,0.4136 -4.04966,1.5 0,0.825 -0.3876,1.5 -0.86133,1.5 -0.47373,0 -0.66921,-1.2375 -0.43439,-2.75 z m -5.05966,-23.92464 c -1.34115,-4.55044 -1.79953,-9.32536 -0.8952,-9.32536 0.5346,0 1.24866,2.33602 1.58681,5.19114 0.62794,5.30196 0.27477,7.41308 -0.69161,4.13422 z m 2.37069,-1.57536 c 0.0116,-2.46622 0.24909,-2.88826 0.98469,-1.75 1.2702,1.96549 1.2702,5 0,5 -0.55,0 -0.99311,-1.4625 -0.98469,-3.25 z m -77.81035,24.75 c 7.14118,-9.75148 7.37027,-10.69998 1.29625,-5.36692 -1.96261,1.7232 -3.8279,2.87356 -4.14509,2.55637 -0.9392,-0.93919 11.02871,-14.95863 17.71292,-20.74926 6.80973,-5.89937 6.46841,-7.61728 -0.68098,-3.42746 -4.35768,2.55377 -4.55325,2.58309 -3.9199,0.58757 0.92531,-2.91539 0.14749,-2.6513 -4.46528,1.51606 -2.20158,1.989 -4.00288,3.28537 -4.00288,2.88081 0,-2.56157 13.63746,-22.12527 16.58831,-23.79686 0.77643,-0.43983 1.41169,-1.23889 1.41169,-1.77568 0,-1.15995 -4.81624,1.20466 -10.82028,5.31239 -2.37615,1.62567 -4.59808,2.67795 -4.93763,2.33841 -0.33954,-0.33955 1.36077,-2.63293 3.77849,-5.0964 4.70817,-4.79728 4.63507,-5.79415 -0.17379,-2.36994 -5.18646,3.69309 -4.30757,1.17832 2.12328,-6.07533 6.44145,-7.26561 6.49752,-8.09163 0.37569,-5.53376 -6.99062,2.92086 -7.06973,1.68488 -0.34576,-5.40219 2.75,-2.89851 5,-5.44501 5,-5.65891 0,-0.2139 -1.35,-0.1189 -3,0.2111 -3.80411,0.76082 -3.80411,-0.50544 0,-4.15 3.65561,-3.5023 3.81417,-4.74245 0.5,-3.91064 -1.375,0.3451 -2.5,0.36686 -2.5,0.0484 0,-0.31851 2.01738,-2.72979 4.48306,-5.35841 4.59953,-4.90349 5.63817,-6.92355 3.04896,-5.92998 -0.80738,0.30982 -1.71265,0.16742 -2.01171,-0.31646 -0.67701,-1.09544 7.0881,-7.5533 10.76178,-8.95003 1.49485,-0.56834 2.72491,-1.60698 2.73346,-2.30809 0.009,-0.70112 2.25855,-2.3758 5,-3.72153 2.74145,-1.34572 4.98445,-3.04921 4.98445,-3.78553 0,-0.73632 2.07543,-2.2284 4.61207,-3.31573 3.88761,-1.66642 4.41815,-2.21062 3.37755,-3.46446 -1.03338,-1.24516 -5.36898,-1.4875 -26.61207,-1.4875 l -25.37755,0 0,61.66667 c 0,33.91666 0.18249,61.47916 0.40553,61.25 0.22304,-0.22917 2.38279,-3.11667 4.79943,-6.41667 z m 87.56587,-9.3125 c 0.24054,-0.72161 -0.66572,-1.1875 -2.30994,-1.1875 -2.31788,0 -2.52335,0.21982 -1.43325,1.5333 1.39251,1.67788 3.12189,1.51812 3.74319,-0.3458 z m -41.77083,-0.62848 c 0,-2.97181 -4.24942,-2.95739 -5.3913,0.0183 -0.39653,1.03335 0.26646,1.42268 2.42268,1.42268 1.91807,0 2.96862,-0.50994 2.96862,-1.44098 z m 48,-1.16601 c 0,-0.21615 -0.675,-0.39301 -1.5,-0.39301 -0.825,0 -1.5,0.43588 -1.5,0.96862 0,0.53273 0.675,0.70959 1.5,0.39301 0.825,-0.31659 1.5,-0.75246 1.5,-0.96862 z m -12,0.16601 c 0,-0.24254 -0.45,-0.7191 -1,-1.05902 -0.55,-0.33992 -1,-0.14148 -1,0.44098 0,0.58246 0.45,1.05902 1,1.05902 0.55,0 1,-0.19844 1,-0.44098 z m 22.18195,-26.05902 c 1.37569,-3.01931 2.46629,-3.18365 3.31805,-0.5 0.36144,1.13879 1.51303,2 2.67438,2 1.38236,0 1.85808,-0.47304 1.47628,-1.46797 -0.79683,-2.07651 0.88003,-2.80244 2.35848,-1.02102 1.89317,2.28113 3.10024,1.77297 2.4015,-1.01101 -0.62128,-2.47541 0.83872,-3.52358 2.08936,-1.5 1.24805,2.01939 2.7109,0.97644 2.09157,-1.49119 -0.53854,-2.1457 -0.31087,-2.45775 1.64159,-2.25 1.8013,0.19166 2.21932,-0.21298 2.03546,-1.97028 -0.16604,-1.58692 0.1846,-2.05184 1.24157,-1.64625 1.99294,0.76477 2.79193,-1.71744 1.57939,-4.90667 -0.8714,-2.29195 -0.72434,-2.64738 1.20918,-2.92245 1.9101,-0.27174 2.1762,-0.87528 2.01191,-4.56316 -0.1471,-3.30202 0.16629,-4.25 1.40499,-4.25 1.43714,0 1.44282,-0.17252 0.0576,-1.75 -3.08049,-3.50805 -3.10486,-6.01239 -0.074,-7.60043 l 2.79748,-1.46575 -3.74839,-0.7032 c -4.09103,-0.76748 -4.71018,-1.82105 -1.99839,-3.40052 1.61356,-0.93981 1.59407,-1.03063 -0.25,-1.16485 -1.1,-0.0801 -2.74763,-0.0722 -3.66141,0.0174 -2.58682,0.2538 -3.1403,-1.72732 -0.87739,-3.14053 4.33056,-2.70448 0.75878,-3.5648 -5.2112,-1.2552 -2.83687,1.09749 -2.01914,-1.32708 1,-2.96499 2.52576,-1.37025 2.57184,-1.49516 0.5651,-1.53193 -1.2017,-0.022 -3.3392,0.39882 -4.75,0.93521 -3.38201,1.28584 -3.30547,-0.18102 0.1849,-3.54372 l 2.75,-2.6494 -2.75,0.60893 c -1.5125,0.33492 -3.92391,0.89575 -5.35869,1.24629 -2.43859,0.5958 -2.53147,0.49305 -1.42431,-1.57569 1.09088,-2.03834 1.02571,-2.12813 -0.82556,-1.13736 -2.82665,1.5128 -4.1414,1.33923 -4.1414,-0.54675 0,-1.32305 -0.27461,-1.39453 -1.48817,-0.38737 -1.20912,1.00348 -1.61023,0.91696 -2.13916,-0.4614 -0.51993,-1.35493 -0.82813,-1.42793 -1.53084,-0.36263 -0.70045,1.0619 -1.18179,0.93808 -2.36083,-0.60728 -1.2435,-1.62984 -1.481,-1.6794 -1.481,-0.30902 0,2.80933 -2.18695,3.15157 -4.11498,0.64397 -1.18891,-1.54629 -1.84842,-1.88045 -1.86278,-0.94382 -0.0173,1.12778 -0.28891,1.18333 -1.22224,0.25 -1.94005,-1.94005 -2.88446,-1.38469 -2.21064,1.3 0.8106,3.22969 -0.27339,3.16058 -3.92122,-0.25 l -2.9413,-2.75 0.57074,3.73168 c 0.55258,3.61301 -0.50702,5.85649 -1.7875,3.78463 -0.98132,-1.58782 -2.51457,-1.19159 -1.87171,0.48369 0.49751,1.29648 -0.19186,1.74945 -2.63837,1.7336 -0.275,-0.002 -1.5125,-0.31039 -2.75,-0.68581 -1.82789,-0.55451 -2.25,-0.29471 -2.25,1.38482 0,1.37977 -0.64558,2.06739 -1.94098,2.06739 -2.84972,0 -3.2862,1.48443 -1.03544,3.52134 2.72685,2.46776 2.49292,3.27059 -1.27358,4.37091 -3.03003,0.88518 -3.09772,0.99653 -1,1.64522 1.2375,0.38269 2.25,1.37006 2.25,2.19417 0,1.31763 0.27142,1.32314 2.25,0.0457 1.2375,-0.79897 4.34888,-2.16025 6.91418,-3.02507 4.38357,-1.4778 5.08744,-1.44892 11.69951,0.4799 8.10106,2.36319 12.00359,1.54928 14.04403,-2.92899 0.64194,-1.4089 1.42998,-2.29882 1.75121,-1.97759 0.88204,0.88204 -3.28581,8.20988 -4.51435,7.93704 -1.32776,-0.29488 -6.14458,4.06905 -6.14458,5.56686 0,0.60508 -0.9,1.58181 -2,2.17051 -2.50294,1.33953 -2.75344,-0.47897 -0.25833,-1.87531 0.97399,-0.54507 1.35442,-1.33832 0.86309,-1.79969 -0.48321,-0.45375 -1.07946,-0.2625 -1.325,0.425 -0.24553,0.6875 -1.01515,1.25 -1.71025,1.25 -0.8537,0 -1.21451,1.46027 -1.11187,4.5 0.15989,4.73503 -0.24259,5.29373 -2.34121,3.25 -1.03259,-1.00557 -1.21835,-0.92062 -0.95,0.43442 0.18346,0.92644 -0.11643,1.7522 -0.66643,1.83504 -0.55,0.0828 -1.5625,0.61745 -2.25,1.18802 -0.87373,0.72513 -1.25,0.69954 -1.25,-0.085 0,-1.86141 -1.99381,-1.25955 -2.07895,0.62756 -0.055,1.22012 -0.24309,1.33726 -0.62105,0.38685 -0.42186,-1.06079 -0.71226,-1.08783 -1.30925,-0.12189 -0.42193,0.6827 -1.3155,0.90237 -1.98571,0.48816 -0.94114,-0.58166 -0.91627,-0.93995 0.10924,-1.57375 0.73029,-0.45134 1.0569,-1.09152 0.72581,-1.42262 -0.3311,-0.33109 -1.3714,0.16742 -2.31179,1.10781 -1.44099,1.44099 -1.85034,1.48778 -2.60374,0.29762 -0.49166,-0.7767 -0.90083,-1.96056 -0.90925,-2.6308 -0.009,-0.69154 -0.77222,-0.99161 -1.76531,-0.69378 -1.23484,0.37034 -1.08765,0.0308 0.5,-1.15335 1.2375,-0.92301 2.25,-2.12841 2.25,-2.67867 0,-0.55866 -0.6624,-0.45073 -1.5,0.24442 -1.23219,1.02262 -1.5,0.94468 -1.5,-0.43657 0,-0.92481 -0.45,-1.40335 -1,-1.06343 -0.55,0.33992 -1,0.17447 -1,-0.36766 0,-0.54213 0.76494,-1.13301 1.69986,-1.31305 1.40499,-0.27058 1.27489,-0.60499 -0.75,-1.92783 -1.54773,-1.01112 -3.18634,-1.32448 -4.44986,-0.85098 -1.9158,0.71795 -1.90044,0.78822 0.36477,1.66904 l 2.36478,0.91954 -2.9061,2.43547 c -1.59835,1.33951 -4.0125,3.21969 -5.36477,4.17819 l -2.45868,1.74272 3,-0.64363 c 1.65,-0.35399 3.35986,-1.25071 3.79969,-1.99272 0.43983,-0.742 1.52118,-1.34909 2.40301,-1.34909 1.24101,0 1.08623,0.44847 -0.68493,1.98459 -1.76486,1.53065 -2.03057,2.29506 -1.16168,3.342 0.61961,0.74659 0.8791,1.60489 0.57665,1.90733 -0.30245,0.30245 0.11316,2.13684 0.92357,4.07643 0.81041,1.93959 1.18731,3.8127 0.83754,4.16246 -0.34976,0.34976 -0.19896,0.94897 0.33511,1.33156 0.53407,0.3826 1.467,1.59563 2.07317,2.69563 1.67856,3.04604 4.68164,2.92131 10.64101,-0.44194 5.89402,-3.32639 11.17956,-3.93189 14.31416,-1.63982 2.85055,2.08437 1.06346,3.03461 -1.96959,1.04727 -2.3867,-1.56382 -2.8448,-1.5714 -5.949,-0.0984 -4.19203,1.98925 -5.84839,3.92287 -5.07864,5.92878 1.0146,2.64402 3.18371,2.81457 2.68604,0.21119 -0.32717,-1.71149 0.12119,-2.48892 1.72984,-2.99949 3.46618,-1.10012 8.04318,1.33803 8.70276,4.63594 0.31421,1.57104 0.79313,2.85643 1.06428,2.85643 0.27114,0 2.03054,-1.35 3.90979,-3 3.70805,-3.25571 5.29248,-3.65474 7.14722,-1.8 2.65098,2.65098 1.40033,4.08765 -2.95249,3.39161 -3.66037,-0.58532 -4.00139,-0.48196 -2.87755,0.87219 0.70121,0.84491 2.80448,1.5362 4.67392,1.5362 2.65518,0 3.64827,-0.54709 4.53807,-2.5 z m -12.68195,-13.5 c -0.99549,-1.1 -2.64023,-2 -3.65499,-2 -1.01475,0 -1.84501,-0.45 -1.84501,-1 0,-1.31573 0.41383,-1.27176 4.6369,0.49275 1.96496,0.82102 4.60142,1.23456 5.85879,0.91898 1.25737,-0.31558 2.58677,-0.0873 2.95423,0.50724 0.39373,0.63707 -0.15326,1.08103 -1.33189,1.08103 -1.1,0 -2.27811,0.45 -2.61803,1 -0.92137,1.4908 -1.98694,1.22441 -4,-1 z m 27,1 c -0.33992,-0.55 -0.14148,-1 0.44098,-1 0.58246,0 1.05902,0.45 1.05902,1 0,0.55 -0.19844,1 -0.44098,1 -0.24254,0 -0.7191,-0.45 -1.05902,-1 z m -3.03262,-3.05279 c -0.35787,-0.57903 -1.16791,-0.88037 -1.80009,-0.66964 -1.14859,0.38286 -3.66729,-1.5414 -3.66729,-2.80177 0,-0.36688 -0.90318,-1.93546 -2.00708,-3.48574 -1.10556,-1.55262 -1.55174,-2.97046 -0.99333,-3.15659 0.65674,-0.21891 0.57119,-1.53668 -0.24293,-3.74199 -1.04696,-2.83603 -1.02316,-3.48365 0.14262,-3.88088 1.046,-0.35641 0.82825,-0.90752 -0.86244,-2.18281 -2.28252,-1.72171 -3.86718,-8.02779 -2.01731,-8.02779 0.53926,0 0.98047,1.08778 0.98047,2.41729 0,1.95658 0.88973,2.75709 4.66829,4.20013 2.56756,0.98056 5.48693,1.72117 6.48748,1.6458 1.00056,-0.0754 2.38733,0.67001 3.08172,1.65641 0.69438,0.9864 2.27549,2.11348 3.51357,2.50463 3.09816,0.97881 4.766,4.2478 3.15661,6.187 -0.99309,1.19659 -1.40587,1.23257 -2.13491,0.18607 -0.60504,-0.86852 -0.70341,-0.58144 -0.29759,0.86851 0.33464,1.19564 0.0922,2.48352 -0.54126,2.875 -0.75568,0.46704 -0.79867,0.92471 -0.12592,1.34049 0.65947,0.40758 0.51877,1.31889 -0.39698,2.57126 -1.10081,1.50545 -1.68642,1.672 -2.61476,0.74366 -1.66249,-1.66249 -2.84834,-1.49557 -2.15788,0.30375 0.64993,1.69367 -1.16906,2.06837 -2.17099,0.44721 z m -0.38405,-9.94721 c 1.05417,0 1.91667,0.47656 1.91667,1.05902 0,0.58246 0.49318,0.75421 1.09596,0.38167 0.74406,-0.45985 0.57748,-1.19582 -0.51876,-2.29206 -1.71939,-1.71939 -4.71786,-0.739 -5.19268,1.69781 -0.12899,0.66196 -0.006,0.74231 0.27381,0.17856 0.27959,-0.56375 1.37084,-1.025 2.425,-1.025 z m -5.95924,-5.26667 c -0.98762,-0.98026 -1.10248,-0.8654 -0.5598,0.5598 0.37553,0.98622 0.93469,1.54122 1.24258,1.23333 0.30789,-0.30789 6.4e-4,-1.11479 -0.68278,-1.79313 z m -17.42301,11.05365 c -2.03123,-1.80358 -2.04675,-1.8998 -0.20108,-1.24698 1.1,0.38908 3.35,1.01776 5,1.39708 l 3,0.68966 -2.79892,0.55731 c -1.94947,0.38817 -3.46693,-0.0358 -5,-1.39707 z m 58.26861,17.46302 c 4.13381,-4.97604 9.26697,-15.46969 8.51977,-17.41688 -0.32755,-0.85356 -1.69667,-2.0652 -3.0425,-2.69253 -1.34583,-0.62732 -3.58105,-1.6715 -4.96717,-2.32038 -3.36343,-1.57454 -5.78422,0.41131 -2.58715,2.12233 1.15905,0.62031 2.10736,1.72459 2.10736,2.45397 0,0.87356 0.84895,1.16386 2.48756,0.85062 2.81385,-0.5379 4.55583,2.10948 2.64522,4.02009 -0.84371,0.84371 -1.13278,0.69896 -1.13278,-0.56722 0,-2.61907 -3.86322,-2.09431 -5.13527,0.69755 -0.94008,2.06324 -1.49483,2.28213 -3.97856,1.5698 -3.67866,-1.05502 -3.63395,-0.33408 0.22625,3.64864 3.60972,3.72428 3.08067,5.87263 -1.2337,5.00975 -2.23902,-0.4478 -2.87872,-0.20991 -2.87872,1.07052 0,2.01352 2.84259,5.30374 4.58218,5.30374 0.69972,0 2.67409,-1.6875 4.38751,-3.75 z m -111.34804,-16.5 c -0.46134,-4.71642 -0.16324,-7.52739 1.21491,-11.45591 l 1.82625,-5.2059 -2.5814,-5.52143 c -2.77428,-5.93398 -4.49168,-7.30108 -6.78298,-5.39947 -1.06945,0.88756 -1.36315,2.97198 -1.12326,7.97191 0.21666,4.5156 -0.008,6.43555 -0.67517,5.76545 -1.71991,-1.72791 -1.22038,-12.61284 0.66536,-14.49859 2.69888,-2.69887 6.33501,-1.11203 8.21432,3.58482 1.97527,4.9367 3.32515,5.09941 4.18713,0.50471 1.67395,-8.92295 -11.26789,-14.41021 -15.28082,-6.47898 -2.39719,4.73786 -1.49555,15.14596 1.99104,22.98339 1.73056,3.89011 7.80507,14 8.41187,14 0.29925,0 0.26899,-2.8125 -0.0673,-6.25 z m -4.58647,-4.68426 c -1.50524,-2.81258 -1.26811,-7.28817 0.52152,-9.84323 1.58173,-2.25824 4.4433,-3.04556 4.4433,-1.22251 0,0.55 -0.66643,1 -1.48095,1 -1.87649,0 -2.92912,4.08562 -2.20395,8.55429 0.63062,3.88607 0.23866,4.34894 -1.27992,1.51145 z m 113.39844,4.83204 c -3.1266,-1.22439 -4.07768,-0.94322 -2.0363,0.60199 1.04353,0.78989 2.36366,1.14795 2.93363,0.79569 0.59802,-0.3696 0.21852,-0.96071 -0.89733,-1.39768 z m -71.43362,-11.42917 c 0,-3.16208 2.814,-4.44347 4.54861,-2.07125 0.84108,1.15025 1.48595,1.35574 1.94148,0.61868 1.00798,-1.63096 -1.51124,-4.15816 -3.80226,-3.8143 -2.42051,0.3633 -6.19122,5.17474 -5.24953,6.69843 1.19862,1.93941 2.5617,1.17768 2.5617,-1.43156 z m -4,-5.33218 c 0.275,-0.21169 -0.53409,-0.0668 -1.79799,0.32196 -1.3598,0.41827 -2.90065,0.20668 -3.77416,-0.51827 -2.2739,-1.88717 -3.02054,-0.17736 -0.84856,1.94319 1.78114,1.73897 2.06604,1.75762 3.92071,0.25662 1.1,-0.89024 2.225,-1.79181 2.5,-2.0035 z"
       id="path4897"
       inkscape:connector-curvature="0" />
  </g>
</svg>
