<?xml version="1.0" encoding="UTF-8" standalone="no"?>
<!-- Created with Inkscape (http://www.inkscape.org/) -->

<svg
   xmlns:dc="http://purl.org/dc/elements/1.1/"
   xmlns:cc="http://creativecommons.org/ns#"
   xmlns:rdf="http://www.w3.org/1999/02/22-rdf-syntax-ns#"
   xmlns:svg="http://www.w3.org/2000/svg"
   xmlns="http://www.w3.org/2000/svg"
   xmlns:sodipodi="http://sodipodi.sourceforge.net/DTD/sodipodi-0.dtd"
   xmlns:inkscape="http://www.inkscape.org/namespaces/inkscape"
   width="54.794685mm"
   height="55.703407mm"
   viewBox="0 0 194.1544 197.37428"
   id="svg2"
   version="1.1"
   inkscape:version="0.91 r13725"
   sodipodi:docname="parrot.svg">
  <defs
     id="defs4" />
  <sodipodi:namedview
     id="base"
     pagecolor="#ffffff"
     bordercolor="#666666"
     borderopacity="1.0"
     inkscape:pageopacity="0.0"
     inkscape:pageshadow="2"
     inkscape:zoom="1.4"
     inkscape:cx="-169.28714"
     inkscape:cy="70.672184"
     inkscape:document-units="px"
     inkscape:current-layer="layer1"
     showgrid="false"
     inkscape:window-width="1366"
     inkscape:window-height="744"
     inkscape:window-x="0"
     inkscape:window-y="24"
     inkscape:window-maximized="1"
     fit-margin-top="0"
     fit-margin-left="0"
     fit-margin-right="0"
     fit-margin-bottom="0" />
  <metadata
     id="metadata7">
    <rdf:RDF>
      <cc:Work
         rdf:about="">
        <dc:format>image/svg+xml</dc:format>
        <dc:type
           rdf:resource="http://purl.org/dc/dcmitype/StillImage" />
        <dc:title />
      </cc:Work>
    </rdf:RDF>
  </metadata>
  <g
     inkscape:label="Layer 1"
     inkscape:groupmode="layer"
     id="layer1"
     transform="translate(-294.94947,-402.46464)">
    <path
       style="fill:#000000;opacity:0.7"
       d="m 452.09648,599.30825 c -0.0924,-0.069 -35.26792,-0.44805 -78.16792,-0.84245 -42.9,-0.39439 -78.06944,-0.78797 -78.15432,-0.87463 -0.0849,-0.0867 -0.30517,-44.02557 -0.48954,-97.64204 l -0.33523,-97.48449 42.48955,0.24389 c 44.04841,0.25284 150.39109,1.38322 150.6198,1.60103 0.53272,0.50734 1.40715,191.93082 0.88428,193.57825 -0.65479,2.06304 -1.10404,2.10706 -18.67481,1.82985 -9.90214,-0.15622 -18.07945,-0.34046 -18.17181,-0.40941 z m 9.78674,-3.72016 c -1.88854,-6.5681 -3.31091,-7.27504 -27.74312,-13.78871 -13.52441,-3.60563 -11.04786,-4.55963 -19.81843,7.63424 l -5.03483,7 6.1868,0.30073 c 3.40274,0.1654 6.41166,0.0759 6.68648,-0.19896 0.27482,-0.27482 -0.0203,-1.98515 -0.65576,-3.80072 -1.03502,-2.95703 -0.9249,-3.48862 1.05666,-5.10085 3.54835,-2.88699 6.84526,-1.85009 8.37906,2.63527 1.30611,3.81949 1.2984,3.84108 -1.84998,5.18444 -3.07706,1.31293 -2.96113,1.35741 4.33846,1.66453 4.125,0.17356 12.35418,0.38507 18.28707,0.47003 10.60212,0.15182 10.77645,0.11753 10.16759,-2 z m 7.54534,1.06804 c 0,-0.70263 -0.72708,-2.31555 -1.61573,-3.58427 -0.88865,-1.26873 -1.22615,-2.64674 -0.75,-3.06223 1.1909,-1.03921 7.37911,-3.43478 7.64779,-2.96061 0.11987,0.21153 1.34294,2.60779 2.71794,5.32501 1.375,2.71723 3.1308,5.14 3.90179,5.38393 2.20035,0.69618 0.69579,-4.8231 -2.91407,-10.68987 -3.21936,-5.23213 -4.0253,-5.46727 -8.46023,-2.46831 -1.08487,0.73361 -2.84944,1.33384 -3.92126,1.33384 -1.07181,0 -2.75499,0.72963 -3.74039,1.62141 -1.6655,1.50726 -1.67985,1.84166 -0.20375,4.75 0.87333,1.72072 2.03673,3.69109 2.58534,4.37859 1.3041,1.63428 4.75257,1.61433 4.75257,-0.0275 z m 8,0.73765 c 0,-0.29691 -0.91353,-2.3305 -2.03006,-4.51909 -1.76759,-3.46475 -2.28478,-3.84294 -4,-2.92498 -2.39629,1.28245 -2.40419,1.4402 -0.25433,5.07962 1.09723,1.85747 2.53899,2.90429 4,2.90429 1.25641,0 2.28439,-0.24293 2.28439,-0.53984 z m -72.47861,-4.71016 c 1.53294,-2.3375 5.68214,-7.23829 9.22046,-10.89065 5.27325,-5.44323 7.45432,-6.95049 12.09572,-8.35893 3.11434,-0.94506 7.59066,-2.34426 9.94738,-3.10935 6.02395,-1.95562 9.78975,-1.75612 22.5413,1.19417 18.15826,4.20123 19.17375,4.62534 19.17375,8.00773 0,1.59886 0.95257,4.51867 2.11681,6.48846 1.16425,1.96978 2.66165,5.23228 3.32756,7.25 0.6659,2.01771 1.85084,3.66857 2.63318,3.66857 1.16403,0 1.42245,-2.61414 1.42245,-14.38922 0,-12.93603 -0.202,-14.62763 -2.00015,-16.75 -1.85037,-2.184 -2.07874,-2.22974 -3.04969,-0.61078 -1.28619,2.14459 -2.95016,2.2856 -2.95016,0.25 0,-0.825 -0.3949,-1.5 -0.87756,-1.5 -0.48265,0 -1.43775,0.675 -2.12244,1.5 -1.75449,2.11404 -2.80901,1.86537 -3.18045,-0.75 -0.17575,-1.2375 -1.33205,-2.69421 -2.56955,-3.23713 -1.2375,-0.54292 -2.25,-1.50032 -2.25,-2.12755 0,-0.62724 -0.7237,-1.74104 -1.60821,-2.47513 -1.36095,-1.12949 -1.80428,-1.06657 -2.88341,0.40924 -1.06707,1.4593 -1.69023,1.55484 -3.81805,0.58534 -3.50173,-1.5955 -7.56247,-0.37127 -8.70095,2.62316 -1.19077,3.13196 -2.65527,3.12463 -5.57696,-0.0279 -2.58755,-2.79204 -6.41242,-3.36149 -6.41242,-0.95472 0,1.22309 -0.72639,1.40904 -3.48361,0.89179 -3.11072,-0.58358 -3.58975,-0.37435 -4.47525,1.95468 -1.0084,2.65232 -2.4624,3.35366 -3.49359,1.68516 -1.36197,-2.20372 -6.45749,-2.19047 -10.73518,0.0279 -2.3718,1.23001 -4.98737,2.54248 -5.81237,2.91662 -0.825,0.37413 -1.63294,1.77445 -1.79543,3.11181 -0.16495,1.3577 -1.26905,2.85889 -2.5,3.39914 -1.34661,0.59102 -2.32771,2.03779 -2.52099,3.71757 -0.22101,1.92074 -0.8876,2.75 -2.21058,2.75 -1.93597,0 -2.46301,-0.45686 -6.05646,-5.25 -2.41835,-3.22571 -5.87375,-3.62963 -6.62054,-0.77389 -0.42884,1.63986 -0.85982,1.79251 -2.53288,0.89712 -4.53168,-2.42528 -10.2485,4.13684 -9.05286,10.39143 0.4299,2.24886 0.22653,2.64831 -1.09093,2.14276 -0.89145,-0.34206 -1.61933,-0.12379 -1.61933,0.48561 0,0.60885 -0.47656,1.10699 -1.05902,1.10699 -0.58246,0 -0.80012,-0.41891 -0.48369,-0.9309 0.31644,-0.512 0.11799,-1.21356 -0.44098,-1.55902 -1.93674,-1.19697 -1.04143,-2.65283 1.19492,-1.94304 2.12793,0.67538 2.15191,0.612 0.63657,-1.68261 -0.91247,-1.38171 -2.78854,-2.52619 -4.46123,-2.72154 -1.58761,-0.18541 -3.67729,-1.18255 -4.64373,-2.21587 -2.5055,-2.67889 -7.09392,-0.78402 -8.76879,3.62124 -0.50239,1.32137 -2.03168,2.39327 -3.96665,2.78026 -2.51537,0.50307 -3.02854,1.0095 -2.55018,2.51668 0.42794,1.34833 0.02,2.03824 -1.42918,2.41722 -1.22273,0.31975 -2.02804,1.36169 -2.02804,2.62396 0,1.15149 -0.45,2.09362 -1,2.09362 -0.55,0 -1,-0.45 -1,-1 0,-1.22576 -1.04624,-1.2567 -2.89572,-0.0856 -0.76764,0.48607 -1.11926,1.60418 -0.78138,2.48469 0.54433,1.41849 4.02117,1.60091 30.51283,1.60091 l 29.8985,0 2.78716,-4.25 z m -37.27139,-2.41228 c -0.6875,-0.27741 -1.25,-1.36689 -1.25,-2.42105 0,-1.05417 -0.675,-1.91667 -1.5,-1.91667 -0.825,0 -1.5,-0.45 -1.5,-1 0,-1.68845 2.88944,-1.11056 5,1 3.10952,3.10952 2.6593,5.7134 -0.75,4.33772 z m 23.17322,-0.67721 c -0.33025,-0.8606 -0.26175,-2.11276 0.15221,-2.78256 0.52917,-0.85622 0.2255,-1.01554 -1.02273,-0.53655 -1.40902,0.5407 -1.62631,0.31782 -1.05295,-1.08006 1.16879,-2.84962 1.08534,-4.51607 -0.24975,-4.98704 -0.6875,-0.24253 -1.25,0.27153 -1.25,1.14237 0,0.87083 -0.45,1.58333 -1,1.58333 -1.58682,0 -1.15983,-3.72469 0.5,-4.36163 2.98602,-1.14584 5.004,0.59737 4.60528,3.97823 -0.0724,0.61413 0.54926,1.68173 1.38152,2.37244 1.91877,1.59244 1.92793,3.42188 0.025,5.00114 -1.20277,0.99821 -1.60332,0.93499 -2.08861,-0.32967 z m 7.01515,-1.46634 c 0.43637,-1.37486 0.23723,-2.88012 -0.49825,-3.76632 -1.61245,-1.94289 -0.41783,-3.0692 1.53571,-1.44791 1.99433,1.65514 1.94006,4.43002 -0.12008,6.13977 -1.464,1.21502 -1.56456,1.11356 -0.91738,-0.92554 z M 418.42856,570.465 c 0,-0.89459 -0.58629,-1.24363 -1.5,-0.89301 -1.78675,0.68565 -1.98035,-0.75802 -0.32379,-2.41458 0.85892,-0.85892 1.5333,-0.87984 2.5,-0.0776 1.54628,1.28335 1.78446,4.85381 0.32379,4.85381 -0.55,0 -1,-0.66088 -1,-1.46862 z m 50,-0.53138 c 0,-0.55 0.47656,-1 1.05902,-1 0.58246,0 0.7809,0.45 0.44098,1 -0.33992,0.55 -0.81648,1 -1.05902,1 -0.24254,0 -0.44098,-0.45 -0.44098,-1 z m -30.42497,-5.05943 c -1.90145,-1.91687 -1.89229,-1.94057 0.75,-1.94057 2.0083,0 2.67497,0.49845 2.67497,2 0,2.47151 -0.93038,2.45537 -3.42497,-0.0594 z m 22.87525,0.3284 c 0.3913,-1.0197 -0.004,-1.22794 -1.45657,-0.76697 -2.05499,0.65223 -2.7931,-0.88991 -0.96632,-2.01893 0.93076,-0.57524 9.97261,3.14114 9.97261,4.09894 0,0.22198 -1.81954,0.3323 -4.04343,0.24516 -3.01489,-0.11814 -3.90679,-0.5145 -3.50629,-1.5582 z m -51.70028,28.23268 c 2.41533,-3.72885 2.67452,-4.50552 1.5,-4.49482 -0.81367,0.007 -5.25,6.18029 -5.25,7.30505 0,1.65177 1.6708,0.39967 3.75,-2.81023 z m 19.65134,-2.88341 c -0.91728,-2.9902 -1.10111,-3.07607 -3.8774,-1.8111 -1.53415,0.69901 -2.3008,1.71743 -2.00423,2.66244 1.5497,4.93804 1.25707,4.72278 3.98785,2.93351 1.90332,-1.24711 2.38001,-2.1998 1.89378,-3.78485 z m 31.59866,-4.45818 c 0,-0.94276 -5.06723,-2.66181 -12.38269,-4.2008 -7.57923,-1.59449 -6.62774,-0.33843 1.5369,2.02886 4.04018,1.17143 7.79579,2.29279 8.34579,2.49193 1.75858,0.6367 2.5,0.54181 2.5,-0.31999 z m 3.45384,-2.08537 c 0.50548,-0.81788 -4.30933,-2.56875 -12.70384,-4.61964 -5.39035,-1.31694 -2.64141,0.47194 3.27713,2.1326 3.31492,0.93012 6.26648,2.0784 6.55902,2.55174 0.69841,1.13006 2.14952,1.09732 2.86769,-0.0647 z m 5.54616,-1.656 c 0,-0.82538 -5.75085,-3.19684 -9.32101,-3.84368 -2.10156,-0.38075 -4.46406,-0.93904 -5.25,-1.24063 -0.78595,-0.3016 -1.42899,-0.0555 -1.42899,0.54681 0,0.60235 1.76373,1.37721 3.9194,1.72191 2.15567,0.34471 5.19317,1.40836 6.75,2.36367 2.40017,1.47281 5.3306,1.72125 5.3306,0.45192 z m 2.54112,-2.35216 c -0.36254,-0.58659 -1.3936,-1.06653 -2.29127,-1.06653 -1.36496,0 -1.31464,0.23214 0.30745,1.41824 2.09456,1.53158 3.04375,1.3633 1.98382,-0.35171 z m -168.64411,-3.79677 c 2.53164,-2.05164 6.88274,-6.15556 9.6691,-9.11984 l 5.06611,-5.3896 8.61107,2.11984 c 4.7361,1.16591 9.52719,2.11984 10.64688,2.11984 1.11968,0 4.34406,0.90984 7.16528,2.02186 l 5.12949,2.02185 6.49192,-7.01187 c 5.53728,-5.98078 6.77195,-6.86201 8.3962,-5.99274 1.04735,0.56052 8.29616,1.69207 16.10848,2.51455 l 14.2042,1.49542 2.05713,-2.47466 c 2.25496,-2.71265 8.88087,-4.47764 10.00163,-2.66422 2.69667,4.36331 21.54451,-3.05305 30.48809,-11.99663 2.57122,-2.57121 3.5954,-2.98913 5.84258,-2.38407 11.78488,3.17315 16.37901,3.15653 19.36987,-0.0701 3.6398,-3.92671 5.52582,-4.70593 8.08071,-3.33859 1.22416,0.65515 5.49916,1.34595 9.5,1.53512 l 7.27425,0.34394 0,-13.87494 c 0,-18.64541 -0.29768,-19.91204 -4.87046,-20.72391 -1.99625,-0.35442 -5.09204,-1.52634 -6.87954,-2.60427 -3.65817,-2.20602 -4.05966,-1.37546 -1.5,3.10305 3.43641,6.01251 -2.14744,8.97873 -9.67401,5.13896 -4.50292,-2.29722 -4.50463,-2.29637 -3.05449,1.51777 1.25712,3.30648 -0.1929,5.44346 -3.6936,5.44346 -2.82994,0 -7.41128,-2.19062 -9.27318,-4.43406 -2.18401,-2.63157 -3.19787,-1.74344 -1.5804,1.3844 1.75881,3.40116 1.94719,5.67112 0.54269,6.53915 -2.00016,1.23617 -8.35823,-0.85015 -11.80213,-3.87272 -2.81603,-2.47151 -3.31014,-2.66596 -2.38665,-0.93921 1.49859,2.80208 0.5181,5.32246 -2.07055,5.32246 -2.01873,0 -6.75768,-4.24374 -6.75768,-6.05152 0,-2.15245 -2.00697,-0.74308 -2.56541,1.80152 -0.33193,1.5125 -1.63527,5.94018 -2.89631,9.83928 -2.61882,8.09737 -2.17035,10.29965 3.57446,17.55307 1.7206,2.17243 2.81834,4.2599 2.43942,4.63882 -0.37892,0.37892 -1.54816,-0.42933 -2.59832,-1.79611 l -1.90937,-2.48506 -0.0222,2.25 c -0.0123,1.2375 -0.47227,2.25 -1.02227,2.25 -0.55,0 -1,-0.675 -1,-1.5 0,-1.80819 -1.16679,-1.93321 -2.8,-0.3 -1.53219,1.53219 -1.59551,-0.0295 -0.15484,-3.81877 1.23117,-3.23823 -0.27233,-7.86511 -2.88672,-8.88361 -0.91214,-0.35535 -6.56627,-0.90881 -12.56473,-1.22991 l -10.90629,-0.58382 0.57917,7.65805 c 0.31855,4.21193 0.40325,7.65806 0.18823,7.65806 -0.21502,0 -1.0623,-1.2375 -1.88284,-2.75 l -1.4919,-2.75 -0.04,2.75 c -0.022,1.5125 -0.49004,2.75 -1.04004,2.75 -0.55,0 -1,-0.70532 -1,-1.56739 0,-1.11231 -0.58068,-1.38308 -2,-0.93261 -2.86033,0.90783 -2.47153,-0.78372 1.04552,-4.54873 3.79122,-4.05851 3.35597,-7.22547 -1.9145,-13.93045 -1.99706,-2.54063 -4.95826,-6.73466 -6.58043,-9.32007 -2.5343,-4.03914 -3.40901,-4.70075 -6.21482,-4.70075 -2.14384,0 -3.60264,-0.63014 -4.24727,-1.83463 -0.71153,-1.32951 -1.79528,-1.71525 -3.93621,-1.40103 -2.00749,0.29464 -3.56512,-0.17717 -4.86008,-1.47213 -1.36053,-1.36053 -2.62707,-1.71283 -4.4271,-1.23143 -3.26424,0.873 -11.30986,-0.35508 -13.33447,-2.03535 -0.92228,-0.76543 -1.33113,-2.07868 -0.98583,-3.16661 0.40798,-1.28545 0.0942,-1.85882 -1.01726,-1.85882 -2.46893,0 -9.20813,-3.72523 -9.87283,-5.4574 -0.32557,-0.84843 -0.35586,-2.15783 -0.0673,-2.90978 0.36547,-0.95241 -0.89457,-1.72454 -4.15344,-2.54513 -2.71366,-0.68331 -5.93609,-2.43597 -7.67392,-4.1738 -2.81347,-2.81347 -2.8952,-3.10706 -1.3425,-4.82278 1.56192,-1.7259 1.48721,-1.86016 -1.35085,-2.42777 -3.40574,-0.68115 -7.06669,-3.89912 -7.06669,-6.21161 0,-1.77569 5.62882,-4.45885 7.94763,-3.78851 0.8538,0.24682 -0.47789,-0.65555 -2.95932,-2.00528 -8.7683,-4.76935 -13.19869,-11.87613 -9.62899,-15.44584 1.83638,-1.83637 3.32556,-1.25534 11.0339,4.30507 2.69127,1.94135 5.08535,3.3376 5.32017,3.10277 0.23483,-0.23483 -1.51712,-2.38642 -3.89322,-4.78132 -8.18302,-8.24778 -12.60739,-20.77529 -8.91047,-25.22981 2.83041,-3.41044 4.73917,-1.87979 9.52876,7.64119 6.87035,13.65721 15.48733,20.82769 31.03638,25.82643 3.83617,1.23326 10.27611,3.74672 14.31099,5.58547 5.90277,2.68998 7.72981,3.13251 9.35098,2.26488 1.69945,-0.90952 1.94084,-1.80995 1.54213,-5.75254 -0.60876,-6.01968 -1.5395,-8.25236 -4.37578,-10.49682 -1.26674,-1.00242 -2.30316,-2.66336 -2.30316,-3.69098 0,-1.02762 -0.3375,-2.07699 -0.75,-2.33193 -1.13115,-0.69909 -0.90058,-6.68007 0.25,-6.48473 0.55,0.0934 3.39132,1.26456 6.31404,2.60262 2.92272,1.33807 5.50127,2.24563 5.7301,2.0168 0.22883,-0.22883 0.59013,-3.39728 0.80289,-7.041 0.25086,-4.29609 0.94598,-7.18407 1.97742,-8.21551 0.87481,-0.87481 1.35384,-2.20747 1.06451,-2.96145 -0.34401,-0.89648 0.67238,-1.76641 2.93704,-2.51381 1.97995,-0.65345 3.6823,-1.98116 3.97493,-3.10018 0.88491,-3.3839 2.27248,-2.14644 3.65889,3.26305 0.73586,2.87117 1.94248,5.82486 2.68138,6.56376 1.45249,1.45248 3.35878,0.83211 3.35883,-1.09308 4e-5,-1.63748 5.94731,-6.2371 8.99997,-6.96057 5.71846,-1.35526 11.61143,-2.83849 13.25,-3.33496 2.62087,-0.79409 2.13794,0.80887 -1.79581,5.96075 -1.95019,2.55409 -3.15019,4.6438 -2.66666,4.6438 0.48352,0 1.209,-0.32987 1.61217,-0.73304 0.40317,-0.40317 2.61567,-1.29509 4.91667,-1.98206 3.51037,-1.04802 4.35666,-1.01823 5.25884,0.18513 0.59644,0.79555 1.9586,1.20314 3.05909,0.91535 1.43805,-0.37606 2.30564,0.18739 3.15335,2.04791 0.64321,1.41169 1.96662,2.59161 2.94091,2.62204 1.92927,0.0603 6.88813,5.66131 5.89313,6.65631 -0.33688,0.33689 -4.32708,0.913 -8.8671,1.28024 -4.54003,0.36725 -9.70947,1.42693 -11.48766,2.35485 -3.42299,1.78623 -6.26693,6.16412 -6.26693,9.64715 0,2.14594 8.25182,11.02832 13.26549,14.27917 1.50398,0.97518 2.73451,2.58768 2.73451,3.58334 0,0.99565 0.25151,2.06179 0.55892,2.36919 0.3074,0.30741 4.05725,-1.17385 8.333,-3.29167 8.99729,-4.45646 15.11958,-6.04744 21.25317,-5.523 6.24303,0.5338 16.46238,-1.26253 22.58383,-3.96973 l 5.27108,-2.33112 0,-26.50232 0,-26.50232 -14.25,-0.33216 c -17.0522,-0.39748 -111.5125,-1.18192 -148.75,-1.23528 l -26.5,-0.038 0.20219,43 c 0.1112,23.65 0.2237,63.1375 0.25,87.75 0.0263,24.6125 0.33896,44.75 0.69482,44.75 0.35585,0 2.71835,-1.67861 5.25,-3.73024 z m 131.60299,2.2014 c -2.2,-0.79257 -5.125,-1.41324 -6.5,-1.37925 -1.97848,0.0489 -1.66556,0.3368 1.5,1.38009 2.2,0.72506 5.125,1.34573 6.5,1.37925 1.9042,0.0464 1.54672,-0.28247 -1.5,-1.38009 z m 41.5,0.50409 c 0,-1.33482 -3.3367,-2.52869 -9.25,-3.30966 -6.43767,-0.85022 -6.0073,-0.0684 0.73256,1.33079 3.01541,0.626 5.74197,1.5579 6.05902,2.0709 0.77367,1.25183 2.45842,1.18876 2.45842,-0.092 z m -37,-1.97525 c -0.825,-0.53316 -2.4,-0.94464 -3.5,-0.9144 -2,0.055 -2,0.055 0,0.9144 1.1,0.47269 2.675,0.88417 3.5,0.9144 1.33333,0.0489 1.33333,-0.0527 0,-0.9144 z m 8,0.0385 c 0,-0.92274 -4.14361,-2.29965 -10.5,-3.48912 -3.39425,-0.63516 -2.05946,0.11462 4.5,2.52775 5.65481,2.08031 6,2.13562 6,0.96137 z m 5,-2 c 0,-1.157 -7.65943,-3.35523 -9.32433,-2.67605 -0.65757,0.26826 -0.45485,0.51441 0.46002,0.55856 0.89963,0.0434 2.92463,0.75118 4.5,1.57279 3.34317,1.74358 4.36431,1.87103 4.36431,0.5447 z m 7.5,-1.0385 c -2.74909,-1.18132 -4.32797,-1.18132 -2.5,0 0.825,0.53316 2.175,0.94464 3,0.9144 0.98906,-0.0362 0.81874,-0.34772 -0.5,-0.9144 z m -44.65201,-41.55555 c 0.19139,-0.1689 1.78749,-4.92003 3.54689,-10.55807 1.75939,-5.63803 3.6278,-10.39261 4.15201,-10.56573 0.52421,-0.17312 1.85311,1.33364 2.95311,3.34836 3.62962,6.64788 7.72241,7.3535 5.4,0.93099 -1.88123,-5.20245 -0.33403,-5.57394 3.90417,-0.93741 3.48607,3.8137 9.41025,6.45633 10.97217,4.89441 0.34833,-0.34833 0.0525,-2.07866 -0.65729,-3.84517 -3.21436,-7.99923 -2.49927,-8.51548 4.44889,-3.21183 2.82478,2.1562 5.70767,3.5 7.50866,3.5 3.41241,0 3.4339,-0.0964 1.27903,-5.73886 -0.90441,-2.36815 -1.3957,-4.55441 -1.09176,-4.85834 0.30394,-0.30394 2.28877,0.59631 4.41074,2.00056 7.6734,5.07802 13.8846,4.08852 9.91458,-1.57949 -3.64862,-5.20914 -0.98597,-8.14064 4.5163,-4.97231 1.86698,1.07505 4.85701,2.25899 6.64451,2.63099 l 3.25,0.67636 0,-21.07945 c 0,-11.59371 -0.15455,-21.07946 -0.34345,-21.07946 -0.1889,0 -3.0014,0.92276 -6.25,2.05058 -3.83867,1.33267 -10.36312,2.35192 -18.636,2.91132 -12.20446,0.82524 -13.11591,1.04504 -22.10005,5.32947 l -9.37059,4.46873 -0.89996,8.29314 c -0.5486,5.0554 -1.38796,8.45326 -2.14995,8.70328 -0.72503,0.23789 -1.25,-0.44502 -1.25,-1.62607 0,-1.84483 -0.45178,-1.98271 -4.80668,-1.46694 -4.40431,0.52163 -5.06693,0.30904 -7.91552,-2.53955 -3.31382,-3.31382 -5.2778,-9.77964 -5.2778,-17.37557 0,-3.26506 0.64495,-4.8186 3.01606,-7.26496 2.94209,-3.03546 2.97763,-3.1888 1.44929,-6.25243 -2.11351,-4.23663 -0.53107,-10.33595 3.4096,-13.14196 3.31681,-2.36177 9.8675,-4.03023 15.95838,-4.06459 5.33471,-0.0301 5.18838,-1.68188 -0.40083,-4.52445 -2.16287,-1.1 -4.0825,-2.3375 -4.26583,-2.75 -0.18334,-0.4125 -1.19584,-0.75 -2.25,-0.75 -1.05417,0 -1.91667,-0.63288 -1.91667,-1.4064 0,-1.15305 -0.67553,-1.20927 -3.75,-0.3121 -2.0625,0.60186 -4.95591,1.91788 -6.42979,2.9245 -1.61379,1.10216 -2.92288,1.43689 -3.29087,0.84147 -0.73066,-1.18223 1.70439,-6.16663 3.90472,-7.99275 2.41471,-2.00403 1.85928,-3.15989 -1.18406,-2.46407 -9.35431,2.13874 -16.25,6.00927 -16.25,9.12107 0,0.74308 -0.6979,1.61886 -1.55088,1.94618 -2.09751,0.80489 -6.44912,-3.42802 -6.44912,-6.2732 0,-1.24666 -0.34196,-2.47801 -0.75991,-2.73631 -1.32577,-0.81938 -7.24009,2.19414 -7.24009,3.68903 0,0.78868 -0.66192,2.70983 -1.47094,4.26921 -0.99455,1.917 -1.32542,4.7069 -1.0216,8.61431 0.50838,6.53837 0.0954,6.79735 -6.87629,4.31215 -2.12786,-0.75851 -4.42365,-1.16622 -5.10175,-0.906 -2.09333,0.80328 -0.44069,5.51685 2.53256,7.22327 1.52907,0.87756 2.76329,2.28274 2.74272,3.12261 -0.0206,0.83987 0.292,4.03033 0.69463,7.08991 0.59902,4.55198 0.42546,5.86947 -0.95507,7.25 -2.45801,2.45801 -6.82731,2.07382 -13.32278,-1.17146 -3.14681,-1.57222 -8.87148,-3.86048 -12.72148,-5.08502 -16.78216,-5.33779 -24.91479,-11.9489 -31.96332,-25.98337 -2.50621,-4.99017 -5.17909,-9.07303 -5.93973,-9.07303 -1.60742,0 -2.59695,2.13773 -2.59695,5.6103 0,2.85843 4.92824,12.94795 7.81114,15.99164 1.55732,1.64418 9.84471,8.56765 12.10553,10.11321 0.22916,0.15667 0.16503,0.53648 -0.14252,0.84403 -1.26336,1.26336 -11.74762,-2.84461 -15.53608,-6.08739 -4.79417,-4.10364 -7.23807,-4.47729 -7.23807,-1.10665 0,5.59403 8.27263,11.39467 17.6276,12.36019 2.95482,0.30496 5.3724,0.88904 5.3724,1.29794 0,1.05576 -3.8229,1.9448 -8.5,1.97673 -8.41194,0.0574 -10.90284,2.37949 -5.99915,5.59251 2.25877,1.48001 10.42583,2.29393 12.99915,1.29549 0.55,-0.2134 1.14532,0.0443 1.32294,0.57267 0.17761,0.52837 -1.38652,1.5525 -3.47584,2.27584 -4.68608,1.62236 -5.58628,2.47663 -4.79171,4.54724 1.12581,2.93382 8.74015,5.05428 15.43109,4.29729 6.29233,-0.7119 8.49232,0.6732 2.85883,1.7999 -3.34257,0.66851 -5.84531,2.27678 -5.84531,3.7562 0,2.10885 6.64174,4.85548 11.75,4.85912 5.83783,0.004 6.8267,1.25845 2.25,2.8539 -8.14843,2.84055 1.86656,5.79259 12.41131,3.65837 3.35177,-0.67839 3.824,-0.56413 3.30103,0.79873 -0.75337,1.96324 2.36643,3.14077 5.94301,2.24311 1.982,-0.49746 2.62339,-0.20047 3.04446,1.4097 0.4005,1.53152 1.353,2.03993 3.8218,2.03993 2.86606,0 3.64539,0.60999 6.06862,4.75 5.02358,8.58258 9.7472,13.99083 12.78477,14.63773 1.58125,0.33675 5.18125,0.64563 8,0.68639 2.81875,0.0408 7.15,0.42913 9.625,0.86303 3.93085,0.68913 7.74975,0.47647 8.84799,-0.4927 z m -27.84799,-17.94445 c 0,-0.825 0.45,-1.5 1,-1.5 0.55,0 1,0.675 1,1.5 0,0.825 -0.45,1.5 -1,1.5 -0.55,0 -1,-0.675 -1,-1.5 z m 4.51008,0.48369 c 0.34546,-0.55897 1.04702,-0.75742 1.55902,-0.44098 1.38704,0.85723 1.12841,1.45729 -0.62812,1.45729 -0.85746,0 -1.27636,-0.45734 -0.9309,-1.01631 z m 5.03263,0.0854 c -0.31644,-0.512 -0.11799,-1.21356 0.44098,-1.55902 0.55897,-0.34546 1.01631,0.0734 1.01631,0.9309 0,1.75653 -0.60006,2.01516 -1.45729,0.62812 z m -13.54271,-2.51007 c 0,-0.79254 0.45,-1.7191 1,-2.05902 0.55,-0.33992 1,0.30852 1,1.44098 0,1.13246 -0.45,2.05902 -1,2.05902 -0.55,0 -1,-0.64844 -1,-1.44098 z m -4,-2.55902 c 0,-1.1 0.17252,-2 0.38337,-2 0.21085,0 0.61872,0.9 0.90638,2 0.28765,1.1 0.11514,2 -0.38337,2 -0.49851,0 -0.90638,-0.9 -0.90638,-2 z m -3,-2 c 0,-1.86667 0.26667,-2.13333 1.2,-1.2 0.93333,0.93333 0.93333,1.46667 0,2.4 -0.93333,0.93333 -1.2,0.66667 -1.2,-1.2 z m -3.95416,-7.08565 c 0.61391,-1.1471 1.36033,-1.84151 1.65872,-1.54312 0.82426,0.82426 -0.49605,3.62877 -1.70836,3.62877 -0.73956,0 -0.72434,-0.63946 0.0496,-2.08565 z m -3.04584,-2.35533 c 0,-0.85746 0.45,-1.55902 1,-1.55902 0.55,0 1,0.42344 1,0.94098 0,0.51754 -0.45,1.2191 -1,1.55902 -0.55,0.33992 -1,-0.0835 -1,-0.94098 z m -2.44721,-4.47361 c -0.32198,-0.52097 -0.15917,-1.21065 0.3618,-1.53262 0.52097,-0.32198 1.21065,-0.15917 1.53262,0.3618 0.32198,0.52097 0.15917,1.21065 -0.3618,1.53262 -0.52097,0.32198 -1.21065,0.15917 -1.53262,-0.3618 z m 81.11388,-11.75208 c -0.9557,-0.95569 -0.82206,-2.33333 0.22634,-2.33333 0.49116,0 1.15203,0.675 1.46862,1.5 0.58492,1.52428 -0.4803,2.04799 -1.69496,0.83333 z m 5.53333,-2.53333 c -0.66,-0.66 -1.2,-1.56 -1.2,-2 0,-1.4734 1.50615,-0.82042 2.76793,1.2 1.36745,2.18964 0.34393,2.71186 -1.56793,0.8 z m 5.98333,-0.0167 c -1.40079,-1.40079 -1.545,-2.78333 -0.29032,-2.78333 0.91646,0 2.42476,3.01556 1.81386,3.62646 -0.18711,0.18711 -0.8727,-0.19229 -1.52354,-0.84313 z m -108.18333,-0.78333 c 0,-0.55 0.47656,-1 1.05902,-1 0.58246,0 0.7809,0.45 0.44098,1 -0.33992,0.55 -0.81648,1 -1.05902,1 -0.24254,0 -0.44098,-0.45 -0.44098,-1 z m 114,-1 c -0.79314,-0.49019 -1.11011,-1.22322 -0.70437,-1.62896 0.40574,-0.40574 1.2627,-0.21271 1.90437,0.42896 1.51091,1.51091 0.66759,2.35423 -1.2,1.2 z M 339.6575,475.7468 c 0.49828,-1.49484 2.77106,-2.31789 2.77106,-1.0035 0,0.53699 -0.7126,1.24979 -1.58356,1.58401 -0.97391,0.37373 -1.43108,0.15024 -1.1875,-0.58051 z m 130.77106,-0.81318 c 0,-0.55 0.45,-1 1,-1 0.55,0 1,0.45 1,1 0,0.55 -0.45,1 -1,1 -0.55,0 -1,-0.45 -1,-1 z M 392.454,472.95906 c -2.94935,-2.94935 -3.54337,-6.71612 -1.67651,-10.63096 0.89029,-1.86696 2.30099,-3.45073 3.13489,-3.51948 5.49002,-0.45262 7.35502,-0.0362 9.51618,2.125 2.62857,2.62857 2.59443,7.97459 -0.0726,11.36514 -2.58613,3.28773 -7.9497,3.61258 -10.90198,0.6603 z m 6.97456,-2.01697 c 0,-1.09533 0.9,-2.55358 2,-3.24054 2.6326,-1.64409 2.53826,-4.27751 -0.22251,-6.21123 -3.09517,-2.16794 -5.63446,-1.94322 -7.83393,0.6933 -2.45712,2.94537 -2.42469,5.85645 0.0954,8.56144 2.60704,2.79833 5.96104,2.9092 5.96104,0.19703 z m -64,0.99153 c 0,-0.55 0.70156,-1 1.55902,-1 0.85746,0 1.2809,0.45 0.94098,1 -0.33992,0.55 -1.04148,1 -1.55902,1 -0.51754,0 -0.94098,-0.45 -0.94098,-1 z m -4,-3 c 0,-0.55 1.15156,-1 2.55902,-1 1.45136,0 2.2915,0.43284 1.94098,1 -0.33992,0.55 -1.49148,1 -2.55902,1 -1.06754,0 -1.94098,-0.45 -1.94098,-1 z m 51,-23 c 0,-0.55 0.42344,-1 0.94098,-1 0.51754,0 1.2191,0.45 1.55902,1 0.33992,0.55 -0.0835,1 -0.94098,1 -0.85746,0 -1.55902,-0.45 -1.55902,-1 z m -1.34371,-5.20633 c -0.54046,-2.06672 -0.12194,-3.64332 0.71948,-2.71034 1.01817,1.12898 1.64083,4.91667 0.80825,4.91667 -0.52292,0 -1.21039,-0.99285 -1.52773,-2.20633 z m 15.34371,-0.79367 c 0,-0.55 0.45,-1 1,-1 0.55,0 1,0.45 1,1 0,0.55 -0.45,1 -1,1 -0.55,0 -1,-0.45 -1,-1 z m 0,-4 c 0,-0.55 0.45,-1 1,-1 0.55,0 1,0.45 1,1 0,0.55 -0.45,1 -1,1 -0.55,0 -1,-0.45 -1,-1 z m -16.5,-1 c -0.33992,-0.55 0.0835,-1 0.94098,-1 0.85746,0 1.55902,0.45 1.55902,1 0,0.55 -0.42344,1 -0.94098,1 -0.51754,0 -1.2191,-0.45 -1.55902,-1 z m 19.22388,-1.69016 c -0.25747,-0.44541 0.37433,-1.67607 1.404,-2.7348 2.15763,-2.21854 2.47549,-0.95474 0.43632,1.7348 -0.75471,0.99541 -1.58285,1.44541 -1.84032,1 z m 23.77041,54.6994 c 0.33678,-0.54492 -0.96505,-1.74296 -2.89295,-2.66231 -2.97494,-1.41865 -3.75315,-1.46583 -5.14361,-0.31185 -1.51194,1.2548 -1.5009,1.46019 0.1431,2.66231 2.0994,1.53512 7.01736,1.72942 7.89346,0.31185 z m 4.48482,-7.00924 c 0.0292,-10.4869 -4.18982,-14.25881 -12.97911,-11.60373 -4.34658,1.31301 -4.4975,1.49138 -4.42681,5.23154 0.0403,2.12971 0.3726,5.05499 0.73854,6.50064 0.6121,2.41804 1.0065,2.5939 4.92682,2.19681 3.04252,-0.30819 5.11956,0.11224 7.26145,1.46983 3.50839,2.22371 4.46462,1.41351 4.47911,-3.79509 z m -13.27769,-14.66429 c 0.35742,-0.93142 0.91525,-1.06881 1.6989,-0.41844 0.73502,0.61002 1.70939,0.61946 2.63322,0.0255 1.28452,-0.82582 1.28036,-1.06496 -0.0335,-1.92748 -0.825,-0.54158 -2.20265,-0.99158 -3.06144,-1 -1.68725,-0.0165 -5.9386,3.51281 -5.9386,4.93003 0,1.35108 4.10454,-0.0542 4.70142,-1.60963 z"
       id="path4149"
       inkscape:connector-curvature="0" />
    <path
       style="fill:#000000;opacity:0.7"
       d="m 452.09648,599.30825 c -0.0924,-0.069 -35.26792,-0.44805 -78.16792,-0.84245 -42.9,-0.39439 -78.06944,-0.78797 -78.15432,-0.87463 -0.0849,-0.0867 -0.30517,-44.02557 -0.48954,-97.64204 l -0.33523,-97.48449 42.48955,0.24389 c 44.04841,0.25284 150.39109,1.38322 150.6198,1.60103 0.53272,0.50734 1.40715,191.93082 0.88428,193.57825 -0.65479,2.06304 -1.10404,2.10706 -18.67481,1.82985 -9.90214,-0.15622 -18.07945,-0.34046 -18.17181,-0.40941 z m 9.78674,-3.72016 c -1.88854,-6.5681 -3.31091,-7.27504 -27.74312,-13.78871 -13.52441,-3.60563 -11.04786,-4.55963 -19.81843,7.63424 l -5.03483,7 6.1868,0.30073 c 3.40274,0.1654 6.41166,0.0759 6.68648,-0.19896 0.27482,-0.27482 -0.0203,-1.98515 -0.65576,-3.80072 -1.03502,-2.95703 -0.9249,-3.48862 1.05666,-5.10085 3.54835,-2.88699 6.84526,-1.85009 8.37906,2.63527 1.30611,3.81949 1.2984,3.84108 -1.84998,5.18444 -3.07706,1.31293 -2.96113,1.35741 4.33846,1.66453 4.125,0.17356 12.35418,0.38507 18.28707,0.47003 10.60212,0.15182 10.77645,0.11753 10.16759,-2 z m 7.54534,1.06804 c 0,-0.70263 -0.72708,-2.31555 -1.61573,-3.58427 -0.88865,-1.26873 -1.22615,-2.64674 -0.75,-3.06223 1.1909,-1.03921 7.37911,-3.43478 7.64779,-2.96061 0.11987,0.21153 1.34294,2.60779 2.71794,5.32501 1.375,2.71723 3.1308,5.14 3.90179,5.38393 2.20035,0.69618 0.69579,-4.8231 -2.91407,-10.68987 -3.21936,-5.23213 -4.0253,-5.46727 -8.46023,-2.46831 -1.08487,0.73361 -2.84944,1.33384 -3.92126,1.33384 -1.07181,0 -2.75499,0.72963 -3.74039,1.62141 -1.6655,1.50726 -1.67985,1.84166 -0.20375,4.75 0.87333,1.72072 2.03673,3.69109 2.58534,4.37859 1.3041,1.63428 4.75257,1.61433 4.75257,-0.0275 z m 8,0.73765 c 0,-0.29691 -0.91353,-2.3305 -2.03006,-4.51909 -1.76759,-3.46475 -2.28478,-3.84294 -4,-2.92498 -2.39629,1.28245 -2.40419,1.4402 -0.25433,5.07962 1.09723,1.85747 2.53899,2.90429 4,2.90429 1.25641,0 2.28439,-0.24293 2.28439,-0.53984 z m -72.47861,-4.71016 c 1.53294,-2.3375 5.68214,-7.23829 9.22046,-10.89065 5.27325,-5.44323 7.45432,-6.95049 12.09572,-8.35893 3.11434,-0.94506 7.59066,-2.34426 9.94738,-3.10935 6.02395,-1.95562 9.78975,-1.75612 22.5413,1.19417 18.15826,4.20123 19.17375,4.62534 19.17375,8.00773 0,1.59886 0.95257,4.51867 2.11681,6.48846 1.16425,1.96978 2.66165,5.23228 3.32756,7.25 0.6659,2.01771 1.85084,3.66857 2.63318,3.66857 1.16403,0 1.42245,-2.61414 1.42245,-14.38922 0,-12.93603 -0.202,-14.62763 -2.00015,-16.75 -1.85037,-2.184 -2.07874,-2.22974 -3.04969,-0.61078 -1.28619,2.14459 -2.95016,2.2856 -2.95016,0.25 0,-0.825 -0.3949,-1.5 -0.87756,-1.5 -0.48265,0 -1.43775,0.675 -2.12244,1.5 -1.75449,2.11404 -2.80901,1.86537 -3.18045,-0.75 -0.17575,-1.2375 -1.33205,-2.69421 -2.56955,-3.23713 -1.2375,-0.54292 -2.25,-1.50032 -2.25,-2.12755 0,-0.62724 -0.7237,-1.74104 -1.60821,-2.47513 -1.36095,-1.12949 -1.80428,-1.06657 -2.88341,0.40924 -1.06707,1.4593 -1.69023,1.55484 -3.81805,0.58534 -3.50173,-1.5955 -7.56247,-0.37127 -8.70095,2.62316 -1.19077,3.13196 -2.65527,3.12463 -5.57696,-0.0279 -2.58755,-2.79204 -6.41242,-3.36149 -6.41242,-0.95472 0,1.22309 -0.72639,1.40904 -3.48361,0.89179 -3.11072,-0.58358 -3.58975,-0.37435 -4.47525,1.95468 -1.0084,2.65232 -2.4624,3.35366 -3.49359,1.68516 -1.36197,-2.20372 -6.45749,-2.19047 -10.73518,0.0279 -2.3718,1.23001 -4.98737,2.54248 -5.81237,2.91662 -0.825,0.37413 -1.63294,1.77445 -1.79543,3.11181 -0.16495,1.3577 -1.26905,2.85889 -2.5,3.39914 -1.34661,0.59102 -2.32771,2.03779 -2.52099,3.71757 -0.22101,1.92074 -0.8876,2.75 -2.21058,2.75 -1.93597,0 -2.46301,-0.45686 -6.05646,-5.25 -2.41835,-3.22571 -5.87375,-3.62963 -6.62054,-0.77389 -0.42884,1.63986 -0.85982,1.79251 -2.53288,0.89712 -4.53168,-2.42528 -10.2485,4.13684 -9.05286,10.39143 0.4299,2.24886 0.22653,2.64831 -1.09093,2.14276 -0.89145,-0.34206 -1.61933,-0.12379 -1.61933,0.48561 0,0.60885 -0.47656,1.10699 -1.05902,1.10699 -0.58246,0 -0.80012,-0.41891 -0.48369,-0.9309 0.31644,-0.512 0.11799,-1.21356 -0.44098,-1.55902 -1.93674,-1.19697 -1.04143,-2.65283 1.19492,-1.94304 2.12793,0.67538 2.15191,0.612 0.63657,-1.68261 -0.91247,-1.38171 -2.78854,-2.52619 -4.46123,-2.72154 -1.58761,-0.18541 -3.67729,-1.18255 -4.64373,-2.21587 -2.5055,-2.67889 -7.09392,-0.78402 -8.76879,3.62124 -0.50239,1.32137 -2.03168,2.39327 -3.96665,2.78026 -2.51537,0.50307 -3.02854,1.0095 -2.55018,2.51668 0.42794,1.34833 0.02,2.03824 -1.42918,2.41722 -1.22273,0.31975 -2.02804,1.36169 -2.02804,2.62396 0,1.15149 -0.45,2.09362 -1,2.09362 -0.55,0 -1,-0.45 -1,-1 0,-1.22576 -1.04624,-1.2567 -2.89572,-0.0856 -0.76764,0.48607 -1.11926,1.60418 -0.78138,2.48469 0.54433,1.41849 4.02117,1.60091 30.51283,1.60091 l 29.8985,0 2.78716,-4.25 z m -37.27139,-2.41228 c -0.6875,-0.27741 -1.25,-1.36689 -1.25,-2.42105 0,-1.05417 -0.675,-1.91667 -1.5,-1.91667 -0.825,0 -1.5,-0.45 -1.5,-1 0,-1.68845 2.88944,-1.11056 5,1 3.10952,3.10952 2.6593,5.7134 -0.75,4.33772 z m 23.17322,-0.67721 c -0.33025,-0.8606 -0.26175,-2.11276 0.15221,-2.78256 0.52917,-0.85622 0.2255,-1.01554 -1.02273,-0.53655 -1.40902,0.5407 -1.62631,0.31782 -1.05295,-1.08006 1.16879,-2.84962 1.08534,-4.51607 -0.24975,-4.98704 -0.6875,-0.24253 -1.25,0.27153 -1.25,1.14237 0,0.87083 -0.45,1.58333 -1,1.58333 -1.58682,0 -1.15983,-3.72469 0.5,-4.36163 2.98602,-1.14584 5.004,0.59737 4.60528,3.97823 -0.0724,0.61413 0.54926,1.68173 1.38152,2.37244 1.91877,1.59244 1.92793,3.42188 0.025,5.00114 -1.20277,0.99821 -1.60332,0.93499 -2.08861,-0.32967 z m 7.01515,-1.46634 c 0.43637,-1.37486 0.23723,-2.88012 -0.49825,-3.76632 -1.61245,-1.94289 -0.41783,-3.0692 1.53571,-1.44791 1.99433,1.65514 1.94006,4.43002 -0.12008,6.13977 -1.464,1.21502 -1.56456,1.11356 -0.91738,-0.92554 z M 418.42856,570.465 c 0,-0.89459 -0.58629,-1.24363 -1.5,-0.89301 -1.78675,0.68565 -1.98035,-0.75802 -0.32379,-2.41458 0.85892,-0.85892 1.5333,-0.87984 2.5,-0.0776 1.54628,1.28335 1.78446,4.85381 0.32379,4.85381 -0.55,0 -1,-0.66088 -1,-1.46862 z m 50,-0.53138 c 0,-0.55 0.47656,-1 1.05902,-1 0.58246,0 0.7809,0.45 0.44098,1 -0.33992,0.55 -0.81648,1 -1.05902,1 -0.24254,0 -0.44098,-0.45 -0.44098,-1 z m -30.42497,-5.05943 c -1.90145,-1.91687 -1.89229,-1.94057 0.75,-1.94057 2.0083,0 2.67497,0.49845 2.67497,2 0,2.47151 -0.93038,2.45537 -3.42497,-0.0594 z m 22.87525,0.3284 c 0.3913,-1.0197 -0.004,-1.22794 -1.45657,-0.76697 -2.05499,0.65223 -2.7931,-0.88991 -0.96632,-2.01893 0.93076,-0.57524 9.97261,3.14114 9.97261,4.09894 0,0.22198 -1.81954,0.3323 -4.04343,0.24516 -3.01489,-0.11814 -3.90679,-0.5145 -3.50629,-1.5582 z m -51.70028,28.23268 c 2.41533,-3.72885 2.67452,-4.50552 1.5,-4.49482 -0.81367,0.007 -5.25,6.18029 -5.25,7.30505 0,1.65177 1.6708,0.39967 3.75,-2.81023 z m 19.65134,-2.88341 c -0.91728,-2.9902 -1.10111,-3.07607 -3.8774,-1.8111 -1.53415,0.69901 -2.3008,1.71743 -2.00423,2.66244 1.5497,4.93804 1.25707,4.72278 3.98785,2.93351 1.90332,-1.24711 2.38001,-2.1998 1.89378,-3.78485 z m 31.59866,-4.45818 c 0,-0.94276 -5.06723,-2.66181 -12.38269,-4.2008 -7.57923,-1.59449 -6.62774,-0.33843 1.5369,2.02886 4.04018,1.17143 7.79579,2.29279 8.34579,2.49193 1.75858,0.6367 2.5,0.54181 2.5,-0.31999 z m 3.45384,-2.08537 c 0.50548,-0.81788 -4.30933,-2.56875 -12.70384,-4.61964 -5.39035,-1.31694 -2.64141,0.47194 3.27713,2.1326 3.31492,0.93012 6.26648,2.0784 6.55902,2.55174 0.69841,1.13006 2.14952,1.09732 2.86769,-0.0647 z m 5.54616,-1.656 c 0,-0.82538 -5.75085,-3.19684 -9.32101,-3.84368 -2.10156,-0.38075 -4.46406,-0.93904 -5.25,-1.24063 -0.78595,-0.3016 -1.42899,-0.0555 -1.42899,0.54681 0,0.60235 1.76373,1.37721 3.9194,1.72191 2.15567,0.34471 5.19317,1.40836 6.75,2.36367 2.40017,1.47281 5.3306,1.72125 5.3306,0.45192 z m 2.54112,-2.35216 c -0.36254,-0.58659 -1.3936,-1.06653 -2.29127,-1.06653 -1.36496,0 -1.31464,0.23214 0.30745,1.41824 2.09456,1.53158 3.04375,1.3633 1.98382,-0.35171 z m -168.64411,-3.79677 c 2.53164,-2.05164 6.88274,-6.15556 9.6691,-9.11984 l 5.06611,-5.3896 8.61107,2.11984 c 4.7361,1.16591 9.52719,2.11984 10.64688,2.11984 1.11968,0 4.34406,0.90984 7.16528,2.02186 l 5.12949,2.02185 6.49192,-7.01187 c 5.53728,-5.98078 6.77195,-6.86201 8.3962,-5.99274 1.04735,0.56052 8.29616,1.69207 16.10848,2.51455 l 14.2042,1.49542 2.05713,-2.47466 c 2.25496,-2.71265 8.88087,-4.47764 10.00163,-2.66422 2.69667,4.36331 21.54451,-3.05305 30.48809,-11.99663 2.57122,-2.57121 3.5954,-2.98913 5.84258,-2.38407 11.78488,3.17315 16.37901,3.15653 19.36987,-0.0701 3.6398,-3.92671 5.52582,-4.70593 8.08071,-3.33859 1.22416,0.65515 5.49916,1.34595 9.5,1.53512 l 7.27425,0.34394 0,-13.87494 c 0,-18.64541 -0.29768,-19.91204 -4.87046,-20.72391 -1.99625,-0.35442 -5.09204,-1.52634 -6.87954,-2.60427 -3.65817,-2.20602 -4.05966,-1.37546 -1.5,3.10305 3.43641,6.01251 -2.14744,8.97873 -9.67401,5.13896 -4.50292,-2.29722 -4.50463,-2.29637 -3.05449,1.51777 1.25712,3.30648 -0.1929,5.44346 -3.6936,5.44346 -2.82994,0 -7.41128,-2.19062 -9.27318,-4.43406 -2.18401,-2.63157 -3.19787,-1.74344 -1.5804,1.3844 1.75881,3.40116 1.94719,5.67112 0.54269,6.53915 -2.00016,1.23617 -8.35823,-0.85015 -11.80213,-3.87272 -2.81603,-2.47151 -3.31014,-2.66596 -2.38665,-0.93921 1.49859,2.80208 0.5181,5.32246 -2.07055,5.32246 -2.01873,0 -6.75768,-4.24374 -6.75768,-6.05152 0,-2.15245 -2.00697,-0.74308 -2.56541,1.80152 -0.33193,1.5125 -1.63527,5.94018 -2.89631,9.83928 -2.61882,8.09737 -2.17035,10.29965 3.57446,17.55307 1.7206,2.17243 2.81834,4.2599 2.43942,4.63882 -0.37892,0.37892 -1.54816,-0.42933 -2.59832,-1.79611 l -1.90937,-2.48506 -0.0222,2.25 c -0.0123,1.2375 -0.47227,2.25 -1.02227,2.25 -0.55,0 -1,-0.675 -1,-1.5 0,-1.80819 -1.16679,-1.93321 -2.8,-0.3 -1.53219,1.53219 -1.59551,-0.0295 -0.15484,-3.81877 1.23117,-3.23823 -0.27233,-7.86511 -2.88672,-8.88361 -0.91214,-0.35535 -6.56627,-0.90881 -12.56473,-1.22991 l -10.90629,-0.58382 0.57917,7.65805 c 0.31855,4.21193 0.40325,7.65806 0.18823,7.65806 -0.21502,0 -1.0623,-1.2375 -1.88284,-2.75 l -1.4919,-2.75 -0.04,2.75 c -0.022,1.5125 -0.49004,2.75 -1.04004,2.75 -0.55,0 -1,-0.70532 -1,-1.56739 0,-1.11231 -0.58068,-1.38308 -2,-0.93261 -2.86033,0.90783 -2.47153,-0.78372 1.04552,-4.54873 3.79122,-4.05851 3.35597,-7.22547 -1.9145,-13.93045 -1.99706,-2.54063 -4.95826,-6.73466 -6.58043,-9.32007 -2.5343,-4.03914 -3.40901,-4.70075 -6.21482,-4.70075 -2.14384,0 -3.60264,-0.63014 -4.24727,-1.83463 -0.71153,-1.32951 -1.79528,-1.71525 -3.93621,-1.40103 -2.00749,0.29464 -3.56512,-0.17717 -4.86008,-1.47213 -1.36053,-1.36053 -2.62707,-1.71283 -4.4271,-1.23143 -3.26424,0.873 -11.30986,-0.35508 -13.33447,-2.03535 -0.92228,-0.76543 -1.33113,-2.07868 -0.98583,-3.16661 0.40798,-1.28545 0.0942,-1.85882 -1.01726,-1.85882 -2.46893,0 -9.20813,-3.72523 -9.87283,-5.4574 -0.32557,-0.84843 -0.35586,-2.15783 -0.0673,-2.90978 0.36547,-0.95241 -0.89457,-1.72454 -4.15344,-2.54513 -2.71366,-0.68331 -5.93609,-2.43597 -7.67392,-4.1738 -2.81347,-2.81347 -2.8952,-3.10706 -1.3425,-4.82278 1.56192,-1.7259 1.48721,-1.86016 -1.35085,-2.42777 -3.40574,-0.68115 -7.06669,-3.89912 -7.06669,-6.21161 0,-1.77569 5.62882,-4.45885 7.94763,-3.78851 0.8538,0.24682 -0.47789,-0.65555 -2.95932,-2.00528 -8.7683,-4.76935 -13.19869,-11.87613 -9.62899,-15.44584 1.83638,-1.83637 3.32556,-1.25534 11.0339,4.30507 2.69127,1.94135 5.08535,3.3376 5.32017,3.10277 0.23483,-0.23483 -1.51712,-2.38642 -3.89322,-4.78132 -8.18302,-8.24778 -12.60739,-20.77529 -8.91047,-25.22981 2.83041,-3.41044 4.73917,-1.87979 9.52876,7.64119 6.87035,13.65721 15.48733,20.82769 31.03638,25.82643 3.83617,1.23326 10.27611,3.74672 14.31099,5.58547 5.90277,2.68998 7.72981,3.13251 9.35098,2.26488 1.69945,-0.90952 1.94084,-1.80995 1.54213,-5.75254 -0.60876,-6.01968 -1.5395,-8.25236 -4.37578,-10.49682 -1.26674,-1.00242 -2.30316,-2.66336 -2.30316,-3.69098 0,-1.02762 -0.3375,-2.07699 -0.75,-2.33193 -1.13115,-0.69909 -0.90058,-6.68007 0.25,-6.48473 0.55,0.0934 3.39132,1.26456 6.31404,2.60262 2.92272,1.33807 5.50127,2.24563 5.7301,2.0168 0.22883,-0.22883 0.59013,-3.39728 0.80289,-7.041 0.25086,-4.29609 0.94598,-7.18407 1.97742,-8.21551 0.87481,-0.87481 1.35384,-2.20747 1.06451,-2.96145 -0.34401,-0.89648 0.67238,-1.76641 2.93704,-2.51381 1.97995,-0.65345 3.6823,-1.98116 3.97493,-3.10018 0.88491,-3.3839 2.27248,-2.14644 3.65889,3.26305 0.73586,2.87117 1.94248,5.82486 2.68138,6.56376 1.45249,1.45248 3.35878,0.83211 3.35883,-1.09308 4e-5,-1.63748 5.94731,-6.2371 8.99997,-6.96057 5.71846,-1.35526 11.61143,-2.83849 13.25,-3.33496 2.62087,-0.79409 2.13794,0.80887 -1.79581,5.96075 -1.95019,2.55409 -3.15019,4.6438 -2.66666,4.6438 0.48352,0 1.209,-0.32987 1.61217,-0.73304 0.40317,-0.40317 2.61567,-1.29509 4.91667,-1.98206 3.51037,-1.04802 4.35666,-1.01823 5.25884,0.18513 0.59644,0.79555 1.9586,1.20314 3.05909,0.91535 1.43805,-0.37606 2.30564,0.18739 3.15335,2.04791 0.64321,1.41169 1.96662,2.59161 2.94091,2.62204 1.92927,0.0603 6.88813,5.66131 5.89313,6.65631 -0.33688,0.33689 -4.32708,0.913 -8.8671,1.28024 -4.54003,0.36725 -9.70947,1.42693 -11.48766,2.35485 -3.42299,1.78623 -6.26693,6.16412 -6.26693,9.64715 0,2.14594 8.25182,11.02832 13.26549,14.27917 1.50398,0.97518 2.73451,2.58768 2.73451,3.58334 0,0.99565 0.25151,2.06179 0.55892,2.36919 0.3074,0.30741 4.05725,-1.17385 8.333,-3.29167 8.99729,-4.45646 15.11958,-6.04744 21.25317,-5.523 6.24303,0.5338 16.46238,-1.26253 22.58383,-3.96973 l 5.27108,-2.33112 0,-26.50232 0,-26.50232 -14.25,-0.33216 c -17.0522,-0.39748 -111.5125,-1.18192 -148.75,-1.23528 l -26.5,-0.038 0.20219,43 c 0.1112,23.65 0.2237,63.1375 0.25,87.75 0.0263,24.6125 0.33896,44.75 0.69482,44.75 0.35585,0 2.71835,-1.67861 5.25,-3.73024 z m 131.60299,2.2014 c -2.2,-0.79257 -5.125,-1.41324 -6.5,-1.37925 -1.97848,0.0489 -1.66556,0.3368 1.5,1.38009 2.2,0.72506 5.125,1.34573 6.5,1.37925 1.9042,0.0464 1.54672,-0.28247 -1.5,-1.38009 z m 41.5,0.50409 c 0,-1.33482 -3.3367,-2.52869 -9.25,-3.30966 -6.43767,-0.85022 -6.0073,-0.0684 0.73256,1.33079 3.01541,0.626 5.74197,1.5579 6.05902,2.0709 0.77367,1.25183 2.45842,1.18876 2.45842,-0.092 z m -37,-1.97525 c -0.825,-0.53316 -2.4,-0.94464 -3.5,-0.9144 -2,0.055 -2,0.055 0,0.9144 1.1,0.47269 2.675,0.88417 3.5,0.9144 1.33333,0.0489 1.33333,-0.0527 0,-0.9144 z m 8,0.0385 c 0,-0.92274 -4.14361,-2.29965 -10.5,-3.48912 -3.39425,-0.63516 -2.05946,0.11462 4.5,2.52775 5.65481,2.08031 6,2.13562 6,0.96137 z m 5,-2 c 0,-1.157 -7.65943,-3.35523 -9.32433,-2.67605 -0.65757,0.26826 -0.45485,0.51441 0.46002,0.55856 0.89963,0.0434 2.92463,0.75118 4.5,1.57279 3.34317,1.74358 4.36431,1.87103 4.36431,0.5447 z m 7.5,-1.0385 c -2.74909,-1.18132 -4.32797,-1.18132 -2.5,0 0.825,0.53316 2.175,0.94464 3,0.9144 0.98906,-0.0362 0.81874,-0.34772 -0.5,-0.9144 z m -44.65201,-41.55555 c 0.19139,-0.1689 1.78749,-4.92003 3.54689,-10.55807 1.75939,-5.63803 3.6278,-10.39261 4.15201,-10.56573 0.52421,-0.17312 1.85311,1.33364 2.95311,3.34836 3.62962,6.64788 7.72241,7.3535 5.4,0.93099 -1.88123,-5.20245 -0.33403,-5.57394 3.90417,-0.93741 3.48607,3.8137 9.41025,6.45633 10.97217,4.89441 0.34833,-0.34833 0.0525,-2.07866 -0.65729,-3.84517 -3.21436,-7.99923 -2.49927,-8.51548 4.44889,-3.21183 2.82478,2.1562 5.70767,3.5 7.50866,3.5 3.41241,0 3.4339,-0.0964 1.27903,-5.73886 -0.90441,-2.36815 -1.3957,-4.55441 -1.09176,-4.85834 0.30394,-0.30394 2.28877,0.59631 4.41074,2.00056 7.6734,5.07802 13.8846,4.08852 9.91458,-1.57949 -3.64862,-5.20914 -0.98597,-8.14064 4.5163,-4.97231 1.86698,1.07505 4.85701,2.25899 6.64451,2.63099 l 3.25,0.67636 0,-21.07945 c 0,-11.59371 -0.15455,-21.07946 -0.34345,-21.07946 -0.1889,0 -3.0014,0.92276 -6.25,2.05058 -3.83867,1.33267 -10.36312,2.35192 -18.636,2.91132 -12.20446,0.82524 -13.11591,1.04504 -22.10005,5.32947 l -9.37059,4.46873 -0.89996,8.29314 c -0.5486,5.0554 -1.38796,8.45326 -2.14995,8.70328 -0.72503,0.23789 -1.25,-0.44502 -1.25,-1.62607 0,-1.84483 -0.45178,-1.98271 -4.80668,-1.46694 -4.40431,0.52163 -5.06693,0.30904 -7.91552,-2.53955 -3.31382,-3.31382 -5.2778,-9.77964 -5.2778,-17.37557 0,-3.26506 0.64495,-4.8186 3.01606,-7.26496 2.94209,-3.03546 2.97763,-3.1888 1.44929,-6.25243 -2.11351,-4.23663 -0.53107,-10.33595 3.4096,-13.14196 3.31681,-2.36177 9.8675,-4.03023 15.95838,-4.06459 5.33471,-0.0301 5.18838,-1.68188 -0.40083,-4.52445 -2.16287,-1.1 -4.0825,-2.3375 -4.26583,-2.75 -0.18334,-0.4125 -1.19584,-0.75 -2.25,-0.75 -1.05417,0 -1.91667,-0.63288 -1.91667,-1.4064 0,-1.15305 -0.67553,-1.20927 -3.75,-0.3121 -2.0625,0.60186 -4.95591,1.91788 -6.42979,2.9245 -1.61379,1.10216 -2.92288,1.43689 -3.29087,0.84147 -0.73066,-1.18223 1.70439,-6.16663 3.90472,-7.99275 2.41471,-2.00403 1.85928,-3.15989 -1.18406,-2.46407 -9.35431,2.13874 -16.25,6.00927 -16.25,9.12107 0,0.74308 -0.6979,1.61886 -1.55088,1.94618 -2.09751,0.80489 -6.44912,-3.42802 -6.44912,-6.2732 0,-1.24666 -0.34196,-2.47801 -0.75991,-2.73631 -1.32577,-0.81938 -7.24009,2.19414 -7.24009,3.68903 0,0.78868 -0.66192,2.70983 -1.47094,4.26921 -0.99455,1.917 -1.32542,4.7069 -1.0216,8.61431 0.50838,6.53837 0.0954,6.79735 -6.87629,4.31215 -2.12786,-0.75851 -4.42365,-1.16622 -5.10175,-0.906 -2.09333,0.80328 -0.44069,5.51685 2.53256,7.22327 1.52907,0.87756 2.76329,2.28274 2.74272,3.12261 -0.0206,0.83987 0.292,4.03033 0.69463,7.08991 0.59902,4.55198 0.42546,5.86947 -0.95507,7.25 -2.45801,2.45801 -6.82731,2.07382 -13.32278,-1.17146 -3.14681,-1.57222 -8.87148,-3.86048 -12.72148,-5.08502 -16.78216,-5.33779 -24.91479,-11.9489 -31.96332,-25.98337 -2.50621,-4.99017 -5.17909,-9.07303 -5.93973,-9.07303 -1.60742,0 -2.59695,2.13773 -2.59695,5.6103 0,2.85843 4.92824,12.94795 7.81114,15.99164 1.55732,1.64418 9.84471,8.56765 12.10553,10.11321 0.22916,0.15667 0.16503,0.53648 -0.14252,0.84403 -1.26336,1.26336 -11.74762,-2.84461 -15.53608,-6.08739 -4.79417,-4.10364 -7.23807,-4.47729 -7.23807,-1.10665 0,5.59403 8.27263,11.39467 17.6276,12.36019 2.95482,0.30496 5.3724,0.88904 5.3724,1.29794 0,1.05576 -3.8229,1.9448 -8.5,1.97673 -8.41194,0.0574 -10.90284,2.37949 -5.99915,5.59251 2.25877,1.48001 10.42583,2.29393 12.99915,1.29549 0.55,-0.2134 1.14532,0.0443 1.32294,0.57267 0.17761,0.52837 -1.38652,1.5525 -3.47584,2.27584 -4.68608,1.62236 -5.58628,2.47663 -4.79171,4.54724 1.12581,2.93382 8.74015,5.05428 15.43109,4.29729 6.29233,-0.7119 8.49232,0.6732 2.85883,1.7999 -3.34257,0.66851 -5.84531,2.27678 -5.84531,3.7562 0,2.10885 6.64174,4.85548 11.75,4.85912 5.83783,0.004 6.8267,1.25845 2.25,2.8539 -8.14843,2.84055 1.86656,5.79259 12.41131,3.65837 3.35177,-0.67839 3.824,-0.56413 3.30103,0.79873 -0.75337,1.96324 2.36643,3.14077 5.94301,2.24311 1.982,-0.49746 2.62339,-0.20047 3.04446,1.4097 0.4005,1.53152 1.353,2.03993 3.8218,2.03993 2.86606,0 3.64539,0.60999 6.06862,4.75 5.02358,8.58258 9.7472,13.99083 12.78477,14.63773 1.58125,0.33675 5.18125,0.64563 8,0.68639 2.81875,0.0408 7.15,0.42913 9.625,0.86303 3.93085,0.68913 7.74975,0.47647 8.84799,-0.4927 z m -27.84799,-17.94445 c 0,-0.825 0.45,-1.5 1,-1.5 0.55,0 1,0.675 1,1.5 0,0.825 -0.45,1.5 -1,1.5 -0.55,0 -1,-0.675 -1,-1.5 z m 4.51008,0.48369 c 0.34546,-0.55897 1.04702,-0.75742 1.55902,-0.44098 1.38704,0.85723 1.12841,1.45729 -0.62812,1.45729 -0.85746,0 -1.27636,-0.45734 -0.9309,-1.01631 z m 5.03263,0.0854 c -0.31644,-0.512 -0.11799,-1.21356 0.44098,-1.55902 0.55897,-0.34546 1.01631,0.0734 1.01631,0.9309 0,1.75653 -0.60006,2.01516 -1.45729,0.62812 z m -13.54271,-2.51007 c 0,-0.79254 0.45,-1.7191 1,-2.05902 0.55,-0.33992 1,0.30852 1,1.44098 0,1.13246 -0.45,2.05902 -1,2.05902 -0.55,0 -1,-0.64844 -1,-1.44098 z m -4,-2.55902 c 0,-1.1 0.17252,-2 0.38337,-2 0.21085,0 0.61872,0.9 0.90638,2 0.28765,1.1 0.11514,2 -0.38337,2 -0.49851,0 -0.90638,-0.9 -0.90638,-2 z m -3,-2 c 0,-1.86667 0.26667,-2.13333 1.2,-1.2 0.93333,0.93333 0.93333,1.46667 0,2.4 -0.93333,0.93333 -1.2,0.66667 -1.2,-1.2 z m -3.95416,-7.08565 c 0.61391,-1.1471 1.36033,-1.84151 1.65872,-1.54312 0.82426,0.82426 -0.49605,3.62877 -1.70836,3.62877 -0.73956,0 -0.72434,-0.63946 0.0496,-2.08565 z m -3.04584,-2.35533 c 0,-0.85746 0.45,-1.55902 1,-1.55902 0.55,0 1,0.42344 1,0.94098 0,0.51754 -0.45,1.2191 -1,1.55902 -0.55,0.33992 -1,-0.0835 -1,-0.94098 z m -2.44721,-4.47361 c -0.32198,-0.52097 -0.15917,-1.21065 0.3618,-1.53262 0.52097,-0.32198 1.21065,-0.15917 1.53262,0.3618 0.32198,0.52097 0.15917,1.21065 -0.3618,1.53262 -0.52097,0.32198 -1.21065,0.15917 -1.53262,-0.3618 z m 81.11388,-11.75208 c -0.9557,-0.95569 -0.82206,-2.33333 0.22634,-2.33333 0.49116,0 1.15203,0.675 1.46862,1.5 0.58492,1.52428 -0.4803,2.04799 -1.69496,0.83333 z m 5.53333,-2.53333 c -0.66,-0.66 -1.2,-1.56 -1.2,-2 0,-1.4734 1.50615,-0.82042 2.76793,1.2 1.36745,2.18964 0.34393,2.71186 -1.56793,0.8 z m 5.98333,-0.0167 c -1.40079,-1.40079 -1.545,-2.78333 -0.29032,-2.78333 0.91646,0 2.42476,3.01556 1.81386,3.62646 -0.18711,0.18711 -0.8727,-0.19229 -1.52354,-0.84313 z m -108.18333,-0.78333 c 0,-0.55 0.47656,-1 1.05902,-1 0.58246,0 0.7809,0.45 0.44098,1 -0.33992,0.55 -0.81648,1 -1.05902,1 -0.24254,0 -0.44098,-0.45 -0.44098,-1 z m 114,-1 c -0.79314,-0.49019 -1.11011,-1.22322 -0.70437,-1.62896 0.40574,-0.40574 1.2627,-0.21271 1.90437,0.42896 1.51091,1.51091 0.66759,2.35423 -1.2,1.2 z M 339.6575,475.7468 c 0.49828,-1.49484 2.77106,-2.31789 2.77106,-1.0035 0,0.53699 -0.7126,1.24979 -1.58356,1.58401 -0.97391,0.37373 -1.43108,0.15024 -1.1875,-0.58051 z m 130.77106,-0.81318 c 0,-0.55 0.45,-1 1,-1 0.55,0 1,0.45 1,1 0,0.55 -0.45,1 -1,1 -0.55,0 -1,-0.45 -1,-1 z M 392.454,472.95906 c -2.94935,-2.94935 -3.54337,-6.71612 -1.67651,-10.63096 0.89029,-1.86696 2.30099,-3.45073 3.13489,-3.51948 5.49002,-0.45262 7.35502,-0.0362 9.51618,2.125 2.62857,2.62857 2.59443,7.97459 -0.0726,11.36514 -2.58613,3.28773 -7.9497,3.61258 -10.90198,0.6603 z m 6.97456,-2.01697 c 0,-1.09533 0.9,-2.55358 2,-3.24054 2.6326,-1.64409 2.53826,-4.27751 -0.22251,-6.21123 -3.09517,-2.16794 -5.63446,-1.94322 -7.83393,0.6933 -2.45712,2.94537 -2.42469,5.85645 0.0954,8.56144 2.60704,2.79833 5.96104,2.9092 5.96104,0.19703 z m -64,0.99153 c 0,-0.55 0.70156,-1 1.55902,-1 0.85746,0 1.2809,0.45 0.94098,1 -0.33992,0.55 -1.04148,1 -1.55902,1 -0.51754,0 -0.94098,-0.45 -0.94098,-1 z m -4,-3 c 0,-0.55 1.15156,-1 2.55902,-1 1.45136,0 2.2915,0.43284 1.94098,1 -0.33992,0.55 -1.49148,1 -2.55902,1 -1.06754,0 -1.94098,-0.45 -1.94098,-1 z m 51,-23 c 0,-0.55 0.42344,-1 0.94098,-1 0.51754,0 1.2191,0.45 1.55902,1 0.33992,0.55 -0.0835,1 -0.94098,1 -0.85746,0 -1.55902,-0.45 -1.55902,-1 z m -1.34371,-5.20633 c -0.54046,-2.06672 -0.12194,-3.64332 0.71948,-2.71034 1.01817,1.12898 1.64083,4.91667 0.80825,4.91667 -0.52292,0 -1.21039,-0.99285 -1.52773,-2.20633 z m 15.34371,-0.79367 c 0,-0.55 0.45,-1 1,-1 0.55,0 1,0.45 1,1 0,0.55 -0.45,1 -1,1 -0.55,0 -1,-0.45 -1,-1 z m 0,-4 c 0,-0.55 0.45,-1 1,-1 0.55,0 1,0.45 1,1 0,0.55 -0.45,1 -1,1 -0.55,0 -1,-0.45 -1,-1 z m -16.5,-1 c -0.33992,-0.55 0.0835,-1 0.94098,-1 0.85746,0 1.55902,0.45 1.55902,1 0,0.55 -0.42344,1 -0.94098,1 -0.51754,0 -1.2191,-0.45 -1.55902,-1 z m 19.22388,-1.69016 c -0.25747,-0.44541 0.37433,-1.67607 1.404,-2.7348 2.15763,-2.21854 2.47549,-0.95474 0.43632,1.7348 -0.75471,0.99541 -1.58285,1.44541 -1.84032,1 z m 23.77041,54.6994 c 0.33678,-0.54492 -0.96505,-1.74296 -2.89295,-2.66231 -2.97494,-1.41865 -3.75315,-1.46583 -5.14361,-0.31185 -1.51194,1.2548 -1.5009,1.46019 0.1431,2.66231 2.0994,1.53512 7.01736,1.72942 7.89346,0.31185 z m 4.48482,-7.00924 c 0.0292,-10.4869 -4.18982,-14.25881 -12.97911,-11.60373 -4.34658,1.31301 -4.4975,1.49138 -4.42681,5.23154 0.0403,2.12971 0.3726,5.05499 0.73854,6.50064 0.6121,2.41804 1.0065,2.5939 4.92682,2.19681 3.04252,-0.30819 5.11956,0.11224 7.26145,1.46983 3.50839,2.22371 4.46462,1.41351 4.47911,-3.79509 z m -13.27769,-14.66429 c 0.35742,-0.93142 0.91525,-1.06881 1.6989,-0.41844 0.73502,0.61002 1.70939,0.61946 2.63322,0.0255 1.28452,-0.82582 1.28036,-1.06496 -0.0335,-1.92748 -0.825,-0.54158 -2.20265,-0.99158 -3.06144,-1 -1.68725,-0.0165 -5.9386,3.51281 -5.9386,4.93003 0,1.35108 4.10454,-0.0542 4.70142,-1.60963 z"
       id="path4147"
       inkscape:connector-curvature="0" />
  </g>
</svg>
