<?xml version="1.0" encoding="UTF-8" standalone="no"?>
<!-- Created with Inkscape (http://www.inkscape.org/) -->

<svg
   xmlns:dc="http://purl.org/dc/elements/1.1/"
   xmlns:cc="http://creativecommons.org/ns#"
   xmlns:rdf="http://www.w3.org/1999/02/22-rdf-syntax-ns#"
   xmlns:svg="http://www.w3.org/2000/svg"
   xmlns="http://www.w3.org/2000/svg"
   xmlns:sodipodi="http://sodipodi.sourceforge.net/DTD/sodipodi-0.dtd"
   xmlns:inkscape="http://www.inkscape.org/namespaces/inkscape"
   width="54.767269mm"
   height="54.633743mm"
   viewBox="0 0 194.05725 193.58413"
   id="svg2"
   version="1.1"
   inkscape:version="0.91 r13725"
   sodipodi:docname="rabbit.svg">
  <defs
     id="defs4" />
  <sodipodi:namedview
     id="base"
     pagecolor="#ffffff"
     bordercolor="#666666"
     borderopacity="1.0"
     inkscape:pageopacity="0.0"
     inkscape:pageshadow="2"
     inkscape:zoom="1.4"
     inkscape:cx="21.857005"
     inkscape:cy="94.594335"
     inkscape:document-units="px"
     inkscape:current-layer="layer1"
     showgrid="false"
     fit-margin-top="0"
     fit-margin-left="0"
     fit-margin-right="0"
     fit-margin-bottom="0"
     inkscape:window-width="1366"
     inkscape:window-height="744"
     inkscape:window-x="0"
     inkscape:window-y="24"
     inkscape:window-maximized="1" />
  <metadata
     id="metadata7">
    <rdf:RDF>
      <cc:Work
         rdf:about="">
        <dc:format>image/svg+xml</dc:format>
        <dc:type
           rdf:resource="http://purl.org/dc/dcmitype/StillImage" />
        <dc:title></dc:title>
      </cc:Work>
    </rdf:RDF>
  </metadata>
  <g
     inkscape:label="Layer 1"
     inkscape:groupmode="layer"
     id="layer1"
     transform="translate(-258.48282,-354.71935)">
    <path
       style="fill:#000000"
       d="m 259.39919,520.46935 c -0.0554,-15.2625 -0.27365,-32.3297 -0.48491,-37.92711 -0.46494,-12.31869 -0.60801,-126.4625 -0.15908,-126.91143 0.17467,-0.17468 43.59609,-0.45121 96.49203,-0.61453 l 96.17444,-0.29693 0.31137,31.5 c 0.17126,17.325 0.4229,60.8625 0.5592,96.75 l 0.24783,65.25 -28.95265,0 c -26.72441,0 -28.9896,-0.13468 -29.43273,-1.75 -2.71936,-9.91285 -2.85293,-12.16252 -0.88865,-14.96676 2.26129,-3.22822 3.2793,-6.9709 3.61308,-13.28324 0.3462,-6.54726 -0.73833,-8.17711 -5.19453,-7.80647 -3.33324,0.27725 -3.66665,0.56871 -3.49634,3.05647 0.10355,1.5125 -0.18517,2.75 -0.64159,2.75 -0.45642,0 -1.1552,-1.2375 -1.55284,-2.75 -0.63903,-2.43062 -0.80552,-2.52622 -1.43355,-0.82311 -0.64636,1.75281 -0.77,1.77194 -1.36871,0.21173 -0.83373,-2.17267 -10.72815,-6.83738 -12.14254,-5.72459 -0.57697,0.45393 -2.73653,1.36887 -4.79903,2.0332 -2.0625,0.66433 -3.75,1.7914 -3.75,2.5046 0,4.13775 8.34454,22.12701 10.89772,23.49343 1.08394,0.58011 3.09085,1.05474 4.45981,1.05474 2.95422,0 8.12568,4.09995 10.17839,8.06946 0.80524,1.55717 1.46408,3.07857 1.46408,3.38088 0,0.30231 -3.375,0.54966 -7.5,0.54966 -5.69848,0 -7.5,-0.33042 -7.5,-1.37557 0,-1.2848 -1.95815,-6.04231 -7.45987,-18.12443 -1.25224,-2.75 -3.30961,-7.475 -4.57193,-10.5 -3.02578,-7.25092 -3.19999,-7.39212 -6.20461,-5.02868 -1.41848,1.11577 -2.82518,2.02868 -3.12601,2.02868 -1.31373,0 -1.77591,-7.25183 -0.63736,-10.00053 1.08662,-2.62332 0.93253,-3.51955 -1.32953,-7.73333 -1.40722,-2.62138 -9.79143,-19.21359 -18.63158,-36.87159 -13.46765,-26.90133 -16.32224,-33.38512 -17.61062,-40 -0.84569,-4.342 -2.86603,-11.94455 -4.48964,-16.89455 -1.62361,-4.95 -3.84749,-13.23594 -4.94196,-18.41319 -1.09447,-5.17726 -2.18693,-9.61018 -2.42769,-9.85094 -0.24076,-0.24077 -0.96264,1.51155 -1.60418,3.89404 -1.10276,4.09532 -1.01809,6.18593 0.61232,15.12009 0.39037,2.13909 0.28423,3.75 -0.24708,3.75 -1.1267,0 -4.57397,-22.46302 -5.10269,-33.25 l -0.37986,-7.75 -3.53908,0 -3.53908,0 0.71715,5.73985 c 0.39443,3.15692 1.85651,9.56942 3.24907,14.25 4.35311,14.63141 7.38991,26.2459 8.76177,33.51015 l 1.32196,7 0.0902,-8.75 c 0.0527,-5.1065 0.50665,-8.75 1.09025,-8.75 0.58333,0 1,3.33333 1,8 0,4.66667 0.41667,8 1,8 1.37116,0 1.27078,8.71461 -0.11021,9.56812 -2.07612,1.28311 -0.0619,7.33229 4.63148,13.90949 2.55986,3.58731 5.06478,6.52239 5.56651,6.52239 0.50172,0 0.91911,-2.5875 0.92753,-5.75 0.0109,-4.0814 0.29662,-5.31471 0.98469,-4.25 1.32458,2.04964 1.25591,11.34409 -0.0938,12.69378 -0.79171,0.79171 -0.51595,2.40006 0.99849,5.8237 1.78844,4.04308 2.31381,4.54605 3.61794,3.46372 2.16255,-1.79475 3.12288,-0.35199 1.18848,1.78551 -1.06829,1.18044 -1.30882,2.26621 -0.71491,3.22717 1.00038,1.61865 1.12402,1.53056 2.79856,-1.99388 1.06104,-2.23321 1.16738,-1.91306 0.99647,3 -0.25116,7.21949 0.81268,10.33684 3.30515,9.68504 1.49132,-0.38999 1.9036,0.0362 1.9036,1.9676 0,1.59708 0.40327,2.21616 1.14499,1.75775 0.78788,-0.48693 0.99014,0.10237 0.64852,1.88947 -0.45268,2.36803 -0.17952,2.62371 3.09669,2.89863 2.64891,0.22228 3.69171,0.82054 3.96815,2.27658 0.20624,1.08628 1.0706,2.48371 1.9208,3.10539 1.05925,0.77455 1.28732,1.72667 0.72457,3.02493 -0.45168,1.04204 -0.72828,2.29666 -0.61466,2.78806 0.11362,0.4914 -0.25318,2.21229 -0.81509,3.82421 -0.88372,2.53502 -0.50202,3.9672 2.82685,10.60655 2.11668,4.22168 4.19012,9.24961 4.60764,11.17317 0.59541,2.74318 5.48373,16.04101 10.20194,27.75262 0.37645,0.93445 -1.4127,1.25 -7.08736,1.25 l -7.59094,0 2.13102,-4.08845 c 1.17206,-2.24864 3.1963,-4.57382 4.49831,-5.16706 2.59149,-1.18076 2.53483,-1.97958 -0.66605,-9.39021 -0.98486,-2.28014 -2.11078,-5.65514 -2.50204,-7.5 -0.39125,-1.84485 -2.52758,-7.29178 -4.74739,-12.10428 -4.66935,-10.12304 -5.66874,-10.56114 -13.00574,-5.70131 -3.1285,2.07223 -4.80684,3.97821 -5.2401,5.95081 -0.88321,4.02121 0.46155,12.04856 2.12536,12.68702 0.75599,0.2901 1.37453,1.17593 1.37453,1.96851 0,1.75681 6.02848,11.31723 8.33446,13.21741 1.0958,0.90297 1.66554,2.88431 1.66554,5.79207 l 0,4.41962 -7.71192,-0.29207 -7.71192,-0.29206 -1.24445,-6 c -0.68444,-3.3 -1.26408,-8.78594 -1.28808,-12.19098 -0.024,-3.40504 -0.45901,-6.4477 -0.96669,-6.76147 -0.50769,-0.31377 -1.22179,-1.93057 -1.5869,-3.5929 -0.92807,-4.22547 -3.91849,-5.75681 -10.59941,-5.42774 -7.00404,0.34498 -11.43694,2.57555 -13.4086,6.747 -0.83865,1.77435 -3.56047,6.15109 -6.04847,9.72609 -5.15951,7.41366 -7.43356,12.19273 -7.43356,15.62212 0,2.35972 -0.084,2.37788 -11,2.37788 l -11,0 -0.1008,-27.75 z m 6.6008,11.69745 c 1.1,-0.96527 4.51327,-3.03582 7.58505,-4.60124 3.65705,-1.86367 7.14708,-4.76691 10.10992,-8.4101 5.19544,-6.38844 11.36388,-19.33693 12.78726,-26.84241 0.53578,-2.82518 1.66063,-7.78588 2.49965,-11.02378 1.63896,-6.32495 1.30098,-8.73395 -1.32426,-9.43891 -5.70436,-1.53179 -8.21506,-1.55389 -15.76705,-0.13878 -10.74747,2.0139 -20.39057,6.08436 -20.39057,8.6071 0,1.30758 0.48291,1.65259 1.67361,1.19568 1.29035,-0.49516 1.51935,-0.24024 1,1.11317 -0.37049,0.96547 -0.67361,3.95447 -0.67361,6.64222 0,3.73111 -0.32457,4.76228 -1.37242,4.36018 -1.0078,-0.38672 -1.24376,0.14642 -0.88814,2.00671 0.57652,3.01587 2.13951,2.46057 6.76056,-2.40191 3.29138,-3.46333 18.65379,-14.01538 20.40457,-14.01538 2.00252,0 1.13233,1.93085 -1.65457,3.67129 -3.28259,2.05 -12.92238,9.90674 -15.78648,12.86648 -6.62395,6.84515 -9.46352,11.28572 -9.46352,14.79919 0,3.40955 0.35066,3.81197 5.75,6.59891 6.02637,3.11058 5.76035,4.13986 -0.40424,1.56413 -1.97451,-0.825 -3.98505,-1.5 -4.46788,-1.5 -0.48284,0 -0.87788,4.07656 -0.87788,9.05902 0,9.56513 0.12447,9.728 4.5,5.88843 z m 2.75,-21.03989 c -3.4375,-1.08906 -6.25,-2.46192 -6.25,-3.05082 0,-0.62999 0.72034,-0.7715 1.75,-0.3438 0.9625,0.3998 4.3375,1.44349 7.5,2.31929 3.1625,0.87581 5.75,1.94684 5.75,2.38007 0,1.16451 -1.80618,0.89518 -8.75,-1.30474 z m 3.5,-6.21029 c -2.0625,-0.5775 -3.75,-1.47312 -3.75,-1.99027 0,-0.51714 1.0125,-0.62528 2.25,-0.24031 1.2375,0.38497 4.6125,0.94318 7.5,1.24046 2.8875,0.29728 5.25,0.93479 5.25,1.41668 0,1.14914 -6.50312,0.90256 -11.25,-0.42656 z m 1.69113,-7.2654 c -1.83903,-1.48565 -1.78333,-1.52716 1.05887,-0.78922 1.65,0.4284 4.6875,0.77464 6.75,0.76941 2.0625,-0.005 3.75,0.34992 3.75,0.78922 0,1.48622 -9.55393,0.85027 -11.55887,-0.76941 z m 7.05887,-5.43187 c 0.33992,-0.55 1.71648,-1 3.05902,-1 1.34254,0 2.44098,0.45 2.44098,1 0,0.55 -1.37656,1 -3.05902,1 -1.7847,0 -2.80155,-0.41658 -2.44098,-1 z m -14.41405,-6.55887 c -0.0473,-2.23238 0.5811,-4.93238 1.39639,-6 1.37478,-1.80027 1.43541,-1.68716 0.83567,1.55887 -0.35567,1.925 -0.98405,4.625 -1.39639,6 -0.63226,2.10833 -0.76318,1.86411 -0.83567,-1.55887 z m 5.98386,-4.68453 c 0.5116,-1.78387 0.93019,-3.35887 0.93019,-3.5 0,-0.14113 0.40788,-0.2566 0.9064,-0.2566 0.50991,0 0.43651,1.53103 -0.16778,3.5 -1.35324,4.40925 -2.92928,4.65158 -1.66881,0.2566 z m 6.08003,-3.7566 c 0.5752,-1.65 1.42838,-3 1.89597,-3 0.46758,0 0.37954,1.35 -0.19566,3 -0.57519,1.65 -1.42837,3 -1.89596,3 -0.46758,0 -0.37954,-1.35 0.19565,-3 z m 83.35016,31.45735 c 2.75,-0.90793 5.67206,-1.86019 6.49347,-2.11611 1.1894,-0.37059 1.04715,-0.80901 -0.69864,-2.15329 -1.20567,-0.92837 -2.67972,-2.99285 -3.27568,-4.58774 -0.94042,-2.51674 -0.72709,-3.41416 1.615,-6.79379 3.17097,-4.5757 2.86375,-4.36312 7.51755,-5.20195 4.22732,-0.76197 6.8483,1.09804 6.8483,4.85997 0,2.53767 1.6728,3.53556 5.9268,3.53556 2.97949,0 5.65294,-2.33308 6.21996,-5.42808 0.20775,-1.13396 1.55448,-2.24934 3.26975,-2.70805 3.32446,-0.88906 11.48827,-0.0553 13.2855,1.3569 1.8726,1.47138 5.35484,-0.13752 6.6364,-3.06622 0.70043,-1.60069 1.9556,-2.65455 3.16159,-2.65455 2.01577,0 2.09872,-0.50986 1.13896,-7 -0.52573,-3.55511 -1.81202,-5.5 -3.63754,-5.5 -1.06959,0 -2.036,-1.00165 -2.41206,-2.5 -0.49454,-1.9704 -1.26182,-2.5 -3.62198,-2.5 -1.64699,0 -3.87463,-0.54964 -4.95033,-1.22143 -1.66721,-1.04119 -2.29234,-0.8602 -4.23643,1.22653 -1.25434,1.34638 -2.33687,2.79602 -2.40562,3.22143 -0.0687,0.42541 -0.18125,1.23312 -0.25,1.79491 -0.0687,0.56179 -1.25,1.53402 -2.625,2.16051 -1.375,0.6265 -2.5,1.93856 -2.5,2.91569 0,1.47194 0.60023,1.67921 3.5,1.20865 2.27148,-0.36861 3.5,-0.17104 3.5,0.56287 0,1.03685 -3.95677,1.66086 -8.25,1.30107 -1.09377,-0.0917 -1.75,0.55299 -1.75,1.71912 0,1.02617 -0.63485,2.39264 -1.41077,3.0366 -1.84748,1.53326 -9.48718,2.7506 -8.08923,1.28896 0.55,-0.57506 2.125,-1.19616 3.5,-1.38023 1.70189,-0.22784 2.60211,-1.05368 2.81984,-2.58687 0.17591,-1.23871 1.19246,-2.71921 2.25901,-3.29001 1.43411,-0.76751 1.77836,-1.67852 1.32175,-3.49781 -0.53188,-2.11919 -0.27302,-2.45999 1.86855,-2.45999 3.29496,0 4.97488,-2.17954 4.1655,-5.40435 -0.49905,-1.98836 -0.27516,-2.59565 0.95694,-2.59565 1.04897,0 1.60841,-0.86955 1.60841,-2.5 0,-1.375 0.93479,-3.43479 2.07732,-4.57732 1.34798,-1.34798 1.82402,-2.66459 1.35587,-3.75 -0.3968,-0.91997 -0.76909,-2.91608 -0.82732,-4.4358 -0.13254,-3.45922 -4.515,-6.06429 -8.45766,-5.02749 -1.45651,0.38302 -3.47327,0.57045 -4.48167,0.41651 -2.96516,-0.45266 -4.57885,2.79112 -3.96677,7.97386 0.40232,3.40663 0.0858,5.29782 -1.22012,7.29096 -1.43812,2.19484 -1.55275,3.15343 -0.6215,5.1973 1.44414,3.16955 1.431,3.41198 -0.18496,3.41198 -0.90035,0 -1.18767,0.94799 -0.89392,2.94944 0.33247,2.26525 -0.20552,3.54109 -2.31921,5.5 -1.51366,1.40281 -2.44556,2.55056 -2.0709,2.55056 0.37466,0 0.19954,0.9 -0.38916,2 -0.5887,1.1 -2.06703,1.98569 -3.28518,1.9682 -2.0542,-0.0295 -2.08791,-0.12814 -0.46482,-1.36025 0.9625,-0.73064 1.75,-2.18462 1.75,-3.23106 0,-1.04645 1.0125,-2.34684 2.25,-2.88976 1.58135,-0.69378 2.27256,-1.87866 2.32592,-3.98713 0.0418,-1.65 0.43901,-3.81775 0.88278,-4.81722 0.45348,-1.02131 0.37972,-2.24436 -0.1684,-2.79248 -0.63369,-0.63369 -0.16428,-2.57716 1.34023,-5.54895 1.78599,-3.52779 2.07804,-5.01738 1.27711,-6.51393 -1.49414,-2.79182 -5.11479,-3.92639 -6.49712,-2.03594 -0.60891,0.83274 -1.57439,1.22528 -2.14551,0.87231 -0.57112,-0.35298 -1.59448,0.0283 -2.27415,0.84722 -0.67966,0.81894 -2.03187,1.48899 -3.0049,1.48899 -1.02942,0 -2.01896,0.99535 -2.36661,2.38051 -0.32861,1.30928 -1.5024,2.61715 -2.60841,2.90638 -1.21623,0.31805 -2.01094,1.36303 -2.01094,2.64424 0,1.31944 -0.91059,2.46458 -2.41443,3.03634 -2.68063,1.01917 -3.68748,3.3253 -3.98579,9.12927 -0.12321,2.39715 -0.88359,4.3903 -1.98102,5.19276 -1.7078,1.24878 -1.70785,1.45582 -10e-4,5.03489 1.66724,3.49623 1.67483,3.91048 0.11988,6.54281 -1.00075,1.69412 -1.2976,3.17272 -0.74745,3.72288 1.13843,1.13842 1.41304,9.76894 0.4554,14.31207 -0.79935,3.79218 -1.58562,3.73798 8.05453,0.5552 z m -4.27191,-13.47934 c 0.45097,-4.69337 1.24914,-6.8692 2.16237,-5.89468 0.81939,0.8744 -0.69377,10.91667 -1.64492,10.91667 -0.59797,0 -0.806,-2.01896 -0.51745,-5.02199 z m 1.77191,-9.50939 c 0,-0.84227 0.675,-1.79041 1.5,-2.10699 0.85726,-0.32897 1.5,-1.82105 1.5,-3.48219 0,-1.59862 0.41715,-3.68797 0.927,-4.64301 0.50985,-0.95504 1.25449,-2.63643 1.65476,-3.73643 0.68507,-1.88269 0.75351,-1.89113 1.16678,-0.14378 0.24146,1.02092 -0.0532,2.34842 -0.65476,2.95 -0.60158,0.60158 -1.09378,2.31731 -1.09378,3.81274 0,2.79029 -2.90835,8.86341 -4.25,8.87472 -0.4125,0.003 -0.75,-0.6828 -0.75,-1.52506 z m 48.5,-7.46862 c 0.33992,-0.55 0.81648,-1 1.05902,-1 0.24254,0 0.44098,0.45 0.44098,1 0,0.55 -0.47656,1 -1.05902,1 -0.58246,0 -0.7809,-0.45 -0.44098,-1 z m -6.05802,-0.90612 c 0.30801,-0.49837 1.45956,-0.67088 2.55902,-0.38337 2.75155,0.71955 2.50403,1.28949 -0.56002,1.28949 -1.40746,0 -2.30701,-0.40775 -1.999,-0.90612 z m -35.40871,-8.84388 c 0.0581,-1.30906 3.74151,-5.25 4.90696,-5.25 0.6158,0 0.12155,1.35 -1.09835,3 -2.10119,2.842 -3.88153,3.89377 -3.80861,2.25 z m 18.96673,-5.02776 c 0,-0.81802 3.65596,-4.22224 4.53448,-4.22224 0.2814,0 -0.2255,1.125 -1.12644,2.5 -1.5782,2.40865 -3.40804,3.33335 -3.40804,1.72224 z m 6.22894,-6.40906 c 0.49828,-1.49484 2.77106,-2.31789 2.77106,-1.0035 0,0.53699 -0.7126,1.24979 -1.58356,1.58401 -0.97391,0.37373 -1.43108,0.15024 -1.1875,-0.58051 z m 7.84438,51.18682 c 0.50968,0 0.96221,0.5625 1.00563,1.25 0.0632,1 0.17982,1 0.58333,0 0.27741,-0.6875 1.14189,-1.25 1.92105,-1.25 0.77917,0 1.41667,-0.4132 1.41667,-0.91821 0,-1.76675 -1.22221,-4.08179 -2.15495,-4.08179 -1.74268,0 -5.6279,5.40324 -5.00984,6.96725 0.51101,1.29313 0.66087,1.25916 0.95857,-0.21725 0.19408,-0.9625 0.76987,-1.75 1.27954,-1.75 z m -78.07332,-0.33768 c 1.375,-0.63598 4.72937,-2.73267 7.45416,-4.65932 2.7248,-1.92665 6.31931,-3.953 7.98782,-4.503 1.66851,-0.55 3.18805,-1.80521 3.37674,-2.78936 0.28523,-1.48762 -0.11411,-1.67461 -2.36819,-1.10887 -2.04647,0.51363 -2.59984,0.34615 -2.25677,-0.68306 0.24999,-0.74995 1.51279,-1.61337 2.80624,-1.91871 1.29345,-0.30534 2.55625,-1.16876 2.80624,-1.91871 0.34056,-1.0217 -0.20493,-1.19804 -2.17586,-0.70337 -2.90237,0.72845 -3.45996,-0.44454 -1.13038,-2.37792 0.825,-0.68469 1.5,-1.63979 1.5,-2.12244 0,-1.46961 -3.02434,-0.97771 -3.62582,0.58973 -0.78917,2.05653 -9.37276,6.67933 -11.74551,6.32568 -1.4476,-0.21576 -0.74122,-0.90148 2.68019,-2.60181 2.55521,-1.26986 4.90557,-2.7291 5.22303,-3.24276 0.7546,-1.22097 -5.32417,-13.9484 -6.66192,-13.9484 -1.34332,0 -10.32084,8.98432 -10.3974,10.40528 -0.0324,0.60209 -0.91124,3.79472 -1.95289,7.09472 -3.78449,11.98952 -3.97681,13.27733 -2.41785,16.19026 2.21968,4.14753 5.07694,4.66455 10.89817,1.97206 z m 74.77111,-2.78852 c 3.30652,-2.95996 4.96551,-9.62889 3.2109,-12.90742 -1.58051,-2.9532 -3.41302,-2.39494 -6.43028,1.95897 -3.12311,4.50665 -4.92804,5.47881 -7.55843,4.07106 -1.024,-0.54802 -3.0164,-0.99641 -4.42756,-0.99641 -2.12861,0 -2.56835,-0.46852 -2.58105,-2.75 -0.008,-1.5125 -0.40811,-3.37015 -0.8882,-4.12812 -1.13221,-1.78754 -3.09649,-0.55871 -3.09649,1.93714 0,2.66096 -1.63347,2.4506 -2.35358,-0.3031 -0.53271,-2.03709 -0.73132,-2.09959 -2.15337,-0.67754 -1.55565,1.55565 -1.13577,4.92162 0.61394,4.92162 0.49115,0 0.89301,0.675 0.89301,1.5 0,1.91767 -1.40418,1.92284 -2.99086,0.011 -1.81563,-2.1877 -3.10836,-0.82287 -1.84561,1.94856 1.05962,2.32561 10.29786,7.29379 15.83647,8.5166 4.58439,1.01214 10.71858,-0.36978 13.77111,-3.10237 z m -131.98472,-4.67861 c 1.97685,-2.97729 1.08706,-2.76609 -1.86208,0.44199 -1.33337,1.45044 -1.78782,2.43828 -1.00989,2.19519 0.77793,-0.24309 2.07031,-1.42982 2.87197,-2.63718 z m 87.9745,-11.56974 c 0.82204,-1.80418 0.74049,-3.03265 -0.33949,-5.11431 -1.79212,-3.45432 -1.80575,-5.42642 -0.0422,-6.10316 0.77883,-0.29887 1.67186,-2.73532 2.05148,-5.59702 0.49393,-3.72343 1.45442,-5.84991 3.62079,-8.01628 1.62168,-1.62169 2.94852,-3.26942 2.94852,-3.66163 0,-0.97223 7.44311,-9.13305 8.32985,-9.13305 0.39044,0 2.50969,-1.13616 4.70943,-2.5248 3.3334,-2.10428 4.35777,-2.33307 6.1504,-1.37369 1.85615,0.99338 2.41301,0.79124 4.064,-1.4752 1.05222,-1.44447 2.78171,-2.62631 3.8433,-2.62631 3.54802,0 5.55439,-2.01531 5.09853,-5.12127 -0.23238,-1.5833 -0.87392,-2.87873 -1.42564,-2.87873 -0.55172,0 -0.76789,-0.89955 -0.48038,-1.999 0.28751,-1.09946 0.0758,-2.27524 -0.47049,-2.61286 -0.54628,-0.33762 -0.77549,-1.44653 -0.50935,-2.46423 0.26613,-1.01771 -0.1506,-2.37695 -0.92609,-3.02054 -0.77548,-0.6436 -1.33305,-1.67264 -1.23904,-2.28677 0.18474,-1.20686 -0.74646,-4.09486 -2.2013,-6.82707 -0.50094,-0.94075 -0.66241,-2.35774 -0.35883,-3.14885 0.30358,-0.79111 0.0494,-1.74896 -0.56477,-2.12856 -0.81382,-0.50297 -0.81811,-1.05 -0.0158,-2.01672 0.84791,-1.02168 0.29995,-1.96567 -2.38425,-4.10745 l -3.48519,-2.7809 0.57888,-10.22236 c 0.89745,-15.84782 -2.29121,-28.09637 -8.34736,-32.06451 -2.48256,-1.62664 -2.67487,-1.61813 -3.98713,0.1765 -0.75833,1.03707 -1.44921,3.03707 -1.53529,4.44445 -0.0861,1.40738 -0.26982,3.90887 -0.40829,5.55887 -0.21779,2.59505 1.49735,16.61573 3.18327,26.02216 l 0.54166,3.02215 -7.57205,0.0665 -7.57204,0.0665 0.72152,-7.08866 c 0.95789,-9.41085 0.95056,-23.20441 -0.0147,-27.74212 -1.33699,-6.2849 -5.37873,-6.15358 -8.27484,0.26886 -2.18891,4.85412 -2.45867,16.93593 -0.55004,24.63459 2.34086,9.44211 3.33853,6.46661 4.69413,-14 0.35518,-5.3625 1.03174,-9.75 1.50346,-9.75 1.48224,0 -0.14321,22.13386 -2.12969,29 -1.15512,3.99262 -3.62331,8.89173 -6.39842,12.70021 -4.40803,6.04945 -10.68157,17.54803 -12.02678,22.0435 -0.54549,1.82293 -0.35619,2.12275 1.00939,1.59873 1.41249,-0.54203 1.54265,-0.26167 0.81539,1.75629 -1.06122,2.94462 -0.72193,13.0493 0.46445,13.83226 0.47421,0.31295 1.16507,1.80651 1.53523,3.31901 0.37016,1.5125 1.11445,2.75 1.65397,2.75 0.53952,0 0.98095,0.6704 0.98095,1.48979 0,1.75296 9.28167,8.10035 13.25,9.06118 1.5125,0.36622 2.75,1.11955 2.75,1.67407 0,0.56919 -0.97976,0.72856 -2.25,0.36598 -4.0591,-1.15863 -11.58911,-1.86674 -13.21525,-1.24273 -1.36309,0.52307 -1.09049,1.59197 1.88253,7.38167 1.91204,3.72352 4.87855,9.80754 6.59224,13.52004 1.71369,3.7125 3.46538,6.75 3.89263,6.75 0.42725,0 1.26368,-1.06855 1.85874,-2.37455 z m 1.27429,-32.55971 c -1.51122,-2.82375 -1.26478,-7.6303 0.46482,-9.06574 1.99727,-1.65759 1.90207,-6.51077 -0.19743,-10.06494 -1.90721,-3.22865 -1.01899,-5.29708 1.05606,-2.45928 1.43446,1.96174 3.64137,1.33459 3.64137,-1.0348 0,-0.79254 0.45,-1.44098 1,-1.44098 1.46044,0 1.2217,2.32462 -0.4682,4.55887 -2.14798,2.83988 -1.90514,9.15104 0.4682,12.16826 2.84352,3.61495 2.60674,7.09169 -0.5651,8.29762 -3.57592,1.35956 -4.22008,1.24516 -5.39972,-0.95901 z m -11.1744,-11.09901 c 2.49273,-2.07665 4.13922,-2.52504 4.13922,-1.12725 0,0.8197 -4.40013,3.19336 -5.79705,3.12725 -0.38662,-0.0183 0.3594,-0.9183 1.65783,-2 z m 26.38922,1.32754 c -2.45831,-0.47349 -3.11843,-2.29427 -0.83179,-2.29427 2.16847,0 4.58179,1.1098 4.58179,2.10699 0,0.49115 -0.3375,0.83173 -0.75,0.75683 -0.4125,-0.0749 -1.7625,-0.3312 -3,-0.56955 z m -29.25,-4.69829 c 2.84702,-1.73681 7,-2.09039 7,-0.59598 0,0.55 -0.61875,1 -1.375,1 -0.75625,0 -2.89375,0.25225 -4.75,0.56055 l -3.375,0.56055 2.5,-1.52512 z m 27.75,0.68777 c -1.5125,-0.22913 -2.75,-0.89295 -2.75,-1.47517 0,-0.65228 1.19944,-0.81869 3.125,-0.43358 1.71875,0.34375 3.51875,0.625 4,0.625 0.48125,0 0.875,0.45 0.875,1 0,1.01242 -0.32422,1.02994 -5.25,0.28375 z m -4.01022,-13.82422 c -3.10283,-2.8771 -3.41179,-5.25934 -1.22943,-9.47955 1.72566,-3.33706 4.28867,-4.97998 7.76892,-4.97998 5.9544,0 8.43245,9.48461 3.77369,14.44363 -3.06744,3.26514 -6.80281,3.2709 -10.31318,0.0159 z m 8.68729,-1.02946 c 2.50264,-2.50264 2.9778,-6.16321 1.16011,-8.93736 -2.52368,-3.85162 -6.68866,-3.13093 -9.12417,1.57881 -1.91571,3.70459 -1.85092,4.54057 0.53699,6.92848 2.40173,2.40173 5.28827,2.56888 7.42707,0.43007 z m -5.42707,-3.2343 c 0,-3.54984 2.48736,-6.10841 4.23723,-4.35854 1.56708,1.56708 -0.21902,6.53558 -2.50789,6.97638 -1.32367,0.25491 -1.72934,-0.35919 -1.72934,-2.61784 z m -24.36514,2.73165 c -2.00429,-1.57658 -2.62954,-2.95265 -2.61262,-5.75 0.0322,-5.32235 2.88284,-8.57742 7.51176,-8.57742 6.78667,0 9.50918,6.53668 5.47696,13.15 -2.3825,3.90759 -6.33506,4.3561 -10.3761,1.17742 z m 3.18319,-2.42742 c -1.23461,-2.70966 0.16114,-7.5 2.18526,-7.5 1.50196,0 2.95234,4.37397 2.36847,7.14268 l -0.49712,2.35732 1.52723,-2.5 c 2.27826,-3.72938 1.95079,-6.72281 -0.94285,-8.6188 -3.71665,-2.43524 -7.13371,-0.63227 -8.04907,4.24699 -0.58853,3.13715 -0.34452,4.00639 1.55684,5.54602 2.96302,2.3993 3.21055,2.30916 1.85124,-0.67421 z m 0.18195,-16.38337 c 0,-0.9225 3.41809,-2.10241 6,-2.07117 1.13857,0.0138 1.03228,0.37192 -0.44113,1.48634 -2.13688,1.61626 -5.55887,1.97627 -5.55887,0.58483 z m 25.11397,-0.99578 c -1.31232,-1.00907 -1.94816,-2.1053 -1.41297,-2.43606 1.12181,-0.69332 5.299,1.96475 5.299,3.37191 0,1.40713 -1.22152,1.11296 -3.88603,-0.93585 z m 4.09874,-6.7234 c -3.71819,-6.9475 -7.87678,-34.25096 -5.44562,-35.75351 0.64566,-0.39903 0.99672,0.76623 0.93661,3.10889 -0.15357,5.98555 2.02805,19.2043 4.30539,26.08698 2.13233,6.44446 2.25486,10.39042 0.20362,6.55764 z m -88.77914,31.08542 c 5.71784,-4.36121 6.9331,-7.57202 6.24471,-16.49895 -0.83497,-10.82763 -3.27529,-15.65967 -12.88908,-25.52141 -4.53735,-4.65438 -8.61999,-8.46251 -9.07252,-8.46251 -0.45253,0 -2.47837,-1.125 -4.50187,-2.5 -2.02349,-1.375 -4.02462,-2.5 -4.44694,-2.5 -0.42233,0 -0.76787,5.3858 -0.76787,11.96846 l 0,11.96845 5.42828,4.01011 c 2.98555,2.20555 6.02305,4.81079 6.75,5.7894 0.72695,0.97861 3.66343,3.53987 6.52552,5.69169 2.86208,2.15181 4.95022,4.32268 4.6403,4.82414 -0.30992,0.50146 -1.75163,-0.19517 -3.20379,-1.54807 -1.45217,-1.35289 -3.69924,-3.00547 -4.99348,-3.67239 -2.33778,-1.20466 -2.34848,-1.1842 -1.63576,3.12781 0.9819,5.94056 -0.50697,4.13815 -1.9654,-2.3793 -1.08024,-4.82736 -1.56177,-5.46824 -5.61363,-7.47127 -2.43762,-1.20504 -4.76954,-2.21754 -5.18204,-2.25 -0.4125,-0.0325 -0.75,5.77735 -0.75,12.91071 l 0,12.96974 4.75,1.42686 c 2.6125,0.78477 7.50608,1.31432 10.87462,1.17678 4.94048,-0.20172 6.83695,-0.7934 9.80895,-3.06025 z m -20.20157,-9.48287 c 0,-1.925 0.2058,-2.7125 0.45733,-1.75 0.25152,0.9625 0.25152,2.5375 0,3.5 -0.25153,0.9625 -0.45733,0.175 -0.45733,-1.75 z m -1.232,-8.66667 c 0,-2.56666 0.3375,-4.3282 0.75,-3.91452 0.4125,0.41367 0.75,2.51313 0.75,4.66545 0,2.15232 -0.3375,3.91385 -0.75,3.91452 -0.4125,6.7e-4 -0.75,-2.09878 -0.75,-4.66545 z m 8.62892,-10.2762 c 1.55466,-1.67315 9.37108,-2.66473 9.37108,-1.1888 0,0.62242 -1.2375,1.13781 -2.75,1.14532 -1.5125,0.008 -3.875,0.29373 -5.25,0.63605 -1.93159,0.48088 -2.24332,0.34615 -1.37108,-0.59257 z m -6.62892,-3.00177 c 0,-0.45394 1.0125,-1.4776 2.25,-2.27482 2.90778,-1.87322 8.76823,-3.88233 8.68819,-2.97852 -0.0903,1.01979 -10.93819,6.22976 -10.93819,5.25334 z m -3,-6.90517 c 0,-1.16901 4.51423,-4.16047 6.21482,-4.11839 0.75479,0.0187 0.45978,0.66797 -0.71482,1.57328 -3.25595,2.50948 -5.5,3.54791 -5.5,2.54511 z m 0,-7.65019 c 0.68469,-0.825 1.69489,-1.5 2.24489,-1.5 0.55783,0 0.44954,0.66326 -0.24489,1.5 -0.68469,0.825 -1.69489,1.5 -2.24489,1.5 -0.55783,0 -0.44954,-0.66326 0.24489,-1.5 z m 176.45948,37.38236 c 9.51854,-7.62768 10.54052,-9.64695 10.54052,-20.82635 l 0,-9.20792 -4.55845,-5.92405 c -2.50714,-3.25822 -4.87203,-5.92404 -5.25531,-5.92404 -0.38327,0 -1.20312,1.61748 -1.82189,3.59441 -1.04051,3.32436 -0.87106,3.98004 2.25531,8.72719 1.85919,2.82304 3.38034,5.57055 3.38034,6.1056 0,1.1361 -0.46726,0.63097 -4.49462,-4.85886 l -2.88428,-3.93165 -0.92649,2.77948 c -0.61837,1.85511 -0.54436,3.61818 0.22254,5.30134 0.94644,2.07721 0.90067,2.42656 -0.2596,1.98132 -1.58283,-0.60739 -3.64961,3.10727 -3.67113,6.59822 -0.0182,2.95038 -3.78041,14.75359 -3.88963,12.20295 -0.0471,-1.1 0.32757,-3.575 0.83259,-5.5 0.50503,-1.925 1.228,-6.425 1.60661,-10 l 0.68837,-6.5 -2.60824,2.42061 c -1.43453,1.33133 -2.86483,2.16401 -3.17846,1.85039 -0.31362,-0.31363 1.21464,-2.00458 3.39612,-3.75767 3.52137,-2.82985 5.7439,-7.10232 4.39586,-8.45036 -0.26622,-0.26621 -2.42037,0.84821 -4.78701,2.4765 -2.36664,1.62829 -4.62915,2.96053 -5.02779,2.96053 -1.50964,0 3.23701,-4.29032 6.70482,-6.06024 2.97264,-1.51719 3.82976,-2.68179 4.79503,-6.51523 0.64645,-2.56729 0.91764,-4.92553 0.60265,-5.24053 -0.49181,-0.49181 -8.95877,0.91565 -14.31147,2.37899 -0.93823,0.2565 -0.13087,-0.27081 1.79413,-1.1718 1.925,-0.90099 5.71767,-1.92009 8.42815,-2.26468 4.42514,-0.56256 5.0687,-0.97134 6.30526,-4.00492 l 1.37712,-3.37842 -5.30526,0.45045 c -3.41653,0.29008 -8.50938,1.95423 -14.30527,4.67442 -4.95,2.32319 -8.325,3.55926 -7.5,2.74682 2.52022,-2.48184 17.18821,-8.36962 22.65447,-9.09359 4.13606,-0.54779 5.26944,-1.11128 5.73635,-2.85197 1.25149,-4.66573 0.94247,-4.93481 -5.14082,-4.47623 -4.55696,0.34352 -7.19605,1.31691 -12.71945,4.69142 -4.14527,2.53254 -6.20086,3.40869 -5.07275,2.16214 3.41123,-3.76937 14.27848,-8.43125 19.65398,-8.43125 4.88019,0 6.29721,-0.86072 3.30643,-2.00839 -2.34839,-0.90117 -29.71421,-0.70587 -31.17653,0.22248 -1.5626,0.99202 -4.4818,10.62522 -4.44568,14.67053 0.0579,6.48686 1.04861,17.43956 1.66814,18.44198 1.01534,1.64285 3.04782,1.25477 5.05724,-0.96561 2.93187,-3.23968 3.76589,-0.77922 1.59918,4.71777 -1.92622,4.88685 -1.93057,5.18386 -0.18922,12.90392 2.63915,11.7003 6.2776,19.61277 9.72496,21.14872 5.04459,2.24757 9.55905,0.94066 16.80318,-4.86442 z m -134.7972,-2.13236 c -0.27741,-0.6875 -0.50439,-0.125 -0.50439,1.25 0,1.375 0.22698,1.9375 0.50439,1.25 0.27741,-0.6875 0.27741,-1.8125 0,-2.5 z m 88.15444,-34.47293 c 6.19317,-4.57842 7.90819,-6.61504 9.04737,-10.74398 1.01359,-3.67372 0.89742,-4.17259 -1.5719,-6.75 -1.85332,-1.93444 -2.21292,-2.78309 -1.17928,-2.78309 0.8179,0 2.01959,0.5325 2.67042,1.18333 0.65084,0.65084 1.42392,0.94276 1.71796,0.64872 1.00658,-1.00658 3.22081,-10.88577 2.53485,-11.30971 -0.37673,-0.23284 -2.00149,-0.25162 -3.61056,-0.0417 -1.60907,0.20988 -3.64185,0.4126 -4.51729,0.4505 -1.71082,0.0741 -3.90829,5.94118 -3.90829,10.43492 0,1.44869 -0.50888,2.63398 -1.13084,2.63398 -1.10766,0 -0.9724,-1.90753 0.69136,-9.75 0.83856,-3.9527 -0.77086,-4.32096 -4.37028,-1 l -2.43866,2.25 0.6916,-2.25 c 0.5055,-1.64455 0.28571,-2.25 -0.81678,-2.25 -2.48527,0 -2.91436,1.80796 -2.86677,12.07907 0.0682,14.71353 1.24258,19.84347 4.55709,19.90562 0.4492,0.008 2.4742,-1.21001 4.5,-2.70762 z m -4.81672,-21.27707 c 0.5887,-1.1 1.57428,-2 2.19017,-2 0.61589,0 0.30532,0.9 -0.69017,2 -0.99549,1.1 -1.98106,2 -2.19017,2 -0.20911,0 0.10147,-0.9 0.69017,-2 z m 11.02896,-2.96094 c -0.80907,-0.51167 -1.21098,-1.19037 -0.89313,-1.50823 0.78775,-0.78775 3.86417,0.46709 3.86417,1.57616 0,1.13979 -1.10118,1.11461 -2.97104,-0.0679 z m 49.03556,13.0874 c -3.36387,-6.59373 -5.30282,-6.42661 -6.65168,0.57332 -0.53132,2.75732 -0.0148,3.91489 3.73529,8.37123 l 4.35187,5.17145 0.30023,-5.06261 c 0.21261,-3.58518 -0.29393,-6.22726 -1.73571,-9.05339 z m -9.38141,2.68604 c -0.31922,-0.79773 -0.55618,-0.56078 -0.60416,0.60417 -0.0434,1.05416 0.19292,1.64479 0.52522,1.3125 0.33229,-0.33229 0.36781,-1.1948 0.0789,-1.91667 z m -137.7534,-7.77679 c 0.0649,-3.20003 -0.0539,-3.34013 -1.55727,-1.83672 -1.24731,1.24731 -1.45301,2.52393 -0.88044,5.46428 0.62886,3.22948 0.87534,3.52018 1.55727,1.83673 0.44559,-1.1 0.84179,-3.55893 0.88044,-5.46429 z m 139.94901,1.98712 c 0.64659,-1.91245 0.74524,-3.03745 0.21922,-2.5 -0.52603,0.53744 -1.27656,2.32717 -1.66785,3.97717 -0.9177,3.86977 -0.0653,3.00056 1.44863,-1.47717 z m 8.14394,-7.98049 c -1.48516,-2.77505 -2.8732,-2.56564 -4.08284,0.61596 -0.86917,2.28607 -0.62067,3.06707 1.77475,5.57771 l 2.78543,2.91941 0.30784,-3.53537 c 0.16931,-1.94446 -0.18402,-4.45443 -0.78518,-5.57771 z m -150.03797,-0.85136 c -0.0114,-2.75124 -0.26212,-3.30907 -0.98469,-2.19098 -1.28978,1.99579 -1.28978,7.29713 0,6.5 0.55,-0.33992 0.99311,-2.27898 0.98469,-4.30902 z m -12.06186,-2.36665 c -0.65686,-2.37838 -1.41306,-3.70978 -1.68044,-2.95867 -0.26739,0.75112 0.11085,3.17463 0.84053,5.38558 1.71657,5.20126 2.4007,3.22446 0.83991,-2.42691 z m 157.36284,2.19125 c 0.2899,-1.10857 0.16736,-2.01558 -0.2723,-2.01558 -0.82926,0 -2.01337,2.4353 -2.01337,4.1408 0,1.62992 1.72251,0.0283 2.28567,-2.12522 z m 4.91433,-5.21558 c -0.93333,-0.93333 -1.2,-0.66667 -1.2,1.2 0,1.86667 0.26667,2.13333 1.2,1.2 0.93333,-0.93333 0.93333,-1.46667 0,-2.4 z m -3.2,0.14098 c 0,-0.51754 -0.45,-0.94098 -1,-0.94098 -0.55,0 -1,0.70156 -1,1.55902 0,0.85746 0.45,1.2809 1,0.94098 0.55,-0.33992 1,-1.04148 1,-1.55902 z m -147.72796,187.43991 -2.22797,-2.40793 2.47797,0.62193 c 3.04195,0.76348 3.22366,-0.7389 0.54445,-4.50151 -1.06343,-1.49346 -2.19081,-4.03792 -2.50529,-5.65437 l -0.57178,-2.93901 1.43408,3.06846 c 0.78875,1.68765 2.16682,3.67657 3.06238,4.41982 1.48524,1.23264 1.59006,0.69946 1.19301,-6.06845 -0.23941,-4.08091 -0.23659,-6.18233 0.006,-4.66983 0.24286,1.5125 0.8068,2.75 1.2532,2.75 0.88629,0 2.06161,-4.88339 2.06161,-8.56598 0,-1.27379 0.50876,-2.63042 1.13058,-3.01472 0.82295,-0.50861 0.95617,1.31202 0.48959,6.69098 -0.35254,4.06435 -0.70061,10.3922 -0.77347,14.06191 -0.16106,8.11107 -1.74666,11.59604 -1.96909,4.32781 l -0.15301,-5 -1.0299,4.75 c -0.56644,2.6125 -1.29198,4.70248 -1.6123,4.64441 -0.32032,-0.0581 -1.58498,-1.18916 -2.81036,-2.51352 z m 6.41107,-9.56839 c -0.31922,-0.79773 -0.55618,-0.56078 -0.60416,0.60417 -0.0434,1.05416 0.19293,1.64479 0.52522,1.3125 0.33229,-0.3323 0.36782,-1.1948 0.0789,-1.91667 z m 2.31689,11.38839 c 0,-0.43951 1.6875,-1.44977 3.75,-2.24501 2.0625,-0.79525 4.0875,-1.59815 4.5,-1.78423 0.4125,-0.18607 0.75,0.10032 0.75,0.63644 0,0.53611 -1.80911,1.69861 -4.02024,2.58333 -4.60394,1.84213 -4.97976,1.90322 -4.97976,0.80947 z m 2,-6.20089 c 0,-0.55 0.6199,-1 1.37755,-1 0.75766,0 1.93776,-0.675 2.62245,-1.5 1.41272,-1.70222 3,-1.98035 3,-0.52568 0,0.53588 -1.32765,1.66088 -2.95034,2.5 -3.46702,1.79287 -4.04966,1.8685 -4.04966,0.52568 z m 0.006,-7.75 c 0.008,-0.92211 6.10212,-4.47489 6.68178,-3.89523 0.52216,0.52214 -4.64629,4.64523 -5.82294,4.64523 -0.47583,0 -0.8623,-0.3375 -0.85882,-0.75 z m 76.24321,-0.5 c 0.22891,-0.6875 1.26459,-1.4144 2.3015,-1.61534 1.6311,-0.31608 1.70455,-0.14754 0.54469,1.25 -1.5862,1.91126 -3.44015,2.14923 -2.84619,0.36534 z m -27.24951,-5.1849 c 0,-2.78656 1.81866,-8.07977 2.53124,-7.36719 0.26141,0.26141 0.18766,2.57382 -0.1639,5.13869 -0.66628,4.86107 -2.36734,6.46236 -2.36734,2.2285 z m 23.5,1.4349 c 0.33992,-0.55 1.04148,-1 1.55902,-1 0.51754,0 0.94098,0.45 0.94098,1 0,0.55 -0.70156,1 -1.55902,1 -0.85746,0 -1.2809,-0.45 -0.94098,-1 z m -71.5,-4.15533 c 0,-1.87805 2.74567,-4.43233 3.71861,-3.45939 0.36865,0.36865 -0.31722,1.65778 -1.52417,2.86472 -1.76363,1.76363 -2.19444,1.88038 -2.19444,0.59467 z m 77.07895,-0.428 c 0.048,-1.16495 0.28494,-1.4019 0.60416,-0.60417 0.28887,0.72187 0.25335,1.58437 -0.0789,1.91667 -0.3323,0.33229 -0.56864,-0.25834 -0.52522,-1.3125 z m 3.92105,0.58333 c 0,-0.55 0.45,-1 1,-1 0.55,0 1,0.45 1,1 0,0.55 -0.45,1 -1,1 -0.55,0 -1,-0.45 -1,-1 z m -8,-2.5 c 0,-0.825 0.45,-1.5 1,-1.5 0.55,0 1,0.675 1,1.5 0,0.825 -0.45,1.5 -1,1.5 -0.55,0 -1,-0.675 -1,-1.5 z m -26.92971,-1.75 c -0.0387,-1.5125 0.37971,-2.75 0.92971,-2.75 1.17371,0 1.17371,0.76862 0,3.5 -0.76156,1.77225 -0.86743,1.68684 -0.92971,-0.75 z m 32.92971,-1.25 c 0,-1.375 0.45,-2.5 1,-2.5 0.55,0 1,1.125 1,2.5 0,1.375 -0.45,2.5 -1,2.5 -0.55,0 -1,-1.125 -1,-2.5 z m -3.5,-0.5 c -0.33992,-0.55 -0.14148,-1 0.44098,-1 0.58246,0 1.05902,0.45 1.05902,1 0,0.55 -0.19844,1 -0.44098,1 -0.24254,0 -0.7191,-0.45 -1.05902,-1 z m 7.16667,0.33333 c -0.36667,-0.36666 -0.63815,-1.60416 -0.60328,-2.75 0.0583,-1.91559 0.14052,-1.89048 1.02148,0.31185 0.97931,2.44822 0.77617,3.63253 -0.4182,2.43815 z m -13.83153,-4.10436 c -2.51616,-0.51812 -2.99913,-2.95282 -0.70477,-3.55281 1.17612,-0.30756 2.21034,0.0481 2.52513,0.86847 0.78029,2.03342 0.0743,3.07449 -1.82036,2.68434 z m 10.16486,-1.22897 c 0,-0.55 0.47656,-1 1.05902,-1 0.58246,0 0.7809,0.45 0.44098,1 -0.33992,0.55 -0.81648,1 -1.05902,1 -0.24254,0 -0.44098,-0.45 -0.44098,-1 z m -97,-147.375 c 0,-0.75625 -0.28451,-2.89375 -0.63224,-4.75 -0.42222,-2.25389 -0.29939,-3.04282 0.36977,-2.375 1.36261,1.35989 2.37029,8.5 1.1996,8.5 -0.51542,0 -0.93713,-0.61875 -0.93713,-1.375 z"
       id="path4147"
       inkscape:connector-curvature="0" />
  </g>
</svg>
