<?xml version="1.0" encoding="UTF-8" standalone="no"?>
<!-- Created with Inkscape (http://www.inkscape.org/) -->

<svg
   xmlns:dc="http://purl.org/dc/elements/1.1/"
   xmlns:cc="http://creativecommons.org/ns#"
   xmlns:rdf="http://www.w3.org/1999/02/22-rdf-syntax-ns#"
   xmlns:svg="http://www.w3.org/2000/svg"
   xmlns="http://www.w3.org/2000/svg"
   xmlns:sodipodi="http://sodipodi.sourceforge.net/DTD/sodipodi-0.dtd"
   xmlns:inkscape="http://www.inkscape.org/namespaces/inkscape"
   width="68.750366mm"
   height="71.685341mm"
   viewBox="0 0 243.60366 254.00318"
   id="svg11426"
   version="1.1"
   inkscape:version="0.91 r13725"
   sodipodi:docname="reception.svg">
  <defs
     id="defs11428" />
  <sodipodi:namedview
     id="base"
     pagecolor="#ffffff"
     bordercolor="#666666"
     borderopacity="1.0"
     inkscape:pageopacity="0.0"
     inkscape:pageshadow="2"
     inkscape:zoom="1.979899"
     inkscape:cx="34.589646"
     inkscape:cy="148.2964"
     inkscape:document-units="px"
     inkscape:current-layer="layer1"
     showgrid="false"
     fit-margin-top="0"
     fit-margin-left="0"
     fit-margin-right="0"
     fit-margin-bottom="0"
     inkscape:window-width="1366"
     inkscape:window-height="744"
     inkscape:window-x="0"
     inkscape:window-y="24"
     inkscape:window-maximized="1" />
  <metadata
     id="metadata11431">
    <rdf:RDF>
      <cc:Work
         rdf:about="">
        <dc:format>image/svg+xml</dc:format>
        <dc:type
           rdf:resource="http://purl.org/dc/dcmitype/StillImage" />
        <dc:title />
      </cc:Work>
    </rdf:RDF>
  </metadata>
  <g
     inkscape:label="Layer 1"
     inkscape:groupmode="layer"
     id="layer1"
     transform="translate(398.94469,-179.64633)">
    <path
       style="fill:#000000;opacity:0.7"
       d="M 0 0 L 0.34765625 125 C 0.53852625 193.7496 1.064225 250.36716 1.515625 250.81836 C 1.967035 251.26956 55.40461 251.94934 120.26562 252.32812 C 185.12671 252.70683 238.42834 253.22793 238.71484 253.48633 C 239.96364 254.61263 242.36277 253.79854 243.04688 252.01562 C 244.32388 248.68782 243.17916 4.0612375 241.88086 2.8359375 C 241.21066 2.2033375 188.27003 1.3412219 120.34766 0.85742188 L 0 0 z M 60.537109 2.7050781 C 65.530049 2.7050781 66.089695 3.0166781 66.703125 6.1425781 C 67.636275 10.897778 66.066138 11.978641 60.923828 10.119141 C 57.143578 8.752235 56.08549 8.8207805 53.34375 10.617188 C 51.59113 11.765579 49.431029 12.705078 48.542969 12.705078 C 47.654919 12.705078 46.219456 14.9755 45.353516 17.75 C 43.708356 23.0213 44.396848 25.804019 48.111328 28.886719 C 50.853388 31.162419 49.365244 32.705078 44.427734 32.705078 C 41.270704 32.705078 39.610543 33.535419 37.939453 35.949219 C 36.704243 37.733519 34.568359 40.405419 33.193359 41.886719 C 31.239849 43.991419 30.780601 45.946278 31.087891 50.830078 C 31.525131 57.779178 34.463111 61.455078 39.582031 61.455078 C 41.735211 61.455078 42.568359 62.152578 42.568359 63.955078 C 42.568359 65.330078 41.801821 66.455078 40.863281 66.455078 C 37.509761 66.455078 32.659791 71.572075 31.832031 75.984375 C 31.375901 78.415775 30.219409 80.706719 29.261719 81.074219 C 27.932789 81.584219 27.713161 83.260756 28.332031 88.160156 C 29.266271 95.556156 31.344599 98.488275 36.449219 99.609375 C 40.758939 100.55598 41.688569 105.20508 37.568359 105.20508 C 34.260999 105.20508 30.068359 109.51822 30.068359 112.91992 C 30.068359 114.41272 29.229978 116.56076 28.205078 117.69336 C 26.551438 119.52056 26.573311 120.34284 28.400391 124.99414 C 29.998471 129.06244 31.326272 130.45903 34.326172 131.23633 C 39.967102 132.69813 39.93288 135.90885 34.25 138.59375 C 30.52714 140.35265 29.223472 141.88261 28.138672 145.75781 C 25.850402 153.93211 22.568359 153.17696 22.568359 144.47656 C 22.568359 140.13526 23.196719 138.69592 26.005859 136.60352 L 29.443359 134.04297 L 26.146484 131.1875 C 24.333104 129.6165 22.567806 127.10066 22.222656 125.59766 C 21.492446 122.41796 25.057157 108.35803 27.623047 104.29883 C 29.185287 101.82733 29.122678 101.32861 27.054688 99.816406 C 24.363587 97.848706 22.978282 84.111306 25.076172 80.191406 C 25.755182 78.922606 26.566836 75.890525 26.878906 73.453125 C 27.190986 71.015625 28.036565 67.918014 28.757812 66.570312 C 30.562924 63.197413 30.400547 61.455078 28.279297 61.455078 C 24.258977 61.455078 24.914029 50.195462 29.574219 39.226562 C 30.533399 36.968863 31.318359 34.393859 31.318359 33.505859 C 31.318359 32.617759 32.686772 30.606609 34.357422 29.037109 C 36.221262 27.286209 37.356675 24.862972 37.296875 22.763672 C 37.168565 18.250672 41.078809 11.787306 44.449219 10.941406 C 45.925939 10.570706 48.913904 8.5657281 51.089844 6.4863281 C 54.264064 3.4528281 56.131769 2.7050781 60.537109 2.7050781 z M 85.287109 2.7050781 C 87.916939 2.7050781 90.068359 3.224675 90.068359 3.859375 C 90.068359 4.494075 86.24089 7.5577659 81.5625 10.667969 C 71.63307 17.268969 61.434364 27.627722 57.746094 34.857422 C 50.201344 49.646322 47.244134 73.375145 47.371094 118.07031 C 47.415594 133.73931 47.153493 147.33546 46.789062 148.28516 C 45.934942 150.51096 43.379453 151.47843 41.470703 150.29883 C 40.311563 149.58243 40.408478 140.92928 41.898438 111.95898 C 45.145944 48.81594 46.324698 40.733659 54.048828 28.693359 C 59.820408 19.696559 63.095759 16.225437 73.255859 8.3359375 C 78.958829 3.9074375 81.526019 2.7050781 85.287109 2.7050781 z M 97.332031 2.7050781 C 98.859431 2.7050781 98.871956 3.0286781 97.410156 4.8925781 C 96.466656 6.0956781 95.053231 7.4965063 94.269531 8.0039062 C 93.485831 8.5113062 87.672069 13.206553 81.349609 18.439453 C 68.281109 29.256053 61.438942 38.679534 57.445312 51.365234 C 54.354463 61.183334 51.063801 101.93727 52.181641 116.54297 C 52.579961 121.74747 52.500619 130.32557 52.005859 135.60547 C 51.511079 140.88537 50.732351 145.20312 50.275391 145.20312 C 48.479351 145.19682 48.812479 94.379878 50.730469 75.830078 C 54.600259 38.403478 59.960559 27.915978 83.318359 12.080078 C 87.374409 9.3301781 91.784427 6.0957781 93.117188 4.8925781 C 94.449988 3.6892781 96.346231 2.7050781 97.332031 2.7050781 z M 104.35547 2.7050781 C 105.47967 2.7050781 127.17056 24.729778 128.97656 27.705078 C 137.04226 40.992578 140.02315 62.022598 140.87305 111.63867 C 141.57645 152.70057 140.94331 164.53178 139.66211 134.26758 C 137.37521 80.248952 135.31717 55.765378 132.23047 45.830078 C 129.13427 35.863778 121.92313 24.617744 112.88086 15.652344 C 107.89646 10.710344 103.81836 5.7748469 103.81836 4.6855469 C 103.81836 3.5961469 104.06067 2.7050781 104.35547 2.7050781 z M 117.44922 2.7050781 C 124.75489 2.7050781 124.89538 2.7735125 130.61328 9.1328125 C 141.28738 21.005012 146.44173 33.300784 150.61133 56.833984 C 151.09883 59.585384 150.66403 65.639084 149.57812 71.208984 C 144.47243 97.395884 143.73613 129.60294 147.89453 144.83594 C 149.43333 150.46024 149.43293 151.43314 147.89453 152.02344 L 147.89062 152.02344 C 146.91213 152.39894 145.66103 152.70508 145.11133 152.70508 C 144.56173 152.70508 143.75381 136.25188 143.31641 116.14258 C 142.46091 76.81467 141.22485 61.775591 137.49805 45.400391 C 134.10275 30.481391 130.78172 24.616375 119.75195 14.046875 C 114.42375 8.941175 110.06445 4.300575 110.06445 3.734375 C 110.06445 3.168275 113.38792 2.7050781 117.44922 2.7050781 z M 71.943359 2.7070312 C 75.599019 2.7070312 75.749999 3.0976875 73.105469 5.7421875 C 70.435379 8.4122875 68.818359 8.2108315 68.818359 5.2070312 C 68.818359 3.3736312 69.651699 2.7070313 71.943359 2.7070312 z M 132.64258 2.7070312 C 134.05818 2.7070312 134.86826 3.2695312 134.44336 3.9570312 C 134.01846 4.6445312 132.86179 5.2070312 131.87109 5.2070312 C 130.88039 5.2070312 130.06836 4.6445312 130.06836 3.9570312 C 130.06836 3.2695312 131.22708 2.7070312 132.64258 2.7070312 z M 47.880859 2.734375 C 49.300389 2.692275 49.004159 4.5212312 47.318359 6.2070312 C 46.493359 7.0320314 44.665239 7.6927344 43.255859 7.6777344 C 40.859619 7.6517344 40.896109 7.4928315 43.818359 5.2070312 C 45.537109 3.8625314 47.365239 2.749375 47.880859 2.734375 z M 157.5 2.7636719 C 158.58841 2.7782632 160.06836 4.3797219 160.06836 5.9042969 C 160.06836 6.8949969 159.56704 7.7070312 158.95312 7.7070312 C 157.68603 7.7070312 155.96013 3.8991437 156.83203 3.0273438 C 157.01829 2.8410811 157.24883 2.7603046 157.5 2.7636719 z M 29.275391 2.9101562 C 36.335206 2.8979736 41.318359 3.0718469 41.318359 3.3730469 C 41.318359 3.7745469 38.927729 6.651325 36.005859 9.765625 C 21.008199 25.750625 18.261156 39.063195 16.347656 105.01562 C 15.642586 129.31712 14.752561 149.70772 14.369141 150.32812 C 13.985721 150.94852 11.174274 151.45508 8.1210938 151.45508 L 2.5683594 151.45508 L 2.4433594 111.14258 C 2.3744694 88.97065 2.2338594 55.642578 2.1308594 37.080078 L 1.9433594 3.3300781 L 21.630859 2.9863281 C 24.337892 2.9390031 26.922119 2.9142173 29.275391 2.9101562 z M 174.58984 3.5117188 C 196.24765 3.4672249 239.65744 4.2941594 240.40039 5.0371094 C 240.92649 5.5631094 241.20759 23.113009 241.02539 44.037109 L 240.69336 82.080078 L 238.11133 76.455078 C 236.69073 73.361278 233.87823 66.479156 231.86133 61.160156 C 229.84443 55.841156 225.66206 47.6969 222.56836 43.0625 C 218.02946 36.2633 215.37037 33.738975 208.79297 29.984375 C 197.96377 23.802675 188.65822 22.283934 179.72852 25.240234 C 173.25292 27.384134 173.18417 27.378986 172.16797 24.742188 C 171.60387 23.278588 169.21317 18.109159 166.85547 13.255859 C 164.49767 8.4024646 162.56876 4.1837594 162.56836 3.8808594 C 162.56798 3.6368594 167.37057 3.5265496 174.58984 3.5117188 z M 146.58203 3.9570312 C 153.53903 3.9570312 157.2344 7.7252144 158.25 15.853516 C 158.8403 20.577916 159.66504 22.707031 160.90234 22.707031 C 161.88944 22.707031 163.52175 24.683509 164.53125 27.099609 C 166.24895 31.210709 166.18972 31.731909 163.60742 35.224609 C 162.08982 37.277309 160.68688 38.957031 160.48828 38.957031 C 160.28968 38.957031 159.23674 37.596647 158.14844 35.935547 C 155.66844 32.150647 153.0547 31.107684 150.0625 32.708984 C 148.1796 33.716684 147.56963 33.428966 146.86133 31.197266 C 146.32593 29.510266 146.54699 28.255236 147.42969 27.960938 C 152.48719 26.275137 153.77585 8.9570312 148.84375 8.9570312 C 147.66875 8.9570312 145.68766 7.8320312 144.44336 6.4570312 C 142.22156 4.0020312 142.26113 3.9570313 146.58203 3.9570312 z M 137.12305 5.6796875 C 138.68163 5.7554843 140.66132 6.5353297 142.6875 8.2402344 C 144.79 10.009334 146.96719 11.457031 147.52539 11.457031 C 149.36889 11.457031 150.17369 19.858072 148.65039 23.201172 C 146.39919 28.142172 145.59574 27.711431 140.74414 18.957031 C 139.41064 16.550731 137.30586 13.490903 136.06836 12.158203 C 132.75355 8.5883909 133.7571 5.9197832 136.48242 5.6894531 C 136.68682 5.6721784 136.90039 5.6688594 137.12305 5.6796875 z M 100.26953 6.4550781 C 100.74683 6.4550781 102.27411 7.8995625 103.66211 9.6640625 C 105.05011 11.428663 108.22384 14.491103 110.71484 16.470703 C 121.70641 25.205603 130.5881 42.825275 133.125 60.921875 C 135.0091 74.361475 136.71042 108.25948 136.85352 135.20508 L 136.94336 152.08008 L 124.87305 152.34961 C 111.79308 152.64061 111.56177 152.53838 108.50977 145.20508 C 106.32997 139.96738 100.00067 133.55177 94.388672 130.88867 C 88.611662 128.14727 81.859579 128.53557 73.193359 132.10547 C 69.068359 133.80477 64.916907 135.19922 63.966797 135.19922 C 63.016697 135.20242 60.260147 136.42913 57.841797 137.92383 L 53.445312 140.64062 L 54.185547 107.61133 C 55.499407 49.0152 58.974668 39.219972 86.298828 17.076172 C 93.506058 11.235272 99.792345 6.4550781 100.26953 6.4550781 z M 161.82617 9.8007812 C 162.66887 9.6672725 163.92568 11.749588 166.24805 16.925781 C 168.34915 21.608681 170.06836 26.230066 170.06836 27.197266 C 170.06836 29.983466 167.82397 29.241531 166.88477 26.144531 C 166.41567 24.597631 165.04564 22.207031 163.83984 20.832031 C 161.05474 17.655931 159.84208 12.596628 161.30078 10.236328 C 161.45901 9.9802972 161.6317 9.8315912 161.82617 9.8007812 z M 38.503906 10.478516 C 38.939315 10.52706 38.167499 12.205031 36.318359 15.832031 C 34.943229 18.529231 34.117072 21.676925 34.482422 22.828125 C 34.861112 24.021225 33.786222 26.537941 31.982422 28.681641 C 30.242182 30.749741 28.818359 33.232819 28.818359 34.199219 C 28.818359 35.165619 28.143359 36.632031 27.318359 37.457031 C 24.592659 40.182731 23.528667 39.030131 24.373047 34.269531 C 25.519477 27.805831 30.929838 17.297775 35.236328 13.171875 C 37.09709 11.38915 38.165255 10.440759 38.503906 10.478516 z M 58.214844 11.816406 C 59.742815 11.774569 60.726301 12.490953 60.962891 13.970703 C 61.126501 14.994103 58.878337 18.523553 55.966797 21.814453 C 51.200367 27.202053 50.440876 27.628256 48.347656 26.097656 C 44.815316 23.514756 46.682696 17.751435 52.197266 14.210938 C 54.615311 12.658435 56.686872 11.858244 58.214844 11.816406 z M 151.88281 34.824219 C 152.61974 34.90065 153.55488 35.535394 154.67969 36.785156 C 156.06419 38.323456 157.55775 40.223512 157.99805 41.007812 C 158.43825 41.792213 157.4548 45.448412 155.8125 49.132812 C 153.08 55.263214 152.75845 55.566731 152.03125 52.707031 C 149.15375 41.392344 149.25092 34.551248 151.88281 34.824219 z M 43.505859 35.246094 C 46.716369 35.200994 46.750886 35.379928 45.097656 43.548828 C 44.426146 46.866928 43.556906 51.691331 43.166016 54.269531 C 42.586756 58.090031 41.933809 58.957031 39.636719 58.957031 C 35.586369 58.957031 33.818359 56.624503 33.818359 51.283203 C 33.818359 44.975903 39.663349 35.300094 43.505859 35.246094 z M 23.552734 41.582031 C 23.818112 41.529844 24.070157 42.074481 24.513672 43.175781 C 25.033072 44.465581 24.807972 47.319025 24.013672 49.515625 C 22.087322 54.842825 22.190656 59.110897 24.322266 62.154297 C 25.701566 64.123497 25.816032 66.118641 24.857422 71.494141 C 23.475242 79.244741 20.721827 83.363553 19.335938 79.751953 C 18.366868 77.226653 20.970759 47.562113 22.511719 43.570312 C 23.008204 42.284163 23.287357 41.634219 23.552734 41.582031 z M 179.66602 43.03125 C 179.93064 43.029375 180.06836 43.225741 180.06836 43.619141 C 180.06836 44.309941 182.64216 44.625403 186.00586 44.345703 C 190.55836 43.967003 193.08846 44.520197 196.84766 46.716797 C 203.01466 50.320297 203.7521 52.393719 199.2207 53.386719 C 193.3776 54.667019 188.81836 56.685688 188.81836 57.992188 C 188.81836 58.669786 189.80266 58.842353 191.00586 58.376953 C 192.20896 57.911453 194.88086 57.215578 196.94336 56.830078 L 200.69336 56.128906 L 196.31836 59.154297 C 193.83536 60.871397 191.94336 63.240259 191.94336 64.630859 C 191.94336 66.661659 192.79916 67.074875 196.94336 67.046875 C 199.69336 67.028475 203.29597 66.541444 204.94727 65.964844 C 207.89867 64.934144 207.93425 65.015506 207.15625 70.691406 C 206.18215 77.798206 202.30005 85.764478 197.18945 91.142578 C 195.06615 93.376878 193.01752 95.201172 192.63672 95.201172 C 190.94562 95.189772 182.77479 89.562784 178.40039 85.396484 C 174.33539 81.524884 168.81836 73.167459 168.81836 70.880859 C 168.81836 70.509659 170.24357 70.205078 171.98438 70.205078 C 173.72518 70.205078 177.07463 69.400969 179.42773 68.417969 C 184.32103 66.373369 184.29248 66.334603 185.76758 76.783203 C 186.67058 83.178803 188.17587 85.099522 190.48047 82.794922 C 191.49517 81.780322 191.52513 81.089397 190.58203 80.466797 C 189.84433 79.979797 188.47873 75.923778 187.54883 71.455078 C 185.36123 60.942178 181.27275 56.455078 173.87695 56.455078 C 170.36705 56.455078 168.50218 55.835194 167.98828 54.496094 C 166.85048 51.530794 170.12003 46.4858 173.73633 45.625 C 175.50093 45.205 177.64646 44.307659 178.50586 43.630859 C 179.00986 43.233959 179.40139 43.033125 179.66602 43.03125 z M 183.81836 52.705078 C 183.13086 52.705078 182.56836 53.548778 182.56836 54.580078 C 182.56836 55.611278 183.13086 56.455078 183.81836 56.455078 C 184.50586 56.455078 185.06836 55.611278 185.06836 54.580078 C 185.06836 53.548778 184.50586 52.705078 183.81836 52.705078 z M 204.24023 54.560547 C 204.7392 54.587242 205.06836 54.829906 205.06836 55.246094 C 205.06836 55.911994 204.22456 56.457031 203.19336 56.457031 C 202.16206 56.457031 201.31836 56.235044 201.31836 55.964844 C 201.31836 55.694644 202.16206 55.149706 203.19336 54.753906 C 203.58006 54.605519 203.94086 54.54453 204.24023 54.560547 z M 168.69727 57.998047 C 168.94257 58.00842 169.2272 58.074591 169.54688 58.197266 C 170.63438 58.614566 172.77554 58.955078 174.30664 58.955078 C 175.83774 58.955078 178.18308 59.781616 179.51758 60.791016 C 181.26838 62.115216 181.42126 62.576166 180.06836 62.447266 C 179.03706 62.349066 175.80266 62.054216 172.88086 61.791016 C 169.12236 61.452516 167.56836 60.7452 167.56836 59.375 C 167.56836 58.43585 167.96136 57.966927 168.69727 57.998047 z M 204.82031 59.621094 C 205.61279 59.524506 206.33577 59.904331 206.38477 60.832031 C 206.42107 61.519531 205.51203 62.276172 204.36523 62.513672 C 203.06183 62.783672 202.4913 62.315072 202.8418 61.263672 C 203.1662 60.290522 204.02784 59.717681 204.82031 59.621094 z M 196.31836 62.705078 C 197.00586 62.705078 197.56836 63.267578 197.56836 63.955078 C 197.56836 64.642578 197.00586 65.205078 196.31836 65.205078 C 195.63086 65.205078 195.06836 64.642578 195.06836 63.955078 C 195.06836 63.267578 195.63086 62.705078 196.31836 62.705078 z M 168.67188 63.955078 C 169.35938 63.955078 170.26846 64.517578 170.69336 65.205078 C 171.11826 65.892578 170.9043 66.455078 170.2168 66.455078 C 169.5293 66.455078 168.61826 65.892578 168.19336 65.205078 C 167.76846 64.517578 167.98438 63.955078 168.67188 63.955078 z M 177.00586 64.558594 C 177.88286 64.55508 178.81836 65.079734 178.81836 65.904297 C 178.81836 66.207497 177.94289 66.455078 176.87109 66.455078 C 175.79949 66.455078 175.27513 65.884247 175.70703 65.185547 C 175.97459 64.752609 176.47966 64.560702 177.00586 64.558594 z M 40.310547 69.210938 C 40.606612 69.231509 40.858545 69.327301 41.044922 69.513672 C 42.228532 70.697272 41.270798 94.435259 39.986328 95.755859 C 33.918168 101.99476 27.984805 89.080022 32.796875 80.107422 C 34.046675 77.777022 35.068359 74.896631 35.068359 73.707031 C 35.068359 71.874519 38.138042 69.376092 40 69.214844 C 40.107421 69.205541 40.211858 69.20408 40.310547 69.210938 z M 196.26758 82.882812 C 195.80974 82.918014 195.33226 83.191128 194.81836 83.705078 C 193.99336 84.530078 191.46206 85.205078 189.19336 85.205078 C 184.89726 85.205078 183.80136 87.188078 186.56836 89.955078 C 187.39336 90.780078 189.32222 91.455078 190.85352 91.455078 C 194.30702 91.455078 199.47447 85.361186 197.60547 83.492188 C 197.16492 83.051637 196.72542 82.847612 196.26758 82.882812 z M 20.111328 83.955078 C 21.723188 83.955078 22.532204 87.573353 21.771484 91.376953 C 21.332044 93.574153 21.830734 96.599347 23.027344 98.998047 C 24.436204 101.82215 24.658346 103.63907 23.791016 105.25977 C 23.119116 106.51517 22.568359 109.15847 22.568359 111.13477 C 22.568359 115.45307 19.652224 120.06631 18.302734 117.88281 C 17.152024 116.02091 18.861378 83.955078 20.111328 83.955078 z M 204.33398 86.388672 L 207.07812 94.857422 C 209.20503 101.42172 210.99234 104.36461 215.02734 107.94531 C 219.54534 111.95471 220.05122 112.90407 218.85742 115.13477 C 218.10092 116.54827 214.54819 119.38716 210.96289 121.44336 C 202.06279 126.54766 195.78523 126.32263 184.36133 120.48633 C 175.91133 116.16923 175.62946 115.08897 181.38086 109.04297 C 184.15526 106.12647 186.74331 102.14682 187.13281 100.19922 C 187.76701 97.027909 188.25118 96.723769 191.76758 97.292969 C 195.27908 97.861469 196.15037 97.318103 200.01367 92.158203 L 204.33398 86.388672 z M 193.23242 86.542969 C 193.85462 86.558006 194.29846 86.701047 194.41406 86.966797 C 194.64516 87.498297 193.80748 88.233164 192.55078 88.601562 C 191.29408 88.970163 189.74859 88.933531 189.11719 88.519531 C 188.46609 88.092331 189.27382 87.383613 190.98242 86.882812 C 191.81082 86.639915 192.61022 86.527931 193.23242 86.542969 z M 37.716797 108.03906 C 38.108195 108.02924 38.488237 108.12673 38.845703 108.34766 C 40.223423 109.19916 40.435528 117.20148 39.267578 124.26758 C 38.139898 131.08998 33.420395 130.59571 30.828125 123.38281 C 28.978396 118.23595 33.933281 108.13405 37.716797 108.03906 z M 170.85352 115.41797 C 171.25782 115.32539 171.10423 116.1872 170.59961 118.33008 C 169.47721 123.09628 169.30453 123.27261 168.30273 120.66211 C 167.81623 119.39431 168.29967 117.70547 169.48047 116.54688 C 170.16728 115.87295 170.61093 115.47352 170.85352 115.41797 z M 239.16016 117.94336 C 239.34277 117.92456 239.49713 117.96788 239.60938 118.08008 C 240.05818 118.52888 239.71345 119.75288 238.84375 120.80078 C 237.11575 122.88298 231.88442 123.38257 230.76562 121.57227 C 230.38032 120.94897 231.27511 120.75588 232.75391 121.14258 C 234.52131 121.60478 236.01599 121.06069 237.11719 119.55469 C 237.80816 118.60969 238.61231 117.99975 239.16016 117.94336 z M 221.77539 118.41602 C 222.35473 118.35747 223.36428 118.53453 224.36133 118.89648 C 225.69073 119.37918 226.22548 120.1162 225.55078 120.5332 C 224.26128 121.3301 220.33887 119.48224 221.35547 118.55664 C 221.43642 118.48294 221.58228 118.43553 221.77539 118.41602 z M 160.34375 119.26953 C 160.60309 119.2635 160.78509 119.9608 161.03906 121.45508 C 161.33116 123.17378 162.21771 124.9949 163.00781 125.5 C 163.92511 126.0865 163.6388 126.4245 162.2168 126.4375 C 159.5297 126.4607 158.1886 123.51428 159.5293 120.51758 C 159.8933 119.704 160.14204 119.27422 160.34375 119.26953 z M 218.05664 120.8457 C 218.78576 120.87186 219.12342 121.60969 219.55273 123.32031 C 220.01203 125.15011 219.69549 127.27436 218.80469 128.34766 C 216.81999 130.73926 213.94228 130.72958 213.02148 128.33008 C 212.01498 125.70708 213.2325 123.10697 216.2168 121.50977 C 217.03947 121.06948 217.61917 120.83001 218.05664 120.8457 z M 180.96094 122.54102 C 181.65385 122.57851 182.43044 122.78693 183.27344 123.17773 C 186.61664 124.72753 187.09276 126.43068 184.81836 128.70508 C 181.88256 131.64078 177.56836 130.32805 177.56836 126.49805 C 177.56836 123.85437 178.88219 122.42854 180.96094 122.54102 z M 19.078125 123.23633 C 19.660359 123.18189 20.068359 124.25833 20.068359 125.9707 C 20.068359 127.8477 20.968649 130.37855 22.068359 131.59375 C 23.901009 133.61885 23.901009 134.0417 22.068359 136.6582 C 20.968649 138.2282 20.068359 141.60376 20.068359 144.16016 C 20.068359 146.71666 19.505859 149.15518 18.818359 149.58008 C 18.015349 150.07638 17.568359 145.66022 17.568359 137.22852 C 17.568359 129.82692 18.113449 123.76568 18.818359 123.33008 C 18.907953 123.2747 18.994949 123.24411 19.078125 123.23633 z M 225.04688 124.25391 C 225.25556 124.23739 225.47075 124.24391 225.69336 124.27148 C 229.05116 124.68728 229.81662 130.13612 226.82422 132.32422 C 224.54532 133.99062 223.01505 134.2003 220.56055 133.1875 C 219.60965 132.7951 219.80485 131.26536 221.18555 128.28906 C 222.43688 125.59153 223.58606 124.36954 225.04688 124.25391 z M 171.94727 125.20508 C 174.63097 125.20508 176.81226 131.23052 174.94336 133.48242 C 173.07136 135.73802 170.75906 135.66852 168.78906 133.29492 C 166.80046 130.89872 169.02247 125.20508 171.94727 125.20508 z M 237.31055 125.75 C 241.26082 125.77938 241.94422 129.15593 238.47266 133.64258 C 237.15446 135.34618 231.82211 135.78162 230.88281 134.26172 C 230.56201 133.74222 230.58289 131.83158 230.92969 130.01758 C 231.40299 127.54178 232.52302 126.52862 235.41992 125.94922 C 236.11498 125.81021 236.74622 125.7458 237.31055 125.75 z M 191.12305 126.94922 C 193.55245 126.86001 197.56836 128.26335 197.56836 129.5332 C 197.56836 130.3777 196.5405 131.99892 195.2832 133.13672 C 192.5542 135.60642 192.25366 135.64038 190.31836 133.70508 C 188.64296 132.02968 188.31037 128.16773 189.76367 127.26953 C 190.0864 127.07007 190.56241 126.96981 191.12305 126.94922 z M 209.53711 127.21875 C 209.5941 127.2102 209.64573 127.21144 209.69336 127.2207 C 210.32847 127.34422 210.11989 129.02688 208.77539 131.53906 C 206.99349 134.86846 201.31836 134.67651 201.31836 131.28711 C 201.31836 130.73571 202.23432 130.63495 203.35352 131.06445 C 204.66022 131.56595 206.21637 130.76919 207.70117 128.83789 C 208.5121 127.7831 209.13816 127.27857 209.53711 127.21875 z M 163.50391 128.89648 C 164.56312 128.86248 164.98215 130.30325 165.72266 134.26758 C 166.55486 138.72258 166.43257 138.95508 163.29297 138.95508 C 158.23527 138.95508 157.04807 132.60877 161.57227 129.75977 C 162.40911 129.23277 163.02244 128.91194 163.50391 128.89648 z M 216.02539 132.8457 C 216.17863 132.88934 216.20073 133.68168 216.24023 135.26758 C 216.28383 137.02068 215.64336 139.13008 214.81836 139.95508 C 212.94676 141.82658 206.75525 141.92316 205.62695 140.09766 C 205.16505 139.35016 205.43677 138.08862 206.23047 137.29492 C 207.32137 136.20412 207.93394 136.27504 208.74414 137.58594 C 210.17774 139.90564 213.60133 138.45276 215.01953 134.92188 C 215.58698 133.50872 215.87215 132.80207 216.02539 132.8457 z M 155.06836 133.95508 C 155.75586 133.95508 156.31836 135.04841 156.31836 136.38281 C 156.31836 137.71721 155.75586 139.15518 155.06836 139.58008 C 154.35936 140.01818 153.81836 138.9685 153.81836 137.1543 C 153.81836 135.395 154.38086 133.95508 155.06836 133.95508 z M 198.88281 135.30273 C 203.1312 135.15413 204.29049 138.67038 199.27539 142.61523 C 195.61069 145.49793 195.57756 145.50437 191.63086 143.91797 C 187.42696 142.22827 188.22335 139.51187 193.71875 136.79297 C 195.70677 135.80937 197.46668 135.35227 198.88281 135.30273 z M 227.34375 135.83008 L 227.45703 139.61523 C 227.51903 141.69663 226.69325 144.64983 225.62305 146.17773 C 222.70145 150.34883 215.06836 149.57046 215.06836 145.10156 C 215.06836 142.31306 215.52932 142.19104 218.66992 144.15234 C 222.01322 146.24034 224.79265 144.68087 226.15625 139.95117 L 227.34375 135.83008 z M 187.24219 136.77148 C 187.42904 136.8554 187.09575 137.50467 186.40625 138.79297 C 185.58685 140.32407 183.76127 141.45703 182.10938 141.45703 C 178.77027 141.45703 177.56836 140.52419 177.56836 137.92969 C 177.56836 136.35009 177.90897 136.37633 179.82617 138.11133 C 181.90417 139.99183 182.31488 139.99458 184.95898 138.14258 C 186.34908 137.16893 187.05534 136.68757 187.24219 136.77148 z M 240.52539 136.88867 C 240.63907 136.90589 240.7742 137.09675 240.92383 137.4707 C 241.28453 138.373 241.23952 139.45189 240.82422 139.86719 C 240.40882 140.28259 240.11397 139.54426 240.16797 138.22656 C 240.20547 137.31644 240.33593 136.85998 240.52539 136.88867 z M 235.50195 137.875 C 235.76515 137.92155 236.21341 138.48848 236.98438 139.50781 C 239.42806 142.73861 239.33826 143.26622 235.69336 147.19922 C 233.97456 149.05382 232.56836 151.27161 232.56836 152.12891 C 232.56836 154.52191 229.32518 155.22666 226.80078 153.38086 C 224.88348 151.97886 224.79273 151.421 226.20703 149.7168 C 227.12463 148.6112 229.15189 147.70508 230.71289 147.70508 C 233.79149 147.70508 235.04736 145.62492 235.10938 140.41602 C 235.13086 138.61461 235.16355 137.81515 235.50195 137.875 z M 169.2207 139.375 C 169.3988 139.39569 169.55168 139.89532 169.75 140.83008 C 170.5643 144.66798 173.69744 146.6084 176.58594 145.0625 C 178.76574 143.896 178.86884 144.02613 177.61914 146.36133 C 176.68794 148.10113 174.99783 148.95508 172.48633 148.95508 C 168.16883 148.95508 166.86857 146.74372 168.25977 141.76562 C 168.72113 140.11446 168.99172 139.3484 169.2207 139.375 z M 35.681641 140.74609 C 37.87031 140.61992 38.594941 142.8851 37.783203 147.39258 C 37.396133 149.54188 36.428198 150.20508 33.673828 150.20508 C 30.763728 150.20508 30.072391 149.66338 30.087891 147.39258 C 30.112951 143.70978 31.337397 141.98167 34.654297 140.94727 C 35.026498 140.83118 35.368974 140.76412 35.681641 140.74609 z M 157.98438 143.2207 C 158.28168 143.31287 158.49396 144.32393 158.8125 146.45508 C 159.4749 150.88628 160.74026 151.49004 165.38086 149.58594 C 168.48456 148.31234 168.2764 152.23895 165.15234 153.91211 L 165.15039 153.91211 C 161.50144 155.8644 159.15502 155.48143 157.14062 152.60547 C 155.23462 149.88477 155.22158 148.70348 157.05078 144.58008 C 157.47091 143.63289 157.75312 143.14902 157.98438 143.2207 z M 205.73242 143.56836 C 208.12887 143.60918 210.34308 144.46708 210.93359 146.00586 C 211.29639 146.95146 210.67543 149.12644 209.55273 150.83984 C 207.20463 154.42344 202.5056 154.96459 199.5332 151.99219 C 196.8645 149.32339 197.11918 147.46393 200.48828 145.01953 C 201.89506 143.99884 203.86852 143.53661 205.73242 143.56836 z M 183.05469 144.47266 C 183.50293 144.56439 183.81836 145.22997 183.81836 146.22852 C 183.81836 147.55992 184.59106 149.29062 185.53516 150.07422 C 187.34666 151.57762 191.31836 150.71797 191.31836 148.82227 C 191.31836 148.20837 191.88086 147.70508 192.56836 147.70508 C 194.84716 147.70508 193.86382 151.28257 191.04102 153.25977 C 187.71112 155.59207 187.68456 155.59228 184.13086 153.11328 C 181.25776 151.10918 180.31706 145.97138 182.56836 144.58008 C 182.74023 144.47385 182.90527 144.44208 183.05469 144.47266 z M 239.99023 147.22656 C 241.25981 147.10021 241.31836 149.64638 241.31836 161.41211 C 241.31836 169.68631 241.0782 176.45508 240.7832 176.45508 C 240.4882 176.45508 239.60757 173.22068 238.82617 169.26758 C 238.04477 165.31438 236.83858 160.26071 236.14648 158.03711 C 234.63248 153.17301 235.6328 149.41096 238.9043 147.66016 C 239.34031 147.42685 239.69726 147.25572 239.99023 147.22656 z M 215.56641 150.80273 C 216.27341 150.80013 217.07337 150.89148 218.04297 151.04883 C 220.59127 151.46233 222.56836 152.50495 222.56836 153.43555 C 222.56836 156.74545 219.72165 161.21346 216.74805 162.56836 C 211.92395 164.76636 208.8896 164.22654 207.375 160.90234 C 206.1569 158.22884 206.451 157.38103 209.75 154.08203 C 212.17168 151.66036 213.4454 150.81054 215.56641 150.80273 z M 175.71289 151.21289 C 177.5567 151.2642 179.42867 152.08413 181.00586 153.70117 C 184.38976 157.17057 184.52716 158.76624 181.63086 160.96484 C 178.38556 163.42844 172.05046 163.08555 169.53906 160.31055 C 167.51536 158.07395 167.50921 157.70867 169.44141 154.75977 C 171.02006 152.35035 173.34228 151.14692 175.71289 151.21289 z M 35.060547 152.84766 C 45.453208 152.83349 44.780274 155.32219 45.380859 167.08984 C 45.969309 178.61954 46.465517 180.78257 49.904297 186.79297 C 53.330367 192.78107 60.494903 200.41586 70.251953 208.47656 C 74.482163 211.97136 76.066232 222.15281 73.232422 227.63281 C 71.250062 231.46621 68.969001 232.22615 58.457031 232.56055 C 50.437991 232.81575 45.881703 237.45648 44.814453 246.45508 L 44.443359 249.58008 L 25.068359 249.81055 C 14.412109 249.93685 4.9902394 249.75003 4.1308594 249.39453 C 2.9198494 248.89353 2.5683594 238.1271 2.5683594 201.5332 L 2.5683594 154.31836 L 20.521484 153.44531 C 26.902019 153.13511 31.596327 152.85238 35.060547 152.84766 z M 131.94336 155.08594 L 150.69336 155.11133 L 150.38867 160.80469 C 150.22087 163.93539 148.67397 169.8442 146.95117 173.9375 C 145.22827 178.0307 143.81836 182.24849 143.81836 183.30859 C 143.81836 184.84009 142.84291 185.07986 139.07031 184.47656 C 132.90191 183.49016 132.22854 184.43763 128.99414 198.64453 C 127.54634 205.00413 124.59419 215.26973 122.43359 221.45703 C 119.53862 229.74733 117.97111 232.64647 116.47461 232.48047 C 115.35761 232.35657 111.85094 232.04842 108.68164 231.79492 C 101.09274 231.18772 96.862366 226.87931 95.634766 218.50781 C 94.797266 212.79661 94.895491 212.48288 97.275391 213.23828 C 101.27259 214.50688 109.90067 210.40828 112.07227 206.20898 C 115.40857 199.75728 117.31476 186.37525 116.13086 177.71875 C 115.39366 172.32755 115.491 169.32995 116.4375 168.18945 C 117.4692 166.94635 117.31206 166.02104 115.81836 164.52734 C 114.71886 163.42784 113.73396 161.44309 113.63086 160.11719 C 113.52766 158.79129 113.38736 157.11071 113.31836 156.38281 C 113.23526 155.50361 119.48859 155.06894 131.94336 155.08594 z M 108.49609 155.26172 C 109.17975 155.19245 110.08871 155.92963 110.66797 157.39258 C 113.00297 163.28908 114.89502 185.42246 113.69922 192.84766 C 111.47962 206.62966 107.72878 210.75951 97.771484 210.38281 L 92.277344 210.17383 L 93.117188 216.9043 C 93.773088 222.1539 93.566168 223.78591 92.173828 224.32031 C 91.192028 224.69701 87.79467 225.39384 84.625 225.86914 C 79.18367 226.68514 78.792587 226.54697 77.591797 223.38867 C 75.490417 217.86157 75.983859 210.25165 78.505859 209.31445 C 83.466419 207.47105 94.076478 198.49995 95.955078 194.56055 C 97.332978 191.67105 98.965094 190.21413 101.11133 189.95703 C 102.83833 189.75013 104.45688 188.95094 104.70898 188.18164 C 104.99508 187.30874 104.01582 187.00354 102.10352 187.36914 C 97.939248 188.16514 96.089759 184.39917 96.568359 176.10547 C 96.896059 170.42677 97.308159 169.52934 99.755859 169.18164 C 101.30266 168.96194 102.56836 169.38384 102.56836 170.11914 C 102.56836 170.85444 103.18179 171.45508 103.92969 171.45508 C 104.81359 171.45508 105.00607 169.78032 104.48047 166.66992 C 103.88037 163.11792 104.17479 161.46788 105.62109 160.26758 C 106.69279 159.37808 107.56836 157.87483 107.56836 156.92773 C 107.56836 155.85761 107.96436 155.3156 108.49609 155.26172 z M 202.00195 156.51758 C 202.97204 156.46503 203.81836 157.1874 203.81836 158.7207 C 203.81836 159.966 202.67123 162.216 201.26953 163.7207 C 197.82993 167.4126 188.28039 167.62167 186.36719 164.04688 C 184.86509 161.24007 185.87729 157.70508 188.18359 157.70508 C 189.06229 157.70508 190.70995 159.12116 191.84375 160.85156 C 193.51715 163.40546 194.35124 163.75932 196.27734 162.72852 C 197.58224 162.03012 199.00676 160.33273 199.44336 158.95703 C 199.93851 157.39693 201.03187 156.57013 202.00195 156.51758 z M 225.47266 156.79883 C 225.86594 156.76718 226.30817 156.83075 226.82227 156.96875 C 228.26387 157.35585 230.36759 157.67945 231.49609 157.68945 C 234.24239 157.71225 235.56914 163.48143 233.80664 167.73633 C 233.03304 169.60393 231.00538 171.76627 229.30078 172.54297 C 224.96178 174.51997 220.5934 174.30239 218.2832 171.99219 C 215.6048 169.31379 215.81165 165.53525 218.68555 164.62305 C 219.98665 164.21015 221.7584 162.16066 222.625 160.06836 C 223.55215 157.83013 224.2928 156.89377 225.47266 156.79883 z M 156.17188 158.49609 C 156.53576 158.49611 156.9407 158.50787 157.39258 158.5293 C 159.70218 158.6389 162.11681 159.25363 162.75781 159.89453 C 163.39881 160.53553 164.14311 166.86242 164.41211 173.95312 L 164.90234 186.84375 L 172.25 194.46289 C 176.2916 198.65299 181.20342 204.49527 183.16602 207.44727 C 187.50742 213.97707 186.98935 213.65146 194.53125 214.59766 C 204.65195 215.86746 205.3168 216.23374 204.4707 220.08594 C 203.866 222.83904 204.57733 224.41096 208.14453 228.19336 C 214.56773 235.00386 213.5802 236.71922 206.9707 230.23242 C 201.5617 224.92392 197.31956 223.84588 201.94336 228.95508 C 205.28986 232.65288 203.50825 233.24197 200.06445 229.57617 C 198.45235 227.86017 196.28219 226.45508 195.24219 226.45508 C 193.93089 226.45508 194.44894 227.60206 196.93164 230.19336 C 201.86764 235.34546 200.10007 236.2544 194.57617 231.4043 C 191.75407 228.9265 190.06836 228.10237 190.06836 229.20117 C 190.06836 230.16607 190.73533 231.62205 191.54883 232.43555 C 192.36223 233.24915 192.74253 234.19885 192.39453 234.54688 C 191.37933 235.56206 185.60464 228.68175 183.96094 224.49805 C 183.06484 222.21725 178.80822 217.84828 173.44922 213.70898 C 168.49592 209.88308 160.66758 203.2789 156.05078 199.0332 C 145.52408 189.3528 144.74408 186.43712 149.26758 173.66602 C 151.03738 168.66942 152.64474 163.17378 152.83984 161.45508 C 153.10689 159.10107 153.62468 158.49595 156.17188 158.49609 z M 166.8418 162.34766 C 167.52816 162.29256 168.53734 162.79477 169.90234 163.82617 C 172.09454 165.48237 172.63976 166.76257 172.00586 168.75977 C 170.64066 173.06117 166.7151 172.17128 165.9707 167.39258 C 165.45452 164.0787 165.69785 162.43949 166.8418 162.34766 z M 180.91797 164.53711 C 182.31142 164.57762 183.81319 165.19991 185.21484 166.60156 C 186.50974 167.89656 188.69336 168.95508 190.06836 168.95508 C 193.41596 168.95508 193.2196 170.91712 189.5 174.63672 L 189.5 174.63867 C 185.3556 178.78277 179.56844 178.76014 176.83594 174.58984 C 173.52334 169.53417 176.73762 164.41558 180.91797 164.53711 z M 212.02148 167.12891 C 212.32868 167.12135 212.58923 167.22595 212.80273 167.43945 C 214.83243 169.46915 212.67013 173.93011 208.39453 176.53711 C 206.22163 177.86211 203.2185 178.95117 201.7207 178.95117 C 198.1403 178.95727 194.83865 175.54834 195.31445 172.33594 C 195.75855 169.33804 198.81836 167.85928 198.81836 170.64258 C 198.81836 171.68478 200.05229 172.92815 201.55859 173.40625 C 203.68139 174.07995 205.11022 173.36471 207.91602 170.22461 C 209.74812 168.17418 211.0999 167.15159 212.02148 167.12891 z M 234.64844 171.5332 C 235.49968 171.47558 236.38423 172.48203 237.33398 174.56641 C 238.99158 178.20451 238.18411 181.03823 235.00391 182.74023 C 232.13061 184.27793 232.38016 184.30887 229.09766 182.00977 C 225.47296 179.47097 225.56527 176.68035 229.32227 175.25195 C 230.97427 174.62395 232.69538 173.5131 233.14648 172.7832 C 233.63972 171.98513 234.13769 171.56778 234.64844 171.5332 z M 172.75586 172.61914 C 173.39358 172.68812 173.81836 173.27642 173.81836 174.55273 C 173.81836 175.56813 175.236 177.32498 176.9668 178.45898 C 179.4332 180.07508 179.8042 180.89258 178.6875 182.23828 C 177.8786 183.21288 174.91077 183.95508 171.82227 183.95508 L 166.38086 183.95508 L 167.12891 179.89258 C 167.82184 176.13023 170.72469 172.81186 172.4707 172.62109 C 172.56991 172.61025 172.66476 172.60929 172.75586 172.61914 z M 101.16797 172.85156 C 100.69779 172.81507 100.12682 172.89544 99.498047 173.13672 C 97.575347 173.87452 96.819344 179.04005 98.402344 180.62305 C 100.16364 182.38445 101.45013 181.33908 100.64453 178.80078 C 100.11983 177.14748 100.42764 175.75579 101.46094 175.11719 C 103.07561 174.11924 102.5785 172.96103 101.16797 172.85156 z M 220.99023 176.45508 C 223.04153 176.45508 222.94823 180.22468 220.82812 183.01758 C 219.63823 184.58508 217.40557 185.20508 212.95117 185.20508 C 206.51707 185.20508 205.06836 184.61736 205.06836 182.00586 C 205.06836 179.47666 209.00045 178.72621 210.62305 180.94531 C 212.60135 183.65081 216.64323 182.75022 218.17773 179.26172 C 218.85633 177.71882 220.12193 176.45508 220.99023 176.45508 z M 192.5957 177.19727 C 193.71667 177.26753 194.66044 177.92683 196.43164 179.23633 C 198.43274 180.71573 200.06836 182.32204 200.06836 182.80664 C 200.06836 184.23844 197.38196 184.60473 189.75586 184.20703 C 181.15246 183.75833 180.40316 181.75255 187.69336 178.68945 C 190.17561 177.6465 191.47474 177.127 192.5957 177.19727 z M 224.93359 182.14844 C 225.65508 182.20967 226.31836 182.88332 226.31836 184.0293 C 226.31836 184.6763 225.49212 185.20508 224.48242 185.20508 C 223.36342 185.20508 222.92983 184.47249 223.36523 183.33789 C 223.64191 182.61684 224.12526 182.2401 224.62305 182.16016 C 224.72675 182.1435 224.83052 182.13969 224.93359 182.14844 z M 238.81836 182.70508 C 239.50586 182.70508 240.06836 183.26758 240.06836 183.95508 C 240.06836 184.64258 239.50586 185.20508 238.81836 185.20508 C 238.13086 185.20508 237.56836 184.64258 237.56836 183.95508 C 237.56836 183.26758 238.13086 182.70508 238.81836 182.70508 z M 182.24609 186.77539 C 193.87535 186.75994 210.44505 187.10688 216.12305 187.66406 C 216.35885 187.68716 214.24955 190.45541 211.43555 193.81641 C 205.26655 201.18461 204.88726 204.41009 210.00586 205.96289 L 213.69141 207.08008 L 210.20703 211.7207 C 207.62823 215.1543 206.35806 215.99478 205.31836 214.95508 C 204.54576 214.18258 200.65683 213.1193 196.67773 212.5918 C 190.60883 211.7872 188.93976 210.991 186.31836 207.6543 C 184.59956 205.4666 180.24016 200.22867 176.63086 196.01367 C 173.02146 191.79857 170.06836 187.84396 170.06836 187.22656 C 170.06836 186.92461 175.26854 186.78466 182.24609 186.77539 z M 139.20117 186.77734 C 139.77924 186.79286 140.40181 186.87879 141.07812 187.02734 C 143.73353 187.61054 145.06836 188.64574 145.06836 190.11914 C 145.06836 192.34864 156.1539 202.94874 171.4707 215.36914 C 176.0508 219.08324 180.99437 224.42097 182.54297 227.32227 C 186.67087 235.05557 189.23188 236.86391 196.52148 237.19141 C 202.85918 237.47611 206.43431 239.8142 203.44141 241.7168 C 202.61831 242.2401 197.72456 242.56611 192.56836 242.44141 C 187.41206 242.31681 170.77119 241.90384 155.58789 241.52344 L 127.98242 240.83008 L 124.68945 237.08008 C 122.87885 235.01758 121.38137 232.93868 121.35938 232.45898 C 121.33758 231.97928 122.93154 226.91678 124.90234 221.20898 C 126.87314 215.50118 129.5175 206.3941 130.7793 200.9707 C 133.30892 190.09769 135.1547 186.6687 139.20117 186.77734 z M 231.29102 187.70508 L 241.31836 187.70508 L 241.31836 191.45508 C 241.31836 193.51758 240.83323 195.20508 240.24023 195.20508 C 239.64733 195.20508 237.03866 196.89258 234.44336 198.95508 C 231.84796 201.01758 228.39568 202.70508 226.77148 202.70508 C 222.94478 202.70508 223.01386 201.69908 226.94336 200.20508 C 228.66206 199.55168 230.06836 198.44083 230.06836 197.73633 C 230.06836 195.88523 229.01469 196.12996 224.21289 199.09766 C 218.76489 202.46476 217.39578 201.33319 222.42188 197.61719 C 224.51147 196.07229 225.91908 194.32051 225.55078 193.72461 C 225.18248 193.12871 223.19261 194.06233 221.12891 195.79883 C 216.33151 199.83593 213.29836 199.88486 217.88086 195.85156 C 219.77146 194.18756 221.31836 192.11946 221.31836 191.25586 C 221.31836 190.39216 218.78706 192.16878 215.69336 195.20508 C 212.59956 198.24138 210.06836 200.1181 210.06836 199.375 C 210.06836 198.6319 212.58762 195.70273 215.66602 192.86523 C 221.25502 187.71603 221.27762 187.70508 231.29102 187.70508 z M 241.57617 198.96094 C 242.46557 198.95564 241.61621 236.99138 240.66211 239.89258 C 240.09541 241.61568 216.29666 242.22738 216.34766 240.51758 C 216.36286 240.00198 217.51159 238.17388 218.90039 236.45508 C 221.77369 232.89928 231.31836 218.99328 231.31836 218.36328 C 231.31836 218.13478 228.36516 215.0875 224.75586 211.5918 L 218.19336 205.23633 L 223.29492 205.2207 C 226.23032 205.2118 231.00602 203.88134 234.54492 202.08594 C 237.92702 200.37004 241.09127 198.96094 241.57617 198.96094 z M 217.01758 207.78711 L 222.60547 212.60742 L 228.19336 217.42578 L 224.61719 224.12891 C 222.65029 227.81521 220.17293 231.81438 219.11133 233.01758 C 217.05203 235.35148 215.06836 235.89951 215.06836 234.13281 C 215.06836 233.54201 213.14171 230.62384 210.78711 227.64844 L 206.50781 222.23828 L 208.79102 217.78516 C 210.04742 215.33566 212.41278 212.08289 214.04688 210.55859 L 217.01758 207.78711 z M 145.13672 212.1543 C 143.00694 212.22759 142.35488 212.80954 141.47852 214.04297 C 140.53532 215.37057 138.79096 216.45508 137.60156 216.45508 C 136.14676 216.45508 134.15121 219.25084 131.50391 224.99414 C 129.33961 229.68954 127.56836 234.16235 127.56836 234.93555 C 127.56836 235.79435 130.85046 236.5121 136.00586 236.7793 C 149.92626 237.501 160.50002 236.42855 162.19922 234.12305 C 163.02702 232.99985 164.59158 231.17355 165.67578 230.06445 C 168.40918 227.26805 169.76293 215.4342 167.42773 214.75 C 166.47433 214.4706 160.63086 213.65445 154.44336 212.93555 C 150.50121 212.47748 147.91837 212.20153 146.14453 212.1543 C 145.77498 212.14446 145.44097 212.14383 145.13672 212.1543 z M 143.98633 214.96094 L 154.21484 215.84961 C 159.84094 216.33871 164.86516 216.99037 165.38086 217.29688 C 166.76486 218.11946 166.52164 226.18301 165.08594 227.07031 C 163.52664 228.03401 137.56836 229.17996 137.56836 228.28516 C 137.56836 227.92046 139.01284 224.77312 140.77734 221.29102 L 143.98633 214.96094 z M 223.89648 216.42773 C 223.63426 216.40248 223.34803 216.50939 223.06836 216.78906 C 222.65576 217.20166 222.75848 218.25185 223.29688 219.12305 L 223.29688 219.11914 C 224.08447 220.39834 224.37933 220.39911 224.80273 219.12891 C 225.25588 217.76938 224.68315 216.50349 223.89648 216.42773 z M 221.18555 218.95508 C 220.57165 218.95508 220.06836 219.79878 220.06836 220.83008 C 220.06836 221.86128 220.8947 222.70508 221.9043 222.70508 C 223.0206 222.70508 223.45978 221.97218 223.02148 220.83008 C 222.62578 219.79878 221.79955 218.95508 221.18555 218.95508 z M 137.71289 220.20508 C 138.45669 220.20508 137.88626 222.20684 136.44336 224.65234 C 132.08036 232.04734 132.60226 232.64078 142.88086 231.95898 C 147.86516 231.62838 153.76257 231.13683 155.98438 230.86523 C 161.09668 230.24023 162.53724 232.30556 158.15234 233.97266 C 153.76874 235.63936 130.06836 234.98467 130.06836 233.19727 C 130.06836 231.29727 136.59489 220.20508 137.71289 220.20508 z M 151.31836 220.20508 C 150.63086 220.20508 150.06836 220.76758 150.06836 221.45508 C 150.06836 222.14258 150.63086 222.70508 151.31836 222.70508 C 152.00586 222.70508 152.56836 222.14258 152.56836 221.45508 C 152.56836 220.76758 152.00586 220.20508 151.31836 220.20508 z M 155.06836 220.20508 C 154.38086 220.20508 153.81836 221.0825 153.81836 222.1543 C 153.81836 223.2262 154.38086 223.75498 155.06836 223.33008 C 155.75586 222.90518 156.31836 222.02971 156.31836 221.38281 C 156.31836 220.73591 155.75586 220.20508 155.06836 220.20508 z M 162.57227 220.24219 C 161.93988 220.1841 161.28985 220.67673 161.2207 221.77148 C 161.1422 223.01098 160.99138 223.00767 160.48828 221.75977 C 160.14008 220.89607 159.34169 220.50778 158.71289 220.89648 C 156.86989 222.03548 157.39406 223.73323 159.75586 224.26953 L 159.75586 224.27148 C 162.59906 224.91708 163.81836 224.23867 163.81836 222.00977 C 163.81836 220.90867 163.20465 220.30027 162.57227 220.24219 z M 218.87891 223.95508 C 217.44251 223.95508 216.14415 227.66163 217.06055 229.14453 C 217.47705 229.81843 218.53893 229.35762 219.45312 228.10742 C 221.09933 225.85612 220.83651 223.95508 218.87891 223.95508 z M 90.267578 228.00977 C 94.135637 227.96573 96.520597 228.26977 96.904297 228.89062 C 97.406397 229.70303 96.135478 230.24555 93.580078 230.31055 C 91.305168 230.36825 86.209129 230.50885 82.255859 230.62305 C 71.252979 230.94095 74.387338 228.84462 85.923828 228.16992 C 87.523803 228.07635 88.978225 228.02445 90.267578 228.00977 z M 86.943359 233.37305 C 101.91855 233.45543 116.3358 234.69699 120.58008 236.63086 C 123.13765 237.79616 128.81836 246.25024 128.81836 248.89062 C 128.81836 250.68983 48.037671 250.72478 46.925781 248.92578 C 45.567161 246.72748 47.568631 240.64145 50.582031 237.81055 C 52.983171 235.55475 55.742928 234.92174 67.080078 234.02344 C 73.213931 233.53747 80.136454 233.3356 86.943359 233.37305 z M 209.54883 237.70508 C 211.57633 237.70508 212.58451 238.28648 212.25781 239.26758 C 211.65611 241.07468 208.48131 241.95202 207.19531 240.66602 C 205.43761 238.90832 206.39403 237.70508 209.54883 237.70508 z M 240.69336 243.33008 L 241.08984 246.76758 C 241.33844 248.92828 240.87414 250.26056 239.83984 250.35156 L 239.83984 250.35352 C 234.24494 250.84532 151.18986 250.72268 141.94336 250.20898 C 131.06246 249.60448 130.69336 249.48507 130.69336 246.57227 L 130.69336 243.56055 L 148.81836 243.54492 C 158.78706 243.53492 178.19336 243.53492 191.94336 243.54492 C 205.69336 243.55362 222.28706 243.50831 228.81836 243.44531 L 240.69336 243.33008 z "
       transform="translate(-398.94469,179.64633)"
       id="path10440" />
  </g>
</svg>
