<?xml version="1.0" encoding="UTF-8" standalone="no"?>
<!-- Created with Inkscape (http://www.inkscape.org/) -->

<svg
   xmlns:dc="http://purl.org/dc/elements/1.1/"
   xmlns:cc="http://creativecommons.org/ns#"
   xmlns:rdf="http://www.w3.org/1999/02/22-rdf-syntax-ns#"
   xmlns:svg="http://www.w3.org/2000/svg"
   xmlns="http://www.w3.org/2000/svg"
   xmlns:sodipodi="http://sodipodi.sourceforge.net/DTD/sodipodi-0.dtd"
   xmlns:inkscape="http://www.inkscape.org/namespaces/inkscape"
   width="54.396042mm"
   height="55.51701mm"
   viewBox="0 0 192.74187 196.71381"
   id="svg2"
   version="1.1"
   inkscape:version="0.91 r13725"
   sodipodi:docname="scared_rabbit.svg">
  <defs
     id="defs4" />
  <sodipodi:namedview
     id="base"
     pagecolor="#ffffff"
     bordercolor="#666666"
     borderopacity="1.0"
     inkscape:pageopacity="0.0"
     inkscape:pageshadow="2"
     inkscape:zoom="1.4"
     inkscape:cx="12.317967"
     inkscape:cy="53.770332"
     inkscape:document-units="px"
     inkscape:current-layer="layer1"
     showgrid="false"
     fit-margin-top="0"
     fit-margin-left="0"
     fit-margin-right="0"
     fit-margin-bottom="0"
     inkscape:window-width="1366"
     inkscape:window-height="744"
     inkscape:window-x="0"
     inkscape:window-y="24"
     inkscape:window-maximized="1" />
  <metadata
     id="metadata7">
    <rdf:RDF>
      <cc:Work
         rdf:about="">
        <dc:format>image/svg+xml</dc:format>
        <dc:type
           rdf:resource="http://purl.org/dc/dcmitype/StillImage" />
        <dc:title></dc:title>
      </cc:Work>
    </rdf:RDF>
  </metadata>
  <g
     inkscape:label="Layer 1"
     inkscape:groupmode="layer"
     id="layer1"
     transform="translate(-268.02186,-310.76566)">
    <path
       style="fill:#000000"
       d="m 269.70686,506.78567 c -1.78377,-0.65986 -1.85892,-2.05384 -1.53636,-28.5 0.18652,-15.29341 0.38235,-59.24181 0.43518,-97.6631 l 0.096,-69.85691 95.25,0.58379 c 52.3875,0.32108 95.58035,0.59419 95.9841,0.6069 0.40376,0.0127 0.62876,4.86062 0.5,10.77312 -0.12875,5.9125 -0.0987,15.025 0.0668,20.25 0.1655,5.225 0.28166,44.375 0.25813,87 l -0.0428,77.5 -94.56781,0 c -52.0123,0 -95.41179,-0.31221 -96.44332,-0.6938 z M 354.9026,503.639 c 3.21534,-5.13171 0.71601,-15.61691 -4.3466,-18.23488 -3.55269,-1.83717 -9.93123,-2.03881 -15.62735,-0.494 -4.74407,1.2866 -5.96196,0.89646 -7.17688,-2.29901 -1.21447,-3.19428 -5.5394,-5.30033 -7.51596,-3.65993 -2.42218,2.01023 -1.92436,7.72893 0.92045,10.57374 2.97691,2.97691 4.91204,3.06223 10.30932,0.45455 7.49969,-3.62345 14.79758,-1.88721 17.28239,4.11166 1.18396,2.85833 1.10302,3.61663 -0.74649,6.99315 -1.14094,2.08295 -1.87763,3.98399 -1.63709,4.22453 0.82251,0.82251 7.83603,-0.54912 8.53821,-1.66981 z m -34.8558,-17.20266 c -0.32569,-0.84872 -0.3415,-1.79378 -0.0351,-2.10013 0.87571,-0.87571 2.69007,0.60965 2.69007,2.20228 0,1.91885 -1.90756,1.84546 -2.65493,-0.10215 z m 4.19763,-3.38777 c -0.31644,-0.512 -0.11799,-1.21356 0.44098,-1.55902 0.55897,-0.34546 1.01631,0.0734 1.01631,0.9309 0,1.75653 -0.60006,2.01516 -1.45729,0.62812 z m 83.88586,21.35947 c 2.23851,-2.2385 1.94334,-6.58032 -0.7159,-10.53069 -2.94787,-4.37914 -6.6368,-6.09819 -12.98066,-6.04905 -4.46528,0.0346 -5.98712,0.66036 -12.2641,5.04295 -3.94143,2.7519 -9.24846,5.52777 -11.79339,6.16859 -4.10978,1.03486 -5.01007,0.9392 -8.05187,-0.8555 l -3.42472,-2.02063 -0.45548,2.38274 c -0.78564,4.10978 2.44,5.94005 10.37363,5.88612 6.23259,-0.0424 7.77163,-0.50182 15.91136,-4.75 12.26235,-6.39982 15.916,-6.23204 17.47569,0.80249 1.10359,4.97744 1.37589,5.49441 2.89406,5.49441 0.80297,0 2.1671,-0.70714 3.03138,-1.57143 z m -8.61673,-5.16709 c -0.41917,-2.17658 -2.66372,-2.64849 -6.20079,-1.3037 -3.71985,1.41428 -2.37067,3.04222 2.52129,3.04222 3.27477,0 3.95263,-0.32028 3.6795,-1.73852 z m -89.283,-6.2793 c 4.13698,-2.5568 6.46554,-7.44718 6.49152,-13.63331 0.016,-3.81954 -0.96381,-6.77745 -4.61578,-13.93384 -4.20026,-8.23084 -4.56639,-9.49781 -3.89426,-13.4761 0.88643,-5.24674 5.96246,-10.93893 9.75482,-10.93893 3.15514,0 7.73486,3.57862 7.73486,6.04407 0,1.0444 -1.125,4.44273 -2.5,7.55185 -2.8487,6.4414 -3.22947,13.09276 -0.99671,17.41045 2.11711,4.09403 10.15765,9.99363 13.62028,9.99363 4.93032,0 10.55568,-2.92966 13.33997,-6.94739 6.20957,-8.96042 7.56387,-18.37565 4.49144,-31.225 -0.97175,-4.064 -0.85183,-5.27237 0.92097,-9.28008 1.12101,-2.53423 1.76546,-5.38165 1.43211,-6.32761 -1.18822,-3.37188 -4.63671,-6.21992 -7.53127,-6.21992 -2.41258,0 -3.18462,0.68306 -4.80372,4.25 -3.21131,7.07467 -1.96105,13.75 2.57531,13.75 2.07749,0 4.20685,3.88839 4.95773,9.05325 0.55485,3.81644 0.15618,5.68443 -2.46367,11.54361 -2.63911,5.90225 -3.80185,7.35976 -7.46973,9.36342 -5.31573,2.90384 -9.77465,3.02315 -13.361,0.35749 -4.17327,-3.10191 -3.98173,-6.30644 0.70029,-11.71609 7.94994,-9.18545 7.59422,-17.26213 -0.95232,-21.62225 -5.80759,-2.96281 -14.88518,-3.16549 -18.57463,-0.41473 -4.86397,3.62645 -8.51576,8.9909 -9.10352,13.37299 -0.62939,4.69244 0.44702,7.42547 5.39071,13.68721 4.58296,5.80484 5.68486,8.65808 4.9194,12.73829 -1.02872,5.48358 -5.4879,8.63681 -12.21382,8.63681 -4.47297,0 -5.91566,-0.44693 -7.92328,-2.45455 -5.35605,-5.35605 -1.43998,-15.61323 7.14635,-18.71809 5.03228,-1.8197 4.12773,-4.24636 -1.72461,-4.62663 -3.7903,-0.24628 -5.16858,0.17435 -7.78486,2.37579 -6.97942,5.87281 -8.85447,14.54934 -4.84142,22.40305 2.66412,5.2138 5.33716,7.31414 12.75,10.01831 6.13344,2.23746 9.66454,1.9906 14.52884,-1.0157 z m 33.13783,-58.64885 c -1.21793,-1.21793 -0.68908,-3.33333 0.83333,-3.33333 0.83333,0 1.5,0.88889 1.5,2 0,1.99224 -1.06554,2.60112 -2.33333,1.33333 z m 8.51001,-4.00046 c 0.48655,-2.50877 2.82332,-2.85325 2.82332,-0.4162 0,1.22833 -0.64569,2.08333 -1.57332,2.08333 -0.93124,0 -1.44138,-0.68037 -1.25,-1.66713 z m 65.07479,61.24837 c 3.19076,-3.01409 6.38144,-4.91402 10.03713,-5.97676 5.61285,-1.6317 8.00405,-3.56098 9.17605,-7.40344 0.94333,-3.0928 -1.8071,-7.20104 -4.82104,-7.20104 -2.91621,0 -3.91604,0.96682 -2.61768,2.53124 0.55472,0.6684 0.72326,1.95879 0.37454,2.86754 -0.4891,1.27456 -0.94772,1.39193 -2.00624,0.51344 -0.75472,-0.62636 -1.08263,-1.60737 -0.72871,-2.18004 0.3737,-0.60466 0.15945,-0.74204 -0.51101,-0.32767 -0.63498,0.39244 -1.15451,1.18146 -1.15451,1.75338 0,0.57192 -0.70387,2.52314 -1.56415,4.33605 -1.47889,3.11654 -4.92912,5.4025 -12.65873,8.3871 -2.71361,1.04779 -2.71702,1.06169 -1,4.07884 0.94758,1.66511 1.96446,3.03032 2.25973,3.0338 0.29527,0.003 2.64185,-1.98212 5.21462,-4.41244 z m 13.25861,-11.56493 c -0.73755,-1.19337 0.19857,-3.01631 1.54894,-3.01631 1.2168,0 1.22469,2.70662 0.0101,3.45729 -0.512,0.31644 -1.21356,0.11799 -1.55902,-0.44098 z m -46.69723,9.12052 c 1.75936,-1.1157 0.92972,-8.07389 -1.38362,-11.60449 l -1.76912,-2.70002 -1.29462,2.33384 c -1.69577,3.057 -1.67709,5.15231 0.0835,9.36596 1.50722,3.60729 2.16438,3.99953 4.36388,2.60471 z m -26.42338,-10.13683 c 0.31042,-1.375 1.92478,-3.93809 3.58747,-5.69577 1.66268,-1.75767 3.02306,-3.41453 3.02306,-3.6819 0,-0.26738 -1.30716,-1.41692 -2.9048,-2.55454 l -2.9048,-2.0684 -2.48494,4.2503 c -1.36672,2.33767 -3.06968,6.20917 -3.78436,8.60333 -1.2441,4.16775 -1.19559,4.43166 1.13975,6.20062 2.68973,2.03742 2.74131,1.9772 4.32862,-5.05364 z m 48.10713,3.09886 c 9.16526,-5.22093 9.99972,-17.48592 1.83837,-27.02062 -3.64886,-4.26288 -3.70633,-4.28664 -8.74925,-3.61767 -5.13781,0.68155 -8.58572,2.75762 -8.58572,5.16967 0,1.00168 0.61478,1.08652 2.54783,0.35157 1.807,-0.68702 3.47892,-0.57457 5.75,0.38674 5.07613,2.14863 7.21591,5.2118 7.10775,10.17495 -0.2514,11.53516 -10.02707,13.62231 -17.13346,3.65808 -1.45196,-2.03587 -3.90259,-4.74451 -5.44583,-6.0192 l -2.8059,-2.31761 -2.44998,2.81761 -2.44997,2.81762 2.76146,1.34698 c 1.51881,0.74083 4.52921,4.00249 6.68978,7.24811 2.66976,4.01052 4.88946,6.20026 6.92832,6.83477 3.82376,1.19001 10.14493,0.36309 13.9966,-1.831 z m 18.03719,-14.67743 c 4.40259,-1.83952 12.21852,-10.78786 13.46459,-15.41541 1.63956,-6.08887 0.9759,-12.78164 -1.62171,-16.35424 -1.2604,-1.73348 -3.0384,-4.50178 -3.95112,-6.15178 -2.48348,-4.48959 -5.54657,-7.5 -7.63125,-7.5 -2.1022,0 -3.29879,2.24294 -2.4193,4.53485 0.52279,1.36236 0.87547,1.34714 3.1382,-0.13545 3.24844,-2.12847 4.71765,-0.81979 1.76617,1.57319 l -2.22063,1.80043 4.97063,4.97063 c 4.74862,4.74863 4.96905,5.2115 4.93519,10.36349 -0.0195,2.96607 -0.58198,6.33246 -1.25,7.48086 -3.99894,6.87474 -12.12922,13.23433 -15.34267,12.00121 -1.6848,-0.64651 -2.85682,1.7047 -1.9838,3.97974 0.63243,1.6481 1.87316,1.47332 8.1457,-1.14752 z m -19.53379,0.51283 c 0,-0.58616 -0.48697,-1.97566 -1.08217,-3.08779 -0.84053,-1.57055 -1.6766,-1.87285 -3.7444,-1.35386 -3.98986,1.00139 -5.44106,2.48 -4.06332,4.14007 1.33183,1.60475 8.88989,1.86115 8.88989,0.30158 z m -29.01448,-2.42115 c 2.63881,-2.3881 4.77286,-8.13372 6.42413,-17.29604 1.6353,-9.07372 3.98411,-13.05298 9.24148,-15.65656 3.87468,-1.91883 9.35423,-2.00294 13.64661,-0.20947 3.53677,1.47776 9.70226,7.89725 9.70226,10.10197 0,0.76088 0.25432,2.04617 0.56516,2.85619 0.31834,0.82959 -0.73126,2.94932 -2.40335,4.85373 -2.52375,2.87439 -2.77919,3.63985 -1.70492,5.10901 1.97415,2.6998 3.85126,2.07136 7.32911,-2.45372 5.28675,-6.87867 4.49497,-16.27438 -2.02263,-24.00169 -2.92147,-3.46371 -14.27063,-8.81472 -18.69765,-8.81574 -4.59025,-10e-4 -11.30475,3.36848 -14.922,7.4883 -3.01628,3.43536 -5.14372,10.51195 -5.14372,17.10979 0,5.94456 -4.85758,12.40112 -9.32996,12.40112 -4.33629,0 -9.63238,-9.02959 -8.33289,-14.20718 0.32923,-1.31174 2.84335,-5.182 5.58694,-8.60059 9.64562,-12.01866 9.41784,-21.46097 -0.63164,-26.18478 -5.26758,-2.47606 -7.32027,-2.32377 -21.55169,1.59898 -5.50446,1.51725 -7.12629,1.63389 -8.73643,0.62834 -2.91973,-1.8234 -3.55684,-1.50277 -1.50941,0.75962 3.71225,4.10198 9.90433,4.28597 21.78499,0.64728 5.86139,-1.79516 10.99499,-0.67794 13.34166,2.90353 2.65289,4.04882 1.07728,8.48198 -5.65486,15.91063 -4.16474,4.59563 -5.96671,7.39285 -5.96671,9.2622 0,5.05866 2.23328,19.78352 3.36628,22.19512 2.63869,5.61648 11.20845,7.59166 15.61924,3.59996 z m 17.01448,-0.51311 c 1.76633,-1.65 4.10142,-3 5.18909,-3 3.02463,0 1.5717,-2.45139 -1.67857,-2.83209 -5.35199,-0.62687 -11.0097,4.32076 -8.45747,7.39601 1.5209,1.83257 1.20361,1.93288 4.94695,-1.56392 z m -73.18664,-2.82701 c 0.29914,-3.02898 0.15163,-3.17299 -3.25,-3.17299 -4.13043,0 -4.59102,1.51982 -1.4744,4.86512 2.68809,2.88531 4.33043,2.29708 4.7244,-1.69213 z m 15.18461,-1.67194 c 8.53455,-4.41339 11.11644,-15.11331 5.61071,-23.25201 -3.86301,-5.71039 -7.40359,-7.68662 -18.36944,-10.25322 -6.4656,-1.51329 -9.55934,-2.72541 -10.25,-4.01592 -1.35594,-2.5336 -1.37738,-2.46824 2.11435,-6.4451 2.40872,-2.74338 3.86403,-3.5348 6.5,-3.5348 1.86803,0 3.39641,0.45 3.39641,1 0,0.55 0.45,1 1,1 2.03089,0 0.91123,-1.99454 -1.95034,-3.47432 -4.45759,-2.30511 -7.83454,-1.89465 -11.07537,1.34619 -7.71166,7.71165 -3.49002,15.02636 11.37713,19.71282 6.90562,2.1768 13.24374,7.29562 14.15162,11.42917 0.80723,3.67527 -1.814,12.05259 -4.54434,14.52352 -1.86577,1.6885 -2.58771,3.46262 -1.40904,3.46262 0.30231,0 1.85405,-0.67453 3.44831,-1.49895 z m -55.59986,-9.48026 c 1.47916,-1.93644 4.49387,-5.77079 6.69936,-8.52079 8.34834,-10.40943 10.19107,-17.41743 5.81503,-22.11479 -2.25309,-2.41854 -2.82667,-2.5479 -8.68065,-1.95772 -8.87486,0.89473 -11.24778,2.16641 -11.16417,5.98303 0.0646,2.94849 0.1172,2.9868 1.15281,0.83948 0.59683,-1.2375 1.46637,-2.25 1.93232,-2.25 1.17196,0 1.06516,1.74725 -0.15281,2.5 -0.55,0.33992 -1,1.71648 -1,3.05902 0,1.34254 -0.45,2.44098 -1,2.44098 -0.55,0 -1,1.36641 -1,3.03646 l 0,3.03645 6.11455,-5.08857 c 3.363,-2.79872 6.35825,-4.84487 6.65612,-4.547 0.29787,0.29787 -2.45367,3.28619 -6.11454,6.64071 -6.31908,5.79029 -8.1741,8.86718 -5.40613,8.96705 0.6875,0.0248 2.6,0.70295 4.25,1.50699 l 3,1.46187 -4.25,-0.5188 -4.25,-0.5188 0,6.55851 0,6.5585 2.35436,-1.7759 c 1.2949,-0.97674 3.56459,-3.36025 5.04375,-5.29668 z m -2.39811,-11.02079 c 0,-1.26441 2.04347,-1.26441 4,0 1.16888,0.75538 0.89294,0.97275 -1.25,0.98469 -1.5125,0.008 -2.75,-0.43469 -2.75,-0.98469 z m 4.5,-4 c -0.33992,-0.55 -0.16803,-1 0.38197,-1 0.55,0 1.27811,0.45 1.61803,1 0.33992,0.55 0.16803,1 -0.38197,1 -0.55,0 -1.27811,-0.45 -1.61803,-1 z m -5.47776,-8.55 c -0.0223,-2.05895 1.68512,-4.45 3.17776,-4.45 1.28973,0 0.89212,1.32538 -1.2,4 -1.82865,2.3378 -1.95697,2.36699 -1.97776,0.45 z m 5.97776,-4.6767 c 0,-1.82294 1.77282,-3.33381 2.75701,-2.34963 0.34317,0.34317 -0.13677,1.38466 -1.06653,2.31443 -1.55895,1.55894 -1.69048,1.56168 -1.69048,0.0352 z m 169.42857,19.65527 c 0.86429,-0.86428 1.57143,-2.28403 1.57143,-3.15499 0,-1.4187 -0.19038,-1.41127 -1.82874,0.0714 -2.51613,2.27707 -5.8945,2.10235 -6.67126,-0.34501 -0.92501,-2.91445 0.3203,-6.00398 4.13268,-10.25288 3.89656,-4.34272 4.20651,-7.30181 1.41005,-13.46183 -2.41421,-5.31802 -5.43275,-6.25932 -12.23186,-3.81439 -4.72229,1.69811 -4.97068,1.69445 -6.95617,-0.1024 -1.65663,-1.49922 -1.96433,-2.70354 -1.57447,-6.16236 0.42039,-3.72971 1.36085,-5.1373 7.10216,-10.62986 6.3987,-6.12147 6.61688,-6.49209 6.59565,-11.20359 -0.0238,-5.28734 -2.55845,-11.86298 -5.62079,-14.58219 -3.43289,-3.0482 -13.2441,-6.79047 -17.80286,-6.79047 -8.5916,0 -16.9368,5.55586 -19.55455,13.01855 -1.0592,3.01956 -0.93398,4.5886 0.88296,11.06379 2.36676,8.43462 2.62129,12.45701 1.05059,16.60256 -2.64213,6.97334 -10.02214,10.55834 -16.31904,7.92732 -5.02027,-2.0976 -6.87429,-5.47786 -6.45897,-11.77602 0.32842,-4.98032 0.18485,-5.33443 -3.05326,-7.53112 -4.02493,-2.73045 -7.32307,-2.94127 -9.64767,-0.61667 -2.39529,2.39529 -1.34637,11.12552 1.62941,13.56159 2.62164,2.14616 4.51571,2.23588 5.27777,0.25 0.91779,-2.39173 2.33975,-1.7431 2.95826,1.34943 0.31343,1.56718 1.53536,4.48579 2.71539,6.48579 7.18666,12.18049 29.96472,1.66785 29.96472,-13.82945 0,-2.07635 -0.52505,-6.6247 -1.16677,-10.10745 -1.03188,-5.60023 -0.95265,-6.80708 0.68535,-10.43953 2.05786,-4.5635 6.28409,-7.2701 13.13192,-8.41004 8.22554,-1.36929 15.43306,4.83459 15.27921,13.15159 -0.10619,5.74092 -1.10144,7.37605 -7.52758,12.36735 -9.44214,7.33388 -12.36417,13.39769 -9.25531,19.20665 3.25788,6.0874 9.89558,7.41993 16.06799,3.22566 4.97468,-3.38038 7.38452,-3.19636 9.82173,0.75 2.39054,3.87081 1.9005,7.34303 -1.46142,10.35504 -4.99778,4.4776 -5.67236,7.99185 -2.38706,12.43545 2.4754,3.34817 6.6529,3.9757 9.24051,1.38808 z m -84.09274,-41.99579 c -0.83346,-2.17196 1.28244,-4.21451 2.79695,-2.7 1.28004,1.28004 0.48705,4.26722 -1.13278,4.26722 -0.58452,0 -1.3334,-0.70525 -1.66417,-1.56722 z m 5.66417,-5.93278 c 0,-0.825 0.675,-1.5 1.5,-1.5 0.825,0 1.5,0.675 1.5,1.5 0,0.825 -0.675,1.5 -1.5,1.5 -0.825,0 -1.5,-0.675 -1.5,-1.5 z m 82.24475,38 c 0.26285,-1.375 0.0903,-2.5 -0.38342,-2.5 -0.47373,0 -0.86133,1.125 -0.86133,2.5 0,1.375 0.17254,2.5 0.38342,2.5 0.21089,0 0.59848,-1.125 0.86133,-2.5 z M 314.0505,401.81888 c 1.18317,-1.49298 2.96182,-3.87039 3.95256,-5.28313 1.30486,-1.86067 2.40732,-2.42171 4,-2.03559 1.20926,0.29317 4.52357,0.68793 7.36513,0.87726 4.58725,0.30564 5.68679,0.85719 9.80756,4.91967 2.77795,2.73865 5.22015,4.35323 6.08353,4.02192 0.79334,-0.30444 1.44244,-0.0288 1.44244,0.61249 0,0.6413 0.50779,0.85217 1.12842,0.4686 0.76656,-0.47376 0.58844,-0.99958 -0.55545,-1.63974 -1.32538,-0.74171 -1.4331,-1.24449 -0.50598,-2.36161 1.31624,-1.58597 -0.11463,-1.97164 -1.64332,-0.44295 -0.63512,0.63512 -2.49215,-0.40925 -5.3135,-2.98822 -3.97529,-3.63377 -4.2822,-4.25757 -3.67836,-7.47634 0.36235,-1.93147 0.3955,-3.51177 0.0737,-3.51177 -1.17093,0 -8.38669,3.99879 -8.99664,4.98571 -2.99704,4.84931 -3.50527,-8.4953 -0.58317,-15.31228 l 1.92566,-4.49238 -2.94591,-1.22023 c -3.019,-1.25051 -7.90541,-6.29152 -7.90541,-8.15553 0,-0.57269 -1.35,-2.57882 -3,-4.45807 -1.65,-1.87925 -3,-4.30115 -3,-5.38202 0,-1.08086 -0.45,-1.9652 -1,-1.9652 -0.55,0 -1,0.64468 -1,1.43261 0,0.78794 -0.9,1.71826 -2,2.06739 -2.6136,0.82952 -2.57593,2.5 0.0564,2.5 2.18797,0 7.18732,4.80232 9.45303,9.08045 0.93155,1.75898 1.33998,6.04214 1.28296,13.45443 l -0.0836,10.87397 -4.42701,7.29188 c -3.84284,6.32969 -4.67331,7.16005 -6.29366,6.29287 -1.24481,-0.6662 -2.07311,-0.66497 -2.48637,0.004 -0.34084,0.55148 0.13,1.0027 1.0463,1.0027 1.10098,0 1.46228,0.5309 1.06531,1.56539 -0.46113,1.20169 -0.13747,1.41837 1.39301,0.93261 1.27924,-0.40601 2.04251,-0.16067 2.12989,0.68461 0.0749,0.72457 0.34435,0.20452 0.59878,-1.15564 0.25443,-1.36017 1.43065,-3.69457 2.61382,-5.18756 z m 20.58455,-16.57642 c 0.23834,-0.16298 -0.0992,-0.82882 -0.75,-1.47966 -1.94481,-1.94481 -1.35185,-4.44289 1.49779,-6.31005 2.63951,-1.72947 2.71491,-1.71437 4.85788,0.97317 2.44974,3.07227 7.17589,3.36695 6.69329,0.41733 -0.14724,-0.89992 0.44379,-1.90924 1.31339,-2.24293 2.23117,-0.85619 0.81404,-2.62085 -2.1047,-2.62085 -2.89843,0 -3.03745,-0.66818 -0.69098,-3.321 1.70517,-1.92779 1.67622,-1.9605 -1.13016,-1.27702 -2.55831,0.62307 -2.8202,0.47219 -2.34362,-1.35026 0.77713,-2.97172 -0.82314,-2.54018 -6.10792,1.64712 -5.96973,4.73001 -7.15568,6.17047 -6.49586,7.88993 0.29429,0.7669 -0.18662,1.67131 -1.06869,2.00979 -1.13365,0.43502 -1.60375,1.89838 -1.60375,4.99225 l 0,4.37683 3.75,-1.70416 c 2.0625,-0.93729 3.945,-1.83751 4.18333,-2.00049 z m 5.28126,-3.2118 c -1.36158,-2.37243 -1.85659,-2.65539 -2.53248,-1.44764 -0.95454,1.70568 0.81657,4.39645 2.89382,4.39645 1.02637,0 0.94366,-0.67498 -0.36134,-2.94881 z m -4.43139,-14.61189 c 3.56688,-2.49834 5.53628,-7.37578 5.47985,-13.57142 -0.0502,-5.51509 0.0375,-5.69472 4.22202,-8.64425 8.65319,-6.09933 14.20192,-18.2722 8.68518,-19.05363 -2.98664,-0.42305 -8.73625,5.64213 -12.61394,13.30625 -1.53712,3.03806 -3.21346,5.52375 -3.7252,5.52375 -0.51174,0 -2.30357,-0.71008 -3.98185,-1.57795 l -3.05142,-1.57795 2.03489,-2.17205 c 2.39001,-2.5511 7.14341,-12.4234 7.1575,-14.86535 0.0115,-1.98607 -3.68867,-4.85965 -5.40795,-4.1999 -2.45678,0.94275 -4.69469,6.60258 -5.89312,14.90409 -1.08642,7.5256 -1.54286,8.72908 -3.71391,9.79249 -1.36139,0.66682 -3.31049,2.91871 -4.33134,5.00419 -2.24611,4.58854 -1.5984,11.20927 1.47939,15.12205 2.31219,2.93948 4.48083,3.51061 2.73889,0.72131 -1.73829,-2.78344 -0.29731,-7.12837 2.40686,-7.25731 2.04032,-0.0973 1.99655,-0.19903 -0.51216,-1.19062 -3.4156,-1.35004 -4.27506,-3.84701 -2.5598,-7.43691 1.62833,-3.40795 5.02624,-4.04276 7.64142,-1.42758 1.29796,1.29796 2.29728,1.6257 2.95413,0.96885 1.34415,-1.34415 4.8884,0.61232 5.69116,3.1416 0.73796,2.32511 -1.927,7.90015 -4.19184,8.76925 -0.99681,0.38251 -2.30124,-0.24639 -3.44772,-1.66224 -1.64616,-2.03292 -1.8426,-2.07768 -1.82893,-0.41675 0.008,1.02343 0.4188,2.49822 0.91194,3.27731 0.52448,0.8286 0.5284,2.38502 0.009,3.75 -1.06692,2.8062 0.4953,3.12005 3.84652,0.77277 z m 6.2168,-23.93509 c 0,-1.20371 5.85117,-10.1358 7.57909,-11.56985 4.63324,-3.84525 0.0554,3.76181 -7.21079,11.98231 -0.20257,0.22916 -0.3683,0.0436 -0.3683,-0.41246 z m -10.89609,-10.16435 c 2.20284,-6.00272 3.47587,-8.09341 4.3785,-7.19079 0.77806,0.77806 -4.10242,12.22427 -5.3961,12.65549 -0.6575,0.21917 -0.23438,-2.05309 1.0176,-5.4647 z m 6.70945,21.90195 c 0.37268,-3.85549 -1.92529,-4.50646 -3.50119,-0.99181 -1.28575,2.86755 -0.58168,4.94698 1.5391,4.54563 1.04284,-0.19735 1.76389,-1.50333 1.96209,-3.55382 z m -2.81336,0.75819 c 0,-0.55 0.45,-1 1,-1 0.55,0 1,0.45 1,1 0,0.55 -0.45,1 -1,1 -0.55,0 -1,-0.45 -1,-1 z m -4.62966,-3.22248 c 0.76427,-1.21363 0.77148,-2.0357 0.0244,-2.78278 -1.30973,-1.30973 -4.03967,-0.36241 -4.82067,1.67282 -1.34321,3.50035 2.7015,4.43639 4.79627,1.10996 z m -3.37034,-0.77752 c 0,-0.55 0.45,-1 1,-1 0.55,0 1,0.45 1,1 0,0.55 -0.45,1 -1,1 -0.55,0 -1,-0.45 -1,-1 z M 458.4894,341.4958 c 0.24921,-8.45433 0.0821,-9.67613 -1.25,-9.13778 -4.44198,1.79521 -4.77596,1.55747 -1.78768,-1.27251 1.7875,-1.69282 3.25,-3.75919 3.25,-4.59194 0,-1.70967 -1.56251,-2.03099 -2.5,-0.5141 -0.33992,0.55 -1.12567,1 -1.74611,1 -0.62044,0 0.0811,-1.26212 1.55902,-2.80472 1.92534,-2.00962 2.68709,-3.85227 2.68709,-6.5 0,-3.22745 -0.30195,-3.69528 -2.38499,-3.69528 -1.377,0 -3.01445,0.96067 -3.87434,2.27303 -2.13703,3.26152 -5.75415,17.91651 -5.66459,22.95047 0.15845,8.90715 4.34054,14.66453 9.3185,12.82857 1.91433,-0.70604 2.13153,-1.66226 2.3931,-10.53574 z m -4.78768,-0.30786 c 0,-1.04177 2.16097,-3.20847 3.2,-3.20847 1.4734,0 0.82042,1.50615 -1.2,2.76793 -1.1,0.68696 -2,0.88521 -2,0.44054 z m -40.15163,5.35452 c 12.1156,-5.03345 19.50301,-9.67132 29.04126,-18.2323 4.32444,-3.88137 9.69877,-13.40896 8.33372,-14.774 -0.30617,-0.30618 -4.32081,-0.55669 -8.9214,-0.55669 -6.40651,0 -8.49572,0.34139 -8.92432,1.4583 -0.30778,0.80207 -2.51996,2.60714 -4.91594,4.01129 -2.39599,1.40414 -8.09255,5.60419 -12.65902,9.33344 -8.84669,7.22473 -10.80267,8.6331 -10.80267,7.77829 0,-0.83181 17.71197,-15.37441 22.09476,-18.14114 4.96568,-3.13469 4.94704,-4.44018 -0.0634,-4.44018 -3.11681,0 -3.84507,0.32195 -3.39301,1.5 0.73211,1.90785 -0.69808,1.92207 -3.19724,0.0318 -1.06762,-0.8075 -3.96613,-1.4786 -6.44113,-1.49132 -3.83611,-0.0197 -5.07688,0.52354 -8.4102,3.68231 -5.14751,4.87797 -10.97005,13.99205 -12.55477,19.65211 -1.1365,4.05918 -1.06835,4.88447 0.64668,7.83122 1.7879,3.07197 6.33248,5.58975 10.35602,5.73744 0.84575,0.031 5.26053,-1.49021 9.81064,-3.38057 z m 4.8183,-13.22966 c -1.04686,-1.04685 -0.77896,-5.33333 0.33333,-5.33333 0.55,0 1,1.35 1,3 0,3.10687 -0.20356,3.4631 -1.33333,2.33333 z m 5.16308,-3.32139 c -0.21827,-2.28879 -0.10169,-4.34387 0.25908,-4.56684 1.01589,-0.62785 1.97051,6.89556 0.9983,7.86776 -0.4807,0.48071 -1.03569,-0.97627 -1.25738,-3.30092 z m 5.92025,-1.58267 c -0.4125,-0.41943 -0.73632,-2.3751 -0.71959,-4.34594 0.0251,-2.95201 0.2125,-3.27052 1.06396,-1.80783 1.14579,1.96831 0.84395,7.36207 -0.34437,6.15377 z m -24.75,-4.42927 c 0,-1.19837 3.71124,-1.19837 6.5,0 1.54896,0.66561 1.04154,0.87528 -2.25,0.92971 -2.3375,0.0387 -4.25,-0.37971 -4.25,-0.92971 z m 30.75133,-2.75 c -0.43976,-3.52762 -0.2085,-5.11474 0.60713,-4.16667 0.83928,0.97557 1.44256,7.91667 0.68808,7.91667 -0.45525,0 -1.0381,-1.6875 -1.29521,-3.75 z m -19.63794,-2.68931 c -1.31097,-0.70162 -1.93909,-1.55038 -1.39581,-1.88614 1.07239,-0.66278 5.0992,1.842 4.27934,2.66186 -0.27496,0.27497 -1.57255,-0.0741 -2.88353,-0.77572 z m -30.4121,25.78747 c 2.19398,-1.62813 3.90825,-4.31455 5.44806,-8.53762 2.40311,-6.59075 7.19133,-14.28428 12.17389,-19.56054 l 3.06909,-3.25 -6.68362,0 -6.68362,0 -2.68601,4.25 c -1.4773,2.3375 -4.60175,8.3 -6.94322,13.25 -2.34147,4.95 -4.28841,8.23109 -4.32654,7.29131 -0.0381,-0.93977 2.18068,-6.51497 4.93068,-12.38931 2.75,-5.87435 5,-11.06794 5,-11.54132 0,-0.47337 -3.36585,-0.86068 -7.47968,-0.86068 l -7.47967,0 -2.211,4.25 c -3.03057,5.8254 -3.86483,21.8475 -1.38707,26.63897 2.88855,5.58584 8.13743,5.74379 15.25871,0.45919 z m 2.33389,-16.28242 c -1.30461,-2.4377 -1.31916,-3.35928 -0.0406,-2.56906 1.60603,0.99255 3.22427,4.50332 2.07579,4.50332 -0.55,0 -1.46584,-0.87042 -2.03519,-1.93426 z m -10.19388,-2.06574 c 4.43662,-3.21387 5.1587,-3.50764 5.1587,-2.09878 0,1.02811 -6.55232,5.09878 -8.2072,5.09878 -0.60108,0 0.77074,-1.35 3.0485,-3 z m 14.3587,-2.2 c -1.39173,-1.39173 -1.61656,-4.8 -0.31663,-4.8 0.48585,0 1.16114,0.7875 1.50064,1.75 0.3395,0.9625 0.87949,2.3125 1.19997,3 0.74201,1.59178 -0.80966,1.62432 -2.38398,0.05 z m -16.65,-1.70576 c 1.0673,-1.0176 8.25383,-5.09424 8.98042,-5.09424 1.82376,0 -0.26859,1.9601 -4.05717,3.80073 -4.80966,2.33672 -6.47682,2.77474 -4.92325,1.29351 z m 20.4779,-4.56062 c -0.66934,-0.80651 -1.04146,-1.99295 -0.82692,-2.63655 0.21453,-0.6436 1.16745,0.0163 2.11759,1.46638 1.81528,2.77046 0.8008,3.69023 -1.29067,1.17017 z"
       id="path4287"
       inkscape:connector-curvature="0" />
  </g>
</svg>
