<?xml version="1.0" encoding="UTF-8" standalone="no"?>
<!-- Created with Inkscape (http://www.inkscape.org/) -->

<svg
   xmlns:dc="http://purl.org/dc/elements/1.1/"
   xmlns:cc="http://creativecommons.org/ns#"
   xmlns:rdf="http://www.w3.org/1999/02/22-rdf-syntax-ns#"
   xmlns:svg="http://www.w3.org/2000/svg"
   xmlns="http://www.w3.org/2000/svg"
   xmlns:sodipodi="http://sodipodi.sourceforge.net/DTD/sodipodi-0.dtd"
   xmlns:inkscape="http://www.inkscape.org/namespaces/inkscape"
   width="55.038631mm"
   height="55.033333mm"
   viewBox="0 0 195.01877 195"
   id="svg2"
   version="1.1"
   inkscape:version="0.91 r13725"
   sodipodi:docname="smiling_girl.svg">
  <defs
     id="defs4" />
  <sodipodi:namedview
     id="base"
     pagecolor="#ffffff"
     bordercolor="#666666"
     borderopacity="1.0"
     inkscape:pageopacity="0.0"
     inkscape:pageshadow="2"
     inkscape:zoom="1.4"
     inkscape:cx="23.776025"
     inkscape:cy="27.165765"
     inkscape:document-units="px"
     inkscape:current-layer="layer1"
     showgrid="false"
     fit-margin-top="0"
     fit-margin-left="0"
     fit-margin-right="0"
     fit-margin-bottom="0"
     inkscape:window-width="1366"
     inkscape:window-height="744"
     inkscape:window-x="0"
     inkscape:window-y="24"
     inkscape:window-maximized="1" />
  <metadata
     id="metadata7">
    <rdf:RDF>
      <cc:Work
         rdf:about="">
        <dc:format>image/svg+xml</dc:format>
        <dc:type
           rdf:resource="http://purl.org/dc/dcmitype/StillImage" />
        <dc:title></dc:title>
      </cc:Work>
    </rdf:RDF>
  </metadata>
  <g
     inkscape:label="Layer 1"
     inkscape:groupmode="layer"
     id="layer1"
     transform="translate(-256.5638,-285.87491)">
    <path
       style="fill:#000000"
       d="m 258.65702,473.37491 c -0.0219,-4.125 -0.22615,-19.875 -0.45386,-35 -0.22771,-15.125 -0.68972,-55.625 -1.02669,-90 l -0.61267,-62.5 96.27641,0.16184 96.2764,0.16184 0.22537,9.33816 c 0.12395,5.13599 0.48066,31.16316 0.7927,57.83816 0.31203,26.675 0.85995,66.1625 1.2176,87.75 0.38367,23.15856 0.28018,39.2536 -0.25245,39.25878 -0.4965,0.005 -43.99027,0.11733 -96.65284,0.25 l -95.75012,0.24122 -0.0399,-7.5 z m 22.54009,5.03316 c 4.29026,-0.12423 5.43009,-0.41417 4,-1.0175 -1.1,-0.46408 -3.63098,-0.60897 -5.62441,-0.32199 -2.12728,0.30625 -3.90719,0.0642 -4.30901,-0.58595 -0.47202,-0.76374 1.19688,-1.10772 5.3744,-1.10772 3.37268,0 6.05902,-0.44336 6.05902,-1 0,-0.57847 -3.18634,-1 -7.55902,-1 -4.65499,0 -7.32754,-0.37454 -6.95649,-0.97491 0.33896,-0.54844 2.52093,-0.71196 4.98811,-0.37379 5.40043,0.74021 9.5274,-0.19992 9.5274,-2.17035 0,-1.23456 -2.23879,-1.48095 -13.45663,-1.48095 l -13.45663,0 0.47701,4.62847 c 0.26236,2.54566 0.65067,4.90816 0.86291,5.25 0.35712,0.57517 4.45954,0.60678 20.07334,0.15469 z m 16.5,-14.62552 c -0.89949,-26.81867 -0.45616,-76.55152 0.83713,-93.90764 2.98098,-40.00532 6.84873,-58.24278 16.26735,-76.7048 3.88321,-7.61173 1.59606,-7.92993 -3.35884,-0.46731 -12.2457,18.44336 -15.80803,33.19215 -18.76041,77.67211 -0.86093,12.97065 -1.2484,83.69077 -0.51228,93.5 0.12382,1.65 0.29306,5.5545 0.37609,8.67668 0.11938,4.48922 0.51703,5.77103 1.90096,6.12777 3.60777,0.92998 3.75777,0.24246 3.25,-14.89681 z m 6.34627,11.56735 c -0.5697,-12.87833 -0.23009,-36.72699 0.60575,-42.53659 1.47792,-10.27254 4.52121,-26.19805 7.91868,-41.4384 1.65523,-7.425 3.74078,-19.125 4.63455,-26 4.87181,-37.47426 11.09832,-52.12014 26.30742,-61.87979 8.81226,-5.65481 26.51043,-8.14956 34.25153,-4.82814 8.42268,3.61387 15.7039,12.92419 18.50981,23.66803 2.48305,9.50756 1.66673,19.67035 -3.09568,38.5399 -1.98614,7.86947 -2.97629,31.13649 -1.70223,40 0.55341,3.85 1.74406,9.52542 2.6459,12.61204 1.47347,5.04309 2.06506,5.80344 5.83545,7.5 7.51654,3.38222 15.58864,9.19826 18.16083,13.0851 4.07215,6.15344 6.35688,14.37076 8.07291,29.03516 1.8443,15.76064 2.1401,17.03641 3.60942,15.56709 2.51515,-2.51515 -4.84066,-112.85664 -9.05294,-135.79939 -0.5049,-2.75 -1.21127,-7.7 -1.56971,-11 -0.35844,-3.3 -1.23007,-8.5119 -1.93695,-11.58199 -1.89558,-8.23275 -9.58928,-28.07269 -11.8927,-30.66801 l -1.99694,-2.25 -41.3115,0 -41.31149,0 -2.47597,3.75 c -4.21236,6.37988 -11.13925,24.32703 -12.83317,33.25 -5.91804,31.17406 -8.60048,84.27845 -6.49088,128.5 1.15594,24.23085 1.49377,26.70298 3.59188,26.28479 1.22496,-0.24416 1.63814,-1.27567 1.52603,-3.8098 z m 7.94718,3.39823 c 0.34473,-0.34474 -0.0303,-1.89739 -0.83333,-3.45034 -0.80307,-1.55296 -1.46012,-4.04065 -1.46012,-5.52821 0,-2.64752 -0.0425,-2.66615 -2.01388,-0.88211 -1.60131,1.44917 -1.8817,2.55645 -1.36866,5.40499 0.35487,1.97035 0.83767,3.91995 1.0729,4.33245 0.5184,0.9091 3.7312,0.9951 4.60309,0.12322 z m 11.32793,-0.39108 c 1.60591,-0.55982 3.51472,-1.97043 4.24181,-3.13468 1.17589,-1.8829 1.02274,-2.40585 -1.38586,-4.73215 -1.86069,-1.7971 -2.85615,-2.21866 -3.18187,-1.34745 -0.84688,2.26509 -3.32017,4.15989 -4.72586,3.62048 -1.76564,-0.67755 -2.6086,-3.94335 -1.91412,-7.41575 0.71459,-3.57294 -1.09612,-4.60927 -3.08706,-1.76681 -1.88041,2.68466 -2.05832,8.80651 -0.31842,10.95679 1.36015,1.68096 5.81241,4.83743 6.82328,4.83743 0.34555,0 1.9422,-0.45804 3.5481,-1.01786 z m 11.37862,-1.98214 c 0,-2.33333 -0.44444,-3 -2,-3 -1.55556,0 -2,0.66667 -2,3 0,2.33333 0.44444,3 2,3 1.55556,0 2,-0.66667 2,-3 z m 14,2.61501 c 0,-0.21174 -1.125,-1.12212 -2.5,-2.02305 -2.38263,-1.56116 -2.5,-1.54309 -2.5,0.38499 0,1.49125 0.65717,2.02305 2.5,2.02305 1.375,0 2.5,-0.17325 2.5,-0.38499 z m 13,-1.17403 c 0,-0.85746 -0.45,-1.2809 -1,-0.94098 -0.55,0.33992 -1,1.04148 -1,1.55902 0,0.51754 0.45,0.94098 1,0.94098 0.55,0 1,-0.70156 1,-1.55902 z m 11.55887,0.0272 c -2.4734,-1.87077 -3.55887,-1.86107 -3.55887,0.0318 0,0.97741 0.95809,1.48892 2.75,1.4682 2.63406,-0.0305 2.66816,-0.0937 0.80887,-1.5 z m 26.93703,0.2818 c 0.23823,-0.6875 0.5616,-2.6 0.71862,-4.25 0.26642,-2.79967 0.0378,-3.02057 -3.42441,-3.30797 -2.6556,-0.22046 -4.419,-1.15071 -6.20515,-3.27343 l -2.49526,-2.96545 -1.13155,4.27343 c -0.62235,2.35038 -2.25411,5.46123 -3.62614,6.91299 -3.12231,3.30376 -2.33745,3.67712 7.94937,3.78148 5.38708,0.0547 7.91466,-0.30567 8.21452,-1.17105 z m 14.5041,0.34364 c 0,-0.49851 -0.84362,-0.68577 -1.87472,-0.41613 -1.03109,0.26964 -3.73109,-0.40666 -6,-1.50287 l -4.12528,-1.99312 0,2.40925 c 0,2.27797 0.32693,2.40925 6,2.40925 3.3,0 6,-0.40787 6,-0.90638 z m 10.9922,-1.84362 c -0.006,-1.99948 -0.73631,-3.08829 -2.67715,-3.98952 -1.46814,-0.68173 -2.70693,-1.13173 -2.75286,-1 -0.0459,0.13174 -0.87706,1.18694 -1.84696,2.3449 -2.65602,3.17102 -1.25797,5.39462 3.39176,5.39462 3.58214,0 3.89239,-0.21959 3.88521,-2.75 z m -135.56138,-42.5 c -0.45439,-38.7032 -0.2677,-47.25843 1.48937,-68.25 3.63544,-43.43233 6.33488,-55.05206 16.47035,-70.89634 1.9852,-3.10337 3.59073,-6.19626 3.56783,-6.87308 -0.0801,-2.36889 -7.01511,6.6956 -10.10066,13.20225 -7.43539,15.67939 -9.42453,24.11052 -12.33641,52.28873 -2.36188,22.85589 -1.86259,124.77844 0.61126,124.77844 0.44977,0 0.58399,-19.9125 0.29826,-44.25 z m 144.26352,5.5 c -0.88434,-56.23631 -3.71555,-98.07943 -7.7981,-115.25 -2.28779,-9.62212 -3.45615,-12.91898 -8.22952,-23.22195 -1.85456,-4.00293 -3.87861,-8.51555 -4.49789,-10.02805 -0.80872,-1.9752 -1.83636,-2.75 -3.64739,-2.75 -3.01989,0 -3.03039,0.0795 -0.63356,4.78984 5.01512,9.85595 10.25057,28.37745 11.5075,40.71016 0.28027,2.75 1.19675,9.725 2.03662,15.5 2.8399,19.5275 5.55841,53.3354 7.15654,89 1.714,38.2506 1.87067,40 3.58237,40 0.83473,0 0.97246,-10.1962 0.52343,-38.75 z m 4.78816,9.5 c -0.19309,-16.0875 -0.58875,-35.1 -0.87925,-42.25 -0.2905,-7.15 -0.80849,-20.2 -1.15108,-29 -1.02096,-26.22495 -2.66658,-39.83812 -7.05132,-58.33131 -2.51899,-10.62413 -4.6181,-15.57028 -10.94062,-25.77942 -4.67831,-7.55419 -3.92099,-3.44934 1.47338,7.98613 10.64589,22.56807 13.577,49.41268 15.65479,143.3746 0.56638,25.61267 1.02352,33.25 1.99021,33.25 0.986,0 1.17971,-6.26865 0.90389,-29.25 z m 10.5175,21.25 0,-8 -2.91821,0 c -4.62533,0 -6.08179,0.96451 -6.08179,4.02753 0,2.3149 0.53325,2.93068 3.00873,3.47439 3.60003,0.7907 3.14218,2.44075 -0.48486,1.74739 -2.23715,-0.42765 -2.52387,-0.14734 -2.52387,2.46745 0,3.82029 0.55843,4.28324 5.16667,4.28324 l 3.83333,0 0,-8 z m -7,-3 c 0,-0.55 0.64844,-1 1.44098,-1 0.79254,0 1.7191,0.45 2.05902,1 0.33992,0.55 -0.30852,1 -1.44098,1 -1.13246,0 -2.05902,-0.45 -2.05902,-1 z m -84.14078,8.25 c 3.19497,-2.68707 5.27984,-7.37751 3.97702,-8.94732 -1.65371,-1.9926 -4.83624,-1.6143 -4.83624,0.57488 0,1.03265 -0.67275,2.43588 -1.49499,3.11829 -1.97063,1.63547 -6.50501,-1.16594 -6.50501,-4.0189 0,-1.53449 -0.67845,-1.97695 -3.03139,-1.97695 -3.68756,0 -4.64204,1.95998 -2.94713,6.05185 2.62377,6.33434 10.2924,9.02091 14.83774,5.19815 z m 21.52338,-0.20537 c 3.27823,-1.24637 5.35417,-4.52873 6.19467,-9.79463 0.65534,-4.10586 0.58803,-4.25 -1.98465,-4.25 -1.46464,0 -3.71222,-0.68748 -4.99462,-1.52774 -2.19075,-1.43544 -2.43326,-1.37263 -4.01376,1.03952 -0.92517,1.41199 -3.23511,3.30782 -5.13319,4.21295 -4.36831,2.08311 -4.34379,3.69715 0.12015,7.90719 3.74049,3.52774 5.64612,3.99635 9.8114,2.41271 z m 36.15563,-1.68038 c 3.31209,-3.57381 4.42913,-8.15681 3.36996,-13.82631 -1.07648,-5.76209 -1.53815,-6.53794 -3.89041,-6.53794 -1.60891,0 -1.84652,0.75432 -1.73521,5.50852 0.0925,3.94928 -0.34505,5.98253 -1.54567,7.18315 -1.56619,1.56619 -1.80112,1.56019 -3.62755,-0.0927 -1.88053,-1.70185 -2.01447,-1.67339 -3.61406,0.76788 -2.20261,3.36162 -1.12597,6.45253 2.85016,8.18242 4.45146,1.9367 5.43098,1.79502 8.19278,-1.18501 z m -77.09493,-4.58676 c 2.1679,-3.09511 1.94865,-5.06064 -0.85869,-7.69801 -1.32847,-1.24802 -2.69731,-3.39238 -3.04187,-4.76523 -0.43177,-1.7203 -1.1051,-2.31243 -2.1664,-1.90517 -0.84695,0.32501 -3.02803,0.59092 -4.84684,0.59092 -2.95315,0 -3.37352,0.35501 -3.92947,3.31848 -0.92055,4.90693 1.09302,9.64049 4.78431,11.24714 4.7013,2.04625 8.2695,1.76668 10.05896,-0.78813 z m 64.92446,-4.65525 c 1.32893,-2.28372 1.96557,-5.22334 1.96557,-9.07582 0,-6.98103 -0.71817,-8.44601 -3.4292,-6.99511 -1.59076,0.85135 -1.85269,1.70596 -1.34777,4.3974 1.18726,6.32865 -2.52579,9.36229 -7.33561,5.99336 -4.58783,-3.21344 -5.67307,0.96506 -1.62803,6.26838 2.22634,2.91888 3.10262,3.35615 6.2011,3.09439 2.88975,-0.24413 3.99983,-0.97754 5.57394,-3.6826 z m -94.387,-0.331 c 1.84724,-3.03754 1.85979,-3.30997 0.2353,-5.10541 -1.12149,-1.23951 -1.68248,-3.43446 -1.61913,-6.33509 0.0777,-3.55978 -0.21921,-4.37626 -1.5,-4.12438 -1.27384,0.25052 -1.60743,1.7262 -1.64881,7.29385 -0.0898,12.07911 1.00354,14.07417 4.53264,8.27103 z m -22.98076,1.32539 c 0,-1.00742 -3.43553,-2.08277 -6.71862,-2.10298 -1.55849,-0.01 -2.04735,-0.45995 -1.64301,-1.51365 0.46587,-1.21404 -0.40924,-1.5 -4.5904,-1.5 -2.8413,0 -4.91851,-0.40046 -4.61601,-0.8899 0.30249,-0.48945 4.49155,-0.65501 9.30901,-0.36792 9.23103,0.55012 11.03388,-0.33911 2.67956,-1.32165 -6.8239,-0.80255 -6.82993,-1.42053 -0.0139,-1.42053 4.92742,0 5.69263,-0.24773 5.40548,-1.75 -0.2704,-1.41458 -1.86571,-1.89203 -8.32333,-2.49104 -4.39385,-0.40757 -10.35131,-0.48769 -13.23881,-0.17804 l -5.25,0.56299 0,5.72805 c 0,3.15042 0.54,6.26804 1.2,6.92804 1.41719,1.41719 25.8,1.71643 25.8,0.31663 z m 84.91222,-3.86663 c 3.29874,-3.0816 5.10205,-9.02147 2.91742,-9.60961 -0.7313,-0.19688 -3.04921,-0.91223 -5.1509,-1.58967 -3.25386,-1.04882 -4.08027,-0.99731 -5.56562,0.34691 -0.95939,0.86824 -3.17733,1.86521 -4.92874,2.21549 -2.78803,0.55761 -3.18438,1.03767 -3.18438,3.85689 0,7.1542 10.11734,10.19342 15.91222,4.77999 z m -88.66222,0.0877 c -0.6875,-0.27741 -1.8125,-0.27741 -2.5,0 -0.6875,0.27741 -0.125,0.50439 1.25,0.50439 1.375,0 1.9375,-0.22698 1.25,-0.50439 z m 67.56144,-1.37668 c 1.20371,-1.12142 2.18856,-2.43462 2.18856,-2.91821 0,-0.48359 0.25754,-1.55041 0.57232,-2.3707 0.97647,-2.54463 -3.17534,-3.06911 -5.54409,-0.70036 -2.8152,2.8152 -6.02823,1.21251 -6.02823,-3.00695 0,-2.2423 -0.46132,-2.96482 -1.89301,-2.96482 -3.96915,0 -4.23952,7.20846 -0.4199,11.19528 3.26901,3.41211 7.93879,3.73357 11.12435,0.76576 z m -29.73587,-2.88277 c 1.81494,-1.81494 2.69231,-3.5196 2.31609,-4.5 -0.83072,-2.16482 -2.66009,-1.97934 -4.15959,0.42173 -2.8944,4.63468 -5.96101,1.02848 -4.23706,-4.9826 1.41494,-4.93362 -0.36902,-6.09308 -2.92478,-1.90091 -2.9209,4.79111 -2.70839,9.23638 0.56463,11.81093 3.51522,2.76507 4.97317,2.6184 8.44071,-0.84915 z m 128.92443,-5.57827 0,-8.5 -3.94098,0 c -2.16754,0 -4.21437,0.44235 -4.54851,0.98299 -0.73229,1.18487 0.42963,7.98204 1.34423,7.86368 2.3403,-0.30288 3.1966,0.47645 1.14526,1.04231 -1.90074,0.52431 -2.57511,1.45923 -2.81336,3.90032 -0.31143,3.19099 -0.28534,3.2107 4.25,3.2107 l 4.56336,0 0,-8.5 z m -5.5,-1.5 c -1.92824,-0.82859 -1.92138,-0.86195 0.19098,-0.92971 1.20504,-0.0387 2.4691,0.37971 2.80902,0.92971 0.731,1.18278 -0.24752,1.18278 -3,0 z m -55.99521,6.58612 c 4.19134,-4.19134 4.62445,-12.58612 0.64935,-12.58612 -1.41697,0 -1.71769,0.61365 -1.39112,2.83874 0.26373,1.79689 -0.20944,3.46483 -1.28926,4.54464 -2.07958,2.07958 -3.65242,1.69867 -4.9625,-1.20182 -1.40263,-3.1054 -2.95879,-2.14301 -3.31596,2.05072 -0.23814,2.7962 0.19272,3.92609 1.97251,5.1727 3.17525,2.22404 5.52486,1.99326 8.33698,-0.81886 z m 35.05789,-3.10371 c -0.40614,-2.16488 -1.15499,-3.44087 -1.87004,-3.18639 -1.41596,0.50392 -1.12519,4.47786 0.46811,6.39767 1.66388,2.00485 2.1651,0.85675 1.40193,-3.21128 z m -88.94636,-3.0196 c 1.5801,-2.41153 1.55648,-2.64997 -0.47694,-4.81445 -1.17666,-1.25249 -2.13938,-3.48576 -2.13938,-4.96281 0,-2.45977 -0.33132,-2.68555 -3.94098,-2.68555 -4.33722,0 -4.94849,0.57605 -6.11916,5.76664 -0.69872,3.09803 -0.44686,3.88021 2.05499,6.38206 3.73853,3.73852 8.28953,3.87311 10.62147,0.31411 z m 27.92913,-1.91736 c 3.07388,-3.07387 3.23474,-7.76526 0.36467,-10.63533 l -2.08988,-2.08988 -2.36684,2.22354 c -1.77818,1.67052 -3.10124,2.07665 -5.31967,1.63297 -3.27317,-0.65464 -4.13373,0.45571 -4.13373,5.33361 0,3.96535 2.40526,5.98964 7.11688,5.98964 2.88601,0 4.64604,-0.67201 6.42857,-2.45455 z m 57.75484,-0.43657 c 1.73327,-1.69931 1.72359,-1.97004 -0.26022,-7.27224 -1.13328,-3.02897 -3.11777,-6.50046 -4.40998,-7.71442 -2.00366,-1.88234 -2.71834,-2.03913 -4.85573,-1.06527 -2.23528,1.01846 -2.45442,1.60191 -2.02677,5.39606 0.26373,2.33978 -0.0528,5.2488 -0.70344,6.46449 -3.00091,5.60727 7.23982,9.10942 12.25614,4.19138 z m -134.27039,0.3551 c 1.34965,-1.62623 1.28932,-1.65872 -6.0299,-3.24718 l -4.5,-0.97662 5.5,-0.1354 c 7.00494,-0.17246 4.83025,-2.04016 -2.5,-2.1471 -2.75,-0.0401 -6.8,-0.47399 -9,-0.96416 -3.08667,-0.68773 -1.65958,-0.83775 6.25,-0.65703 5.6375,0.12881 10.25,-0.1192 10.25,-0.55114 0,-0.43194 -1.77344,-0.78535 -3.94098,-0.78535 -2.16754,0 -4.24199,-0.48703 -4.60988,-1.08229 -0.45282,-0.73269 0.90093,-0.9925 4.19099,-0.80435 4.33971,0.24819 4.82294,0.0697 4.5148,-1.66771 -0.18979,-1.07011 -0.51166,-2.11752 -0.71527,-2.32758 -0.2036,-0.21007 -5.89832,-0.43507 -12.65493,-0.5 l -12.28473,-0.11807 -0.30341,6.46915 c -0.52266,11.14411 -1.08612,10.66438 12.69618,10.80945 9.29112,0.0978 12.2071,-0.19401 13.13713,-1.31462 z m 92.38121,-2.54071 c 2.58505,-3.07216 3.12763,-5.35577 1.9819,-8.34148 -0.98629,-2.57023 -2.39301,-1.80851 -2.39301,1.29577 0,3.71428 -2.37272,5.88793 -4.5,4.12244 -0.825,-0.68469 -1.5,-2.07567 -1.5,-3.09106 0,-1.33756 -0.48211,-1.66829 -1.75,-1.2005 -2.38131,0.8786 -3.21657,2.29671 -3.23469,5.49187 -0.031,5.46263 7.31457,6.57322 11.3958,1.72296 z m -68.00495,-7.78477 c -0.50416,-3.1528 -1.08893,-4.15459 -2.29152,-3.92571 -1.25082,0.23805 -1.68082,1.76966 -1.90835,6.79725 l -0.29371,6.48996 2.58523,-2.56425 c 2.2636,-2.24523 2.50102,-3.09088 1.90835,-6.79725 z m 34.92698,6.04588 c 2.07409,-2.29185 3.36419,-8.18438 1.79186,-8.18438 -0.61875,0 -1.125,0.62325 -1.125,1.38499 0,1.71864 -4.70393,4.91602 -6.02825,4.09755 -0.53446,-0.33031 -0.97175,-2.14902 -0.97175,-4.04156 0,-2.70024 -0.40442,-3.44098 -1.87868,-3.44098 -2.60183,0 -4.67246,5.10166 -3.1928,7.86645 2.27996,4.26013 8.50242,5.52482 11.40462,2.31793 z m 59.44435,0.25892 c 1.72965,-1.2115 2.22251,-2.54205 2.22251,-6 0,-5.67546 -2.3728,-8.33574 -6.84897,-7.67877 -2.79929,0.41084 -3.15103,0.82812 -3.15103,3.73819 0,1.80164 -0.86391,4.33806 -1.91979,5.6365 -1.75394,2.15683 -1.78375,2.51196 -0.34501,4.11078 1.95184,2.16902 7.08062,2.26774 10.04229,0.1933 z m -83.72263,-5.52034 c 1.54165,-2.16505 1.87727,-3.39083 1.13238,-4.13572 -0.74489,-0.74489 -1.56465,-0.55269 -2.76581,0.64847 -1.46224,1.46225 -1.90773,1.50656 -3.10538,0.30891 -1.08457,-1.08457 -1.15841,-2.02904 -0.32917,-4.21012 1.36513,-3.59057 0.49605,-4.47182 -1.95161,-1.97894 -3.32639,3.38784 -3.57319,6.99743 -0.6765,9.89412 3.33335,3.33335 5.03017,3.21722 7.69609,-0.52672 z m 69.87362,1.61403 c 1.55604,-0.80466 3.10869,-2.19147 3.45034,-3.08179 1.90208,-4.95675 -0.80336,-12.4552 -4.49383,-12.4552 -1.39991,0 -1.88499,0.72388 -1.88499,2.81291 0,1.79539 -1.04396,3.81309 -2.88601,5.57788 -3.89784,3.73437 -2.7469,7.39669 2.68567,8.54582 0.16481,0.0349 1.57278,-0.59497 3.12882,-1.39962 z m 58.85773,-9.28699 -0.28621,-9.75 -4.25,-0.3075 -4.25,-0.3075 0,3.5575 c 0,3.128 0.30183,3.5575 2.5,3.5575 1.375,0 2.5,0.45857 2.5,1.01905 0,0.58765 -1.05835,0.75342 -2.5,0.39159 -1.5404,-0.38661 -2.5,-0.20201 -2.5,0.48095 0,0.60963 0.87344,1.10841 1.94098,1.10841 1.06754,0 2.2191,0.45 2.55902,1 0.35052,0.56716 -0.48962,1 -1.94098,1 -1.40746,0 -2.55902,0.47829 -2.55902,1.06286 0,0.58457 0.7875,0.98275 1.75,0.88484 2.85097,-0.29 4.25,-6.2e-4 4.25,0.87911 0,0.45474 -1.35,0.62867 -3,0.3865 -2.4568,-0.36058 -3,-0.0878 -3,1.50652 0,2.76309 0.82018,3.28017 5.20288,3.28017 l 3.86954,0 -0.28621,-9.75 z m -91.61495,4.09501 c 1.00581,-0.91024 1.82874,-2.88182 1.82874,-4.38128 0,-2.39633 -0.54424,-2.86334 -4.49659,-3.85855 -2.47313,-0.62274 -4.79034,-1.23867 -5.14937,-1.36872 -0.35903,-0.13005 -1.22197,1.40761 -1.91765,3.41703 -1.13181,3.26917 -1.05941,3.87403 0.68832,5.75 2.34334,2.51527 6.52933,2.71957 9.04655,0.44152 z m 13.62874,0.45499 c 1.73756,-1.73756 1.55601,-7.8 -0.23358,-7.8 -0.82053,0 -1.56889,1.176 -1.75,2.75 -0.40648,3.53272 -3.96386,3.8615 -4.77134,0.44098 -0.66685,-2.82484 -2.43042,-2.99897 -2.85787,-0.28218 -0.55895,3.55253 1.58661,6.0912 5.14797,6.0912 1.79565,0 3.80482,-0.54 4.46482,-1.2 z m -39.37143,-1.37143 c 0.86429,-0.86428 1.57143,-2.90374 1.57143,-4.53212 0,-1.62838 0.66653,-4.55591 1.48117,-6.50563 0.81464,-1.94971 1.15214,-3.38602 0.75,-3.19179 -0.40214,0.19423 -2.53117,1.18351 -4.73117,2.19839 -2.2,1.01489 -4.675,2.1726 -5.5,2.5727 -0.825,0.4001 -2.16372,1.89624 -2.97494,3.32477 -1.3691,2.41094 -1.30277,2.7806 0.92431,5.15122 2.72278,2.89827 6.1646,3.29706 8.4792,0.98246 z m 51.57143,-2.42857 c 2.24671,-2.24671 2.59428,-6.07554 0.81076,-8.93141 -1.14238,-1.82924 -1.35908,-1.78742 -5.5,1.06161 -4.62829,3.18434 -5.27606,5.14567 -2.65577,8.04106 2.15639,2.38279 4.85386,2.31989 7.34501,-0.17126 z m -72.31445,-2.17431 c 2.63606,-2.47645 3.07426,-5.13113 0.7674,-4.64901 -2.04814,0.42804 -6.13987,6.82332 -4.3656,6.82332 0.70606,0 2.32525,-0.97844 3.5982,-2.17431 z m 34.52712,-2.45013 1.7856,-3.05737 -3.68849,-2.62439 c -4.2251,-3.00621 -5.56261,-2.48779 -7.32002,2.83722 -0.77402,2.34531 -0.79847,3.95789 -0.0804,5.29969 1.56655,2.92712 6.99681,1.49407 9.30327,-2.45515 z m -60.40608,1.84651 c -0.20613,-1.07797 -1.63415,-1.95335 -3.81794,-2.34043 l -3.48865,-0.61836 3.75,-0.13164 c 2.0625,-0.0724 3.75,-0.58164 3.75,-1.13164 0,-0.9041 -2.61305,-1.16414 -14.25034,-1.41814 -2.06269,-0.045 -3.75019,-0.4372 -3.75,-0.8715 1.9e-4,-0.4343 3.84249,-0.71394 8.53844,-0.62143 9.22634,0.18176 12.00089,-0.5775 5.81408,-1.59104 -6.77835,-1.11044 -6.95592,-1.2636 -1.60218,-1.38189 5.14089,-0.11359 5.25,-0.17835 5.25,-3.116 l 0,-3 -10.25,0.0147 c -14.15695,0.0204 -15.16723,0.63248 -15.54935,9.42123 -0.16464,3.78675 0.13563,7.15383 0.66727,7.4824 0.53163,0.32857 6.43442,0.69378 13.11729,0.81159 11.02329,0.19431 12.12013,0.0544 11.82138,-1.50789 z m 123.99623,0.3434 c -0.16655,-0.51399 -1.28841,-0.97767 -2.49302,-1.0304 -1.70772,-0.0748 -1.94826,0.19563 -1.09196,1.22741 1.20685,1.45416 4.06905,1.29687 3.58498,-0.19701 z m -8.73708,-1.60065 c 1.06384,-0.56935 1.93426,-1.69435 1.93426,-2.5 0,-1.77863 -0.46008,-1.81895 -2.95763,-0.25921 -1.58998,0.99296 -2.29313,0.87743 -3.98643,-0.65499 -1.13077,-1.02333 -2.05594,-1.35838 -2.05594,-0.74456 0,1.00584 3.8336,5.19394 4.7543,5.19394 0.20745,0 1.2476,-0.46583 2.31144,-1.03518 z m -78.3715,-3.37975 c 1.54317,-1.32821 2.46361,-2.75786 2.04543,-3.177 -0.41819,-0.41914 -1.40328,0.10508 -2.1891,1.16493 -1.22942,1.65815 -1.72197,1.74787 -3.53034,0.64312 -2.29903,-1.4045 -4.02023,-0.86524 -4.02023,1.25956 0,1.35255 1.42424,2.29531 3.69424,2.44537 0.65683,0.0434 2.45683,-1.00777 4,-2.33598 z m 52.91423,-0.56569 c 3.78164,-1.63997 9.39153,-7.41072 9.39153,-9.66082 0,-0.52397 -1.84765,-2.73149 -4.10589,-4.90561 -7.73121,-7.44324 -11.89411,-16.98002 -11.89411,-27.24822 l 0,-4.37507 -4.75,3.42474 c -2.6125,1.88361 -7,4.42877 -9.75,5.65593 -2.75,1.22715 -5.67353,2.58496 -6.49672,3.01735 -0.8232,0.43239 -2.18301,2.98805 -3.02179,5.67924 -2.03653,6.5341 -3.66969,9.4705 -6.68328,12.01643 -3.43942,2.90569 -2.42597,5.48257 4.02674,10.23869 7.14413,5.26575 9.34492,6.35793 15.67505,7.77907 6.3224,1.41941 11.74813,0.9197 17.60847,-1.62173 z m 17.21108,-3.76938 c 0.34369,-2.41998 -2.28481,-3.26637 -3.10556,-1 -0.36164,0.99861 -0.88119,0.9969 -2.58334,-0.008 -1.72983,-1.02173 -2.13065,-1.01232 -2.13065,0.05 0,4.09028 7.24858,4.97876 7.81955,0.95847 z m -59.6233,-0.886 c 4.23816,-2.93705 4.31039,-3.11162 2.35494,-5.69163 -1.33118,-1.75635 -1.54413,-1.73685 -5.46049,0.5 -5.05407,2.88666 -5.65433,6.95083 -1.14445,7.74868 0.24544,0.0434 2.15794,-1.10725 4.25,-2.55705 z m 116.47328,-4.2799 c 0.0932,-1.87874 -0.14421,-5.25374 -0.52767,-7.5 -0.67882,-3.97636 -0.802,-4.0841 -4.66954,-4.0841 -3.59007,0 -4.00277,0.26463 -4.28874,2.75 -0.29285,2.54509 -0.0507,2.75 3.25,2.75 1.96153,0 3.56642,0.45 3.56642,1 0,0.55 -0.70156,1 -1.55902,1 -0.85746,0 -1.2809,0.45 -0.94098,1 0.35191,0.5694 -0.50929,1 -2,1 -3.43536,0 -2.22046,1.96385 1.30902,2.116 2.01256,0.0868 2.18676,0.22757 0.69098,0.55855 -3.83566,0.84873 -4.62235,1.31846 -3.9716,2.3714 0.36034,0.58304 2.52636,0.92372 4.81338,0.75706 3.96816,-0.28916 4.16597,-0.45914 4.32775,-3.71891 z m -187.51953,-3.5841 c 0,-0.5225 -0.48375,-1.11125 -1.075,-1.30833 -0.59125,-0.19709 -1.075,0.39166 -1.075,1.30833 0,0.91667 0.48375,1.50542 1.075,1.30833 0.59125,-0.19708 1.075,-0.78583 1.075,-1.30833 z m 20.6,-0.35489 c 2.45771,-0.10974 3.25,-0.60152 3.25,-2.0173 0,-1.40567 -1.05905,-2.0791 -4.25,-2.70252 l -4.25,-0.83032 4.25,-0.35498 c 7.80893,-0.65225 4.80931,-2.51466 -5.75,-3.57008 -1.925,-0.19241 -0.4625,-0.42185 3.25,-0.50987 6.4871,-0.15381 9.67711,-1.99792 4,-2.31235 -4.6007,-0.25482 -5.08186,-0.34622 -5.84609,-1.11044 -0.40548,-0.40549 1.36276,-0.73725 3.92942,-0.73725 4.2547,0 4.66667,-0.21113 4.66667,-2.39159 0,-2.92193 -1.90999,-3.50293 -11.5,-3.49817 -4.4255,0.002 -7.81986,0.53771 -9.22919,1.45604 -4.80099,3.12836 -7.07564,12.05746 -3.88452,15.24858 0.7241,0.72411 3.41455,1.84949 5.97877,2.50085 4.31427,1.09591 6.62537,1.2205 15.38494,0.8294 z m 165.25,-10.02011 c 0.56667,-0.0708 1,-3.375 1,-7.625 l 0,-7.5 -4.5,0 c -4.13333,0 -4.5,0.2037 -4.5,2.5 0,2 0.5,2.5 2.5,2.5 1.375,0 2.5,0.45 2.5,1 0,0.55 -1.15156,1 -2.55902,1 -1.56025,0 -2.30135,0.4169 -1.89885,1.06817 0.3631,0.5875 1.27524,0.83215 2.027,0.54368 0.75175,-0.28848 1.63279,-0.0942 1.95786,0.43182 0.32508,0.52598 -0.67301,1.02375 -2.21797,1.10616 l -2.80902,0.14983 2.75,0.41659 c 3.43611,0.52053 3.62913,2.28375 0.25,2.28375 -2.24463,0 -3.20565,0.96102 -2.08333,2.08333 0.36704,0.36704 4.78611,0.39132 7.58333,0.0417 z M 263.17015,387.61062 c -1.43979,-1.24536 -2.92913,-2.07187 -3.30965,-1.83669 -0.59618,0.36846 -0.74521,4.47452 -0.29982,8.26075 0.075,0.63787 1.50686,-0.0371 3.18184,-1.5 l 3.04541,-2.65977 -2.61778,-2.26429 z m 22.51091,1.28363 c 1.48123,-1.78477 0.5034,-3.51934 -1.98395,-3.51934 -2.76608,0 -3.52044,-1.97872 -0.80902,-2.12209 1.26996,-0.0671 -0.61598,-0.7113 -4.19098,-1.43145 l -6.5,-1.30937 6.16779,0.18033 c 7.04041,0.20584 9.28914,-0.85967 3.93439,-1.86423 -4.74299,-0.88979 -4.63659,-2.4541 0.14782,-2.17329 2.71587,0.1594 3.75,-0.18112 3.75,-1.23482 0,-1.95703 -3.59427,-2.83114 -12,-2.91834 -6.65484,-0.069 -7.18491,0.0993 -10.75,3.41378 -2.0625,1.91752 -3.75,4.10113 -3.75,4.85248 0,1.8893 8.06286,8.32609 11.05171,8.82285 6.2417,1.0374 13.78525,0.68553 14.93224,-0.69651 z m 65.51605,-2.21274 c 4.69982,-1.63154 9.93972,-5.0095 17.38051,-11.20454 4.93555,-4.10924 11.11949,-11.40173 11.11949,-13.11281 0,-0.39087 -2.21922,-0.9735 -4.93161,-1.29474 -5.69597,-0.67461 -13.06839,-4.11013 -13.06839,-6.08983 0,-1.33544 4.13031,-2.60468 8.47606,-2.60468 1.22433,0 4.31808,1.11234 6.875,2.47186 4.22928,2.24873 4.64894,2.3093 4.64894,0.67094 0,-1.17588 -1.69086,-2.59288 -4.8718,-4.08275 -4.69486,-2.19896 -7.33732,-2.35256 -15.6282,-0.90842 -1.26594,0.22051 -2,-0.20217 -2,-1.15163 0,-1.14304 1.49992,-1.57118 6.3029,-1.79909 5.0619,-0.2402 7.40246,0.20431 11.88752,2.25764 l 5.58463,2.55672 -0.50467,-6.28705 c -0.27756,-3.45787 -1.41859,-8.07381 -2.5356,-10.25763 -3.18688,-6.2305 -9.9066,-14.09201 -13.21758,-15.46346 -2.00913,-0.83221 -3.02232,-1.96098 -3.03251,-3.37845 -0.0118,-1.63782 -0.22125,-1.80337 -0.90835,-0.71796 -0.58743,0.92797 -2.89209,1.44759 -6.73469,1.51846 -3.34689,0.0617 -7.36377,0.85821 -9.4058,1.86503 -3.29018,1.62221 -10.93585,10.24165 -10.93585,12.32866 0,0.49773 2.31415,2.00365 5.14255,3.34649 3.0517,1.44885 6.24822,3.96786 7.86202,6.19564 2.30507,3.18207 2.65849,4.52726 2.31933,8.82793 -0.22007,2.7906 -1.27717,7.87129 -2.34911,11.29044 -2.43444,7.76506 -2.44078,8.71663 -0.0581,8.71663 1.05416,0 2.11756,-0.5625 2.36309,-1.25 0.24554,-0.6875 0.78863,-0.93191 1.20687,-0.54313 1.74364,1.6208 -0.52153,3.79313 -3.95525,3.79313 -4.25198,0 -4.46333,-1.27765 -1.61809,-9.78155 3.4481,-10.30574 3.61838,-14.41597 0.78329,-18.90705 -2.92056,-4.62646 -6.43449,-7.1576 -10.95086,-7.88807 l -3.24572,-0.52496 3.70116,2.04965 c 4.60317,2.54917 10.6677,10.89696 8.76897,12.07044 -1.9524,1.20665 -10.19394,-1.66371 -12.12409,-4.22257 -0.94009,-1.24631 -1.92531,-2.04773 -2.18938,-1.78095 -0.26407,0.26678 -1.05626,3.28003 -1.76042,6.6961 -1.12131,5.43974 -1.05663,7.17828 0.52082,14 1.90893,8.25518 6.12784,18.16939 9.6223,22.61187 2.26715,2.88221 3.11462,2.881 11.46064,-0.0163 z m -10.31972,-6.58937 c -1.66074,-2.00108 -3.25713,-6.78386 -2.61247,-7.82696 0.32017,-0.51804 1.93307,0.19485 3.58423,1.58421 2.89687,2.43755 4.49129,3.0566 9.84796,3.82355 2.35107,0.33662 2.27852,0.45755 -1.21788,2.02996 -4.44127,1.99733 -8.14271,2.14738 -9.60184,0.38924 z m 3.39272,-2.2387 c -2.05508,-1.55476 -3.20345,-1.30764 -2.11412,0.45494 0.36253,0.58659 1.4201,1.05222 2.35014,1.03473 1.48464,-0.0279 1.45585,-0.2097 -0.23602,-1.48967 z m 9.81554,-34.90839 c -0.99007,-2.5801 0.38005,-4.57014 3.1465,-4.57014 2.24401,0 2.55471,0.37452 2.28138,2.75 -0.36483,3.17069 -4.39148,4.52095 -5.42788,1.82014 z m 94.40039,32.17986 c 0.31941,-9.67274 0.42585,-9.54296 -6.66393,-8.125 -2.44737,0.48947 -3.125,1.14 -3.125,3 0,1.97222 0.50877,2.375 3,2.375 3.49817,0 4.04096,1.6604 0.75,2.29427 -1.6271,0.31339 -1.35026,0.47107 1,0.56955 4.3916,0.18402 4.16313,2.13618 -0.25,2.13618 -4.10132,0 -4.80362,1.95725 -0.75,2.09019 2.69148,0.0883 2.68084,0.11016 -0.5,1.02859 -1.83711,0.53045 -3.25,1.6019 -3.25,2.4646 0,1.19684 1.02507,1.46043 4.75,1.22141 l 4.75,-0.30479 0.28893,-8.75 z m -185.26827,-1.14118 c 1.46504,-2.23594 1.40655,-2.62726 -0.90093,-6.02752 -2.80893,-4.13919 -3.28272,-3.82982 -3.47563,2.26945 -0.20943,6.622 1.52448,8.11088 4.37656,3.75807 z m 23.29889,-4.8486 c -0.18868,-1.32252 -1.13862,-2.37034 -2.31955,-2.55855 -4.40299,-0.70176 -4.97055,-1.54974 -1.5,-2.24113 3.48836,-0.69494 3.48504,-0.69775 -1,-0.84421 -2.475,-0.0808 -5.175,-0.62694 -6,-1.2136 -1.09485,-0.77854 0.24381,-0.90777 4.95622,-0.47846 6.43526,0.58626 7.6577,-0.74547 1.67108,-1.82048 -4.65199,-0.83535 -4.3137,-1.60379 0.70603,-1.60379 3.51515,0 4.66667,-0.37624 4.66667,-1.52475 0,-2.32918 -4.11295,-3.39648 -12.18268,-3.16136 -8.10058,0.23603 -9.31395,0.75359 -12.52946,5.34441 l -2.21214,3.1583 2.23464,3.31597 c 2.72428,4.04257 7.5456,5.68393 17.00919,5.79058 6.51008,0.0734 6.80505,-0.0248 6.5,-2.16293 z m 161.33507,-5.35578 c 1.04375,-0.64507 1.13571,-17.41032 0.0954,-17.38926 -0.4125,0.008 -2.775,0.61766 -5.25,1.35403 -3.5765,1.06408 -4.56107,1.84179 -4.79758,3.78957 -0.27638,2.2761 -0.027,2.42442 3.5,2.08146 2.86605,-0.27869 3.42963,-0.11191 2.29758,0.67993 -0.825,0.57706 -2.26094,1.05609 -3.19098,1.06452 -0.93004,0.008 -1.99884,0.51343 -2.37511,1.12224 -0.47563,0.7696 0.26826,0.89776 2.44098,0.42055 1.99398,-0.43796 3.12509,-0.29569 3.12509,0.39306 0,0.59371 -0.87344,1.07946 -1.94098,1.07946 -1.06754,0 -2.17893,0.38499 -2.46974,0.85554 -0.29082,0.47055 0.64951,0.63031 2.08961,0.35501 1.80408,-0.34487 2.39829,-0.14445 1.91072,0.64446 -0.38921,0.62974 -1.55453,1.14499 -2.58961,1.14499 -2.20668,0 -3.40683,1.53272 -2.43342,3.10773 0.64997,1.05167 7.56971,0.54411 9.58804,-0.70329 z m -184.45065,-7.83258 c 1.89807,-2.931 2.00316,-3.57003 0.75718,-4.60411 -0.79574,-0.6604 -1.91737,-2.94831 -2.49252,-5.08424 -1.72351,-6.40063 -2.96863,-4.46435 -2.96863,4.61649 0,9.56866 1.05517,10.70635 4.70397,5.07186 z m 115.04603,2.17814 c -0.22917,-0.6875 -1.01667,-1.25 -1.75,-1.25 -0.73333,0 -1.52083,0.5625 -1.75,1.25 -0.24786,0.74359 0.46111,1.25 1.75,1.25 1.28889,0 1.99786,-0.50641 1.75,-1.25 z m -9.38837,-2.25 c 0.38781,-1.01061 -0.0474,-1.5 -1.334,-1.5 -2.3012,0 -3.5433,1.6263 -1.78386,2.33564 2.08989,0.84256 2.51789,0.72785 3.11786,-0.83564 z m -81.36163,-5.51273 c 0,-0.96471 -1.0125,-2.07156 -2.25,-2.45967 l -2.25,-0.70566 2.5,-0.7674 2.5,-0.76741 -2.5,-0.62702 c -1.375,-0.34486 -4.3,-0.78382 -6.5,-0.97546 -2.45315,-0.2137 -1.38968,-0.41345 2.75,-0.51655 7.53421,-0.18763 8.63912,-1.26131 3,-2.9152 l -3.75,-1.09984 3.9872,0.16883 c 2.97832,0.12611 4.06661,-0.24354 4.30105,-1.46091 0.42596,-2.21179 -4.42426,-3.80381 -13.78825,-4.52581 l -7.5,-0.57827 -3.20206,4.00325 c -2.89333,3.61728 -3.10861,4.34167 -2.23288,7.51331 1.6659,6.03339 5.12066,7.54038 17.18494,7.49619 6.71023,-0.0246 7.75,-0.2637 7.75,-1.78238 z m 55.18333,-4.20394 c -0.71756,-0.71756 -1.18333,-0.7766 -1.18333,-0.15 0,0.56834 0.3,1.33334 0.66667,1.7 0.36666,0.36667 0.89916,0.43417 1.18333,0.15 0.28417,-0.28416 -0.0158,-1.04916 -0.66667,-1.7 z m 102.65768,-1.40342 3.34101,-1.35391 -0.44622,-8.263 c -0.24542,-4.54465 -0.84887,-8.24767 -1.34101,-8.22894 -0.49213,0.0187 -3.48229,0.65285 -6.64479,1.40913 -5.07888,1.21458 -5.75,1.66366 -5.75,3.84761 0,2.30738 0.26719,2.4367 4,1.93603 4.79176,-0.64272 5.35361,0.7018 0.75,1.79478 l -3.25,0.77161 3.5,0.65243 3.5,0.65242 -3.23853,0.7779 c -5.0472,1.21235 -5.38537,3.05936 -0.41461,2.26451 2.41844,-0.38673 4.15314,-0.26796 4.15314,0.28434 0,0.52166 -1.4625,1.08947 -3.25,1.26182 -2.50876,0.24189 -3.32401,0.83513 -3.5745,2.60111 -0.29003,2.04474 -0.0245,2.21649 2.5,1.61691 1.55348,-0.36897 4.32796,-1.2801 6.16551,-2.02475 z m -109.22594,-4.94065 c -0.79118,-2.06176 -3.61507,-1.77997 -3.61507,0.36074 0,2.80389 2.20811,4.57952 3.29025,2.64583 0.48241,-0.86202 0.62858,-2.21497 0.32482,-3.00657 z m -72.68533,-3.82559 c 1.15108,-1.86247 3.07501,-3.64316 4.2754,-3.95706 2.06022,-0.53876 2.08827,-0.67491 0.50057,-2.4293 -0.92507,-1.0222 -1.97407,-3.40402 -2.3311,-5.29293 -0.35702,-1.88891 -1.35697,-4.24935 -2.22211,-5.24543 -1.36856,-1.5757 -1.38321,-1.93108 -0.11274,-2.73469 0.80313,-0.508 2.04913,-0.93053 2.76888,-0.93895 0.71975,-0.008 3.06514,-1.42687 5.21197,-3.15211 2.92543,-2.35094 3.69349,-3.54096 3.06575,-4.75 -0.46067,-0.88726 -1.038,-4.13943 -1.28295,-7.22704 -0.43925,-5.53664 -0.40216,-5.62948 2.69661,-6.75 1.72808,-0.62489 4.37883,-1.13616 5.89053,-1.13616 2.27837,0 2.69389,-0.3849 2.429,-2.25 -0.29865,-2.10283 -0.87552,-2.27028 -8.81955,-2.56009 -4.675,-0.17056 -10.4125,-0.0305 -12.75,0.31127 l -4.25,0.62137 0,25.43872 c 0,21.29544 0.23103,25.43873 1.41844,25.43873 0.78014,0 2.36023,-1.52385 3.5113,-3.38633 z m 26.57026,-4.03815 c 0,-1.24711 -1.19915,-2.35452 -3.5,-3.23223 l -3.5,-1.33514 3.76706,0.29712 c 5.06164,0.39922 4.30439,-1.18759 -2.09559,-4.39131 -2.84133,-1.42232 -4.88522,-2.86688 -4.54198,-3.21012 0.34324,-0.34324 1.80452,-0.024 3.24729,0.70936 1.44277,0.73339 3.67434,1.65802 4.95905,2.05474 2.15422,0.66523 2.24473,0.5511 1.16417,-1.46794 -1.0704,-2.00005 -0.98117,-2.1288 1.03249,-1.48969 3.54496,1.12513 1.90557,-1.61143 -2.91311,-4.86272 -6.11416,-4.12537 -11.22209,-4.5804 -15.07014,-1.34248 -1.67115,1.40618 -3.89575,2.82879 -4.94356,3.16135 -2.00221,0.63548 -1.98099,0.81996 1.11027,9.64985 1.15478,3.29853 3.96277,4.80212 11.95153,6.39966 7.91118,1.58203 9.33252,1.4388 9.33252,-0.94045 z m 157.5,-14.43567 c 0.275,-4.03637 0.20764,-7.8101 -0.14969,-8.38607 -0.81019,-1.3059 -16.85734,4.09808 -16.835,5.6693 0.008,0.59231 0.40903,1.69855 0.89023,2.45832 0.73774,1.16482 1.62428,1.12608 5.65427,-0.24708 6.58646,-2.24423 6.77768,-1.30158 0.26068,1.285 l -5.32049,2.11168 4.5,-0.51683 c 4.59988,-0.5283 4.43618,-0.35237 -2.25,2.41815 -2.02772,0.84022 -1.90424,0.9468 1.25,1.07895 l 3.5,0.14662 -2.75,1.00439 c -2.67758,0.97794 -3.34107,1.91332 -2.18043,3.07395 0.31326,0.31326 3.35076,-0.17903 6.75,-1.09398 l 6.18043,-1.66354 0.5,-7.33886 z m -154.16672,-3.84074 c -0.69512,-0.83756 -2.17947,-1.93071 -3.29856,-2.42922 -1.45411,-0.64774 -0.93657,-0.7403 1.81371,-0.32435 4.70284,0.71123 4.22931,-0.36513 -1.85036,-4.20607 -6.13776,-3.87763 -5.71522,-5.00523 0.50193,-1.33947 4.70281,2.77288 6.47339,2.87339 3.81667,0.21667 -0.65084,-0.65084 -0.85137,-1.51531 -0.44563,-1.92104 0.40574,-0.40574 1.11293,-0.13059 1.57153,0.61145 0.92574,1.49787 3.061,0.64681 3.05111,-1.2161 -0.006,-1.10994 -2.01489,-2.5653 -9.49368,-6.87741 -3.01202,-1.73667 -8.96602,-2.33944 -11.91821,-1.20658 -1.16381,0.44659 -1.58179,1.99111 -1.58179,5.84501 0,5.87636 1.36303,7.74744 7.06493,9.69828 1.88929,0.64639 4.97274,2.20711 6.85212,3.46826 3.62358,2.4316 6.03607,2.23482 3.91623,-0.31943 z m 147.95511,-5.46781 6.28838,-2.3313 -0.28838,-5.39818 c -0.24321,-4.55253 -0.7197,-5.71924 -3.04165,-7.44768 l -2.75326,-2.04951 -4.24674,2.08265 c -6.45964,3.16788 -12.33674,8.14908 -10.46305,8.86809 0.83732,0.32131 3.36603,-0.35635 5.61936,-1.50591 2.25332,-1.14956 4.09695,-1.66129 4.09695,-1.13717 0,0.52411 -0.7875,1.2157 -1.75,1.53685 -0.9625,0.32115 -2.875,1.4958 -4.25,2.61034 l -2.5,2.02643 4,-1.63376 c 2.2,-0.89857 4.5625,-1.86605 5.25,-2.14995 3.00729,-1.24184 0.87821,0.84683 -2.75,2.6978 -5.17352,2.63934 -5.14911,3.44359 0.0415,1.36672 5.86279,-2.34582 5.8294,-1.1165 -0.0444,1.63464 -2.74841,1.28728 -4.9971,2.76467 -4.9971,3.28308 0,1.25034 4.10029,0.39707 11.78839,-2.45314 z m -71.66083,-4.5813 c 1.24387,-1.58606 1.2085,-1.62143 -0.37756,-0.37756 -0.9625,0.75485 -1.75,1.54235 -1.75,1.75 0,0.82304 0.82119,0.29331 2.12756,-1.37244 z m -69.60494,-8.225 c -1.95845,-2.16407 -1.31357,-4.21595 0.69405,-2.20833 1.74708,1.74708 2.78333,1.44303 2.78333,-0.81667 0,-1.11111 0.66667,-2 1.5,-2 0.825,0 1.5,-0.63232 1.5,-1.40516 0,-1.12141 -1.96886,-1.37383 -9.75,-1.25 -9.21016,0.14657 -9.76723,0.27624 -10.06127,2.34195 -0.24675,1.73358 0.99676,3.0197 6,6.20561 5.46582,3.48047 6.50325,3.828 7.74443,2.59434 1.24378,-1.23625 1.18953,-1.69369 -0.41054,-3.46174 z m 127.47211,1.48135 c 0.68179,-0.82151 3.76798,-2.94023 6.8582,-4.70828 5.27175,-3.01618 5.46514,-3.25734 3.13283,-3.90667 -3.89543,-1.0845 -17.79886,-1.00282 -18.48576,0.1086 -1.00097,1.6196 0.52433,3.37567 1.81287,2.08713 0.59792,-0.59792 1.78463,-1.07282 2.63713,-1.05533 1.30428,0.0268 1.27257,0.2424 -0.2,1.36025 -3.12634,2.37323 -1.90529,3.67323 1.5,1.59699 3.51567,-2.14355 4.75,-2.44869 4.75,-1.17425 0,0.44813 -1.56542,1.56128 -3.47872,2.47367 -2.39412,1.14168 -3.2961,2.13477 -2.89301,3.18521 0.74548,1.94269 2.76873,1.95783 4.36646,0.0327 z m 20.00527,-6.43896 c 0,-2.04908 -3.23795,-3.65639 -5.07663,-2.52003 -0.66843,0.41311 0.009,1.38303 1.74105,2.49145 1.55957,0.99825 2.94808,1.84789 3.08558,1.88809 0.1375,0.0402 0.25,-0.79658 0.25,-1.85951 z"
       id="path4179"
       inkscape:connector-curvature="0" />
  </g>
</svg>
