<?xml version="1.0" encoding="UTF-8" standalone="no"?>
<!-- Created with Inkscape (http://www.inkscape.org/) -->

<svg
   xmlns:dc="http://purl.org/dc/elements/1.1/"
   xmlns:cc="http://creativecommons.org/ns#"
   xmlns:rdf="http://www.w3.org/1999/02/22-rdf-syntax-ns#"
   xmlns:svg="http://www.w3.org/2000/svg"
   xmlns="http://www.w3.org/2000/svg"
   xmlns:sodipodi="http://sodipodi.sourceforge.net/DTD/sodipodi-0.dtd"
   xmlns:inkscape="http://www.inkscape.org/namespaces/inkscape"
   width="54.694527mm"
   height="56.953362mm"
   viewBox="0 0 193.7995 201.80325"
   id="svg2"
   version="1.1"
   inkscape:version="0.91 r13725"
   sodipodi:docname="surprised_bargainer.svg">
  <defs
     id="defs4" />
  <sodipodi:namedview
     id="base"
     pagecolor="#ffffff"
     bordercolor="#666666"
     borderopacity="1.0"
     inkscape:pageopacity="0.0"
     inkscape:pageshadow="2"
     inkscape:zoom="1.4"
     inkscape:cx="41.675193"
     inkscape:cy="159.62779"
     inkscape:document-units="px"
     inkscape:current-layer="layer1"
     showgrid="false"
     fit-margin-top="0"
     fit-margin-left="0"
     fit-margin-right="0"
     fit-margin-bottom="0"
     inkscape:window-width="1366"
     inkscape:window-height="744"
     inkscape:window-x="0"
     inkscape:window-y="24"
     inkscape:window-maximized="1" />
  <metadata
     id="metadata7">
    <rdf:RDF>
      <cc:Work
         rdf:about="">
        <dc:format>image/svg+xml</dc:format>
        <dc:type
           rdf:resource="http://purl.org/dc/dcmitype/StillImage" />
        <dc:title></dc:title>
      </cc:Work>
    </rdf:RDF>
  </metadata>
  <g
     inkscape:label="Layer 1"
     inkscape:groupmode="layer"
     id="layer1"
     transform="translate(-547.9204,-292.57097)">
    <path
       style="fill:#000000"
       d="m 636.17038,494.11873 -87.25001,-0.25549 -0.0234,-7.74451 c -0.0129,-4.25948 -0.17481,-45.54452 -0.35983,-91.74452 -0.18502,-46.2 -0.062,-78.15001 0.27342,-71.00001 0.36814,7.84783 1.00615,12.90931 1.60983,12.77117 0.55,-0.12586 5.5,-1.79931 11,-3.71878 5.5,-1.91947 11.575,-3.4518 13.5,-3.40517 1.9282,0.0467 2.60183,0.28504 1.5,0.5307 -6.32623,1.41049 -19.90167,5.69765 -23.41151,7.39342 l -4.08849,1.97534 0,9.35223 c 0,9.75498 -0.13952,9.25656 7.22505,25.81111 1.15243,2.59051 2.39634,4.52398 2.76424,4.29661 0.57199,-0.35351 1.8526,-5.2774 3.38277,-13.00662 0.23792,-1.20182 0.44223,-0.76887 0.51194,1.08484 0.0638,1.69667 -0.80165,5.88016 -1.92323,9.29665 l -2.03923,6.2118 3.72308,7.63703 3.72308,7.63703 2.19455,-9.93367 c 1.207,-5.46353 3.41443,-16.49712 4.90541,-24.51909 2.54977,-13.71871 3.78857,-17.99171 4.89518,-16.88509 0.25937,0.25937 1.03968,5.98384 1.73402,12.72104 0.69433,6.7372 1.54824,12.24946 1.89757,12.24946 1.76305,0 10.05578,-22.16559 12.01647,-32.11873 1.84659,-9.37393 1.57558,-9.7301 -7.71304,-10.13711 -6.6348,-0.29072 -6.1572,-0.36814 3.20214,-0.51907 10.13144,-0.16338 14.32742,0.2877 20.19778,2.17133 1.92309,0.61706 2.33274,0.20398 3.27763,-3.30508 0.59392,-2.20565 2.35362,-6.569 3.91044,-9.69633 2.41894,-4.85916 2.67218,-6.10568 1.74141,-8.57158 -1.05732,-2.80117 -0.55445,-5.11437 2.84479,-13.08603 0.71111,-1.66763 -1.20738,-1.74845 -35.61023,-1.5 l -36.36182,0.26259 -0.5774,6.5 -0.5774,6.5 -0.1726,-7.24008 -0.1726,-7.24008 96.0956,-0.25992 c 52.85259,-0.14295 96.23304,-0.0349 96.40101,0.24008 0.5061,0.82855 0.87538,45.90008 0.44653,54.50001 -0.21941,4.4 -0.63387,-5.72501 -0.92103,-22.50001 l -0.52209,-30.5 -8.8773,-0.29079 c -8.84533,-0.28974 -8.87477,-0.28254 -8.17459,2 2.8551,9.30748 2.86039,16.69255 0.0169,23.51895 -0.92958,2.23163 -1.01573,3.43147 -0.27905,3.88676 0.66134,0.40873 0.8514,2.73439 0.50095,6.12993 -1.01014,9.7873 -9.0849,18.54087 -17.10309,18.54087 -4.16947,0 -4.40052,0.15919 -5.48504,3.77899 -0.62272,2.07845 -2.95015,6.17667 -5.17209,9.10715 l -4.03988,5.32815 3.22863,2.5 c 13.21606,10.23348 18.16657,17.70556 23.18872,35 5.3886,18.55638 6.20874,23.79549 5.94862,38 -0.23376,12.76515 -0.41277,13.83755 -3.28852,19.70096 -6.47981,13.2118 -23.98377,24.36257 -40.3686,25.71649 -3.20456,0.26481 -6.56205,1.11081 -7.46107,1.88001 -0.89903,0.7692 -2.5346,1.80445 -3.6346,2.30055 -2.08314,0.9395 68.84907,1.86577 71.28534,0.93088 1.04557,-0.40122 1.23906,-12.92085 1.0048,-65.01323 -0.15957,-35.48397 0.0506,-64.51616 0.46706,-64.51598 0.41645,1.7e-4 0.64145,29.58782 0.5,65.75032 l -0.25719,65.75001 -9,0 c -4.95,0 -48.26251,-0.11497 -96.25001,-0.25549 z m -30.71971,-5.24451 c 0.0599,-1.925 -0.33098,-4.22789 -0.86855,-5.11753 -1.7606,-2.91372 0.18327,-4.90262 8.57148,-8.77001 10.16565,-4.68688 14.76678,-8.72643 14.76678,-12.96445 0,-13.87611 -9.65847,-29.85184 -21.78899,-36.04037 -4.8482,-2.47336 -16.96845,-5.10572 -23.51361,-5.10683 -5.65832,-9.7e-4 -17.93187,2.61506 -22.19741,4.73123 -1.65,0.81857 -4.6875,3.10506 -6.75,5.08108 l -3.75,3.59277 0,28.32928 0,28.32928 2.25,0.84864 c 1.2375,0.46675 13.70733,0.78975 27.71073,0.71777 l 25.46074,-0.13086 0.10883,-3.5 z m -41.5303,-6.70623 c -2.33205,-0.85249 -6.04616,-4.51725 -7.59501,-7.49411 -2.4487,-4.70631 -1.7762,-7.76418 2.59501,-11.79966 4.39026,-4.05306 5.11867,-7.33094 2,-9 -1.1,-0.5887 -2,-1.50453 -2,-2.03518 0,-1.80157 2.14412,-0.97455 5.07692,1.95826 4.3075,4.30749 3.97762,8.07365 -1.05638,12.06065 -3.55143,2.81278 -3.95152,3.56905 -3.7197,7.031 0.14287,2.13356 0.60741,4.22685 1.03231,4.65176 0.42491,0.4249 0.44747,-0.11374 0.0501,-1.19697 -0.69363,-1.89104 -0.64279,-1.89979 1.27589,-0.21952 1.09907,0.9625 2.49323,1.75 3.09814,1.75 2.23714,0 4.24269,-3.24818 4.24269,-6.87143 0,-6.08309 3.81145,-7.82879 10.04966,-4.60289 2.94114,1.52092 3.32448,2.51424 2.98094,7.72432 -0.1583,2.40077 0.17747,2.74578 2.64404,2.71673 3.5348,-0.0416 7.24872,-3.05543 8.24608,-6.69161 0.85909,-3.1321 -0.52199,-8.22689 -2.26854,-8.36862 -0.6337,-0.0514 -3.33978,-0.17671 -6.01353,-0.27841 -3.74875,-0.14258 -5.2936,-0.71871 -6.75,-2.51728 -2.27721,-2.81224 -2.45183,-8.50734 -0.38249,-12.47512 0.82162,-1.57537 1.49384,-3.4667 1.49384,-4.20295 0,-3.09391 2.38789,-6.25384 5.35883,-7.09145 2.02444,-0.57076 3.70323,-2.00238 4.72215,-4.02693 1.07123,-2.1285 1.99594,-2.88486 2.86803,-2.34589 0.98362,0.60791 0.76561,1.3169 -0.92468,3.0072 -1.74544,1.74544 -2.08036,2.9121 -1.58855,5.53364 0.56584,3.01623 0.15153,3.78618 -4.50258,8.36746 -2.81916,2.77505 -4.9344,5.62552 -4.70051,6.33439 0.62326,1.88896 4.80146,3.75719 8.44059,3.7741 7.51708,0.0349 12.33775,9.26592 9.00472,17.24298 -2.06721,4.94753 -9.37561,9.24479 -14.34989,8.43758 -4.91056,-0.79688 -7.32811,-3.2395 -7.32811,-7.40414 0,-4.82424 -2.40964,-3.7016 -2.82384,1.31562 -0.50661,6.13648 -3.92271,8.6369 -9.17616,6.71647 z m 7.02022,-3.33154 c 0.59982,-1.12078 0.83023,-2.85806 0.51203,-3.86063 -0.33256,-1.0478 0.23293,-2.82498 1.32999,-4.17979 1.55596,-1.92154 2.18096,-2.13085 3.38326,-1.13303 0.8528,0.70776 1.28159,2.23429 1.01675,3.6197 -1.10841,5.79825 7.81655,8.6701 14.42393,4.64129 4.139,-2.52372 5.63936,-5.47004 5.55708,-10.91267 -0.0895,-5.91823 -3.08625,-8.91665 -10.00485,-10.01033 -9.10626,-1.43951 -10.60351,-5.04123 -4.74662,-11.41824 4.93292,-5.37099 5.99728,-7.58364 4.01409,-8.34466 -1.98447,-0.76151 -5.50588,2.32525 -5.50588,4.82629 0,1.03411 -0.63844,2.87687 -1.41876,4.09502 -1.34836,2.10492 -1.93592,5.19336 -1.69193,8.89339 0.20773,3.15004 3.04413,4.82143 8.18212,4.82143 6.08962,0 8.92857,2.37366 8.92857,7.4652 0,2.42467 -0.90131,4.49174 -3.00154,6.88378 -3.51421,4.00246 -5.93986,4.86382 -9.16403,3.2542 -1.82471,-0.91096 -2.26617,-1.84166 -2.02184,-4.26249 0.24107,-2.3884 -0.30463,-3.58257 -2.38486,-5.21888 -1.48359,-1.16699 -3.27962,-2.12181 -3.99116,-2.12181 -2.30611,0 -4.43657,3.06384 -4.43657,6.3803 0,4.58119 -2.0506,7.03434 -5.35242,6.40316 -2.1655,-0.41396 -2.45303,-0.25397 -1.53388,0.85354 1.7549,2.11453 6.6367,1.6979 7.90652,-0.67477 z m -8.9549,-14.01396 c 2.16407,-1.71398 3.93468,-3.77591 3.93468,-4.58207 0,-0.95139 -1.55162,-0.16875 -4.42161,2.23027 -4.41934,3.69411 -6.10119,6.79901 -4.78139,8.82707 0.40194,0.61762 0.83546,0.13117 1.01709,-1.14124 0.1741,-1.21974 2.08716,-3.62005 4.25123,-5.33403 z m 69.93469,26.55173 c 0.68469,-0.825 1.62566,-1.5 2.09106,-1.5 0.46539,0 0.58715,0.675 0.27056,1.5 -0.45288,1.1802 0.28239,1.5 3.44868,1.5 3.84405,0 4.10071,-0.20013 5.73082,-4.46849 1.29526,-3.39159 1.60518,-6.58829 1.286,-13.26434 -0.52526,-10.98626 -3.10606,-16.86143 -9.57726,-21.80256 -5.89087,-4.49801 -7.72286,-4.55553 -6.83552,-0.21461 2.29158,11.2105 2.24191,11.4991 -2.78513,16.18049 -2.74668,2.55783 -7.08276,5.24322 -10.57494,6.54921 -3.25562,1.21752 -6.70709,3.08417 -7.66994,4.14811 -1.62345,1.79389 -1.63134,2.05376 -0.10859,3.57651 1.52275,1.52275 1.71591,1.44783 2.65841,-1.03113 1.13435,-2.98357 3.49884,-3.50879 4.8585,-1.07921 0.78495,1.40262 1.62786,1.22253 7.02118,-1.5 6.60208,-3.33272 7.18617,-3.51862 7.18617,-2.28717 0,1.20408 -12.90227,7.10326 -17.5,8.00137 -3.3684,0.65797 -4,1.16903 -4,3.23658 0,1.93507 0.58262,2.52228 2.75,2.77166 1.87644,0.21591 2.75,-0.14226 2.75,-1.12755 0,-0.79419 0.72369,-2.04459 1.60821,-2.77868 1.35975,-1.12849 1.80165,-1.07016 2.86024,0.37756 1.7188,2.3506 2.73472,2.18405 8.5666,-1.40434 6.67727,-4.10856 7.61647,-2.9804 1.07859,1.2956 -2.79274,1.82654 -5.08579,3.65849 -5.09568,4.07099 -0.0345,1.4414 8.70852,0.78449 9.98204,-0.75 z m 32.37132,-1.52944 c 1.402,-1.66619 2.792,-4.59119 3.08889,-6.5 0.29688,-1.90881 0.8585,-5.15806 1.24804,-7.22056 0.69162,-3.66197 0.71573,-3.67957 1.02706,-0.75 0.17534,1.65 -0.30562,5.37472 -1.06881,8.27716 -0.76319,2.90244 -1.03847,5.49295 -0.61173,5.75669 1.54976,0.9578 6.9383,-4.77868 8.08546,-8.60755 0.64699,-2.15946 1.53515,-3.9263 1.9737,-3.9263 0.43854,0 0.14231,1.85658 -0.65829,4.12573 -0.8006,2.26915 -1.45564,4.29415 -1.45564,4.5 0,0.95124 7.17208,0.21542 12.0685,-1.23817 9.00593,-2.67356 16.99622,-7.29227 22.99732,-13.29337 8.06557,-8.06557 10.01644,-12.41518 10.96129,-24.43908 0.839,-10.67677 0.20115,-17.2568 -3.03044,-31.26206 -3.01609,-13.07131 -3.90641,-15.39306 -5.90277,-15.39306 -4.31609,0 -17.2389,11.25567 -25.65266,22.34326 -3.34881,4.41304 -11.44124,18.78139 -11.44124,20.31425 0,0.35175 3.88222,0.36558 8.62715,0.0307 9.66138,-0.68182 13.82232,0.45377 18.66751,5.09468 3.08512,2.95505 7.39999,10.85578 6.44841,11.80736 -0.33241,0.33242 -1.49942,-1.3519 -2.59334,-3.74294 -3.23776,-7.07691 -9.60805,-11.93549 -15.46483,-11.79489 -2.1386,0.0513 -2.13242,0.0884 0.29146,1.75001 4.81279,3.29916 9.02365,7.42243 9.02365,8.83594 0,0.79912 -1.33013,-0.0837 -3.01175,-1.99899 -1.65646,-1.8866 -5.12353,-4.42284 -7.70459,-5.63608 -8.04492,-3.78157 -20.39005,-1.8517 -28.68205,4.48372 -1.63942,1.25258 -1.7103,1.67708 -0.51962,3.11176 1.24661,1.50208 1.09124,1.59816 -1.62108,1.00244 -1.91025,-0.41957 -3.68057,-0.16111 -4.87404,0.71157 -1.8086,1.32248 -1.78167,1.50664 0.76946,5.26096 2.78219,4.09436 3.2154,5.42623 1.76498,5.42623 -0.48327,0 -1.44529,-1.36792 -2.13782,-3.03983 -1.30461,-3.14958 -4.47357,-5.96014 -6.72019,-5.96014 -0.83504,0 -0.37857,1.37982 1.29116,3.90295 2.7635,4.17592 5.49748,12.07885 5.36422,15.50598 -0.0447,1.15009 -1.11833,-1.17408 -2.3858,-5.16482 -2.3869,-7.51536 -6.63259,-14.24411 -8.98771,-14.24411 -1.05719,0 -0.92016,1.13923 0.6267,5.21024 2.86475,7.53939 3.48375,17.41736 1.46308,23.3477 -0.89923,2.63908 -1.63496,5.16818 -1.63496,5.6202 0,0.45202 4.01,0.82186 8.91111,0.82186 8.69284,0 8.97354,-0.0742 11.46021,-3.02944 z m 17.63007,-50.7768 c 7.7e-4,-0.38157 2.48623,-1.70627 5.52325,-2.94377 4.21579,-1.71782 7.51285,-2.25 13.9396,-2.25 4.62975,0 8.62632,0.3375 8.88126,0.75 0.25494,0.4125 -3.881,0.75034 -9.19098,0.75075 -7.82605,6.1e-4 -10.55412,0.41608 -14.40452,2.19377 -2.6125,1.20616 -4.74937,1.88082 -4.74861,1.49925 z m -66.31828,50.61874 c -0.31923,-0.79773 -0.55618,-0.56078 -0.60417,0.60417 -0.0434,1.05416 0.19293,1.64479 0.52522,1.3125 0.33229,-0.3323 0.36782,-1.1948 0.0789,-1.91667 z m -2.68311,-6.8125 c 0,-0.55 -0.19845,-1 -0.44099,-1 -0.24254,0 -0.71909,0.45 -1.05901,1 -0.33992,0.55 -0.14148,1 0.44098,1 0.58246,0 1.05902,-0.45 1.05902,-1 z m 37.71505,-28.36987 c -0.47873,-1.45553 -3.81446,-1.90143 -5.59317,-0.74766 -0.75796,0.49166 -1.11527,1.31921 -0.79402,1.839 0.81694,1.32184 6.84228,0.29233 6.38719,-1.09134 z m 6.99988,-2.32963 c 0.92766,-2.41745 -1.1286,-3.52477 -4.0628,-2.18786 -2.46567,1.12343 -3.36328,2.84287 -2.12863,4.07753 0.97625,0.97624 5.63761,-0.44644 6.19143,-1.88967 z m -15.71493,0.0771 c 0,-1.3288 -0.27149,-1.39713 -1.5,-0.37756 -0.825,0.68469 -1.5,1.41479 -1.5,1.62244 0,0.20766 0.675,0.37756 1.5,0.37756 0.825,0 1.5,-0.7301 1.5,-1.62244 z m 6.5,-2.40878 c 0,-0.71616 -0.4682,-1.45818 -1.04044,-1.64893 -1.60468,-0.53489 -4.85122,2.23741 -4.08051,3.48445 0.89206,1.44338 5.12095,-0.0724 5.12095,-1.83552 z m -2.83072,-3.21878 c 4.57692,-2.33751 8.32371,-4.58751 8.3262,-5.00001 0.002,-0.4125 -2.02048,-0.75 -4.49548,-0.75 -2.475,0 -4.5,-0.36917 -4.5,-0.82037 0,-0.4512 3.59134,-3.2637 7.98075,-6.25 7.65916,-5.21084 9.98659,-7.64255 6.26925,-6.55013 -0.9625,0.28285 -5.35,1.22974 -9.75,2.10419 -4.4,0.87446 -8.82886,1.84182 -9.84192,2.14968 -3.44295,1.0463 -1.29642,-2.00565 6.42379,-9.13337 4.17003,-3.85 11.96637,-11.03872 17.32519,-15.97494 5.35883,-4.93621 9.26415,-9.13466 8.67849,-9.32988 -0.58566,-0.19522 -5.907,1.54531 -11.82519,3.86783 -12.39089,4.86266 -26.24183,9.28886 -26.92617,8.60452 -0.57398,-0.57399 3.59127,-8.9037 7.66207,-15.32268 3.91753,-6.17731 4.00842,-8.23925 0.25374,-5.75633 -9.6461,6.37885 -24.46234,15.41148 -25.27947,15.41148 -1.2084,0 -1.23847,0.65107 0.45028,-9.74956 2.4124,-14.85732 2.79173,-20.4871 1.34847,-20.01313 -0.6981,0.22926 -5.21205,5.09222 -10.03099,10.80656 -12.39487,14.69797 -13.10706,14.81906 -11.55278,1.96425 0.49821,-4.12054 0.77279,-9.29554 0.61016,-11.5 l -0.29568,-4.00812 -4.12608,7.5 c -2.26935,4.125 -5.15541,9.975 -6.41347,13 -1.25805,3.025 -2.6155,5.87918 -3.01654,6.34263 -0.95453,1.10307 -2.55932,-9.52707 -3.97682,-26.34263 -1.17904,-13.98666 -2.18949,-17.50636 -3.3912,-11.8125 -0.84139,3.98662 -5.26535,27.82779 -6.78452,36.5625 -0.59786,3.4375 -1.39446,6.25 -1.77022,6.25 -0.86961,0 -2.09658,-2.64909 -5.55798,-12 -5.12316,-13.84012 -10.10168,-25.15177 -11.03635,-25.07557 -0.50975,0.0416 -0.88932,3.00057 -0.84349,6.57557 0.0458,3.575 0.15834,18.2229 0.25,32.55089 l 0.16667,26.05089 3.29219,-2.51107 c 7.24946,-5.52944 14.45068,-7.90747 25.42342,-8.39548 18.18628,-0.80883 29.20424,2.76917 38.30455,12.4391 3.03608,3.22612 6.63039,7.9939 7.98735,10.59508 1.95532,3.74817 3.29975,5.01874 6.47986,6.12392 5.64309,1.96114 5.02089,2.07535 14.18192,-2.60332 z m 19.33072,-0.0822 c 0,-0.49556 -1.0125,-0.62968 -2.25,-0.29805 -1.2375,0.33164 -2.5875,0.60913 -3,0.61664 -0.4125,0.008 -0.75,0.93909 -0.75,2.07019 0,2.01218 0.0647,2.01831 3,0.28439 1.65,-0.97468 3,-2.17761 3,-2.67317 z m -9.64638,1.31622 c 0.4715,-0.43703 0.4715,-1.45136 0,-2.2659 -1.24731,-2.15479 -5.35362,-0.37754 -5.35362,2.31708 0,1.71213 0.41524,1.97416 2.25,1.41983 1.2375,-0.37388 2.63413,-1.03583 3.10362,-1.47101 z m 7.62799,-6.01835 c -0.57859,-1.0811 -1.4164,-1.96564 -1.86181,-1.96564 -1.63023,0 -4.34508,3.97055 -3.75905,5.49774 0.54832,1.42889 0.87997,1.42915 3.63808,0.003 2.58059,-1.33449 2.87732,-1.86351 1.98278,-3.53498 z m 8.01839,2.44187 2.5,-1.52163 -3,0.62782 c -1.65,0.34531 -3.4275,1.04598 -3.95,1.55707 -1.54082,1.50714 1.67045,1.02852 4.45,-0.66326 z m -0.93426,-2.44269 c 2.14948,-1.15037 2.32064,-1.80609 1.01131,-3.8744 -0.74502,-1.17687 -1.40283,-1.19812 -3.98469,-0.12868 -2.94115,1.21827 -3.88251,2.91478 -2.42569,4.37159 0.96876,0.96877 3.1827,0.81765 5.39907,-0.36851 z m -9.1922,-3.54592 c 0.20544,-0.18295 0.0952,-1.05808 -0.24508,-1.94472 -0.63717,-1.66045 -4.02417,-1.2842 -6.1201,0.67986 -2.15564,2.02 4.1174,3.26655 6.36518,1.26486 z m 15.94451,-0.9189 c 1.25179,-2.74738 0.37106,-3.20676 -2.84655,-1.48475 -1.10367,0.59067 -1.65875,1.63619 -1.32727,2.5 0.86988,2.26687 2.9038,1.77214 4.17382,-1.01525 z m -24.08888,0.89583 c -0.3323,-0.33229 -1.1948,-0.36781 -1.91667,-0.0789 -0.79773,0.31922 -0.56078,0.55618 0.60417,0.60416 1.05416,0.0434 1.64479,-0.19293 1.3125,-0.52522 z m 14.12161,-1.49366 c 3.13029,-1.09122 4.11618,-3.18652 2.08886,-4.43947 -1.43958,-0.88971 -6.93964,1.48158 -6.93964,2.99195 0,1.02856 0.90426,2.54535 1.51744,2.54535 0.10126,0 1.60126,-0.49402 3.33334,-1.09783 z m -8.32432,-3.70904 c -0.30789,-0.30789 -1.11479,-6.4e-4 -1.79313,0.68278 -0.98026,0.98762 -0.8654,1.10248 0.5598,0.5598 0.98622,-0.37553 1.54122,-0.93469 1.23333,-1.24258 z m 16.96548,0.62859 c 3.29189,-1.49989 2.92038,-4.43541 -0.51167,-4.04298 -3.10579,0.35512 -4.40896,1.66173 -3.64444,3.65404 0.72072,1.87817 0.85917,1.89112 4.15611,0.38894 z m -10.64116,-1.91955 c 3.07512,-1.07199 4.12309,-3.18225 2.17747,-4.38471 -1.32432,-0.81847 -6.02825,2.37891 -6.02825,4.09755 0,1.6649 -0.0835,1.65867 3.85078,0.28716 z m 16.56911,-4.03179 c -0.7889,-1.27647 -2.41989,-0.0558 -2.41989,1.81108 0,1.27119 0.27832,1.33244 1.48899,0.32768 0.81894,-0.67967 1.23785,-1.64211 0.9309,-2.13876 z m -8.10415,0.99417 c 2.91794,-1.51685 2.81531,-1.35948 2.10081,-3.22142 -0.72375,-1.88606 -2.69182,-2.10136 -5.495,-0.60114 -1.56399,0.83701 -1.74084,1.42715 -0.89908,3 1.22352,2.28617 1.40928,2.32176 4.29327,0.82256 z m 9.93426,-3.56183 c 0.88638,-0.49727 1.00417,-3.71521 0.16665,-4.55273 -0.8844,-0.8844 -6.93109,1.92293 -6.81665,3.16481 0.055,0.59686 0.1675,1.54377 0.25,2.10425 0.1342,0.91169 4.33644,0.44135 6.4,-0.71633 z m -35.25,-0.30272 c 0,-0.55 -0.19844,-1 -0.44098,-1 -0.24254,0 -0.7191,0.45 -1.05902,1 -0.33992,0.55 -0.14148,1 0.44098,1 0.58246,0 1.05902,-0.45 1.05902,-1 z m 16.76817,-2.80452 c 0.48577,-1.45731 -0.79355,-1.51653 -4.26324,-0.19735 -1.44391,0.54897 -2.37105,1.40947 -2.06033,1.91224 0.74123,1.19932 5.81041,-0.17539 6.32357,-1.71489 z m -11.34996,1.19753 c 1.89694,-0.72792 2.13204,-4.39301 0.28179,-4.39301 -1.67231,0 -3.7,2.02769 -3.7,3.7 0,1.42413 0.98994,1.62483 3.41821,0.69301 z m 18,0 c 1.54428,-0.59259 2.1635,-3.47797 0.99678,-4.64469 -0.78999,-0.78999 -6.41499,1.22661 -6.41499,2.29982 0,0.46886 0.7875,1.31116 1.75,1.87176 2.13793,1.24523 1.77731,1.19872 3.66821,0.47311 z m -10.71526,-2.59549 c 1.53838,-0.66137 2.92014,-1.27196 3.07059,-1.35687 0.96396,-0.54408 -1.30016,-3.44065 -2.6894,-3.44065 -2.7284,0 -5.48506,2.51284 -4.778,4.35539 0.75418,1.96538 0.83478,1.97348 4.39681,0.44213 z m 18.34671,-0.3232 c 4.77947,-2.47156 3.52943,-4.94014 -1.94695,-3.84486 -2.93853,0.5877 -4.17147,2.96845 -2.43604,4.70387 0.9041,0.90411 1.01585,0.88221 4.38299,-0.85901 z m 8.45034,-0.47432 c 0.33992,-0.55 -0.0835,-1 -0.94098,-1 -0.85746,0 -1.55902,0.45 -1.55902,1 0,0.55 0.42344,1 0.94098,1 0.51754,0 1.2191,-0.45 1.55902,-1 z m -16.81776,-3.5955 c 0.15689,-0.49748 -0.0857,-1.49003 -0.53914,-2.20567 -0.65878,-1.03979 -1.3586,-1.05777 -3.48374,-0.0895 -2.93929,1.33922 -3.19936,1.95065 -1.53689,3.61312 1.18811,1.18811 5.05882,0.27054 5.55977,-1.31797 z m 17.06776,0.96521 c 2.17059,-0.58169 3.31062,-4.36971 1.3151,-4.36971 -2.3926,0 -6.0651,2.10431 -6.0651,3.47525 0,1.63337 1.17039,1.85376 4.75,0.89446 z m -28.33179,-1.9767 c 0.86999,-0.33384 1.58179,-1.23384 1.58179,-2 0,-1.71081 -1.19952,-1.79349 -2.8,-0.19301 -2.182,2.182 -1.57951,3.2666 1.21821,2.19301 z m 20.22923,-0.70712 c 0.99726,-0.99726 -1.05988,-3.68589 -2.82017,-3.68589 -3.18801,0 -5.82042,1.85428 -5.14205,3.62208 0.45999,1.19872 1.46871,1.45235 4.08667,1.02751 1.91175,-0.31023 3.65575,-0.7439 3.87555,-0.9637 z m 13.35256,-1.68589 c 0,-0.55 -0.47656,-1 -1.05902,-1 -0.58246,0 -0.7809,0.45 -0.44098,1 0.33992,0.55 0.81648,1 1.05902,1 0.24254,0 0.44098,-0.45 0.44098,-1 z m -25.64153,-0.58406 c 1.22581,-0.47039 1.3078,-1.05428 0.42127,-3 -1.34178,-2.94491 -3.33813,-3.10962 -4.7908,-0.39527 -1.75354,3.27652 0.37297,4.92889 4.36953,3.39527 z M 687.621,411.507 c 0.80851,-0.8085 -1.03663,-3.63271 -2.37335,-3.63271 -2.73457,0 -5.27439,1.97422 -4.64612,3.61147 0.44747,1.16608 1.40265,1.42177 3.63984,0.97433 1.66825,-0.33365 3.18908,-0.76254 3.37963,-0.95309 z m -12.95062,-1.263 c 2.39404,-0.64157 2.97779,-3.24192 1.14027,-5.07944 -1.20967,-1.20967 -6.89027,0.21312 -6.89027,1.72577 0,3.50815 1.62876,4.45812 5.75,3.35367 z m 18.70295,-0.53023 c 4.83209,-2.20164 2.76007,-5.5069 -2.33808,-3.72968 -3.39302,1.18281 -3.74464,1.86043 -1.91487,3.6902 1.45474,1.45474 1.15295,1.45194 4.25295,0.0395 z m -8.68456,-3.27454 c 0.91656,-0.91656 -1.00277,-4.56494 -2.40152,-4.56494 -3.03615,0 -5.20332,1.90942 -4.63477,4.08353 0.45779,1.75061 1.06833,2.00638 3.58688,1.50267 1.66935,-0.33387 3.22159,-0.79343 3.44941,-1.02126 z m -45.46646,-3.22049 c -0.55969,-1.45854 -0.7608,-1.43739 -1.96276,0.20638 -1.91959,2.6252 -1.6515,3.68669 0.62359,2.4691 1.25064,-0.66932 1.73651,-1.64004 1.33917,-2.67548 z m 61.86934,2.00056 c 2.713,-2.45523 2.22083,-3.37765 -1.17126,-2.19517 -2.97854,1.03833 -3.61294,1.90388 -2.33333,3.18349 0.98216,0.98217 1.48344,0.8408 3.50459,-0.98832 z m -10.32049,-0.44284 c 3.50519,-1.22191 3.7262,-1.73084 1.86002,-4.283 -0.94826,-1.29682 -2.0086,-1.58253 -4.00945,-1.08035 -3.4395,0.86326 -4.07239,1.89937 -2.71241,4.44051 1.27038,2.37374 0.90095,2.30362 4.86184,0.92284 z m -19.41588,-0.87742 c 1.41081,-0.53639 2.5651,-1.43639 2.5651,-2 0,-1.70825 -2.57687,-1.14979 -4.5,0.97525 -2.04108,2.25537 -1.73218,2.41897 1.9349,1.02475 z m -26.01669,-0.63174 c 1.72857,-0.66331 2.1232,-2.94036 0.66571,-3.84115 -1.70997,-1.05682 -6.08531,1.28094 -5.45783,2.91613 0.62227,1.62161 2.18883,1.924 4.79212,0.92502 z m 56.00817,-2.44014 c 0.56516,-0.55249 0.25051,-1.65243 -0.80693,-2.82089 -1.45327,-1.60584 -2.19205,-1.74211 -4.57284,-0.84347 -2.54195,0.95948 -2.72586,1.32135 -1.75472,3.45278 0.87131,1.91231 1.58908,2.25659 3.64649,1.74908 1.4089,-0.34754 2.9785,-1.03942 3.488,-1.5375 z m -45.86552,-2.05134 c 1.151,-1.86236 -0.61411,-2.74665 -3.71016,-1.85871 -3.85542,1.10572 -4.24715,1.48167 -3.51953,3.37782 0.46962,1.22379 1.15072,1.30733 3.62538,0.44466 1.67592,-0.58423 3.29786,-1.46792 3.60431,-1.96377 z m 25.29239,2.21033 c 1.0982,-0.6959 1.11979,-1.30552 0.11454,-3.23469 -1.7652,-3.38758 -1.75157,-3.38282 -3.96166,-1.38272 -2.76739,2.50445 -2.63389,5.50982 0.24387,5.49024 1.2375,-0.008 2.85896,-0.4012 3.60325,-0.87283 z m 9.14675,-3.66263 c 0,-0.19532 -0.50123,-1.45519 -1.11383,-2.79972 -0.97718,-2.14466 -1.48462,-2.33827 -4.13582,-1.57791 -4.09619,1.17477 -4.2688,1.4882 -2.39479,4.3483 1.45144,2.21517 1.95031,2.36943 4.63546,1.43339 1.65494,-0.57692 3.00898,-1.20875 3.00898,-1.40406 z m 17.66814,0.97323 c 0.92262,-2.40431 -1.72096,-4.39638 -4.44136,-3.34679 -1.99293,0.76892 -2.1174,1.12659 -1.00945,2.9007 1.5047,2.40941 4.6002,2.66274 5.45081,0.44609 z m -62.66814,-2.79098 c 0,-2.25165 -1.25261,-2.66576 -2.61932,-0.86594 -2.10172,2.76777 -1.76775,4.51198 0.61932,3.23446 1.1,-0.5887 2,-1.65453 2,-2.36852 z m -24.19713,-1.00876 c -0.41018,-2.8748 -2.22694,-2.29199 -2.6187,0.84007 -0.24759,1.97935 0.034,2.39074 1.30287,1.90381 0.94945,-0.36434 1.49348,-1.49879 1.31583,-2.74388 z m 41.18877,2.40361 c 1.1173,-0.70638 1.2053,-1.22939 0.35066,-2.08403 -1.45158,-1.45158 -5.3423,-0.26806 -5.3423,1.62509 0,1.62184 2.75203,1.87487 4.99164,0.45894 z m 50.41732,0.12099 c 0.28984,-0.46897 -0.10331,-1.70647 -0.87366,-2.75 -1.0966,-1.48546 -1.66655,-1.63518 -2.62559,-0.6897 -0.9664,0.95273 -0.95476,1.53316 0.0551,2.75 1.42996,1.72299 2.65402,1.96812 3.44412,0.6897 z m -58.66556,-2.14732 c 0.78468,0 0.0607,-2.88565 -1.13385,-4.5193 -1.19361,-1.63235 -1.7599,-1.73323 -4,-0.71257 -1.73732,0.79158 -2.60955,1.97607 -2.60955,3.54376 0,3.24717 0.66225,3.64537 4.31867,2.59672 1.74247,-0.49974 3.2836,-0.90861 3.42473,-0.90861 z m 43.58871,0.005 c 0.45766,-0.42334 0.23266,-1.74015 -0.5,-2.92625 -1.00602,-1.62866 -1.94407,-2.00737 -3.83211,-1.54714 -3.87301,0.94411 -4.56922,2.18143 -2.50859,4.4584 1.78357,1.97082 4.71936,1.97726 6.8407,0.015 z m -71.19303,-0.63137 c 1.37199,-1.24163 1.55792,-2.07177 0.78675,-3.51271 -0.84627,-1.58128 -1.36739,-1.7009 -3.21782,-0.73868 -3.05279,1.58745 -2.99748,1.46787 -1.75385,3.79161 1.34422,2.5117 1.85551,2.56787 4.18492,0.45978 z m 42.68967,-0.70534 c 0.27033,-1.41772 -0.17665,-1.75642 -1.97957,-1.5 -1.29371,0.184 -2.48395,1.14511 -2.67793,2.16242 -0.27033,1.41772 0.17665,1.75642 1.97957,1.5 1.29371,-0.184 2.48395,-1.14511 2.67793,-2.16242 z m 35.72072,-0.74882 c 0.28506,-0.46124 -0.0594,-1.77431 -0.76558,-2.91794 -0.96291,-1.5595 -1.90837,-1.92435 -3.78183,-1.4594 -3.41261,0.84693 -3.50014,1.04824 -1.6702,3.84109 1.55933,2.37983 4.90014,2.66797 6.21761,0.53625 z m -45.11399,-0.24914 c 1.50634,-1.10146 1.61871,-1.70105 0.65595,-3.5 -1.24517,-2.32661 -2.72624,-2.68761 -5.03457,-1.22713 -1.16835,0.73921 -1.22004,1.40275 -0.27144,3.48469 1.33108,2.92141 2.08021,3.12157 4.65006,1.24244 z m 18.56452,-1.79954 c 0,-1.64435 -3.0477,-2.17009 -5.66553,-0.97732 -2.02667,0.92341 -2.30363,1.43876 -1.37474,2.558 0.89689,1.08069 1.83608,1.16707 4.10175,0.37725 1.61619,-0.5634 2.93852,-1.44447 2.93852,-1.95793 z m 32.00001,-0.0435 c 0,-2.47495 -2.07575,-4.62022 -3.98691,-4.12044 -2.41508,0.63156 -2.48119,1.17985 -0.48572,4.02878 1.46717,2.09469 4.47263,2.15628 4.47263,0.0917 z m -109.17888,-0.91247 c 1.14836,-1.83881 1.08951,-2.04424 -0.49797,-1.73852 -0.99011,0.19068 -1.95086,1.12902 -2.13501,2.0852 -0.45939,2.38543 1.05095,2.18656 2.63298,-0.34668 z m 32.04063,0.46947 c 3.00222,-2.10284 1.44739,-3.83251 -2.19892,-2.44618 -2.63658,1.00242 -3.28541,2.10601 -1.99617,3.39524 0.98562,0.98563 1.64634,0.83616 4.19509,-0.94906 z m 52.94002,-1.91998 c -1.25814,-2.76132 -1.61852,-2.86466 -5.21758,-1.4963 -3.33582,1.26827 -2.45658,4.46778 0.99005,3.60273 1.26675,-0.31793 2.58685,-0.11907 2.93356,0.44192 1.27312,2.05994 2.39076,-0.14116 1.29397,-2.54835 z m -99.96764,-0.404 c 0.22704,-1.55126 -0.0935,-2.14211 -1,-1.84334 -0.73378,0.24184 -1.48451,1.46708 -1.66829,2.72276 -0.22704,1.55126 0.0935,2.14211 1,1.84334 0.73378,-0.24184 1.48451,-1.46708 1.66829,-2.72276 z m 81.15055,1.18971 c -0.0263,-3.0029 -1.56835,-4.51692 -3.85984,-3.78963 -2.02842,0.6438 -2.87114,3.46001 -1.45818,4.87296 1.45363,1.45364 5.3333,0.66331 5.31802,-1.08333 z m 25.85748,-0.13129 c 1.11944,-0.7095 1.12101,-1.20481 0.009,-2.98469 -2.35531,-3.77145 -7.98386,-2.11816 -5.91968,1.73881 1.18123,2.20714 3.5918,2.7153 5.91023,1.24588 z m -67.89903,-1.06241 c 1.16835,-0.73921 1.22003,-1.40275 0.27144,-3.48469 -1.30723,-2.86905 -3.35512,-3.31213 -5.17476,-1.1196 -2.75775,3.32289 1.14153,6.98437 4.90332,4.60429 z m 26.05686,-2.20812 c 0,-1.60867 -0.32303,-1.74567 -2,-0.84818 -1.1,0.5887 -2,1.68741 -2,2.44156 0,0.87887 0.7181,1.18341 2,0.84819 1.12329,-0.29375 2,-1.36402 2,-2.44157 z m 23.91039,1.57476 c 0.22797,-0.22797 -0.0842,-1.509 -0.69371,-2.84674 -0.90115,-1.97779 -1.58191,-2.30556 -3.64343,-1.75422 -2.64812,0.70822 -2.99951,1.43998 -2.18576,4.5518 0.39315,1.50337 1.04533,1.7344 3.29921,1.16872 1.54506,-0.38779 2.99572,-0.89159 3.22369,-1.11956 z m -35.35152,-0.95234 c 1.87978,-1.48106 1.8646,-1.52057 -0.48054,-1.25 -1.33192,0.15367 -2.60692,0.8419 -2.83334,1.5294 -0.56019,1.701 0.96337,1.57254 3.31388,-0.2794 z m 59.79961,0.94534 c 1.22581,-0.47039 1.3078,-1.05428 0.42127,-3 -1.12806,-2.47584 -3.23505,-3.0473 -5.633,-1.5278 -1.05552,0.66886 -1.10278,1.3255 -0.21481,2.98469 1.15642,2.16079 2.68452,2.59532 5.42654,1.54311 z m -97.55561,-3.71489 c -0.44512,-3.00453 -2.47761,-3.1829 -3.03514,-0.26636 -0.5642,2.95142 -0.11505,3.63582 1.8829,2.86913 0.80031,-0.30711 1.31882,-1.47835 1.15224,-2.60277 z m 31.10752,1.72189 c 0.80089,-0.80089 -1.88195,-5.42277 -3.13895,-5.40763 -2.717,0.0327 -3.89323,1.65128 -3.20185,4.40593 0.59092,2.35444 1.04732,2.64074 3.30594,2.07386 1.4412,-0.36172 2.80689,-0.84419 3.03486,-1.07216 z m 24.34578,-0.47245 c 0.37068,-1.54844 -1.29117,-4.94796 -2.41255,-4.93518 -3.02081,0.0344 -4.00312,1.54051 -2.76999,4.24694 0.9032,1.98231 1.62812,2.41371 3.12533,1.85985 1.07216,-0.39661 1.9979,-0.92384 2.05721,-1.17161 z m 24.59708,0.16137 c 1.67995,-1.06454 -0.14634,-5.11186 -2.30665,-5.11186 -4.06927,0 -5.74423,2.40237 -3.3466,4.8 1.39953,1.39953 3.7336,1.52829 5.65325,0.31186 z m 23.7091,-0.21273 c 1.03847,-1.68028 -3.26906,-5.59241 -4.64387,-4.2176 -0.805,0.805 -0.79849,1.67414 0.0241,3.21111 1.21834,2.27649 3.52439,2.7789 4.6198,1.00649 z m -120.11422,-0.81521 c 0.77284,-1.25048 -1.15245,-6.08392 -2.42339,-6.08392 -1.13335,0 -1.36149,2.95888 -0.41776,5.41821 0.67534,1.7599 1.97648,2.06477 2.84115,0.66571 z m 22.11421,-3.98306 c -1.85895,-3.00783 -5.46058,0.11598 -4.13039,3.58242 0.58359,1.52079 0.84695,1.48226 2.72835,-0.39914 1.14532,-1.14532 1.77624,-2.5778 1.40204,-3.18328 z m 32.04739,2.7216 c 0.79044,-1.27897 -0.42976,-5.82246 -1.56368,-5.82246 -0.50372,0 -2.08462,0.44436 -3.51311,0.98747 -2.51099,0.95468 -2.54703,1.0846 -1.08512,3.91162 1.13009,2.18535 2.02643,2.78965 3.54774,2.39182 1.11958,-0.29278 2.29596,-0.95358 2.61417,-1.46845 z m 24.631,0.27441 c 1.17861,-1.07933 -2.16226,-5.09687 -4.23842,-5.09687 -2.63543,0 -3.22517,1.41677 -1.84795,4.43943 0.90289,1.98165 1.66858,2.44221 3.2627,1.96254 1.14562,-0.34472 2.41627,-0.93201 2.82367,-1.3051 z m 24.10258,-0.35864 c 1.49582,-1.09377 1.54198,-1.51284 0.34672,-3.14746 -1.01841,-1.39276 -2.06596,-1.71323 -4.00741,-1.22596 -2.38831,0.59942 -2.52496,0.88711 -1.49508,3.14746 1.26506,2.77649 2.6009,3.09413 5.15577,1.22596 z m -97.34332,-5.34902 c 0,-1.56821 -1.81418,-1.79292 -3.88534,-0.48123 -0.9617,0.60905 -1.16526,1.75114 -0.66564,3.73468 l 0.71971,2.85734 1.91564,-2.36079 c 1.0536,-1.29843 1.91563,-2.98593 1.91563,-3.75 z m 55.42625,3.63883 c 2.30617,-0.8768 2.44368,-1.21944 1.40458,-3.5 -1.16416,-2.55507 -4.07552,-3.29385 -6.61957,-1.67976 -0.96124,0.60986 -1.03106,1.49544 -0.27476,3.48469 1.11681,2.93741 1.72678,3.12575 5.48975,1.69507 z m 24.42701,0.0838 c 2.28322,-1.44681 -0.38517,-5.11186 -3.72177,-5.11186 -3.77685,0 -4.31532,0.78978 -2.46442,3.61462 1.61134,2.45921 3.82325,2.99456 6.18619,1.49724 z m 23.60099,-0.0945 c 2.29105,-0.87105 2.44142,-1.21162 1.32456,-3 -1.30953,-2.09688 -5.21207,-2.7434 -6.26603,-1.03806 -0.55846,0.90361 1.04658,5.02066 1.95731,5.02066 0.21985,0 1.56272,-0.44217 2.98416,-0.9826 z m -71.9269,-3.93126 c -1.25788,-3.96321 -2.50577,-0.96963 -1.61068,3.86386 0.0458,0.2475 0.57804,-0.0447 1.18267,-0.64934 0.60464,-0.60463 0.79724,-2.05117 0.42801,-3.21452 z m 30.4158,1.97016 c 1.16835,-0.73921 1.22004,-1.40275 0.27144,-3.48469 -1.26668,-2.78006 -1.92925,-3.03778 -4.16837,-1.62134 -1.24603,0.78823 -1.25761,1.28621 -0.081,3.48469 1.5092,2.81995 1.85849,2.96232 3.97795,1.62134 z m 24.60045,-0.0729 c 2.21818,-0.84335 2.464,-1.26935 1.44266,-2.5 -1.33456,-1.60805 -6.98625,-2.06529 -6.98625,-0.56522 0,1.67845 1.20225,4.08179 2.04189,4.08179 0.45535,0 2.03112,-0.45746 3.5017,-1.01657 z m 22.95642,-0.95778 c 0,-1.53397 -3.12198,-3.737 -4.02132,-2.83766 -0.88339,0.88338 1.8066,4.88358 3.0135,4.48128 0.5543,-0.18476 1.00782,-0.92439 1.00782,-1.64362 z m -94.6962,-2.8978 c -0.18613,-1.59946 -1.02283,-2.74723 -2.16003,-2.96308 -2.77992,-0.52766 -3.87165,1.1057 -2.73583,4.09312 0.74958,1.97156 1.48179,2.45295 3.09097,2.03214 1.58069,-0.41336 2.03262,-1.20516 1.80489,-3.16218 z m 23.0532,2.98168 c 0.8736,-0.55354 1.10719,-1.64697 0.65572,-3.06943 -0.5733,-1.80629 -1.18566,-2.08802 -3.35497,-1.54356 -3.45432,0.86698 -3.51685,0.96397 -2.2036,3.41781 1.1888,2.22129 2.70147,2.59004 4.90285,1.19518 z m 30.60968,-1.46151 c 1.73768,-1.27063 1.6819,-1.39391 -0.92687,-2.04867 -3.19856,-0.80279 -4.03007,-0.31932 -3.19474,1.85752 0.7282,1.89766 1.72462,1.94387 4.12161,0.19115 z m 26.53331,-1.14221 c 0,-2.42512 -2.51099,-3.58387 -4.5443,-2.09708 -1.53904,1.12537 -1.65357,1.64793 -0.63119,2.87982 1.41657,1.70686 5.17549,1.13836 5.17549,-0.78274 z m -50.15161,0.60905 c 1.92941,-1.22272 0.99629,-4.56794 -1.35861,-4.87059 -2.96014,-0.38044 -4.49142,1.03345 -3.83555,3.54151 0.5946,2.27376 2.80927,2.84045 5.19416,1.32908 z m -47.78265,-1.15005 c 1.98397,-1.06179 2.67562,-5.38859 1.0245,-6.40904 -2.56758,-1.58685 -5.62824,2.1738 -4.54553,5.58511 0.68438,2.15631 0.92587,2.21282 3.52103,0.82393 z m 24.38239,0.1191 c 0.3114,-0.50384 0.13765,-2.04317 -0.38609,-3.42073 -0.71159,-1.87162 -1.47162,-2.36884 -3.00716,-1.96728 -1.99607,0.52198 -2.88674,4.13891 -1.38822,5.63743 0.97713,0.97713 4.12491,0.81293 4.78147,-0.24942 z m 77.97008,0.3091 c 2.15606,-0.82736 1.98616,-2.71709 -0.44184,-4.9144 -2.81745,-2.54975 -4.83052,-0.64869 -3.17068,2.99426 1.26149,2.76867 1.3201,2.79983 3.61252,1.92014 z m -46.83642,-1.39301 c 2.78241,0 1.36036,-2.76157 -1.74151,-3.38195 -3.78185,-0.75637 -4.23414,-0.43435 -3.34125,2.37891 0.43481,1.36995 1.22174,1.94043 2.1731,1.57536 0.82029,-0.31478 2.12964,-0.57232 2.90966,-0.57232 z m 38.07489,-2.82485 c 7.44666,-3.79901 19.28776,-19.06475 19.33356,-24.92515 0.005,-0.6875 0.45977,-1.25 1.00977,-1.25 0.55,0 1,0.45 1,1 0,0.55 1.28248,1 2.84996,1 3.55318,0 10.18917,-4.70921 12.96498,-9.20057 2.72571,-4.41029 3.85781,-11.2839 2.18956,-13.29402 -1.80376,-2.17339 -6.00913,-1.84969 -8.69005,0.6689 -2.95965,2.78045 -2.9215,1.4472 0.15783,-5.51571 2.6372,-5.96318 3.42484,-13.97109 2.10571,-21.40861 l -0.75379,-4.25 -21.91211,0 c -17.94512,0 -21.9121,0.24939 -21.9121,1.37756 0,2.85441 3.23152,4.01749 12.33896,4.441 11.15215,0.51861 16.15626,2.60666 17.15605,7.15868 0.84263,3.83646 1.9265,3.8336 3.51828,-0.009 2.06016,-4.97367 2.12772,-2.73086 0.0937,3.11223 -1.54764,4.44599 -2.0228,5.06047 -2.64447,3.41984 -4.18917,-11.0557 -5.50172,-11.91996 -18.32854,-12.06871 l -9.51753,-0.11037 -3.16422,-3.66046 c -2.88474,-3.3372 -3.62247,-3.66047 -8.35352,-3.66047 l -5.18934,0 0.61906,3.29987 c 0.51285,2.7337 -0.32647,5.10273 -4.89182,13.80753 -3.03099,5.77921 -6.04259,12.61927 -6.69246,15.20013 -1.30601,5.18661 -3.52813,6.6278 -2.41667,1.56737 0.43208,-1.96725 0.3205,-2.89898 -0.30115,-2.51478 -1.67496,1.03518 -2.12345,5.74213 -0.60273,6.32569 0.75702,0.29049 1.3764,1.2799 1.3764,2.19868 0,0.91877 0.69102,2.65707 1.5356,3.86287 1.28417,1.83343 2.38933,2.1604 6.75,1.9971 2.86792,-0.1074 5.96711,0.16595 6.88708,0.60745 2.25263,1.08105 6.05539,-2.73899 5.6378,-5.6634 -0.24309,-1.70236 -0.92316,-2.14669 -3.0615,-2.00024 -1.51194,0.10354 -2.74898,-0.20363 -2.74898,-0.68261 0,-1.51793 4.03612,-2.22057 5.54799,-0.96583 1.73722,1.44176 1.92495,7.08723 0.29005,8.72214 -0.69105,0.69104 -1.19764,4.72355 -1.25,9.95 -0.0774,7.72933 -0.42441,9.36028 -2.88019,13.53804 -1.53569,2.6125 -3.43012,4.75 -4.20986,4.75 -0.82046,0 -1.90319,-1.79044 -2.5701,-4.25 -2.54659,-9.39178 -2.7265,-9.62733 -7.20275,-9.43016 -3.61193,0.1591 -4.27332,-0.17055 -5.65761,-2.81984 -0.86214,-1.65 -1.66128,-3.16875 -1.77586,-3.375 -0.11459,-0.20625 -1.38801,-0.375 -2.82983,-0.375 -1.66986,0 -3.98623,1.33263 -6.381,3.67105 -4.35093,4.24858 -5.56277,3.67096 -6.65719,-3.17314 -1.03057,-6.44484 0.25158,-10.82231 4.46812,-15.2548 3.24125,-3.40727 4.40813,-3.99312 7.95339,-3.99312 2.9653,0 4.15484,-0.41567 4.15484,-1.45186 0,-0.79852 1.55225,-2.95938 3.44944,-4.80191 3.07979,-2.99106 5.55056,-7.32846 5.55056,-9.74394 0,-0.47713 -1.0125,-1.17606 -2.25,-1.55318 -2.70441,-0.82415 -5.75,-3.36266 -5.75,-4.79266 0,-0.56846 0.91753,-0.0487 2.03895,1.15499 1.33888,1.43711 3.22732,2.18856 5.50001,2.18856 4.26747,0 4.46154,-1.34294 0.43509,-3.01075 -3.68408,-1.52599 -6.68235,-5.52592 -7.13654,-9.52072 -0.28565,-2.51237 -0.82249,-3.01561 -3.49363,-3.27489 -2.58238,-0.25066 -3.61032,0.2947 -5.65458,3 -4.46764,5.9123 -6.59164,11.15035 -8.03138,19.80636 -1.33866,8.04832 -1.42027,8.22448 -1.53586,3.3151 -0.0671,-2.85169 0.34538,-6.41436 0.91669,-7.91703 0.77765,-2.04536 0.72139,-2.92827 -0.22379,-3.51243 -0.95864,-0.59247 -0.76153,-1.33459 0.81886,-3.08297 3.44815,-3.8147 7.31179,-10.08166 6.76294,-10.96972 -1.36764,-2.21287 -5.24221,-0.66489 -7.72451,3.08613 -3.58894,5.42324 -4.39634,9.07829 -2.3379,10.58345 1.47154,1.07602 1.29635,1.86713 -1.80964,8.17186 -6.20945,12.60434 -6.7238,20.29606 -2.06209,30.83701 2.45771,5.55732 6.30509,9.73554 10.60456,11.51643 1.47036,0.60905 3.14591,2.14444 3.72345,3.412 1.47846,3.24488 9.06851,6.72071 13.48075,6.17345 2.2079,-0.27385 4.36555,0.14455 5.75149,1.1153 6.66449,4.66799 23.78472,5.45088 31.63381,1.44658 z m -40.62221,-12.06178 c -2.61462,-0.72883 -6.79519,-6.72293 -5.51713,-7.91048 0.41606,-0.38659 0.94983,-0.16298 1.18617,0.49692 1.22708,3.42627 4.6155,6.30019 7.42809,6.30019 1.73631,0 2.72773,0.4186 2.3684,1 -0.68542,1.10903 -1.80999,1.13235 -5.46553,0.11337 z m 40.54892,-9.51348 c 2.15414,-1.87006 4.13873,-3.18544 4.41022,-2.92306 0.59192,0.57206 -6.09975,6.25781 -7.41022,6.29627 -0.50414,0.0148 0.84586,-1.50315 3,-3.37321 z m 22.41662,-9.52429 c 0,-0.4739 0.675,-1.12065 1.5,-1.43723 0.825,-0.31658 1.5,-1.28631 1.5,-2.15496 0,-2.02251 4.95218,-6.4105 7.28138,-6.45182 2.25747,-0.0401 3.38016,2.72671 1.73901,4.28562 -0.98284,0.93359 -1.09581,0.68937 -0.53622,-1.15914 1.15796,-3.82515 -2.42925,-2.30307 -5.94642,2.5231 -2.97083,4.07651 -5.53775,6.11346 -5.53775,4.39443 z m -29.02503,-16.32561 c -1.82644,-1.2375 -3.52972,-2.925 -3.78506,-3.75 -0.29921,-0.96669 0.40024,-0.70674 1.96731,0.73117 1.33737,1.22715 4.2116,2.88294 6.38718,3.67954 3.40275,1.24594 3.59191,1.45822 1.35347,1.51883 -1.43116,0.0387 -4.09647,-0.94204 -5.9229,-2.17954 z m 26.21998,-5.25 c 0.0204,-1.65 0.2445,-2.20393 0.49804,-1.23097 0.25354,0.97297 0.23687,2.32297 -0.0371,3 -0.27388,0.67704 -0.48132,-0.11903 -0.46094,-1.76903 z m -27.94496,-1.00789 c -2.3375,-1.43301 -4.25,-3.17652 -4.25,-3.87447 0,-3.58547 10.13242,-9.0886 14.75842,-8.01561 7.27068,1.68643 9.2197,5.98674 4.95858,10.94059 -3.42018,3.9762 -9.88272,4.37293 -15.467,0.94949 z m 10.91525,-0.39609 c 4.83467,-2.43038 4.1928,-8.41919 -1.0252,-9.56526 -3.32113,-0.72944 -8.85474,1.56216 -9.81504,4.06466 -0.89412,2.33004 0.0754,2.55307 3.98933,0.91771 1.99178,-0.83222 3.86088,-1.51313 4.15354,-1.51313 0.93949,0 0.568,4.06444 -0.56499,6.18145 -0.6034,1.12747 -0.7159,1.87095 -0.25,1.65217 0.46591,-0.21879 2.04647,-1.00071 3.51236,-1.7376 z m -89.32577,53.35693 c 1.50413,-3.3012 1.46576,-4.45294 -0.14836,-4.45294 -2.7197,0 -4.54918,2.39293 -3.63154,4.75 1.14494,2.94089 2.34766,2.84637 3.7799,-0.29706 z m 22.33178,0.89207 c 2.87362,-2.60059 2.37546,-4.69905 -0.91921,-3.87214 -3.49515,0.87723 -3.56538,0.96455 -2.77597,3.45177 0.7959,2.50766 1.32255,2.56757 3.69518,0.42037 z m 9.04579,0.40499 c 2.39859,-1.8747 0.5891,-5.75 -2.68483,-5.75 -2.60395,0 -2.94598,0.85418 -1.90194,4.75 0.67617,2.52312 2.21012,2.85755 4.58677,1 z m 22.78295,0.41666 c 0,-1.30207 -1.18877,-2.16803 -2.15579,-1.57038 -1.03422,0.63918 -0.14245,2.40372 1.21481,2.40372 0.51754,0 0.94098,-0.375 0.94098,-0.83334 z m -45.46488,-2.2235 c 1.04185,-1.68575 -0.42967,-5.94316 -2.05418,-5.94316 -1.02584,0 -1.48094,1.07556 -1.48094,3.5 0,3.46401 2.03499,4.87042 3.53512,2.44316 z m 30.85091,-0.74044 c 1.20811,-0.66662 -3.46572,-4.15281 -5.60465,-4.18049 -1.21125,-0.0157 -1.53444,0.49439 -1.09476,1.72777 1.41295,3.96355 2.94488,4.5244 6.69941,2.45272 z m -23.72434,-1.57695 c 0.0889,-0.0692 -0.076,-1.36327 -0.36658,-2.87577 -0.53294,-2.77431 -2.53068,-3.5216 -5.08387,-1.90172 -0.97165,0.61647 -1.03297,1.49041 -0.24922,3.55183 0.84809,2.23065 1.45374,2.60685 3.28875,2.0428 1.23708,-0.38025 2.32199,-0.74797 2.41092,-0.81714 z m -22.1617,-1.62577 c 0.33992,-0.55 0.14148,-1 -0.44098,-1 -0.58246,0 -1.05902,0.45 -1.05902,1 0,0.55 0.19845,1 0.44099,1 0.24254,0 0.7191,-0.45 1.05901,-1 z m 29.64553,-0.82077 c 1.42437,-1.49877 -1.10136,-5.17923 -3.55428,-5.17923 -3.0731,0 -3.84006,1.16044 -2.99426,4.5304 0.56178,2.2383 1.04225,2.52759 3.2806,1.97522 1.44233,-0.35593 2.9129,-0.9528 3.26794,-1.32639 z m -24.34306,0.17676 c 3.13385,-0.83938 2.63414,-4.72348 -0.6678,-5.19066 -3.03747,-0.42976 -4.22,0.79234 -3.48528,3.60191 0.63774,2.43872 0.77856,2.49259 4.15308,1.58875 z m 29.5046,-0.92033 c 1.19467,-0.45844 1.26271,-1.11522 0.36255,-3.5 -1.20318,-3.18759 -1.47692,-3.34373 -3.55496,-2.02768 -0.91707,0.58079 -1.16415,1.75868 -0.73095,3.48468 0.67065,2.67206 1.35516,3.02851 3.92336,2.043 z m -21.30706,-3.769 c 0,-2.96279 -0.63607,-3.57459 -3.05791,-2.94127 -1.87753,0.49098 -2.6395,3.24387 -1.27543,4.60794 1.63508,1.63508 4.33334,0.59729 4.33334,-1.66667 z m 26.5,1.33334 c -0.33992,-0.55 -1.04148,-1 -1.55902,-1 -0.51754,0 -0.94098,0.45 -0.94098,1 0,0.55 0.70156,1 1.55902,1 0.85745,0 1.2809,-0.45 0.94098,-1 z m -20.27156,-3.93823 c -0.34912,-3.13455 -0.64899,-3.38046 -3.15308,-2.58569 -1.37112,0.43517 -2.07536,1.5067 -2.07536,3.15773 0,2.13626 0.3992,2.4531 2.75,2.18261 2.25392,-0.25934 2.70101,-0.75626 2.47844,-2.75465 z m 7.39566,0.17291 c 2.00452,-1.3101 -0.2693,-5.23468 -3.03286,-5.23468 -2.97124,0 -3.68347,0.9313 -2.92637,3.82646 0.57289,2.19073 3.64955,2.91778 5.95923,1.40822 z m -21.63942,-1.98468 c -0.008,-0.9625 -0.39928,-2.35587 -0.86858,-3.09638 -0.62616,-0.98802 -1.14056,-0.52224 -1.93266,1.75 -0.96617,2.77156 -0.87506,3.09638 0.86857,3.09638 1.19439,0 1.94206,-0.67701 1.93267,-1.75 z m 4.43353,0.14301 c 2.05552,-0.78878 2.10915,-6.25341 0.0691,-7.03627 -2.738,-1.05067 -4.46712,1.40261 -3.31599,4.70474 1.13387,3.25261 1.03383,3.18078 3.24694,2.33153 z m 21.58179,0.166 c 0,-0.24254 -0.45,-0.71909 -1,-1.05901 -0.55,-0.33992 -1,-0.14148 -1,0.44098 0,0.58246 0.45,1.05902 1,1.05902 0.55,0 1,-0.19845 1,-0.44099 z m -14.57282,-2.88211 c 2.64958,-1.93742 1.34786,-7.69234 -1.56751,-6.92996 -2.49465,0.65237 -3.27113,2.47754 -2.44847,5.75529 0.71232,2.83811 1.44714,3.05305 4.01598,1.17467 z m 40.57282,-1.56992 c 0,-0.92061 -2.36727,-2.10698 -4.20423,-2.10698 -0.63011,0 -0.54954,0.59176 0.20423,1.5 1.35856,1.63697 4,2.0378 4,0.60698 z m -33.11466,-1.01496 c 2.33446,-1.47844 0.55826,-6.09202 -2.34538,-6.09202 -2.99467,0 -3.49981,0.75923 -2.83142,4.25569 0.53617,2.80478 2.53055,3.51223 5.1768,1.83633 z m -14.75598,-7.11388 c -0.80758,-3.94864 -2.21002,-4.23619 -3.39036,-0.69516 -1.29886,3.89659 -0.32128,6.09901 2.12583,4.78935 1.48065,-0.79242 1.75689,-1.68681 1.26453,-4.09419 z m 6.62969,-1.08602 c 0.37271,-3.44169 -1.09901,-5.23639 -3.63421,-4.43175 -2.12554,0.67462 -2.78957,3.64381 -1.54198,6.89496 0.89554,2.33376 4.86107,0.44667 5.17619,-2.46321 z m 6.40219,0.10788 c 1.03086,0 0.18552,-5.94178 -1.0166,-7.14553 -0.35455,-0.35503 -1.66832,-0.2529 -2.91948,0.22697 -1.87539,0.71928 -2.1584,1.35941 -1.61174,3.64552 0.93702,3.91861 1.39014,4.48564 3.06951,3.84121 0.81435,-0.3125 1.92959,-0.56817 2.47831,-0.56817 z m -7.944,-6.87965 c 1.06669,-0.97389 -0.2636,-5.12036 -1.64275,-5.12036 -2.61933,0 -4.83122,2.61576 -4.11639,4.86799 0.5429,1.71054 1.19771,2.06647 2.87255,1.56141 1.19314,-0.3598 2.49211,-0.94887 2.88659,-1.30904 z m 5.22649,-1.73714 c 1.24407,-0.47739 1.34788,-0.92938 0.45935,-2 -1.6878,-2.03367 -3.90308,-1.6836 -3.90308,0.61678 0,2.09662 0.77424,2.4076 3.44373,1.38322 z m 41.14306,-35.38322 c 0.73856,0 1.87977,1.00326 2.53602,2.22948 l 1.19318,2.22947 0.9795,-2.19515 c 1.55441,-3.48356 -1.4501,-7.2638 -5.77323,-7.2638 -3.11779,0 -3.49057,0.31417 -4.07607,3.43512 -0.86672,4.62005 0.41292,6.66272 2.34809,3.74819 0.79732,-1.20082 2.05394,-2.18331 2.79251,-2.18331 z m -87.12175,81.41405 c 0.44271,-1.05272 1.38091,-4.16404 2.08489,-6.91404 0.70399,-2.75 1.31824,-4.18677 1.36502,-3.19282 0.1355,2.87951 -2.06019,10.66454 -3.20789,11.37386 -0.68576,0.42382 -0.76925,-0.0133 -0.24202,-1.267 z m 3.63364,-18.72637 c 0.12047,-3.7213 0.58222,-6.99046 1.0261,-7.26479 0.79381,-0.49061 -0.004,12.62366 -0.82454,13.55396 -0.23133,0.26226 -0.32203,-2.56786 -0.20156,-6.28917 z m -3.96883,-6.93767 c -0.61229,-3.9875 -1.35109,-8.375 -1.64178,-9.75 -0.29068,-1.375 0.101,-0.90213 0.8704,1.05082 1.41271,3.58585 3.2431,15.94918 2.36127,15.94918 -0.26214,0 -0.97759,-3.2625 -1.58989,-7.25 z"
       id="path4245"
       inkscape:connector-curvature="0" />
  </g>
</svg>
