<?xml version="1.0" encoding="UTF-8" standalone="no"?>
<!-- Created with Inkscape (http://www.inkscape.org/) -->

<svg
   xmlns:dc="http://purl.org/dc/elements/1.1/"
   xmlns:cc="http://creativecommons.org/ns#"
   xmlns:rdf="http://www.w3.org/1999/02/22-rdf-syntax-ns#"
   xmlns:svg="http://www.w3.org/2000/svg"
   xmlns="http://www.w3.org/2000/svg"
   xmlns:sodipodi="http://sodipodi.sourceforge.net/DTD/sodipodi-0.dtd"
   xmlns:inkscape="http://www.inkscape.org/namespaces/inkscape"
   width="54.651726mm"
   height="55.282116mm"
   viewBox="0 0 193.64784 195.88151"
   id="svg2"
   version="1.1"
   inkscape:version="0.91 r13725"
   sodipodi:docname="talk_with_monkeys.svg">
  <defs
     id="defs4" />
  <sodipodi:namedview
     id="base"
     pagecolor="#ffffff"
     bordercolor="#666666"
     borderopacity="1.0"
     inkscape:pageopacity="0.0"
     inkscape:pageshadow="2"
     inkscape:zoom="1.4"
     inkscape:cx="47.066676"
     inkscape:cy="36.270335"
     inkscape:document-units="px"
     inkscape:current-layer="layer1"
     showgrid="false"
     fit-margin-top="0"
     fit-margin-left="0"
     fit-margin-right="0"
     fit-margin-bottom="0"
     inkscape:window-width="1366"
     inkscape:window-height="744"
     inkscape:window-x="0"
     inkscape:window-y="24"
     inkscape:window-maximized="1" />
  <metadata
     id="metadata7">
    <rdf:RDF>
      <cc:Work
         rdf:about="">
        <dc:format>image/svg+xml</dc:format>
        <dc:type
           rdf:resource="http://purl.org/dc/dcmitype/StillImage" />
        <dc:title></dc:title>
      </cc:Work>
    </rdf:RDF>
  </metadata>
  <g
     inkscape:label="Layer 1"
     inkscape:groupmode="layer"
     id="layer1"
     transform="translate(-233.27315,-294.09796)">
    <path
       style="fill:#000000"
       d="m 417.38372,489.76586 c -0.25452,-0.22854 -41.39273,-0.71674 -91.41823,-1.08489 -50.02551,-0.36816 -91.107,-0.82091 -91.29221,-1.00612 -0.6275,-0.6275 -1.73479,-162.42241 -1.30259,-190.33127 l 0.0503,-3.24562 37.25,0.50844 c 20.4875,0.27964 63.72669,0.69186 96.08708,0.91603 32.3604,0.22418 58.97937,0.55591 59.15328,0.73718 0.1739,0.18127 0.47221,43.75458 0.66291,96.82958 l 0.34673,96.5 -4.53723,0.2961 c -2.49548,0.16286 -4.74548,0.10911 -5,-0.11943 z m -89.36339,-7.25141 c 11.20903,-5.52581 11.92605,-6.24874 10.54963,-10.63656 -0.5674,-1.80878 -1.97494,-9.3637 -3.12787,-16.7887 -1.15293,-7.425 -3.45221,-18.84008 -5.10951,-25.36685 -1.6573,-6.52676 -2.83642,-12.60176 -2.62027,-13.5 0.21615,-0.89823 0.96936,0.512 1.67381,3.13385 0.70445,2.62185 1.65159,4.99614 2.10475,5.27621 0.98264,0.60731 9.77916,-5.62679 9.86818,-6.99359 0.11369,-1.74553 -12.19584,-19.56874 -15.54749,-22.51152 -5.04617,-4.4306 -17.0604,-5.37598 -25.12099,-1.97673 -2.53765,1.07016 -4.13001,1.12216 -7.42566,0.2425 -3.38053,-0.90231 -4.62007,-0.84145 -6.3826,0.3134 -1.20302,0.78825 -5.36907,2.0966 -9.25788,2.90744 -3.88881,0.81084 -8.16637,1.89088 -9.5057,2.40009 -3.29559,1.25299 -6.46178,5.4836 -7.82869,10.4606 -0.62153,2.26303 -1.92772,6.9275 -2.90264,10.36549 -0.97492,3.43799 -1.4443,6.45378 -1.04306,6.70176 1.89266,1.16973 5.18558,-1.0536 7.1197,-4.80712 2.52504,-4.90031 6.47951,-9.31707 9.95691,-11.12092 5.89287,-3.05683 18.38509,-2.05989 24.71151,1.97211 9.25434,5.89804 12.91527,18.12344 8.40236,28.05909 -2.32706,5.12328 -9.30495,11.15395 -14.56865,12.59103 -2.22487,0.60742 -5.53051,1.7548 -7.34585,2.54973 -3.12654,1.36908 -3.27374,1.66575 -2.79063,5.62437 0.2805,2.29849 0.78768,8.66518 1.12705,14.14821 0.33938,5.48303 0.83422,10.32053 1.09965,10.75 0.26543,0.42947 8.17795,0.78085 17.58338,0.78085 l 17.10079,0 9.27977,-4.57474 z m -11.61944,-45.94943 c -1.92879,-2.32405 -0.75351,-2.5722 2.035,-0.42967 1.85248,1.42333 2.07076,1.91503 0.8575,1.9316 -0.89515,0.0122 -2.19678,-0.66363 -2.8925,-1.50193 z m 0.0201,-12.47583 c -2.35046,-0.75275 -2.30206,-0.8066 0.80902,-0.90032 1.9724,-0.0594 3.05937,0.30425 2.69098,0.90032 -0.33992,0.55 -0.70398,0.95514 -0.80902,0.90032 -0.10504,-0.0548 -1.31598,-0.45997 -2.69098,-0.90032 z m -7,-8.77643 c 0,-0.54473 1.125,-1.20547 2.5,-1.46832 1.375,-0.26285 2.5,-0.0903 2.5,0.38342 0,0.47373 -0.4132,0.86133 -0.91821,0.86133 -0.50502,0 -1.63002,0.27314 -2.5,0.60699 -0.86999,0.33384 -1.58179,0.1613 -1.58179,-0.38342 z m -5.99368,-4.44363 c 0.003,-0.70397 1.35348,-2.04651 3,-2.98343 3.87605,-2.20558 3.87177,-0.82183 -0.006,2.04537 -1.94461,1.43771 -2.99777,1.76772 -2.99367,0.93806 z m -31.81137,-6.27994 c 0.0204,-1.65 0.2445,-2.20394 0.49804,-1.23097 0.25354,0.97297 0.23687,2.32297 -0.037,3 -0.27393,0.67703 -0.48137,-0.11903 -0.46099,-1.76903 z m 6.83685,-0.19098 c -0.034,-2.33865 1.47543,-3.91535 2.36707,-2.47265 0.29538,0.47794 -0.10921,1.72278 -0.8991,2.76631 -1.38895,1.83494 -1.43721,1.82529 -1.46797,-0.29366 z m 11.99044,0.56342 c -0.022,-1.6137 2.65072,-4.53282 3.43353,-3.75 0.2241,0.22409 -0.45177,1.52572 -1.50193,2.8925 -1.42333,1.85248 -1.91503,2.07076 -1.9316,0.8575 z m 40.58193,79.39839 c -1.01652,-1.01651 -1.85525,0.51389 -1.02122,1.86338 0.63003,1.01942 0.86558,1.02021 1.2043,0.004 0.2316,-0.69479 0.14921,-1.53513 -0.18308,-1.86742 z m 5.89583,-0.27083 c -0.37544,-1.1829 -0.90761,-1.92572 -1.18261,-1.65072 -0.275,0.275 -0.19283,1.46782 0.18261,2.65072 0.37544,1.1829 0.90761,1.92572 1.18261,1.65072 0.275,-0.275 0.19283,-1.46782 -0.18261,-2.65072 z m 35.59067,1 c -2.10205,-7.70293 -3.19315,-15.83094 -2.62962,-19.58886 0.74979,-4.99992 7.07371,-13.29664 11.25905,-14.77139 2.02973,-0.71519 2.32975,-1.30499 1.77935,-3.49795 -0.36411,-1.45073 -0.73794,-2.66001 -0.83073,-2.68727 -2.695,-0.79178 -5.86792,-2.81006 -6.33622,-4.03043 -0.69563,-1.81279 1.5782,-12.25088 2.83839,-13.02972 0.45601,-0.28183 0.82911,-1.30471 0.82911,-2.27306 0,-2.00482 3.75032,-5.58991 6.88992,-6.58638 1.18787,-0.37702 2.11008,-1.51437 2.11008,-2.60233 0,-2.23112 0.90597,-2.38821 4.45295,-0.77209 1.92468,0.87694 3.16465,0.87911 5.07462,0.009 2.13422,-0.97242 3.06602,-0.80287 5.98762,1.08949 1.90303,1.23262 3.46562,2.80362 3.47243,3.49112 0.007,0.6875 0.42283,1.25 0.92448,1.25 0.86179,0 2.47506,6.46835 2.55232,10.23346 0.0196,0.95341 1.27308,2.88412 2.78558,4.29047 1.5125,1.40636 2.75,3.11367 2.75,3.79403 0,1.81836 -2.92414,5.68096 -4.3067,5.68887 -1.18853,0.007 -5.0349,5.04038 -6.19146,8.10248 -0.39422,1.04372 0.7989,3.1179 3.39485,5.90181 4.34549,4.66011 5.75705,9.0626 6.80979,21.23888 l 0.58359,6.75 4.35497,0 4.35496,0 0,-23.5026 0,-23.50261 -3.96372,-3.58098 c -4.15572,-3.75457 -10.03628,-14.22131 -10.03628,-17.86358 0,-1.49337 -1.45955,-2.98263 -4.88214,-4.98153 -3.01738,-1.76224 -5.49392,-4.13422 -6.48382,-6.21008 -1.00421,-2.10584 -2.32484,-3.35875 -3.54031,-3.35875 -1.33948,0 -2.30616,-1.11364 -3.12783,-3.60334 -1.03893,-3.14798 -0.94319,-3.9378 0.75762,-6.25 1.07076,-1.45566 2.21354,-4.30848 2.53952,-6.33959 0.7304,-4.55092 4.19568,-9.39984 7.88451,-11.03268 3.17959,-1.40742 3.93402,-4.17136 2.12203,-7.77439 -0.69149,-1.375 -1.26003,-3.2875 -1.26342,-4.25 -0.007,-2.00962 -1.1002,-2.25596 -2.73894,-0.61722 -0.62303,0.62303 -1.79834,0.87739 -2.61179,0.56524 -1.35662,-0.52059 -2.12804,-5.15013 -2.80326,-16.82314 -0.14391,-2.48791 -0.48856,-2.65214 -6.59426,-3.14225 -3.54333,-0.28442 -6.9409,-1.01562 -7.55016,-1.62488 -1.94963,-1.94963 -3.67883,-1.21427 -8.28197,3.522 -2.47478,2.54637 -4.7128,4.41657 -4.97337,4.15599 -0.26057,-0.26057 0.19256,-2.36234 1.00697,-4.6706 l 1.48073,-4.19685 -4.91482,2.76276 c -2.70315,1.51952 -5.26414,2.41343 -5.69109,1.98648 -0.42696,-0.42695 -0.32446,-1.08931 0.22776,-1.4719 0.55222,-0.3826 2.67669,-3.00592 4.72104,-5.82961 2.69957,-3.72869 3.717,-6.14994 3.717,-8.84563 0,-2.11087 0.86406,-4.92511 2.00345,-6.52524 1.1019,-1.54747 1.72876,-3.52944 1.39301,-4.40437 -0.69075,-1.80007 -5.90328,-2.19778 -6.93458,-0.5291 -0.36089,0.58393 -1.73745,1.47279 -3.05902,1.97525 -1.46916,0.55858 -2.40286,1.71801 -2.40286,2.98377 0,3.23768 -4.61991,7.29151 -7.48904,6.57141 -1.31361,-0.3297 -2.66753,-0.1478 -3.00869,0.40422 -0.34117,0.55202 -1.64271,1.00367 -2.89231,1.00367 -1.39597,0 -2.78447,0.95755 -3.60109,2.48343 -1.8101,3.38221 -4.67921,4.12488 -7.1827,1.85926 -1.60612,-1.45353 -1.93283,-2.70404 -1.5632,-5.98337 0.36069,-3.20005 0.0418,-4.5101 -1.39784,-5.74277 -1.02582,-0.87834 -1.86513,-2.27638 -1.86513,-3.10676 0,-2.07858 -1.34587,-1.89008 -3.5,0.49021 -3.87532,4.28218 -8.5,1.59754 -8.5,-4.93426 0,-2.28553 -0.45809,-3.06574 -1.8,-3.06574 -4.71468,0 -5.62263,-6.15585 -1.61111,-10.92328 1.92449,-2.28711 3.4329,-3.07672 5.87756,-3.07672 1.80876,0 3.84886,-0.675 4.53355,-1.5 1.33358,-1.60687 1.47936,-1.59524 -20,-1.59524 -11.27194,0 -11.1825,-0.009 -10.51815,1.06587 0.83422,1.3498 -2.13337,6.7948 -4.51331,8.28109 -1.0827,0.67615 -1.96854,1.71769 -1.96854,2.31451 0,0.59683 -1.10202,2.12044 -2.44893,3.3858 -1.87515,1.76161 -3.10522,2.14392 -5.25,1.63174 -9.77624,-2.33462 -11.4173,-2.48939 -14.06471,-1.32647 -3.43108,1.50716 -4.2018,2.57436 -4.22105,5.84482 -0.008,1.43116 -1.05889,4.13116 -2.33438,6 -2.72335,3.99022 -5.14251,4.03581 -8.36558,0.15764 l -2.18465,-2.62869 -0.64887,2.93447 c -1.1086,5.01353 -1.36502,5.43446 -3.31054,5.43446 -1.56008,0 -1.99219,0.97575 -2.46626,5.56907 -0.31613,3.06298 -1.10919,6.21298 -1.76235,7 -1.46227,1.76193 -6.58977,1.88929 -7.28392,0.18093 -0.27935,-0.6875 -0.42935,31.15 -0.33333,70.75 l 0.17457,72 22.85346,0.26904 22.85347,0.26904 -0.67928,-13.76904 c -0.37361,-7.57297 -0.8932,-14.53358 -1.15466,-15.46801 -0.73151,-2.61438 -2.76525,-1.20076 -6.89123,4.78998 -5.47272,7.94615 -8.76239,10.40899 -13.9035,10.40899 -6.84296,0 -9.57995,-4.80126 -9.57523,-16.79705 0.005,-12.85297 7.38982,-45.24842 12.02396,-52.74663 2.26016,-3.657 8.85286,-6.71592 17.15896,-7.9615 5.86783,-0.87993 10.81405,-3.84387 10.81405,-6.48012 0,-1.5768 -0.65929,-2.0147 -3.03324,-2.0147 -1.66829,0 -5.15579,-1.06018 -7.75,-2.35597 -3.24559,-1.62113 -5.835,-2.21681 -8.30199,-1.90983 -3.07086,0.38213 -3.96755,-0.008 -6.25,-2.72075 -1.83583,-2.18176 -2.66477,-4.31812 -2.66477,-6.86767 0,-2.03542 -0.62825,-4.59771 -1.3961,-5.69398 -2.07486,-2.96228 -3.52367,-14.13835 -2.38399,-18.39004 1.95682,-7.30013 5.28158,-11.47089 11.8408,-14.85374 7.6146,-3.92716 11.78818,-4.06074 20.30801,-0.65002 4.55222,1.82238 7.31581,3.71033 9.60991,6.56504 2.9065,3.61674 3.38099,3.86148 4.87139,2.51269 2.22911,-2.01732 4.91058,-0.45294 6.74368,3.93428 1.80791,4.32694 1.77512,8.19918 -0.0999,11.7943 -0.82161,1.57537 -1.49384,4.17706 -1.49384,5.78154 0,1.60448 -0.87478,5.51398 -1.94395,8.68778 -1.78282,5.29219 -1.90096,8.49081 -0.54556,14.76985 0.39258,1.81865 1.39416,2.18229 7.39677,2.68553 7.47856,0.62697 11.3498,2.16701 14.74548,5.86598 3.39537,3.69862 14.34726,21.12239 14.34726,22.82558 0,0.84609 -0.89299,2.09602 -1.98442,2.77763 -1.9042,1.18919 -1.91693,1.38083 -0.31479,4.74054 0.9183,1.92569 1.95166,3.50126 2.29636,3.50126 1.16694,0 4.53133,-5.45747 10.42164,-16.90523 5.09917,-9.91019 5.70541,-11.66625 4.62482,-13.39655 -1.47603,-2.3635 -1.65862,-12.77683 -0.26763,-15.26241 0.88212,-1.57625 1.14277,-1.48945 2.70996,0.90238 0.95368,1.4555 1.47914,3.31043 1.16769,4.12206 -0.31146,0.81164 -0.13594,1.74167 0.39004,2.06674 1.67584,1.03573 1.49953,-8.61995 -0.21622,-11.84091 -0.66023,-1.23945 -0.58215,-2.27673 0.24654,-3.27523 1.05875,-1.27571 1.44138,-1.25442 3.01271,0.16761 0.98997,0.89591 2.0844,2.92406 2.43207,4.50701 0.50237,2.28725 1.41668,3.08933 4.45386,3.90716 4.08497,1.09997 5.02737,2.43816 5.02737,7.13882 0,3.28228 -1.82184,7.25947 -5.91142,12.90497 -1.48535,2.05046 -3.52595,6.59359 -4.53467,10.09584 -7.33211,25.45683 -9.02683,29.12614 -15.07429,32.63801 -3.91709,2.27471 -8.95442,2.51971 -13.77483,0.66994 -2.32185,-0.89097 -2.22825,1.27163 0.71672,16.55979 2.17065,11.26846 2.2568,12.66848 0.87439,14.21001 -1.09499,1.22103 -1.3423,2.7291 -0.86489,5.27395 l 0.6686,3.56395 16.7002,-0.27396 c 14.2739,-0.23415 16.64072,-0.49188 16.29086,-1.77395 z m 10.34571,-0.75 c -0.33095,-1.5125 -1.01453,-4.05465 -1.51906,-5.64922 -1.15038,-3.63582 -1.15396,-4.60078 -0.0171,-4.60078 0.83028,0 3.42193,8.8789 3.42969,11.75 0.002,0.92312 2.84556,1.25 10.8719,1.25 10.55864,0 10.838,-0.057 9.79815,-2 -0.5887,-1.1 -0.82953,-2 -0.53518,-2 0.29435,0 0.87268,0 1.28518,0 0.4125,0 0.80625,0.45 0.875,1 0.0687,0.55 0.18125,1.45 0.25,2 0.0687,0.55 1.7,1 3.625,1 l 3.5,0 0,-5.45121 c 0,-7.63336 -2.49787,-16.62824 -5.30123,-19.08982 -1.27843,-1.12257 -2.61952,-2.81007 -2.98021,-3.75 -0.72853,-1.89852 -2.78772,-2.23981 -4.31273,-0.7148 -2.62362,2.62362 -11.5791,0.57919 -15.43309,-3.52319 -2.81181,-2.99303 -4.54964,-3.13006 -5.97274,-0.47098 -0.5887,1.1 -1.72953,2 -2.53518,2 -0.80565,0 -1.46482,0.62686 -1.46482,1.39301 0,0.76616 -0.675,1.65203 -1.5,1.96862 -0.825,0.31658 -1.5,1.46317 -1.5,2.54797 0,1.0848 -0.50588,2.28502 -1.12419,2.66715 -1.4528,0.89788 -0.42464,11.45624 1.73192,17.78539 1.52001,4.461 1.72995,4.63786 5.50532,4.63786 3.76108,0 3.89992,-0.11488 3.32333,-2.75 z m 21.11641,-4.16459 c -0.32198,-0.52097 -0.15917,-1.21065 0.3618,-1.53262 0.52097,-0.32198 1.21065,-0.15917 1.53262,0.3618 0.32198,0.52097 0.15917,1.21065 -0.3618,1.53262 -0.52097,0.32198 -1.21065,0.15917 -1.53262,-0.3618 z m 0.44721,-6.08541 c 0,-0.55 0.45,-1 1,-1 0.55,0 1,0.45 1,1 0,0.55 -0.45,1 -1,1 -0.55,0 -1,-0.45 -1,-1 z m -25,-2 c 0,-0.55 0.45,-1 1,-1 0.55,0 1,0.45 1,1 0,0.55 -0.45,1 -1,1 -0.55,0 -1,-0.45 -1,-1 z m -45.31689,11.8125 c -0.31922,-0.79773 -0.55618,-0.56078 -0.60416,0.60417 -0.0434,1.05416 0.19292,1.64479 0.52522,1.3125 0.33229,-0.3323 0.36781,-1.1948 0.0789,-1.91667 z m -70.92949,-14.44373 c 1.93843,-0.51946 8.4556,-8.19396 11.79657,-13.89142 0.73018,-1.2452 2.34238,-1.81932 5.2909,-1.88413 3.7274,-0.0819 4.50045,-0.51687 6.38656,-3.59322 l 2.14585,-3.5 -2.5012,2.25 c -2.45894,2.21198 -6.8723,3.09315 -6.8723,1.37212 0,-0.48283 0.675,-2.49337 1.5,-4.46788 0.825,-1.9745 1.47546,-4.39196 1.44547,-5.37212 -0.03,-0.98017 -0.96613,0.46652 -2.08031,3.21485 -2.22856,5.4972 -2.61003,6.09149 -3.40181,5.29971 -0.29516,-0.29516 0.39633,-2.90367 1.53665,-5.79668 1.14032,-2.89301 1.86175,-5.47158 1.60318,-5.73015 -1.11397,-1.11397 -2.58036,1.13983 -4.06553,6.24863 -0.87644,3.01484 -2.03095,5.48152 -2.56559,5.48152 -1.19385,0 -1.23561,0.43995 0.50182,-5.28619 1.71197,-5.6422 0.64058,-5.51164 -1.9521,0.23788 -1.92037,4.25864 -3.20247,5.04399 -4.16015,2.54831 -0.83216,-2.16856 -2.26526,-1.84749 -1.6835,0.37717 0.35885,1.37226 -0.76747,2.78086 -4.1874,5.23687 -2.57307,1.84784 -5.27439,4.71561 -6.00294,6.37283 -1.26762,2.88342 -1.32815,2.9077 -1.40622,0.56409 -0.0562,-1.68638 1.41106,-3.86627 4.71151,-7 5.27597,-5.00947 5.06462,-3.50903 2.29591,-16.29889 -0.56529,-2.61136 -0.76843,-5.42386 -0.45141,-6.25 0.72978,-1.90179 -3.89097,-2.10661 -5.4392,-0.2411 -0.57559,0.69354 -2.02527,6.37673 -3.22151,12.62932 -2.43114,12.70717 -2.13554,19.6753 1.05739,24.92565 1.98766,3.26844 4.54371,3.93979 9.71936,2.55283 z m 138.52179,-14.1206 c 0.87196,-0.96351 2.06375,-3.01003 2.64842,-4.54783 2.09871,-5.52004 -3.55801,-12.92916 -8.44067,-11.0555 -1.20829,0.46366 -1.28232,0.89223 -0.34847,2.01745 0.65216,0.7858 1.77423,1.2029 2.4935,0.92689 1.90514,-0.73107 2.5896,0.98518 0.93916,2.35492 -1.64077,1.36172 -5.56735,-0.53172 -5.56735,-2.68465 0,-0.6927 -0.43963,-1.25945 -0.97695,-1.25945 -1.5198,0 -3.80555,4.11928 -4.55144,8.20244 -0.6265,3.42954 -0.42925,3.8531 2.67602,5.74627 4.11507,2.5088 9.00916,2.64051 11.12778,0.29946 z m -9.62042,-2.07691 c -2.61753,-2.89234 -2.05444,-4.89515 0.65946,-2.34557 2.79603,2.62673 5.51726,2.78672 7.24355,0.42588 0.70316,-0.96163 1.61251,-1.41439 2.02077,-1.00613 1.29056,1.29056 -2.77393,4.75456 -5.57877,4.75456 -1.47951,0 -3.43477,-0.82293 -4.34501,-1.82874 z m -95.85533,-4.58198 c 11.57233,-6.04567 13.52563,-21.44903 3.97175,-31.32044 -3.74868,-3.87327 -7.99022,-5.41706 -15.05782,-5.48056 -8.42224,-0.0757 -11.3613,0.98222 -15.20536,5.47314 -5.31068,6.20433 -7.51654,17.54958 -3.92307,20.17719 0.87184,0.63751 1.91614,2.71212 2.32067,4.61025 l 0.73551,3.45114 2.66522,-5.18891 c 2.78876,-5.42944 3.47864,-5.745 10.05733,-4.60042 3.07887,0.53567 3.0832,0.57605 1.07559,10.03933 -0.88674,4.17984 0.95071,4.32993 3.06052,0.25 0.85325,-1.65 2.26489,-3 3.13697,-3 1.27053,0 1.45513,0.6955 0.92901,3.5 -0.58066,3.09517 -0.41429,3.5 1.43837,3.5 1.15223,0 3.31012,-0.63483 4.79531,-1.41072 z m -4.2725,-13.83928 c -0.22553,-0.6875 -0.56615,-2.15 -0.75693,-3.25 -0.34762,-2.00439 -1.40855,-2.19464 -5.42383,-0.9726 -2.71377,0.82593 -3.85496,-2.05959 -2.36471,-5.97923 0.56794,-1.4938 0.78354,-3.11902 0.4791,-3.61161 -0.94285,-1.52557 -4.46079,1.41805 -4.46079,3.73256 0,2.90297 -2.73056,5.51132 -5.37465,5.1341 -1.58755,-0.22649 -2.20464,-1.12561 -2.43871,-3.55322 -0.22805,-2.36526 0.0962,-3.25 1.19098,-3.25 1.89718,0 2.98732,1.65642 1.63869,2.48992 -1.51099,0.93384 -1.22935,2.51008 0.44851,2.51008 1.73791,0 3.53518,-3.02784 3.53518,-5.9557 0,-2.80368 4.32069,-4.85297 6.47039,-3.06888 1.73143,1.43696 2.03415,4.59473 0.52961,5.52458 -0.96328,0.59534 -1.45362,4.5 -0.5651,4.5 0.2392,0 1.57398,-0.43308 2.96618,-0.96239 2.92895,-1.11359 5.59892,0.81003 5.59892,4.03382 0,2.40351 2.56558,2.52725 3.87531,0.1869 0.53607,-0.95792 1.30568,-1.41068 1.71022,-1.00613 1.08618,1.08617 -2.59404,4.7478 -4.7719,4.7478 -1.03202,0 -2.06093,-0.5625 -2.28647,-1.25 z m 98.98997,5.41519 c 3.94362,-3.10206 9.4762,-2.89914 12.84651,0.47117 1.45,1.45 2.63636,3.25 2.63636,4 0,0.75 0.45,1.36364 1,1.36364 0.55,0 1,-0.93032 1,-2.06739 0,-1.55997 0.45623,-1.92259 1.85882,-1.47742 2.58677,0.82101 4.62749,-1.78613 3.25058,-4.15283 -0.95604,-1.6433 -1.05127,-1.60379 -1.07899,0.44764 -0.0167,1.2375 -0.42531,2.25 -0.90797,2.25 -2.12211,0 -3.6332,-3.71188 -3.78044,-9.28641 -0.0869,-3.29001 -0.58875,-6.25898 -1.11522,-6.59771 -0.52647,-0.33874 -1.27319,-1.62838 -1.65939,-2.86588 -0.38619,-1.2375 -1.34684,-2.25 -2.13478,-2.25 -0.78793,0 -1.43261,-0.40186 -1.43261,-0.89301 0,-1.53301 -3.29777,-2.24271 -4.13954,-0.89086 -0.64263,1.03205 -1.19504,1.0387 -2.81638,0.0339 -2.59932,-1.61096 -3.04408,-1.57443 -3.04408,0.24997 0,0.94256 -0.951,1.5 -2.55902,1.5 -1.40746,0 -2.31057,0.402 -2.00691,0.89333 0.30366,0.49133 -0.58819,1.17952 -1.98188,1.52931 -1.52817,0.38355 -2.25865,1.0815 -1.84031,1.75838 0.38152,0.61731 -0.16258,1.78076 -1.2091,2.58544 -1.40433,1.07978 -1.55932,1.59113 -0.59165,1.952 1.01476,0.37843 0.92321,0.91761 -0.40499,2.38525 -1.63135,1.80262 -1.61572,1.89629 0.31643,1.89629 3.22632,0 4.55122,2.41996 3.7904,6.92324 -0.37098,2.19583 -0.35905,4.98637 0.0265,6.2012 0.67144,2.11549 0.75434,2.08202 1.96305,-0.79265 0.6941,-1.65078 2.50067,-3.97575 4.01459,-5.1666 z m -3.27415,-6.32221 c -3.05997,-3.05997 -0.11762,-8.71026 4.16064,-7.98986 2.82802,0.4762 3.43129,1.71408 2.66843,5.47552 -0.4888,2.41011 -1.23643,3.24169 -3.11464,3.46434 -1.3593,0.16113 -3.0308,-0.26637 -3.71443,-0.95 z m 3.24994,-2.83153 c 0.35034,-0.56686 -0.0511,-0.7345 -0.94098,-0.39301 -1.73242,0.66479 -2.04939,1.38156 -0.61096,1.38156 0.51754,0 1.21592,-0.44485 1.55194,-0.98855 z m 6.63554,1.42473 c -3.05183,-3.87978 -0.21313,-8.0556 4.61741,-6.79238 2.91522,0.76234 3.41057,3.8876 1.08482,6.84431 -2.47415,3.14538 -3.19238,3.13883 -5.70223,-0.0519 z m 3.87154,-2.93618 c 0.68469,-0.825 0.93265,-1.5 0.55102,-1.5 -0.38163,0 -1.36888,0.675 -2.19388,1.5 -0.825,0.825 -1.07295,1.5 -0.55101,1.5 0.52194,0 1.50918,-0.675 2.19387,-1.5 z m -50.21482,15.76738 c 4.96338,-3.16767 7.94722,-8.94313 11.24594,-21.76738 3.29076,-12.79329 4.89474,-16.9566 8.44732,-21.92602 1.93686,-2.70931 3.52156,-5.25451 3.52156,-5.656 0,-1.26218 -9.16389,-3.91495 -11.49924,-3.32881 -2.26923,0.56954 -4.13235,-1.75822 -2.94499,-3.67941 0.30925,-0.50037 0.0857,-0.90976 -0.49675,-0.90976 -1.63275,0 -1.25428,5.52267 0.65248,9.52119 l 1.71149,3.58904 -3.89102,7.19489 c -2.14005,3.95718 -4.84482,8.99488 -6.01058,11.19488 -3.27761,6.18543 -7.66844,13.5 -8.10387,13.5 -0.21584,0 -1.58362,-1.9125 -3.03952,-4.25 -1.45591,-2.3375 -2.79751,-4.42346 -2.98134,-4.63546 -0.18383,-0.212 -1.52384,0.394 -2.9778,1.34667 -2.8658,1.87774 -2.88217,2.61719 -0.3221,14.55438 0.93408,4.35545 1.45718,5.08266 4.23449,5.88668 5.04908,1.46171 9.52645,1.23345 12.45393,-0.63489 z m 31.21482,-4.26738 c 0,-0.55 -0.675,-1 -1.5,-1 -0.83333,0 -1.5,-0.88889 -1.5,-2 0,-2.46689 1.55132,-2.59971 2.9199,-0.25 0.9039,1.5519 1.02272,1.48742 1.04969,-0.56955 0.0241,-1.84015 -0.43461,-2.25351 -2.21959,-2 -3.80402,0.54026 -3.34949,6.72564 0.5,6.80424 0.4125,0.008 0.75,-0.43469 0.75,-0.98469 z m 42.98526,-28.75 c -0.0105,-16.87913 -0.3721,-24.43479 -1.25,-26.11706 -2.76237,-5.29336 -18.72105,-10.52617 -17.94142,-5.88294 0.26254,1.56363 -1.32593,2.29756 -4.04384,1.86842 -0.4125,-0.0651 -0.75,1.00658 -0.75,2.38158 0,1.46667 -0.51667,2.39667 -1.25,2.25 -1.59238,-0.31848 -2.27799,5.12201 -0.82818,6.57182 1.7839,1.7839 1.23192,2.56523 -1.67182,2.36644 -2.37604,-0.16266 -2.7121,0.14881 -2.47126,2.29048 0.31472,2.79872 1.83531,4.74054 2.88793,3.68793 0.385,-0.385 0.1675,-1.2325 -0.48334,-1.88334 -0.65083,-0.65083 -1.18333,-1.54333 -1.18333,-1.98333 0,-1.30596 3.03049,-0.9088 3.43367,0.45 0.20399,0.6875 0.92335,3.3875 1.59858,6 1.46316,5.66111 2.50579,6.02601 3.41224,1.19422 0.36688,-1.95567 1.54196,-4.43067 2.61129,-5.5 4.08471,-4.08471 14.9283,-1.12811 16.32887,4.45221 1.02163,4.0705 -1.71417,9.3162 -5.89963,11.3121 -3.39991,1.62131 -3.58471,1.94652 -2.96955,5.22563 0.3608,1.9232 1.27607,4.69583 2.03395,6.16141 1.81076,3.50162 6.38537,8.90443 7.53947,8.90443 0.52298,0 0.90483,-10.11735 0.89637,-23.75 z m -22.62449,-17.75224 c -1.02426,-2.66916 0.53083,-6.49776 2.63923,-6.49776 2.43444,0 3.76877,4.36876 1.98922,6.51299 -1.58844,1.91395 -3.89106,1.90638 -4.62845,-0.0152 z m 9.65149,-1.47485 c -1.73222,-3.23669 -0.34844,-6.20024 2.72272,-5.83105 3.33318,0.40069 5.15522,3.16935 3.65778,5.55814 -1.63215,2.60367 -5.05477,2.75007 -6.3805,0.27291 z m 4.98774,-2.02291 c 0,-1.1 -0.40787,-2 -0.90638,-2 -0.49851,0 -0.67103,0.9 -0.38337,2 0.28766,1.1 0.69553,2 0.90638,2 0.21085,0 0.38337,-0.9 0.38337,-2 z m 0.61771,22.09141 c 4.09869,-2.49929 5.15367,-6.5804 2.58969,-10.01803 -2.44434,-3.27725 -4.79509,-3.75807 -5.48449,-1.1218 -0.63797,2.43961 -2.97189,2.65658 -5.14974,0.47873 -1.42624,-1.42624 -1.66122,-1.32891 -2.57143,1.0651 -1.80036,4.73533 -1.21738,7.17009 2.24826,9.38954 4.00217,2.56306 4.48356,2.57493 8.36771,0.20646 z m -6.02659,-1.94398 c -1.11821,-1.8093 0.61077,-4.26069 2.78616,-3.9503 2.90975,0.41516 2.88277,4.19456 -0.0329,4.61006 -1.1856,0.16895 -2.42456,-0.12794 -2.75324,-0.65976 z m 1.13805,-10.7516 c -0.3323,-0.33229 -1.1948,-0.36781 -1.91667,-0.0789 -0.79773,0.31922 -0.56078,0.55618 0.60417,0.60416 1.05416,0.0434 1.64479,-0.19292 1.3125,-0.52522 z m -110.57088,-9.97768 c 2.6739,-1.38273 2.98235,-1.96493 2.45034,-4.625 -0.33475,-1.67373 -0.60863,-3.9098 -0.60863,-4.96904 0,-1.7972 -0.21717,-1.76333 -3.25,0.50694 -1.7875,1.33806 -4.7125,3.17252 -6.5,4.07658 -1.7875,0.90405 -3.25,2.21717 -3.25,2.91805 0,3.72574 5.87089,4.82669 11.15829,2.09247 z m 67.84171,-2.41815 c 0.85431,-1.5963 0.76049,-2 -0.46482,-2 -0.84435,0 -1.53518,0.1882 -1.53518,0.41821 0,0.23002 -0.27314,1.13002 -0.60699,2 -0.88228,2.2992 1.34379,1.94209 2.60699,-0.41821 z m 3.80687,-1.52646 c -0.30789,-0.30789 -0.86705,0.24711 -1.24258,1.23333 -0.54268,1.4252 -0.42782,1.54006 0.5598,0.5598 0.68342,-0.67834 0.99067,-1.48524 0.68278,-1.79313 z m -7.36045,-3.72354 c -0.37859,-1.2375 -1.11789,-2.925 -1.64289,-3.75 -0.76175,-1.19704 -0.83831,-1.13003 -0.37904,0.33179 0.31653,1.00748 0.57551,2.69498 0.57551,3.75 0,1.05501 0.48032,1.91821 1.06739,1.91821 0.64421,0 0.79448,-0.89204 0.37903,-2.25 z m -68.36223,-2 c 5.36478,-4.11247 7.95801,-9.12387 8.64569,-16.70771 0.65355,-7.20742 -0.6844,-11.09474 -5.63588,-16.37471 -6.46276,-6.8915 -11.9605,-8.24886 -20.32376,-5.01784 -12.154,4.69552 -18.33456,18.87747 -12.66876,29.06984 3.0468,5.48098 4.57843,6.94202 10.22972,9.75817 7.53096,3.75284 14.22997,3.50603 19.75299,-0.72775 z m -7.33419,-1.43933 c -3.99289,-1.04345 0.15743,-6.31067 4.97251,-6.31067 2.82572,0 3.07493,2.96835 0.44875,5.34501 -1.86295,1.68595 -2.33991,1.77091 -5.42126,0.96566 z m 5.25,-3.41766 c 0,-0.49116 -0.675,-0.89301 -1.5,-0.89301 -0.825,0 -1.5,0.66088 -1.5,1.46862 0,0.89459 0.58629,1.24363 1.5,0.89301 0.825,-0.31659 1.5,-0.97746 1.5,-1.46862 z m -25.75,-6.55529 c -2.08517,-0.84138 -1.40751,-3.81371 1.5,-6.57931 3.43236,-3.26482 8.1103,-4.58866 9.34202,-2.64376 3.38147,5.33936 -4.29124,11.86637 -10.84202,9.22307 z m 6.12838,-4.08772 c -0.89764,-3.7417 -1.07535,-3.83421 -3.37225,-1.75555 -2.94281,2.66321 -2.52862,4.50555 1.01292,4.50555 2.78678,0 2.9683,-0.21157 2.35933,-2.75 z m 12.62162,3.85699 c 0,-0.49116 0.675,-1.15203 1.5,-1.46862 0.91371,-0.35062 1.5,-0.002 1.5,0.89302 0,0.80773 -0.675,1.46861 -1.5,1.46861 -0.825,0 -1.5,-0.40185 -1.5,-0.89301 z m -20,-8.93268 c 0,-1.31647 4.92575,-5.58189 5.63128,-4.87636 0.35154,0.35154 -0.43418,1.77054 -1.74606,3.15333 -2.42989,2.56125 -3.88522,3.20667 -3.88522,1.72303 z m 19.51586,-4.12433 c -0.79554,-2.50654 1.89377,-7.72783 4.38813,-8.51951 1.05926,-0.33619 3.11378,-0.31313 4.56561,0.0512 3.81219,0.9568 3.11115,5.12775 -1.36748,8.13598 -4.16367,2.79666 -6.76789,2.91073 -7.58626,0.33228 z m 4.99657,-0.81529 c 1.17353,-0.8516 1.63698,-6.23469 0.53677,-6.23469 -1.55588,0 -4.26438,3.99686 -3.70187,5.46275 0.64361,1.67721 1.59713,1.90976 3.1651,0.77194 z m -8.51243,-8.1277 c 0,-1.10907 3.07642,-2.36391 3.86417,-1.57616 0.31785,0.31786 -0.0841,0.99656 -0.89313,1.50823 -1.86986,1.18254 -2.97104,1.20771 -2.97104,0.0679 z m 139.54002,20.27538 c -0.29701,-8.0397 -0.54002,-15.40845 -0.54002,-16.375 0,-1.15593 -1.03546,-1.96446 -3.02557,-2.36248 -1.66406,-0.33282 -4.12967,-1.70922 -5.47913,-3.05868 l -2.45356,-2.45356 -2.09734,2.94543 c -2.37448,3.33466 -4.56863,3.03565 -2.8529,-0.38877 0.6033,-1.20412 2.14103,-3.08931 3.41718,-4.18931 3.10807,-2.67906 3.61847,-5.91229 0.99132,-6.27972 -2.4399,-0.34124 -14.5,10.52485 -14.5,13.06444 0,1.9832 3.00905,2.30622 4.8,0.51528 2.06309,-2.06309 1.44546,1.29978 -0.6677,3.63555 -2.03566,2.25009 -3.52059,9.20644 -2.14653,10.05566 1.08265,0.66911 4.87704,-4.09641 5.62065,-7.05921 0.48116,-1.91709 4.11429,-4.04462 5.14566,-3.01325 0.18668,0.18668 -0.64764,2.37108 -1.85404,4.85422 -1.48879,3.06437 -1.92342,5.11109 -1.3529,6.37091 0.46231,1.02087 0.87695,2.53112 0.92143,3.35612 0.0457,0.84688 0.83253,1.37206 1.80716,1.20616 2.15665,-0.36709 2.16187,0.19939 0.0318,3.45026 -1.56962,2.39555 -1.57335,2.67459 -0.0506,3.78805 0.90411,0.66111 3.57911,1.83043 5.94445,2.59851 2.36533,0.76808 4.89524,1.97262 5.62203,2.67676 2.91911,2.82817 3.25493,1.18063 2.71859,-13.33737 z m -11.07515,7.56079 c -1.5869,-2.56766 3.14852,-10.94316 6.18717,-10.94316 1.97463,0 0.90614,5.35848 -1.84447,9.25 -2.06973,2.92822 -3.28625,3.40253 -4.3427,1.69316 z m -3.76449,-12.57611 c -1.58961,-1.58961 4.69123,-10.36705 7.41831,-10.36705 2.62538,0 2.34487,2.29564 -0.72655,5.94582 -2.82407,3.35621 -5.79433,5.31866 -6.69176,4.42123 z M 270.0277,377.83919 c -0.90047,-1.2375 -2.15259,-3.2625 -2.78248,-4.5 -1.46303,-2.8743 -3.82423,-2.91409 -3.82423,-0.0644 0,2.76762 3.73911,6.81445 6.29629,6.81445 1.83823,0 1.85567,-0.12641 0.31042,-2.25 z m -4.23731,-1.22975 c -0.84418,-2.19989 0.0836,-2.88424 1.53666,-1.13344 0.81795,0.98557 0.86038,1.6395 0.13543,2.08754 -0.58059,0.35883 -1.33303,-0.0705 -1.67209,-0.9541 z m 44.6306,-24.96123 c 0,-2.44254 -0.45,-4.7191 -1,-5.05902 -0.55,-0.33992 -1,0.27102 -1,1.35765 0,1.08663 -0.48612,2.13772 -1.08028,2.33578 -0.75096,0.25032 -0.70202,1.19025 0.16052,3.08333 1.81506,3.98361 2.91976,3.3337 2.91976,-1.71774 z m -3.07029,-7.30902 c 0.0987,-1.75456 -1.8725,-1.56267 -2.56808,0.25 -0.31659,0.825 -0.25416,2.2875 0.13872,3.25 0.65574,1.60648 0.78177,1.58597 1.5367,-0.25 0.45231,-1.1 0.85401,-2.5625 0.89266,-3.25 z m 117.07029,0.98713 c 0,-0.96958 -1.0125,-2.20708 -2.25,-2.75 -2.43463,-1.06813 -3.55651,-5.08062 -1.88723,-6.7499 1.31015,-1.31015 -3.32718,-5.18628 -4.98153,-4.16383 -0.77851,0.48114 -0.59807,1.00557 0.57113,1.65988 1.40337,0.78537 1.59035,1.82067 1.04498,5.78597 -0.62861,4.57056 -0.51233,4.91176 2.16922,6.36506 3.75859,2.03702 5.33343,1.99356 5.33343,-0.14718 z m -40.56737,-4.37788 c 9.39797,4.69358 16.82394,1.74333 30.99652,-12.31451 9.13303,-9.05909 9.57034,-9.68896 9.55976,-13.76906 l -0.0111,-4.27568 -2.72266,3.5 c -8.37886,10.77108 -15.76445,16.61323 -20.54686,16.25298 -2.3512,-0.17711 -5.7083,-3.06353 -5.7083,-4.90797 0,-1.96033 1.33139,-1.64528 2.76793,0.65499 3.03535,4.86037 11.26672,0.0236 21.1961,-12.45479 4.37151,-5.49376 5.03597,-6.92509 5.03597,-10.84818 l 0,-4.51939 -6.25,-0.37328 c -9.60974,-0.57395 -10.53135,-0.10132 -14.41938,7.39477 -1.89045,3.64477 -5.55591,8.60868 -8.14547,11.03091 -4.36184,4.07999 -5.13101,4.41518 -10.45303,4.5552 -8.93737,0.23515 -12.49594,3.20979 -13.00919,10.87452 -0.14718,2.19801 -1.05543,5.19875 -2.01832,6.66831 -1.93151,2.94786 -1.24738,3.39703 1.73652,1.14013 2.55444,-1.93208 4.95315,-1.91377 4.16586,0.0318 -1.78223,4.40426 -1.6116,4.81406 0.87823,2.10925 l 2.66098,-2.89075 4.28643,2.14075 z m -5.77764,-6.68799 c -2.35032,-2.59707 -2.0504,-5.86676 0.79956,-8.71672 2.82172,-2.82172 5.71498,-3.14215 7.97402,-0.88311 2.41015,2.41014 1.88403,5.33414 -1.53433,8.52736 -3.61756,3.37931 -4.97023,3.57971 -7.23925,1.07247 z m 6.67112,-3.40623 c 2.21831,-2.97118 1.6502,-5.76503 -1.17228,-5.76503 -2.37978,0 -4.71514,2.53506 -3.19872,3.47226 0.58821,0.36353 0.76788,1.78325 0.40743,3.2194 -0.81858,3.2615 1.18669,2.79269 3.96357,-0.92663 z m 23.71621,-18.84798 c 1.35408,-2.65422 2.57473,-3.89424 3.4883,-3.54368 0.77293,0.29661 1.6713,0.10893 1.99637,-0.41704 1.49388,-2.41714 2.34996,-0.61905 0.97301,2.04367 -1.5637,3.02386 -4.20815,4.28779 -3.13837,1.5 1.00838,-2.62781 -0.25238,-1.61195 -1.86163,1.5 -0.85325,1.65 -1.99895,3 -2.546,3 -0.54706,0 -0.0573,-1.83733 1.08832,-4.08295 z m 8.95768,-4.41705 c 0,-0.825 0.66088,-1.5 1.46862,-1.5 0.89459,0 1.24363,0.58629 0.89301,1.5 -0.31659,0.825 -0.97746,1.5 -1.46862,1.5 -0.49115,0 -0.89301,-0.675 -0.89301,-1.5 z m 4,-3.5 c 0,-0.55 0.47656,-1 1.05902,-1 0.58246,0 0.7809,0.45 0.44098,1 -0.33992,0.55 -0.81648,1 -1.05902,1 -0.24254,0 -0.44098,-0.45 -0.44098,-1 z m -180.00933,38.02693 c 1.06381,-0.67258 1.59598,-3.26162 1.85846,-9.04151 0.35789,-7.88086 0.41893,-8.0528 2.26547,-6.38171 2.15057,1.94624 3.03231,1.47746 3.42503,-1.82096 0.33036,-2.77459 2.21435,-7.78275 2.92775,-7.78275 0.28428,0 1.30862,1.68147 2.27631,3.73661 3.55266,7.54498 7.87957,4.10366 8.92568,-7.09888 0.62282,-6.66968 1.65103,-8.35431 2.83063,-4.63773 0.82527,2.60021 3.13094,2.55811 4.5444,-0.083 1.02409,-1.91352 1.25706,-1.9542 2.86393,-0.5 0.96203,0.87063 2.86122,1.58296 4.22041,1.58296 1.35919,0 2.95936,0.4881 3.55592,1.08466 2.01207,2.01207 5.7394,0.57877 7.31534,-2.81302 0.825,-1.77559 1.90039,-3.23809 2.38976,-3.25 1.45779,-0.0355 3.5443,-3.36148 3.57844,-5.70425 0.0196,-1.34821 -0.7616,-2.43443 -2.04356,-2.84131 -1.14145,-0.36228 -2.15395,-0.5051 -2.25,-0.31739 -0.096,0.18772 -1.07464,2.10039 -2.17464,4.25038 -2.50388,4.89392 -4.0818,4.70068 -3.73186,-0.45703 l 0.26815,-3.95204 -7.89315,0 -7.89314,0 -0.61719,3.08594 c -0.72798,3.63992 -2.55204,3.45802 -4.45386,-0.44417 -1.26228,-2.58998 -1.63011,-2.70275 -8.26887,-2.53521 l -6.94782,0.17533 0.54006,3.10906 c 0.29704,1.70998 0.072,3.78405 -0.50013,4.60905 -0.90046,1.29849 -1.24445,1.23199 -2.56064,-0.49508 -0.83625,-1.09729 -1.3902,-3.12229 -1.231,-4.5 0.26546,-2.29735 -0.074,-2.53095 -4.09641,-2.81906 -5.52808,-0.39594 -7.01432,0.91396 -4.21414,3.71414 2.67598,2.67598 2.7256,6.69482 0.1,8.1 -1.85105,0.99065 -1.99972,2.09176 -1.99626,14.78518 0.003,11.9081 0.26478,14.14296 1.9853,16.96482 2.1242,3.48394 2.68714,3.74022 5.00163,2.27693 z m -4.57757,-14.51921 c -0.9378,-1.43127 -1.34293,-3.24057 -0.95163,-4.25 0.63676,-1.64263 0.77491,-1.63062 2.10995,0.18341 1.33084,1.80833 2.0201,6.55887 0.95163,6.55887 -0.26232,0 -1.2118,-1.12153 -2.10995,-2.49228 z m 5.77354,-14.74953 c 0.35733,-3.69669 3.81336,-5.4307 3.81336,-1.9133 0,3.08757 -1.07099,5.15511 -2.67035,5.15511 -1.0401,0 -1.3668,-0.92659 -1.14301,-3.24181 z m 13.29323,-0.79076 c -1.28167,-2.07379 -2.35867,-7.11971 -1.81951,-8.52473 0.79805,-2.07968 4.09172,-1.77446 5.30446,0.49156 1.38894,2.59527 1.3094,6.39152 -0.16482,7.86574 -1.47221,1.47221 -2.48225,1.52314 -3.32013,0.16743 z m 18.23859,-8.21743 c -0.61646,-1.71925 1.16395,-4.94071 2.33171,-4.21899 1.5142,0.93583 1.12725,5.46899 -0.46684,5.46899 -0.77916,0 -1.61836,-0.5625 -1.86487,-1.25 z m 68.28666,30.74384 c 0.6875,-0.82839 1.5301,-2.87569 1.87244,-4.54956 0.34234,-1.67386 1.07244,-2.92189 1.62244,-2.77339 0.55,0.1485 0.86777,0.8458 0.70616,1.54956 -0.41346,1.80048 2.33697,1.59356 4.25029,-0.31976 1.28883,-1.28883 1.88873,-1.3591 3.09019,-0.36198 2.18501,1.8134 5.14232,-1.23821 5.97474,-6.16525 0.52813,-3.12598 1.02351,-3.83529 2.37825,-3.40532 1.72202,0.54655 6.10037,-2.68828 6.10037,-4.5071 0,-0.52857 0.45,-0.96104 1,-0.96104 0.55,0 1,0.675 1,1.5 0,0.825 0.3949,1.5 0.87756,1.5 0.48265,0 1.43775,-0.675 2.12244,-1.5 1.96173,-2.36374 3.00194,-1.75969 2.37426,1.37872 -0.31666,1.5833 -0.19291,3.10019 0.275,3.37088 1.45438,0.84138 14.97423,-1.67554 16.68846,-3.10679 1.42573,-1.19038 1.45006,-1.60771 0.19797,-3.39532 -0.83102,-1.18645 -1.19912,-3.18034 -0.88088,-4.77153 0.83137,-4.15685 -1.0112,-4.31912 -5.11332,-0.45032 -2.03672,1.92087 -4.11676,3.23686 -4.62231,2.92441 -1.42746,-0.88222 -1.08463,-4.76882 0.63752,-7.22754 2.16804,-3.09531 0.83306,-2.77191 -3.20948,0.77749 -5.36824,4.71338 -8.74855,3.61056 -5.88809,-1.92097 2.31087,-4.46872 1.95427,-5.07903 -2.9676,-5.07903 -4.16665,0 -4.41921,0.14293 -3.33114,1.88522 1.4149,2.26562 -0.15668,6.76849 -3.92563,11.24764 -2.8374,3.37205 -3.87574,3.57366 -4.71916,0.91631 -1.0227,-3.22226 1.29922,-9.74346 4.25441,-11.94866 l 2.72999,-2.03715 -8.88533,-0.0317 c -8.21363,-0.0293 -9.06048,0.15731 -11.20225,2.46832 -2.9437,3.17631 -4.41242,3.17631 -4.41242,0 0,-2.29886 -0.36457,-2.5 -4.53138,-2.5 -3.00701,0 -4.71601,0.4811 -5.08018,1.43012 -0.60061,1.56518 -5.49923,3.56988 -8.72321,3.56988 -3.03834,0 -6.66523,3.90391 -6.66523,7.17431 0,2.23899 0.45379,2.82569 2.18555,2.82569 1.20205,0 3.22528,-0.97677 4.49606,-2.17061 3.19376,-3.00039 3.81788,-1.79028 1.28805,2.49745 -2.66183,4.51147 -2.33448,9.04991 0.68378,9.48006 2.35882,0.33617 5.34656,-3.03316 5.34656,-6.02941 0,-0.97762 0.45,-1.77749 1,-1.77749 0.55,0 1.01497,1.0125 1.03327,2.25 l 0.0333,2.25 1.99173,-2.39166 c 2.7546,-3.30771 3.65907,-1.83583 1.56733,2.55059 -2.02236,4.24094 -0.76001,6.79875 1.65426,3.3519 2.14445,-3.06163 3.14959,-0.74197 1.26101,2.91014 -1.5673,3.03083 -2.08536,9.20121 -0.8742,10.41236 1.11691,1.11692 3.02047,0.74857 4.33845,-0.83949 z m 7.60187,-12.07563 c -0.90733,-2.36447 -0.70357,-8.71719 0.33211,-10.35391 1.37121,-2.16698 4.0609,0.47776 4.0609,3.99305 0,5.79267 -2.9641,10.08454 -4.39301,6.36086 z m -10.10082,-8.40822 c -1.18612,-1.91918 3.74673,-10.4749 6.24383,-10.82954 2.85903,-0.40605 2.8058,0.22971 -0.52336,6.25146 -2.81496,5.09167 -4.54657,6.47748 -5.72047,4.57808 z m -8.50617,-7.31886 c 0,-3.94328 2.15155,-7.33354 3.94904,-6.22262 2.20363,1.36191 -0.42898,9.53149 -3.07148,9.53149 -0.48266,0 -0.87756,-1.48899 -0.87756,-3.30887 z m 18.73557,0.7111 c -1.30372,-1.30371 3.31765,-8.40223 5.47013,-8.40223 2.25516,0 1.83345,3.3497 -0.76289,6.0597 -2.87971,3.00576 -3.65713,3.39264 -4.70724,2.34253 z m 45.87142,3.01598 c -0.33385,-0.86998 -0.60699,-2.08498 -0.60699,-2.7 0,-0.81571 -0.30645,-0.81177 -1.13278,0.0146 -1.30949,1.30949 -0.47192,4.26722 1.20838,4.26722 0.62721,0 0.86582,-0.71028 0.53139,-1.58179 z m -0.60699,-7.2577 c 0,-3.09004 -3.01539,-5.16051 -7.51567,-5.16051 -3.41513,0 -2.15828,2.69306 1.6469,3.52882 1.63028,0.35807 3.50093,1.51057 4.157,2.56111 1.56642,2.50823 1.71177,2.42931 1.71177,-0.92942 z"
       id="path4236"
       inkscape:connector-curvature="0" />
  </g>
</svg>
