<?xml version="1.0" encoding="UTF-8" standalone="no"?>
<!-- Created with Inkscape (http://www.inkscape.org/) -->

<svg
   xmlns:dc="http://purl.org/dc/elements/1.1/"
   xmlns:cc="http://creativecommons.org/ns#"
   xmlns:rdf="http://www.w3.org/1999/02/22-rdf-syntax-ns#"
   xmlns:svg="http://www.w3.org/2000/svg"
   xmlns="http://www.w3.org/2000/svg"
   xmlns:sodipodi="http://sodipodi.sourceforge.net/DTD/sodipodi-0.dtd"
   xmlns:inkscape="http://www.inkscape.org/namespaces/inkscape"
   width="54.468887mm"
   height="54.850155mm"
   viewBox="0 0 192.99999 194.35094"
   id="svg2"
   version="1.1"
   inkscape:version="0.91 r13725"
   sodipodi:docname="tiger.svg">
  <defs
     id="defs4" />
  <sodipodi:namedview
     id="base"
     pagecolor="#ffffff"
     bordercolor="#666666"
     borderopacity="1.0"
     inkscape:pageopacity="0.0"
     inkscape:pageshadow="2"
     inkscape:zoom="1.4"
     inkscape:cx="79.568399"
     inkscape:cy="72.269109"
     inkscape:document-units="px"
     inkscape:current-layer="layer1"
     showgrid="false"
     fit-margin-top="0"
     fit-margin-left="0"
     fit-margin-right="0"
     fit-margin-bottom="0"
     inkscape:window-width="1366"
     inkscape:window-height="744"
     inkscape:window-x="0"
     inkscape:window-y="24"
     inkscape:window-maximized="1" />
  <metadata
     id="metadata7">
    <rdf:RDF>
      <cc:Work
         rdf:about="">
        <dc:format>image/svg+xml</dc:format>
        <dc:type
           rdf:resource="http://purl.org/dc/dcmitype/StillImage" />
        <dc:title></dc:title>
      </cc:Work>
    </rdf:RDF>
  </metadata>
  <g
     inkscape:label="Layer 1"
     inkscape:groupmode="layer"
     id="layer1"
     transform="translate(-510.02719,-269.80744)">
    <path
       style="fill:#000000"
       d="m 563.30837,464.04869 -53.21881,-0.25875 -0.0362,-74.4291 c -0.0238,-48.83009 0.30943,-74.64274 0.96881,-75.05027 0.65655,-0.40577 1.00507,4.63784 1.00507,14.54484 0,14.04115 0.1298,15.11461 1.75,14.47301 3.00332,-1.18932 14.0784,-2.68932 16.46981,-2.23067 1.78327,0.34202 1.60991,0.467 -0.7955,0.57351 -3.13255,0.1387 -9.30029,5.13217 -6.34862,5.13992 0.78337,0.002 0.0743,0.82913 -1.57569,1.83794 -1.65,1.00881 -3.675,2.68686 -4.5,3.729 -1.46579,1.85159 -1.43531,1.85346 1.33676,0.0822 3.92286,-2.50663 4.51837,-1.34493 0.74185,1.44717 -1.69324,1.25186 -3.07861,2.71123 -3.07861,3.24305 0,0.53181 0.82293,0.22218 1.82874,-0.68806 3.21151,-2.90638 3.65408,-1.77379 0.60835,1.55682 -1.6154,1.76649 -2.13872,2.60237 -1.16292,1.8575 3.33709,-2.54737 2.70099,-0.43749 -0.90417,2.99904 -3.01389,2.87292 -3.49195,3.07483 -2.93618,1.24009 0.36512,-1.20535 0.86589,-4.58035 1.11282,-7.5 0.69489,-8.21622 0.97274,-9.5244 2.38412,-11.22501 1.56465,-1.88529 0.0274,-2.16656 -2.9965,-0.54825 -1.74614,0.93451 -1.93141,2.17451 -1.90495,12.75 l 0.0293,11.71482 3.04189,-3.34547 c 1.67303,-1.84 3.26813,-3.11921 3.54466,-2.84268 0.4501,0.4501 -1.96234,3.69181 -5.39518,7.24974 -2.92005,3.02646 -0.94273,2.53292 2.25,-0.56159 1.925,-1.86578 3.5,-2.88062 3.5,-2.25518 0,0.62543 -0.47375,1.42994 -1.05279,1.7878 -0.57903,0.35787 -0.86819,1.17192 -0.64258,1.80902 0.22561,0.6371 -0.49336,2.44794 -1.59772,4.02409 l -2.00791,2.86573 2.27118,-1.2155 c 2.60027,-1.39162 2.36976,-0.77806 -1.78877,4.76126 -1.35317,1.80247 -2.20901,3.52851 -1.90188,3.83564 0.30714,0.30714 1.06072,-0.38011 1.67463,-1.52721 0.61392,-1.14711 1.5666,-2.08565 2.11707,-2.08565 0.55048,0 -0.14035,1.67946 -1.53518,3.73213 -1.39483,2.05268 -2.53605,4.17781 -2.53605,4.72251 0,0.54471 0.70052,-0.01 1.5567,-1.23213 2.31283,-3.30203 3.61703,-2.69129 1.64679,0.77117 -0.93692,1.64652 -2.04099,2.99652 -2.45349,3 -0.4125,0.003 -0.75,0.78145 -0.75,1.72883 0,1.41588 0.27711,1.32687 1.5567,-0.5 0.85619,-1.22238 2.00671,-2.22251 2.55671,-2.22251 0.55,0 0.29948,1.00013 -0.55671,2.22251 -1.9759,2.821 -1.97885,3.87671 -0.009,3.1207 1.05667,-0.40548 0.59471,1.02277 -1.45548,4.49988 -1.65191,2.80165 -2.63931,5.31897 -2.19422,5.59405 0.44509,0.27508 1.31541,-0.61074 1.93404,-1.9685 0.61864,-1.35775 1.60027,-2.46864 2.18141,-2.46864 1.27512,0 -0.17687,3.02027 -2.63255,5.47595 -1.4346,1.43461 -1.60953,4.73592 -1.44682,27.30587 0.13398,18.58622 0.51367,25.88289 1.37535,26.43076 0.65466,0.41624 11.79934,0.76369 24.76597,0.77211 l 23.57568,0.0153 2.34863,-2.5 c 1.29174,-1.375 2.84816,-2.5 3.45871,-2.5 0.61054,0 1.92602,-1.38129 2.92329,-3.06953 1.09569,-1.85486 2.36505,-2.85778 3.20772,-2.53441 0.8688,0.33338 2.01091,-0.67712 3.02957,-2.68047 2.1381,-4.20489 2.1113,-4.18407 3.69416,-2.87041 1.06125,0.88075 1.59083,0.63634 2.39965,-1.1075 2.62335,-5.65599 3.2869,-8.14486 3.2869,-12.32857 0,-3.72062 -0.30068,-4.44607 -1.74206,-4.20295 -1.2866,0.21702 -1.87486,-0.56615 -2.25,-2.99551 -0.27937,-1.80915 -0.95794,-3.15915 -1.50794,-3 -0.55,0.15914 -1.14434,-0.96837 -1.32076,-2.50558 -0.25459,-2.21836 -0.70745,-2.6722 -2.1953,-2.19997 -1.54267,0.48962 -1.99605,-0.0778 -2.56087,-3.20507 -1.03297,-5.71937 -1.9081,-6.81657 -6.61176,-8.28959 -2.37122,-0.74258 -4.78516,-1.91349 -5.36431,-2.60202 -0.57916,-0.68852 -1.70416,-1.2162 -2.5,-1.17261 -3.94316,0.21598 -5.947,-0.3689 -5.947,-1.73581 0,-0.825 -0.675,-1.5 -1.5,-1.5 -0.825,0 -1.5,-0.675 -1.5,-1.5 0,-0.83333 -0.88889,-1.5 -2,-1.5 -1.1,0 -2,-0.66088 -2,-1.46862 0,-0.91955 -0.58309,-1.24486 -1.55966,-0.87011 -1.04182,0.39978 -1.74458,-0.10867 -2.11663,-1.53139 -0.30633,-1.17143 -1.17949,-2.12988 -1.94034,-2.12988 -0.76085,0 -1.38337,-0.9 -1.38337,-2 0,-1.1 -0.45,-2 -1,-2 -0.55,0 -1,-1.37656 -1,-3.05902 0,-1.7847 -0.41658,-2.80156 -1,-2.44098 -0.60301,0.37268 -1,-0.96994 -1,-3.38197 0,-2.2 -0.45097,-4.27871 -1.00217,-4.61937 -0.57681,-0.35649 -0.73478,-2.29149 -0.37219,-4.55902 0.385,-2.40762 0.23613,-3.93964 -0.38282,-3.93964 -1.71633,0 -4.66076,5.31851 -4.90883,8.86677 -0.12945,1.85173 -0.93256,4.13716 -1.78468,5.07874 -1.73915,1.92175 -2.07844,3.49954 -0.54931,2.55449 1.47478,-0.91147 1.22177,0.2229 -0.73274,3.28518 -1.64365,2.57524 -1.64365,2.64426 0,1.34238 0.95301,-0.75485 1.73274,-1.11807 1.73274,-0.80716 0,0.77355 -4.10693,7.6796 -4.56694,7.6796 -0.39154,0 0.18669,-7.14835 1.05157,-13 0.28452,-1.925 0.74187,-5.4125 1.01634,-7.75 1.22143,-10.40227 1.62013,-12.69618 2.37956,-13.69055 1.09505,-1.43382 3.62456,-10.76907 3.31488,-12.23367 -0.13655,-0.64582 0.66362,-1.46365 1.77816,-1.81739 1.11453,-0.35374 2.02643,-1.06284 2.02643,-1.57578 0,-0.51293 0.62159,-0.93261 1.38131,-0.93261 0.75972,0 2.58262,-1.575 4.05089,-3.5 2.04511,-2.68128 2.3068,-3.5 1.11869,-3.5 -2.70131,0 -1.68608,-2.64514 2.44911,-6.38104 4.25624,-3.84525 4.92589,-4.91149 2.5,-3.98059 -3.31454,1.27191 -1.18593,-1.89186 3.94275,-5.86013 4.0368,-3.12345 5.17611,-4.53257 4.41052,-5.45504 -1.35818,-1.63651 3.73854,-4.7859 10.28767,-6.35701 l 4.80881,-1.15362 -0.57172,-5.65628 c -0.49405,-4.88794 -0.24466,-6.13173 1.83592,-9.15629 2.18936,-3.18271 2.83271,-3.4943 7.09676,-3.43716 3.70077,0.0496 5.29351,0.64186 7.55649,2.80993 l 2.86735,2.74709 3.68326,-2.49952 c 5.33281,-3.61895 13.34116,-4.9904 24.79501,-4.24623 5.34206,0.34708 12.09206,1.11517 15,1.70686 6.1622,1.25384 17.85178,6.98969 22.57198,11.07562 3.91226,3.38656 3.7364,3.3652 6.94233,0.84341 6.89764,-5.42568 14.78624,1.74831 11.39875,10.36617 -0.56433,1.43566 0.57653,3.17624 4.94548,7.54519 6.27267,6.27267 9.50242,11.78334 11.77373,20.08864 1.84162,6.73407 2.33092,18.70065 0.88898,21.74146 -0.75434,1.59077 -0.74731,2.93406 0.0242,4.62733 0.75719,1.66184 0.76938,2.70357 0.0402,3.43278 -0.7292,0.7292 -0.70574,2.02557 0.0773,4.27189 1.55535,4.46168 1.46463,4.84663 -1.39882,5.93531 -2.03221,0.77264 -2.40494,1.42992 -1.91588,3.37848 0.38116,1.51868 0.10272,2.73442 -0.74799,3.26598 -0.74535,0.46572 -1.89856,2.08427 -2.56269,3.59677 -0.66413,1.5125 -1.89215,2.75 -2.72894,2.75 -0.95041,0 -1.52144,0.9251 -1.52144,2.46482 0,1.41312 -0.82501,2.90634 -1.93354,3.49961 -1.06345,0.56914 -2.07595,2.27247 -2.25,3.78519 -0.25101,2.18153 -0.90132,2.81738 -3.14425,3.07431 -2.10518,0.24115 -3.09532,1.09135 -3.87471,3.32711 -0.86178,2.47211 -1.45611,2.90048 -3.36092,2.4224 -1.27271,-0.31943 -2.60446,-0.11082 -2.95945,0.46357 -0.35499,0.57439 -1.46932,0.78286 -2.47628,0.46326 -1.20379,-0.38207 -2.35851,0.17227 -3.37152,1.61855 -1.33566,1.90692 -1.7606,2.01713 -3.19322,0.82816 -1.42493,-1.18259 -1.84765,-1.10466 -3.06913,0.56582 -1.18122,1.61542 -1.73707,1.73717 -3.34543,0.73273 -1.34246,-0.83838 -2.12923,-0.88031 -2.58805,-0.13793 -0.36257,0.58665 -1.48286,0.85125 -2.48954,0.588 -1.033,-0.27014 -2.58534,0.35563 -3.56352,1.43651 -1.33806,1.47854 -1.92529,1.6248 -2.57582,0.64152 -0.65399,-0.9885 -1.14289,-0.88186 -2.18387,0.47637 -0.73768,0.9625 -2.08877,1.75 -3.00243,1.75 -0.91366,0 -2.1817,1.14239 -2.81788,2.53864 -0.63617,1.39625 -1.71125,2.32583 -2.38907,2.06572 -1.39211,-0.5342 -9.44825,6.7111 -11.28105,10.14564 -0.66038,1.2375 -1.80475,2.25 -2.54306,2.25 -0.7383,0 -1.91957,0.69548 -2.62503,1.54551 -0.70546,0.85003 -1.81327,1.34189 -2.46179,1.09303 -0.64853,-0.24886 -1.95187,0.85566 -2.89632,2.45449 -0.94447,1.59883 -2.12131,2.90697 -2.61521,2.90697 -1.25272,0 -5.55772,4.43393 -6.3764,6.56737 -1.06592,2.77774 -2.7631,0.27629 -3.35093,-4.93888 -0.28534,-2.53154 -1.299,-5.25735 -2.28786,-6.15226 -1.66195,-1.50405 -1.85553,-1.36278 -3.02625,2.20847 -1.8726,5.71229 -3.94204,8.4518 -5.91218,7.8265 -1.15356,-0.36612 -2.07291,0.27593 -2.85595,1.99451 -0.63512,1.39395 -2.2853,2.96427 -3.66706,3.48962 -1.38176,0.52534 -2.51229,1.39086 -2.51229,1.92338 0,0.53252 -1.35,1.76568 -3,2.74036 -1.65,0.97468 -3,2.12512 -3,2.55654 0,0.43141 30.6,0.78439 68,0.78439 l 68,0 0.11831,-9.25 c 0.19136,-14.96002 1.62884,-16.998 1.76338,-2.5 0.0651,7.0125 -0.21919,12.75046 -0.63169,12.75103 -0.4125,5.7e-4 -19.875,0.11307 -43.25,0.25 -23.375,0.13693 -66.44847,0.13253 -95.71881,-0.01 z m 40.01428,-25.66254 c 1.53749,-1.41829 3.38066,-2.57871 4.09593,-2.57871 0.71526,0 4.9296,-3.6 9.3652,-8 4.43561,-4.4 8.49984,-8 9.03163,-8 0.53179,0 1.51934,-0.66566 2.19456,-1.47925 1.55374,-1.87214 6.80957,-4.52075 8.97086,-4.52075 0.9055,0 2.16083,-0.51447 2.78963,-1.14327 1.45561,-1.45561 7.09189,-1.93246 7.87447,-0.66622 0.32629,0.52795 1.69448,-0.0746 3.04043,-1.3391 2.02805,-1.90526 2.59896,-2.0534 3.33345,-0.86497 0.75493,1.22151 1.16635,1.18058 2.77607,-0.2762 1.03939,-0.94063 2.8403,-1.71024 4.00203,-1.71024 1.16174,0 2.37821,-0.43035 2.70329,-0.95633 0.32507,-0.52598 1.22121,-0.7145 1.99142,-0.41895 0.86666,0.33257 2.00467,-0.63119 2.98592,-2.5287 1.14017,-2.20486 2.21249,-3.00007 3.81759,-2.83105 1.83342,0.19305 2.28667,-0.32718 2.53781,-2.91292 0.20583,-2.11924 0.9411,-3.31409 2.25,-3.65638 1.07711,-0.28167 1.94425,-1.36785 1.94425,-2.43538 0,-2.62778 -1.04682,-3.46633 -2.65799,-2.12917 -0.73811,0.61257 -1.34201,0.80711 -1.34201,0.43231 0,-0.37481 -0.5625,-0.33042 -1.25,0.0986 -0.6875,0.42905 -1.99781,0.89673 -2.9118,1.03929 -1.52779,0.23829 -1.5389,-0.0537 -0.13774,-3.6207 1.24041,-3.15779 1.96845,-3.8311 3.9118,-3.61777 1.31326,0.14416 2.38774,-0.15257 2.38774,-0.6594 0,-1.61879 2.09044,0.30421 3.03693,2.79367 1.43447,3.77293 3.32068,2.994 2.65678,-1.09714 -0.59055,-3.63914 0.0585,-4.34783 2.10629,-2.3 1.33316,1.33316 1.48725,0.8209 1.21658,-4.04428 -0.16511,-2.96769 0.0487,-3.26978 1.89868,-2.68262 1.66486,0.52841 2.08474,0.23529 2.08474,-1.45537 0,-1.16438 -0.68656,-3.4447 -1.52568,-5.06739 -1.36757,-2.6446 -1.36757,-2.95034 0,-2.95034 1.83717,0 1.94661,-1.35313 0.32007,-3.95763 -0.98104,-1.57089 -0.89732,-2.27115 0.44941,-3.75927 1.01911,-1.1261 1.33877,-2.34048 0.83195,-3.16053 -0.45512,-0.7364 -0.33093,-2.63557 0.27781,-4.24829 0.87412,-2.31582 0.74511,-3.9182 -0.62635,-7.77962 -0.94996,-2.67468 -1.72721,-6.01361 -1.72721,-7.41984 0,-1.40622 -0.45,-2.83488 -1,-3.1748 -0.58311,-0.36038 -1,0.65247 -1,2.42955 0,1.67617 -0.7875,3.97198 -1.75,5.1018 -1.74476,2.04807 -1.75189,2.04587 -2.38169,-0.73857 -0.57589,-2.54612 -0.64213,-2.46159 -0.75,0.95722 -0.0651,2.0625 -0.56831,3.75 -1.11831,3.75 -1.20603,0 -1.20603,-7.69342 0,-10.5 0.789,-1.83611 0.86644,-1.79514 0.94503,0.5 0.0641,1.87059 0.31064,2.14448 0.97949,1.08789 0.6894,-1.08907 0.98503,-0.86031 1.2923,1 0.3126,1.89259 0.61933,1.44291 1.42413,-2.08789 1.25631,-5.51166 0.4137,-7.46185 -6.37299,-14.75 -4.40739,-4.73304 -8.26796,-6.75558 -8.26796,-4.33156 0,0.50514 -1.60911,1.91293 -3.57581,3.12841 -3.11931,1.92784 -3.88528,2.04434 -6,0.91258 -1.3333,-0.71356 -2.42419,-1.88108 -2.42419,-2.59448 0,-0.7134 -0.7549,-2.88015 -1.67756,-4.81498 -1.47309,-3.0891 -1.5052,-3.83996 -0.26345,-6.16019 1.35928,-2.53985 1.24868,-2.78911 -2.8527,-6.42876 -2.34675,-2.08256 -5.67413,-4.27706 -7.3942,-4.87668 l -3.12738,-1.09021 1.90765,2.14903 c 1.32348,1.49096 1.44831,1.95139 0.40764,1.50358 -0.825,-0.355 -2.30012,-0.92653 -3.27804,-1.27006 -1.11805,-0.39276 -1.57671,-1.25897 -1.23564,-2.33359 0.81531,-2.5688 -3.2153,-3.94638 -16.62476,-5.68202 -9.07244,-1.17428 -13.33593,-1.28795 -18.44928,-0.49188 -3.65757,0.56944 -6.70912,1.16932 -6.78121,1.33307 -0.0721,0.16376 -1.25607,1.59631 -2.63107,3.18346 -2.33938,2.70032 -2.35967,2.81275 -0.31574,1.75 3.61688,-1.88062 4.00266,-1.27564 0.81574,1.27925 -2.15763,1.72974 -3.35099,2.11514 -4.25,1.37259 -0.96375,-0.79602 -1.25,-0.1162 -1.25,2.96867 0,3.5148 -0.3696,4.15422 -3.04073,5.26064 -1.6724,0.69273 -4.86785,2.58307 -7.10099,4.20075 l -4.06027,2.94125 -2.43799,-2.29038 c -2.91347,-2.73706 -8.46697,-2.86063 -13.84606,-0.30809 -3.71966,1.7651 -4.43511,3.14889 -2.09274,4.04774 1.11917,0.42947 1.20309,1.17111 0.39489,3.48951 -0.74409,2.13452 -0.69876,3.33882 0.16487,4.37943 0.65516,0.78942 0.9009,1.90502 0.54609,2.47911 -0.35481,0.5741 -0.14199,1.04381 0.47293,1.04381 0.61492,0 0.79266,0.52647 0.39497,1.16994 -0.48618,0.78665 -0.1779,0.96074 0.94099,0.53138 2.31937,-0.89003 2.08446,0.55503 -0.33596,2.06661 -1.1,0.68696 -1.98569,1.8077 -1.9682,2.49054 0.0192,0.74819 0.55969,0.54613 1.36025,-0.50847 0.73064,-0.9625 1.89643,-1.75 2.59064,-1.75 1.00857,0 1.01205,0.30141 0.0173,1.5 -1.01549,1.22358 -0.95933,1.5 0.30473,1.5 1.14984,0 1.44865,0.7979 1.15822,3.09276 -0.33475,2.64503 -0.17595,2.91393 1.09698,1.8575 2.25277,-1.86963 2.38249,-0.79832 0.30875,2.54974 -1.02198,1.65 -1.86182,2.325 -1.86629,1.5 -0.005,-0.825 -1.28888,-2.35799 -2.85424,-3.40664 -1.56535,-1.04864 -4.06759,-4.18382 -5.56052,-6.96705 -2.55009,-4.75401 -2.60821,-5.1381 -0.95991,-6.34336 1.66102,-1.21457 1.65107,-1.35961 -0.18659,-2.72112 -1.91813,-1.42113 -1.91743,-1.4563 0.0589,-2.9682 3.0257,-2.3147 0.73278,-1.89557 -2.59563,0.47446 -3.35707,2.39045 -3.8032,3.97972 -0.90437,3.22166 3.78209,-0.98904 1.99174,1.65408 -3.5,5.1671 -5.45597,3.49014 -7.3908,6.27804 -3.5,5.04315 3.03514,-0.96332 2.47335,1.41641 -1.23844,5.24601 -2.54959,2.63051 -2.94429,3.52302 -1.85558,4.19588 1.13433,0.70106 0.98448,1.49928 -0.83375,4.44124 -1.37974,2.23246 -1.97641,4.34343 -1.58037,5.59122 0.36744,1.15771 -0.0245,2.94808 -0.9278,4.23766 -2.10452,3.00462 -2.14849,5.9189 -0.0487,3.22912 1.4307,-1.83272 1.48193,-1.77358 0.91732,1.05887 -0.32891,1.65 -1.02497,4.34528 -1.54681,5.98951 -0.63139,1.98939 -0.60373,3.10453 0.0827,3.33333 0.56731,0.18911 1.03147,2.0922 1.03147,4.22911 0,2.78145 0.37015,3.74324 1.30286,3.38533 0.9649,-0.37027 1.20756,0.48091 0.93548,3.28138 -0.24796,2.55226 -0.0637,3.34306 0.56697,2.43295 0.51389,-0.74162 1.78042,-1.18309 2.81452,-0.98106 1.59246,0.31113 1.82657,1.10984 1.52986,5.21941 -0.2131,2.95164 0.0281,4.61818 0.61589,4.25492 0.53141,-0.32843 0.76632,-1.84539 0.52202,-3.37101 -0.34667,-2.16494 -0.21083,-2.44459 0.6188,-1.27387 0.91746,1.29466 1.06507,1.26043 1.07829,-0.25 0.009,-1.07823 0.78305,-1.75 2.01531,-1.75 1.1,0 2,0.4132 2,0.91821 0,0.50502 0.25941,1.59421 0.57646,2.42043 0.39504,1.02948 -0.15567,1.60593 -1.75,1.83179 -1.54994,0.21957 -2.32646,0.99713 -2.32646,2.32957 0,1.35003 0.56872,1.90451 1.75,1.70616 1.03786,-0.17426 1.75,0.33441 1.75,1.25 0,0.87717 0.86365,1.54384 2,1.54384 1.1,0 2,0.66088 2,1.46862 0,0.89459 0.58629,1.24363 1.5,0.89301 0.97378,-0.37368 1.5,0.0257 1.5,1.13837 0,1.19026 0.5103,1.51816 1.67005,1.07312 0.91853,-0.35247 1.93103,-0.28812 2.25,0.14301 0.31897,0.43113 2.37995,1.66158 4.57995,2.73434 5.7194,2.78888 7.5,4.52156 7.5,7.29814 0,1.61784 0.69032,2.61915 2.05099,2.97498 1.26823,0.33164 2.27425,1.65262 2.63597,3.46119 0.38502,1.9251 1.05121,2.74594 1.949,2.40142 0.75022,-0.28789 1.42029,-0.0875 1.48904,0.44518 0.0687,0.53274 0.2375,1.41862 0.375,1.96862 0.1375,0.55 0.30625,1.675 0.375,2.5 0.0687,0.825 0.63125,1.3875 1.25,1.25 0.61875,-0.1375 2.03625,2.45 3.15,5.75 1.11375,3.3 2.4075,6.15 2.875,6.33333 0.4675,0.18334 0.85,1.22542 0.85,2.31574 0,1.09033 0.50106,2.91865 1.11347,4.06295 1.09358,2.04337 1.1695,2.02574 4.25,-0.98703 1.72509,-1.68716 4.39449,-4.22799 5.93199,-5.64628 z m 7.22471,-35.53398 c -0.98097,-2.1754 -3.48329,-5.13317 -5.56071,-6.57282 -3.58928,-2.48738 -3.9255,-2.54083 -6.76042,-1.07484 -1.64082,0.8485 -4.43609,3.37702 -6.21172,5.61894 -1.77564,2.24192 -3.45342,3.85122 -3.72842,3.57622 -1.02653,-1.02652 6.11145,-8.74052 9.85509,-10.65038 3.16173,-1.613 3.88601,-2.52146 3.88601,-4.87421 0,-1.59044 0.64856,-6.28143 1.44125,-10.42444 1.29647,-6.77605 1.27777,-7.94892 -0.18616,-11.67574 -1.53195,-3.89995 -1.80715,-4.10191 -4.69126,-3.44262 -4.24458,0.97028 -7.8171,0.68339 -8.66975,-0.69622 -0.99616,-1.61183 0.40205,-4.88557 6.15314,-14.4068 2.72403,-4.50976 4.95278,-8.41998 4.95278,-8.68938 0,-0.26939 -1.31843,-1.03591 -2.92984,-1.70338 -2.92274,-1.21064 -4.75781,-4.1533 -7.02503,-11.26513 -0.65507,-2.05484 -1.60821,-3.9939 -2.11808,-4.30902 -0.50988,-0.31512 -0.92705,-1.24375 -0.92705,-2.06362 0,-1.09001 0.44225,-1.24317 1.64541,-0.56985 1.04189,0.58307 3.33433,0.47925 6.25,-0.28306 11.85353,-3.09914 18.00307,5.57334 11.03421,15.56114 -8.07124,11.56772 -12.92962,19.28154 -12.92962,20.52878 0,0.86008 1.2122,1.40954 3.25,1.47315 7.7138,0.2408 11.42092,0.95446 17.40787,3.3512 3.49974,1.40104 6.75601,2.54735 7.23615,2.54735 1.6378,0 2.24592,-12.77716 1.08386,-22.77281 -1.01219,-8.70658 -0.95604,-10.36874 0.44158,-13.07145 3.29522,-6.37225 8.36627,-6.80381 13.58054,-1.15574 2.03103,2.2 4.27761,4 4.99241,4 0.75915,0 0.30319,0.99005 -1.09639,2.38063 -1.31781,1.30934 -3.17644,3.52211 -4.13029,4.91725 -0.95385,1.39515 -3.42885,3.08251 -5.5,3.7497 -2.07115,0.66719 -4.26368,1.60595 -4.87229,2.08614 -0.60937,0.4808 -1.34724,5.47696 -1.64223,11.11968 -0.61911,11.84287 -1.96851,15.7466 -5.44311,15.7466 -1.30398,0 -2.62989,-0.675 -2.94647,-1.5 -0.75666,-1.97183 -2.88159,-1.89664 -6.48054,0.22931 -3.25438,1.92241 -4.22187,4.59284 -5.89485,16.27069 l -1.07446,7.5 3.38602,3 c 1.86232,1.65 4.35717,4.71322 5.54412,6.80716 2.40348,4.24007 2.52986,4.69284 1.30995,4.69284 -0.46646,0 -1.65073,-1.77987 -2.6317,-3.95527 z m 17.44803,-63.79473 c -0.0175,-0.4125 -0.6925,-1.62351 -1.5,-2.69113 -1.44667,-1.91267 -1.4682,-1.91144 -1.4682,0.0833 0,1.11346 0.3,2.32447 0.66667,2.69113 0.89849,0.89849 2.34095,0.84626 2.30153,-0.0833 z m 5.99284,-2.43856 c 4.04348,-4.34017 2.03107,-12.81144 -3.04345,-12.81144 -2.27471,0 -5.94119,4.63746 -5.83864,7.38486 0.0666,1.78547 0.23549,1.68652 1.08333,-0.63486 1.21743,-3.33332 2.54239,-3.54422 3.14122,-0.5 l 0.4426,2.25 0.74358,-2.25 c 0.40897,-1.2375 1.17685,-2.25 1.70641,-2.25 1.26783,0 -0.0232,5.80652 -1.94224,8.73533 -1.32527,2.02262 -1.31542,2.26467 0.0922,2.26467 0.86684,0 2.49359,-0.98485 3.61501,-2.18856 z m -27.99999,-3 c 2.79821,-3.00354 2.70463,-8.23177 -0.18356,-10.25474 -7.35077,-5.14868 -14.44235,3.19681 -8.32524,9.79728 2.98318,3.2189 5.79527,3.37008 8.5088,0.45746 z m -5.96105,-4.31144 c 0,-2.475 0.45,-4.5 1,-4.5 0.55,0 1,0.7301 1,1.62244 0,1.34023 0.26513,1.40241 1.52417,0.3575 2.32728,-1.93147 2.75556,-0.5852 1.08544,3.41197 -2.19573,5.25511 -4.60961,4.78805 -4.60961,-0.89191 z m 57.0318,74.94113 c -0.0175,-0.58238 0.62889,-1.93238 1.4364,-3 0.8075,-1.06762 1.4825,-1.46464 1.5,-0.88226 0.0175,0.58238 -0.62889,1.93238 -1.4364,3 -0.8075,1.06762 -1.4825,1.46464 -1.5,0.88226 z m -6.0318,-1.88211 c 0,-0.79254 0.45,-1.7191 1,-2.05902 0.55,-0.33992 1,-0.0864 1,0.56343 0,0.83315 0.49741,0.77685 1.68723,-0.19099 1.48525,-1.20814 1.60496,-1.15316 1,0.45935 -0.37798,1.00748 -0.68723,2.01998 -0.68723,2.25 0,0.23001 -0.9,0.41821 -2,0.41821 -1.1,0 -2,-0.64844 -2,-1.44098 z m 10.3537,-0.24606 c 1.00555,-1.00554 4.6463,-1.11982 4.6463,-0.14584 0,0.45808 -1.2,0.83288 -2.66667,0.83288 -1.46666,0 -2.3575,-0.30917 -1.97963,-0.68704 z m -13.3537,-1.19493 c 0,-0.55 0.45,-1.27811 1,-1.61803 0.55,-0.33992 1,-0.16803 1,0.38197 0,0.55 -0.45,1.27811 -1,1.61803 -0.55,0.33992 -1,0.16803 -1,-0.38197 z m -2.5,-1.11803 c 0.33992,-0.55 0.81648,-1 1.05902,-1 0.24254,0 0.44098,0.45 0.44098,1 0,0.55 -0.47656,1 -1.05902,1 -0.58246,0 -0.7809,-0.45 -0.44098,-1 z m 17.88651,-9.96875 c 0.35805,-1.90781 1.13996,-3.93281 1.73759,-4.5 0.77762,-0.73801 0.88451,-0.036 0.3759,2.46875 -0.39089,1.925 -1.1728,3.95 -1.73759,4.5 -0.7002,0.68187 -0.81978,-0.10353 -0.3759,-2.46875 z m 2.65859,1.41875 c 0.0248,-1.0725 0.70379,-3.3 1.50885,-4.95 l 1.46375,-3 -0.47254,3.91369 c -0.50469,4.17993 -2.58091,7.53196 -2.50006,4.03631 z m -43.0451,-0.89098 c 0,-0.85746 0.45,-1.55902 1,-1.55902 0.55,0 1,0.42344 1,0.94098 0,0.51754 -0.45,1.2191 -1,1.55902 -0.55,0.33992 -1,-0.0835 -1,-0.94098 z m 4.57003,0.55429 c -0.30141,-0.48768 0.082,-1.40954 0.85195,-2.04856 1.55873,-1.29363 3.15488,0.19286 2.07802,1.93525 -0.7652,1.23812 -2.20049,1.29363 -2.92997,0.11331 z m -9.57003,-1.61331 c 0,-0.825 0.45,-1.5 1,-1.5 0.55,0 1,0.675 1,1.5 0,0.825 -0.45,1.5 -1,1.5 -0.55,0 -1,-0.675 -1,-1.5 z m 42.50729,-1.75 0.4573,-3.25 -1.17534,2.75 c -0.99238,2.32193 -2.78925,3.80172 -2.78925,2.29705 0,-1.04379 2.36873,-5.54581 2.91052,-5.53174 2.04198,0.053 3.14173,1.92831 2.53906,4.32955 -0.94678,3.77226 -2.49025,3.29955 -1.94229,-0.59486 z m -26.50729,0.33333 c 0,-1.22833 0.64569,-2.08333 1.57332,-2.08333 0.93124,0 1.44138,0.68037 1.25,1.66713 -0.48655,2.50877 -2.82332,2.85325 -2.82332,0.4162 z m -79,-0.58333 c 0,-0.825 0.45,-1.5 1,-1.5 0.55,0 1,0.675 1,1.5 0,0.825 -0.45,1.5 -1,1.5 -0.55,0 -1,-0.675 -1,-1.5 z m 99,-0.44098 c 0,-1.06754 0.45,-2.2191 1,-2.55902 0.56716,-0.35052 1,0.48962 1,1.94098 0,1.40746 -0.45,2.55902 -1,2.55902 -0.55,0 -1,-0.87344 -1,-1.94098 z m -94,-0.059 c 0,-0.55 0.47656,-1 1.05902,-1 0.58246,0 0.7809,0.45 0.44098,1 -0.33992,0.55 -0.81648,1 -1.05902,1 -0.24254,0 -0.44098,-0.45 -0.44098,-1 z m 25.55279,-1.91459 c -0.32198,-0.52097 -0.15917,-1.21065 0.3618,-1.53262 0.52097,-0.32198 1.21065,-0.15917 1.53262,0.3618 0.32198,0.52097 0.15917,1.21065 -0.3618,1.53262 -0.52097,0.32198 -1.21065,0.15917 -1.53262,-0.3618 z m -5.40279,-1.03541 c 0.22,-0.66 0.72625,-1.16625 1.125,-1.125 1.1957,0.12369 0.96414,1.49529 -0.325,1.925 -0.66,0.22 -1.02,-0.14 -0.8,-0.8 z m -5.9625,-2.1125 c 0.24063,-0.72187 1.02812,-1.50938 1.75,-1.75 0.75,-0.25 1.125,0.125 0.875,0.875 -0.24063,0.72187 -1.02812,1.50938 -1.75,1.75 -0.75,0.25 -1.125,-0.125 -0.875,-0.875 z m 45.8125,-0.4375 c 0,-0.825 0.45,-1.5 1,-1.5 0.55,0 1,0.675 1,1.5 0,0.825 -0.45,1.5 -1,1.5 -0.55,0 -1,-0.675 -1,-1.5 z m 4.1875,0.4375 c 0.24062,-0.72187 1.02813,-1.50938 1.75,-1.75 0.75,-0.25 1.125,0.125 0.875,0.875 -0.24062,0.72187 -1.02813,1.50938 -1.75,1.75 -0.75,0.25 -1.125,-0.125 -0.875,-0.875 z m 4.30813,0.0554 c -0.34231,-0.55389 0.10054,-1.28448 0.98412,-1.62354 1.91464,-0.73472 2.98171,0.0749 2.06137,1.56407 -0.83038,1.34358 -2.23491,1.37101 -3.04549,0.0595 z m -12.49563,-1.93388 c 0,-0.51754 0.45,-1.2191 1,-1.55902 0.55,-0.33992 1,0.0835 1,0.94098 0,0.85746 -0.45,1.55902 -1,1.55902 -0.55,0 -1,-0.42344 -1,-0.94098 z m -3,-2.11804 c 0,-0.58246 0.45,-0.7809 1,-0.44098 0.55,0.33992 1,0.81648 1,1.05902 0,0.24254 -0.45,0.44098 -1,0.44098 -0.55,0 -1,-0.47656 -1,-1.05902 z m -42.48992,-0.95729 c 0.34547,-0.55897 1.04702,-0.75742 1.55902,-0.44098 1.38704,0.85723 1.12841,1.45729 -0.62812,1.45729 -0.85746,0 -1.27636,-0.45734 -0.9309,-1.01631 z m 12.48992,-0.92467 c 0,-1.13246 0.45,-2.05902 1,-2.05902 0.55,0 1,0.64844 1,1.44098 0,0.79254 -0.45,1.7191 -1,2.05902 -0.55,0.33992 -1,-0.30852 -1,-1.44098 z m 5,0.5 c 0,-0.85746 0.45,-1.55902 1,-1.55902 0.55,0 1,0.42344 1,0.94098 0,0.51754 -0.45,1.2191 -1,1.55902 -0.55,0.33992 -1,-0.0835 -1,-0.94098 z m 4.5,0.44098 c -0.33992,-0.55 -0.14148,-1 0.44098,-1 0.58246,0 1.05902,0.45 1.05902,1 0,0.55 -0.19844,1 -0.44098,1 -0.24254,0 -0.7191,-0.45 -1.05902,-1 z m -40.5,-2.60887 c 0,-1.10488 0.70566,-2.88238 1.56813,-3.95 1.49087,-1.8455 1.53665,-1.79333 0.92924,1.05887 -0.79418,3.72918 -2.49737,5.70091 -2.49737,2.89113 z m -4.25,-0.0805 c -0.9625,-0.25148 -1.75,-0.90084 -1.75,-1.44297 0,-0.54213 -0.45,-0.70758 -1,-0.36766 -1.86205,1.15081 -1.0139,-3.26268 1.0837,-5.63922 1.48571,-1.68326 1.91619,-1.85855 1.5,-0.61078 -1.58315,4.74646 -1.59167,5.0437 -0.0691,2.41159 1.83083,-3.16499 3.2685,-2.99334 1.56642,0.18702 -1.94929,3.64228 -1.12301,4.73253 0.9766,1.28861 1.12758,-1.84953 2.25681,-3.15612 2.50939,-2.90354 0.43382,0.43382 -2.32737,7.89698 -2.83043,7.65032 -0.13012,-0.0638 -1.02408,-0.3218 -1.98658,-0.57333 z m 7.25,-0.18819 c 0,-0.48265 0.675,-1.43775 1.5,-2.12244 1.62821,-1.35129 1.83174,-1.02807 0.89301,1.41821 -0.64255,1.67447 -2.39301,2.18961 -2.39301,0.70423 z m 23.24953,-0.37244 c 0.22891,-0.6875 1.16483,-1.39519 2.07983,-1.57265 1.16013,-0.225 1.48098,0.15332 1.06014,1.25 -0.70939,1.84865 -3.75217,2.16131 -3.13997,0.32265 z m 86.4377,-4 c 0.62709,-5.55189 0.9423,-6.45381 1.91541,-5.48069 0.87907,0.87907 -0.63518,10.73069 -1.64936,10.73069 -0.47248,0 -0.5922,-2.3625 -0.26605,-5.25 z m 2.9138,0 c 0.68614,-5.37724 1.04162,-6.44069 1.87449,-5.60781 0.81832,0.81831 -0.70664,10.85781 -1.64925,10.85781 -0.49827,0 -0.59814,-2.3277 -0.22524,-5.25 z m -108.60103,3.25 c 0,-0.55 0.47656,-1 1.05902,-1 0.58246,0 0.7809,0.45 0.44098,1 -0.33992,0.55 -0.81648,1 -1.05902,1 -0.24254,0 -0.44098,-0.45 -0.44098,-1 z m 102.11831,-0.691 c 0.0651,-0.99496 0.46184,-3.15902 0.88169,-4.80902 0.72105,-2.83369 0.76993,-2.76766 0.88169,1.19098 0.0651,2.30504 -0.33169,4.4691 -0.88169,4.80902 -0.55,0.33992 -0.94676,-0.19602 -0.88169,-1.19098 z m 9.42467,-2.77569 c 0.91953,-5.74506 2.50911,-7.75423 6.37551,-8.05838 1.83256,-0.14416 3.6634,-0.79844 4.06853,-1.45394 1.11136,-1.79823 2.09079,-1.45122 3.96411,1.40449 0.93468,1.42484 2.00305,2.28699 2.37414,1.91589 0.3711,-0.3711 0.67473,0.12776 0.67473,1.10858 0,1.28044 -0.55415,1.63838 -1.96521,1.26938 -1.38405,-0.36194 -2.16238,0.1073 -2.63194,1.58673 -1.46576,4.6182 -4.98736,6.12889 -5.69712,2.44392 -0.37157,-1.92915 -0.45279,-1.85785 -0.56955,0.5 -0.0749,1.5125 -0.57757,2.75 -1.11705,2.75 -0.56437,0 -0.7967,-2.01697 -0.54715,-4.75 l 0.43373,-4.75 -1.08154,5.17816 c -0.86895,4.16038 -1.45942,5.14969 -3.00414,5.03333 -1.67254,-0.12599 -1.83865,-0.66944 -1.27705,-4.17816 z m -12.47269,0.71667 c -0.0387,-1.7875 0.37971,-3.25 0.92971,-3.25 1.18717,0 1.18717,1.7373 0,4.5 -0.72021,1.67602 -0.87082,1.47353 -0.92971,-1.25 z m -3.07029,-0.0833 c 0,-1.19167 0.41018,-2.16667 0.91152,-2.16667 1.01666,0 0.8649,2.55691 -0.21591,3.63772 -0.38259,0.38259 -0.69561,-0.27939 -0.69561,-1.47105 z M 541.0185,368.29696 c -1.30967,-1.57805 -1.62654,-6.65268 -0.52655,-8.43251 0.82083,-1.32811 3.53524,-0.16212 3.53524,1.51859 0,0.81445 0.61806,1.12446 1.538,0.77144 1.33288,-0.51147 0.0567,2.56981 -3.07617,7.42713 -0.0973,0.15079 -0.75899,-0.4273 -1.47052,-1.28465 z m 20.00869,-9.4305 c 0,-0.51754 0.45,-1.2191 1,-1.55902 0.55,-0.33992 1,0.0835 1,0.94098 0,0.85746 -0.45,1.55902 -1,1.55902 -0.55,0 -1,-0.42344 -1,-0.94098 z m 3,-0.059 c 0,-0.55 0.45,-1 1,-1 0.55,0 1,0.45 1,1 0,0.55 -0.45,1 -1,1 -0.55,0 -1,-0.45 -1,-1 z m -8.18695,-2.5 c -1.19555,-1.375 -2.51053,-2.5 -2.92218,-2.5 -0.41166,0 -2.40802,-1.56517 -4.43637,-3.47815 -3.01754,-2.8459 -3.60794,-4.02301 -3.24798,-6.47559 0.24196,-1.64859 -0.043,-3.17947 -0.6333,-3.40195 -0.67154,-0.25312 -0.48307,-1.02618 0.50359,-2.06551 2.06862,-2.17906 5.93337,-0.79681 7.86533,2.81309 1.281,2.39358 1.19441,2.84762 -1.02122,5.35457 -1.67147,1.89124 -1.80177,2.24678 -0.42092,1.14849 3.67956,-2.92661 4.8999,-3.37945 4.20132,-1.55899 -0.35513,0.92545 -0.15428,1.66404 0.45251,1.66404 0.71242,0 0.65244,0.5285 -0.17283,1.52289 -1.05678,1.27335 -0.99492,1.41968 0.37756,0.89301 1.94253,-0.74542 2.15845,0.63714 0.39144,2.50651 -1.03291,1.09274 -0.84609,1.11433 1.07569,0.1243 2.22093,-1.14413 2.27173,-1.09333 1.1276,1.1276 -0.99003,1.92178 -0.96844,2.1086 0.1243,1.07569 2.12068,-2.00456 2.82655,-1.44902 1.57832,1.2422 -1.44907,3.12425 -2.13218,3.12535 -4.84286,0.008 z m 95.17128,1.49032 c -1.15651,-0.71477 -0.97283,-1.2657 0.98934,-2.96749 1.32524,-1.14937 2.90975,-1.89781 3.52113,-1.6632 0.61139,0.23461 1.69042,-0.88103 2.39784,-2.47921 1.37814,-3.11345 4.52655,-5.35742 6.12803,-4.36765 0.53863,0.3329 0.97933,1.67715 0.97933,2.98723 0,1.31008 0.50014,2.69107 1.11143,3.06887 0.79466,0.49112 0.9054,-0.81105 0.38857,-4.56887 -0.51963,-3.77819 -0.40824,-5.06132 0.39624,-4.56412 0.61551,0.3804 1.8742,-0.0635 2.7971,-0.98636 1.57066,-1.57066 1.74087,-1.52677 2.66094,0.68624 0.94808,2.28037 1.00778,2.24007 1.6827,-1.13576 0.72608,-3.63176 1.01533,-3.04207 1.55295,3.16598 0.36544,4.21982 -2.10575,7.5 -3.16163,4.19664 -1.66039,-5.19463 -2.36895,-5.63271 -1.79956,-1.11262 0.32909,2.6125 0.19297,4.75 -0.30249,4.75 -0.49546,0 -1.01048,-1.43892 -1.14448,-3.19761 -0.36345,-4.76976 -1.18177,-4.74833 -1.18177,0.0309 0,2.29167 -0.1882,4.16667 -0.41821,4.16667 -0.23002,0 -1.13002,0.27314 -2,0.60699 -1.15516,0.44328 -1.60611,-0.0287 -1.67198,-1.75 -0.0764,-1.99586 -0.229,-1.87818 -0.9962,0.76801 -0.65532,2.26032 -1.52963,3.1492 -3.15981,3.21245 -2.94494,0.11428 -5.00657,0.56402 -6.30155,1.37469 -0.57626,0.36074 -1.68682,0.26092 -2.46792,-0.22182 z m -38.48433,-1.99032 c 0.33992,-0.55 0.81648,-1 1.05902,-1 0.24254,0 0.44098,0.45 0.44098,1 0,0.55 -0.47656,1 -1.05902,1 -0.58246,0 -0.7809,-0.45 -0.44098,-1 z m -5.95729,-0.9309 c -0.31644,-0.512 -0.11799,-1.21356 0.44098,-1.55902 0.55897,-0.34546 1.01631,0.0734 1.01631,0.9309 0,1.75653 -0.60005,2.01516 -1.45729,0.62812 z m 2.95729,-0.0691 c 0.33992,-0.55 0.81648,-1 1.05902,-1 0.24254,0 0.44098,0.45 0.44098,1 0,0.55 -0.47656,1 -1.05902,1 -0.58246,0 -0.7809,-0.45 -0.44098,-1 z m -8.5,-0.91096 -2.5,-0.71161 2.27067,-1.23496 c 2.51228,-1.36637 4.22933,-0.79127 4.22933,1.41655 0,1.56275 -0.2537,1.59637 -4,0.53002 z m 10.97081,-3.62424 c -0.6907,-0.83223 -1.03109,-1.73787 -0.75644,-2.01253 0.70637,-0.70636 3.78563,0.59157 3.78563,1.59568 0,1.6513 -1.79921,1.89889 -3.02919,0.41685 z m -6.9555,-2.21482 c 0.0667,-3.26712 4.98469,-3.78072 4.98469,-0.52057 0,1.23369 -0.27889,1.284 -1.5,0.27057 -1.03636,-0.8601 -1.5,-0.89795 -1.5,-0.12244 0,0.61734 -0.45,1.12244 -1,1.12244 -0.55,0 -0.99311,-0.3375 -0.98469,-0.75 z m -2.51531,-1.25 c 0.33992,-0.55 0.81648,-1 1.05902,-1 0.24254,0 0.44098,0.45 0.44098,1 0,0.55 -0.47656,1 -1.05902,1 -0.58246,0 -0.7809,-0.45 -0.44098,-1 z m 74.66924,-0.5 c -0.10519,-1.1 -0.46991,-3.8 -0.81048,-6 -0.47505,-3.0686 -0.34197,-3.74142 0.57149,-2.88951 0.72184,0.6732 1.041,3.03588 0.81049,6 -0.20914,2.68923 -0.46631,3.98951 -0.5715,2.88951 z m -62.97046,-3.09623 c -1.86193,-2.0448 -0.44321,-3.79106 1.50069,-1.84715 0.90276,0.90276 1.1949,1.9347 0.68624,2.42406 -0.49365,0.47492 -1.4617,0.21955 -2.18693,-0.57691 z m -44.19878,-1.01107 c 0,-1.83933 2.7661,-2.44462 3.41724,-0.74777 0.32052,0.83525 0.58276,1.61041 0.58276,1.72257 0,0.11216 -0.9,0.20393 -2,0.20393 -1.1,0 -2,-0.53043 -2,-1.17873 z m -3,-0.83368 c 0,-1.61407 1.4163,-2.80939 2.29162,-1.93407 0.78038,0.78038 -0.29485,3.37505 -1.39861,3.37505 -0.49115,0 -0.89301,-0.64844 -0.89301,-1.44098 z m 41.12189,0.53747 c -0.75797,-0.48009 -1.08106,-1.35354 -0.71798,-1.94101 0.87544,-1.4165 3.59609,-0.31835 3.59609,1.45151 0,1.59262 -0.89593,1.745 -2.87811,0.4895 z m 35.87811,-13.09649 c 0,-0.55 0.45,-1 1,-1 0.55,0 1,0.45 1,1 0,0.55 -0.45,1 -1,1 -0.55,0 -1,-0.45 -1,-1 z m 3,-1 c 0,-0.55 0.45,-1 1,-1 0.55,0 1,0.45 1,1 0,0.55 -0.45,1 -1,1 -0.55,0 -1,-0.45 -1,-1 z m 4,-2 c 0,-0.55 0.45,-1 1,-1 0.55,0 1,0.45 1,1 0,0.55 -0.45,1 -1,1 -0.55,0 -1,-0.45 -1,-1 z m -19.33333,-7.66667 c -1.21393,-1.21392 -0.69106,-4.33333 0.72634,-4.33333 0.76616,0 1.66556,-0.71024 1.99867,-1.57831 0.48945,-1.2755 1.09931,-0.99164 3.17865,1.47953 1.41516,1.68181 2.2892,3.51705 1.94232,4.07831 -0.69865,1.13044 -6.79447,1.40532 -7.84598,0.3538 z m -49.66667,-4.89235 c 0,-0.85746 0.45734,-1.27636 1.01631,-0.9309 0.55897,0.34546 0.75742,1.04702 0.44098,1.55902 -0.85723,1.38704 -1.45729,1.12841 -1.45729,-0.62812 z m 14.42708,-1.96125 c -0.80897,-1.93615 -1.63409,-4.74865 -1.83359,-6.25 -0.19951,-1.50135 -0.6854,-3.51098 -1.07977,-4.46583 -0.53951,-1.30627 -0.0354,-1.99526 2.0361,-2.78284 3.51777,-1.33745 5.78336,-0.55936 2.45018,0.84148 -1.96787,0.82705 -2.10145,1.06418 -0.62756,1.11407 1.54946,0.0525 1.65771,0.32214 0.62756,1.56339 -1.00644,1.21268 -0.97488,1.5 0.16475,1.5 0.7753,0 1.47744,0.9 1.5603,2 0.0829,1.1 -0.27138,2 -0.7872,2 -2.14529,0 -0.70988,1.88382 2.21137,2.90217 4.81278,1.67775 7.54505,1.37494 8.14053,-0.90217 0.28766,-1.1 1.2667,-2 2.17565,-2 1.0736,0 1.37793,0.43796 0.86858,1.25 -0.43124,0.6875 -0.67086,1.94098 -0.5325,2.7855 0.17321,1.05725 -1.16277,1.91378 -4.28931,2.75 -7.64652,2.04514 -9.42142,1.67594 -11.08509,-2.30577 z m 25.32817,0.0203 c 0.26285,-1.375 1.10044,-2.5 1.86133,-2.5 1.65551,0 1.71389,0.51399 0.34824,3.06574 -1.46453,2.73649 -2.77661,2.40055 -2.20957,-0.56574 z m 14.24475,-2.46862 c 0,-0.53273 0.675,-0.70959 1.5,-0.39301 0.825,0.31659 1.5,0.75246 1.5,0.96862 0,0.21615 -0.675,0.39301 -1.5,0.39301 -0.825,0 -1.5,-0.43588 -1.5,-0.96862 z m 2.4427,-2.44962 c -1.06675,-0.78003 -1.59026,-1.76753 -1.16335,-2.19444 0.42691,-0.42692 1.76371,0.21129 2.97065,1.41824 2.4462,2.4462 1.20537,2.97911 -1.8073,0.7762 z m -15.9427,-0.58176 c 0.33992,-0.55 1.49148,-1 2.55902,-1 1.06754,0 1.94098,0.45 1.94098,1 0,0.55 -1.15156,1 -2.55902,1 -1.45136,0 -2.2915,-0.43284 -1.94098,-1 z m -13.5,-0.81598 c 0,-1.02165 4.10911,-2.40824 4.873,-1.64436 0.6363,0.6363 0.002,1.09662 -2.623,1.9035 -1.2406,0.38134 -2.25,0.26508 -2.25,-0.25914 z m 31.65499,-2.01276 c -1.9949,-2.20434 -2.17274,-5.17126 -0.30998,-5.17126 0.73976,0 2.20226,0.9763 3.25,2.16956 1.57208,1.79042 1.61894,2.06563 0.26817,1.57482 -1.23965,-0.45043 -1.51465,-0.12761 -1.13336,1.33044 0.63033,2.4104 0.0439,2.43766 -2.07483,0.0964 z m -32.4916,-2.29112 c 0.2754,-1.9473 0.9731,-2.41202 3.83661,-2.55545 1.925,-0.0964 2.64718,0.0617 1.60485,0.35128 -1.49202,0.41457 -1.60454,0.70619 -0.52896,1.37093 1.70741,1.05524 1.1825,1.59916 -2.41455,2.50196 -2.56939,0.64488 -2.80306,0.48878 -2.49795,-1.66872 z m 14.83661,0.90175 c 0,-0.43004 1.125,-0.78189 2.5,-0.78189 1.375,0 2.5,0.44496 2.5,0.9888 0,0.54384 -1.125,0.89569 -2.5,0.78189 -1.375,-0.1138 -2.5,-0.55876 -2.5,-0.9888 z m 2.75,-3.47122 c -1.8038,-0.47138 -2.4659,-2.31067 -0.83179,-2.31067 1.73031,0 4.08179,1.21382 4.08179,2.10699 0,0.93336 -0.36927,0.9565 -3.25,0.20368 z m -18.25563,-3.56067 c 0.1946,-2.73406 5.50563,-4.00396 5.50563,-1.31642 0,0.86153 0.5625,1.61128 1.25,1.6661 1.49248,0.11902 -3.06492,1.65782 -5.33288,1.80064 -1.04706,0.0659 -1.52867,-0.66197 -1.42275,-2.15032 z m 16.00563,-0.75 c -0.34907,-0.56481 0.46994,-1 1.88197,-1 1.375,0 2.77811,0.45 3.11803,1 0.34907,0.56481 -0.46994,1 -1.88197,1 -1.375,0 -2.77811,-0.45 -3.11803,-1 z m 0.5,-3 c 0,-0.55 0.87344,-1 1.94098,-1 1.06754,0 2.2191,0.45 2.55902,1 0.35052,0.56716 -0.48962,1 -1.94098,1 -1.40746,0 -2.55902,-0.45 -2.55902,-1 z m -17,-0.77951 c 0,-0.54642 1.35,-1.19163 3,-1.4338 1.65,-0.24217 3,-0.0682 3,0.3865 0,0.45475 -0.6382,0.82681 -1.41821,0.82681 -0.78002,0 -2.13002,0.27314 -3,0.60699 -0.86999,0.33384 -1.58179,0.15992 -1.58179,-0.3865 z m -93,108.72049 c 0,-0.51754 -0.66088,-0.94098 -1.46862,-0.94098 -0.89208,0 -1.24351,0.5866 -0.89521,1.49426 0.59029,1.53826 2.36383,1.12315 2.36383,-0.55328 z m 30,-13.5 c 0,-0.79254 -0.45,-1.44098 -1,-1.44098 -0.55,0 -1,0.92656 -1,2.05902 0,1.13246 0.45,1.7809 1,1.44098 0.55,-0.33992 1,-1.26648 1,-2.05902 z M 512.7103,374.61994 c -0.31922,-0.79773 -0.55618,-0.56078 -0.60416,0.60417 -0.0434,1.05416 0.19293,1.64479 0.52522,1.3125 0.33229,-0.3323 0.36781,-1.1948 0.0789,-1.91667 z m 19.44445,-13.5625 c 1.24387,-1.58606 1.2085,-1.62143 -0.37756,-0.37756 -1.66575,1.30637 -2.19548,2.12756 -1.37244,2.12756 0.20765,0 0.99515,-0.7875 1.75,-1.75 z m -9.62756,-17.25 c 0.33992,-0.55 -0.0835,-1 -0.94098,-1 -0.85746,0 -1.55902,0.45 -1.55902,1 0,0.55 0.42344,1 0.94098,1 0.51754,0 1.2191,-0.45 1.55902,-1 z m 143.86514,-27.07258 c 1.44917,-1.13992 2.63486,-2.65982 2.63486,-3.37756 0,-0.71773 0.675,-1.86517 1.5,-2.54986 1.7296,-1.43544 1.97604,-6.24199 0.46482,-9.06574 -1.61148,-3.01108 -7.28655,-2.61838 -9.42971,0.6525 -1.96705,3.0021 -1.49989,3.80422 2.25248,3.8675 4.1545,0.0701 4.30164,4.61035 0.27976,8.63224 -1.68704,1.68704 -3.06735,3.25773 -3.06735,3.49042 0,1.1271 3.01287,0.2008 5.36514,-1.6495 z m -2.92184,-3.14993 c 1.83642,-2.62185 2.04694,-5.77749 0.38544,-5.77749 -1.81098,0 -4.82874,3.11749 -4.82874,4.98832 0,3.54943 2.23224,3.94589 4.4433,0.78917 z m -85.4433,-4.87312 c 0,-0.6026 -0.87008,-2.31754 -1.93351,-3.81099 -4.22254,-5.93002 -3.1201,-11.09338 2.36858,-11.09338 2.98833,0 7.56493,4.61981 7.56493,7.63636 0,2.69444 1.18815,3.04679 2.98266,0.88453 2.88666,-3.47821 -3.64386,-12.9915 -9.69781,-14.12723 -8.41698,-1.57904 -12.01919,11.93796 -5.13442,19.26647 2.36734,2.51991 3.84957,2.99899 3.84957,1.24424 z m 81,-0.46339 c 0,-0.85746 -0.45,-1.2809 -1,-0.94098 -0.55,0.33992 -1,1.04148 -1,1.55902 0,0.51754 0.45,0.94098 1,0.94098 0.55,0 1,-0.70156 1,-1.55902 z m -76.04517,-3.20332 c 1.83827,-1.48854 2.01777,-2.17953 1.15541,-4.4477 -1.43976,-3.78687 -5.63904,-6.42591 -7.61525,-4.7858 -2.02997,1.68472 -1.87984,3.63708 0.58657,7.62781 2.39306,3.87204 2.90246,4.01131 5.87326,1.60569 z m -57.88454,136.57136 c -0.0387,-1.48004 0.37971,-2.9691 0.92971,-3.30902 1.19384,-0.73784 1.19384,1.22178 0,4 -0.7674,1.78583 -0.86696,1.71184 -0.92971,-0.69098 z m -1.07029,-4.69099 c 0,-0.55 0.45,-1.27811 1,-1.61803 0.55,-0.33992 1,-0.16803 1,0.38197 0,0.55 -0.45,1.27811 -1,1.61803 -0.55,0.33992 -1,0.16803 -1,-0.38197 z m 177,-0.059 c 0,-0.51754 0.45,-1.2191 1,-1.55902 0.55,-0.33992 1,0.0835 1,0.94098 0,0.85746 -0.45,1.55902 -1,1.55902 -0.55,0 -1,-0.42344 -1,-0.94098 z m -179.95416,-4.14468 c 0.61391,-1.1471 1.31533,-1.88651 1.55872,-1.64312 0.6999,0.69989 -0.71897,3.72877 -1.74673,3.72877 -0.51083,0 -0.42629,-0.93781 0.18801,-2.08565 z m 181.03311,-1.49768 c 0.048,-1.16495 0.28494,-1.4019 0.60416,-0.60417 0.28887,0.72187 0.25335,1.58437 -0.0789,1.91667 -0.3323,0.33229 -0.56864,-0.25834 -0.52522,-1.3125 z m -183.07895,-0.62756 c 0,-0.84932 0.74867,-2.16182 1.66372,-2.91667 1.52184,-1.2554 1.55292,-1.15924 0.36454,1.12756 -1.74216,3.35245 -2.02826,3.60481 -2.02826,1.78911 z m -1.96456,-2.84798 c -0.0195,-0.85738 0.62525,-2.43238 1.43276,-3.5 1.88023,-2.4859 1.90227,-0.71317 0.0318,2.55887 -0.91603,1.60243 -1.44185,1.94032 -1.46456,0.94113 z m 18.46456,-0.94113 c 0.33992,-0.55 0.81648,-1 1.05902,-1 0.24254,0 0.44098,0.45 0.44098,1 0,0.55 -0.47656,1 -1.05902,1 -0.58246,0 -0.7809,-0.45 -0.44098,-1 z m -2.48469,-3.19098 c -0.008,-0.93004 0.43469,-1.9691 0.98469,-2.30902 1.2656,-0.78218 1.2656,0.54163 0,2.5 -0.8354,1.29269 -0.97149,1.26629 -0.98469,-0.19098 z m -16.97987,-1.43658 c -0.0195,-1.17015 0.63956,-2.68775 1.46456,-3.37244 1.87209,-1.5537 1.87209,-0.27489 0,3 -1.34618,2.35489 -1.43119,2.37651 -1.46456,0.37244 z m 13.96456,-1.75 c 0,-0.75765 0.75925,-1.99515 1.68723,-2.75 1.48525,-1.20814 1.60496,-1.15316 1,0.45935 -0.37798,1.00748 -0.68723,2.24498 -0.68723,2.75 0,0.50501 -0.45,0.91821 -1,0.91821 -0.55,0 -1,-0.6199 -1,-1.37756 z m -15.51694,-3.11685 c 0.69142,-3.05491 2.46711,-5.88875 3.21886,-5.137 0.22931,0.22931 -0.55362,2.15268 -1.73983,4.27417 -1.99972,3.57638 -2.10741,3.63921 -1.47903,0.86283 z m 187.84508,-5.00559 c 0.004,-3.85 0.18518,-5.30246 0.40166,-3.2277 0.21647,2.07477 0.21284,5.22477 -0.008,7 -0.22091,1.77524 -0.39803,0.0777 -0.39359,-3.7723 z m -173.29634,3.30902 c -0.0175,-0.93004 0.44814,-1.9876 1.03473,-2.35014 1.76258,-1.08933 2.0097,0.059 0.45494,2.11412 -1.27997,1.69187 -1.46174,1.72067 -1.48967,0.23602 z m -15.99853,-2.44824 c -0.0183,-0.62656 0.85176,-2.20156 1.93346,-3.5 1.0817,-1.29843 1.9817,-1.84813 2,-1.22156 0.0183,0.62656 -0.85176,2.20156 -1.93346,3.5 -1.0817,1.29843 -1.9817,1.84813 -2,1.22156 z m 13.96673,-1.24275 c 0,-0.55 0.45,-1.27811 1,-1.61803 0.55,-0.33992 1,-0.16803 1,0.38197 0,0.55 -0.45,1.27811 -1,1.61803 -0.55,0.33992 -1,0.16803 -1,-0.38197 z m -1,-3.32892 c 0,-0.84932 0.74867,-2.16182 1.66372,-2.91667 1.52184,-1.2554 1.55292,-1.15924 0.36454,1.12756 -1.74216,3.35245 -2.02826,3.60481 -2.02826,1.78911 z m -1,-4.66667 c 0,-0.48265 0.74867,-1.49515 1.66372,-2.25 1.5086,-1.24448 1.55194,-1.16266 0.46482,0.87756 -1.23991,2.32696 -2.12854,2.89993 -2.12854,1.37244 z m -1.27283,-6.05775 c -0.55146,-2.10879 1.72143,-6.06469 3.48452,-6.06469 0.60406,0 0.35354,0.82293 -0.5567,1.82874 -1.82582,2.0175 -2.22386,3.64088 -0.65499,2.67126 1.15446,-0.7135 1.24093,-0.29144 0.39301,1.91821 -0.82604,2.15264 -2.05302,1.98993 -2.66584,-0.35352 z m 178.35178,-3.64802 c 0.048,-1.16495 0.28494,-1.4019 0.60416,-0.60417 0.28887,0.72187 0.25335,1.58438 -0.0789,1.91667 -0.3323,0.33229 -0.56864,-0.25834 -0.52522,-1.3125 z m -0.3687,-8.41667 c 0.28766,-1.1 0.69553,-2 0.90638,-2 0.21085,0 0.38337,0.9 0.38337,2 0,1.1 -0.40787,2 -0.90638,2 -0.49851,0 -0.67103,-0.9 -0.38337,-2 z m 0.0709,-7.20687 c -0.25627,-0.71122 -0.57372,-24.91748 -0.70544,-53.79169 -0.13173,-28.87422 -0.46496,-52.72421 -0.74053,-53 -0.27556,-0.27579 -42.7637,-0.62735 -94.4181,-0.78123 l -93.91708,-0.2798 -0.11071,2.2798 c -0.0609,1.25388 -0.0238,5.54229 0.0824,9.52979 0.10623,3.9875 -0.18144,7.24997 -0.63928,7.24993 -0.67074,-5e-5 -1.00854,-13.62241 -0.46496,-18.74993 0.10499,-0.99034 19.94265,-1.25 95.49644,-1.25 l 95.36393,0 0.49752,54.75 c 0.27363,30.1125 0.39046,54.88191 0.25961,55.04313 -0.13085,0.16122 -0.44757,-0.28878 -0.70384,-1 z M 510.02719,307.30744 c 0,-3.025 0.3448,-5.5 0.76621,-5.5 0.42142,0 0.75892,2.47495 0.75,5.4999 -0.009,3.02494 -0.35371,5.49994 -0.76621,5.5 -0.4125,5e-5 -0.75,-2.4749 -0.75,-5.4999 z m 0.24056,-11.89839 c 0.14269,-2.41911 0.59694,-4.19256 1.00944,-3.94098 1.13594,0.69278 0.89806,8.33937 -0.25944,8.33937 -0.56557,0 -0.89536,-1.93404 -0.75,-4.39839 z"
       id="path4181"
       inkscape:connector-curvature="0" />
  </g>
</svg>
